<?xml version="1.0" encoding="UTF-8"?>
<!DOCTYPE svg PUBLIC "-//W3C//DTD SVG 1.1//EN" "http://www.w3.org/Graphics/SVG/1.1/DTD/svg11.dtd">
<svg xmlns="http://www.w3.org/2000/svg" version="1.1" width="150px" height="148px" style="shape-rendering:geometricPrecision; text-rendering:geometricPrecision; image-rendering:optimizeQuality; fill-rule:evenodd; clip-rule:evenodd" xmlns:xlink="http://www.w3.org/1999/xlink">
<g><path style="opacity:1" fill="#fefefe" d="M -0.5,-0.5 C 49.5,-0.5 99.5,-0.5 149.5,-0.5C 149.5,48.8333 149.5,98.1667 149.5,147.5C 99.5,147.5 49.5,147.5 -0.5,147.5C -0.5,98.1667 -0.5,48.8333 -0.5,-0.5 Z"/></g>
<g><path style="opacity:1" fill="#1b97d8" d="M 21.5,57.5 C 29.5,57.5 37.5,57.5 45.5,57.5C 44.4098,63.0137 42.7431,68.347 40.5,73.5C 34.6112,71.6827 28.6112,70.1827 22.5,69C 21.5399,65.27 21.2065,61.4367 21.5,57.5 Z"/></g>
<g><path style="opacity:1" fill="#d42122" d="M 17.5,57.5 C 18.6583,67.3247 18.8249,77.3247 18,87.5C 16.2458,89.25 14.0792,89.9167 11.5,89.5C 11.8312,81.1401 11.4979,72.8068 10.5,64.5C 9.32791,64.0814 8.32791,63.4147 7.5,62.5C 10.9272,60.8157 14.2606,59.1491 17.5,57.5 Z"/></g>
<g><path style="opacity:1" fill="#2397d8" d="M 83.5,61.5 C 89.1764,61.3339 94.8431,61.5006 100.5,62C 108.478,67.2885 108.478,72.6218 100.5,78C 103.167,81.6667 105.833,85.3333 108.5,89C 106.833,89.6667 105.167,89.6667 103.5,89C 100.92,85.8416 98.5871,82.5082 96.5,79C 93.5184,78.502 90.5184,78.3354 87.5,78.5C 87.5,82.1667 87.5,85.8333 87.5,89.5C 86.1667,89.5 84.8333,89.5 83.5,89.5C 83.5,80.1667 83.5,70.8333 83.5,61.5 Z"/></g>
<g><path style="opacity:1" fill="#2597d8" d="M 124.5,61.5 C 126.467,61.2606 128.301,61.5939 130,62.5C 134.321,71.2975 138.154,80.2975 141.5,89.5C 140.022,89.762 138.689,89.4287 137.5,88.5C 136.5,86.5 135.5,84.5 134.5,82.5C 129.5,81.1667 124.5,81.1667 119.5,82.5C 118.5,84.5 117.5,86.5 116.5,88.5C 115.311,89.4287 113.978,89.762 112.5,89.5C 116.311,80.0625 120.311,70.7292 124.5,61.5 Z"/></g>
<g><path style="opacity:1" fill="#b4d7ef" d="M 47.5,89.5 C 47.8261,80.9832 47.4927,72.6499 46.5,64.5C 46.7828,63.7109 47.2828,63.0442 48,62.5C 48.824,71.6762 48.6573,80.6762 47.5,89.5 Z"/></g>
<g><path style="opacity:1" fill="#f8fbfd" d="M 87.5,65.5 C 91.5138,65.3345 95.5138,65.5012 99.5,66C 102.07,68.6153 102.07,71.282 99.5,74C 95.5138,74.4988 91.5138,74.6655 87.5,74.5C 87.5,71.5 87.5,68.5 87.5,65.5 Z"/></g>
<g><path style="opacity:1" fill="#f2f8fc" d="M 126.5,66.5 C 128.599,69.8559 130.599,73.3559 132.5,77C 129.183,77.4983 125.85,77.665 122.5,77.5C 123.548,73.7356 124.881,70.069 126.5,66.5 Z"/></g>
<g><path style="opacity:1" fill="#1296d8" d="M 21.5,71.5 C 28.0094,72.5346 34.3427,74.2013 40.5,76.5C 39.1667,80.5 37.8333,84.5 36.5,88.5C 31.544,89.4941 26.544,89.8275 21.5,89.5C 21.5,83.5 21.5,77.5 21.5,71.5 Z"/></g>
<g><path style="opacity:1" fill="#1f96d8" d="M 46.5,64.5 C 47.4927,72.6499 47.8261,80.9832 47.5,89.5C 44.8127,89.6641 42.146,89.4974 39.5,89C 42.1405,80.9129 44.4739,72.7462 46.5,64.5 Z"/></g>
<g><path style="opacity:1" fill="#2497d8" d="M 60.5,61.5 C 76.2054,61.3572 81.7054,68.6906 77,83.5C 68.6089,91.6992 60.6089,91.3659 53,82.5C 49.3573,73.1469 51.8573,66.1469 60.5,61.5 Z"/></g>
<g><path style="opacity:1" fill="#fbfcfe" d="M 61.5,65.5 C 71.4423,64.2765 75.9423,68.6099 75,78.5C 72.4891,84.6573 67.9891,86.824 61.5,85C 55.9752,82.0812 54.1419,77.5812 56,71.5C 57.3597,68.9774 59.193,66.9774 61.5,65.5 Z"/></g>
</svg>
