<?xml version="1.0" encoding="UTF-8"?>
<!DOCTYPE svg PUBLIC "-//W3C//DTD SVG 1.1//EN" "http://www.w3.org/Graphics/SVG/1.1/DTD/svg11.dtd">
<svg xmlns="http://www.w3.org/2000/svg" version="1.1" width="202px" height="119px" style="shape-rendering:geometricPrecision; text-rendering:geometricPrecision; image-rendering:optimizeQuality; fill-rule:evenodd; clip-rule:evenodd" xmlns:xlink="http://www.w3.org/1999/xlink">
<g><path style="opacity:1" fill="#fefdfd" d="M -0.5,-0.5 C 66.8333,-0.5 134.167,-0.5 201.5,-0.5C 201.5,39.1667 201.5,78.8333 201.5,118.5C 134.167,118.5 66.8333,118.5 -0.5,118.5C -0.5,78.8333 -0.5,39.1667 -0.5,-0.5 Z"/></g>
<g><path style="opacity:1" fill="#f48585" d="M 180.5,33.5 C 182.429,33.2308 184.095,33.7308 185.5,35C 179.033,34.4625 176.533,37.2958 178,43.5C 180.166,45.1213 182.666,45.9546 185.5,46C 178.718,47.8752 175.552,45.3752 176,38.5C 177.025,36.313 178.525,34.6464 180.5,33.5 Z"/></g>
<g><path style="opacity:1" fill="#5f9ccf" d="M 91.5,36.5 C 94.5719,36.1826 97.5719,36.5159 100.5,37.5C 100.291,38.086 99.9574,38.586 99.5,39C 96.854,39.4974 94.1873,39.6641 91.5,39.5C 91.5,38.5 91.5,37.5 91.5,36.5 Z"/></g>
<g><path style="opacity:1" fill="#1b7ec2" d="M 74.5,36.5 C 76.924,36.1924 79.2573,36.5258 81.5,37.5C 80.3333,37.8333 79.1667,38.1667 78,38.5C 76.3189,38.3917 75.1522,37.7251 74.5,36.5 Z"/></g>
<g><path style="opacity:1" fill="#0072bd" d="M 121.5,36.5 C 123.924,36.1924 126.257,36.5258 128.5,37.5C 127.333,37.8333 126.167,38.1667 125,38.5C 123.319,38.3917 122.152,37.7251 121.5,36.5 Z"/></g>
<g><path style="opacity:1" fill="#f67b78" d="M 179.5,37.5 C 181.144,37.2865 182.644,37.6198 184,38.5C 183.333,40.1667 183.333,41.8333 184,43.5C 182.684,40.972 181.517,40.972 180.5,43.5C 179.534,41.604 179.201,39.604 179.5,37.5 Z"/></g>
<g><path style="opacity:1" fill="#0076be" d="M 83.5,40.5 C 85.924,40.1924 88.2573,40.5258 90.5,41.5C 89.3333,41.8333 88.1667,42.1667 87,42.5C 85.3189,42.3917 84.1522,41.7251 83.5,40.5 Z"/></g>
<g><path style="opacity:1" fill="#408ec9" d="M 111.5,39.5 C 114.167,39.5 116.833,39.5 119.5,39.5C 119.5,40.5 119.5,41.5 119.5,42.5C 116.833,42.5 114.167,42.5 111.5,42.5C 111.5,41.5 111.5,40.5 111.5,39.5 Z"/></g>
<g><path style="opacity:1" fill="#4f95cc" d="M 131.5,39.5 C 134.167,39.5 136.833,39.5 139.5,39.5C 139.5,40.5 139.5,41.5 139.5,42.5C 136.833,42.5 134.167,42.5 131.5,42.5C 131.5,41.5 131.5,40.5 131.5,39.5 Z"/></g>
<g><path style="opacity:1" fill="#5498cd" d="M 64.5,40.5 C 67.1667,40.5 69.8333,40.5 72.5,40.5C 72.5,41.5 72.5,42.5 72.5,43.5C 69.8333,43.5 67.1667,43.5 64.5,43.5C 64.5,42.5 64.5,41.5 64.5,40.5 Z"/></g>
<g><path style="opacity:1" fill="#408cc8" d="M 73.5,42.5 C 76.1667,42.5 78.8333,42.5 81.5,42.5C 81.5,43.5 81.5,44.5 81.5,45.5C 78.8333,45.5 76.1667,45.5 73.5,45.5C 73.5,44.5 73.5,43.5 73.5,42.5 Z"/></g>
<g><path style="opacity:1" fill="#438cc8" d="M 92.5,42.5 C 95.1667,42.5 97.8333,42.5 100.5,42.5C 100.5,43.5 100.5,44.5 100.5,45.5C 97.8333,45.5 95.1667,45.5 92.5,45.5C 92.5,44.5 92.5,43.5 92.5,42.5 Z"/></g>
<g><path style="opacity:1" fill="#4d91ca" d="M 120.5,42.5 C 123.5,42.5 126.5,42.5 129.5,42.5C 129.5,43.5 129.5,44.5 129.5,45.5C 126.5,45.5 123.5,45.5 120.5,45.5C 120.5,44.5 120.5,43.5 120.5,42.5 Z"/></g>
<g><path style="opacity:1" fill="#2582c3" d="M 140.5,43.5 C 143.247,43.1866 145.914,43.52 148.5,44.5C 147.167,44.8333 145.833,45.1667 144.5,45.5C 142.667,45.4146 141.334,44.7479 140.5,43.5 Z"/></g>
<g><path style="opacity:1" fill="#5697cd" d="M 55.5,44.5 C 58.1667,44.5 60.8333,44.5 63.5,44.5C 63.5,45.5 63.5,46.5 63.5,47.5C 60.8333,47.5 58.1667,47.5 55.5,47.5C 55.5,46.5 55.5,45.5 55.5,44.5 Z"/></g>
<g><path style="opacity:1" fill="#0c7ac0" d="M 102.5,44.5 C 104.924,44.1924 107.257,44.5258 109.5,45.5C 108.333,45.8333 107.167,46.1667 106,46.5C 104.319,46.3917 103.152,45.7251 102.5,44.5 Z"/></g>
<g><path style="opacity:1" fill="#ed3438" d="M 164.5,44.5 C 167.5,44.5 170.5,44.5 173.5,44.5C 173.5,58.1667 173.5,71.8333 173.5,85.5C 163.395,85.9495 153.395,85.4495 143.5,84C 142.54,82.5806 141.707,81.0806 141,79.5C 140.333,74.5 140.333,69.5 141,64.5C 142.076,61.921 143.909,60.2543 146.5,59.5C 152.5,59.5 158.5,59.5 164.5,59.5C 164.5,54.5 164.5,49.5 164.5,44.5 Z"/></g>
<g><path style="opacity:1" fill="#ed3538" d="M 28.5,84.5 C 21.6866,85.4912 14.6866,85.8245 7.5,85.5C 6.54163,85.0472 5.7083,84.3805 5,83.5C 4.33333,80.8333 4.33333,78.1667 5,75.5C 9.06082,66.3781 13.3942,57.3781 18,48.5C 19.7328,46.3985 21.7328,46.0652 24,47.5C 29.8514,59.8875 35.018,72.5542 39.5,85.5C 36.7531,85.8134 34.0865,85.48 31.5,84.5C 28.4368,76.7079 25.1035,69.0412 21.5,61.5C 18.6394,65.8878 16.3061,70.5545 14.5,75.5C 18.1224,76.3253 21.789,76.8253 25.5,77C 26.6422,79.4499 27.6422,81.9499 28.5,84.5 Z"/></g>
<g><path style="opacity:1" fill="#5898cd" d="M 64.5,46.5 C 67.1667,46.5 69.8333,46.5 72.5,46.5C 72.5,47.5 72.5,48.5 72.5,49.5C 69.8333,49.5 67.1667,49.5 64.5,49.5C 64.5,48.5 64.5,47.5 64.5,46.5 Z"/></g>
<g><path style="opacity:1" fill="#5998cd" d="M 81.5,47.5 C 79.3647,49.369 76.6981,50.0356 73.5,49.5C 73.5,48.5 73.5,47.5 73.5,46.5C 76.3854,46.1936 79.0521,46.5269 81.5,47.5 Z"/></g>
<g><path style="opacity:1" fill="#5b99ce" d="M 90.5,46.5 C 90.5,47.5 90.5,48.5 90.5,49.5C 87.3019,50.0356 84.6353,49.369 82.5,47.5C 84.9479,46.5269 87.6146,46.1936 90.5,46.5 Z"/></g>
<g><path style="opacity:1" fill="#5a98cd" d="M 92.5,46.5 C 95.1667,46.5 97.8333,46.5 100.5,46.5C 100.737,47.791 100.404,48.791 99.5,49.5C 97.1667,49.5 94.8333,49.5 92.5,49.5C 92.5,48.5 92.5,47.5 92.5,46.5 Z"/></g>
<g><path style="opacity:1" fill="#5797cd" d="M 111.5,46.5 C 114.167,46.5 116.833,46.5 119.5,46.5C 119.5,47.5 119.5,48.5 119.5,49.5C 116.833,49.5 114.167,49.5 111.5,49.5C 111.5,48.5 111.5,47.5 111.5,46.5 Z"/></g>
<g><path style="opacity:1" fill="#5998ce" d="M 120.5,46.5 C 123.167,46.5 125.833,46.5 128.5,46.5C 128.5,47.5 128.5,48.5 128.5,49.5C 125.833,49.5 123.167,49.5 120.5,49.5C 120.5,48.5 120.5,47.5 120.5,46.5 Z"/></g>
<g><path style="opacity:1" fill="#5898cd" d="M 131.5,46.5 C 134.167,46.5 136.833,46.5 139.5,46.5C 139.5,47.5 139.5,48.5 139.5,49.5C 136.833,49.5 134.167,49.5 131.5,49.5C 131.5,48.5 131.5,47.5 131.5,46.5 Z"/></g>
<g><path style="opacity:1" fill="#2081c3" d="M 55.5,50.5 C 58.2469,50.1866 60.9135,50.52 63.5,51.5C 62.1667,51.8333 60.8333,52.1667 59.5,52.5C 57.6672,52.4146 56.3339,51.7479 55.5,50.5 Z"/></g>
<g><path style="opacity:1" fill="#1e81c3" d="M 64.5,50.5 C 67.2469,50.1866 69.9135,50.52 72.5,51.5C 71.1667,51.8333 69.8333,52.1667 68.5,52.5C 66.6672,52.4146 65.3339,51.7479 64.5,50.5 Z"/></g>
<g><path style="opacity:1" fill="#1b81c3" d="M 140.5,50.5 C 143.247,50.1866 145.914,50.52 148.5,51.5C 147.167,51.8333 145.833,52.1667 144.5,52.5C 142.667,52.4146 141.334,51.7479 140.5,50.5 Z"/></g>
<g><path style="opacity:1" fill="#0279bf" d="M 102.5,50.5 C 104.924,50.1924 107.257,50.5258 109.5,51.5C 108.333,51.8333 107.167,52.1667 106,52.5C 104.319,52.3917 103.152,51.7251 102.5,50.5 Z"/></g>
<g><path style="opacity:1" fill="#147bc0" d="M 111.5,50.5 C 114.247,50.1866 116.914,50.52 119.5,51.5C 118.167,51.8333 116.833,52.1667 115.5,52.5C 113.667,52.4146 112.334,51.7479 111.5,50.5 Z"/></g>
<g><path style="opacity:1" fill="#0279bf" d="M 121.5,50.5 C 123.924,50.1924 126.257,50.5258 128.5,51.5C 127.333,51.8333 126.167,52.1667 125,52.5C 123.319,52.3917 122.152,51.7251 121.5,50.5 Z"/></g>
<g><path style="opacity:1" fill="#0278bf" d="M 131.5,50.5 C 133.924,50.1924 136.257,50.5258 138.5,51.5C 137.333,51.8333 136.167,52.1667 135,52.5C 133.319,52.3917 132.152,51.7251 131.5,50.5 Z"/></g>
<g><path style="opacity:1" fill="#cadfef" d="M 90.5,46.5 C 91.1667,46.5 91.8333,46.5 92.5,46.5C 92.5,47.5 92.5,48.5 92.5,49.5C 94.8333,49.5 97.1667,49.5 99.5,49.5C 99.5,49.8333 99.5,50.1667 99.5,50.5C 100.404,51.209 100.737,52.209 100.5,53.5C 97.6146,53.1936 94.9479,53.5269 92.5,54.5C 93.1522,55.7251 94.3189,56.3917 96,56.5C 97.6811,56.3917 98.8478,55.7251 99.5,54.5C 100.404,55.209 100.737,56.209 100.5,57.5C 94.077,57.7912 87.7436,57.4578 81.5,56.5C 81.6716,55.5084 81.3382,54.8417 80.5,54.5C 78.3926,53.5318 76.0593,53.1984 73.5,53.5C 73.5,52.1667 73.5,50.8333 73.5,49.5C 76.6981,50.0356 79.3647,49.369 81.5,47.5C 81.8333,47.5 82.1667,47.5 82.5,47.5C 84.6353,49.369 87.3019,50.0356 90.5,49.5C 90.5,48.5 90.5,47.5 90.5,46.5 Z"/></g>
<g><path style="opacity:1" fill="#0279bf" d="M 99.5,50.5 C 98.8478,51.7251 97.6811,52.3917 96,52.5C 94.8333,52.1667 93.6667,51.8333 92.5,51.5C 94.7427,50.5258 97.076,50.1924 99.5,50.5 Z"/></g>
<g><path style="opacity:1" fill="#027ac0" d="M 83.5,50.5 C 85.924,50.1924 88.2573,50.5258 90.5,51.5C 89.3333,51.8333 88.1667,52.1667 87,52.5C 85.3189,52.3917 84.1522,51.7251 83.5,50.5 Z"/></g>
<g><path style="opacity:1" fill="#027ac0" d="M 74.5,50.5 C 76.924,50.1924 79.2573,50.5258 81.5,51.5C 80.3333,51.8333 79.1667,52.1667 78,52.5C 76.3189,52.3917 75.1522,51.7251 74.5,50.5 Z"/></g>
<g><path style="opacity:1" fill="#5296cd" d="M 64.5,54.5 C 67.1667,54.5 69.8333,54.5 72.5,54.5C 72.5,55.5 72.5,56.5 72.5,57.5C 69.8333,57.5 67.1667,57.5 64.5,57.5C 64.5,56.5 64.5,55.5 64.5,54.5 Z"/></g>
<g><path style="opacity:1" fill="#5196cc" d="M 140.5,54.5 C 143.167,54.5 145.833,54.5 148.5,54.5C 148.5,55.5 148.5,56.5 148.5,57.5C 145.833,57.5 143.167,57.5 140.5,57.5C 140.5,56.5 140.5,55.5 140.5,54.5 Z"/></g>
<g><path style="opacity:1" fill="#4b8fca" d="M 46.5,54.5 C 49.1667,54.5 51.8333,54.5 54.5,54.5C 54.5,55.5 54.5,56.5 54.5,57.5C 51.8333,57.5 49.1667,57.5 46.5,57.5C 46.5,56.5 46.5,55.5 46.5,54.5 Z"/></g>
<g><path style="opacity:1" fill="#498fca" d="M 55.5,54.5 C 58.1667,54.5 60.8333,54.5 63.5,54.5C 63.5,55.5 63.5,56.5 63.5,57.5C 60.8333,57.5 58.1667,57.5 55.5,57.5C 55.5,56.5 55.5,55.5 55.5,54.5 Z"/></g>
<g><path style="opacity:1" fill="#498fca" d="M 80.5,54.5 C 81.3382,54.8417 81.6716,55.5084 81.5,56.5C 79.0521,57.4731 76.3854,57.8064 73.5,57.5C 73.5,56.5 73.5,55.5 73.5,54.5C 75.8333,54.5 78.1667,54.5 80.5,54.5 Z"/></g>
<g><path style="opacity:1" fill="#1d7fc2" d="M 83.5,54.5 C 85.924,54.1924 88.2573,54.5258 90.5,55.5C 89.3333,55.8333 88.1667,56.1667 87,56.5C 85.3189,56.3917 84.1522,55.7251 83.5,54.5 Z"/></g>
<g><path style="opacity:1" fill="#1d7ec2" d="M 92.5,54.5 C 94.8333,54.5 97.1667,54.5 99.5,54.5C 98.8478,55.7251 97.6811,56.3917 96,56.5C 94.3189,56.3917 93.1522,55.7251 92.5,54.5 Z"/></g>
<g><path style="opacity:1" fill="#1d7ec2" d="M 102.5,54.5 C 104.924,54.1924 107.257,54.5258 109.5,55.5C 108.333,55.8333 107.167,56.1667 106,56.5C 104.319,56.3917 103.152,55.7251 102.5,54.5 Z"/></g>
<g><path style="opacity:1" fill="#488ec9" d="M 111.5,54.5 C 114.167,54.5 116.833,54.5 119.5,54.5C 119.5,55.5 119.5,56.5 119.5,57.5C 116.833,57.5 114.167,57.5 111.5,57.5C 111.5,56.5 111.5,55.5 111.5,54.5 Z"/></g>
<g><path style="opacity:1" fill="#1d7ec2" d="M 121.5,54.5 C 123.924,54.1924 126.257,54.5258 128.5,55.5C 127.333,55.8333 126.167,56.1667 125,56.5C 123.319,56.3917 122.152,55.7251 121.5,54.5 Z"/></g>
<g><path style="opacity:1" fill="#4a8fca" d="M 131.5,54.5 C 134.167,54.5 136.833,54.5 139.5,54.5C 139.5,55.5 139.5,56.5 139.5,57.5C 136.833,57.5 134.167,57.5 131.5,57.5C 131.5,56.5 131.5,55.5 131.5,54.5 Z"/></g>
<g><path style="opacity:1" fill="#458dc9" d="M 150.5,54.5 C 153.167,54.5 155.833,54.5 158.5,54.5C 158.5,55.5 158.5,56.5 158.5,57.5C 155.833,57.5 153.167,57.5 150.5,57.5C 150.5,56.5 150.5,55.5 150.5,54.5 Z"/></g>
<g><path style="opacity:1" fill="#f5a3a5" d="M 68.5,59.5 C 77.3178,58.5067 86.3178,58.1734 95.5,58.5C 95.7947,60.7354 95.4614,62.7354 94.5,64.5C 94.5,62.8333 94.5,61.1667 94.5,59.5C 85.8333,59.5 77.1667,59.5 68.5,59.5 Z"/></g>
<g><path style="opacity:1" fill="#f58687" d="M 164.5,44.5 C 164.5,49.5 164.5,54.5 164.5,59.5C 158.5,59.5 152.5,59.5 146.5,59.5C 151.975,58.5111 157.642,58.1778 163.5,58.5C 163.181,53.6367 163.514,48.97 164.5,44.5 Z"/></g>
<g><path style="opacity:1" fill="#f7afb0" d="M 137.5,59.5 C 134.5,59.5 131.5,59.5 128.5,59.5C 128.5,68.1667 128.5,76.8333 128.5,85.5C 127.507,76.6822 127.173,67.6822 127.5,58.5C 131.042,58.1872 134.375,58.5206 137.5,59.5 Z"/></g>
<g><path style="opacity:1" fill="#ed3537" d="M 45.5,59.5 C 50.8437,59.334 56.1771,59.5006 61.5,60C 64.3589,61.6909 65.6923,64.1909 65.5,67.5C 62.5,67.5 59.5,67.5 56.5,67.5C 56.5,66.5 56.5,65.5 56.5,64.5C 54.1667,64.5 51.8333,64.5 49.5,64.5C 49.5,65.8333 49.5,67.1667 49.5,68.5C 54.6661,68.9665 59.6661,70.1331 64.5,72C 67.5207,76.877 66.8541,81.2103 62.5,85C 56.8333,85.6667 51.1667,85.6667 45.5,85C 42.1788,83.1881 40.8454,80.3547 41.5,76.5C 46.9676,77.2571 52.301,78.2571 57.5,79.5C 57.762,78.0222 57.4287,76.6888 56.5,75.5C 51.142,75.2414 46.3087,73.5747 42,70.5C 40.6631,65.8721 41.8298,62.2054 45.5,59.5 Z"/></g>
<g><path style="opacity:1" fill="#ed3135" d="M 68.5,59.5 C 77.1667,59.5 85.8333,59.5 94.5,59.5C 94.5,61.1667 94.5,62.8333 94.5,64.5C 91.8333,64.5 89.1667,64.5 86.5,64.5C 86.5,71.5 86.5,78.5 86.5,85.5C 83.5,85.5 80.5,85.5 77.5,85.5C 77.5,78.5 77.5,71.5 77.5,64.5C 74.5,64.5 71.5,64.5 68.5,64.5C 68.5,62.8333 68.5,61.1667 68.5,59.5 Z"/></g>
<g><path style="opacity:1" fill="#ed383a" d="M 98.5,59.5 C 106.174,59.3336 113.841,59.5003 121.5,60C 122.308,60.3076 122.975,60.8076 123.5,61.5C 125.343,66.9468 124.676,71.9468 121.5,76.5C 122.789,79.5802 124.455,82.4136 126.5,85C 123.446,85.8214 120.446,85.6548 117.5,84.5C 116.161,79.1459 112.828,76.4793 107.5,76.5C 107.5,79.5 107.5,82.5 107.5,85.5C 104.5,85.5 101.5,85.5 98.5,85.5C 98.5,76.8333 98.5,68.1667 98.5,59.5 Z"/></g>
<g><path style="opacity:1" fill="#ec3035" d="M 137.5,59.5 C 137.5,68.1667 137.5,76.8333 137.5,85.5C 134.5,85.5 131.5,85.5 128.5,85.5C 128.5,76.8333 128.5,68.1667 128.5,59.5C 131.5,59.5 134.5,59.5 137.5,59.5 Z"/></g>
<g><path style="opacity:1" fill="#fefbfb" d="M 107.5,65.5 C 110.833,65.5 114.167,65.5 117.5,65.5C 117.5,66.8333 117.5,68.1667 117.5,69.5C 114.167,69.5 110.833,69.5 107.5,69.5C 107.5,68.1667 107.5,66.8333 107.5,65.5 Z"/></g>
<g><path style="opacity:1" fill="#f4898a" d="M 150.5,66.5 C 154.97,65.5139 159.637,65.1805 164.5,65.5C 164.815,69.3714 164.482,73.0381 163.5,76.5C 163.5,73.1667 163.5,69.8333 163.5,66.5C 159.167,66.5 154.833,66.5 150.5,66.5 Z"/></g>
<g><path style="opacity:1" fill="#fefcfc" d="M 150.5,66.5 C 154.833,66.5 159.167,66.5 163.5,66.5C 163.5,69.8333 163.5,73.1667 163.5,76.5C 158.821,76.6658 154.155,76.4992 149.5,76C 148.39,73.2628 148.223,70.4294 149,67.5C 149.383,66.944 149.883,66.6107 150.5,66.5 Z"/></g>
<g><path style="opacity:1" fill="#f6abac" d="M 28.5,84.5 C 29.0431,84.56 29.3764,84.8933 29.5,85.5C 22.0102,86.8194 14.6769,86.8194 7.5,85.5C 14.6866,85.8245 21.6866,85.4912 28.5,84.5 Z"/></g>
</svg>
