<?xml version="1.0" encoding="UTF-8"?>
<!DOCTYPE svg PUBLIC "-//W3C//DTD SVG 1.1//EN" "http://www.w3.org/Graphics/SVG/1.1/DTD/svg11.dtd">
<svg xmlns="http://www.w3.org/2000/svg" version="1.1" width="348px" height="145px" style="shape-rendering:geometricPrecision; text-rendering:geometricPrecision; image-rendering:optimizeQuality; fill-rule:evenodd; clip-rule:evenodd" xmlns:xlink="http://www.w3.org/1999/xlink">
<g><path style="opacity:1" fill="#fefefd" d="M -0.5,-0.5 C 115.5,-0.5 231.5,-0.5 347.5,-0.5C 347.5,47.8333 347.5,96.1667 347.5,144.5C 231.5,144.5 115.5,144.5 -0.5,144.5C -0.5,96.1667 -0.5,47.8333 -0.5,-0.5 Z"/></g>
<g><path style="opacity:1" fill="#ff8a53" d="M 172.5,43.5 C 173.822,46.7681 174.489,50.4348 174.5,54.5C 174.167,58.1667 173.833,61.8333 173.5,65.5C 172.503,58.1968 172.169,50.8635 172.5,43.5 Z"/></g>
<g><path style="opacity:1" fill="#ff753e" d="M 183.5,43.5 C 184.822,46.7681 185.489,50.4348 185.5,54.5C 185.167,58.1667 184.833,61.8333 184.5,65.5C 183.503,58.1968 183.169,50.8635 183.5,43.5 Z"/></g>
<g><path style="opacity:1" fill="#ff8143" d="M 179.5,45.5 C 180.824,49.107 181.491,53.107 181.5,57.5C 181.167,61.5 180.833,65.5 180.5,69.5C 179.502,61.5277 179.169,53.5277 179.5,45.5 Z"/></g>
<g><path style="opacity:1" fill="#ff7333" d="M 156.5,46.5 C 157.787,47.8714 158.453,49.7047 158.5,52C 158.167,53.8333 157.833,55.6667 157.5,57.5C 156.511,53.8927 156.177,50.226 156.5,46.5 Z"/></g>
<g><path style="opacity:1" fill="#ff7540" d="M 160.5,46.5 C 161.805,48.3972 162.471,50.7305 162.5,53.5C 162.167,55.8333 161.833,58.1667 161.5,60.5C 160.507,55.8804 160.173,51.2137 160.5,46.5 Z"/></g>
<g><path style="opacity:1" fill="#ff7234" d="M 176.5,45.5 C 177.656,53.3225 177.823,61.3225 177,69.5C 175.864,65.6787 175.364,61.6787 175.5,57.5C 175.532,53.4185 175.865,49.4185 176.5,45.5 Z"/></g>
<g><path style="opacity:1" fill="#ff8d5b" d="M 191.5,46.5 C 192.794,48.0478 193.461,50.0478 193.5,52.5C 193.167,54.5 192.833,56.5 192.5,58.5C 191.509,54.5546 191.176,50.5546 191.5,46.5 Z"/></g>
<g><path style="opacity:1" fill="#ff8f5d" d="M 195.5,46.5 C 196.8,48.223 197.467,50.3897 197.5,53C 197.609,55.7003 197.109,58.2003 196,60.5C 195.501,55.8452 195.334,51.1785 195.5,46.5 Z"/></g>
<g><path style="opacity:1" fill="#ff7132" d="M 164.5,47.5 C 165.787,48.8714 166.453,50.7047 166.5,53C 166.167,54.8333 165.833,56.6667 165.5,58.5C 164.511,54.8927 164.177,51.226 164.5,47.5 Z"/></g>
<g><path style="opacity:1" fill="#ff8852" d="M 198.5,46.5 C 199.787,47.8714 200.453,49.7047 200.5,52C 200.167,53.8333 199.833,55.6667 199.5,57.5C 198.511,53.8927 198.177,50.226 198.5,46.5 Z"/></g>
<g><path style="opacity:1" fill="#ff6c1b" d="M 202.5,47.5 C 203.748,48.3339 204.415,49.6672 204.5,51.5C 204.167,52.8333 203.833,54.1667 203.5,55.5C 202.52,52.9135 202.187,50.2469 202.5,47.5 Z"/></g>
<g><path style="opacity:1" fill="#ff8951" d="M 149.5,48.5 C 150.725,49.1522 151.392,50.3189 151.5,52C 151.167,53.1667 150.833,54.3333 150.5,55.5C 149.526,53.2573 149.192,50.924 149.5,48.5 Z"/></g>
<g><path style="opacity:1" fill="#ff8046" d="M 168.5,48.5 C 169.794,50.0478 170.461,52.0478 170.5,54.5C 170.167,56.5 169.833,58.5 169.5,60.5C 168.509,56.5546 168.176,52.5546 168.5,48.5 Z"/></g>
<g><path style="opacity:1" fill="#ff7737" d="M 206.5,48.5 C 207.725,49.1522 208.392,50.3189 208.5,52C 208.167,53.1667 207.833,54.3333 207.5,55.5C 206.526,53.2573 206.192,50.924 206.5,48.5 Z"/></g>
<g><path style="opacity:1" fill="#ff702f" d="M 187.5,48.5 C 188.794,50.0478 189.461,52.0478 189.5,54.5C 189.167,56.5 188.833,58.5 188.5,60.5C 187.509,56.5546 187.176,52.5546 187.5,48.5 Z"/></g>
<g><path style="opacity:1" fill="#ff8140" d="M 145.5,51.5 C 147.337,51.6395 147.67,52.3061 146.5,53.5C 145.702,53.0431 145.369,52.3764 145.5,51.5 Z"/></g>
<g><path style="opacity:1" fill="#ff6c22" d="M 210.5,51.5 C 212.337,51.6395 212.67,52.3061 211.5,53.5C 210.702,53.0431 210.369,52.3764 210.5,51.5 Z"/></g>
<g><path style="opacity:1" fill="#101010" d="M 110.5,81.5 C 113.602,81.154 116.435,81.8207 119,83.5C 122.167,89.1667 125.333,94.8333 128.5,100.5C 125.17,102.172 122.503,101.505 120.5,98.5C 116.205,97.3391 111.871,97.1725 107.5,98C 105.836,101.136 103.169,102.303 99.5,101.5C 102.627,94.5824 106.294,87.9157 110.5,81.5 Z"/></g>
<g><path style="opacity:1" fill="#0f0f0f" d="M 123.5,81.5 C 132.167,81.5 140.833,81.5 149.5,81.5C 149.5,83.1667 149.5,84.8333 149.5,86.5C 146.167,86.5 142.833,86.5 139.5,86.5C 139.5,91.5 139.5,96.5 139.5,101.5C 137.5,101.5 135.5,101.5 133.5,101.5C 133.5,96.5 133.5,91.5 133.5,86.5C 130.167,86.5 126.833,86.5 123.5,86.5C 123.5,84.8333 123.5,83.1667 123.5,81.5 Z"/></g>
<g><path style="opacity:1" fill="#0d0d0d" d="M 216.5,81.5 C 219.97,80.8748 222.804,81.8748 225,84.5C 228.04,90.0816 231.207,95.5816 234.5,101C 231.095,102.102 228.428,101.268 226.5,98.5C 221.833,97.1667 217.167,97.1667 212.5,98.5C 210.572,101.268 207.905,102.102 204.5,101C 208.135,94.2212 212.135,87.7212 216.5,81.5 Z"/></g>
<g><path style="opacity:1" fill="#0a0a0a" d="M 71.5,81.5 C 79.1739,81.3336 86.8406,81.5003 94.5,82C 95.8333,85 95.8333,88 94.5,91C 96.7201,94.1014 97.0535,97.4347 95.5,101C 87.5069,101.5 79.5069,101.666 71.5,101.5C 71.5,94.8333 71.5,88.1667 71.5,81.5 Z"/></g>
<g><path style="opacity:1" fill="#070707" d="M 151.5,81.5 C 159.507,81.3336 167.507,81.5003 175.5,82C 176.833,85 176.833,88 175.5,91C 177.72,94.1014 178.053,97.4347 176.5,101C 168.173,101.5 159.84,101.666 151.5,101.5C 151.5,94.8333 151.5,88.1667 151.5,81.5 Z"/></g>
<g><path style="opacity:1" fill="#070707" d="M 180.5,81.5 C 182.5,81.5 184.5,81.5 186.5,81.5C 186.334,86.1785 186.501,90.8452 187,95.5C 187.5,96 188,96.5 188.5,97C 193.155,97.4992 197.821,97.6658 202.5,97.5C 202.5,98.8333 202.5,100.167 202.5,101.5C 196.158,101.666 189.825,101.5 183.5,101C 182.667,100.167 181.833,99.3333 181,98.5C 180.501,92.8431 180.334,87.1764 180.5,81.5 Z"/></g>
<g><path style="opacity:1" fill="#090909" d="M 256.5,81.5 C 256.5,82.8333 256.5,84.1667 256.5,85.5C 251.637,85.1805 246.97,85.5139 242.5,86.5C 241.883,86.6107 241.383,86.944 241,87.5C 240.333,90.1667 240.333,92.8333 241,95.5C 241.383,96.056 241.883,96.3893 242.5,96.5C 246.97,97.4861 251.637,97.8195 256.5,97.5C 256.5,98.8333 256.5,100.167 256.5,101.5C 250.833,101.5 245.167,101.5 239.5,101.5C 237.629,101.141 236.129,100.141 235,98.5C 234.333,93.8333 234.333,89.1667 235,84.5C 235.903,83.2986 237.069,82.4652 238.5,82C 244.491,81.5005 250.491,81.3338 256.5,81.5 Z"/></g>
<g><path style="opacity:1" fill="#0d0d0d" d="M 259.5,81.5 C 261.5,81.5 263.5,81.5 265.5,81.5C 265.5,84.1667 265.5,86.8333 265.5,89.5C 267.308,89.5086 268.975,89.0086 270.5,88C 274.032,83.0884 278.699,81.0884 284.5,82C 280.933,84.9447 277.6,88.1114 274.5,91.5C 277.994,94.8244 281.661,97.991 285.5,101C 282.5,101.667 279.5,101.667 276.5,101C 273.422,97.4742 269.756,94.9742 265.5,93.5C 265.5,96.1667 265.5,98.8333 265.5,101.5C 263.5,101.5 261.5,101.5 259.5,101.5C 259.5,94.8333 259.5,88.1667 259.5,81.5 Z"/></g>
<g><path style="opacity:1" fill="#666666" d="M 256.5,81.5 C 257.451,82.9187 257.784,84.5853 257.5,86.5C 252.5,86.5 247.5,86.5 242.5,86.5C 246.97,85.5139 251.637,85.1805 256.5,85.5C 256.5,84.1667 256.5,82.8333 256.5,81.5 Z"/></g>
<g><path style="opacity:1" fill="#eeeeee" d="M 77.5,86.5 C 81.5,86.5 85.5,86.5 89.5,86.5C 89.5,87.5 89.5,88.5 89.5,89.5C 85.5,89.5 81.5,89.5 77.5,89.5C 77.5,88.5 77.5,87.5 77.5,86.5 Z"/></g>
<g><path style="opacity:1" fill="#dbdbdb" d="M 113.5,87.5 C 119.64,93.6955 118.307,95.6955 109.5,93.5C 110.844,91.4714 112.177,89.4714 113.5,87.5 Z"/></g>
<g><path style="opacity:1" fill="#a2a2a2" d="M 169.5,86.5 C 170.404,87.209 170.737,88.209 170.5,89.5C 166.167,89.5 161.833,89.5 157.5,89.5C 157.5,88.1667 157.5,86.8333 157.5,85.5C 161.702,85.1832 165.702,85.5166 169.5,86.5 Z"/></g>
<g><path style="opacity:1" fill="#fdfdfd" d="M 169.5,86.5 C 168.129,87.7868 166.295,88.4535 164,88.5C 162.167,88.1667 160.333,87.8333 158.5,87.5C 162.107,86.5108 165.774,86.1774 169.5,86.5 Z"/></g>
<g><path style="opacity:1" fill="#d8d8d8" d="M 218.5,87.5 C 226.138,93.4936 225.138,95.4936 215.5,93.5C 216.513,91.4734 217.513,89.4734 218.5,87.5 Z"/></g>
<g><path style="opacity:1" fill="#9b9b9b" d="M 170.5,94.5 C 154.5,95.1667 154.5,95.8333 170.5,96.5C 166.366,97.4849 162.032,97.8182 157.5,97.5C 157.5,96.1667 157.5,94.8333 157.5,93.5C 162.032,93.1818 166.366,93.5151 170.5,94.5 Z"/></g>
<g><path style="opacity:1" fill="#d7d7d7" d="M 77.5,93.5 C 81.8333,93.5 86.1667,93.5 90.5,93.5C 90.5,94.8333 90.5,96.1667 90.5,97.5C 86.1667,97.5 81.8333,97.5 77.5,97.5C 77.5,96.1667 77.5,94.8333 77.5,93.5 Z"/></g>
<g><path style="opacity:1" fill="#fafafa" d="M 170.5,94.5 C 171.833,95.1667 171.833,95.8333 170.5,96.5C 154.5,95.8333 154.5,95.1667 170.5,94.5 Z"/></g>
<g><path style="opacity:1" fill="#9e9e9e" d="M 242.5,96.5 C 247.5,96.5 252.5,96.5 257.5,96.5C 257.5,98.5 257.5,100.5 257.5,102.5C 251.31,102.823 245.31,102.49 239.5,101.5C 245.167,101.5 250.833,101.5 256.5,101.5C 256.5,100.167 256.5,98.8333 256.5,97.5C 251.637,97.8195 246.97,97.4861 242.5,96.5 Z"/></g>
</svg>
