<?xml version="1.0" encoding="UTF-8"?>
<!DOCTYPE svg PUBLIC "-//W3C//DTD SVG 1.1//EN" "http://www.w3.org/Graphics/SVG/1.1/DTD/svg11.dtd">
<svg xmlns="http://www.w3.org/2000/svg" version="1.1" width="225px" height="225px" style="shape-rendering:geometricPrecision; text-rendering:geometricPrecision; image-rendering:optimizeQuality; fill-rule:evenodd; clip-rule:evenodd" xmlns:xlink="http://www.w3.org/1999/xlink">
<g><path style="opacity:1" fill="#fefefe" d="M -0.5,-0.5 C 74.5,-0.5 149.5,-0.5 224.5,-0.5C 224.5,74.5 224.5,149.5 224.5,224.5C 149.5,224.5 74.5,224.5 -0.5,224.5C -0.5,149.5 -0.5,74.5 -0.5,-0.5 Z"/></g>
<g><path style="opacity:1" fill="#c9e9ed" d="M 210.5,92.5 C 210.337,94.8568 210.503,97.1902 211,99.5C 212.249,97.0085 213.416,97.1751 214.5,100C 213.207,100.49 211.873,100.657 210.5,100.5C 206.629,98.0189 206.629,95.3522 210.5,92.5 Z"/></g>
<g><path style="opacity:1" fill="#22b0bc" d="M 35.5,98.5 C 37.371,98.8588 38.871,99.8588 40,101.5C 41.1588,106.275 40.3255,110.608 37.5,114.5C 41.8183,120.425 41.485,125.925 36.5,131C 27.1667,131.667 17.8333,131.667 8.5,131C 7.94404,130.617 7.61071,130.117 7.5,129.5C 7.5,119.167 7.5,108.833 7.5,98.5C 16.8333,98.5 26.1667,98.5 35.5,98.5 Z"/></g>
<g><path style="opacity:1" fill="#25b0bc" d="M 73.5,101.5 C 65.1667,102.167 56.8333,102.833 48.5,103.5C 47.5206,106.625 47.1872,109.958 47.5,113.5C 55.1667,113.5 62.8333,113.5 70.5,113.5C 70.7709,115.38 70.1042,116.713 68.5,117.5C 61.5,117.5 54.5,117.5 47.5,117.5C 47.1984,120.059 47.5318,122.393 48.5,124.5C 48.4142,125.496 48.7476,126.329 49.5,127C 57.4931,127.5 65.4931,127.666 73.5,127.5C 73.67,128.822 73.3366,129.989 72.5,131C 64.0629,131.937 55.7296,131.604 47.5,130C 45.3834,128.269 43.8834,126.102 43,123.5C 42.5002,114.84 42.3336,106.173 42.5,97.5C 51.8393,97.3335 61.1726,97.5002 70.5,98C 72.4257,98.4224 73.4257,99.5891 73.5,101.5 Z"/></g>
<g><path style="opacity:1" fill="#30b2be" d="M 76.5,97.5 C 80.0071,96.9935 83.1737,97.6602 86,99.5C 91.2479,108.998 96.7479,118.331 102.5,127.5C 103.499,117.522 103.832,107.522 103.5,97.5C 105.144,97.2865 106.644,97.6198 108,98.5C 108.667,107.5 108.667,116.5 108,125.5C 106.857,130.988 103.691,132.655 98.5,130.5C 93.1984,121.368 87.6984,112.368 82,103.5C 81.5002,112.827 81.3335,122.161 81.5,131.5C 79.8561,131.714 78.3561,131.38 77,130.5C 76.5002,119.505 76.3335,108.505 76.5,97.5 Z"/></g>
<g><path style="opacity:1" fill="#26b0bd" d="M 115.5,112.5 C 123.057,112.848 130.39,113.848 137.5,115.5C 130.576,117.463 123.243,118.13 115.5,117.5C 115.26,120.579 115.593,123.579 116.5,126.5C 124.807,127.498 133.14,127.831 141.5,127.5C 141.67,128.822 141.337,129.989 140.5,131C 131.73,131.94 123.064,131.607 114.5,130C 112.959,128.421 111.792,126.587 111,124.5C 110.5,115.506 110.334,106.506 110.5,97.5C 119.839,97.3335 129.173,97.5002 138.5,98C 140.607,99.2635 141.607,101.097 141.5,103.5C 132.833,103.5 124.167,103.5 115.5,103.5C 115.5,106.5 115.5,109.5 115.5,112.5 Z"/></g>
<g><path style="opacity:1" fill="#21b0bc" d="M 145.5,97.5 C 146.5,97.5 147.5,97.5 148.5,97.5C 148.168,107.19 148.502,116.856 149.5,126.5C 155.256,124.536 160.09,121.203 164,116.5C 166.871,110.439 169.371,104.272 171.5,98C 174.294,112.393 168.627,123.06 154.5,130C 150.914,131.108 147.247,131.608 143.5,131.5C 143.334,121.161 143.5,110.828 144,100.5C 144.513,99.4734 145.013,98.4734 145.5,97.5 Z"/></g>
<g><path style="opacity:1" fill="#15adba" d="M 206.5,100.5 C 198.383,102.155 190.05,103.155 181.5,103.5C 180.521,106.625 180.187,109.958 180.5,113.5C 188.167,113.5 195.833,113.5 203.5,113.5C 203.771,115.38 203.104,116.713 201.5,117.5C 194.5,117.5 187.5,117.5 180.5,117.5C 180.198,120.059 180.532,122.393 181.5,124.5C 181.414,125.496 181.748,126.329 182.5,127C 190.853,127.168 199.187,127.668 207.5,128.5C 207.167,129.167 206.833,129.833 206.5,130.5C 202.5,130.833 198.5,131.167 194.5,131.5C 189.722,131.609 185.056,131.109 180.5,130C 178.513,128.681 177.346,126.848 177,124.5C 176.5,115.506 176.334,106.506 176.5,97.5C 185.506,97.3336 194.506,97.5002 203.5,98C 204.942,98.3768 205.942,99.2101 206.5,100.5 Z"/></g>
<g><path style="opacity:1" fill="#87d0d7" d="M 210.5,92.5 C 212.274,93.0169 213.941,93.3502 215.5,93.5C 217.441,95.0106 217.941,97.0106 217,99.5C 214.984,101.608 212.817,101.942 210.5,100.5C 211.873,100.657 213.207,100.49 214.5,100C 213.416,97.1751 212.249,97.0085 211,99.5C 210.503,97.1902 210.337,94.8568 210.5,92.5 Z"/></g>
<g><path style="opacity:1" fill="#f3fafb" d="M 215.5,93.5 C 216.434,95.2385 216.434,96.9052 215.5,98.5C 214.212,96.7015 214.212,95.0348 215.5,93.5 Z"/></g>
<g><path style="opacity:1" fill="#f9fdfd" d="M 211.5,94.5 C 213.337,94.6395 213.67,95.3061 212.5,96.5C 211.702,96.0431 211.369,95.3764 211.5,94.5 Z"/></g>
<g><path style="opacity:1" fill="#79ccd4" d="M 73.5,101.5 C 74.0431,101.56 74.3764,101.893 74.5,102.5C 65.8589,103.498 57.1922,103.831 48.5,103.5C 56.8333,102.833 65.1667,102.167 73.5,101.5 Z"/></g>
<g><path style="opacity:1" fill="#75cbd3" d="M 206.5,100.5 C 207.404,101.209 207.737,102.209 207.5,103.5C 198.833,103.5 190.167,103.5 181.5,103.5C 190.05,103.155 198.383,102.155 206.5,100.5 Z"/></g>
<g><path style="opacity:1" fill="#fafdfd" d="M 11.5,103.5 C 19.4197,103.185 27.253,103.518 35,104.5C 35.9782,107.669 35.4782,110.503 33.5,113C 27.5092,113.499 21.5092,113.666 15.5,113.5C 15.5,114.833 15.5,116.167 15.5,117.5C 21.5092,117.334 27.5092,117.501 33.5,118C 36.1667,121 36.1667,124 33.5,127C 26.1742,127.5 18.8409,127.666 11.5,127.5C 11.5,119.5 11.5,111.5 11.5,103.5 Z"/></g>
<g><path style="opacity:1" fill="#c7e7ea" d="M 48.5,103.5 C 48.5,106.5 48.5,109.5 48.5,112.5C 56.0191,112.175 63.3524,112.508 70.5,113.5C 62.8333,113.5 55.1667,113.5 47.5,113.5C 47.1872,109.958 47.5206,106.625 48.5,103.5 Z"/></g>
<g><path style="opacity:1" fill="#bee3e8" d="M 115.5,112.5 C 123.167,112.5 130.833,112.5 138.5,112.5C 138.737,113.791 138.404,114.791 137.5,115.5C 130.39,113.848 123.057,112.848 115.5,112.5 Z"/></g>
<g><path style="opacity:1" fill="#bbe2e6" d="M 181.5,103.5 C 181.5,106.5 181.5,109.5 181.5,112.5C 189.019,112.175 196.352,112.508 203.5,113.5C 195.833,113.5 188.167,113.5 180.5,113.5C 180.187,109.958 180.521,106.625 181.5,103.5 Z"/></g>
<g><path style="opacity:1" fill="#52bfc9" d="M 35.5,98.5 C 26.1667,98.5 16.8333,98.5 7.5,98.5C 7.5,108.833 7.5,119.167 7.5,129.5C 6.50558,119.013 6.17225,108.346 6.5,97.5C 16.3478,97.1729 26.0144,97.5062 35.5,98.5 Z"/></g>
<g><path style="opacity:1" fill="#c1e7ea" d="M 68.5,117.5 C 62.021,118.491 55.3543,118.824 48.5,118.5C 48.5,120.5 48.5,122.5 48.5,124.5C 47.5318,122.393 47.1984,120.059 47.5,117.5C 54.5,117.5 61.5,117.5 68.5,117.5 Z"/></g>
<g><path style="opacity:1" fill="#b8e3e7" d="M 201.5,117.5 C 195.021,118.491 188.354,118.824 181.5,118.5C 181.5,120.5 181.5,122.5 181.5,124.5C 180.532,122.393 180.198,120.059 180.5,117.5C 187.5,117.5 194.5,117.5 201.5,117.5 Z"/></g>
</svg>
