<?xml version="1.0" encoding="UTF-8"?>
<!DOCTYPE svg PUBLIC "-//W3C//DTD SVG 1.1//EN" "http://www.w3.org/Graphics/SVG/1.1/DTD/svg11.dtd">
<svg xmlns="http://www.w3.org/2000/svg" version="1.1" width="346px" height="145px" style="shape-rendering:geometricPrecision; text-rendering:geometricPrecision; image-rendering:optimizeQuality; fill-rule:evenodd; clip-rule:evenodd" xmlns:xlink="http://www.w3.org/1999/xlink">
<g><path style="opacity:1" fill="#fefefe" d="M -0.5,-0.5 C 114.833,-0.5 230.167,-0.5 345.5,-0.5C 345.5,47.8333 345.5,96.1667 345.5,144.5C 230.167,144.5 114.833,144.5 -0.5,144.5C -0.5,96.1667 -0.5,47.8333 -0.5,-0.5 Z"/></g>
<g><path style="opacity:1" fill="#1e1e1e" d="M 14.5,50.5 C 115.833,50.5 217.167,50.5 318.5,50.5C 318.5,51.8333 318.5,53.1667 318.5,54.5C 217.167,54.5 115.833,54.5 14.5,54.5C 14.5,53.1667 14.5,51.8333 14.5,50.5 Z"/></g>
<g><path style="opacity:1" fill="#a5a4a5" d="M 55.5,62.5 C 54.1667,62.5 52.8333,62.5 51.5,62.5C 51.5,69.8333 51.5,77.1667 51.5,84.5C 50.508,77.0182 50.1746,69.3516 50.5,61.5C 52.4147,61.2155 54.0813,61.5489 55.5,62.5 Z"/></g>
<g><path style="opacity:1" fill="#151515" d="M 55.5,62.5 C 55.5,68.5 55.5,74.5 55.5,80.5C 58.9619,81.4816 62.6286,81.815 66.5,81.5C 66.5,82.5 66.5,83.5 66.5,84.5C 61.5,84.5 56.5,84.5 51.5,84.5C 51.5,77.1667 51.5,69.8333 51.5,62.5C 52.8333,62.5 54.1667,62.5 55.5,62.5 Z"/></g>
<g><path style="opacity:1" fill="#161515" d="M 14.5,62.5 C 19.1785,62.3342 23.8452,62.5008 28.5,63C 31.1667,66.3333 31.1667,69.6667 28.5,73C 31.2868,75.1672 32.1201,78.0006 31,81.5C 30.0975,82.7014 28.9308,83.5348 27.5,84C 23.1794,84.499 18.8461,84.6657 14.5,84.5C 14.5,77.1667 14.5,69.8333 14.5,62.5 Z"/></g>
<g><path style="opacity:1" fill="#161515" d="M 129.5,61.5 C 134.939,60.7834 139.272,62.6167 142.5,67C 141.892,67.8699 141.059,68.3699 140,68.5C 134.501,64.003 129.834,64.6696 126,70.5C 125.013,76.1955 127.346,79.8622 133,81.5C 135.553,80.7771 137.72,79.4438 139.5,77.5C 140.672,77.9186 141.672,78.5853 142.5,79.5C 138.978,84.1879 134.311,85.6879 128.5,84C 122.673,80.8672 120.507,76.0339 122,69.5C 124.028,66.3078 126.528,63.6411 129.5,61.5 Z"/></g>
<g><path style="opacity:1" fill="#100f0f" d="M 161.5,62.5 C 162.833,62.5 164.167,62.5 165.5,62.5C 165.5,69.8333 165.5,77.1667 165.5,84.5C 164.167,84.5 162.833,84.5 161.5,84.5C 161.5,77.1667 161.5,69.8333 161.5,62.5 Z"/></g>
<g><path style="opacity:1" fill="#161515" d="M 178.5,62.5 C 180.199,62.3398 181.866,62.5065 183.5,63C 180.5,66.6667 177.5,70.3333 174.5,74C 177.833,77.3333 181.167,80.6667 184.5,84C 182.5,84.6667 180.5,84.6667 178.5,84C 175.87,80.3683 172.87,77.035 169.5,74C 172.715,70.2912 175.715,66.4579 178.5,62.5 Z"/></g>
<g><path style="opacity:1" fill="#171516" d="M 203.5,62.5 C 204.833,62.5 206.167,62.5 207.5,62.5C 207.5,68.5 207.5,74.5 207.5,80.5C 211.5,80.5 215.5,80.5 219.5,80.5C 219.5,81.8333 219.5,83.1667 219.5,84.5C 214.167,84.5 208.833,84.5 203.5,84.5C 203.5,77.1667 203.5,69.8333 203.5,62.5 Z"/></g>
<g><path style="opacity:1" fill="#9c9b9b" d="M 242.5,62.5 C 241.167,62.5 239.833,62.5 238.5,62.5C 238.5,69.8333 238.5,77.1667 238.5,84.5C 237.508,77.0182 237.175,69.3516 237.5,61.5C 239.415,61.2155 241.081,61.5489 242.5,62.5 Z"/></g>
<g><path style="opacity:1" fill="#1a1919" d="M 242.5,62.5 C 242.5,69.8333 242.5,77.1667 242.5,84.5C 241.167,84.5 239.833,84.5 238.5,84.5C 238.5,77.1667 238.5,69.8333 238.5,62.5C 239.833,62.5 241.167,62.5 242.5,62.5 Z"/></g>
<g><path style="opacity:1" fill="#696868" d="M 264.5,63.5 C 263.509,70.3134 263.175,77.3134 263.5,84.5C 262.181,77.3231 262.181,69.9898 263.5,62.5C 264.107,62.6236 264.44,62.9569 264.5,63.5 Z"/></g>
<g><path style="opacity:1" fill="#161415" d="M 268.5,72.5 C 268.44,71.9569 268.107,71.6236 267.5,71.5C 266.508,75.7828 266.174,80.1161 266.5,84.5C 265.5,84.5 264.5,84.5 263.5,84.5C 263.175,77.3134 263.509,70.3134 264.5,63.5C 268.831,67.6633 273.331,71.6633 278,75.5C 278.499,71.1794 278.666,66.8461 278.5,62.5C 279.833,62.5 281.167,62.5 282.5,62.5C 282.666,69.8409 282.5,77.1742 282,84.5C 277.331,80.6633 272.831,76.6633 268.5,72.5 Z"/></g>
<g><path style="opacity:1" fill="#131213" d="M 302.5,62.5 C 307.833,62.5 313.167,62.5 318.5,62.5C 318.5,63.5 318.5,64.5 318.5,65.5C 314.5,65.5 310.5,65.5 306.5,65.5C 306.5,67.5 306.5,69.5 306.5,71.5C 310.167,71.5 313.833,71.5 317.5,71.5C 317.5,72.8333 317.5,74.1667 317.5,75.5C 313.833,75.5 310.167,75.5 306.5,75.5C 306.5,77.1667 306.5,78.8333 306.5,80.5C 310.5,80.5 314.5,80.5 318.5,80.5C 318.5,81.8333 318.5,83.1667 318.5,84.5C 313.167,84.5 307.833,84.5 302.5,84.5C 302.5,77.1667 302.5,69.8333 302.5,62.5 Z"/></g>
<g><path style="opacity:1" fill="#151414" d="M 93.5,62.5 C 98.2315,68.9486 102.231,75.9486 105.5,83.5C 103.994,84.7472 102.494,84.7472 101,83.5C 99.0875,79.3403 96.9209,75.3403 94.5,71.5C 91.677,75.1362 89.3437,79.1362 87.5,83.5C 86.1667,84.8333 84.8333,84.8333 83.5,83.5C 87.1176,76.5996 90.4509,69.5996 93.5,62.5 Z"/></g>
<g><path style="opacity:1" fill="#b4b3b4" d="M 25.5,66.5 C 23.5,66.5 21.5,66.5 19.5,66.5C 19.5,67.8333 19.5,69.1667 19.5,70.5C 21.5,70.5 23.5,70.5 25.5,70.5C 23.3926,71.4682 21.0593,71.8016 18.5,71.5C 18.5,69.5 18.5,67.5 18.5,65.5C 21.0593,65.1984 23.3926,65.5318 25.5,66.5 Z"/></g>
<g><path style="opacity:1" fill="#fdfdfd" d="M 25.5,66.5 C 26.8333,67.8333 26.8333,69.1667 25.5,70.5C 23.5,70.5 21.5,70.5 19.5,70.5C 19.5,69.1667 19.5,67.8333 19.5,66.5C 21.5,66.5 23.5,66.5 25.5,66.5 Z"/></g>
<g><path style="opacity:1" fill="#818181" d="M 268.5,72.5 C 267.833,76.5 267.167,80.5 266.5,84.5C 266.174,80.1161 266.508,75.7828 267.5,71.5C 268.107,71.6236 268.44,71.9569 268.5,72.5 Z"/></g>
<g><path style="opacity:1" fill="#969696" d="M 26.5,75.5 C 24.1667,75.5 21.8333,75.5 19.5,75.5C 19.5,77.1667 19.5,78.8333 19.5,80.5C 18.5386,78.7354 18.2053,76.7354 18.5,74.5C 21.3854,74.1936 24.0521,74.5269 26.5,75.5 Z"/></g>
<g><path style="opacity:1" fill="#fbfbfb" d="M 26.5,75.5 C 27.8009,76.8845 27.8009,78.3845 26.5,80C 24.1902,80.4966 21.8568,80.6633 19.5,80.5C 19.5,78.8333 19.5,77.1667 19.5,75.5C 21.8333,75.5 24.1667,75.5 26.5,75.5 Z"/></g>
<g><path style="opacity:1" fill="#525252" d="M 55.5,80.5 C 59.5,80.5 63.5,80.5 67.5,80.5C 67.7678,82.099 67.4345,83.4324 66.5,84.5C 66.5,83.5 66.5,82.5 66.5,81.5C 62.6286,81.815 58.9619,81.4816 55.5,80.5 Z"/></g>
</svg>
