<?xml version="1.0" encoding="UTF-8"?>
<!DOCTYPE svg PUBLIC "-//W3C//DTD SVG 1.1//EN" "http://www.w3.org/Graphics/SVG/1.1/DTD/svg11.dtd">
<svg xmlns="http://www.w3.org/2000/svg" version="1.1" width="355px" height="142px" style="shape-rendering:geometricPrecision; text-rendering:geometricPrecision; image-rendering:optimizeQuality; fill-rule:evenodd; clip-rule:evenodd" xmlns:xlink="http://www.w3.org/1999/xlink">
<g><path style="opacity:1" fill="#141a0b" d="M 252.5,1.5 C 246.996,2.36492 241.329,3.03159 235.5,3.5C 177.998,3.83235 120.664,3.49902 63.5,2.5C 126.331,1.50089 189.331,1.16756 252.5,1.5 Z"/></g>
<g><path style="opacity:1" fill="#14161d" d="M 63.5,2.5 C 120.664,3.49902 177.998,3.83235 235.5,3.5C 234.552,4.97789 233.219,5.97789 231.5,6.5C 175.5,6.5 119.5,6.5 63.5,6.5C 61.7354,5.53862 59.7354,5.20528 57.5,5.5C 57.5,4.5 57.5,3.5 57.5,2.5C 59.5,2.5 61.5,2.5 63.5,2.5 Z"/></g>
<g><path style="opacity:1" fill="#2d1310" d="M 63.5,6.5 C 119.5,6.5 175.5,6.5 231.5,6.5C 252.836,6.33337 274.169,6.50004 295.5,7C 298.226,7.18156 300.893,7.68156 303.5,8.5C 301.955,9.45189 300.288,9.78522 298.5,9.5C 297.391,8.71003 296.058,8.21003 294.5,8C 217.332,7.16775 140.332,7.33442 63.5,8.5C 54.1667,9.16667 54.1667,9.83333 63.5,10.5C 63.5,11.1667 63.5,11.8333 63.5,12.5C 63.5,12.8333 63.5,13.1667 63.5,13.5C 60.3926,13.6488 57.3926,13.1488 54.5,12C 53.8333,10.6667 53.1667,9.33333 52.5,8C 56.0601,6.76326 59.7267,6.26326 63.5,6.5 Z"/></g>
<g><path style="opacity:1" fill="#974026" d="M 298.5,9.5 C 298.167,9.5 297.833,9.5 297.5,9.5C 219.332,9.83261 141.332,9.49928 63.5,8.5C 140.332,7.33442 217.332,7.16775 294.5,8C 296.058,8.21003 297.391,8.71003 298.5,9.5 Z"/></g>
<g><path style="opacity:1" fill="#272727" d="M 17.5,-0.5 C 24.8333,-0.5 32.1667,-0.5 39.5,-0.5C 38.0484,0.301916 36.3817,0.801916 34.5,1C 38.737,2.6169 43.0703,3.95024 47.5,5C 41.9155,6.18557 36.2488,6.85224 30.5,7C 30.8333,7.33333 31.1667,7.66667 31.5,8C 29.8333,8.33333 28.1667,8.66667 26.5,9C 30.4825,11.4132 34.8158,12.7466 39.5,13C 37.038,14.2156 34.3713,14.8823 31.5,15C 32.1667,15.3333 32.8333,15.6667 33.5,16C 39.8333,16.3333 46.1667,16.6667 52.5,17C 48.1667,17.3333 43.8333,17.6667 39.5,18C 42.2263,18.1816 44.8929,18.6816 47.5,19.5C 43.9502,20.0157 40.6169,21.0157 37.5,22.5C 39.4233,23.3078 41.4233,23.8078 43.5,24C 37.3811,28.3426 30.7144,29.5093 23.5,27.5C 22.7703,25.955 21.437,25.1216 19.5,25C 20.938,24.7811 22.2713,24.2811 23.5,23.5C 18.4,21.3148 13.0666,20.1481 7.5,20C 27.3456,17.752 27.3456,16.0854 7.5,15C 9.44755,13.3818 12.1142,12.3818 15.5,12C 11.0974,11.936 6.7641,11.7693 2.5,11.5C 4.76618,10.6858 7.09951,10.1858 9.5,10C 8.02674,9.29044 7.36007,8.12377 7.5,6.5C 10.1873,6.66409 12.854,6.49742 15.5,6C 12.5,5.66667 9.5,5.33333 6.5,5C 17.4282,3.56955 17.7615,2.23622 7.5,1C 11.0252,0.821287 14.3586,0.321287 17.5,-0.5 Z"/></g>
<g><path style="opacity:1" fill="#b98d65" d="M 63.5,8.5 C 141.332,9.49928 219.332,9.83261 297.5,9.5C 297.5,9.83333 297.5,10.1667 297.5,10.5C 278.167,10.5 258.833,10.5 239.5,10.5C 180.833,10.5 122.167,10.5 63.5,10.5C 54.1667,9.83333 54.1667,9.16667 63.5,8.5 Z"/></g>
<g><path style="opacity:1" fill="#4d4d4d" d="M 354.5,1.5 C 354.5,5.5 354.5,9.5 354.5,13.5C 349.156,13.666 343.823,13.4994 338.5,13C 337.376,12.7508 336.376,12.2508 335.5,11.5C 338.938,11.6246 342.271,11.1246 345.5,10C 342.167,9.66667 338.833,9.33333 335.5,9C 339.5,8.66667 343.5,8.33333 347.5,8C 346.975,7.30762 346.308,6.80762 345.5,6.5C 343.167,7.83333 340.833,7.83333 338.5,6.5C 341.298,5.0311 344.298,4.19776 347.5,4C 346.167,3.66667 344.833,3.33333 343.5,3C 347.17,2.45178 350.837,1.95178 354.5,1.5 Z"/></g>
<g><path style="opacity:1" fill="#282e0a" d="M 239.5,11.5 C 239.5,11.1667 239.5,10.8333 239.5,10.5C 258.833,10.5 278.167,10.5 297.5,10.5C 298.239,10.369 298.906,10.5357 299.5,11C 297.091,11.9347 294.591,12.4347 292,12.5C 274.516,11.5629 257.016,11.2295 239.5,11.5 Z"/></g>
<g><path style="opacity:1" fill="#09150b" d="M 63.5,10.5 C 122.167,10.5 180.833,10.5 239.5,10.5C 239.5,10.8333 239.5,11.1667 239.5,11.5C 233.974,11.1786 228.64,11.5119 223.5,12.5C 170.167,12.5 116.833,12.5 63.5,12.5C 63.5,11.8333 63.5,11.1667 63.5,10.5 Z"/></g>
<g><path style="opacity:1" fill="#161616" d="M 63.5,12.5 C 116.833,12.5 170.167,12.5 223.5,12.5C 231.507,12.3336 239.507,12.5003 247.5,13C 241.535,13.9632 235.535,14.4632 229.5,14.5C 219.494,14.3335 209.494,14.5002 199.5,15C 207.834,15.5205 208.167,16.1872 200.5,17C 202.833,17.3333 205.167,17.6667 207.5,18C 205.913,18.8624 204.246,19.5291 202.5,20C 204.167,20.3333 205.833,20.6667 207.5,21C 207.167,21.3333 206.833,21.6667 206.5,22C 209.5,22.3333 212.5,22.6667 215.5,23C 206.657,23.1704 197.99,23.6704 189.5,24.5C 189.5,35.1667 189.5,45.8333 189.5,56.5C 191.167,56.5 192.833,56.5 194.5,56.5C 194.5,52.5 194.5,48.5 194.5,44.5C 197.518,44.3354 200.518,44.502 203.5,45C 207.459,48.6573 211.459,52.324 215.5,56C 218.227,56.8184 220.894,56.6517 223.5,55.5C 222.757,54.8182 222.091,54.1515 221.5,53.5C 221.343,52.1266 221.51,50.7932 222,49.5C 224.431,52.4088 227.597,53.7422 231.5,53.5C 231.66,55.1992 231.494,56.8659 231,58.5C 230.667,58.1667 230.333,57.8333 230,57.5C 229.097,58.7014 227.931,59.5348 226.5,60C 228.313,59.9536 229.979,60.1203 231.5,60.5C 230.619,61.9705 229.286,62.8038 227.5,63C 230.544,63.3589 230.878,64.0255 228.5,65C 228.833,65.3333 229.167,65.6667 229.5,66C 227.5,66.3333 225.5,66.6667 223.5,67C 229.025,67.5196 234.358,68.3529 239.5,69.5C 178.331,69.1676 117.331,69.5009 56.5,70.5C 56.5,71.1667 56.5,71.8333 56.5,72.5C 58.6074,73.4682 60.9407,73.8016 63.5,73.5C 79.3384,74.1667 95.3384,74.8333 111.5,75.5C 106.254,76.8225 100.92,77.4891 95.5,77.5C 87.5,76.1667 79.5,76.1667 71.5,77.5C 68.3872,77.4377 65.5539,76.7711 63,75.5C 62.6258,76.4162 62.1258,77.2496 61.5,78C 67.4908,78.4995 73.4908,78.6662 79.5,78.5C 79.5,81.5 79.5,84.5 79.5,87.5C 76.8333,87.5 74.1667,87.5 71.5,87.5C 71.5,84.8333 71.5,82.1667 71.5,79.5C 68.8333,79.5 66.1667,79.5 63.5,79.5C 63.5,84.8333 63.5,90.1667 63.5,95.5C 54.9532,95.9017 46.4532,95.9017 38,95.5C 36.1739,96.0104 36.0072,96.8438 37.5,98C 40.8333,98.3333 44.1667,98.6667 47.5,99C 36.8333,100 36.8333,101 47.5,102C 44.8333,102.333 42.1667,102.667 39.5,103C 40.3081,103.308 40.9747,103.808 41.5,104.5C 38.437,106.025 35.7703,108.025 33.5,110.5C 36.9528,111.479 37.2862,112.979 34.5,115C 27.9406,116.255 21.274,116.922 14.5,117C 20.1667,117.333 25.8333,117.667 31.5,118C 27.1667,118.333 22.8333,118.667 18.5,119C 25.378,120.883 32.378,121.716 39.5,121.5C 39.5,122.833 39.5,124.167 39.5,125.5C 33.4547,125.428 27.4547,125.928 21.5,127C 22.7932,127.49 24.1266,127.657 25.5,127.5C 25.5,130.167 25.5,132.833 25.5,135.5C 18.0528,135.071 10.7194,135.571 3.5,137C 12.8025,136.794 22.1358,137.294 31.5,138.5C 20.8674,140.431 10.2008,140.764 -0.5,139.5C -0.5,124.833 -0.5,110.167 -0.5,95.5C 8.16667,95.5 16.8333,95.5 25.5,95.5C 28.8984,95.8204 32.2317,95.487 35.5,94.5C 32.6709,91.8414 29.6709,89.3414 26.5,87C 29.578,87.0655 32.578,86.8988 35.5,86.5C 38.0355,84.6003 39.7022,82.1003 40.5,79C 36.9695,76.4044 33.3029,74.0711 29.5,72C 31.8333,71.6667 34.1667,71.3333 36.5,71C 33.8333,70.6667 31.1667,70.3333 28.5,70C 32.1667,69.6667 35.8333,69.3333 39.5,69C 34.1667,68.6667 28.8333,68.3333 23.5,68C 38.1667,67.3333 38.1667,66.6667 23.5,66C 31.5,65.6667 39.5,65.3333 47.5,65C 42.1327,64.5966 36.7993,63.93 31.5,63C 35.5239,62.5027 39.5239,62.6693 43.5,63.5C 43.5,60.8333 43.5,58.1667 43.5,55.5C 44.9778,55.762 46.3112,55.4287 47.5,54.5C 38.2967,52.2874 38.2967,50.6207 47.5,49.5C 47.5,48.5 47.5,47.5 47.5,46.5C 36.9455,45.3898 36.9455,44.3898 47.5,43.5C 47.5,42.5 47.5,41.5 47.5,40.5C 41.7924,40.5076 41.4591,40.0076 46.5,39C 47.3366,37.9887 47.67,36.8221 47.5,35.5C 53.8399,35.151 60.1732,34.651 66.5,34C 67.4558,30.6064 67.7892,27.1064 67.5,23.5C 60.8574,22.8347 54.1908,22.3347 47.5,22C 52.4535,21.0046 57.4535,20.3379 62.5,20C 60.5,19.6667 58.5,19.3333 56.5,19C 59.5716,18.5441 62.5716,18.5441 65.5,19C 66.8132,16.6742 68.8132,15.3408 71.5,15C 68.6353,14.8171 65.9686,14.3171 63.5,13.5C 63.5,13.1667 63.5,12.8333 63.5,12.5 Z"/></g>
<g><path style="opacity:1" fill="#383838" d="M -0.5,-0.5 C 5.5,-0.5 11.5,-0.5 17.5,-0.5C 14.3586,0.321287 11.0252,0.821287 7.5,1C 17.7615,2.23622 17.4282,3.56955 6.5,5C 9.5,5.33333 12.5,5.66667 15.5,6C 12.854,6.49742 10.1873,6.66409 7.5,6.5C 7.36007,8.12377 8.02674,9.29044 9.5,10C 7.09951,10.1858 4.76618,10.6858 2.5,11.5C 6.7641,11.7693 11.0974,11.936 15.5,12C 12.1142,12.3818 9.44755,13.3818 7.5,15C 27.3456,16.0854 27.3456,17.752 7.5,20C 13.0666,20.1481 18.4,21.3148 23.5,23.5C 22.2713,24.2811 20.938,24.7811 19.5,25C 21.437,25.1216 22.7703,25.955 23.5,27.5C 12.9124,28.6431 12.9124,29.4764 23.5,30C 19.551,30.8068 19.551,31.3068 23.5,31.5C 23.5,32.5 23.5,33.5 23.5,34.5C 12.8539,34.6707 12.8539,35.1707 23.5,36C 21.8333,36.3333 20.1667,36.6667 18.5,37C 18.9574,37.414 19.2907,37.914 19.5,38.5C 18.3112,39.4287 16.9778,39.762 15.5,39.5C 15.5,41.1667 15.5,42.8333 15.5,44.5C 12.8127,44.3359 10.146,44.5026 7.5,45C 12.8076,45.8303 18.1409,46.3303 23.5,46.5C 18.3491,47.3267 13.0158,47.8267 7.5,48C 4.73345,49.1606 2.06678,50.3272 -0.5,51.5C -0.5,34.1667 -0.5,16.8333 -0.5,-0.5 Z"/></g>
<g><path style="opacity:1" fill="#1d1c1d" d="M 39.5,-0.5 C 122.167,-0.5 204.833,-0.5 287.5,-0.5C 275.975,0.228305 264.309,0.894972 252.5,1.5C 189.331,1.16756 126.331,1.50089 63.5,2.5C 61.5,2.5 59.5,2.5 57.5,2.5C 57.5,3.5 57.5,4.5 57.5,5.5C 59.7354,5.20528 61.7354,5.53862 63.5,6.5C 59.7267,6.26326 56.0601,6.76326 52.5,8C 53.1667,9.33333 53.8333,10.6667 54.5,12C 57.3926,13.1488 60.3926,13.6488 63.5,13.5C 65.9686,14.3171 68.6353,14.8171 71.5,15C 68.8132,15.3408 66.8132,16.6742 65.5,19C 62.5716,18.5441 59.5716,18.5441 56.5,19C 58.5,19.3333 60.5,19.6667 62.5,20C 57.4535,20.3379 52.4535,21.0046 47.5,22C 54.1908,22.3347 60.8574,22.8347 67.5,23.5C 67.7892,27.1064 67.4558,30.6064 66.5,34C 60.1732,34.651 53.8399,35.151 47.5,35.5C 47.67,36.8221 47.3366,37.9887 46.5,39C 41.4591,40.0076 41.7924,40.5076 47.5,40.5C 47.5,41.5 47.5,42.5 47.5,43.5C 36.9455,44.3898 36.9455,45.3898 47.5,46.5C 47.5,47.5 47.5,48.5 47.5,49.5C 38.2967,50.6207 38.2967,52.2874 47.5,54.5C 46.3112,55.4287 44.9778,55.762 43.5,55.5C 43.5,58.1667 43.5,60.8333 43.5,63.5C 39.5239,62.6693 35.5239,62.5027 31.5,63C 36.7993,63.93 42.1327,64.5966 47.5,65C 39.5,65.3333 31.5,65.6667 23.5,66C 38.1667,66.6667 38.1667,67.3333 23.5,68C 28.8333,68.3333 34.1667,68.6667 39.5,69C 35.8333,69.3333 32.1667,69.6667 28.5,70C 31.1667,70.3333 33.8333,70.6667 36.5,71C 34.1667,71.3333 31.8333,71.6667 29.5,72C 33.3029,74.0711 36.9695,76.4044 40.5,79C 39.7022,82.1003 38.0355,84.6003 35.5,86.5C 32.578,86.8988 29.578,87.0655 26.5,87C 29.6709,89.3414 32.6709,91.8414 35.5,94.5C 32.2317,95.487 28.8984,95.8204 25.5,95.5C 22.1041,91.8016 17.7708,89.6349 12.5,89C 13.448,88.5172 14.448,88.3505 15.5,88.5C 15.5,87.5 15.5,86.5 15.5,85.5C 18.8499,85.665 22.1832,85.4983 25.5,85C 21.7523,83.2202 17.919,83.0535 14,84.5C 8.47591,82.6123 8.97591,81.1123 15.5,80C -0.460224,78.5133 -0.460224,77.3467 15.5,76.5C 15.5,75.5 15.5,74.5 15.5,73.5C 10.1667,72.1667 4.83333,72.1667 -0.5,73.5C -0.5,72.1667 -0.5,70.8333 -0.5,69.5C 4.8746,69.8282 10.2079,69.4948 15.5,68.5C 17.5852,67.4586 19.2519,65.9586 20.5,64C 19.5,63.6667 18.5,63.3333 17.5,63C 19.3921,62.0266 21.3921,61.3599 23.5,61C 20.8333,60.3333 18.1667,59.6667 15.5,59C 20.8673,58.5966 26.2007,57.93 31.5,57C 28.8333,56.6667 26.1667,56.3333 23.5,56C 25.2556,55.7978 26.9223,55.2978 28.5,54.5C 27.4229,52.2706 26.7563,49.9372 26.5,47.5C 28.1992,47.6602 29.8659,47.4935 31.5,47C 28.854,46.5026 26.1873,46.3359 23.5,46.5C 18.1409,46.3303 12.8076,45.8303 7.5,45C 10.146,44.5026 12.8127,44.3359 15.5,44.5C 15.5,42.8333 15.5,41.1667 15.5,39.5C 16.9778,39.762 18.3112,39.4287 19.5,38.5C 19.2907,37.914 18.9574,37.414 18.5,37C 20.1667,36.6667 21.8333,36.3333 23.5,36C 12.8539,35.1707 12.8539,34.6707 23.5,34.5C 23.5,33.5 23.5,32.5 23.5,31.5C 19.551,31.3068 19.551,30.8068 23.5,30C 12.9124,29.4764 12.9124,28.6431 23.5,27.5C 30.7144,29.5093 37.3811,28.3426 43.5,24C 41.4233,23.8078 39.4233,23.3078 37.5,22.5C 40.6169,21.0157 43.9502,20.0157 47.5,19.5C 44.8929,18.6816 42.2263,18.1816 39.5,18C 43.8333,17.6667 48.1667,17.3333 52.5,17C 46.1667,16.6667 39.8333,16.3333 33.5,16C 32.8333,15.6667 32.1667,15.3333 31.5,15C 34.3713,14.8823 37.038,14.2156 39.5,13C 34.8158,12.7466 30.4825,11.4132 26.5,9C 28.1667,8.66667 29.8333,8.33333 31.5,8C 31.1667,7.66667 30.8333,7.33333 30.5,7C 36.2488,6.85224 41.9155,6.18557 47.5,5C 43.0703,3.95024 38.737,2.6169 34.5,1C 36.3817,0.801916 38.0484,0.301916 39.5,-0.5 Z"/></g>
<g><path style="opacity:1" fill="#232323" d="M 229.5,14.5 C 231.292,15.3091 233.292,15.8091 235.5,16C 234.167,16.3333 232.833,16.6667 231.5,17C 233.833,17.3333 236.167,17.6667 238.5,18C 236.744,18.2022 235.078,18.7022 233.5,19.5C 243.445,21.1598 253.445,22.3265 263.5,23C 257.652,23.1728 251.985,23.6728 246.5,24.5C 246.5,35.1667 246.5,45.8333 246.5,56.5C 252.167,56.5 257.833,56.5 263.5,56.5C 258.051,58.0472 252.384,58.5472 246.5,58C 244.792,56.9377 244.126,55.771 244.5,54.5C 243.246,56.2592 243.579,57.7592 245.5,59C 249.529,59.3028 253.529,59.8028 257.5,60.5C 258.91,60.8678 259.91,61.7011 260.5,63C 257.434,62.4128 254.268,61.9128 251,61.5C 247.729,63.044 243.562,63.8774 238.5,64C 246.67,65.303 255.003,65.9697 263.5,66C 252.833,67 252.833,68 263.5,69C 255.507,69.4997 247.507,69.6664 239.5,69.5C 234.358,68.3529 229.025,67.5196 223.5,67C 225.5,66.6667 227.5,66.3333 229.5,66C 229.167,65.6667 228.833,65.3333 228.5,65C 230.878,64.0255 230.544,63.3589 227.5,63C 229.286,62.8038 230.619,61.9705 231.5,60.5C 229.979,60.1203 228.313,59.9536 226.5,60C 227.931,59.5348 229.097,58.7014 230,57.5C 230.333,57.8333 230.667,58.1667 231,58.5C 231.494,56.8659 231.66,55.1992 231.5,53.5C 227.597,53.7422 224.431,52.4088 222,49.5C 221.51,50.7932 221.343,52.1266 221.5,53.5C 217.709,50.8819 214.043,48.0486 210.5,45C 212.833,44.6667 215.167,44.3333 217.5,44C 219.333,43.5 220.5,42.3333 221,40.5C 221.667,36.5 221.667,32.5 221,28.5C 220.535,27.0692 219.701,25.9025 218.5,25C 208.839,24.5002 199.172,24.3335 189.5,24.5C 197.99,23.6704 206.657,23.1704 215.5,23C 212.5,22.6667 209.5,22.3333 206.5,22C 206.833,21.6667 207.167,21.3333 207.5,21C 205.833,20.6667 204.167,20.3333 202.5,20C 204.246,19.5291 205.913,18.8624 207.5,18C 205.167,17.6667 202.833,17.3333 200.5,17C 208.167,16.1872 207.834,15.5205 199.5,15C 209.494,14.5002 219.494,14.3335 229.5,14.5 Z"/></g>
<g><path style="opacity:1" fill="#f3f3f3" d="M 77.5,24.5 C 87.5056,24.3335 97.5056,24.5002 107.5,25C 109.045,26.8219 109.712,28.9886 109.5,31.5C 109.919,34.7474 108.919,37.414 106.5,39.5C 107.242,40.2868 108.075,40.9535 109,41.5C 109.667,45.5 109.667,49.5 109,53.5C 108.5,54 108,54.5 107.5,55C 97.5657,56.3952 87.5657,56.8952 77.5,56.5C 77.5,45.8333 77.5,35.1667 77.5,24.5 Z"/></g>
<g><path style="opacity:1" fill="#eaeaea" d="M 134.5,24.5 C 144.19,24.1682 153.856,24.5016 163.5,25.5C 163.808,26.3081 164.308,26.9747 165,27.5C 165.667,35.8333 165.667,44.1667 165,52.5C 164.626,53.4162 164.126,54.2496 163.5,55C 154.576,56.58 145.576,56.9133 136.5,56C 135.584,55.6258 134.75,55.1258 134,54.5C 132.891,49.9445 132.391,45.2778 132.5,40.5C 132.28,34.9936 132.947,29.6602 134.5,24.5 Z"/></g>
<g><path style="opacity:1" fill="#f1f1f1" d="M 189.5,24.5 C 199.172,24.3335 208.839,24.5002 218.5,25C 219.701,25.9025 220.535,27.0692 221,28.5C 221.667,32.5 221.667,36.5 221,40.5C 220.5,42.3333 219.333,43.5 217.5,44C 215.167,44.3333 212.833,44.6667 210.5,45C 214.043,48.0486 217.709,50.8819 221.5,53.5C 222.091,54.1515 222.757,54.8182 223.5,55.5C 220.894,56.6517 218.227,56.8184 215.5,56C 211.459,52.324 207.459,48.6573 203.5,45C 200.518,44.502 197.518,44.3354 194.5,44.5C 194.5,48.5 194.5,52.5 194.5,56.5C 192.833,56.5 191.167,56.5 189.5,56.5C 189.5,45.8333 189.5,35.1667 189.5,24.5 Z"/></g>
<g><path style="opacity:1" fill="#f1f1f1" d="M 246.5,24.5 C 254.174,24.3336 261.841,24.5003 269.5,25C 275.571,27.9082 278.571,32.7416 278.5,39.5C 278.78,49.8838 273.78,55.5505 263.5,56.5C 257.833,56.5 252.167,56.5 246.5,56.5C 246.5,45.8333 246.5,35.1667 246.5,24.5 Z"/></g>
<g><path style="opacity:1" fill="#141414" d="M 139.5,28.5 C 146.09,28.189 152.59,28.5223 159,29.5C 159.812,36.7471 159.646,43.9138 158.5,51C 152.141,51.8306 145.807,51.6639 139.5,50.5C 138.17,43.1368 138.17,35.8034 139.5,28.5 Z"/></g>
<g><path style="opacity:1" fill="#171717" d="M 195.5,28.5 C 201.842,28.3338 208.175,28.5005 214.5,29C 215.127,30.7378 215.46,32.5711 215.5,34.5C 215.444,36.6397 214.777,38.3064 213.5,39.5C 207.5,39.5 201.5,39.5 195.5,39.5C 195.5,35.8333 195.5,32.1667 195.5,28.5 Z"/></g>
<g><path style="opacity:1" fill="#464646" d="M 354.5,18.5 C 354.5,35.8333 354.5,53.1667 354.5,70.5C 347.743,70.8774 341.076,70.3774 334.5,69C 340.196,68.8299 345.862,68.3299 351.5,67.5C 344.8,66.832 338.133,65.9987 331.5,65C 336.282,64.8814 340.949,64.2148 345.5,63C 342.891,63.5283 340.225,63.195 337.5,62C 339.5,61.6667 341.5,61.3333 343.5,61C 339.049,60.8702 334.716,60.2036 330.5,59C 331.938,58.7811 333.271,58.2811 334.5,57.5C 333.167,57.1667 331.833,56.8333 330.5,56.5C 336.575,53.948 342.909,52.448 349.5,52C 342.167,51.6667 334.833,51.3333 327.5,51C 334.167,50.3333 334.167,49.6667 327.5,49C 322.5,48.6667 317.5,48.3333 312.5,48C 318.528,47.8303 324.528,47.3303 330.5,46.5C 331.025,45.8076 331.692,45.3076 332.5,45C 328.205,44.0881 323.872,43.4215 319.5,43C 322.167,42.6667 324.833,42.3333 327.5,42C 325.833,41.6667 324.167,41.3333 322.5,41C 325.833,40.6667 329.167,40.3333 332.5,40C 328.049,39.8702 323.716,39.2036 319.5,38C 322.167,37.6667 324.833,37.3333 327.5,37C 306.167,36.3333 306.167,35.6667 327.5,35C 319.167,34.6667 310.833,34.3333 302.5,34C 304.833,33.6667 307.167,33.3333 309.5,33C 306.937,32.237 306.937,31.737 309.5,31.5C 316.105,32.9929 322.772,33.4929 329.5,33C 329.833,32.6667 330.167,32.3333 330.5,32C 329.5,31.1667 328.5,30.3333 327.5,29.5C 332.806,27.7222 338.139,27.0555 343.5,27.5C 338.792,26.8157 334.126,25.9823 329.5,25C 334.118,24.8575 338.785,24.0241 343.5,22.5C 339.878,21.6747 336.211,21.1747 332.5,21C 334.833,20.6667 337.167,20.3333 339.5,20C 339.167,19.6667 338.833,19.3333 338.5,19C 343.823,18.5006 349.156,18.334 354.5,18.5 Z"/></g>
<g><path style="opacity:1" fill="#363736" d="M 287.5,-0.5 C 309.833,-0.5 332.167,-0.5 354.5,-0.5C 354.5,0.166667 354.5,0.833333 354.5,1.5C 350.837,1.95178 347.17,2.45178 343.5,3C 344.833,3.33333 346.167,3.66667 347.5,4C 344.298,4.19776 341.298,5.0311 338.5,6.5C 340.833,7.83333 343.167,7.83333 345.5,6.5C 346.308,6.80762 346.975,7.30762 347.5,8C 343.5,8.33333 339.5,8.66667 335.5,9C 338.833,9.33333 342.167,9.66667 345.5,10C 342.271,11.1246 338.938,11.6246 335.5,11.5C 336.376,12.2508 337.376,12.7508 338.5,13C 343.823,13.4994 349.156,13.666 354.5,13.5C 354.5,15.1667 354.5,16.8333 354.5,18.5C 349.156,18.334 343.823,18.5006 338.5,19C 338.833,19.3333 339.167,19.6667 339.5,20C 337.167,20.3333 334.833,20.6667 332.5,21C 336.211,21.1747 339.878,21.6747 343.5,22.5C 338.785,24.0241 334.118,24.8575 329.5,25C 334.126,25.9823 338.792,26.8157 343.5,27.5C 338.139,27.0555 332.806,27.7222 327.5,29.5C 328.5,30.3333 329.5,31.1667 330.5,32C 330.167,32.3333 329.833,32.6667 329.5,33C 322.772,33.4929 316.105,32.9929 309.5,31.5C 306.937,31.737 306.937,32.237 309.5,33C 307.167,33.3333 304.833,33.6667 302.5,34C 310.833,34.3333 319.167,34.6667 327.5,35C 306.167,35.6667 306.167,36.3333 327.5,37C 324.833,37.3333 322.167,37.6667 319.5,38C 323.716,39.2036 328.049,39.8702 332.5,40C 329.167,40.3333 325.833,40.6667 322.5,41C 324.167,41.3333 325.833,41.6667 327.5,42C 324.833,42.3333 322.167,42.6667 319.5,43C 323.872,43.4215 328.205,44.0881 332.5,45C 331.692,45.3076 331.025,45.8076 330.5,46.5C 324.528,47.3303 318.528,47.8303 312.5,48C 317.5,48.3333 322.5,48.6667 327.5,49C 334.167,49.6667 334.167,50.3333 327.5,51C 334.833,51.3333 342.167,51.6667 349.5,52C 342.909,52.448 336.575,53.948 330.5,56.5C 331.833,56.8333 333.167,57.1667 334.5,57.5C 333.271,58.2811 331.938,58.7811 330.5,59C 334.716,60.2036 339.049,60.8702 343.5,61C 341.5,61.3333 339.5,61.6667 337.5,62C 340.225,63.195 342.891,63.5283 345.5,63C 340.949,64.2148 336.282,64.8814 331.5,65C 338.133,65.9987 344.8,66.832 351.5,67.5C 345.862,68.3299 340.196,68.8299 334.5,69C 341.076,70.3774 347.743,70.8774 354.5,70.5C 354.5,72.8333 354.5,75.1667 354.5,77.5C 349.489,77.3341 344.489,77.5007 339.5,78C 343.381,79.1901 347.381,79.8568 351.5,80C 345.167,80.3333 338.833,80.6667 332.5,81C 338.059,81.4895 343.392,81.9895 348.5,82.5C 344.482,84.759 340.148,86.259 335.5,87C 338.167,87.3333 340.833,87.6667 343.5,88C 340.711,88.2414 338.044,88.908 335.5,90C 340.702,91.3517 340.702,92.5183 335.5,93.5C 350.089,95.4637 350.089,96.7971 335.5,97.5C 334.666,96.2521 333.333,95.5854 331.5,95.5C 327.469,96.5076 323.469,96.5076 319.5,95.5C 323.193,93.5804 323.193,92.2471 319.5,91.5C 319.5,90.5 319.5,89.5 319.5,88.5C 320.552,88.6495 321.552,88.4828 322.5,88C 319.721,86.2778 316.721,85.1112 313.5,84.5C 304.196,85.1498 295.03,86.1498 286,87.5C 283.167,87.3333 280.333,87.1667 277.5,87C 282.5,86.6667 287.5,86.3333 292.5,86C 292.167,85.6667 291.833,85.3333 291.5,85C 286.993,85.6223 282.493,85.4557 278,84.5C 275.557,85.0304 273.39,86.0304 271.5,87.5C 260.675,88.0425 250.008,87.0425 239.5,84.5C 242.107,83.6816 244.774,83.1816 247.5,83C 244.833,82.3333 242.167,81.6667 239.5,81C 244.721,80.4577 244.721,79.6244 239.5,78.5C 242.086,77.52 244.753,77.1866 247.5,77.5C 247.5,76.5 247.5,75.5 247.5,74.5C 250.187,74.6641 252.854,74.4974 255.5,74C 248.842,73.5004 242.175,73.3337 235.5,73.5C 178.167,73.5 120.833,73.5 63.5,73.5C 60.9407,73.8016 58.6074,73.4682 56.5,72.5C 379.167,71.8333 379.167,71.1667 56.5,70.5C 117.331,69.5009 178.331,69.1676 239.5,69.5C 247.507,69.6664 255.507,69.4997 263.5,69C 252.833,68 252.833,67 263.5,66C 255.003,65.9697 246.67,65.303 238.5,64C 243.562,63.8774 247.729,63.044 251,61.5C 254.268,61.9128 257.434,62.4128 260.5,63C 259.91,61.7011 258.91,60.8678 257.5,60.5C 253.529,59.8028 249.529,59.3028 245.5,59C 243.579,57.7592 243.246,56.2592 244.5,54.5C 244.126,55.771 244.792,56.9377 246.5,58C 252.384,58.5472 258.051,58.0472 263.5,56.5C 273.78,55.5505 278.78,49.8838 278.5,39.5C 278.571,32.7416 275.571,27.9082 269.5,25C 261.841,24.5003 254.174,24.3336 246.5,24.5C 251.985,23.6728 257.652,23.1728 263.5,23C 253.445,22.3265 243.445,21.1598 233.5,19.5C 235.078,18.7022 236.744,18.2022 238.5,18C 236.167,17.6667 233.833,17.3333 231.5,17C 232.833,16.6667 234.167,16.3333 235.5,16C 233.292,15.8091 231.292,15.3091 229.5,14.5C 235.535,14.4632 241.535,13.9632 247.5,13C 239.507,12.5003 231.507,12.3336 223.5,12.5C 228.64,11.5119 233.974,11.1786 239.5,11.5C 257.016,11.2295 274.516,11.5629 292,12.5C 294.591,12.4347 297.091,11.9347 299.5,11C 298.906,10.5357 298.239,10.369 297.5,10.5C 297.5,10.1667 297.5,9.83333 297.5,9.5C 297.833,9.5 298.167,9.5 298.5,9.5C 300.288,9.78522 301.955,9.45189 303.5,8.5C 300.893,7.68156 298.226,7.18156 295.5,7C 274.169,6.50004 252.836,6.33337 231.5,6.5C 233.219,5.97789 234.552,4.97789 235.5,3.5C 241.329,3.03159 246.996,2.36492 252.5,1.5C 264.309,0.894972 275.975,0.228305 287.5,-0.5 Z"/></g>
<g><path style="opacity:1" fill="#111111" d="M 83.5,28.5 C 90.1667,28.5 96.8333,28.5 103.5,28.5C 103.5,31.1667 103.5,33.8333 103.5,36.5C 96.8333,36.5 90.1667,36.5 83.5,36.5C 83.5,33.8333 83.5,31.1667 83.5,28.5 Z"/></g>
<g><path style="opacity:1" fill="#6f6f6f" d="M 83.5,28.5 C 83.5,31.1667 83.5,33.8333 83.5,36.5C 90.1667,36.5 96.8333,36.5 103.5,36.5C 96.6866,37.4912 89.6866,37.8245 82.5,37.5C 82.19,34.2869 82.5233,31.2869 83.5,28.5 Z"/></g>
<g><path style="opacity:1" fill="#6c6c6c" d="M 195.5,28.5 C 195.5,32.1667 195.5,35.8333 195.5,39.5C 201.5,39.5 207.5,39.5 213.5,39.5C 207.355,40.4902 201.022,40.8235 194.5,40.5C 194.183,36.2984 194.517,32.2984 195.5,28.5 Z"/></g>
<g><path style="opacity:1" fill="#363636" d="M 252.5,28.5 C 258.81,27.8563 264.81,28.8563 270.5,31.5C 275.042,38.3258 274.375,44.4925 268.5,50C 263.264,51.339 257.93,51.839 252.5,51.5C 252.5,43.8333 252.5,36.1667 252.5,28.5 Z"/></g>
<g><path style="opacity:1" fill="#161616" d="M 82.5,41.5 C 89.175,41.3337 95.8417,41.5004 102.5,42C 104.729,44.553 105.062,47.3864 103.5,50.5C 96.5316,51.497 89.5316,51.8303 82.5,51.5C 82.5,48.1667 82.5,44.8333 82.5,41.5 Z"/></g>
<g><path style="opacity:1" fill="#2d2d2d" d="M 23.5,46.5 C 26.1873,46.3359 28.854,46.5026 31.5,47C 29.8659,47.4935 28.1992,47.6602 26.5,47.5C 26.7563,49.9372 27.4229,52.2706 28.5,54.5C 26.9223,55.2978 25.2556,55.7978 23.5,56C 26.1667,56.3333 28.8333,56.6667 31.5,57C 26.2007,57.93 20.8673,58.5966 15.5,59C 18.1667,59.6667 20.8333,60.3333 23.5,61C 21.3921,61.3599 19.3921,62.0266 17.5,63C 18.5,63.3333 19.5,63.6667 20.5,64C 19.2519,65.9586 17.5852,67.4586 15.5,68.5C 10.2079,69.4948 4.8746,69.8282 -0.5,69.5C -0.5,63.5 -0.5,57.5 -0.5,51.5C 2.06678,50.3272 4.73345,49.1606 7.5,48C 13.0158,47.8267 18.3491,47.3267 23.5,46.5 Z"/></g>
<g><path style="opacity:1" fill="#fdfdfd" d="M 56.5,70.5 C 379.167,71.1667 379.167,71.8333 56.5,72.5C 56.5,71.8333 56.5,71.1667 56.5,70.5 Z"/></g>
<g><path style="opacity:1" fill="#101010" d="M 63.5,73.5 C 120.833,73.5 178.167,73.5 235.5,73.5C 233.393,74.4682 231.059,74.8016 228.5,74.5C 221.228,73.9282 214.228,74.9282 207.5,77.5C 194.179,78.3327 180.846,78.8327 167.5,79C 172.823,79.4994 178.156,79.666 183.5,79.5C 183.649,80.552 183.483,81.552 183,82.5C 181.028,83.3052 179.528,84.6385 178.5,86.5C 179.325,87.3857 180.325,87.719 181.5,87.5C 181.172,92.8746 181.505,98.2079 182.5,103.5C 183.48,100.914 183.813,98.2469 183.5,95.5C 191.03,93.9676 194.697,93.9676 194.5,95.5C 194.5,98.1667 194.5,100.833 194.5,103.5C 195.5,103.5 196.5,103.5 197.5,103.5C 197.012,106.711 197.679,109.544 199.5,112C 196.867,112.423 194.701,113.59 193,115.5C 192.617,114.944 192.117,114.611 191.5,114.5C 188.994,115.75 186.327,116.416 183.5,116.5C 183.62,118.734 183.287,120.901 182.5,123C 182.836,124.03 183.503,124.53 184.5,124.5C 185.733,127.573 187.233,127.906 189,125.5C 190.049,126.517 191.216,126.684 192.5,126C 191.584,125.722 190.918,125.222 190.5,124.5C 191.496,124.586 192.329,124.252 193,123.5C 193.308,124.308 193.808,124.975 194.5,125.5C 195.783,123.27 196.783,120.937 197.5,118.5C 198.222,118.918 198.722,119.584 199,120.5C 199.718,119.549 200.551,119.383 201.5,120C 200.848,122.09 200.681,124.257 201,126.5C 199.853,125.542 198.853,125.875 198,127.5C 197.182,130.227 197.348,132.894 198.5,135.5C 199.48,132.914 199.813,130.247 199.5,127.5C 200.5,127.5 201.5,127.5 202.5,127.5C 202.5,130.167 202.5,132.833 202.5,135.5C 203.5,135.5 204.5,135.5 205.5,135.5C 205.5,137.5 205.5,139.5 205.5,141.5C 136.833,141.5 68.1667,141.5 -0.5,141.5C -0.5,140.833 -0.5,140.167 -0.5,139.5C 10.2008,140.764 20.8674,140.431 31.5,138.5C 22.1358,137.294 12.8025,136.794 3.5,137C 10.7194,135.571 18.0528,135.071 25.5,135.5C 25.5,132.833 25.5,130.167 25.5,127.5C 24.1266,127.657 22.7932,127.49 21.5,127C 27.4547,125.928 33.4547,125.428 39.5,125.5C 39.5,124.167 39.5,122.833 39.5,121.5C 32.378,121.716 25.378,120.883 18.5,119C 22.8333,118.667 27.1667,118.333 31.5,118C 25.8333,117.667 20.1667,117.333 14.5,117C 21.274,116.922 27.9406,116.255 34.5,115C 37.2862,112.979 36.9528,111.479 33.5,110.5C 35.7703,108.025 38.437,106.025 41.5,104.5C 40.9747,103.808 40.3081,103.308 39.5,103C 42.1667,102.667 44.8333,102.333 47.5,102C 36.8333,101 36.8333,100 47.5,99C 44.1667,98.6667 40.8333,98.3333 37.5,98C 36.0072,96.8438 36.1739,96.0104 38,95.5C 46.4532,95.9017 54.9532,95.9017 63.5,95.5C 63.5,90.1667 63.5,84.8333 63.5,79.5C 66.1667,79.5 68.8333,79.5 71.5,79.5C 71.5,82.1667 71.5,84.8333 71.5,87.5C 74.1667,87.5 76.8333,87.5 79.5,87.5C 79.5,84.5 79.5,81.5 79.5,78.5C 73.4908,78.6662 67.4908,78.4995 61.5,78C 62.1258,77.2496 62.6258,76.4162 63,75.5C 65.5539,76.7711 68.3872,77.4377 71.5,77.5C 79.5,76.1667 87.5,76.1667 95.5,77.5C 100.92,77.4891 106.254,76.8225 111.5,75.5C 95.3384,74.8333 79.3384,74.1667 63.5,73.5 Z"/></g>
<g><path style="opacity:1" fill="#171717" d="M 228.5,74.5 C 229.687,75.5336 230.52,76.867 231,78.5C 232.388,77.4464 233.888,77.2797 235.5,78C 234.833,78.3333 234.167,78.6667 233.5,79C 235.734,81.9968 235.068,84.6634 231.5,87C 244.817,87.8307 244.817,88.3307 231.5,88.5C 231.5,89.5 231.5,90.5 231.5,91.5C 235.247,91.3924 238.914,91.8924 242.5,93C 238.75,93.2599 235.084,93.9266 231.5,95C 232.448,95.4828 233.448,95.6495 234.5,95.5C 235.911,98.6755 237.078,102.009 238,105.5C 239.507,104.465 241.007,104.632 242.5,106C 244.017,107.685 245.684,109.185 247.5,110.5C 246.284,113.25 244.284,114.417 241.5,114C 242.672,113.581 243.672,112.915 244.5,112C 241.536,111.431 238.87,112.098 236.5,114C 238.066,114.608 239.4,115.442 240.5,116.5C 237.813,116.664 235.146,116.497 232.5,116C 233.643,112.899 234.976,109.899 236.5,107C 236.026,105.392 235.359,105.226 234.5,106.5C 230.985,116.111 227.652,125.777 224.5,135.5C 225.274,136.711 226.107,136.711 227,135.5C 228.404,129.792 229.904,124.125 231.5,118.5C 233.167,118.5 234.833,118.5 236.5,118.5C 235.769,120.599 235.769,122.599 236.5,124.5C 237.757,122.321 239.257,120.321 241,118.5C 242.22,120.857 243.053,120.524 243.5,117.5C 244.492,117.328 245.158,117.662 245.5,118.5C 244.481,120.54 244.481,122.54 245.5,124.5C 246.478,124.023 247.311,123.357 248,122.5C 249.114,126.456 249.947,126.456 250.5,122.5C 254.5,123.728 254.5,125.228 250.5,127C 252.387,126.577 254.387,126.744 256.5,127.5C 256.5,126.5 256.5,125.5 256.5,124.5C 256.5,123.833 256.5,123.167 256.5,122.5C 257.232,123.808 258.066,125.142 259,126.5C 259.717,125.956 260.217,125.289 260.5,124.5C 261.167,124.5 261.833,124.5 262.5,124.5C 261.859,125.482 261.193,126.482 260.5,127.5C 256.167,128.167 251.833,128.833 247.5,129.5C 250.167,130.167 252.833,130.833 255.5,131.5C 253.234,132.314 250.9,132.814 248.5,133C 247.687,134.314 246.687,135.481 245.5,136.5C 246.95,137.85 247.617,139.516 247.5,141.5C 233.5,141.5 219.5,141.5 205.5,141.5C 205.5,139.5 205.5,137.5 205.5,135.5C 204.5,135.5 203.5,135.5 202.5,135.5C 202.5,132.833 202.5,130.167 202.5,127.5C 201.5,127.5 200.5,127.5 199.5,127.5C 199.813,130.247 199.48,132.914 198.5,135.5C 197.348,132.894 197.182,130.227 198,127.5C 198.853,125.875 199.853,125.542 201,126.5C 200.681,124.257 200.848,122.09 201.5,120C 200.551,119.383 199.718,119.549 199,120.5C 198.722,119.584 198.222,118.918 197.5,118.5C 199.198,114.971 198.531,114.137 195.5,116C 192.288,118.019 190.622,120.853 190.5,124.5C 190.918,125.222 191.584,125.722 192.5,126C 191.216,126.684 190.049,126.517 189,125.5C 187.233,127.906 185.733,127.573 184.5,124.5C 184.569,121.916 185.735,119.916 188,118.5C 188.333,119.167 188.667,119.833 189,120.5C 190.122,118.593 190.955,116.593 191.5,114.5C 192.117,114.611 192.617,114.944 193,115.5C 194.701,113.59 196.867,112.423 199.5,112C 197.679,109.544 197.012,106.711 197.5,103.5C 196.5,103.5 195.5,103.5 194.5,103.5C 194.5,100.833 194.5,98.1667 194.5,95.5C 194.697,93.9676 191.03,93.9676 183.5,95.5C 183.813,98.2469 183.48,100.914 182.5,103.5C 181.505,98.2079 181.172,92.8746 181.5,87.5C 180.325,87.719 179.325,87.3857 178.5,86.5C 179.528,84.6385 181.028,83.3052 183,82.5C 183.483,81.552 183.649,80.552 183.5,79.5C 178.156,79.666 172.823,79.4994 167.5,79C 180.846,78.8327 194.179,78.3327 207.5,77.5C 214.228,74.9282 221.228,73.9282 228.5,74.5 Z"/></g>
<g><path style="opacity:1" fill="#2a2a2a" d="M 25.5,95.5 C 16.8333,95.5 8.16667,95.5 -0.5,95.5C -0.5,88.1667 -0.5,80.8333 -0.5,73.5C 4.83333,72.1667 10.1667,72.1667 15.5,73.5C 15.5,74.5 15.5,75.5 15.5,76.5C -0.460224,77.3467 -0.460224,78.5133 15.5,80C 8.97591,81.1123 8.47591,82.6123 14,84.5C 17.919,83.0535 21.7523,83.2202 25.5,85C 22.1832,85.4983 18.8499,85.665 15.5,85.5C 15.5,86.5 15.5,87.5 15.5,88.5C 14.448,88.3505 13.448,88.5172 12.5,89C 17.7708,89.6349 22.1041,91.8016 25.5,95.5 Z"/></g>
<g><path style="opacity:1" fill="#232323" d="M 235.5,73.5 C 242.175,73.3337 248.842,73.5004 255.5,74C 252.854,74.4974 250.187,74.6641 247.5,74.5C 247.5,75.5 247.5,76.5 247.5,77.5C 244.753,77.1866 242.086,77.52 239.5,78.5C 244.721,79.6244 244.721,80.4577 239.5,81C 242.167,81.6667 244.833,82.3333 247.5,83C 244.774,83.1816 242.107,83.6816 239.5,84.5C 250.008,87.0425 260.675,88.0425 271.5,87.5C 262.676,88.3297 253.676,88.8297 244.5,89C 243.5,89.3333 242.5,89.6667 241.5,90C 243.345,91.128 245.345,91.628 247.5,91.5C 247.5,92.5 247.5,93.5 247.5,94.5C 249.199,94.3398 250.866,94.5065 252.5,95C 251.552,95.4828 250.552,95.6495 249.5,95.5C 249.98,98.0046 250.98,100.338 252.5,102.5C 250.726,103.187 249.059,104.02 247.5,105C 250.869,105.663 254.203,105.496 257.5,104.5C 258.167,104.667 258.833,104.833 259.5,105C 258.5,105.333 257.5,105.667 256.5,106C 257.737,106.232 258.737,106.732 259.5,107.5C 258.422,110.402 257.756,113.402 257.5,116.5C 256.325,116.281 255.325,116.614 254.5,117.5C 255.036,120.105 255.202,122.772 255,125.5C 255.383,124.944 255.883,124.611 256.5,124.5C 256.5,125.5 256.5,126.5 256.5,127.5C 254.387,126.744 252.387,126.577 250.5,127C 254.5,125.228 254.5,123.728 250.5,122.5C 251.212,120.072 252.212,117.739 253.5,115.5C 253.167,115.167 252.833,114.833 252.5,114.5C 250.667,116.833 248.833,119.167 247,121.5C 246.667,119.953 247.167,118.62 248.5,117.5C 248.167,117.167 247.833,116.833 247.5,116.5C 246.818,117.243 246.151,117.909 245.5,118.5C 245.158,117.662 244.492,117.328 243.5,117.5C 243.196,115.204 242.196,114.871 240.5,116.5C 239.4,115.442 238.066,114.608 236.5,114C 238.87,112.098 241.536,111.431 244.5,112C 243.672,112.915 242.672,113.581 241.5,114C 244.284,114.417 246.284,113.25 247.5,110.5C 245.684,109.185 244.017,107.685 242.5,106C 241.007,104.632 239.507,104.465 238,105.5C 237.078,102.009 235.911,98.6755 234.5,95.5C 233.448,95.6495 232.448,95.4828 231.5,95C 235.084,93.9266 238.75,93.2599 242.5,93C 238.914,91.8924 235.247,91.3924 231.5,91.5C 231.5,90.5 231.5,89.5 231.5,88.5C 244.817,88.3307 244.817,87.8307 231.5,87C 235.068,84.6634 235.734,81.9968 233.5,79C 234.167,78.6667 234.833,78.3333 235.5,78C 233.888,77.2797 232.388,77.4464 231,78.5C 230.52,76.867 229.687,75.5336 228.5,74.5C 231.059,74.8016 233.393,74.4682 235.5,73.5 Z"/></g>
<g><path style="opacity:1" fill="#4b4b4b" d="M 354.5,77.5 C 354.5,84.8333 354.5,92.1667 354.5,99.5C 347.938,99.6631 341.605,98.9965 335.5,97.5C 350.089,96.7971 350.089,95.4637 335.5,93.5C 340.702,92.5183 340.702,91.3517 335.5,90C 338.044,88.908 340.711,88.2414 343.5,88C 340.833,87.6667 338.167,87.3333 335.5,87C 340.148,86.259 344.482,84.759 348.5,82.5C 343.392,81.9895 338.059,81.4895 332.5,81C 338.833,80.6667 345.167,80.3333 351.5,80C 347.381,79.8568 343.381,79.1901 339.5,78C 344.489,77.5007 349.489,77.3341 354.5,77.5 Z"/></g>
<g><path style="opacity:1" fill="#2f2f2f" d="M 335.5,97.5 C 341.605,98.9965 347.938,99.6631 354.5,99.5C 354.5,100.833 354.5,102.167 354.5,103.5C 349.156,103.334 343.823,103.501 338.5,104C 342.833,104.333 347.167,104.667 351.5,105C 344.525,105.921 337.525,106.588 330.5,107C 332.167,107.333 333.833,107.667 335.5,108C 332.854,108.497 330.187,108.664 327.5,108.5C 325.031,107.683 322.365,107.183 319.5,107C 321.833,106.667 324.167,106.333 326.5,106C 316.179,104.959 305.846,104.625 295.5,105C 298.226,105.182 300.893,105.682 303.5,106.5C 298.167,106.833 292.833,107.167 287.5,107.5C 292.802,108.329 298.136,108.829 303.5,109C 296.379,110.968 289.045,112.135 281.5,112.5C 279.094,111.936 276.76,111.603 274.5,111.5C 272.013,112.764 270.346,114.097 269.5,115.5C 269.103,114.475 268.437,114.308 267.5,115C 264.152,117.501 261.818,120.668 260.5,124.5C 260.217,125.289 259.717,125.956 259,126.5C 258.066,125.142 257.232,123.808 256.5,122.5C 257.376,118.337 260.043,116.17 264.5,116C 262.5,115.667 260.5,115.333 258.5,115C 259.786,112.978 260.786,110.811 261.5,108.5C 261.043,107.702 260.376,107.369 259.5,107.5C 258.737,106.732 257.737,106.232 256.5,106C 257.5,105.667 258.5,105.333 259.5,105C 258.833,104.833 258.167,104.667 257.5,104.5C 254.203,105.496 250.869,105.663 247.5,105C 249.059,104.02 250.726,103.187 252.5,102.5C 250.98,100.338 249.98,98.0046 249.5,95.5C 250.552,95.6495 251.552,95.4828 252.5,95C 250.866,94.5065 249.199,94.3398 247.5,94.5C 247.5,93.5 247.5,92.5 247.5,91.5C 245.345,91.628 243.345,91.128 241.5,90C 242.5,89.6667 243.5,89.3333 244.5,89C 253.676,88.8297 262.676,88.3297 271.5,87.5C 273.39,86.0304 275.557,85.0304 278,84.5C 282.493,85.4557 286.993,85.6223 291.5,85C 291.833,85.3333 292.167,85.6667 292.5,86C 287.5,86.3333 282.5,86.6667 277.5,87C 280.333,87.1667 283.167,87.3333 286,87.5C 295.03,86.1498 304.196,85.1498 313.5,84.5C 316.721,85.1112 319.721,86.2778 322.5,88C 321.552,88.4828 320.552,88.6495 319.5,88.5C 319.5,89.5 319.5,90.5 319.5,91.5C 323.193,92.2471 323.193,93.5804 319.5,95.5C 323.469,96.5076 327.469,96.5076 331.5,95.5C 333.333,95.5854 334.666,96.2521 335.5,97.5 Z"/></g>
<g><path style="opacity:1" fill="#bcbcbc" d="M 77.5,106.5 C 82.1785,106.334 86.8452,106.501 91.5,107C 89.236,107.236 87.0693,107.736 85,108.5C 83.4544,114.362 81.4544,120.028 79,125.5C 79.4812,119.78 80.9812,114.28 83.5,109C 81.6226,108.424 79.7892,108.591 78,109.5C 76.3167,108.824 76.1501,107.824 77.5,106.5 Z"/></g>
<g><path style="opacity:1" fill="#c5c5c5" d="M 126.5,107.5 C 127.376,107.369 128.043,107.702 128.5,108.5C 126.302,113.761 124.302,119.095 122.5,124.5C 122.167,124 121.833,123.5 121.5,123C 123.555,117.945 125.221,112.778 126.5,107.5 Z"/></g>
<g><path style="opacity:1" fill="#c2c2c2" d="M 151.5,108.5 C 155.009,109.153 154.676,110.153 150.5,111.5C 150.167,111.167 149.833,110.833 149.5,110.5C 150.243,109.818 150.909,109.151 151.5,108.5 Z"/></g>
<g><path style="opacity:1" fill="#b9b9b9" d="M 221.5,109.5 C 223.337,109.639 223.67,110.306 222.5,111.5C 221.702,111.043 221.369,110.376 221.5,109.5 Z"/></g>
<g><path style="opacity:1" fill="#282828" d="M 327.5,108.5 C 332.651,109.327 337.984,109.827 343.5,110C 338.167,111 332.833,112 327.5,113C 337.079,114.529 337.412,115.862 328.5,117C 329.5,117.333 330.5,117.667 331.5,118C 328.529,118.794 325.529,119.461 322.5,120C 328.528,120.406 334.528,120.406 340.5,120C 335.069,121.602 334.735,122.935 339.5,124C 338.833,124.667 338.167,125.333 337.5,126C 341.167,126.333 344.833,126.667 348.5,127C 345.5,127.333 342.5,127.667 339.5,128C 340.938,128.219 342.271,128.719 343.5,129.5C 341.887,130.427 340.221,131.261 338.5,132C 342.951,132.13 347.284,132.796 351.5,134C 346.044,134.299 340.711,135.132 335.5,136.5C 335.5,137.5 335.5,138.5 335.5,139.5C 339.514,139.334 343.514,139.501 347.5,140C 345.292,140.191 343.292,140.691 341.5,141.5C 310.167,141.5 278.833,141.5 247.5,141.5C 247.617,139.516 246.95,137.85 245.5,136.5C 246.687,135.481 247.687,134.314 248.5,133C 250.9,132.814 253.234,132.314 255.5,131.5C 252.833,130.833 250.167,130.167 247.5,129.5C 251.833,128.833 256.167,128.167 260.5,127.5C 261.193,126.482 261.859,125.482 262.5,124.5C 262.56,123.957 262.893,123.624 263.5,123.5C 264.167,124.167 264.833,124.833 265.5,125.5C 266.652,122.035 267.985,118.702 269.5,115.5C 270.346,114.097 272.013,112.764 274.5,111.5C 276.76,111.603 279.094,111.936 281.5,112.5C 289.045,112.135 296.379,110.968 303.5,109C 298.136,108.829 292.802,108.329 287.5,107.5C 292.833,107.167 298.167,106.833 303.5,106.5C 300.893,105.682 298.226,105.182 295.5,105C 305.846,104.625 316.179,104.959 326.5,106C 324.167,106.333 321.833,106.667 319.5,107C 322.365,107.183 325.031,107.683 327.5,108.5 Z"/></g>
<g><path style="opacity:1" fill="#c8c8c8" d="M 116.5,114.5 C 117.496,114.414 118.329,114.748 119,115.5C 119.836,119.354 118.669,122.521 115.5,125C 114.552,125.483 113.552,125.649 112.5,125.5C 112.338,123.473 112.505,121.473 113,119.5C 114.412,117.935 115.579,116.269 116.5,114.5 Z"/></g>
<g><path style="opacity:1" fill="#cacaca" d="M 146.5,115.5 C 147.497,115.47 148.164,115.97 148.5,117C 146.94,119.289 145.773,121.789 145,124.5C 144.861,121.425 145.361,118.425 146.5,115.5 Z"/></g>
<g><path style="opacity:1" fill="#c8c8c8" d="M 191.5,114.5 C 190.955,116.593 190.122,118.593 189,120.5C 188.667,119.833 188.333,119.167 188,118.5C 185.735,119.916 184.569,121.916 184.5,124.5C 183.503,124.53 182.836,124.03 182.5,123C 183.287,120.901 183.62,118.734 183.5,116.5C 186.327,116.416 188.994,115.75 191.5,114.5 Z"/></g>
<g><path style="opacity:1" fill="#c6c6c6" d="M 110.5,114.5 C 111.6,118.398 110.766,122.065 108,125.5C 109.559,118.593 108.225,117.926 104,123.5C 103.431,120.536 104.098,117.87 106,115.5C 106.333,116.5 106.667,117.5 107,118.5C 108.376,117.295 109.542,115.962 110.5,114.5 Z"/></g>
<g><path style="opacity:1" fill="#b2b2b2" d="M 219.5,115.5 C 220.376,115.369 221.043,115.702 221.5,116.5C 216.048,128.497 215.382,128.163 219.5,115.5 Z"/></g>
<g><path style="opacity:1" fill="#cdcdcd" d="M 259.5,107.5 C 260.376,107.369 261.043,107.702 261.5,108.5C 260.786,110.811 259.786,112.978 258.5,115C 260.5,115.333 262.5,115.667 264.5,116C 260.043,116.17 257.376,118.337 256.5,122.5C 256.5,123.167 256.5,123.833 256.5,124.5C 255.883,124.611 255.383,124.944 255,125.5C 255.202,122.772 255.036,120.105 254.5,117.5C 255.325,116.614 256.325,116.281 257.5,116.5C 257.756,113.402 258.422,110.402 259.5,107.5 Z"/></g>
<g><path style="opacity:1" fill="#b8b8b8" d="M 154.5,114.5 C 155.497,114.47 156.164,114.97 156.5,116C 155.262,119.217 153.928,122.384 152.5,125.5C 151.37,124.216 150.037,123.383 148.5,123C 149.927,119.743 151.927,116.91 154.5,114.5 Z"/></g>
<g><path style="opacity:1" fill="#bdbdbd" d="M 197.5,118.5 C 196.783,120.937 195.783,123.27 194.5,125.5C 193.808,124.975 193.308,124.308 193,123.5C 192.329,124.252 191.496,124.586 190.5,124.5C 190.622,120.853 192.288,118.019 195.5,116C 198.531,114.137 199.198,114.971 197.5,118.5 Z"/></g>
<g><path style="opacity:1" fill="#dbdbdb" d="M 214.5,119.5 C 213.577,120.303 212.577,120.47 211.5,120C 212.451,119.282 212.617,118.449 212,117.5C 211.292,118.381 210.458,119.047 209.5,119.5C 210.423,116.74 212.256,114.74 215,113.5C 215.113,111.026 216.113,109.026 218,107.5C 217.17,111.522 216.004,115.522 214.5,119.5 Z"/></g>
<g><path style="opacity:1" fill="#c1c1c1" d="M 90.5,114.5 C 91.5,114.5 92.5,114.5 93.5,114.5C 93.6495,115.552 93.4828,116.552 93,117.5C 91.2201,119.293 89.3868,120.96 87.5,122.5C 88.723,123.614 90.0563,123.781 91.5,123C 94.3547,119.812 97.5214,116.978 101,114.5C 102.257,114.85 102.591,115.517 102,116.5C 100.814,118.677 98.9806,119.677 96.5,119.5C 96.5,120.5 96.5,121.5 96.5,122.5C 98.3904,122.703 99.8904,122.037 101,120.5C 101.033,122.877 99.7001,124.21 97,124.5C 95.7387,124.241 94.7387,123.574 94,122.5C 88.8274,127.229 86.494,126.229 87,119.5C 88.8022,118.211 89.9688,116.544 90.5,114.5 Z"/></g>
<g><path style="opacity:1" fill="#2a2a2a" d="M 116.5,117.5 C 117.668,119.885 117.001,121.885 114.5,123.5C 114.167,123.167 113.833,122.833 113.5,122.5C 114.26,120.64 115.26,118.973 116.5,117.5 Z"/></g>
<g><path style="opacity:1" fill="#bababa" d="M 167.5,114.5 C 174.825,116.033 175.492,119.2 169.5,124C 168.207,124.49 166.873,124.657 165.5,124.5C 165.414,126.677 164.747,128.677 163.5,130.5C 162.833,131.833 162.167,131.833 161.5,130.5C 164.078,125.35 166.078,120.017 167.5,114.5 Z"/></g>
<g><path style="opacity:1" fill="#141414" d="M 168.5,116.5 C 172.106,117.815 172.272,119.815 169,122.5C 167.204,120.598 167.037,118.598 168.5,116.5 Z"/></g>
<g><path style="opacity:1" fill="#c6c6c6" d="M 240.5,116.5 C 242.196,114.871 243.196,115.204 243.5,117.5C 243.053,120.524 242.22,120.857 241,118.5C 239.257,120.321 237.757,122.321 236.5,124.5C 235.769,122.599 235.769,120.599 236.5,118.5C 234.833,118.5 233.167,118.5 231.5,118.5C 229.904,124.125 228.404,129.792 227,135.5C 226.107,136.711 225.274,136.711 224.5,135.5C 227.652,125.777 230.985,116.111 234.5,106.5C 235.359,105.226 236.026,105.392 236.5,107C 234.976,109.899 233.643,112.899 232.5,116C 235.146,116.497 237.813,116.664 240.5,116.5 Z"/></g>
<g><path style="opacity:1" fill="#c1c1c1" d="M 250.5,122.5 C 249.947,126.456 249.114,126.456 248,122.5C 247.311,123.357 246.478,124.023 245.5,124.5C 244.481,122.54 244.481,120.54 245.5,118.5C 246.151,117.909 246.818,117.243 247.5,116.5C 247.833,116.833 248.167,117.167 248.5,117.5C 247.167,118.62 246.667,119.953 247,121.5C 248.833,119.167 250.667,116.833 252.5,114.5C 252.833,114.833 253.167,115.167 253.5,115.5C 252.212,117.739 251.212,120.072 250.5,122.5 Z"/></g>
<g><path style="opacity:1" fill="#c8c8c8" d="M 180.5,114.5 C 181.376,114.369 182.043,114.702 182.5,115.5C 180.45,118.616 178.95,121.949 178,125.5C 177.667,124.5 177.333,123.5 177,122.5C 174.649,125.433 173.649,125.099 174,121.5C 176.033,118.97 178.2,116.637 180.5,114.5 Z"/></g>
<g><path style="opacity:1" fill="#a3a3a3" d="M 214.5,119.5 C 214.229,121.312 213.562,122.978 212.5,124.5C 211.212,122.525 209.545,122.525 207.5,124.5C 206.177,122.146 206.843,120.479 209.5,119.5C 210.458,119.047 211.292,118.381 212,117.5C 212.617,118.449 212.451,119.282 211.5,120C 212.577,120.47 213.577,120.303 214.5,119.5 Z"/></g>
<g><path style="opacity:1" fill="#d3d3d3" d="M 276.5,114.5 C 278.786,115.34 279.119,116.84 277.5,119C 276.576,120.811 275.743,120.645 275,118.5C 273.732,120.717 272.232,122.717 270.5,124.5C 270.167,124.167 269.833,123.833 269.5,123.5C 270.651,121.227 271.651,118.894 272.5,116.5C 274.345,117.395 275.678,116.728 276.5,114.5 Z"/></g>
<g><path style="opacity:1" fill="#d1d1d1" d="M 225.5,114.5 C 226.376,114.369 227.043,114.702 227.5,115.5C 226.43,119.312 224.596,122.645 222,125.5C 221.5,125.167 221,124.833 220.5,124.5C 223.298,121.796 224.965,118.463 225.5,114.5 Z"/></g>
<g><path style="opacity:1" fill="#cdcdcd" d="M 269.5,115.5 C 267.985,118.702 266.652,122.035 265.5,125.5C 264.833,124.833 264.167,124.167 263.5,123.5C 262.893,123.624 262.56,123.957 262.5,124.5C 261.833,124.5 261.167,124.5 260.5,124.5C 261.818,120.668 264.152,117.501 267.5,115C 268.437,114.308 269.103,114.475 269.5,115.5 Z"/></g>
<g><path style="opacity:1" fill="#d1d1d1" d="M 131.5,114.5 C 133.484,114.484 134.484,115.484 134.5,117.5C 134.226,122.1 131.893,124.767 127.5,125.5C 127.34,123.801 127.506,122.134 128,120.5C 129.421,118.595 130.588,116.595 131.5,114.5 Z"/></g>
<g><path style="opacity:1" fill="#2c2c2c" d="M 131.5,117.5 C 133.023,120.045 132.357,122.045 129.5,123.5C 129.167,123.167 128.833,122.833 128.5,122.5C 129.26,120.64 130.26,118.973 131.5,117.5 Z"/></g>
<g><path style="opacity:1" fill="#b8b8b8" d="M 141.5,113.5 C 142.586,113.62 143.253,114.287 143.5,115.5C 141.43,121.544 139.263,127.544 137,133.5C 135.366,138.147 132.366,139.48 128,137.5C 127.107,134.084 127.607,130.917 129.5,128C 130.167,127.333 130.833,127.333 131.5,128C 129.152,130.354 128.486,133.021 129.5,136C 132.804,137.042 134.971,135.875 136,132.5C 136.375,130 137.208,127.667 138.5,125.5C 137.675,124.614 136.675,124.281 135.5,124.5C 136.623,120.371 138.623,116.705 141.5,113.5 Z"/></g>
<g><path style="opacity:1" fill="#3b3b3b" d="M 354.5,103.5 C 354.5,116.167 354.5,128.833 354.5,141.5C 350.167,141.5 345.833,141.5 341.5,141.5C 343.292,140.691 345.292,140.191 347.5,140C 343.514,139.501 339.514,139.334 335.5,139.5C 335.5,138.5 335.5,137.5 335.5,136.5C 340.711,135.132 346.044,134.299 351.5,134C 347.284,132.796 342.951,132.13 338.5,132C 340.221,131.261 341.887,130.427 343.5,129.5C 342.271,128.719 340.938,128.219 339.5,128C 342.5,127.667 345.5,127.333 348.5,127C 344.833,126.667 341.167,126.333 337.5,126C 338.167,125.333 338.833,124.667 339.5,124C 334.735,122.935 335.069,121.602 340.5,120C 334.528,120.406 328.528,120.406 322.5,120C 325.529,119.461 328.529,118.794 331.5,118C 330.5,117.667 329.5,117.333 328.5,117C 337.412,115.862 337.079,114.529 327.5,113C 332.833,112 338.167,111 343.5,110C 337.984,109.827 332.651,109.327 327.5,108.5C 330.187,108.664 332.854,108.497 335.5,108C 333.833,107.667 332.167,107.333 330.5,107C 337.525,106.588 344.525,105.921 351.5,105C 347.167,104.667 342.833,104.333 338.5,104C 343.823,103.501 349.156,103.334 354.5,103.5 Z"/></g>
</svg>
