<?xml version="1.0" encoding="UTF-8"?>
<!DOCTYPE svg PUBLIC "-//W3C//DTD SVG 1.1//EN" "http://www.w3.org/Graphics/SVG/1.1/DTD/svg11.dtd">
<svg xmlns="http://www.w3.org/2000/svg" version="1.1" width="225px" height="225px" style="shape-rendering:geometricPrecision; text-rendering:geometricPrecision; image-rendering:optimizeQuality; fill-rule:evenodd; clip-rule:evenodd" xmlns:xlink="http://www.w3.org/1999/xlink">
<g><path style="opacity:1" fill="#9e0336" d="M -0.5,-0.5 C 74.5,-0.5 149.5,-0.5 224.5,-0.5C 224.5,74.5 224.5,149.5 224.5,224.5C 149.5,224.5 74.5,224.5 -0.5,224.5C -0.5,149.5 -0.5,74.5 -0.5,-0.5 Z"/></g>
<g><path style="opacity:1" fill="#a90436" d="M 191.5,55.5 C 191.5,60.8333 191.5,66.1667 191.5,71.5C 194.167,71.5 196.833,71.5 199.5,71.5C 199.5,79.5 199.5,87.5 199.5,95.5C 202.167,95.5 204.833,95.5 207.5,95.5C 207.5,106.167 207.5,116.833 207.5,127.5C 204.5,127.5 201.5,127.5 198.5,127.5C 198.737,131.273 198.237,134.94 197,138.5C 196.085,137.672 195.419,136.672 195,135.5C 194.62,138.768 195.454,141.768 197.5,144.5C 197.043,145.298 196.376,145.631 195.5,145.5C 191.775,138.653 190.109,131.32 190.5,123.5C 192.451,123.773 193.951,123.107 195,121.5C 195.866,117.736 197.033,114.069 198.5,110.5C 197.96,109.252 197.293,108.085 196.5,107C 187.599,104.959 178.599,104.293 169.5,105C 170.848,108.397 170.514,111.564 168.5,114.5C 168.954,112.259 168.954,110.259 168.5,108.5C 168.262,106.596 167.262,105.262 165.5,104.5C 167.249,102.744 169.249,101.411 171.5,100.5C 172.492,100.672 173.158,100.338 173.5,99.5C 174.338,99.1583 174.672,98.4916 174.5,97.5C 175.425,93.058 176.758,88.7246 178.5,84.5C 172.537,83.5041 166.537,83.1707 160.5,83.5C 160.5,82.5 160.5,81.5 160.5,80.5C 167.167,80.5 173.833,80.5 180.5,80.5C 180.88,78.302 180.213,76.6354 178.5,75.5C 177.791,74.596 176.791,74.2627 175.5,74.5C 176.122,73.3734 176.955,72.3734 178,71.5C 180.223,73.7225 181.556,76.3892 182,79.5C 182.21,77.9419 182.71,76.6085 183.5,75.5C 183.857,79.3948 185.857,80.3948 189.5,78.5C 190.452,72.787 188.452,71.4537 183.5,74.5C 183.671,71.2027 183.005,70.8694 181.5,73.5C 180.914,73.2907 180.414,72.9574 180,72.5C 179.502,69.5184 179.335,66.5184 179.5,63.5C 178.167,63.5 176.833,63.5 175.5,63.5C 175.5,60.8333 175.5,58.1667 175.5,55.5C 172.833,55.5 170.167,55.5 167.5,55.5C 167.5,52.8333 167.5,50.1667 167.5,47.5C 162.167,47.5 156.833,47.5 151.5,47.5C 151.5,44.8333 151.5,42.1667 151.5,39.5C 148.833,39.5 146.167,39.5 143.5,39.5C 143.5,36.8333 143.5,34.1667 143.5,31.5C 124.833,31.5 106.167,31.5 87.5,31.5C 87.5,34.1667 87.5,36.8333 87.5,39.5C 82.1667,39.5 76.8333,39.5 71.5,39.5C 71.5,42.1667 71.5,44.8333 71.5,47.5C 66.1667,47.5 60.8333,47.5 55.5,47.5C 55.5,50.1667 55.5,52.8333 55.5,55.5C 52.8333,55.5 50.1667,55.5 47.5,55.5C 47.5,60.8333 47.5,66.1667 47.5,71.5C 44.8333,71.5 42.1667,71.5 39.5,71.5C 39.5,76.8333 39.5,82.1667 39.5,87.5C 36.8333,87.5 34.1667,87.5 31.5,87.5C 30.9132,93.3027 31.5798,98.8027 33.5,104C 31.7295,104.535 31.3961,105.369 32.5,106.5C 33.8333,105.833 35.1667,105.167 36.5,104.5C 37.548,105.548 38.548,106.548 39.5,107.5C 38.6236,107.369 37.9569,107.702 37.5,108.5C 38.3111,116.399 36.6444,123.733 32.5,130.5C 31.2794,131.028 30.1127,131.695 29,132.5C 27.7619,143.689 25.9286,144.022 23.5,133.5C 23.9391,131.896 24.6057,130.396 25.5,129C 23.5404,109.962 22.8737,90.7958 23.5,71.5C 26.1667,71.5 28.8333,71.5 31.5,71.5C 31.5,68.8333 31.5,66.1667 31.5,63.5C 34.1667,63.5 36.8333,63.5 39.5,63.5C 39.5,58.1667 39.5,52.8333 39.5,47.5C 39.5,44.8333 39.5,42.1667 39.5,39.5C 42.1667,39.5 44.8333,39.5 47.5,39.5C 47.5,36.8333 47.5,34.1667 47.5,31.5C 50.1667,31.5 52.8333,31.5 55.5,31.5C 55.5,28.8333 55.5,26.1667 55.5,23.5C 58.1667,23.5 60.8333,23.5 63.5,23.5C 63.5,22.5 63.5,21.5 63.5,20.5C 66.1667,20.5 68.8333,20.5 71.5,20.5C 71.5,18.8333 71.5,17.1667 71.5,15.5C 76.8333,15.5 82.1667,15.5 87.5,15.5C 87.5,14.5 87.5,13.5 87.5,12.5C 103.5,9.83333 119.5,9.83333 135.5,12.5C 135.5,13.5 135.5,14.5 135.5,15.5C 140.833,15.5 146.167,15.5 151.5,15.5C 151.5,17.1667 151.5,18.8333 151.5,20.5C 154.167,20.5 156.833,20.5 159.5,20.5C 159.5,21.5 159.5,22.5 159.5,23.5C 162.167,23.5 164.833,23.5 167.5,23.5C 167.5,25.1667 167.5,26.8333 167.5,28.5C 170.167,28.5 172.833,28.5 175.5,28.5C 175.5,31.1667 175.5,33.8333 175.5,36.5C 178.167,36.5 180.833,36.5 183.5,36.5C 183.5,37.5 183.5,38.5 183.5,39.5C 184.5,39.5 185.5,39.5 186.5,39.5C 186.5,42.1667 186.5,44.8333 186.5,47.5C 188.167,47.5 189.833,47.5 191.5,47.5C 191.5,50.1667 191.5,52.8333 191.5,55.5 Z"/></g>
<g><path style="opacity:1" fill="#a50336" d="M 39.5,47.5 C 39.5,52.8333 39.5,58.1667 39.5,63.5C 36.8333,63.5 34.1667,63.5 31.5,63.5C 31.5,66.1667 31.5,68.8333 31.5,71.5C 28.8333,71.5 26.1667,71.5 23.5,71.5C 22.8737,90.7958 23.5404,109.962 25.5,129C 24.6057,130.396 23.9391,131.896 23.5,133.5C 25.9286,144.022 27.7619,143.689 29,132.5C 30.1127,131.695 31.2794,131.028 32.5,130.5C 31.2835,135.817 29.2835,140.817 26.5,145.5C 26.6236,146.107 26.9569,146.44 27.5,146.5C 26.8592,147.482 26.1925,148.482 25.5,149.5C 26.9525,149.06 28.1192,149.726 29,151.5C 29.414,151.043 29.914,150.709 30.5,150.5C 31.4841,153.428 31.8174,156.428 31.5,159.5C 34.1667,159.5 36.8333,159.5 39.5,159.5C 39.5,164.833 39.5,170.167 39.5,175.5C 42.1667,175.5 44.8333,175.5 47.5,175.5C 47.5,178.167 47.5,180.833 47.5,183.5C 50.1667,183.5 52.8333,183.5 55.5,183.5C 55.5,186.167 55.5,188.833 55.5,191.5C 60.8333,191.5 66.1667,191.5 71.5,191.5C 71.5,194.167 71.5,196.833 71.5,199.5C 82.1667,199.5 92.8333,199.5 103.5,199.5C 103.5,202.167 103.5,204.833 103.5,207.5C 111.5,207.5 119.5,207.5 127.5,207.5C 127.5,204.833 127.5,202.167 127.5,199.5C 135.5,199.5 143.5,199.5 151.5,199.5C 151.5,196.833 151.5,194.167 151.5,191.5C 156.833,191.5 162.167,191.5 167.5,191.5C 167.5,188.833 167.5,186.167 167.5,183.5C 170.167,183.5 172.833,183.5 175.5,183.5C 175.5,180.833 175.5,178.167 175.5,175.5C 178.167,175.5 180.833,175.5 183.5,175.5C 183.5,172.833 183.5,170.167 183.5,167.5C 186.167,167.5 188.833,167.5 191.5,167.5C 191.172,162.125 191.505,156.792 192.5,151.5C 193.845,150.653 194.845,149.487 195.5,148C 194.258,147.689 193.258,148.189 192.5,149.5C 191.571,148.311 191.238,146.978 191.5,145.5C 190.89,144.609 190.557,143.609 190.5,142.5C 192.129,143.625 193.629,144.959 195,146.5C 195.399,146.272 195.565,145.938 195.5,145.5C 196.376,145.631 197.043,145.298 197.5,144.5C 195.454,141.768 194.62,138.768 195,135.5C 195.419,136.672 196.085,137.672 197,138.5C 198.237,134.94 198.737,131.273 198.5,127.5C 201.5,127.5 204.5,127.5 207.5,127.5C 207.5,116.833 207.5,106.167 207.5,95.5C 204.833,95.5 202.167,95.5 199.5,95.5C 199.5,87.5 199.5,79.5 199.5,71.5C 196.833,71.5 194.167,71.5 191.5,71.5C 191.5,66.1667 191.5,60.8333 191.5,55.5C 194.167,55.5 196.833,55.5 199.5,55.5C 199.5,58.1667 199.5,60.8333 199.5,63.5C 201.167,63.5 202.833,63.5 204.5,63.5C 204.5,66.1667 204.5,68.8333 204.5,71.5C 205.5,71.5 206.5,71.5 207.5,71.5C 207.5,74.1667 207.5,76.8333 207.5,79.5C 208.5,79.5 209.5,79.5 210.5,79.5C 210.509,87.5682 211.176,95.5682 212.5,103.5C 213.5,103.5 214.5,103.5 215.5,103.5C 215.5,108.833 215.5,114.167 215.5,119.5C 214.5,119.5 213.5,119.5 212.5,119.5C 211.176,127.432 210.509,135.432 210.5,143.5C 209.5,143.5 208.5,143.5 207.5,143.5C 207.5,146.167 207.5,148.833 207.5,151.5C 206.5,151.5 205.5,151.5 204.5,151.5C 204.5,154.167 204.5,156.833 204.5,159.5C 202.833,159.5 201.167,159.5 199.5,159.5C 199.5,162.167 199.5,164.833 199.5,167.5C 197.833,167.5 196.167,167.5 194.5,167.5C 194.5,170.167 194.5,172.833 194.5,175.5C 192.5,175.5 190.5,175.5 188.5,175.5C 188.5,178.167 188.5,180.833 188.5,183.5C 186.833,183.5 185.167,183.5 183.5,183.5C 183.5,185.167 183.5,186.833 183.5,188.5C 180.833,188.5 178.167,188.5 175.5,188.5C 175.5,190.5 175.5,192.5 175.5,194.5C 172.833,194.5 170.167,194.5 167.5,194.5C 167.5,196.167 167.5,197.833 167.5,199.5C 164.833,199.5 162.167,199.5 159.5,199.5C 159.5,201.167 159.5,202.833 159.5,204.5C 156.833,204.5 154.167,204.5 151.5,204.5C 151.5,205.5 151.5,206.5 151.5,207.5C 148.833,207.5 146.167,207.5 143.5,207.5C 143.5,208.5 143.5,209.5 143.5,210.5C 135.568,211.824 127.568,212.491 119.5,212.5C 119.5,213.5 119.5,214.5 119.5,215.5C 114.167,215.5 108.833,215.5 103.5,215.5C 103.5,214.5 103.5,213.5 103.5,212.5C 95.5682,211.176 87.5682,210.509 79.5,210.5C 79.5,209.5 79.5,208.5 79.5,207.5C 76.8333,207.5 74.1667,207.5 71.5,207.5C 71.5,205.833 71.5,204.167 71.5,202.5C 68.8333,202.5 66.1667,202.5 63.5,202.5C 63.5,201.5 63.5,200.5 63.5,199.5C 60.8333,199.5 58.1667,199.5 55.5,199.5C 55.5,197.833 55.5,196.167 55.5,194.5C 52.8333,194.5 50.1667,194.5 47.5,194.5C 47.5,191.833 47.5,189.167 47.5,186.5C 44.8333,186.5 42.1667,186.5 39.5,186.5C 39.5,185.5 39.5,184.5 39.5,183.5C 38.5,183.5 37.5,183.5 36.5,183.5C 36.5,180.833 36.5,178.167 36.5,175.5C 34.8333,175.5 33.1667,175.5 31.5,175.5C 31.5,172.833 31.5,170.167 31.5,167.5C 28.8333,167.5 26.1667,167.5 23.5,167.5C 23.5,164.833 23.5,162.167 23.5,159.5C 22.5,159.5 21.5,159.5 20.5,159.5C 20.5,156.833 20.5,154.167 20.5,151.5C 18.8333,151.5 17.1667,151.5 15.5,151.5C 15.5,148.833 15.5,146.167 15.5,143.5C 14.5,143.5 13.5,143.5 12.5,143.5C 11.8353,132.844 11.1686,122.177 10.5,111.5C 11.1686,100.823 11.8353,90.1564 12.5,79.5C 13.5,79.5 14.5,79.5 15.5,79.5C 15.5,76.8333 15.5,74.1667 15.5,71.5C 17.1667,71.5 18.8333,71.5 20.5,71.5C 20.5,68.8333 20.5,66.1667 20.5,63.5C 21.5,63.5 22.5,63.5 23.5,63.5C 23.5,60.8333 23.5,58.1667 23.5,55.5C 26.1667,55.5 28.8333,55.5 31.5,55.5C 31.5,52.8333 31.5,50.1667 31.5,47.5C 34.1667,47.5 36.8333,47.5 39.5,47.5 Z"/></g>
<g><path style="opacity:1" fill="#b95767" d="M 183.5,75.5 C 183.5,75.1667 183.5,74.8333 183.5,74.5C 188.452,71.4537 190.452,72.787 189.5,78.5C 185.857,80.3948 183.857,79.3948 183.5,75.5 Z"/></g>
<g><path style="opacity:1" fill="#f8f4f3" d="M 119.5,76.5 C 119.804,77.1499 120.137,77.8165 120.5,78.5C 117.701,86.0296 115.368,93.6963 113.5,101.5C 112.833,101.5 112.167,101.5 111.5,101.5C 103.174,102.249 94.8403,102.916 86.5,103.5C 88.2599,95.2934 90.2599,87.1268 92.5,79C 92.472,77.9302 92.1386,77.0968 91.5,76.5C 95.4451,75.1745 99.7784,74.5079 104.5,74.5C 108.833,74.6667 113.167,74.8333 117.5,75C 118.044,75.7172 118.711,76.2172 119.5,76.5 Z"/></g>
<g><path style="opacity:1" fill="#f9f4f4" d="M 79.5,74.5 C 83.162,74.0339 86.4954,74.7006 89.5,76.5C 90.0629,82.3274 87.7296,86.4941 82.5,89C 83.7932,89.49 85.1266,89.6567 86.5,89.5C 86.1667,92.1667 85.8333,94.8333 85.5,97.5C 84.4548,99.7701 83.1214,101.77 81.5,103.5C 72.7663,104.135 64.4329,103.468 56.5,101.5C 56.5,100.5 56.5,99.5 56.5,98.5C 59.2497,92.5321 61.2497,86.1987 62.5,79.5C 62.4573,78.5836 62.1239,77.9169 61.5,77.5C 61.5858,76.5041 61.2524,75.6708 60.5,75C 66.8246,74.5005 73.1579,74.3338 79.5,74.5 Z"/></g>
<g><path style="opacity:1" fill="#991f28" d="M 89.5,76.5 C 90.1667,76.5 90.8333,76.5 91.5,76.5C 92.1386,77.0968 92.472,77.9302 92.5,79C 90.2599,87.1268 88.2599,95.2934 86.5,103.5C 94.8403,102.916 103.174,102.249 111.5,101.5C 110.129,102.787 108.295,103.453 106,103.5C 99.186,104.254 92.3526,104.588 85.5,104.5C 85.5,102.167 85.5,99.8333 85.5,97.5C 85.8333,94.8333 86.1667,92.1667 86.5,89.5C 85.1266,89.6567 83.7932,89.49 82.5,89C 87.7296,86.4941 90.0629,82.3274 89.5,76.5 Z"/></g>
<g><path style="opacity:1" fill="#b5727a" d="M 100.5,82.5 C 103.687,81.1944 107.02,81.1944 110.5,82.5C 110.376,83.1067 110.043,83.44 109.5,83.5C 106.713,82.5233 103.713,82.19 100.5,82.5 Z"/></g>
<g><path style="opacity:1" fill="#982533" d="M 70.5,82.5 C 73.1873,82.3359 75.854,82.5026 78.5,83C 76.6277,85.9439 73.961,87.1105 70.5,86.5C 70.5,85.1667 70.5,83.8333 70.5,82.5 Z"/></g>
<g><path style="opacity:1" fill="#f8f5f5" d="M 147.5,75.5 C 148.5,76.1667 149.5,76.8333 150.5,77.5C 150.586,78.4959 150.252,79.3292 149.5,80C 143.319,80.1724 137.319,80.6724 131.5,81.5C 130.596,82.209 130.263,83.209 130.5,84.5C 135.032,84.8182 139.366,84.4849 143.5,83.5C 145.288,83.2148 146.955,83.5481 148.5,84.5C 146.833,89.1667 145.167,93.8333 143.5,98.5C 134.546,99.9552 125.546,100.955 116.5,101.5C 116.665,99.1732 117.331,97.0065 118.5,95C 124.435,93.7614 130.435,93.2614 136.5,93.5C 136.5,92.5 136.5,91.5 136.5,90.5C 130.804,90.447 125.138,90.7803 119.5,91.5C 120.708,86.5417 121.708,81.5417 122.5,76.5C 130.65,75.5073 138.983,75.1739 147.5,75.5 Z"/></g>
<g><path style="opacity:1" fill="#9d1c2b" d="M 121.5,75.5 C 121.5,76.1667 121.833,76.5 122.5,76.5C 121.708,81.5417 120.708,86.5417 119.5,91.5C 125.138,90.7803 130.804,90.447 136.5,90.5C 136.5,91.5 136.5,92.5 136.5,93.5C 130.435,93.2614 124.435,93.7614 118.5,95C 117.331,97.0065 116.665,99.1732 116.5,101.5C 125.546,100.955 134.546,99.9552 143.5,98.5C 145.167,93.8333 146.833,89.1667 148.5,84.5C 146.955,83.5481 145.288,83.2148 143.5,83.5C 139.029,84.0894 135.029,83.4228 131.5,81.5C 137.319,80.6724 143.319,80.1724 149.5,80C 150.252,79.3292 150.586,78.4959 150.5,77.5C 150.5,76.8333 150.833,76.5 151.5,76.5C 151.833,76.5 152.167,76.5 152.5,76.5C 153.097,76.7352 153.43,77.2352 153.5,78C 152.068,81.461 150.735,84.961 149.5,88.5C 155.463,89.4959 161.463,89.8293 167.5,89.5C 167.5,90.5 167.5,91.5 167.5,92.5C 161.132,92.1703 154.798,92.5037 148.5,93.5C 147.873,94.4168 147.539,95.4168 147.5,96.5C 146.596,97.209 146.263,98.209 146.5,99.5C 155.5,99.5 164.5,99.5 173.5,99.5C 173.158,100.338 172.492,100.672 171.5,100.5C 162.303,99.9 153.303,100.567 144.5,102.5C 143.784,101.689 142.95,101.022 142,100.5C 132.92,101.111 123.92,102.111 115,103.5C 114.722,102.584 114.222,101.918 113.5,101.5C 115.368,93.6963 117.701,86.0296 120.5,78.5C 120.137,77.8165 119.804,77.1499 119.5,76.5C 119.842,75.6618 120.508,75.3284 121.5,75.5 Z"/></g>
<g><path style="opacity:1" fill="#e0acb4" d="M 131.5,81.5 C 135.029,83.4228 139.029,84.0894 143.5,83.5C 139.366,84.4849 135.032,84.8182 130.5,84.5C 130.263,83.209 130.596,82.209 131.5,81.5 Z"/></g>
<g><path style="opacity:1" fill="#faf9f8" d="M 152.5,76.5 C 160.984,75.507 169.651,75.1736 178.5,75.5C 180.213,76.6354 180.88,78.302 180.5,80.5C 173.833,80.5 167.167,80.5 160.5,80.5C 160.5,81.5 160.5,82.5 160.5,83.5C 166.537,83.1707 172.537,83.5041 178.5,84.5C 176.758,88.7246 175.425,93.058 174.5,97.5C 169.913,98.1399 165.247,98.4732 160.5,98.5C 155.778,98.4921 151.445,97.8255 147.5,96.5C 147.539,95.4168 147.873,94.4168 148.5,93.5C 154.798,92.5037 161.132,92.1703 167.5,92.5C 167.5,91.5 167.5,90.5 167.5,89.5C 161.463,89.8293 155.463,89.4959 149.5,88.5C 150.735,84.961 152.068,81.461 153.5,78C 153.43,77.2352 153.097,76.7352 152.5,76.5 Z"/></g>
<g><path style="opacity:1" fill="#b50d30" d="M 100.5,82.5 C 103.713,82.19 106.713,82.5233 109.5,83.5C 108.5,87.5007 107.5,91.5007 106.5,95.5C 103.5,95.5 100.5,95.5 97.5,95.5C 98.6274,91.1965 99.6274,86.8631 100.5,82.5 Z"/></g>
<g><path style="opacity:1" fill="#861620" d="M 61.5,77.5 C 62.1239,77.9169 62.4573,78.5836 62.5,79.5C 61.2497,86.1987 59.2497,92.5321 56.5,98.5C 57.965,91.4412 59.6317,84.4412 61.5,77.5 Z"/></g>
<g><path style="opacity:1" fill="#90071b" d="M 67.5,93.5 C 70.5,93.5 73.5,93.5 76.5,93.5C 76.5,94.5 76.5,95.5 76.5,96.5C 73.5,96.5 70.5,96.5 67.5,96.5C 67.5,95.5 67.5,94.5 67.5,93.5 Z"/></g>
<g><path style="opacity:1" fill="#b37a7e" d="M 147.5,96.5 C 151.445,97.8255 155.778,98.4921 160.5,98.5C 165.247,98.4732 169.913,98.1399 174.5,97.5C 174.672,98.4916 174.338,99.1583 173.5,99.5C 164.5,99.5 155.5,99.5 146.5,99.5C 146.263,98.209 146.596,97.209 147.5,96.5 Z"/></g>
<g><path style="opacity:1" fill="#b20f31" d="M 85.5,97.5 C 85.5,99.8333 85.5,102.167 85.5,104.5C 92.3526,104.588 99.186,104.254 106,103.5C 108.295,103.453 110.129,102.787 111.5,101.5C 112.167,101.5 112.833,101.5 113.5,101.5C 114.222,101.918 114.722,102.584 115,103.5C 123.92,102.111 132.92,101.111 142,100.5C 142.95,101.022 143.784,101.689 144.5,102.5C 153.303,100.567 162.303,99.9 171.5,100.5C 169.249,101.411 167.249,102.744 165.5,104.5C 156.105,103.862 147.105,104.529 138.5,106.5C 138.5,107.167 138.167,107.5 137.5,107.5C 137.389,106.883 137.056,106.383 136.5,106C 134.19,105.503 131.857,105.337 129.5,105.5C 127.68,112.447 126.013,119.447 124.5,126.5C 122.396,126.799 120.396,126.466 118.5,125.5C 120.644,119.256 122.31,112.923 123.5,106.5C 120.552,106.223 117.719,106.556 115,107.5C 113.266,113.536 111.432,119.536 109.5,125.5C 107.955,126.452 106.288,126.785 104.5,126.5C 105.753,120.404 107.42,114.404 109.5,108.5C 105.5,107.167 101.5,107.167 97.5,108.5C 98.3829,109.548 99.0496,110.715 99.5,112C 97.1905,118.427 95.1905,124.927 93.5,131.5C 92.8333,131.5 92.5,131.833 92.5,132.5C 91.375,133.348 91.375,134.348 92.5,135.5C 91.1667,135.167 89.8333,134.833 88.5,134.5C 88.5,134.167 88.5,133.833 88.5,133.5C 89.1667,133.5 89.5,133.167 89.5,132.5C 92.3601,125.415 94.5267,118.082 96,110.5C 90.8027,108.58 85.3027,107.913 79.5,108.5C 80.9488,106.836 82.9488,106.002 85.5,106C 74.8937,106.402 64.227,106.069 53.5,105C 54.1319,102.585 55.1319,100.418 56.5,98.5C 56.5,99.5 56.5,100.5 56.5,101.5C 55.596,102.209 55.2627,103.209 55.5,104.5C 64.3494,104.826 73.0161,104.493 81.5,103.5C 83.1214,101.77 84.4548,99.7701 85.5,97.5 Z"/></g>
<g><path style="opacity:1" fill="#9a494f" d="M 56.5,101.5 C 64.4329,103.468 72.7663,104.135 81.5,103.5C 73.0161,104.493 64.3494,104.826 55.5,104.5C 55.2627,103.209 55.596,102.209 56.5,101.5 Z"/></g>
<g><path style="opacity:1" fill="#f8f5f5" d="M 39.5,107.5 C 47.8201,108.307 56.1535,109.14 64.5,110C 65.5742,110.739 66.2409,111.739 66.5,113C 64.7253,117.043 63.392,121.21 62.5,125.5C 55.7453,124.877 49.412,125.544 43.5,127.5C 42.7793,132.79 40.446,137.124 36.5,140.5C 33.0127,141.745 30.0127,143.745 27.5,146.5C 26.9569,146.44 26.6236,146.107 26.5,145.5C 29.2835,140.817 31.2835,135.817 32.5,130.5C 36.6444,123.733 38.3111,116.399 37.5,108.5C 37.9569,107.702 38.6236,107.369 39.5,107.5 Z"/></g>
<g><path style="opacity:1" fill="#f8f6f5" d="M 79.5,108.5 C 85.3027,107.913 90.8027,108.58 96,110.5C 94.5267,118.082 92.3601,125.415 89.5,132.5C 80.6506,132.826 71.9839,132.493 63.5,131.5C 63.5,131.167 63.5,130.833 63.5,130.5C 65.1925,124.59 67.1925,118.756 69.5,113C 69.2409,111.739 68.5742,110.739 67.5,110C 71.6877,109.824 75.6877,109.324 79.5,108.5 Z"/></g>
<g><path style="opacity:1" fill="#f9f5f5" d="M 195.5,145.5 C 195.565,145.938 195.399,146.272 195,146.5C 193.629,144.959 192.129,143.625 190.5,142.5C 184.193,139.562 181.193,134.562 181.5,127.5C 181.5,125.833 181.5,124.167 181.5,122.5C 179.265,122.205 177.265,122.539 175.5,123.5C 175.5,123.833 175.5,124.167 175.5,124.5C 175.072,127.785 174.072,130.785 172.5,133.5C 169.833,133.5 167.167,133.5 164.5,133.5C 165.677,127.127 167.01,120.794 168.5,114.5C 170.514,111.564 170.848,108.397 169.5,105C 178.599,104.293 187.599,104.959 196.5,107C 197.293,108.085 197.96,109.252 198.5,110.5C 197.033,114.069 195.866,117.736 195,121.5C 193.951,123.107 192.451,123.773 190.5,123.5C 190.109,131.32 191.775,138.653 195.5,145.5 Z"/></g>
<g><path style="opacity:1" fill="#a22534" d="M 178.5,112.5 C 181.85,112.335 185.183,112.502 188.5,113C 187.663,114.011 187.33,115.178 187.5,116.5C 184.5,116.5 181.5,116.5 178.5,116.5C 178.5,115.167 178.5,113.833 178.5,112.5 Z"/></g>
<g><path style="opacity:1" fill="#f8f5f5" d="M 165.5,104.5 C 167.262,105.262 168.262,106.596 168.5,108.5C 168.196,109.15 167.863,109.817 167.5,110.5C 161.202,111.496 154.868,111.83 148.5,111.5C 148.5,112.5 148.5,113.5 148.5,114.5C 154.537,114.171 160.537,114.504 166.5,115.5C 165.423,117.729 164.756,120.063 164.5,122.5C 158.167,122.5 151.833,122.5 145.5,122.5C 145.5,123.5 145.5,124.5 145.5,125.5C 151.167,125.5 156.833,125.5 162.5,125.5C 162.326,127.861 161.993,130.194 161.5,132.5C 152.833,132.5 144.167,132.5 135.5,132.5C 135.5,131.167 135.5,129.833 135.5,128.5C 136.956,122.129 138.623,115.795 140.5,109.5C 140.547,107.962 139.88,106.962 138.5,106.5C 147.105,104.529 156.105,103.862 165.5,104.5 Z"/></g>
<g><path style="opacity:1" fill="#9c0f21" d="M 46.5,115.5 C 49.8984,115.18 53.2317,115.513 56.5,116.5C 56.1667,117.167 55.8333,117.833 55.5,118.5C 52.5719,119.484 49.5719,119.817 46.5,119.5C 46.5,118.167 46.5,116.833 46.5,115.5 Z"/></g>
<g><path style="opacity:1" fill="#af0b2f" d="M 77.5,115.5 C 80.5719,115.183 83.5719,115.516 86.5,116.5C 85.0886,119.986 83.7553,123.486 82.5,127C 79.4459,127.821 76.4459,127.655 73.5,126.5C 75.2378,122.951 76.5711,119.284 77.5,115.5 Z"/></g>
<g><path style="opacity:1" fill="#f9f7f7" d="M 137.5,107.5 C 136.117,115.65 134.117,123.65 131.5,131.5C 131.5,131.833 131.5,132.167 131.5,132.5C 118.656,132.829 105.989,132.495 93.5,131.5C 95.1905,124.927 97.1905,118.427 99.5,112C 99.0496,110.715 98.3829,109.548 97.5,108.5C 101.5,107.167 105.5,107.167 109.5,108.5C 107.42,114.404 105.753,120.404 104.5,126.5C 106.288,126.785 107.955,126.452 109.5,125.5C 111.432,119.536 113.266,113.536 115,107.5C 117.719,106.556 120.552,106.223 123.5,106.5C 122.31,112.923 120.644,119.256 118.5,125.5C 120.396,126.466 122.396,126.799 124.5,126.5C 126.013,119.447 127.68,112.447 129.5,105.5C 131.857,105.337 134.19,105.503 136.5,106C 137.056,106.383 137.389,106.883 137.5,107.5 Z"/></g>
<g><path style="opacity:1" fill="#a40f26" d="M 168.5,108.5 C 168.954,110.259 168.954,112.259 168.5,114.5C 167.01,120.794 165.677,127.127 164.5,133.5C 167.167,133.5 169.833,133.5 172.5,133.5C 172.389,134.117 172.056,134.617 171.5,135C 167.833,135.937 164.499,135.437 161.5,133.5C 161.5,133.167 161.5,132.833 161.5,132.5C 161.993,130.194 162.326,127.861 162.5,125.5C 156.833,125.5 151.167,125.5 145.5,125.5C 145.5,124.5 145.5,123.5 145.5,122.5C 151.833,122.5 158.167,122.5 164.5,122.5C 164.756,120.063 165.423,117.729 166.5,115.5C 160.537,114.504 154.537,114.171 148.5,114.5C 148.5,113.5 148.5,112.5 148.5,111.5C 154.868,111.83 161.202,111.496 167.5,110.5C 167.863,109.817 168.196,109.15 168.5,108.5 Z"/></g>
<g><path style="opacity:1" fill="#b47a7d" d="M 175.5,123.5 C 177.265,122.539 179.265,122.205 181.5,122.5C 181.5,124.167 181.5,125.833 181.5,127.5C 180.566,126.432 180.232,125.099 180.5,123.5C 178.833,123.5 177.167,123.5 175.5,123.5 Z"/></g>
<g><path style="opacity:1" fill="#b26f74" d="M 62.5,125.5 C 56.2671,126.203 49.9338,126.87 43.5,127.5C 49.412,125.544 55.7453,124.877 62.5,125.5 Z"/></g>
<g><path style="opacity:1" fill="#b20536" d="M 183.5,74.5 C 183.5,74.8333 183.5,75.1667 183.5,75.5C 182.71,76.6085 182.21,77.9419 182,79.5C 181.556,76.3892 180.223,73.7225 178,71.5C 176.955,72.3734 176.122,73.3734 175.5,74.5C 170.167,74.5 164.833,74.5 159.5,74.5C 158.77,72.955 157.437,72.1216 155.5,72C 156.793,71.51 158.127,71.3433 159.5,71.5C 159.5,68.8333 159.5,66.1667 159.5,63.5C 154.167,63.5 148.833,63.5 143.5,63.5C 143.5,61.8333 143.5,60.1667 143.5,58.5C 140.833,58.5 138.167,58.5 135.5,58.5C 135.5,57.5 135.5,56.5 135.5,55.5C 132.833,55.5 130.167,55.5 127.5,55.5C 127.5,53.8333 127.5,52.1667 127.5,50.5C 116.833,50.5 106.167,50.5 95.5,50.5C 95.5,52.1667 95.5,53.8333 95.5,55.5C 92.8333,55.5 90.1667,55.5 87.5,55.5C 87.5,56.5 87.5,57.5 87.5,58.5C 84.8333,58.5 82.1667,58.5 79.5,58.5C 79.5,60.1667 79.5,61.8333 79.5,63.5C 76.8333,63.5 74.1667,63.5 71.5,63.5C 71.5,66.1667 71.5,68.8333 71.5,71.5C 68.4281,71.1826 65.4281,71.5159 62.5,72.5C 62.6667,72.8333 62.8333,73.1667 63,73.5C 68.6402,72.4794 74.1402,72.8128 79.5,74.5C 73.1579,74.3338 66.8246,74.5005 60.5,75C 61.2524,75.6708 61.5858,76.5041 61.5,77.5C 59.6317,84.4412 57.965,91.4412 56.5,98.5C 55.1319,100.418 54.1319,102.585 53.5,105C 64.227,106.069 74.8937,106.402 85.5,106C 82.9488,106.002 80.9488,106.836 79.5,108.5C 75.6877,109.324 71.6877,109.824 67.5,110C 68.5742,110.739 69.2409,111.739 69.5,113C 67.1925,118.756 65.1925,124.59 63.5,130.5C 60.9162,131.048 59.9162,132.715 60.5,135.5C 64.5,135.5 68.5,135.5 72.5,135.5C 72.5394,136.583 72.8728,137.583 73.5,138.5C 70.5011,141.448 70.8345,142.448 74.5,141.5C 75.9516,140.698 77.6183,140.198 79.5,140C 74.226,139.187 74.226,138.687 79.5,138.5C 82.3314,138.541 84.998,139.208 87.5,140.5C 86.675,141.386 85.675,141.719 84.5,141.5C 84.5,142.833 84.5,144.167 84.5,145.5C 86.6056,145.679 88.2723,146.679 89.5,148.5C 88.91,149.799 87.91,150.632 86.5,151C 87.4438,153.719 87.7771,156.552 87.5,159.5C 84.8333,159.5 82.1667,159.5 79.5,159.5C 79.5,161.167 79.5,162.833 79.5,164.5C 82.1667,164.5 84.8333,164.5 87.5,164.5C 87.5,165.5 87.5,166.5 87.5,167.5C 90.1667,167.5 92.8333,167.5 95.5,167.5C 95.5,169.167 95.5,170.833 95.5,172.5C 106.167,172.5 116.833,172.5 127.5,172.5C 127.5,170.833 127.5,169.167 127.5,167.5C 132.833,167.5 138.167,167.5 143.5,167.5C 143.334,161.491 143.501,155.491 144,149.5C 144.985,147.825 145.819,146.158 146.5,144.5C 146.5,145.833 146.5,147.167 146.5,148.5C 148.966,149.634 151.633,149.801 154.5,149C 155.252,148.329 155.586,147.496 155.5,146.5C 156.301,144.958 156.634,143.292 156.5,141.5C 152.821,141.06 149.488,141.727 146.5,143.5C 145.993,142.141 144.993,141.141 143.5,140.5C 144,140.167 144.5,139.833 145,139.5C 149.795,138.746 154.628,138.246 159.5,138C 155.238,136.312 150.905,136.145 146.5,137.5C 144.36,137.444 142.694,136.777 141.5,135.5C 147.509,135.666 153.509,135.499 159.5,135C 160.056,134.617 160.389,134.117 160.5,133.5C 160.833,133.5 161.167,133.5 161.5,133.5C 164.499,135.437 167.833,135.937 171.5,135C 172.056,134.617 172.389,134.117 172.5,133.5C 174.072,130.785 175.072,127.785 175.5,124.5C 176.833,124.5 178.167,124.5 179.5,124.5C 179.586,128.857 179.92,133.19 180.5,137.5C 180.131,139.441 179.464,141.275 178.5,143C 180.134,143.494 181.801,143.66 183.5,143.5C 183.5,146.167 183.5,148.833 183.5,151.5C 182.167,151.5 180.833,151.5 179.5,151.5C 179.5,154.167 179.5,156.833 179.5,159.5C 178.167,159.5 176.833,159.5 175.5,159.5C 175.5,162.167 175.5,164.833 175.5,167.5C 172.833,167.5 170.167,167.5 167.5,167.5C 167.5,170.167 167.5,172.833 167.5,175.5C 164.833,175.5 162.167,175.5 159.5,175.5C 159.5,178.167 159.5,180.833 159.5,183.5C 154.167,183.5 148.833,183.5 143.5,183.5C 143.5,184.833 143.5,186.167 143.5,187.5C 140.833,187.5 138.167,187.5 135.5,187.5C 135.5,188.833 135.5,190.167 135.5,191.5C 119.5,191.5 103.5,191.5 87.5,191.5C 87.5,190.167 87.5,188.833 87.5,187.5C 84.8333,187.5 82.1667,187.5 79.5,187.5C 79.5,186.167 79.5,184.833 79.5,183.5C 74.1667,183.5 68.8333,183.5 63.5,183.5C 63.5,180.833 63.5,178.167 63.5,175.5C 60.8333,175.5 58.1667,175.5 55.5,175.5C 55.5,172.833 55.5,170.167 55.5,167.5C 52.8333,167.5 50.1667,167.5 47.5,167.5C 47.5,162.167 47.5,156.833 47.5,151.5C 44.8333,151.5 42.1667,151.5 39.5,151.5C 39.3218,148.121 39.3218,144.955 39.5,142C 38.451,141.508 37.451,141.674 36.5,142.5C 35.537,142.03 35.537,141.363 36.5,140.5C 40.446,137.124 42.7793,132.79 43.5,127.5C 49.9338,126.87 56.2671,126.203 62.5,125.5C 63.392,121.21 64.7253,117.043 66.5,113C 66.2409,111.739 65.5742,110.739 64.5,110C 56.1535,109.14 47.8201,108.307 39.5,107.5C 38.548,106.548 37.548,105.548 36.5,104.5C 35.1667,105.167 33.8333,105.833 32.5,106.5C 31.3961,105.369 31.7295,104.535 33.5,104C 31.5798,98.8027 30.9132,93.3027 31.5,87.5C 34.1667,87.5 36.8333,87.5 39.5,87.5C 39.5,82.1667 39.5,76.8333 39.5,71.5C 42.1667,71.5 44.8333,71.5 47.5,71.5C 47.5,66.1667 47.5,60.8333 47.5,55.5C 50.1667,55.5 52.8333,55.5 55.5,55.5C 55.5,52.8333 55.5,50.1667 55.5,47.5C 60.8333,47.5 66.1667,47.5 71.5,47.5C 71.5,44.8333 71.5,42.1667 71.5,39.5C 76.8333,39.5 82.1667,39.5 87.5,39.5C 87.5,36.8333 87.5,34.1667 87.5,31.5C 106.167,31.5 124.833,31.5 143.5,31.5C 143.5,34.1667 143.5,36.8333 143.5,39.5C 146.167,39.5 148.833,39.5 151.5,39.5C 151.5,42.1667 151.5,44.8333 151.5,47.5C 156.833,47.5 162.167,47.5 167.5,47.5C 167.5,50.1667 167.5,52.8333 167.5,55.5C 170.167,55.5 172.833,55.5 175.5,55.5C 175.5,58.1667 175.5,60.8333 175.5,63.5C 176.833,63.5 178.167,63.5 179.5,63.5C 179.335,66.5184 179.502,69.5184 180,72.5C 180.414,72.9574 180.914,73.2907 181.5,73.5C 183.005,70.8694 183.671,71.2027 183.5,74.5 Z"/></g>
<g><path style="opacity:1" fill="#dfa0ae" d="M 159.5,74.5 C 164.833,74.5 170.167,74.5 175.5,74.5C 176.791,74.2627 177.791,74.596 178.5,75.5C 169.651,75.1736 160.984,75.507 152.5,76.5C 152.167,76.5 151.833,76.5 151.5,76.5C 153.635,74.631 156.302,73.9644 159.5,74.5 Z"/></g>
<g><path style="opacity:1" fill="#b80437" d="M 159.5,74.5 C 156.302,73.9644 153.635,74.631 151.5,76.5C 150.833,76.5 150.5,76.8333 150.5,77.5C 149.5,76.8333 148.5,76.1667 147.5,75.5C 138.833,74.1667 130.167,74.1667 121.5,75.5C 120.508,75.3284 119.842,75.6618 119.5,76.5C 118.711,76.2172 118.044,75.7172 117.5,75C 113.167,74.8333 108.833,74.6667 104.5,74.5C 99.7784,74.5079 95.4451,75.1745 91.5,76.5C 90.8333,76.5 90.1667,76.5 89.5,76.5C 86.4954,74.7006 83.162,74.0339 79.5,74.5C 74.1402,72.8128 68.6402,72.4794 63,73.5C 62.8333,73.1667 62.6667,72.8333 62.5,72.5C 65.4281,71.5159 68.4281,71.1826 71.5,71.5C 71.5,68.8333 71.5,66.1667 71.5,63.5C 74.1667,63.5 76.8333,63.5 79.5,63.5C 79.5,61.8333 79.5,60.1667 79.5,58.5C 82.1667,58.5 84.8333,58.5 87.5,58.5C 87.5,57.5 87.5,56.5 87.5,55.5C 90.1667,55.5 92.8333,55.5 95.5,55.5C 95.5,53.8333 95.5,52.1667 95.5,50.5C 106.167,50.5 116.833,50.5 127.5,50.5C 127.5,52.1667 127.5,53.8333 127.5,55.5C 130.167,55.5 132.833,55.5 135.5,55.5C 135.5,56.5 135.5,57.5 135.5,58.5C 138.167,58.5 140.833,58.5 143.5,58.5C 143.5,60.1667 143.5,61.8333 143.5,63.5C 148.833,63.5 154.167,63.5 159.5,63.5C 159.5,66.1667 159.5,68.8333 159.5,71.5C 158.127,71.3433 156.793,71.51 155.5,72C 157.437,72.1216 158.77,72.955 159.5,74.5 Z"/></g>
<g><path style="opacity:1" fill="#e9a1ad" d="M 147.5,75.5 C 138.983,75.1739 130.65,75.5073 122.5,76.5C 121.833,76.5 121.5,76.1667 121.5,75.5C 130.167,74.1667 138.833,74.1667 147.5,75.5 Z"/></g>
<g><path style="opacity:1" fill="#dcc5c1" d="M 63.5,131.5 C 71.9839,132.493 80.6506,132.826 89.5,132.5C 89.5,133.167 89.1667,133.5 88.5,133.5C 79.8078,133.831 71.1411,133.498 62.5,132.5C 62.6236,131.893 62.9569,131.56 63.5,131.5 Z"/></g>
<g><path style="opacity:1" fill="#dec3c0" d="M 93.5,131.5 C 105.989,132.495 118.656,132.829 131.5,132.5C 131.5,133.167 131.167,133.5 130.5,133.5C 117.656,133.829 104.989,133.495 92.5,132.5C 92.5,131.833 92.8333,131.5 93.5,131.5 Z"/></g>
<g><path style="opacity:1" fill="#e0c7c2" d="M 135.5,128.5 C 135.5,129.833 135.5,131.167 135.5,132.5C 144.167,132.5 152.833,132.5 161.5,132.5C 161.5,132.833 161.5,133.167 161.5,133.5C 161.167,133.5 160.833,133.5 160.5,133.5C 151.833,133.5 143.167,133.5 134.5,133.5C 134.216,131.585 134.549,129.919 135.5,128.5 Z"/></g>
<g><path style="opacity:1" fill="#8a0316" d="M 63.5,130.5 C 63.5,130.833 63.5,131.167 63.5,131.5C 62.9569,131.56 62.6236,131.893 62.5,132.5C 71.1411,133.498 79.8078,133.831 88.5,133.5C 88.5,133.833 88.5,134.167 88.5,134.5C 83.2599,135.449 77.9265,135.782 72.5,135.5C 68.5,135.5 64.5,135.5 60.5,135.5C 59.9162,132.715 60.9162,131.048 63.5,130.5 Z"/></g>
<g><path style="opacity:1" fill="#8f0316" d="M 92.5,132.5 C 104.989,133.495 117.656,133.829 130.5,133.5C 129.737,134.268 128.737,134.768 127.5,135C 115.838,135.5 104.171,135.667 92.5,135.5C 91.375,134.348 91.375,133.348 92.5,132.5 Z"/></g>
<g><path style="opacity:1" fill="#970b1e" d="M 138.5,106.5 C 139.88,106.962 140.547,107.962 140.5,109.5C 138.623,115.795 136.956,122.129 135.5,128.5C 134.549,129.919 134.216,131.585 134.5,133.5C 143.167,133.5 151.833,133.5 160.5,133.5C 160.389,134.117 160.056,134.617 159.5,135C 153.509,135.499 147.509,135.666 141.5,135.5C 138.5,135.5 135.5,135.5 132.5,135.5C 132.768,133.901 132.434,132.568 131.5,131.5C 134.117,123.65 136.117,115.65 137.5,107.5C 138.167,107.5 138.5,107.167 138.5,106.5 Z"/></g>
<g><path style="opacity:1" fill="#831620" d="M 175.5,124.5 C 175.5,124.167 175.5,123.833 175.5,123.5C 177.167,123.5 178.833,123.5 180.5,123.5C 180.232,125.099 180.566,126.432 181.5,127.5C 181.193,134.562 184.193,139.562 190.5,142.5C 190.557,143.609 190.89,144.609 191.5,145.5C 189.289,145.033 187.289,144.033 185.5,142.5C 184.145,140.479 182.479,138.812 180.5,137.5C 179.92,133.19 179.586,128.857 179.5,124.5C 178.167,124.5 176.833,124.5 175.5,124.5 Z"/></g>
<g><path style="opacity:1" fill="#b80636" d="M 131.5,131.5 C 132.434,132.568 132.768,133.901 132.5,135.5C 135.5,135.5 138.5,135.5 141.5,135.5C 142.694,136.777 144.36,137.444 146.5,137.5C 150.905,136.145 155.238,136.312 159.5,138C 154.628,138.246 149.795,138.746 145,139.5C 144.5,139.833 144,140.167 143.5,140.5C 144.993,141.141 145.993,142.141 146.5,143.5C 146.5,143.833 146.5,144.167 146.5,144.5C 145.819,146.158 144.985,147.825 144,149.5C 143.501,155.491 143.334,161.491 143.5,167.5C 138.167,167.5 132.833,167.5 127.5,167.5C 127.5,169.167 127.5,170.833 127.5,172.5C 116.833,172.5 106.167,172.5 95.5,172.5C 95.5,170.833 95.5,169.167 95.5,167.5C 92.8333,167.5 90.1667,167.5 87.5,167.5C 87.5,166.5 87.5,165.5 87.5,164.5C 84.8333,164.5 82.1667,164.5 79.5,164.5C 79.5,162.833 79.5,161.167 79.5,159.5C 82.1667,159.5 84.8333,159.5 87.5,159.5C 87.7771,156.552 87.4438,153.719 86.5,151C 87.91,150.632 88.91,149.799 89.5,148.5C 88.2723,146.679 86.6056,145.679 84.5,145.5C 84.5,144.167 84.5,142.833 84.5,141.5C 85.675,141.719 86.675,141.386 87.5,140.5C 84.998,139.208 82.3314,138.541 79.5,138.5C 74.226,138.687 74.226,139.187 79.5,140C 77.6183,140.198 75.9516,140.698 74.5,141.5C 70.8345,142.448 70.5011,141.448 73.5,138.5C 72.8728,137.583 72.5394,136.583 72.5,135.5C 77.9265,135.782 83.2599,135.449 88.5,134.5C 89.8333,134.833 91.1667,135.167 92.5,135.5C 104.171,135.667 115.838,135.5 127.5,135C 128.737,134.768 129.737,134.268 130.5,133.5C 131.167,133.5 131.5,133.167 131.5,132.5C 131.5,132.167 131.5,131.833 131.5,131.5 Z"/></g>
<g><path style="opacity:1" fill="#ab0336" d="M 180.5,137.5 C 182.479,138.812 184.145,140.479 185.5,142.5C 187.289,144.033 189.289,145.033 191.5,145.5C 191.238,146.978 191.571,148.311 192.5,149.5C 193.258,148.189 194.258,147.689 195.5,148C 194.845,149.487 193.845,150.653 192.5,151.5C 191.505,156.792 191.172,162.125 191.5,167.5C 188.833,167.5 186.167,167.5 183.5,167.5C 183.5,170.167 183.5,172.833 183.5,175.5C 180.833,175.5 178.167,175.5 175.5,175.5C 175.5,178.167 175.5,180.833 175.5,183.5C 172.833,183.5 170.167,183.5 167.5,183.5C 167.5,186.167 167.5,188.833 167.5,191.5C 162.167,191.5 156.833,191.5 151.5,191.5C 151.5,194.167 151.5,196.833 151.5,199.5C 143.5,199.5 135.5,199.5 127.5,199.5C 127.5,202.167 127.5,204.833 127.5,207.5C 119.5,207.5 111.5,207.5 103.5,207.5C 103.5,204.833 103.5,202.167 103.5,199.5C 92.8333,199.5 82.1667,199.5 71.5,199.5C 71.5,196.833 71.5,194.167 71.5,191.5C 66.1667,191.5 60.8333,191.5 55.5,191.5C 55.5,188.833 55.5,186.167 55.5,183.5C 52.8333,183.5 50.1667,183.5 47.5,183.5C 47.5,180.833 47.5,178.167 47.5,175.5C 44.8333,175.5 42.1667,175.5 39.5,175.5C 39.5,170.167 39.5,164.833 39.5,159.5C 36.8333,159.5 34.1667,159.5 31.5,159.5C 31.8174,156.428 31.4841,153.428 30.5,150.5C 29.914,150.709 29.414,151.043 29,151.5C 28.1192,149.726 26.9525,149.06 25.5,149.5C 26.1925,148.482 26.8592,147.482 27.5,146.5C 30.0127,143.745 33.0127,141.745 36.5,140.5C 35.537,141.363 35.537,142.03 36.5,142.5C 37.451,141.674 38.451,141.508 39.5,142C 39.3218,144.955 39.3218,148.121 39.5,151.5C 42.1667,151.5 44.8333,151.5 47.5,151.5C 47.5,156.833 47.5,162.167 47.5,167.5C 50.1667,167.5 52.8333,167.5 55.5,167.5C 55.5,170.167 55.5,172.833 55.5,175.5C 58.1667,175.5 60.8333,175.5 63.5,175.5C 63.5,178.167 63.5,180.833 63.5,183.5C 68.8333,183.5 74.1667,183.5 79.5,183.5C 79.5,184.833 79.5,186.167 79.5,187.5C 82.1667,187.5 84.8333,187.5 87.5,187.5C 87.5,188.833 87.5,190.167 87.5,191.5C 103.5,191.5 119.5,191.5 135.5,191.5C 135.5,190.167 135.5,188.833 135.5,187.5C 138.167,187.5 140.833,187.5 143.5,187.5C 143.5,186.167 143.5,184.833 143.5,183.5C 148.833,183.5 154.167,183.5 159.5,183.5C 159.5,180.833 159.5,178.167 159.5,175.5C 162.167,175.5 164.833,175.5 167.5,175.5C 167.5,172.833 167.5,170.167 167.5,167.5C 170.167,167.5 172.833,167.5 175.5,167.5C 175.5,164.833 175.5,162.167 175.5,159.5C 176.833,159.5 178.167,159.5 179.5,159.5C 179.5,156.833 179.5,154.167 179.5,151.5C 180.833,151.5 182.167,151.5 183.5,151.5C 183.5,148.833 183.5,146.167 183.5,143.5C 181.801,143.66 180.134,143.494 178.5,143C 179.464,141.275 180.131,139.441 180.5,137.5 Z"/></g>
<g><path style="opacity:1" fill="#cb9ea1" d="M 149.5,144.5 C 149.62,145.586 150.287,146.253 151.5,146.5C 152.739,146.058 153.739,145.391 154.5,144.5C 154.328,145.492 154.662,146.158 155.5,146.5C 155.586,147.496 155.252,148.329 154.5,149C 151.633,149.801 148.966,149.634 146.5,148.5C 148.857,148.663 151.19,148.497 153.5,148C 151.866,147.506 150.199,147.34 148.5,147.5C 148.263,146.209 148.596,145.209 149.5,144.5 Z"/></g>
<g><path style="opacity:1" fill="#c88c93" d="M 113.5,147.5 C 115.948,148.473 118.615,148.806 121.5,148.5C 118.645,149.803 115.645,149.803 112.5,148.5C 112.624,147.893 112.957,147.56 113.5,147.5 Z"/></g>
<g><path style="opacity:1" fill="#f0e4e0" d="M 94.5,141.5 C 95.4972,141.47 96.1639,141.97 96.5,143C 95.8524,144.44 95.5191,145.94 95.5,147.5C 97.1667,147.5 98.8333,147.5 100.5,147.5C 100.247,145.173 100.914,143.173 102.5,141.5C 104.125,148.866 101.125,151.532 93.5,149.5C 93.4013,146.763 93.7347,144.096 94.5,141.5 Z"/></g>
<g><path style="opacity:1" fill="#f3eee8" d="M 155.5,146.5 C 154.662,146.158 154.328,145.492 154.5,144.5C 152.833,143.167 151.167,143.167 149.5,144.5C 148.596,145.209 148.263,146.209 148.5,147.5C 150.199,147.34 151.866,147.506 153.5,148C 151.19,148.497 148.857,148.663 146.5,148.5C 146.5,147.167 146.5,145.833 146.5,144.5C 146.5,144.167 146.5,143.833 146.5,143.5C 149.488,141.727 152.821,141.06 156.5,141.5C 156.634,143.292 156.301,144.958 155.5,146.5 Z"/></g>
<g><path style="opacity:1" fill="#f7ebeb" d="M 134.5,141.5 C 135.586,141.62 136.253,142.287 136.5,143.5C 136.224,145.33 135.557,146.997 134.5,148.5C 133.637,146.229 133.637,143.895 134.5,141.5 Z"/></g>
<g><path style="opacity:1" fill="#9a061d" d="M 154.5,144.5 C 153.739,145.391 152.739,146.058 151.5,146.5C 150.287,146.253 149.62,145.586 149.5,144.5C 151.167,143.167 152.833,143.167 154.5,144.5 Z"/></g>
<g><path style="opacity:1" fill="#f0eae7" d="M 121.5,148.5 C 118.615,148.806 115.948,148.473 113.5,147.5C 113.357,145.738 113.691,144.071 114.5,142.5C 117.428,141.516 120.428,141.183 123.5,141.5C 123.59,144.152 122.924,146.485 121.5,148.5 Z"/></g>
<g><path style="opacity:1" fill="#ac313b" d="M 116.5,143.5 C 118.199,143.34 119.866,143.506 121.5,144C 120.663,145.011 120.33,146.178 120.5,147.5C 118.833,147.5 117.167,147.5 115.5,147.5C 115.433,146.041 115.766,144.708 116.5,143.5 Z"/></g>
<g><path style="opacity:1" fill="#ead7d4" d="M 74.5,141.5 C 77.5,141.5 80.5,141.5 83.5,141.5C 83.6104,144.059 82.9438,146.392 81.5,148.5C 79.1667,145.833 76.8333,145.833 74.5,148.5C 73.6365,146.229 73.6365,143.895 74.5,141.5 Z"/></g>
</svg>
