<?xml version="1.0" standalone="no"?>
<!DOCTYPE svg PUBLIC "-//W3C//DTD SVG 20010904//EN"
 "http://www.w3.org/TR/2001/REC-SVG-20010904/DTD/svg10.dtd">
<svg version="1.0" xmlns="http://www.w3.org/2000/svg"
 width="185.000000pt" height="148.000000pt" viewBox="0 0 185.000000 148.000000"
 preserveAspectRatio="xMidYMid meet">

<g transform="translate(0.000000,148.000000) scale(0.100000,-0.100000)"
fill="#000000" stroke="none">
<path d="M899 1333 c-44 -47 -77 -88 -104 -131 -1 -1 -39 23 -84 53 -45 30
-90 55 -99 55 -16 0 -69 -77 -86 -124 -5 -15 -13 -17 -44 -12 -20 3 -70 9
-109 13 l-73 6 0 -55 c0 -218 167 -405 430 -481 152 -44 225 -52 321 -33 198
39 331 99 424 190 91 90 145 209 145 324 l0 55 -78 -7 c-42 -3 -92 -10 -109
-15 -32 -9 -32 -9 -71 62 -21 40 -46 73 -55 75 -18 4 -126 -59 -153 -89 -25
-27 -36 -24 -61 19 -24 41 -120 152 -132 152 -5 0 -32 -26 -62 -57z m112 -89
c60 -81 90 -153 92 -221 l2 -58 -150 0 c-170 0 -162 -5 -144 91 15 79 113 242
146 244 7 0 31 -25 54 -56z m-312 -59 c63 -46 65 -51 55 -104 -8 -36 -23 -39
-50 -10 -10 12 -41 32 -69 46 -27 14 -51 27 -53 28 -6 5 38 85 47 85 5 0 36
-20 70 -45z m614 10 c23 -49 23 -52 -25 -76 -24 -12 -59 -35 -79 -50 l-37 -29
-11 47 c-8 29 -9 49 -3 55 21 21 118 87 128 88 6 0 18 -16 27 -35z m-768 -109
c64 -23 143 -75 164 -108 10 -17 1 -18 -144 -18 l-156 0 -14 34 c-20 46 -34
114 -26 122 11 11 108 -5 176 -30z m1002 -8 c-3 -24 -12 -60 -21 -80 l-16 -38
-155 0 c-85 0 -155 3 -155 7 0 4 16 21 36 40 64 58 194 110 283 112 l34 1 -6
-42z m-761 -220 c10 -24 38 -72 62 -107 24 -34 42 -65 39 -67 -10 -10 -181 42
-254 78 -77 37 -173 109 -173 129 0 5 67 9 153 9 l154 0 19 -42z m294 26 c0
-23 -63 -123 -97 -157 l-29 -27 -26 27 c-31 33 -98 143 -98 161 0 9 32 12 125
12 109 0 125 -2 125 -16z m380 7 c0 -14 -78 -79 -135 -112 -70 -41 -305 -114
-305 -95 0 3 21 39 48 79 26 41 55 89 64 106 l17 31 156 0 c88 0 155 -4 155
-9z"/>
<path d="M310 400 l0 -100 73 0 c43 0 78 5 85 12 17 17 15 58 -5 80 -13 14
-14 21 -5 30 17 17 15 44 -4 62 -11 11 -35 16 -80 16 l-64 0 0 -100z m115 45
c0 -16 -8 -21 -37 -23 -35 -3 -38 -1 -38 23 0 24 3 26 38 23 29 -2 37 -7 37
-23z m5 -70 c21 -26 4 -45 -40 -45 -38 0 -40 2 -40 30 0 27 3 30 34 30 18 0
39 -7 46 -15z"/>
<path d="M548 484 c-89 -48 -50 -184 52 -184 33 0 48 6 71 29 82 83 -20 212
-123 155z m97 -38 c42 -31 8 -116 -47 -116 -25 0 -68 44 -68 70 0 48 72 78
115 46z"/>
<path d="M725 476 c-21 -32 -7 -60 43 -84 42 -20 56 -52 22 -52 -12 0 -30 4
-40 10 -13 7 -21 5 -31 -6 -17 -21 -1 -34 50 -41 44 -6 67 6 81 42 11 29 -5
52 -50 75 -22 11 -40 24 -40 29 0 16 13 19 42 9 24 -8 32 -8 39 3 13 20 -17
39 -63 39 -29 0 -41 -6 -53 -24z"/>
<path d="M890 480 c-27 -27 -14 -59 38 -88 58 -32 57 -56 -2 -48 -35 6 -45 4
-50 -9 -13 -35 91 -48 124 -15 37 37 26 67 -37 99 -55 27 -57 46 -4 37 29 -4
40 -2 45 9 13 35 -81 48 -114 15z"/>
<path d="M1085 488 c-37 -20 -45 -40 -45 -115 0 -58 3 -73 15 -73 12 0 15 14
15 64 0 71 14 96 54 96 35 0 45 -20 48 -93 3 -56 6 -67 21 -67 15 0 17 10 17
71 0 65 -2 73 -29 100 -31 30 -62 36 -96 17z"/>
<path d="M1230 400 l0 -100 75 0 c59 0 75 3 75 15 0 10 -15 15 -57 17 -50 3
-58 6 -58 23 0 17 8 20 48 23 39 3 47 6 47 23 0 16 -7 19 -50 19 -45 0 -50 2
-47 22 3 18 10 21 58 22 43 1 54 5 57 19 3 15 -6 17 -72 17 l-76 0 0 -100z"/>
<path d="M1411 483 c8 -10 25 -30 39 -46 27 -31 27 -32 29 -94 1 -36 4 -43 21
-43 18 0 20 7 20 56 0 50 4 60 36 97 33 40 34 42 14 45 -13 2 -30 -6 -43 -22
-28 -32 -34 -32 -59 -1 -12 15 -30 25 -45 25 -23 0 -24 -2 -12 -17z"/>
<path d="M500 240 c-80 -4 -149 -9 -155 -11 -26 -8 219 -13 280 -6 45 6 115 4
197 -4 90 -9 221 -10 459 -5 183 4 335 9 338 11 2 3 2 7 -1 10 -8 8 -965 13
-1118 5z"/>
</g>
</svg>
