<?xml version="1.0" encoding="UTF-8"?>
<!DOCTYPE svg PUBLIC "-//W3C//DTD SVG 1.1//EN" "http://www.w3.org/Graphics/SVG/1.1/DTD/svg11.dtd">
<svg xmlns="http://www.w3.org/2000/svg" version="1.1" width="220px" height="230px" style="shape-rendering:geometricPrecision; text-rendering:geometricPrecision; image-rendering:optimizeQuality; fill-rule:evenodd; clip-rule:evenodd" xmlns:xlink="http://www.w3.org/1999/xlink">
<g><path style="opacity:1" fill="#fcfdfd" d="M -0.5,-0.5 C 72.8333,-0.5 146.167,-0.5 219.5,-0.5C 219.5,76.1667 219.5,152.833 219.5,229.5C 146.167,229.5 72.8333,229.5 -0.5,229.5C -0.5,152.833 -0.5,76.1667 -0.5,-0.5 Z"/></g>
<g><path style="opacity:1" fill="#126ab0" d="M 19.5,87.5 C 28.5062,87.3336 37.5062,87.5002 46.5,88C 52.6878,89.866 55.1878,94.0326 54,100.5C 52.138,105.194 49.3047,109.194 45.5,112.5C 51.5664,121.909 50.2331,130.409 41.5,138C 36.095,140.939 30.4283,141.772 24.5,140.5C 26.2896,136.342 27.2896,132.009 27.5,127.5C 32.1746,128.661 34.8413,126.994 35.5,122.5C 33.396,122.799 31.396,122.466 29.5,121.5C 30.8212,117.216 31.9878,112.883 33,108.5C 34.3988,107.773 35.8988,107.273 37.5,107C 38.8333,105.333 38.8333,103.667 37.5,102C 35.5273,101.505 33.5273,101.338 31.5,101.5C 28.7781,114.61 25.6114,127.61 22,140.5C 16.5538,141.806 11.0538,141.806 5.5,140.5C 10.4259,122.857 15.0926,105.19 19.5,87.5 Z"/></g>
<g><path style="opacity:1" fill="#136ab0" d="M 162.5,87.5 C 167.544,87.1725 172.544,87.5059 177.5,88.5C 174.625,101.333 171.125,113.999 167,126.5C 159.404,140.248 148.237,144.748 133.5,140C 130.894,138.062 129.061,135.562 128,132.5C 126.183,111.149 136.016,100.482 157.5,100.5C 155.856,105.744 154.522,111.077 153.5,116.5C 145.679,114.833 142.179,117.833 143,125.5C 145.209,127.706 147.709,128.04 150.5,126.5C 151.667,124.833 152.833,123.167 154,121.5C 156.83,110.18 159.663,98.8467 162.5,87.5 Z"/></g>
<g><path style="opacity:1" fill="#156ab1" d="M 70.5,101.5 C 74.5,101.5 78.5,101.5 82.5,101.5C 81.1701,106.475 79.8368,111.475 78.5,116.5C 74.3712,116.8 71.5379,118.8 70,122.5C 68.3926,128.481 66.8926,134.481 65.5,140.5C 60.5,141.833 55.5,141.833 50.5,140.5C 52.36,132.753 54.5267,125.086 57,117.5C 58.9602,109.85 63.4602,104.517 70.5,101.5 Z"/></g>
<g><path style="opacity:1" fill="#0f6ab2" d="M 108.5,101.5 C 122.296,105.17 126.796,113.837 122,127.5C 120.212,132.441 117.046,136.107 112.5,138.5C 110.213,138.724 108.047,139.391 106,140.5C 105.5,140.333 105,140.167 104.5,140C 106.271,139.465 106.604,138.631 105.5,137.5C 104.264,138.246 102.93,138.579 101.5,138.5C 101.5,135.833 101.5,133.167 101.5,130.5C 103.167,130.5 104.833,130.5 106.5,130.5C 106.5,129.5 106.5,128.5 106.5,127.5C 107.833,127.5 109.167,127.5 110.5,127.5C 110.449,125.43 111.115,123.597 112.5,122C 111.644,120.405 110.311,119.572 108.5,119.5C 107.488,117.124 105.655,116.124 103,116.5C 99.9381,116.398 97.7714,117.731 96.5,120.5C 94.9582,119.699 93.2915,119.366 91.5,119.5C 90.9414,114.513 91.7747,109.847 94,105.5C 98.3331,102.446 103.166,101.112 108.5,101.5 Z"/></g>
<g><path style="opacity:1" fill="#126ab1" d="M 178.5,102.5 C 183.544,102.173 188.544,102.506 193.5,103.5C 190.871,111.349 188.871,119.349 187.5,127.5C 189.144,127.714 190.644,127.38 192,126.5C 194.791,118.667 196.958,110.667 198.5,102.5C 203.511,102.334 208.511,102.501 213.5,103C 210.806,112.087 208.306,121.254 206,130.5C 202.187,138.343 195.853,142.343 187,142.5C 183.323,142.372 179.823,141.539 176.5,140C 174.513,138.681 173.346,136.848 173,134.5C 172.586,129.47 172.919,124.47 174,119.5C 175.969,113.955 177.469,108.289 178.5,102.5 Z"/></g>
<g><path style="opacity:1" fill="#146bad" d="M 108.5,101.5 C 103.166,101.112 98.3331,102.446 94,105.5C 91.7747,109.847 90.9414,114.513 91.5,119.5C 93.2915,119.366 94.9582,119.699 96.5,120.5C 97.9561,128.103 101.789,129.436 108,124.5C 108.494,122.866 108.66,121.199 108.5,119.5C 110.311,119.572 111.644,120.405 112.5,122C 111.115,123.597 110.449,125.43 110.5,127.5C 109.167,127.5 107.833,127.5 106.5,127.5C 106.5,128.5 106.5,129.5 106.5,130.5C 104.833,130.5 103.167,130.5 101.5,130.5C 101.5,133.167 101.5,135.833 101.5,138.5C 102.93,138.579 104.264,138.246 105.5,137.5C 106.604,138.631 106.271,139.465 104.5,140C 105,140.167 105.5,140.333 106,140.5C 108.047,139.391 110.213,138.724 112.5,138.5C 104.363,143.489 96.0293,143.656 87.5,139C 76.8183,122.999 80.1516,110.666 97.5,102C 101.259,100.393 104.926,100.226 108.5,101.5 Z"/></g>
<g><path style="opacity:1" fill="#f4fafb" d="M 108.5,119.5 C 108.66,121.199 108.494,122.866 108,124.5C 101.789,129.436 97.9561,128.103 96.5,120.5C 97.7714,117.731 99.9381,116.398 103,116.5C 105.655,116.124 107.488,117.124 108.5,119.5 Z"/></g>
<g><path style="opacity:1" fill="#0c0c0c" d="M 47.5,165.5 C 51.5138,165.334 55.5138,165.501 59.5,166C 61.9228,168.979 61.5895,171.813 58.5,174.5C 60.0398,177.291 59.7064,179.791 57.5,182C 53.3004,183.367 48.9671,183.867 44.5,183.5C 45.2845,177.46 46.2845,171.46 47.5,165.5 Z"/></g>
<g><path style="opacity:1" fill="#0c0c0c" d="M 63.5,165.5 C 67.5,165.5 71.5,165.5 75.5,165.5C 75.5,166.5 75.5,167.5 75.5,168.5C 73.549,168.227 72.049,168.893 71,170.5C 70.0997,174.834 69.2664,179.168 68.5,183.5C 66.8333,183.5 65.1667,183.5 63.5,183.5C 63.5344,179.396 64.2011,175.396 65.5,171.5C 64.7957,169.465 64.129,167.465 63.5,165.5 Z"/></g>
<g><path style="opacity:1" fill="#0f0f0f" d="M 79.5,165.5 C 82.5,165.5 85.5,165.5 88.5,165.5C 88.5,166.5 88.5,167.5 88.5,168.5C 86.1667,168.5 83.8333,168.5 81.5,168.5C 81.3505,169.552 81.5172,170.552 82,171.5C 89.0153,174.969 89.182,178.802 82.5,183C 79.5184,183.498 76.5184,183.665 73.5,183.5C 73.5,182.5 73.5,181.5 73.5,180.5C 75.8568,180.663 78.1902,180.497 80.5,180C 80.9574,179.586 81.2907,179.086 81.5,178.5C 79.3608,176.144 77.3608,173.811 75.5,171.5C 75.8662,168.744 77.1995,166.744 79.5,165.5 Z"/></g>
<g><path style="opacity:1" fill="#141414" d="M 109.5,168.5 C 107.96,170.838 107.294,173.505 107.5,176.5C 106.532,178.607 106.198,180.941 106.5,183.5C 104.5,183.5 102.5,183.5 100.5,183.5C 102.165,177.535 102.498,171.535 101.5,165.5C 104.167,165.5 106.833,165.5 109.5,165.5C 109.5,166.5 109.5,167.5 109.5,168.5 Z"/></g>
<g><path style="opacity:1" fill="#0e0e0e" d="M 109.5,181.5 C 110.644,177.64 111.311,173.64 111.5,169.5C 111.574,167.589 112.574,166.422 114.5,166C 117.833,165.333 121.167,165.333 124.5,166C 125.338,169.823 125.338,173.49 124.5,177C 124.248,179.809 122.915,181.809 120.5,183C 117.167,183.667 113.833,183.667 110.5,183C 109.944,182.617 109.611,182.117 109.5,181.5 Z"/></g>
<g><path style="opacity:1" fill="#101010" d="M 142.5,183.5 C 142.5,182.5 142.5,181.5 142.5,180.5C 145.777,180.784 148.943,180.451 152,179.5C 152.167,179.167 152.333,178.833 152.5,178.5C 149.914,177.52 147.247,177.187 144.5,177.5C 144.5,175.167 144.5,172.833 144.5,170.5C 145.581,166.435 148.248,164.769 152.5,165.5C 156.193,164.73 158.526,166.063 159.5,169.5C 158.476,173.806 157.143,177.973 155.5,182C 151.3,183.367 146.967,183.867 142.5,183.5 Z"/></g>
<g><path style="opacity:1" fill="#0d0d0d" d="M 142.5,167.5 C 141.833,171.833 141.167,176.167 140.5,180.5C 136.716,183.424 132.383,184.257 127.5,183C 126.088,177.704 126.588,172.537 129,167.5C 133.565,164.857 138.065,164.857 142.5,167.5 Z"/></g>
<g><path style="opacity:1" fill="#e6e6e6" d="M 116.5,168.5 C 117.833,168.5 119.167,168.5 120.5,168.5C 120.833,171.5 119.5,172.833 116.5,172.5C 116.5,171.167 116.5,169.833 116.5,168.5 Z"/></g>
<g><path style="opacity:1" fill="#e9e9e9" d="M 150.5,168.5 C 151.5,168.5 152.5,168.5 153.5,168.5C 153.5,170.5 153.5,172.5 153.5,174.5C 152.167,174.5 150.833,174.5 149.5,174.5C 149.833,172.5 150.167,170.5 150.5,168.5 Z"/></g>
<g><path style="opacity:1" fill="#e8e8e8" d="M 52.5,168.5 C 53.5,168.5 54.5,168.5 55.5,168.5C 55.5,169.833 55.5,171.167 55.5,172.5C 54.5,172.5 53.5,172.5 52.5,172.5C 52.5,171.167 52.5,169.833 52.5,168.5 Z"/></g>
<g><path style="opacity:1" fill="#dcdcdc" d="M 133.5,168.5 C 134.833,168.5 136.167,168.5 137.5,168.5C 136.828,172.188 135.995,175.855 135,179.5C 133.989,180.337 132.822,180.67 131.5,180.5C 131.782,176.426 132.448,172.426 133.5,168.5 Z"/></g>
<g><path style="opacity:1" fill="#c8c8c8" d="M 109.5,168.5 C 109.367,171.925 110.033,172.258 111.5,169.5C 111.311,173.64 110.644,177.64 109.5,181.5C 108.833,179.833 108.167,178.167 107.5,176.5C 107.294,173.505 107.96,170.838 109.5,168.5 Z"/></g>
<g><path style="opacity:1" fill="#d9d9d9" d="M 142.5,167.5 C 143.167,168.5 143.833,169.5 144.5,170.5C 144.5,172.833 144.5,175.167 144.5,177.5C 147.247,177.187 149.914,177.52 152.5,178.5C 152.333,178.833 152.167,179.167 152,179.5C 148.943,180.451 145.777,180.784 142.5,180.5C 142.5,181.5 142.5,182.5 142.5,183.5C 141.833,182.5 141.167,181.5 140.5,180.5C 141.167,176.167 141.833,171.833 142.5,167.5 Z"/></g>
<g><path style="opacity:1" fill="#131313" d="M 89.5,174.5 C 92.5719,174.183 95.5719,174.516 98.5,175.5C 98.2907,176.086 97.9574,176.586 97.5,177C 94.854,177.497 92.1873,177.664 89.5,177.5C 89.5,176.5 89.5,175.5 89.5,174.5 Z"/></g>
<g><path style="opacity:1" fill="#d9d9d9" d="M 115.5,175.5 C 116.5,175.5 117.5,175.5 118.5,175.5C 118.5,177.167 118.5,178.833 118.5,180.5C 117.167,180.5 115.833,180.5 114.5,180.5C 114.366,178.708 114.699,177.042 115.5,175.5 Z"/></g>
<g><path style="opacity:1" fill="#cfcfcf" d="M 50.5,175.5 C 51.8333,175.5 53.1667,175.5 54.5,175.5C 55.2436,178.95 53.9103,180.616 50.5,180.5C 50.5,178.833 50.5,177.167 50.5,175.5 Z"/></g>
</svg>
