<?xml version="1.0" encoding="UTF-8"?>
<svg version="1.1" xmlns="http://www.w3.org/2000/svg" width="250" height="148">
<path d="M0 0 C82.5 0 165 0 250 0 C250 48.84 250 97.68 250 148 C167.5 148 85 148 0 148 C0 99.16 0 50.32 0 0 Z " fill="#FCFDFE" transform="translate(0,0)"/>
<path d="M0 0 C0.66 1.98 1.32 3.96 2 6 C1.36191406 6.12117188 0.72382812 6.24234375 0.06640625 6.3671875 C-0.75988281 6.53476563 -1.58617188 6.70234375 -2.4375 6.875 C-3.26121094 7.03742188 -4.08492187 7.19984375 -4.93359375 7.3671875 C-5.61550781 7.57601562 -6.29742187 7.78484375 -7 8 C-8.39935013 10.79870027 -8.25265405 12.90498792 -8 16 C-7.06402685 18.01951062 -7.06402685 18.01951062 -5 19 C-1.5 19.58333333 -1.5 19.58333333 2 19 C4.87637713 16.41126058 5.47765853 13.76085859 6 10 C7.65 10 9.3 10 11 10 C11.48801743 17.19825708 11.48801743 17.19825708 9.25 20.875 C4.89718805 24.98598906 1.25136525 25.4407498 -4.58984375 25.3203125 C-8.04527671 24.86108154 -9.71037435 23.57582886 -12 21 C-14.66381631 17.44824491 -14.54502874 13.26655312 -14 9 C-11.22038928 2.56300675 -7.05940728 -0.65668905 0 0 Z " fill="#6FBA30" transform="translate(78,61)"/>
<path d="M0 0 C6.07840348 0 7.17676819 0.29145145 11.875 3.5 C12.84179688 4.1496875 13.80859375 4.799375 14.8046875 5.46875 C15.52914062 5.9740625 16.25359375 6.479375 17 7 C17 4.69 17 2.38 17 0 C18.32 0 19.64 0 21 0 C21 7.92 21 15.84 21 24 C19.68 24 18.36 24 17 24 C17 20.04 17 16.08 17 12 C14.525 11.01 14.525 11.01 12 10 C8.535 8.02 8.535 8.02 5 6 C5 11.94 5 17.88 5 24 C3.35 24 1.7 24 0 24 C0 16.08 0 8.16 0 0 Z " fill="#80736A" transform="translate(154,62)"/>
<path d="M0 0 C2.64 0 5.28 0 8 0 C9.34146494 3.43438215 10.67175905 6.87298417 12 10.3125 C12.3815625 11.28896484 12.763125 12.26542969 13.15625 13.27148438 C13.5171875 14.20927734 13.878125 15.14707031 14.25 16.11328125 C14.58515625 16.97735596 14.9203125 17.84143066 15.265625 18.73168945 C16 21 16 21 16 24 C14.35 24 12.7 24 11 24 C10.18309823 21.77236012 9.37138128 19.5430514 8.5625 17.3125 C8.33240234 16.68666016 8.10230469 16.06082031 7.86523438 15.41601562 C6.61946333 11.96757692 5.60195551 8.6186521 5 5 C4.34 5 3.68 5 3 5 C2.88785156 5.84820312 2.77570313 6.69640625 2.66015625 7.5703125 C1.95547316 11.23132877 0.81488848 14.41386997 -0.5625 17.875 C-1.01753906 19.02742188 -1.47257812 20.17984375 -1.94140625 21.3671875 C-2.29074219 22.23601562 -2.64007813 23.10484375 -3 24 C-4.65 24 -6.3 24 -8 24 C-7.3661521 18.482845 -5.49435691 13.73252191 -3.4375 8.625 C-2.9434668 7.37783203 -2.9434668 7.37783203 -2.43945312 6.10546875 C-1.63155238 4.06815382 -0.8182989 2.03315558 0 0 Z " fill="#81746B" transform="translate(100,62)"/>
<path d="M0 0 C5.28 0 10.56 0 16 0 C16 1.32 16 2.64 16 4 C12.04 4 8.08 4 4 4 C4 5.98 4 7.96 4 10 C7.3 10 10.6 10 14 10 C14 11.32 14 12.64 14 14 C10.7 14 7.4 14 4 14 C4 17.3 4 20.6 4 24 C2.68 24 1.36 24 0 24 C0 16.08 0 8.16 0 0 Z " fill="#796A61" transform="translate(121,62)"/>
<path d="M0 0 C1.32 0 2.64 0 4 0 C4 7.92 4 15.84 4 24 C2.68 24 1.36 24 0 24 C0 16.08 0 8.16 0 0 Z " fill="#74655B" transform="translate(182,62)"/>
<path d="M0 0 C1.32 0 2.64 0 4 0 C4 7.92 4 15.84 4 24 C2.68 24 1.36 24 0 24 C0 16.08 0 8.16 0 0 Z " fill="#76675D" transform="translate(144,62)"/>
<path d="M0 0 C0.66 1.98 1.32 3.96 2 6 C-1.3 6.33 -4.6 6.66 -8 7 C-8.33 6.34 -8.66 5.68 -9 5 C-9.99 5 -10.98 5 -12 5 C-7.90746174 1.10234452 -5.90669543 -0.70317803 0 0 Z " fill="#7ABF3F" transform="translate(78,61)"/>
</svg>
