<?xml version="1.0" encoding="UTF-8"?>
<svg version="1.1" xmlns="http://www.w3.org/2000/svg" width="600" height="600">
<path d="M0 0 C198 0 396 0 600 0 C600 198 600 396 600 600 C402 600 204 600 0 600 C0 402 0 204 0 0 Z " fill="#D0302B" transform="translate(0,0)"/>
<path d="M0 0 C0.66 0 1.32 0 2 0 C10.64901847 18.3383946 19.26766139 36.6896358 27.79296875 55.0859375 C31.1620791 62.35475939 34.54809201 69.6156279 37.9375 76.875 C38.22554504 77.49200775 38.51359009 78.1090155 38.81036377 78.74472046 C40.87318524 83.16332941 42.93654796 87.5816855 45 92 C47.1990553 96.70877648 49.39786348 101.41766816 51.59622192 106.12677002 C52.46617753 107.99005836 53.33647046 109.85318887 54.20678711 111.71630859 C55.27913068 114.01325094 56.34959558 116.31107151 57.41796875 118.60986328 C58.51563913 120.96206249 59.62151358 123.30881018 60.73828125 125.65185547 C61.28871094 126.8173291 61.83914063 127.98280273 62.40625 129.18359375 C62.90447266 130.2295874 63.40269531 131.27558105 63.91601562 132.35327148 C65 135 65 135 65 138 C55.43 138 45.86 138 36 138 C34.02 133.854375 34.02 133.854375 32 129.625 C31.58234375 128.75568848 31.1646875 127.88637695 30.734375 126.99072266 C30.40953125 126.3054248 30.0846875 125.62012695 29.75 124.9140625 C29.24726563 123.8614624 29.24726563 123.8614624 28.734375 122.78759766 C28 121 28 121 28 119 C10.18 119 -7.64 119 -26 119 C-26.66 120.98 -27.32 122.96 -28 125 C-30.97 131.435 -30.97 131.435 -34 138 C-43.57 138 -53.14 138 -63 138 C-61.03941414 132.11824242 -59.1112716 126.74773605 -56.4453125 121.23046875 C-56.10786011 120.52093048 -55.77040771 119.81139221 -55.42272949 119.08035278 C-54.70197758 117.56621808 -53.97892287 116.05317767 -53.25372314 114.54116821 C-51.70730124 111.31649429 -50.17268479 108.08624728 -48.63729858 104.85630798 C-47.85842781 103.2180676 -47.07898866 101.58009732 -46.29898071 99.94239807 C-43.03363931 93.08438159 -39.81589518 86.20551869 -36.625 79.3125 C-36.12194336 78.22638428 -35.61888672 77.14026855 -35.10058594 76.02124023 C-34.01784362 73.68247012 -32.93550497 71.34351309 -31.85351562 69.00439453 C-29.69225677 64.33335829 -27.52562754 59.66481563 -25.359375 54.99609375 C-16.86381293 36.68340268 -8.37885257 18.36646793 0 0 Z " fill="#FEFCFB" transform="translate(256,233)"/>
<path d="M0 0 C2.9201473 2.3991778 5.6381985 4.97712986 8.25732422 7.69921875 C5.54978581 12.64834709 2.59957251 17.12955626 -0.86767578 21.57421875 C-1.30982422 22.15429688 -1.75197266 22.734375 -2.20751953 23.33203125 C-5.48550316 27.57063244 -5.48550316 27.57063244 -7.74267578 28.69921875 C-8.42072266 28.168125 -9.09876953 27.63703125 -9.79736328 27.08984375 C-20.91166857 18.65405525 -30.7709242 14.76546307 -44.74267578 15.69921875 C-56.94725777 17.81707268 -66.54445727 24.78924534 -73.74267578 34.69921875 C-79.99131721 45.82448488 -81.61056524 56.92204149 -78.18017578 69.32421875 C-74.32612354 80.65567516 -67.32622041 88.8991264 -56.80517578 94.44921875 C-45.71200942 99.66066095 -36.47358503 99.7826393 -24.89501953 95.97265625 C-20.35575885 94.13895243 -16.6377724 91.62445195 -12.74267578 88.69921875 C-11.56048491 87.89964567 -10.37361982 87.106896 -9.18017578 86.32421875 C-7.97361328 85.51984375 -7.97361328 85.51984375 -6.74267578 84.69921875 C-1.43951999 91.17320114 3.54726124 97.78131376 8.25732422 104.69921875 C4.38157285 114.04661912 -7.96458514 119.8896685 -16.74267578 123.69921875 C-34.88315566 129.73890627 -52.85702182 127.48289813 -69.93017578 119.51171875 C-87.81181132 110.09085707 -98.82566915 95.21890955 -105.90283203 76.65625 C-110.96883237 58.81921626 -108.22382425 40.18807144 -99.99267578 23.88671875 C-89.79512585 6.57942662 -74.17146756 -5.49560241 -54.99267578 -11.30078125 C-35.43869116 -15.4526547 -16.04445066 -11.97602033 0 0 Z " fill="#FEFBFB" transform="translate(178.74267578125,247.30078125)"/>
<path d="M0 0 C9.57 0 19.14 0 29 0 C30.835625 4.24875 32.67125 8.4975 34.5625 12.875 C40.27120431 26.07061431 46.05468941 39.23219751 51.88500977 52.37451172 C55.35664679 60.20982739 58.74788124 68.07015052 62 76 C63.86984324 73.19523514 65.17438955 70.5584845 66.546875 67.48828125 C67.05541016 66.35318115 67.56394531 65.21808105 68.08789062 64.04858398 C68.64209437 62.80329709 69.19612618 61.55793367 69.75 60.3125 C70.3247907 59.02478566 70.89966194 57.73710726 71.47460938 56.44946289 C75.85377588 46.628631 80.18579177 36.78701485 84.5 26.9375 C84.79064331 26.27448883 85.08128662 25.61147766 85.3807373 24.92837524 C86.22390756 23.00361097 87.06538852 21.07811763 87.90625 19.15234375 C88.38384766 18.05913818 88.86144531 16.96593262 89.35351562 15.83959961 C91.61013047 10.57717647 93.79774833 5.285404 96 0 C105.57 0 115.14 0 125 0 C124.05362939 4.73185307 122.52607359 8.54935694 120.4921875 12.859375 C120.13495102 13.62798859 119.77771454 14.39660217 119.40965271 15.18850708 C118.63885823 16.84549294 117.86563499 18.50135072 117.09024048 20.15618896 C115.44031476 23.67779281 113.80230013 27.20489124 112.16371155 30.73178101 C111.32504702 32.53675801 110.48579929 34.34146414 109.64598083 36.14590454 C105.82114178 44.36774793 102.05564191 52.61570473 98.3125 60.875 C97.70257574 62.21989857 97.09263106 63.56478789 96.48266602 64.90966797 C95.57119092 66.91959054 94.65984347 68.9295705 93.74888611 70.93972778 C91.55726114 75.77502451 89.35820049 80.60689779 87.15625 85.4375 C86.19258741 87.55262754 85.22903918 89.66780712 84.26556396 91.78302002 C83.63481185 93.16752394 83.00383378 94.55192493 82.37261963 95.93621826 C79.02316143 103.28420338 75.70289398 110.64293762 72.4609375 118.0390625 C72.04115883 118.99436356 72.04115883 118.99436356 71.61289978 119.96896362 C70.29320954 122.97300973 68.98027694 125.9796414 67.67895508 128.99169922 C67.22157959 130.03600098 66.7642041 131.08030273 66.29296875 132.15625 C65.8961792 133.07212891 65.49938965 133.98800781 65.09057617 134.93164062 C64 137 64 137 62 138 C54.54210523 122.14416806 47.17278772 106.25767575 40.03833008 90.25317383 C35.74953439 80.64222314 31.38602272 71.06693052 27 61.5 C21.38523839 49.25109219 15.82395038 36.98007021 10.3359375 24.67382812 C9.85125 23.58779297 9.3665625 22.50175781 8.8671875 21.3828125 C8.40151367 20.33899414 7.93583984 19.29517578 7.45605469 18.21972656 C6.41925013 15.92707423 5.37034712 13.64390186 4.30175781 11.36621094 C3.75100586 10.1909082 3.20025391 9.01560547 2.6328125 7.8046875 C1.87701904 6.20729736 1.87701904 6.20729736 1.10595703 4.57763672 C0 2 0 2 0 0 Z " fill="#FEFBFA" transform="translate(408,237)"/>
<path d="M0 0 C30.69 0 61.38 0 93 0 C93 8.91 93 17.82 93 27 C82.11 27 71.22 27 60 27 C60 62.31 60 97.62 60 134 C51.09 134 42.18 134 33 134 C33 98.69 33 63.38 33 27 C22.11 27 11.22 27 0 27 C0 18.09 0 9.18 0 0 Z " fill="#FEFAFA" transform="translate(309,237)"/>
<path d="M0 0 C0.66 0 1.32 0 2 0 C4.14102453 4.66090411 6.27714068 9.32401345 8.40869141 13.98925781 C9.13487622 15.57679205 9.86241076 17.16370959 10.59130859 18.75 C11.63732654 21.02704587 12.67850854 23.30624803 13.71875 25.5859375 C14.04685669 26.29744965 14.37496338 27.00896179 14.7130127 27.74203491 C17 32.77225659 17 32.77225659 17 35 C6.44 35 -4.12 35 -15 35 C-13.497696 30.49308801 -11.90538782 26.37860439 -9.9609375 22.0703125 C-9.53235947 21.11751907 -9.53235947 21.11751907 -9.09512329 20.14547729 C-8.19112893 18.13741538 -7.28313664 16.13119146 -6.375 14.125 C-5.7575463 12.75532831 -5.14035619 11.38553775 -4.5234375 10.015625 C-3.01866963 6.67570388 -1.51031328 3.33741779 0 0 Z " fill="#CE342F" transform="translate(256,294)"/>
<path d="M0 0 C3.81248426 -0.02887236 7.6249407 -0.04675492 11.4375 -0.0625 C12.52611328 -0.07087891 13.61472656 -0.07925781 14.73632812 -0.08789062 C15.77080078 -0.09111328 16.80527344 -0.09433594 17.87109375 -0.09765625 C18.82943115 -0.10289307 19.78776855 -0.10812988 20.77514648 -0.11352539 C23 0 23 0 24 1 C26.32817964 1.36760731 28.6618385 1.70241581 31 2 C31 2.66 31 3.32 31 4 C29.71738281 3.84015625 28.43476563 3.6803125 27.11328125 3.515625 C22.13105996 2.9662657 17.19788698 2.76992298 12.1875 2.75 C11.31746338 2.74605225 10.44742676 2.74210449 9.55102539 2.73803711 C3.4692849 2.79281739 -1.96675942 3.56315763 -7.78515625 5.44140625 C-10 6 -10 6 -13 5 C-8.44573816 2.33409063 -5.26053037 1.68436818 0 2 C0 1.34 0 0.68 0 0 Z " fill="#C04440" transform="translate(128,233)"/>
<path d="M0 0 C0.66 0 1.32 0 2 0 C2.33 0.99 2.66 1.98 3 3 C15.87 3.495 15.87 3.495 29 4 C29.33 3.01 29.66 2.02 30 1 C30.33 2.65 30.66 4.3 31 6 C21.43 6 11.86 6 2 6 C1.34 4.02 0.68 2.04 0 0 Z " fill="#F9C9C7" transform="translate(290,365)"/>
<path d="M0 0 C1 4 1 4 0 6 C12.87 6.495 12.87 6.495 26 7 C26 7.66 26 8.32 26 9 C16.43 9 6.86 9 -3 9 C-2.01 6.03 -1.02 3.06 0 0 Z " fill="#F9C7C6" transform="translate(196,362)"/>
<path d="M0 0 C17.82 0 35.64 0 54 0 C54 0.33 54 0.66 54 1 C36.51 1 19.02 1 1 1 C0.67 2.65 0.34 4.3 0 6 C-0.33 6.66 -0.66 7.32 -1 8 C-1.66 8 -2.32 8 -3 8 C-1.125 2.25 -1.125 2.25 0 0 Z " fill="#B73F3C" transform="translate(230,352)"/>
<path d="M0 0 C0.33 0 0.66 0 1 0 C1.01981934 0.58378418 1.03963867 1.16756836 1.06005859 1.76904297 C1.15662861 4.47140268 1.26575973 7.17312394 1.375 9.875 C1.4059375 10.7928125 1.436875 11.710625 1.46875 12.65625 C1.80942972 20.71900349 2.91604788 28.4906804 5.625 36.125 C5.88539062 36.87007813 6.14578125 37.61515625 6.4140625 38.3828125 C6.60742188 38.91648437 6.80078125 39.45015625 7 40 C6.34 40 5.68 40 5 40 C4.37182296 38.31368008 3.74763107 36.62587549 3.125 34.9375 C2.77695313 33.99777344 2.42890625 33.05804688 2.0703125 32.08984375 C1.71710938 31.07019531 1.36390625 30.05054688 1 29 C0.63003906 27.93523437 0.26007813 26.87046875 -0.12109375 25.7734375 C-1.2312966 21.0069666 -1.25484074 16.56084318 -1.1875 11.6875 C-1.18685547 10.78193359 -1.18621094 9.87636719 -1.18554688 8.94335938 C-1.14083759 2.28167517 -1.14083759 2.28167517 0 0 Z " fill="#BE413E" transform="translate(70,293)"/>
<path d="M0 0 C0.6875 1.5625 0.6875 1.5625 1 4 C0.01 6.31 -0.98 8.62 -2 11 C7.57 11 17.14 11 27 11 C27 11.66 27 12.32 27 13 C16.44 13 5.88 13 -5 13 C-3.49191076 8.47573227 -1.90724747 4.33465333 0 0 Z " fill="#A94543" transform="translate(246,316)"/>
<path d="M0 0 C9.57 0 19.14 0 29 0 C28.67 1.65 28.34 3.3 28 5 C27.67 4.01 27.34 3.02 27 2 C18.09 2 9.18 2 0 2 C0 1.34 0 0.68 0 0 Z " fill="#FDE4E3" transform="translate(504,237)"/>
<path d="M0 0 C2 2 2 2 2 5 C-7.57 5 -17.14 5 -27 5 C-27 4.67 -27 4.34 -27 4 C-18.42 4 -9.84 4 -1 4 C-0.67 2.68 -0.34 1.36 0 0 Z " fill="#C33833" transform="translate(270,323)"/>
<path d="M0 0 C0.33 0 0.66 0 1 0 C1.12375 1.27875 1.2475 2.5575 1.375 3.875 C1.80237924 12.52293851 1.80237924 12.52293851 5 20 C5.04063832 21.66617115 5.042721 23.33388095 5 25 C0.89089722 20.89089722 0.12570207 14.22928769 -0.19140625 8.60546875 C-0.1879961 5.73071448 -0.13529964 2.87135892 0 0 Z " fill="#C54A48" transform="translate(98,298)"/>
<path d="M0 0 C0.33 0 0.66 0 1 0 C1.31245735 4.58270782 0.92744156 6.50958891 -2 10 C-2.71162443 11.64797236 -3.39031953 13.31165408 -4 15 C-4.66 15 -5.32 15 -6 15 C-4.40109514 9.80355921 -2.25861997 4.93387858 0 0 Z " fill="#C54A47" transform="translate(478,358)"/>
<path d="M0 0 C0.66 0 1.32 0 2 0 C0.34908222 4.29238623 -2.73754566 6.8793915 -6 10 C-6.66 9.67 -7.32 9.34 -8 9 C-6.71520959 7.49410612 -5.42195918 5.99542625 -4.125 4.5 C-3.04605469 3.24703125 -3.04605469 3.24703125 -1.9453125 1.96875 C-1.30335937 1.3190625 -0.66140625 0.669375 0 0 Z " fill="#FDE2E1" transform="translate(94,252)"/>
<path d="M0 0 C0.66 0 1.32 0 2 0 C2.66 1.98 3.32 3.96 4 6 C1.50935112 6.68707555 -0.37886292 7 -3 7 C-2.01 4.69 -1.02 2.38 0 0 Z " fill="#C34C4A" transform="translate(256,294)"/>
<path d="M0 0 C0.66 0 1.32 0 2 0 C2 0.99 2 1.98 2 3 C2.66 3 3.32 3 4 3 C4.66 6.3 5.32 9.6 6 13 C0 5 0 5 0 0 Z " fill="#C24342" transform="translate(275,269)"/>
<path d="M0 0 C1.56073255 2.34109882 2.86373867 4.56333403 4.125 7.0625 C4.47820312 7.75472656 4.83140625 8.44695312 5.1953125 9.16015625 C6 11 6 11 6 13 C5.01 13 4.02 13 3 13 C2.49242138 11.58603098 1.99425075 10.16868271 1.5 8.75 C1.08234375 7.56664062 1.08234375 7.56664062 0.65625 6.359375 C0 4 0 4 0 0 Z " fill="#C44A45" transform="translate(426,278)"/>
<path d="M0 0 C3 1 3 1 4.6875 3.875 C6 7 6 7 6 10 C5.34 10 4.68 10 4 10 C2.68 6.7 1.36 3.4 0 0 Z " fill="#C2413E" transform="translate(441,248)"/>
<path d="M0 0 C1 3 1 3 0.22265625 5.04296875 C-0.16019531 5.75066406 -0.54304688 6.45835937 -0.9375 7.1875 C-1.31777344 7.90292969 -1.69804687 8.61835938 -2.08984375 9.35546875 C-2.54037109 10.16951172 -2.54037109 10.16951172 -3 11 C-3.66 10.67 -4.32 10.34 -5 10 C-5 9.34 -5 8.68 -5 8 C-4.34 8 -3.68 8 -3 8 C-2.87625 7.236875 -2.7525 6.47375 -2.625 5.6875 C-2 3 -2 3 0 0 Z " fill="#BF4A48" transform="translate(474,303)"/>
<path d="M0 0 C0.66 0 1.32 0 2 0 C2.66 1.98 3.32 3.96 4 6 C2.02 6.33 0.04 6.66 -2 7 C-1.34 4.69 -0.68 2.38 0 0 Z " fill="#FCDEDC" transform="translate(256,233)"/>
<path d="M0 0 C-1.59915881 0.69906942 -3.20455045 1.38389468 -4.8125 2.0625 C-5.70582031 2.44535156 -6.59914063 2.82820313 -7.51953125 3.22265625 C-10 4 -10 4 -13 3 C-11.5903653 2.29819469 -10.17192359 1.61406042 -8.75 0.9375 C-7.96109375 0.55464844 -7.1721875 0.17179687 -6.359375 -0.22265625 C-3.74006478 -1.08564091 -2.55144824 -0.93045933 0 0 Z " fill="#C24E4A" transform="translate(133,264)"/>
<path d="M0 0 C0.66 0.99 1.32 1.98 2 3 C1 5 0 7 -1 9 C-1.66 9 -2.32 9 -3 9 C-2.01 6.03 -1.02 3.06 0 0 Z " fill="#C64543" transform="translate(482,349)"/>
<path d="M0 0 C0.95465783 2.16967689 1.14401212 3.56328793 0.3984375 5.82421875 C-0.35870385 7.5684743 -1.17609198 9.28627131 -2 11 C-2.66 11 -3.32 11 -4 11 C-2.7874262 7.27566618 -1.49140021 3.62197194 0 0 Z " fill="#C54D4C" transform="translate(246,316)"/>
<path d="M0 0 C1.39195915 4.17587745 -0.17676781 6.13474776 -2 10 C-2.66 10 -3.32 10 -4 10 C-2.8905928 6.51329166 -1.73662334 3.22515763 0 0 Z " fill="#C5514C" transform="translate(104,282)"/>
</svg>
