<?xml version="1.0" encoding="UTF-8"?>
<!DOCTYPE svg PUBLIC "-//W3C//DTD SVG 1.1//EN" "http://www.w3.org/Graphics/SVG/1.1/DTD/svg11.dtd">
<svg xmlns="http://www.w3.org/2000/svg" version="1.1" width="250px" height="148px" style="shape-rendering:geometricPrecision; text-rendering:geometricPrecision; image-rendering:optimizeQuality; fill-rule:evenodd; clip-rule:evenodd" xmlns:xlink="http://www.w3.org/1999/xlink">
<g><path style="opacity:1" fill="#fdfefe" d="M -0.5,-0.5 C 82.8333,-0.5 166.167,-0.5 249.5,-0.5C 249.5,48.8333 249.5,98.1667 249.5,147.5C 166.167,147.5 82.8333,147.5 -0.5,147.5C -0.5,98.1667 -0.5,48.8333 -0.5,-0.5 Z"/></g>
<g><path style="opacity:1" fill="#e5f2f0" d="M 172.5,59.5 C 169.615,59.1936 166.948,59.5269 164.5,60.5C 161.465,60.3469 159.465,61.6803 158.5,64.5C 157.326,65.5137 156.66,66.847 156.5,68.5C 155.546,71.4175 154.879,74.4175 154.5,77.5C 154.363,79.8405 155.03,81.8405 156.5,83.5C 155.504,83.4142 154.671,83.7476 154,84.5C 153.138,82.913 152.471,81.2464 152,79.5C 151.392,81.0664 150.558,82.3998 149.5,83.5C 150.583,79.9155 151.249,76.2488 151.5,72.5C 151.389,71.8826 151.056,71.3826 150.5,71C 151.942,70.6232 152.942,69.7899 153.5,68.5C 154.404,67.791 154.737,66.791 154.5,65.5C 155.807,63.7768 155.807,61.9435 154.5,60C 149.511,59.5007 144.511,59.3341 139.5,59.5C 139.5,60.5 139.5,61.5 139.5,62.5C 138.766,63.7079 138.433,65.0413 138.5,66.5C 137.699,68.0418 137.366,69.7085 137.5,71.5C 137.167,71.5 136.833,71.5 136.5,71.5C 137.167,67.5 135.5,65.8333 131.5,66.5C 132.568,65.5655 133.901,65.2322 135.5,65.5C 135.5,64.5 135.5,63.5 135.5,62.5C 136.404,61.791 136.737,60.791 136.5,59.5C 132.833,59.5 129.167,59.5 125.5,59.5C 125.026,56.9746 125.692,54.6412 127.5,52.5C 131.534,52.4955 135.534,52.1621 139.5,51.5C 140.582,57.5555 144.249,59.8888 150.5,58.5C 150.5,57.5 150.5,56.5 150.5,55.5C 155.249,54.742 159.249,56.0753 162.5,59.5C 165.967,58.2117 169.3,58.2117 172.5,59.5 Z"/></g>
<g><path style="opacity:1" fill="#87dadf" d="M 31.5,53.5 C 35.9811,52.3516 40.6478,52.1849 45.5,53C 46.0659,53.9947 46.7326,54.828 47.5,55.5C 46.8333,56.1667 46.1667,56.8333 45.5,57.5C 43.1455,59.1878 41.1455,61.1878 39.5,63.5C 38.5,63.5 37.5,63.5 36.5,63.5C 36.6085,65.5138 35.9418,67.1805 34.5,68.5C 32.5541,67.7456 31.7207,66.4122 32,64.5C 35.1667,62.6667 37.6667,60.1667 39.5,57C 40.8333,56.3333 42.1667,55.6667 43.5,55C 39.7032,53.5761 35.7032,53.0761 31.5,53.5 Z"/></g>
<g><path style="opacity:1" fill="#49bacc" d="M 125.5,59.5 C 129.167,59.5 132.833,59.5 136.5,59.5C 136.737,60.791 136.404,61.791 135.5,62.5C 133.365,60.631 130.698,59.9644 127.5,60.5C 126.1,61.0998 125.1,62.0998 124.5,63.5C 124.232,61.901 124.566,60.5676 125.5,59.5 Z"/></g>
<g><path style="opacity:1" fill="#68c7d3" d="M 154.5,65.5 C 154.5,64.1667 154.5,62.8333 154.5,61.5C 151.517,61.1016 148.517,60.7683 145.5,60.5C 143.215,60.6759 141.215,61.3426 139.5,62.5C 139.5,61.5 139.5,60.5 139.5,59.5C 144.511,59.3341 149.511,59.5007 154.5,60C 155.807,61.9435 155.807,63.7768 154.5,65.5 Z"/></g>
<g><path style="opacity:1" fill="#63c7d4" d="M 164.5,60.5 C 166.948,59.5269 169.615,59.1936 172.5,59.5C 173.609,59.5569 174.609,59.8902 175.5,60.5C 175.802,63.0593 175.468,65.3926 174.5,67.5C 174.795,65.2646 174.461,63.2646 173.5,61.5C 170.713,60.5233 167.713,60.19 164.5,60.5 Z"/></g>
<g><path style="opacity:1" fill="#5cc9d2" d="M 191.5,59.5 C 191.5,59.8333 191.5,60.1667 191.5,60.5C 188.482,60.3354 185.482,60.502 182.5,61C 181.529,62.4813 180.196,63.3146 178.5,63.5C 179.29,62.2058 180.29,61.0391 181.5,60C 184.817,59.5017 188.15,59.335 191.5,59.5 Z"/></g>
<g><path style="opacity:1" fill="#518f9a" d="M 94.5,65.5 C 93.8597,68.6822 92.8597,69.0155 91.5,66.5C 91.5,64.8333 91.5,63.1667 91.5,61.5C 90.1667,61.5 88.8333,61.5 87.5,61.5C 87.5,63.5 87.5,65.5 87.5,67.5C 86.5269,65.0521 86.1936,62.3854 86.5,59.5C 88.5,59.5 90.5,59.5 92.5,59.5C 92.3367,61.8568 92.5034,64.1902 93,66.5C 93.3826,65.944 93.8826,65.6107 94.5,65.5 Z"/></g>
<g><path style="opacity:1" fill="#84ceda" d="M 96.5,60.5 C 102.5,59.1667 108.5,59.1667 114.5,60.5C 110.671,59.931 107.337,60.5977 104.5,62.5C 104.737,63.791 104.404,64.791 103.5,65.5C 103.737,64.209 103.404,63.209 102.5,62.5C 101.082,60.6921 99.0821,60.0254 96.5,60.5 Z"/></g>
<g><path style="opacity:1" fill="#1b82a8" d="M 114.5,60.5 C 119.509,59.5002 121.176,61.1668 119.5,65.5C 119.631,64.7611 119.464,64.0944 119,63.5C 118.167,64.5 117.333,65.5 116.5,66.5C 115.387,64.9686 113.887,63.9686 112,63.5C 110.158,65.1605 107.991,66.1605 105.5,66.5C 105.768,64.901 105.434,63.5676 104.5,62.5C 107.337,60.5977 110.671,59.931 114.5,60.5 Z"/></g>
<g><path style="opacity:1" fill="#379fc0" d="M 223.5,68.5 C 223.738,64.9007 222.738,64.5673 220.5,67.5C 219.914,67.2907 219.414,66.9574 219,66.5C 217.543,69.0375 216.376,71.7041 215.5,74.5C 215.5,75.1667 215.167,75.5 214.5,75.5C 216.039,70.2157 217.373,64.8823 218.5,59.5C 221.167,59.5 223.833,59.5 226.5,59.5C 226.31,62.855 225.31,65.855 223.5,68.5 Z"/></g>
<g><path style="opacity:1" fill="#0a97de" d="M 45.5,57.5 C 51.6774,58.5018 54.5107,62.1684 54,68.5C 53.3292,67.7476 52.4959,67.4142 51.5,67.5C 49.8736,65.4184 47.707,64.085 45,63.5C 43.699,63.6387 42.8656,64.3054 42.5,65.5C 41.0695,65.4208 39.7362,65.7542 38.5,66.5C 38.1667,66.1667 37.8333,65.8333 37.5,65.5C 38.2427,64.8182 38.9094,64.1515 39.5,63.5C 41.1455,61.1878 43.1455,59.1878 45.5,57.5 Z"/></g>
<g><path style="opacity:1" fill="#236a86" d="M 82.5,67.5 C 74.6289,68.7923 74.6289,69.4589 82.5,69.5C 80.3926,70.4682 78.0593,70.8016 75.5,70.5C 75.9926,68.1944 76.3259,65.861 76.5,63.5C 75.5,63.5 74.5,63.5 73.5,63.5C 72.3406,64.4558 71.1739,65.4558 70,66.5C 69.0546,66.0946 68.3879,65.428 68,64.5C 67.5831,65.756 66.7498,66.4226 65.5,66.5C 67.498,61.2474 71.3313,58.914 77,59.5C 79.0937,59.5356 81.0937,59.8689 83,60.5C 83.7958,63.0385 83.6291,65.3718 82.5,67.5 Z"/></g>
<g><path style="opacity:1" fill="#2194bb" d="M 164.5,60.5 C 167.713,60.19 170.713,60.5233 173.5,61.5C 173.5,62.8333 173.5,64.1667 173.5,65.5C 171.857,65.5198 170.524,64.8532 169.5,63.5C 168.828,64.9492 168.161,66.2825 167.5,67.5C 167.762,66.0222 167.429,64.6888 166.5,63.5C 165.828,64.9492 165.161,66.2825 164.5,67.5C 164.631,66.7611 164.464,66.0944 164,65.5C 162.667,66.1667 161.333,66.8333 160,67.5C 159.768,66.2625 159.268,65.2625 158.5,64.5C 159.465,61.6803 161.465,60.3469 164.5,60.5 Z"/></g>
<g><path style="opacity:1" fill="#73dce4" d="M 25.5,58.5 C 21.2818,63.8505 21.9485,68.5172 27.5,72.5C 26.1667,72.5 25.5,73.1667 25.5,74.5C 24.1825,72.249 22.5158,70.249 20.5,68.5C 21.2096,66.2537 21.7096,63.9204 22,61.5C 22.7589,59.9371 23.9256,58.9371 25.5,58.5 Z"/></g>
<g><path style="opacity:1" fill="#1f718f" d="M 96.5,60.5 C 99.0821,60.0254 101.082,60.6921 102.5,62.5C 100.833,64.5 99.1667,66.5 97.5,68.5C 96.8333,67.1667 95.8333,66.1667 94.5,65.5C 95.1667,63.8333 95.8333,62.1667 96.5,60.5 Z"/></g>
<g><path style="opacity:1" fill="#3188a6" d="M 127.5,60.5 C 130.698,59.9644 133.365,60.631 135.5,62.5C 135.5,63.5 135.5,64.5 135.5,65.5C 133.901,65.2322 132.568,65.5655 131.5,66.5C 130.596,67.209 130.263,68.209 130.5,69.5C 129.736,67.2603 128.902,64.9269 128,62.5C 127.346,63.6956 126.846,63.6956 126.5,62.5C 126.863,61.8165 127.196,61.1499 127.5,60.5 Z"/></g>
<g><path style="opacity:1" fill="#1184a8" d="M 154.5,65.5 C 154.737,66.791 154.404,67.791 153.5,68.5C 151.326,69.0987 149.326,68.4321 147.5,66.5C 147.289,64.5759 146.623,64.2426 145.5,65.5C 144.25,65.5774 143.417,66.244 143,67.5C 141.644,66.6198 140.144,66.2865 138.5,66.5C 138.433,65.0413 138.766,63.7079 139.5,62.5C 141.215,61.3426 143.215,60.6759 145.5,60.5C 148.517,60.7683 151.517,61.1016 154.5,61.5C 154.5,62.8333 154.5,64.1667 154.5,65.5 Z"/></g>
<g><path style="opacity:1" fill="#1793bb" d="M 191.5,60.5 C 192.496,60.4142 193.329,60.7476 194,61.5C 194.789,63.7116 194.622,65.7116 193.5,67.5C 191.547,66.1652 189.547,64.8318 187.5,63.5C 185.626,65.082 184.293,67.082 183.5,69.5C 183.587,66.4017 183.087,66.0684 182,68.5C 180.951,66.8934 179.451,66.2267 177.5,66.5C 178.11,65.609 178.443,64.609 178.5,63.5C 180.196,63.3146 181.529,62.4813 182.5,61C 185.482,60.502 188.482,60.3354 191.5,60.5 Z"/></g>
<g><path style="opacity:1" fill="#43a8c5" d="M 212.5,71.5 C 212.5,69.5 212.5,67.5 212.5,65.5C 210.678,65.1692 209.011,64.5025 207.5,63.5C 206.624,63.3691 205.957,63.7025 205.5,64.5C 204.972,66.3361 204.306,68.0028 203.5,69.5C 203.5,68.1667 203.5,66.8333 203.5,65.5C 201.5,65.5 199.5,65.5 197.5,65.5C 197.5,64.8333 197.5,64.1667 197.5,63.5C 198.343,61.8267 199.676,60.66 201.5,60C 213.219,56.8756 216.885,60.7089 212.5,71.5 Z"/></g>
<g><path style="opacity:1" fill="#97dae2" d="M 147.5,66.5 C 145.057,70.3976 144.39,70.0642 145.5,65.5C 146.623,64.2426 147.289,64.5759 147.5,66.5 Z"/></g>
<g><path style="opacity:1" fill="#139bc2" d="M 39.5,63.5 C 38.9094,64.1515 38.2427,64.8182 37.5,65.5C 37.8333,65.8333 38.1667,66.1667 38.5,66.5C 39.7362,65.7542 41.0695,65.4208 42.5,65.5C 43.2112,67.0301 44.2112,68.3634 45.5,69.5C 44.596,70.209 44.2627,71.209 44.5,72.5C 43.7321,71.7375 43.2321,70.7375 43,69.5C 42.3292,68.7476 41.4959,68.4142 40.5,68.5C 39.8333,68.5 39.1667,68.5 38.5,68.5C 37.391,68.5569 36.391,68.8902 35.5,69.5C 35.5,68.8333 35.1667,68.5 34.5,68.5C 35.9418,67.1805 36.6085,65.5138 36.5,63.5C 37.5,63.5 38.5,63.5 39.5,63.5 Z"/></g>
<g><path style="opacity:1" fill="#e3f9fb" d="M 50.5,71.5 C 49.7095,70.5987 48.7095,69.9321 47.5,69.5C 46.7101,68.2058 45.7101,67.0391 44.5,66C 47.8419,66.2972 50.5085,67.9639 52.5,71C 51.9056,71.4643 51.2389,71.631 50.5,71.5 Z"/></g>
<g><path style="opacity:1" fill="#209ace" d="M 47.5,55.5 C 50.0991,55.5494 52.2658,56.5494 54,58.5C 54.9211,61.3358 56.0877,64.0024 57.5,66.5C 57.8747,69.3965 57.3747,72.0632 56,74.5C 54.9557,71.8551 53.4557,69.5217 51.5,67.5C 52.4959,67.4142 53.3292,67.7476 54,68.5C 54.5107,62.1684 51.6774,58.5018 45.5,57.5C 46.1667,56.8333 46.8333,56.1667 47.5,55.5 Z"/></g>
<g><path style="opacity:1" fill="#04577d" d="M 91.5,66.5 C 90.2921,67.2341 88.9587,67.5674 87.5,67.5C 87.5,65.5 87.5,63.5 87.5,61.5C 88.8333,61.5 90.1667,61.5 91.5,61.5C 91.5,63.1667 91.5,64.8333 91.5,66.5 Z"/></g>
<g><path style="opacity:1" fill="#165b72" d="M 127.5,60.5 C 127.196,61.1499 126.863,61.8165 126.5,62.5C 126.846,63.6956 127.346,63.6956 128,62.5C 128.902,64.9269 129.736,67.2603 130.5,69.5C 131.791,69.2627 132.791,69.596 133.5,70.5C 130.843,70.162 128.51,70.8287 126.5,72.5C 125.14,71.8201 123.807,71.1534 122.5,70.5C 122.721,67.9327 123.388,65.5994 124.5,63.5C 125.1,62.0998 126.1,61.0998 127.5,60.5 Z"/></g>
<g><path style="opacity:1" fill="#1e6b89" d="M 173.5,61.5 C 174.461,63.2646 174.795,65.2646 174.5,67.5C 174.5,68.5 174.5,69.5 174.5,70.5C 172.167,70.5 169.833,70.5 167.5,70.5C 167.5,69.5 167.5,68.5 167.5,67.5C 168.161,66.2825 168.828,64.9492 169.5,63.5C 170.524,64.8532 171.857,65.5198 173.5,65.5C 173.5,64.1667 173.5,62.8333 173.5,61.5 Z"/></g>
<g><path style="opacity:1" fill="#186e81" d="M 187.5,63.5 C 189.547,64.8318 191.547,66.1652 193.5,67.5C 193.737,68.791 193.404,69.791 192.5,70.5C 192.631,69.7611 192.464,69.0944 192,68.5C 190.667,70.1667 189.333,71.8333 188,73.5C 187.583,72.244 186.75,71.5774 185.5,71.5C 186.371,68.8877 187.037,66.221 187.5,63.5 Z"/></g>
<g><path style="opacity:1" fill="#1098d7" d="M 31.5,53.5 C 35.7032,53.0761 39.7032,53.5761 43.5,55C 42.1667,55.6667 40.8333,56.3333 39.5,57C 37.6667,60.1667 35.1667,62.6667 32,64.5C 31.7207,66.4122 32.5541,67.7456 34.5,68.5C 35.1667,68.5 35.5,68.8333 35.5,69.5C 34.232,71.6702 34.232,73.8368 35.5,76C 33.8034,76.3845 32.1368,76.2178 30.5,75.5C 29.5,74.5 28.5,73.5 27.5,72.5C 21.9485,68.5172 21.2818,63.8505 25.5,58.5C 28.155,57.503 30.155,55.8363 31.5,53.5 Z"/></g>
<g><path style="opacity:1" fill="#01111e" d="M 82.5,67.5 C 82.5,68.1667 82.5,68.8333 82.5,69.5C 74.6289,69.4589 74.6289,68.7923 82.5,67.5 Z"/></g>
<g><path style="opacity:1" fill="#155267" d="M 145.5,65.5 C 144.39,70.0642 145.057,70.3976 147.5,66.5C 149.326,68.4321 151.326,69.0987 153.5,68.5C 152.942,69.7899 151.942,70.6232 150.5,71C 151.056,71.3826 151.389,71.8826 151.5,72.5C 149.325,72.3178 147.325,71.6511 145.5,70.5C 143.235,70.9397 141.068,71.6064 139,72.5C 138.617,71.944 138.117,71.6107 137.5,71.5C 137.366,69.7085 137.699,68.0418 138.5,66.5C 140.144,66.2865 141.644,66.6198 143,67.5C 143.417,66.244 144.25,65.5774 145.5,65.5 Z"/></g>
<g><path style="opacity:1" fill="#b6ced4" d="M 207.5,63.5 C 206.833,66.1667 206.167,68.8333 205.5,71.5C 205.035,74.5283 204.035,77.3617 202.5,80C 201.517,80.5908 200.85,80.2575 200.5,79C 201.148,77.5603 201.481,76.0603 201.5,74.5C 202.404,73.791 202.737,72.791 202.5,71.5C 203.338,71.1583 203.672,70.4916 203.5,69.5C 204.306,68.0028 204.972,66.3361 205.5,64.5C 205.957,63.7025 206.624,63.3691 207.5,63.5 Z"/></g>
<g><path style="opacity:1" fill="#176984" d="M 207.5,63.5 C 209.011,64.5025 210.678,65.1692 212.5,65.5C 212.5,67.5 212.5,69.5 212.5,71.5C 212.204,73.403 211.537,75.0697 210.5,76.5C 210.881,74.0582 210.214,73.3915 208.5,74.5C 207.265,73.6602 206.265,72.6602 205.5,71.5C 206.167,68.8333 206.833,66.1667 207.5,63.5 Z"/></g>
<g><path style="opacity:1" fill="#1c464f" d="M 104.5,62.5 C 105.434,63.5676 105.768,64.901 105.5,66.5C 107.991,66.1605 110.158,65.1605 112,63.5C 113.887,63.9686 115.387,64.9686 116.5,66.5C 117.333,65.5 118.167,64.5 119,63.5C 119.464,64.0944 119.631,64.7611 119.5,65.5C 119.025,67.7837 118.025,69.7837 116.5,71.5C 116.5,71.8333 116.5,72.1667 116.5,72.5C 114.833,72.5 113.167,72.5 111.5,72.5C 111.768,74.099 111.434,75.4324 110.5,76.5C 110.715,74.8212 110.048,73.8212 108.5,73.5C 108.611,72.8826 108.944,72.3826 109.5,72C 107.35,70.5886 105.016,69.7553 102.5,69.5C 102.833,68.1667 103.167,66.8333 103.5,65.5C 104.404,64.791 104.737,63.791 104.5,62.5 Z"/></g>
<g><path style="opacity:1" fill="#c6dfe6" d="M 111.5,64.5 C 113.984,66.0277 113.818,67.6944 111,69.5C 110.36,67.735 110.527,66.0683 111.5,64.5 Z"/></g>
<g><path style="opacity:1" fill="#136685" d="M 197.5,65.5 C 199.5,65.5 201.5,65.5 203.5,65.5C 203.5,66.8333 203.5,68.1667 203.5,69.5C 203.672,70.4916 203.338,71.1583 202.5,71.5C 200.167,71.5 197.833,71.5 195.5,71.5C 195.604,69.2972 196.27,67.2972 197.5,65.5 Z"/></g>
<g><path style="opacity:1" fill="#145877" d="M 158.5,64.5 C 159.268,65.2625 159.768,66.2625 160,67.5C 161.333,66.8333 162.667,66.1667 164,65.5C 164.464,66.0944 164.631,66.7611 164.5,67.5C 164.672,68.4916 164.338,69.1583 163.5,69.5C 163.565,69.0618 163.399,68.7284 163,68.5C 162.653,70.1802 161.653,71.1802 160,71.5C 158.826,70.4558 157.659,69.4558 156.5,68.5C 156.66,66.847 157.326,65.5137 158.5,64.5 Z"/></g>
<g><path style="opacity:1" fill="#18597a" d="M 177.5,66.5 C 179.451,66.2267 180.951,66.8934 182,68.5C 183.087,66.0684 183.587,66.4017 183.5,69.5C 183.768,71.099 183.434,72.4324 182.5,73.5C 181.545,71.2901 180.045,70.9568 178,72.5C 177.658,70.3808 176.825,70.0474 175.5,71.5C 175.796,69.597 176.463,67.9303 177.5,66.5 Z"/></g>
<g><path style="opacity:1" fill="#e2edec" d="M 191.5,59.5 C 188.15,59.335 184.817,59.5017 181.5,60C 180.29,61.0391 179.29,62.2058 178.5,63.5C 178.443,64.609 178.11,65.609 177.5,66.5C 176.463,67.9303 175.796,69.597 175.5,71.5C 175.737,72.791 175.404,73.791 174.5,74.5C 171.396,73.2248 168.396,73.2248 165.5,74.5C 165.803,77.5876 164.47,79.2542 161.5,79.5C 161.851,76.0968 162.518,72.7635 163.5,69.5C 164.338,69.1583 164.672,68.4916 164.5,67.5C 165.161,66.2825 165.828,64.9492 166.5,63.5C 167.429,64.6888 167.762,66.0222 167.5,67.5C 167.5,68.5 167.5,69.5 167.5,70.5C 169.833,70.5 172.167,70.5 174.5,70.5C 174.5,69.5 174.5,68.5 174.5,67.5C 175.468,65.3926 175.802,63.0593 175.5,60.5C 176.508,58.0538 175.508,56.5538 172.5,56C 173.5,55.8333 174.5,55.6667 175.5,55.5C 180.668,57.7416 186.002,59.0749 191.5,59.5 Z"/></g>
<g><path style="opacity:1" fill="#e3e2e3" d="M 131.5,66.5 C 135.5,65.8333 137.167,67.5 136.5,71.5C 135.708,75.211 134.708,78.8777 133.5,82.5C 135.743,83.4742 138.076,83.8076 140.5,83.5C 140.668,79.3216 142.002,75.6549 144.5,72.5C 144.947,75.8876 144.281,79.221 142.5,82.5C 144.743,83.4742 147.076,83.8076 149.5,83.5C 146.977,84.2537 144.311,84.9204 141.5,85.5C 135.84,85.4827 130.173,85.1493 124.5,84.5C 120.8,84.3428 117.3,85.0095 114,86.5C 113.544,85.2559 114.044,84.4226 115.5,84C 115,83.8333 114.5,83.6667 114,83.5C 110.686,84.7445 107.519,84.7445 104.5,83.5C 107.941,83.6989 111.274,83.1989 114.5,82C 117.387,79.1518 118.054,75.9852 116.5,72.5C 116.5,72.1667 116.5,71.8333 116.5,71.5C 117.859,72.0065 118.859,73.0065 119.5,74.5C 120.182,73.7573 120.849,73.0906 121.5,72.5C 120.674,76.1359 120.008,79.8026 119.5,83.5C 123.5,83.5 127.5,83.5 131.5,83.5C 131.5,82.1667 131.5,80.8333 131.5,79.5C 130.167,79.5 128.833,79.5 127.5,79.5C 127.5,78.1667 127.5,76.8333 127.5,75.5C 129.379,74.6586 131.379,74.3253 133.5,74.5C 133.5,73.5 133.5,72.5 133.5,71.5C 133.5,71.1667 133.5,70.8333 133.5,70.5C 132.791,69.596 131.791,69.2627 130.5,69.5C 130.263,68.209 130.596,67.209 131.5,66.5 Z"/></g>
<g><path style="opacity:1" fill="#cce0e3" d="M 187.5,63.5 C 187.037,66.221 186.371,68.8877 185.5,71.5C 184.897,74.3076 183.897,76.9742 182.5,79.5C 181.769,77.5988 181.769,75.5988 182.5,73.5C 183.434,72.4324 183.768,71.099 183.5,69.5C 184.293,67.082 185.626,65.082 187.5,63.5 Z"/></g>
<g><path style="opacity:1" fill="#0b526a" d="M 223.5,68.5 C 223.371,70.2161 223.038,71.8828 222.5,73.5C 221.833,73.5 221.5,73.8333 221.5,74.5C 219.5,74.5 217.5,74.5 215.5,74.5C 216.376,71.7041 217.543,69.0375 219,66.5C 219.414,66.9574 219.914,67.2907 220.5,67.5C 222.738,64.5673 223.738,64.9007 223.5,68.5 Z"/></g>
<g><path style="opacity:1" fill="#6bd4de" d="M 51.5,67.5 C 53.4557,69.5217 54.9557,71.8551 56,74.5C 57.3747,72.0632 57.8747,69.3965 57.5,66.5C 58.8573,71.9115 58.524,77.2448 56.5,82.5C 56.628,80.3453 56.128,78.3453 55,76.5C 53.2927,74.9625 51.7927,73.2959 50.5,71.5C 51.2389,71.631 51.9056,71.4643 52.5,71C 50.5085,67.9639 47.8419,66.2972 44.5,66C 45.7101,67.0391 46.7101,68.2058 47.5,69.5C 46.8333,69.5 46.1667,69.5 45.5,69.5C 44.2112,68.3634 43.2112,67.0301 42.5,65.5C 42.8656,64.3054 43.699,63.6387 45,63.5C 47.707,64.085 49.8736,65.4184 51.5,67.5 Z"/></g>
<g><path style="opacity:1" fill="#8b8b8a" d="M 74.5,74.5 C 76.6074,73.5318 78.9407,73.1984 81.5,73.5C 81.7373,74.791 81.404,75.791 80.5,76.5C 79.0821,74.6921 77.0821,74.0254 74.5,74.5 Z"/></g>
<g><path style="opacity:1" fill="#8e9291" d="M 133.5,71.5 C 133.5,72.5 133.5,73.5 133.5,74.5C 131.379,74.3253 129.379,74.6586 127.5,75.5C 129.279,73.9717 131.279,72.6384 133.5,71.5 Z"/></g>
<g><path style="opacity:1" fill="#a8a9a9" d="M 165.5,74.5 C 168.396,73.2248 171.396,73.2248 174.5,74.5C 174.5,76.8333 174.5,79.1667 174.5,81.5C 173.833,79.5 173.167,77.5 172.5,75.5C 170.393,74.5318 168.059,74.1984 165.5,74.5 Z"/></g>
<g><path style="opacity:1" fill="#2c3e46" d="M 195.5,71.5 C 197.833,71.5 200.167,71.5 202.5,71.5C 202.737,72.791 202.404,73.791 201.5,74.5C 200.5,74.5 199.5,74.5 198.5,74.5C 198.738,78.0993 197.738,78.4327 195.5,75.5C 194.534,77.396 194.201,79.396 194.5,81.5C 193.848,80.5514 193.514,79.3847 193.5,78C 193.482,75.5582 194.149,73.3915 195.5,71.5 Z"/></g>
<g><path style="opacity:1" fill="#47bfc3" d="M 25.5,74.5 C 27.5,75.8333 29.1667,77.5 30.5,79.5C 27.8333,78.8333 26.1667,77.1667 25.5,74.5 Z"/></g>
<g><path style="opacity:1" fill="#1d2427" d="M 192.5,70.5 C 192.221,79.7845 187.555,84.1178 178.5,83.5C 176.938,83.2671 175.605,82.6005 174.5,81.5C 174.5,79.1667 174.5,76.8333 174.5,74.5C 175.404,73.791 175.737,72.791 175.5,71.5C 176.825,70.0474 177.658,70.3808 178,72.5C 180.045,70.9568 181.545,71.2901 182.5,73.5C 181.769,75.5988 181.769,77.5988 182.5,79.5C 183.897,76.9742 184.897,74.3076 185.5,71.5C 186.75,71.5774 187.583,72.244 188,73.5C 189.333,71.8333 190.667,70.1667 192,68.5C 192.464,69.0944 192.631,69.7611 192.5,70.5 Z"/></g>
<g><path style="opacity:1" fill="#daf4fa" d="M 27.5,72.5 C 28.5,73.5 29.5,74.5 30.5,75.5C 31.5736,76.8846 32.9069,78.0513 34.5,79C 33.552,79.4828 32.552,79.6495 31.5,79.5C 31.1667,79.5 30.8333,79.5 30.5,79.5C 29.1667,77.5 27.5,75.8333 25.5,74.5C 25.5,73.1667 26.1667,72.5 27.5,72.5 Z"/></g>
<g><path style="opacity:1" fill="#47c3d7" d="M 38.5,68.5 C 37.3146,69.8566 36.3146,71.3566 35.5,73C 36.8811,76.9415 39.0478,77.4415 42,74.5C 42.7484,72.1599 42.2484,70.1599 40.5,68.5C 41.4959,68.4142 42.3292,68.7476 43,69.5C 43.2321,70.7375 43.7321,71.7375 44.5,72.5C 44.4431,73.609 44.1098,74.609 43.5,75.5C 42.1805,76.9418 40.5138,77.6085 38.5,77.5C 37.0779,77.7496 36.0779,78.583 35.5,80C 33.9343,80.765 32.6009,80.5983 31.5,79.5C 32.552,79.6495 33.552,79.4828 34.5,79C 32.9069,78.0513 31.5736,76.8846 30.5,75.5C 32.1368,76.2178 33.8034,76.3845 35.5,76C 34.232,73.8368 34.232,71.6702 35.5,69.5C 36.391,68.8902 37.391,68.5569 38.5,68.5 Z"/></g>
<g><path style="opacity:1" fill="#eaf8f4" d="M 38.5,68.5 C 39.1667,68.5 39.8333,68.5 40.5,68.5C 42.2484,70.1599 42.7484,72.1599 42,74.5C 39.0478,77.4415 36.8811,76.9415 35.5,73C 36.3146,71.3566 37.3146,69.8566 38.5,68.5 Z"/></g>
<g><path style="opacity:1" fill="#202428" d="M 94.5,65.5 C 95.8333,66.1667 96.8333,67.1667 97.5,68.5C 96.1667,70.8333 94.8333,73.1667 93.5,75.5C 92.0762,77.5145 91.4095,79.8478 91.5,82.5C 89.8333,82.5 88.1667,82.5 86.5,82.5C 86.5,81.5 86.5,80.5 86.5,79.5C 87.2721,75.5483 87.6054,71.5483 87.5,67.5C 88.9587,67.5674 90.2921,67.2341 91.5,66.5C 92.8597,69.0155 93.8597,68.6822 94.5,65.5 Z"/></g>
<g><path style="opacity:1" fill="#1d2021" d="M 151.5,72.5 C 151.249,76.2488 150.583,79.9155 149.5,83.5C 147.076,83.8076 144.743,83.4742 142.5,82.5C 144.281,79.221 144.947,75.8876 144.5,72.5C 142.002,75.6549 140.668,79.3216 140.5,83.5C 138.076,83.8076 135.743,83.4742 133.5,82.5C 134.708,78.8777 135.708,75.211 136.5,71.5C 136.833,71.5 137.167,71.5 137.5,71.5C 138.117,71.6107 138.617,71.944 139,72.5C 141.068,71.6064 143.235,70.9397 145.5,70.5C 147.325,71.6511 149.325,72.3178 151.5,72.5 Z"/></g>
<g><path style="opacity:1" fill="#1198d3" d="M 45.5,69.5 C 46.1667,69.5 46.8333,69.5 47.5,69.5C 48.7095,69.9321 49.7095,70.5987 50.5,71.5C 51.7927,73.2959 53.2927,74.9625 55,76.5C 56.128,78.3453 56.628,80.3453 56.5,82.5C 55.5987,83.2905 54.9321,84.2905 54.5,85.5C 52.4362,85.7619 51.1029,86.9286 50.5,89C 49.552,89.4828 48.552,89.6495 47.5,89.5C 48.1408,88.5178 48.8075,87.5178 49.5,86.5C 46.6765,82.3008 47.3432,81.6342 51.5,84.5C 52.4287,83.3112 52.762,81.9778 52.5,80.5C 53.552,80.6495 54.552,80.4828 55.5,80C 54.354,79.3551 53.354,78.5217 52.5,77.5C 51.6143,78.325 51.281,79.325 51.5,80.5C 50.1667,80.5 48.8333,80.5 47.5,80.5C 47.7678,78.901 47.4345,77.5676 46.5,76.5C 45.209,76.7373 44.209,76.404 43.5,75.5C 44.1098,74.609 44.4431,73.609 44.5,72.5C 44.2627,71.209 44.596,70.209 45.5,69.5 Z"/></g>
<g><path style="opacity:1" fill="#262728" d="M 73.5,63.5 C 72.5828,68.0036 71.5828,72.5036 70.5,77C 70.8333,77.8333 71.1667,78.6667 71.5,79.5C 72.6963,77.8554 73.6963,76.1887 74.5,74.5C 77.0821,74.0254 79.0821,74.6921 80.5,76.5C 79.7974,78.7157 78.4641,80.549 76.5,82C 72.5935,83.434 68.5935,83.7673 64.5,83C 63.1057,81.2605 62.4391,79.2605 62.5,77C 63.3537,73.4589 64.3537,69.9589 65.5,66.5C 66.7498,66.4226 67.5831,65.756 68,64.5C 68.3879,65.428 69.0546,66.0946 70,66.5C 71.1739,65.4558 72.3406,64.4558 73.5,63.5 Z"/></g>
<g><path style="opacity:1" fill="#181a1a" d="M 205.5,71.5 C 206.265,72.6602 207.265,73.6602 208.5,74.5C 210.214,73.3915 210.881,74.0582 210.5,76.5C 210.371,78.2161 210.038,79.8828 209.5,81.5C 204.402,84.0393 199.402,84.0393 194.5,81.5C 194.201,79.396 194.534,77.396 195.5,75.5C 197.738,78.4327 198.738,78.0993 198.5,74.5C 199.5,74.5 200.5,74.5 201.5,74.5C 201.481,76.0603 201.148,77.5603 200.5,79C 200.85,80.2575 201.517,80.5908 202.5,80C 204.035,77.3617 205.035,74.5283 205.5,71.5 Z"/></g>
<g><path style="opacity:1" fill="#9fa5a9" d="M 222.5,73.5 C 222.5,75.1667 222.5,76.8333 222.5,78.5C 223.5,78.5 224.5,78.5 225.5,78.5C 225.768,80.099 225.434,81.4324 224.5,82.5C 224.5,81.5 224.5,80.5 224.5,79.5C 223.167,79.5 221.833,79.5 220.5,79.5C 220.629,77.7839 220.962,76.1172 221.5,74.5C 221.5,73.8333 221.833,73.5 222.5,73.5 Z"/></g>
<g><path style="opacity:1" fill="#199fbc" d="M 43.5,75.5 C 44.209,76.404 45.209,76.7373 46.5,76.5C 47.3294,83.2609 44.3294,86.9276 37.5,87.5C 39.5901,85.6098 41.9235,83.9431 44.5,82.5C 45.8333,80.8333 45.8333,79.1667 44.5,77.5C 43.8165,77.8627 43.1499,78.1961 42.5,78.5C 40.901,78.7678 39.5676,78.4345 38.5,77.5C 40.5138,77.6085 42.1805,76.9418 43.5,75.5 Z"/></g>
<g><path style="opacity:1" fill="#232425" d="M 122.5,70.5 C 123.807,71.1534 125.14,71.8201 126.5,72.5C 128.51,70.8287 130.843,70.162 133.5,70.5C 133.5,70.8333 133.5,71.1667 133.5,71.5C 131.279,72.6384 129.279,73.9717 127.5,75.5C 127.5,76.8333 127.5,78.1667 127.5,79.5C 128.833,79.5 130.167,79.5 131.5,79.5C 131.5,80.8333 131.5,82.1667 131.5,83.5C 127.5,83.5 123.5,83.5 119.5,83.5C 120.008,79.8026 120.674,76.1359 121.5,72.5C 121.833,71.8333 122.167,71.1667 122.5,70.5 Z"/></g>
<g><path style="opacity:1" fill="#1d1f1f" d="M 156.5,68.5 C 157.659,69.4558 158.826,70.4558 160,71.5C 161.653,71.1802 162.653,70.1802 163,68.5C 163.399,68.7284 163.565,69.0618 163.5,69.5C 162.518,72.7635 161.851,76.0968 161.5,79.5C 164.47,79.2542 165.803,77.5876 165.5,74.5C 168.059,74.1984 170.393,74.5318 172.5,75.5C 169.466,82.3509 164.133,85.0176 156.5,83.5C 155.03,81.8405 154.363,79.8405 154.5,77.5C 154.879,74.4175 155.546,71.4175 156.5,68.5 Z"/></g>
<g><path style="opacity:1" fill="#232425" d="M 102.5,69.5 C 105.016,69.7553 107.35,70.5886 109.5,72C 108.944,72.3826 108.611,72.8826 108.5,73.5C 107.207,75.3635 107.207,77.3635 108.5,79.5C 109.425,78.6431 110.092,77.6431 110.5,76.5C 111.434,75.4324 111.768,74.099 111.5,72.5C 113.167,72.5 114.833,72.5 116.5,72.5C 118.054,75.9852 117.387,79.1518 114.5,82C 111.274,83.1989 107.941,83.6989 104.5,83.5C 102.396,83.7989 100.396,83.4656 98.5,82.5C 100.086,78.2255 101.42,73.8922 102.5,69.5 Z"/></g>
<g><path style="opacity:1" fill="#d3d3d2" d="M 108.5,73.5 C 110.048,73.8212 110.715,74.8212 110.5,76.5C 110.092,77.6431 109.425,78.6431 108.5,79.5C 107.207,77.3635 107.207,75.3635 108.5,73.5 Z"/></g>
<g><path style="opacity:1" fill="#dae0e1" d="M 191.5,60.5 C 191.5,60.1667 191.5,59.8333 191.5,59.5C 192.552,59.3505 193.552,59.5172 194.5,60C 194.974,61.7286 195.974,62.8953 197.5,63.5C 197.5,64.1667 197.5,64.8333 197.5,65.5C 196.27,67.2972 195.604,69.2972 195.5,71.5C 194.149,73.3915 193.482,75.5582 193.5,78C 193.514,79.3847 193.848,80.5514 194.5,81.5C 199.402,84.0393 204.402,84.0393 209.5,81.5C 208.047,82.8249 208.381,83.6582 210.5,84C 209,85.1145 207.333,85.9479 205.5,86.5C 204.304,86.1543 204.304,85.6543 205.5,85C 201.911,84.7931 198.411,84.2931 195,83.5C 194,86.1667 193,86.1667 192,83.5C 190.915,84.2931 189.748,84.9598 188.5,85.5C 185.029,84.9027 181.695,84.236 178.5,83.5C 187.555,84.1178 192.221,79.7845 192.5,70.5C 193.404,69.791 193.737,68.791 193.5,67.5C 194.622,65.7116 194.789,63.7116 194,61.5C 193.329,60.7476 192.496,60.4142 191.5,60.5 Z"/></g>
<g><path style="opacity:1" fill="#1d1e1f" d="M 215.5,74.5 C 217.5,74.5 219.5,74.5 221.5,74.5C 220.962,76.1172 220.629,77.7839 220.5,79.5C 221.833,79.5 223.167,79.5 224.5,79.5C 224.5,80.5 224.5,81.5 224.5,82.5C 220.649,83.8095 216.649,83.8095 212.5,82.5C 213.946,80.3821 214.613,78.0488 214.5,75.5C 215.167,75.5 215.5,75.1667 215.5,74.5 Z"/></g>
<g><path style="opacity:1" fill="#a3eaed" d="M 37.5,87.5 C 34.733,87.8702 32.733,89.2036 31.5,91.5C 29.1853,90.4561 27.1853,89.1228 25.5,87.5C 33.0487,87.8941 38.7154,84.8941 42.5,78.5C 43.1499,78.1961 43.8165,77.8627 44.5,77.5C 45.8333,79.1667 45.8333,80.8333 44.5,82.5C 41.9235,83.9431 39.5901,85.6098 37.5,87.5 Z"/></g>
<g><path style="opacity:1" fill="#656566" d="M 93.5,75.5 C 93.1667,78.1667 92.8333,80.8333 92.5,83.5C 90.1667,83.5 87.8333,83.5 85.5,83.5C 85.2322,81.901 85.5655,80.5676 86.5,79.5C 86.5,80.5 86.5,81.5 86.5,82.5C 88.1667,82.5 89.8333,82.5 91.5,82.5C 91.4095,79.8478 92.0762,77.5145 93.5,75.5 Z"/></g>
<g><path style="opacity:1" fill="#1297d3" d="M 20.5,68.5 C 22.5158,70.249 24.1825,72.249 25.5,74.5C 26.1667,77.1667 27.8333,78.8333 30.5,79.5C 30.8333,79.5 31.1667,79.5 31.5,79.5C 32.6009,80.5983 33.9343,80.765 35.5,80C 36.0779,78.583 37.0779,77.7496 38.5,77.5C 39.5676,78.4345 40.901,78.7678 42.5,78.5C 38.7154,84.8941 33.0487,87.8941 25.5,87.5C 23.8557,84.9955 22.3557,82.3289 21,79.5C 20.5014,75.8484 20.3347,72.1817 20.5,68.5 Z"/></g>
<g><path style="opacity:1" fill="#0896e6" d="M 46.5,76.5 C 47.4345,77.5676 47.7678,78.901 47.5,80.5C 48.8333,80.5 50.1667,80.5 51.5,80.5C 51.281,79.325 51.6143,78.325 52.5,77.5C 53.354,78.5217 54.354,79.3551 55.5,80C 54.552,80.4828 53.552,80.6495 52.5,80.5C 52.762,81.9778 52.4287,83.3112 51.5,84.5C 47.3432,81.6342 46.6765,82.3008 49.5,86.5C 48.8075,87.5178 48.1408,88.5178 47.5,89.5C 44.5941,89.9157 41.7607,90.5824 39,91.5C 37.8333,91.1667 36.6667,90.8333 35.5,90.5C 36.1925,89.4822 36.8592,88.4822 37.5,87.5C 44.3294,86.9276 47.3294,83.2609 46.5,76.5 Z"/></g>
<g><path style="opacity:1" fill="#1ea5c3" d="M 37.5,87.5 C 36.8592,88.4822 36.1925,89.4822 35.5,90.5C 36.6667,90.8333 37.8333,91.1667 39,91.5C 41.7607,90.5824 44.5941,89.9157 47.5,89.5C 47.1193,90.9311 46.1193,91.7645 44.5,92C 40.1132,92.7062 35.7799,92.5396 31.5,91.5C 32.733,89.2036 34.733,87.8702 37.5,87.5 Z"/></g>
<g><path style="opacity:1" fill="#cef7f3" d="M 54.5,85.5 C 49.9151,93.4901 42.9151,96.6568 33.5,95C 33.8333,94.6667 34.1667,94.3333 34.5,94C 32.8807,93.7645 31.8807,92.9311 31.5,91.5C 35.7799,92.5396 40.1132,92.7062 44.5,92C 46.1193,91.7645 47.1193,90.9311 47.5,89.5C 48.552,89.6495 49.552,89.4828 50.5,89C 51.1029,86.9286 52.4362,85.7619 54.5,85.5 Z"/></g>
</svg>
