<?xml version="1.0" encoding="UTF-8"?>
<!DOCTYPE svg PUBLIC "-//W3C//DTD SVG 1.1//EN" "http://www.w3.org/Graphics/SVG/1.1/DTD/svg11.dtd">
<svg xmlns="http://www.w3.org/2000/svg" version="1.1" width="225px" height="225px" style="shape-rendering:geometricPrecision; text-rendering:geometricPrecision; image-rendering:optimizeQuality; fill-rule:evenodd; clip-rule:evenodd" xmlns:xlink="http://www.w3.org/1999/xlink">
<g><path style="opacity:1" fill="#fefefe" d="M -0.5,-0.5 C 74.5,-0.5 149.5,-0.5 224.5,-0.5C 224.5,74.5 224.5,149.5 224.5,224.5C 149.5,224.5 74.5,224.5 -0.5,224.5C -0.5,149.5 -0.5,74.5 -0.5,-0.5 Z"/></g>
<g><path style="opacity:1" fill="#3a397f" d="M 143.5,28.5 C 140.031,29.6324 136.697,29.1324 133.5,27C 120.785,26.1025 108.118,26.4359 95.5,28C 100.741,29.3237 106.075,30.3237 111.5,31C 105.202,31.9413 99.0353,31.4413 93,29.5C 89.3258,31.0944 85.4925,31.761 81.5,31.5C 101.781,22.1699 122.447,21.1699 143.5,28.5 Z"/></g>
<g><path style="opacity:1" fill="#f0f1ee" d="M 111.5,19.5 C 113.304,18.838 115.304,18.5046 117.5,18.5C 129.837,20.0042 142.171,21.3375 154.5,22.5C 154.215,24.288 154.548,25.9547 155.5,27.5C 157.861,25.5455 160.528,24.7122 163.5,25C 162.427,26.5944 161.427,28.0944 160.5,29.5C 161.868,30.5937 163.035,30.2603 164,28.5C 163.149,31.968 164.483,32.968 168,31.5C 173.311,32.3005 175.811,35.3005 175.5,40.5C 179.488,42.9655 183.155,46.1322 186.5,50C 187.449,50.6172 188.282,50.4506 189,49.5C 189,50.8333 189,52.1667 189,53.5C 191.826,56.4835 194.159,59.8168 196,63.5C 197,63.8333 198,64.1667 199,64.5C 200.016,68.9215 201.349,73.2548 203,77.5C 204.11,79.0368 205.61,79.7035 207.5,79.5C 207.428,82.1933 207.095,84.8599 206.5,87.5C 210.439,103.014 210.439,118.514 206.5,134C 207.129,136.173 206.462,138.173 204.5,140C 207.138,143.716 207.972,148.216 207,153.5C 207.107,150.443 205.94,148.109 203.5,146.5C 202.833,146.833 202.167,147.167 201.5,147.5C 199.436,151 198.603,154.666 199,158.5C 198,158.833 197,159.167 196,159.5C 191.471,167.369 185.804,174.369 179,180.5C 178.383,181.449 178.549,182.282 179.5,183C 178.167,183 176.833,183 175.5,183C 174.044,184.745 172.711,186.578 171.5,188.5C 170.5,189.833 169.5,189.833 168.5,188.5C 167.3,189.531 165.966,190.365 164.5,191C 164.018,192.008 163.852,193.175 164,194.5C 163.311,193.643 162.478,192.977 161.5,192.5C 160.41,193.727 159.076,194.56 157.5,195C 157.833,195.333 158.167,195.667 158.5,196C 157.167,196 155.833,196 154.5,196C 153.167,196.667 153.167,197.333 154.5,198C 153.328,198.419 152.328,199.085 151.5,200C 146.771,200.273 142.104,200.939 137.5,202C 137.167,202.333 136.833,202.667 136.5,203C 138.746,204.039 140.913,205.206 143,206.5C 145.545,205.203 148.045,205.369 150.5,207C 146.33,207.325 142.33,207.491 138.5,207.5C 135.539,206.817 135.205,205.984 137.5,205C 136.667,204.833 135.833,204.667 135,204.5C 127.015,205.768 119.181,205.768 111.5,204.5C 117.871,204.512 124.204,204.012 130.5,203C 121.5,202.667 112.5,202.333 103.5,202C 99.0566,201.472 94.7232,200.472 90.5,199C 93.0356,198.814 95.369,198.314 97.5,197.5C 98.5,197.5 99.5,197.5 100.5,197.5C 101.058,198.79 102.058,199.623 103.5,200C 117.42,202.312 130.42,201.645 142.5,198C 144.063,197.241 145.063,196.074 145.5,194.5C 157.106,190.533 167.106,184.2 175.5,175.5C 178.811,174.189 181.145,171.855 182.5,168.5C 187.645,164.218 191.312,158.885 193.5,152.5C 195.625,149.912 196.958,146.912 197.5,143.5C 198.338,143.158 198.672,142.492 198.5,141.5C 207.782,116.762 206.115,92.7617 193.5,69.5C 189.333,61.0004 183.666,53.667 176.5,47.5C 176.167,47.5 175.833,47.5 175.5,47.5C 168.417,40.1152 160.083,34.4485 150.5,30.5C 150.586,29.5041 150.252,28.6708 149.5,28C 144.977,26.2025 140.31,25.0359 135.5,24.5C 135.5,23.5 135.5,22.5 135.5,21.5C 127.518,20.6531 119.518,19.9865 111.5,19.5 Z"/></g>
<g><path style="opacity:1" fill="#303180" d="M 143.5,28.5 C 145.921,28.8782 148.254,29.5448 150.5,30.5C 160.083,34.4485 168.417,40.1152 175.5,47.5C 173.712,47.7852 172.045,47.4519 170.5,46.5C 167.675,41.6311 164.341,41.2978 160.5,45.5C 147.305,43.3052 147.638,41.6385 161.5,40.5C 161.67,39.1779 161.337,38.0113 160.5,37C 154.151,35.3927 148.484,32.5594 143.5,28.5 Z"/></g>
<g><path style="opacity:1" fill="#303287" d="M 79.5,32.5 C 79.5,33.8333 79.5,35.1667 79.5,36.5C 78.0222,36.238 76.6888,36.5713 75.5,37.5C 73.3551,39.1435 71.3551,40.9769 69.5,43C 70.34,44.7674 71.6734,46.1007 73.5,47C 70.1832,47.4983 66.8499,47.665 63.5,47.5C 63.3318,50.7569 62.3318,53.7569 60.5,56.5C 59.8333,56.8333 59.1667,57.1667 58.5,57.5C 56.952,55.6236 54.952,54.6236 52.5,54.5C 52.5,56.5 52.5,58.5 52.5,60.5C 53.5,60.5 54.5,60.5 55.5,60.5C 55.5,61.5 55.5,62.5 55.5,63.5C 53.8333,63.5 52.1667,63.5 50.5,63.5C 50.5,62.5 50.5,61.5 50.5,60.5C 48.8333,60.5 47.1667,60.5 45.5,60.5C 54.1685,47.8454 65.5018,38.5121 79.5,32.5 Z"/></g>
<g><path style="opacity:1" fill="#303388" d="M 176.5,47.5 C 183.666,53.667 189.333,61.0004 193.5,69.5C 187.598,71.2004 185.264,69.0337 186.5,63C 185.975,62.3076 185.308,61.8076 184.5,61.5C 182.401,63.5202 180.067,63.8535 177.5,62.5C 178.347,61.1552 179.513,60.1552 181,59.5C 181.167,58.5 181.333,57.5 181.5,56.5C 179.445,53.7628 177.779,50.7628 176.5,47.5 Z"/></g>
<g><path style="opacity:1" fill="#313276" d="M 45.5,61.5 C 46.1421,65.8618 44.6421,69.1952 41,71.5C 40.2223,74.1838 38.8889,76.5172 37,78.5C 35.2565,81.9567 34.2565,85.6233 34,89.5C 33.5831,90.756 32.7498,91.4226 31.5,91.5C 34.0443,80.4163 38.711,70.4163 45.5,61.5 Z"/></g>
<g><path style="opacity:1" fill="#e9ebed" d="M 111.5,19.5 C 119.518,19.9865 127.518,20.6531 135.5,21.5C 135.5,22.5 135.5,23.5 135.5,24.5C 140.31,25.0359 144.977,26.2025 149.5,28C 150.252,28.6708 150.586,29.5041 150.5,30.5C 148.254,29.5448 145.921,28.8782 143.5,28.5C 122.447,21.1699 101.781,22.1699 81.5,31.5C 80.5084,31.3284 79.8417,31.6618 79.5,32.5C 65.5018,38.5121 54.1685,47.8454 45.5,60.5C 45.5,60.8333 45.5,61.1667 45.5,61.5C 38.711,70.4163 34.0443,80.4163 31.5,91.5C 28.6156,105.598 28.9489,119.598 32.5,133.5C 35.6954,147.227 42.0287,159.227 51.5,169.5C 56.3266,176.001 62.3266,181.001 69.5,184.5C 72.9758,187.623 76.9758,189.957 81.5,191.5C 86.6339,194.068 91.9672,196.068 97.5,197.5C 95.369,198.314 93.0356,198.814 90.5,199C 94.7232,200.472 99.0566,201.472 103.5,202C 112.5,202.333 121.5,202.667 130.5,203C 124.204,204.012 117.871,204.512 111.5,204.5C 110.551,203.848 109.385,203.514 108,203.5C 106.461,205.162 103.961,205.662 100.5,205C 99.3659,203.984 99.6992,203.317 101.5,203C 91.9272,201.423 82.5939,198.257 73.5,193.5C 70.9142,194.21 68.9142,193.21 67.5,190.5C 66.2836,191.002 65.1169,191.335 64,191.5C 63.5439,190.256 64.0439,189.423 65.5,189C 63.4259,189.227 61.4259,189.061 59.5,188.5C 59.3903,186.902 59.057,185.235 58.5,183.5C 39.2339,168.673 28.4006,148.673 26,123.5C 26.2189,124.938 26.7189,126.271 27.5,127.5C 28.8333,116.833 28.8333,106.167 27.5,95.5C 26.1582,98.3206 25.4916,98.1539 25.5,95C 26.6255,92.0223 26.6255,89.0223 25.5,86C 25.6667,84.8333 25.8333,83.6667 26,82.5C 26.3333,84.1667 26.6667,85.8333 27,87.5C 30.8224,74.1861 36.9891,62.1861 45.5,51.5C 44.7542,50.2638 44.4208,48.9305 44.5,47.5C 45.5,47.5 46.5,47.5 47.5,47.5C 47.5,46.5 47.5,45.5 47.5,44.5C 50.4299,45.7875 52.7632,45.2875 54.5,43C 70.0886,28.591 89.0886,20.7577 111.5,19.5 Z"/></g>
<g><path style="opacity:1" fill="#333479" d="M 193.5,69.5 C 206.115,92.7617 207.782,116.762 198.5,141.5C 200.557,132.06 201.89,122.393 202.5,112.5C 201.967,106.842 201.634,101.175 201.5,95.5C 200.167,95.5 198.833,95.5 197.5,95.5C 197.5,90.1667 197.5,84.8333 197.5,79.5C 195.5,79.5 193.5,79.5 191.5,79.5C 192.876,76.342 193.542,73.0087 193.5,69.5 Z"/></g>
<g><path style="opacity:1" fill="#2e3093" d="M 143.5,28.5 C 148.484,32.5594 154.151,35.3927 160.5,37C 161.337,38.0113 161.67,39.1779 161.5,40.5C 147.638,41.6385 147.305,43.3052 160.5,45.5C 164.341,41.2978 167.675,41.6311 170.5,46.5C 172.045,47.4519 173.712,47.7852 175.5,47.5C 175.833,47.5 176.167,47.5 176.5,47.5C 177.779,50.7628 179.445,53.7628 181.5,56.5C 181.333,57.5 181.167,58.5 181,59.5C 179.513,60.1552 178.347,61.1552 177.5,62.5C 180.067,63.8535 182.401,63.5202 184.5,61.5C 185.308,61.8076 185.975,62.3076 186.5,63C 185.264,69.0337 187.598,71.2004 193.5,69.5C 193.542,73.0087 192.876,76.342 191.5,79.5C 193.5,79.5 195.5,79.5 197.5,79.5C 197.5,84.8333 197.5,90.1667 197.5,95.5C 198.833,95.5 200.167,95.5 201.5,95.5C 201.634,101.175 201.967,106.842 202.5,112.5C 201.89,122.393 200.557,132.06 198.5,141.5C 198.672,142.492 198.338,143.158 197.5,143.5C 195.396,143.201 193.396,143.534 191.5,144.5C 193.229,146.851 193.896,149.518 193.5,152.5C 186.033,148.572 182.033,150.905 181.5,159.5C 176.273,161.955 176.273,163.955 181.5,165.5C 181.703,163.362 182.703,161.695 184.5,160.5C 185.5,159.167 186.5,159.167 187.5,160.5C 185.311,162.887 183.644,165.553 182.5,168.5C 181.145,171.855 178.811,174.189 175.5,175.5C 173.5,175.5 171.5,175.5 169.5,175.5C 169.5,177.167 169.5,178.833 169.5,180.5C 167.94,180.519 166.44,180.852 165,181.5C 160.501,178.653 155.668,177.986 150.5,179.5C 153.572,181.272 156.905,182.439 160.5,183C 161.833,184 161.833,185 160.5,186C 158.5,186.5 156.5,187 154.5,187.5C 151.611,190.112 148.278,191.945 144.5,193C 139.318,193.131 134.318,194.131 129.5,196C 122.48,196.279 115.48,196.779 108.5,197.5C 101.814,196.554 95.4804,194.72 89.5,192C 86.854,191.503 84.1873,191.336 81.5,191.5C 76.9758,189.957 72.9758,187.623 69.5,184.5C 69.5482,181.365 71.2148,179.698 74.5,179.5C 71.142,177.321 67.4753,175.988 63.5,175.5C 63.4249,172.794 63.0916,170.127 62.5,167.5C 58.9517,168.702 55.285,169.369 51.5,169.5C 51.2011,167.396 51.5344,165.396 52.5,163.5C 54.5499,162.923 55.5499,161.59 55.5,159.5C 54.1667,159.5 52.8333,159.5 51.5,159.5C 51.5,160.5 51.5,161.5 51.5,162.5C 50.1667,162.5 48.8333,162.5 47.5,162.5C 47.5,161.5 47.5,160.5 47.5,159.5C 46.5,159.5 45.5,159.5 44.5,159.5C 43.005,156.471 41.6717,153.304 40.5,150C 40.4235,147.244 41.7569,146.077 44.5,146.5C 44.5,145.5 44.5,144.5 44.5,143.5C 38.1922,144.545 35.0256,141.878 35,135.5C 34.2917,134.619 33.4584,133.953 32.5,133.5C 28.9489,119.598 28.6156,105.598 31.5,91.5C 32.7498,91.4226 33.5831,90.756 34,89.5C 34.2565,85.6233 35.2565,81.9567 37,78.5C 38.8889,76.5172 40.2223,74.1838 41,71.5C 44.6421,69.1952 46.1421,65.8618 45.5,61.5C 45.5,61.1667 45.5,60.8333 45.5,60.5C 47.1667,60.5 48.8333,60.5 50.5,60.5C 50.5,61.5 50.5,62.5 50.5,63.5C 52.1667,63.5 53.8333,63.5 55.5,63.5C 55.5,62.5 55.5,61.5 55.5,60.5C 54.5,60.5 53.5,60.5 52.5,60.5C 52.5,58.5 52.5,56.5 52.5,54.5C 54.952,54.6236 56.952,55.6236 58.5,57.5C 59.1667,57.1667 59.8333,56.8333 60.5,56.5C 62.3318,53.7569 63.3318,50.7569 63.5,47.5C 66.8499,47.665 70.1832,47.4983 73.5,47C 71.6734,46.1007 70.34,44.7674 69.5,43C 71.3551,40.9769 73.3551,39.1435 75.5,37.5C 76.6888,36.5713 78.0222,36.238 79.5,36.5C 79.5,35.1667 79.5,33.8333 79.5,32.5C 79.8417,31.6618 80.5084,31.3284 81.5,31.5C 85.4925,31.761 89.3258,31.0944 93,29.5C 99.0353,31.4413 105.202,31.9413 111.5,31C 106.075,30.3237 100.741,29.3237 95.5,28C 108.118,26.4359 120.785,26.1025 133.5,27C 136.697,29.1324 140.031,29.6324 143.5,28.5 Z"/></g>
<g><path style="opacity:1" fill="#2a2c71" d="M 156.5,116.5 C 156.577,119.509 155.244,121.676 152.5,123C 146.838,123.243 141.172,123.076 135.5,122.5C 131.75,122.76 128.084,123.427 124.5,124.5C 122.058,124.714 120.392,123.714 119.5,121.5C 122.187,121.664 124.854,121.497 127.5,121C 126.619,120.292 125.953,119.458 125.5,118.5C 126.833,118.167 128.167,117.833 129.5,117.5C 129.5,118.833 129.5,120.167 129.5,121.5C 136.022,121.823 142.355,121.49 148.5,120.5C 151.962,120.474 154.629,119.141 156.5,116.5 Z"/></g>
<g><path style="opacity:1" fill="#323074" d="M 190.5,108.5 C 190.33,109.822 190.663,110.989 191.5,112C 189.68,113.805 188.514,115.972 188,118.5C 185.622,119.911 183.122,121.077 180.5,122C 175.447,122.217 170.447,122.717 165.5,123.5C 163.137,120.749 161.137,117.749 159.5,114.5C 166.868,122.296 175.202,123.463 184.5,118C 187.163,115.157 189.163,111.991 190.5,108.5 Z"/></g>
<g><path style="opacity:1" fill="#f1f3f7" d="M 118.5,92.5 C 120.607,91.5318 122.941,91.1984 125.5,91.5C 125.567,92.9587 125.234,94.2921 124.5,95.5C 121.121,98.5674 118.454,102.234 116.5,106.5C 119.524,110.518 122.524,114.518 125.5,118.5C 125.953,119.458 126.619,120.292 127.5,121C 124.854,121.497 122.187,121.664 119.5,121.5C 117.417,118.349 115.084,115.349 112.5,112.5C 110.663,114.176 109.33,116.176 108.5,118.5C 105.711,121.36 102.378,122.027 98.5,120.5C 101.833,115.833 105.167,111.167 108.5,106.5C 107.143,104.814 105.81,103.148 104.5,101.5C 108.745,104.083 113.078,104.083 117.5,101.5C 119.454,98.5863 121.12,95.5863 122.5,92.5C 121.167,92.5 119.833,92.5 118.5,92.5 Z"/></g>
<g><path style="opacity:1" fill="#c5c6e9" d="M 129.5,103.5 C 130.489,108.975 130.822,114.642 130.5,120.5C 136.5,120.5 142.5,120.5 148.5,120.5C 142.355,121.49 136.022,121.823 129.5,121.5C 129.5,120.167 129.5,118.833 129.5,117.5C 129.5,112.833 129.5,108.167 129.5,103.5 Z"/></g>
<g><path style="opacity:1" fill="#302d86" d="M 124.5,95.5 C 126.167,95.5 127.833,95.5 129.5,95.5C 129.5,98.1667 129.5,100.833 129.5,103.5C 129.5,108.167 129.5,112.833 129.5,117.5C 128.167,117.833 126.833,118.167 125.5,118.5C 122.524,114.518 119.524,110.518 116.5,106.5C 118.454,102.234 121.121,98.5674 124.5,95.5 Z"/></g>
<g><path style="opacity:1" fill="#333480" d="M 99.5,95.5 C 101.633,97.0905 103.299,99.0905 104.5,101.5C 105.81,103.148 107.143,104.814 108.5,106.5C 105.167,111.167 101.833,115.833 98.5,120.5C 102.378,122.027 105.711,121.36 108.5,118.5C 108.108,122.391 105.941,124.391 102,124.5C 93.4053,122.844 84.9053,123.178 76.5,125.5C 74.4115,125.38 73.0782,124.38 72.5,122.5C 80.1667,122.5 87.8333,122.5 95.5,122.5C 95.5,120.5 95.5,118.5 95.5,116.5C 90.1667,116.5 84.8333,116.5 79.5,116.5C 79.5,114.833 79.5,113.167 79.5,111.5C 83.9707,112.089 87.9707,111.423 91.5,109.5C 92.4511,108.081 92.7845,106.415 92.5,104.5C 87.9677,104.818 83.6344,104.485 79.5,103.5C 79.5,101.833 79.5,100.167 79.5,98.5C 84.5,98.5 89.5,98.5 94.5,98.5C 95.397,97.4019 96.2303,97.4019 97,98.5C 98.045,97.6266 98.8783,96.6266 99.5,95.5 Z"/></g>
<g><path style="opacity:1" fill="#f5f6f6" d="M 129.5,91.5 C 129.833,91.5 130.167,91.5 130.5,91.5C 137.615,91.0753 144.615,91.5753 151.5,93C 156.479,96.7452 156.812,100.912 152.5,105.5C 156.418,108.318 157.752,111.985 156.5,116.5C 154.629,119.141 151.962,120.474 148.5,120.5C 142.5,120.5 136.5,120.5 130.5,120.5C 130.822,114.642 130.489,108.975 129.5,103.5C 129.5,100.833 129.5,98.1667 129.5,95.5C 129.5,94.1667 129.5,92.8333 129.5,91.5 Z"/></g>
<g><path style="opacity:1" fill="#37346d" d="M 136.5,108.5 C 140.881,108.372 145.215,108.705 149.5,109.5C 149.739,111.467 149.406,113.301 148.5,115C 144.514,115.499 140.514,115.666 136.5,115.5C 136.5,113.167 136.5,110.833 136.5,108.5 Z"/></g>
<g><path style="opacity:1" fill="#312e8b" d="M 139.5,109.5 C 143.08,108.923 146.08,109.923 148.5,112.5C 144.973,113.921 141.306,114.588 137.5,114.5C 137.365,112.446 138.032,110.779 139.5,109.5 Z"/></g>
<g><path style="opacity:1" fill="#343d6c" d="M 91.5,109.5 C 87.9707,111.423 83.9707,112.089 79.5,111.5C 83.0293,109.577 87.0293,108.911 91.5,109.5 Z"/></g>
<g><path style="opacity:1" fill="#f2f3f4" d="M 59.5,92.5 C 61.4261,93.4861 63.4261,94.4861 65.5,95.5C 70.751,101.504 71.751,108.17 68.5,115.5C 66.5795,118.587 63.9128,120.754 60.5,122C 53.1742,122.5 45.8409,122.666 38.5,122.5C 38.5,121.5 38.5,120.5 38.5,119.5C 43.0361,119.85 47.3694,119.183 51.5,117.5C 53.6404,115.3 55.1404,112.633 56,109.5C 57.5,108 59,106.5 60.5,105C 58.3822,104.365 56.3822,103.531 54.5,102.5C 45.56,104.705 40.2267,101.372 38.5,92.5C 45.5,92.5 52.5,92.5 59.5,92.5 Z"/></g>
<g><path style="opacity:1" fill="#f1f1f5" d="M 168.5,90.5 C 182.222,88.8999 189.555,94.8999 190.5,108.5C 189.163,111.991 187.163,115.157 184.5,118C 175.202,123.463 166.868,122.296 159.5,114.5C 155.182,103.796 158.182,95.7958 168.5,90.5 Z"/></g>
<g><path style="opacity:1" fill="#302d98" d="M 181.5,109.5 C 181.672,110.492 181.338,111.158 180.5,111.5C 178.357,109.231 176.69,106.564 175.5,103.5C 173.833,103.5 172.167,103.5 170.5,103.5C 170.5,105.5 170.5,107.5 170.5,109.5C 171.93,109.579 173.264,109.246 174.5,108.5C 175.262,109.628 175.929,110.795 176.5,112C 173.151,112.388 169.817,112.221 166.5,111.5C 166.5,111.167 166.5,110.833 166.5,110.5C 166.5,107.167 166.5,103.833 166.5,100.5C 166.5,99.8333 166.833,99.5 167.5,99.5C 176.474,96.8159 181.141,100.149 181.5,109.5 Z"/></g>
<g><path style="opacity:1" fill="#313382" d="M 180.5,111.5 C 177.324,115.456 173.324,116.289 168.5,114C 167.619,113.292 166.953,112.458 166.5,111.5C 169.817,112.221 173.151,112.388 176.5,112C 175.929,110.795 175.262,109.628 174.5,108.5C 173.264,109.246 171.93,109.579 170.5,109.5C 170.5,107.5 170.5,105.5 170.5,103.5C 172.167,103.5 173.833,103.5 175.5,103.5C 176.69,106.564 178.357,109.231 180.5,111.5 Z"/></g>
<g><path style="opacity:1" fill="#2e2e93" d="M 97.5,99.5 C 100.937,100.244 103.603,102.244 105.5,105.5C 105.002,107.664 103.836,109.331 102,110.5C 101.51,111.793 101.343,113.127 101.5,114.5C 98.6181,114.392 96.2847,113.226 94.5,111C 96.8243,107.537 97.8243,103.704 97.5,99.5 Z"/></g>
<g><path style="opacity:1" fill="#3c3871" d="M 166.5,100.5 C 166.5,103.833 166.5,107.167 166.5,110.5C 163.954,107.132 163.954,103.799 166.5,100.5 Z"/></g>
<g><path style="opacity:1" fill="#2b2c67" d="M 146.5,102.5 C 146.299,98.65 144.466,97.65 141,99.5C 140.517,100.448 140.351,101.448 140.5,102.5C 142.167,102.5 143.833,102.5 145.5,102.5C 142.713,103.477 139.713,103.81 136.5,103.5C 136.5,101.167 136.5,98.8333 136.5,96.5C 140.308,96.1632 143.974,96.6632 147.5,98C 148.916,99.9151 148.582,101.415 146.5,102.5 Z"/></g>
<g><path style="opacity:1" fill="#342c9c" d="M 146.5,102.5 C 146.167,102.5 145.833,102.5 145.5,102.5C 143.833,102.5 142.167,102.5 140.5,102.5C 140.351,101.448 140.517,100.448 141,99.5C 144.466,97.65 146.299,98.65 146.5,102.5 Z"/></g>
<g><path style="opacity:1" fill="#f3f6f0" d="M 114.5,97.5 C 115.803,95.8577 117.136,94.1911 118.5,92.5C 119.833,92.5 121.167,92.5 122.5,92.5C 121.12,95.5863 119.454,98.5863 117.5,101.5C 113.078,104.083 108.745,104.083 104.5,101.5C 103.299,99.0905 101.633,97.0905 99.5,95.5C 99.1961,94.8501 98.8627,94.1835 98.5,93.5C 101.106,92.3483 103.773,92.1816 106.5,93C 108.34,95.6687 110.34,98.1687 112.5,100.5C 113.425,99.6431 114.092,98.6431 114.5,97.5 Z"/></g>
<g><path style="opacity:1" fill="#f3f4f5" d="M 94.5,97.5 C 89.1667,97.5 83.8333,97.5 78.5,97.5C 78.2053,99.7354 78.5386,101.735 79.5,103.5C 83.6344,104.485 87.9677,104.818 92.5,104.5C 92.7845,106.415 92.4511,108.081 91.5,109.5C 87.0293,108.911 83.0293,109.577 79.5,111.5C 79.5,113.167 79.5,114.833 79.5,116.5C 84.8333,116.5 90.1667,116.5 95.5,116.5C 95.5,118.5 95.5,120.5 95.5,122.5C 87.8333,122.5 80.1667,122.5 72.5,122.5C 72.5,121.833 72.5,121.167 72.5,120.5C 72.5,111.167 72.5,101.833 72.5,92.5C 79.8333,92.5 87.1667,92.5 94.5,92.5C 94.5,94.1667 94.5,95.8333 94.5,97.5 Z"/></g>
<g><path style="opacity:1" fill="#332f6c" d="M 181.5,109.5 C 181.141,100.149 176.474,96.8159 167.5,99.5C 170.975,96.0919 174.975,95.5919 179.5,98C 182.5,101.53 183.167,105.364 181.5,109.5 Z"/></g>
<g><path style="opacity:1" fill="#918fb4" d="M 94.5,97.5 C 94.5,97.8333 94.5,98.1667 94.5,98.5C 89.5,98.5 84.5,98.5 79.5,98.5C 79.5,100.167 79.5,101.833 79.5,103.5C 78.5386,101.735 78.2053,99.7354 78.5,97.5C 83.8333,97.5 89.1667,97.5 94.5,97.5 Z"/></g>
<g><path style="opacity:1" fill="#3c3a75" d="M 114.5,97.5 C 114.092,98.6431 113.425,99.6431 112.5,100.5C 110.34,98.1687 108.34,95.6687 106.5,93C 103.773,92.1816 101.106,92.3483 98.5,93.5C 98.8627,94.1835 99.1961,94.8501 99.5,95.5C 98.8783,96.6266 98.045,97.6266 97,98.5C 96.2303,97.4019 95.397,97.4019 94.5,98.5C 94.5,98.1667 94.5,97.8333 94.5,97.5C 94.5,95.8333 94.5,94.1667 94.5,92.5C 87.1667,92.5 79.8333,92.5 72.5,92.5C 72.5,101.833 72.5,111.167 72.5,120.5C 71.407,118.651 70.0737,116.984 68.5,115.5C 71.751,108.17 70.751,101.504 65.5,95.5C 66.5,95.5 67.5,95.5 68.5,95.5C 68.5,94.5 68.5,93.5 68.5,92.5C 77.4576,91.4264 86.4576,90.7597 95.5,90.5C 95.443,94.1331 96.443,94.2998 98.5,91C 102.572,90.0441 106.405,90.5441 110,92.5C 109.734,95.9008 111.234,97.5674 114.5,97.5 Z"/></g>
<g><path style="opacity:1" fill="#312e70" d="M 59.5,92.5 C 52.5,92.5 45.5,92.5 38.5,92.5C 40.2267,101.372 45.56,104.705 54.5,102.5C 56.3822,103.531 58.3822,104.365 60.5,105C 59,106.5 57.5,108 56,109.5C 55.1404,112.633 53.6404,115.3 51.5,117.5C 52.7486,113.208 54.0819,108.875 55.5,104.5C 51.1539,104.666 46.8206,104.499 42.5,104C 37.2889,100.016 36.2889,95.1822 39.5,89.5C 40.3081,89.8076 40.9747,90.3076 41.5,91C 47.6807,91.1724 53.6807,91.6724 59.5,92.5 Z"/></g>
<g><path style="opacity:1" fill="#323078" d="M 130.5,91.5 C 137.321,90.3454 144.321,90.1787 151.5,91C 153.888,91.3034 156.055,92.1367 158,93.5C 161.078,91.069 164.578,90.069 168.5,90.5C 158.182,95.7958 155.182,103.796 159.5,114.5C 158.5,115.167 157.5,115.833 156.5,116.5C 157.752,111.985 156.418,108.318 152.5,105.5C 156.812,100.912 156.479,96.7452 151.5,93C 144.615,91.5753 137.615,91.0753 130.5,91.5 Z"/></g>
<g><path style="opacity:1" fill="#3e3b69" d="M 125.5,91.5 C 126.222,91.9175 126.722,92.5842 127,93.5C 127.417,92.244 128.25,91.5774 129.5,91.5C 129.5,92.8333 129.5,94.1667 129.5,95.5C 127.833,95.5 126.167,95.5 124.5,95.5C 125.234,94.2921 125.567,92.9587 125.5,91.5 Z"/></g>
<g><path style="opacity:1" fill="#35387d" d="M 92.5,133.5 C 91.5,133.5 90.5,133.5 89.5,133.5C 88.5655,132.432 88.2322,131.099 88.5,129.5C 88.5299,128.503 88.0299,127.836 87,127.5C 81.724,128.538 78.224,131.538 76.5,136.5C 77.27,139.9 78.6033,140.233 80.5,137.5C 81.3764,137.369 82.0431,137.702 82.5,138.5C 80.7224,140.264 79.3891,142.264 78.5,144.5C 75.192,139.888 74.692,134.888 77,129.5C 78.3988,128.773 79.8988,128.273 81.5,128C 80.8333,127.667 80.1667,127.333 79.5,127C 84.8643,126.171 90.1977,126.337 95.5,127.5C 93.7127,128.316 92.0461,129.316 90.5,130.5C 91.1925,131.518 91.8592,132.518 92.5,133.5 Z"/></g>
<g><path style="opacity:1" fill="#d4daf1" d="M 88.5,129.5 C 87.3181,131.1 85.9847,131.433 84.5,130.5C 81.6859,131.482 79.6859,133.315 78.5,136C 78.8361,137.03 79.5028,137.53 80.5,137.5C 78.6033,140.233 77.27,139.9 76.5,136.5C 78.224,131.538 81.724,128.538 87,127.5C 88.0299,127.836 88.5299,128.503 88.5,129.5 Z"/></g>
<g><path style="opacity:1" fill="#a7add6" d="M 115.5,127.5 C 115.025,129.784 114.025,131.784 112.5,133.5C 111.5,132.167 110.5,132.167 109.5,133.5C 109.733,131.938 110.4,130.605 111.5,129.5C 112.605,128.4 113.938,127.733 115.5,127.5 Z"/></g>
<g><path style="opacity:1" fill="#34386a" d="M 101.5,129.5 C 100.972,130.721 100.305,131.887 99.5,133C 97.481,133.45 95.6477,134.283 94,135.5C 93.2828,134.956 92.7828,134.289 92.5,133.5C 95.7564,132.534 98.7564,131.201 101.5,129.5 Z"/></g>
<g><path style="opacity:1" fill="#bcbddd" d="M 124.5,132.5 C 124.439,134.592 123.439,136.092 121.5,137C 123.163,137.265 124.663,136.765 126,135.5C 126.645,136.646 127.478,137.646 128.5,138.5C 127.132,139.594 125.965,139.26 125,137.5C 122.646,139.936 120.479,139.936 118.5,137.5C 119.31,134.354 121.31,132.687 124.5,132.5 Z"/></g>
<g><path style="opacity:1" fill="#35355c" d="M 88.5,129.5 C 88.2322,131.099 88.5655,132.432 89.5,133.5C 85.6629,138.886 84.9962,138.72 87.5,133C 84.614,133.454 82.2806,134.954 80.5,137.5C 79.5028,137.53 78.8361,137.03 78.5,136C 79.6859,133.315 81.6859,131.482 84.5,130.5C 85.9847,131.433 87.3181,131.1 88.5,129.5 Z"/></g>
<g><path style="opacity:1" fill="#30307d" d="M 111.5,129.5 C 110.4,130.605 109.733,131.938 109.5,133.5C 108.326,134.514 107.66,135.847 107.5,137.5C 105.042,137.227 103.375,138.227 102.5,140.5C 100.311,141.173 98.3113,142.173 96.5,143.5C 94.808,142.031 92.808,141.365 90.5,141.5C 87.1581,142.174 83.8248,142.84 80.5,143.5C 82.9967,139.583 86.3301,137.916 90.5,138.5C 93.9577,139.344 97.291,139.511 100.5,139C 100.833,138.667 101.167,138.333 101.5,138C 100.692,137.692 100.025,137.192 99.5,136.5C 100.5,134.5 101.5,132.5 102.5,130.5C 102.376,129.893 102.043,129.56 101.5,129.5C 102.152,128.275 103.319,127.608 105,127.5C 109.375,128.006 109.208,128.672 104.5,129.5C 104.5,130.5 104.5,131.5 104.5,132.5C 105.833,132.5 107.167,132.5 108.5,132.5C 108.5,131.5 108.5,130.5 108.5,129.5C 109.5,129.5 110.5,129.5 111.5,129.5 Z"/></g>
<g><path style="opacity:1" fill="#61638c" d="M 112.5,133.5 C 113.5,133.5 114.5,133.5 115.5,133.5C 114.881,136.595 113.881,136.929 112.5,134.5C 110.596,138.444 109.596,138.11 109.5,133.5C 110.5,132.167 111.5,132.167 112.5,133.5 Z"/></g>
<g><path style="opacity:1" fill="#c7c8e7" d="M 118.5,137.5 C 116.955,140.109 115.288,140.109 113.5,137.5C 112.14,138.18 110.807,138.847 109.5,139.5C 108.5,139.167 107.833,138.5 107.5,137.5C 107.66,135.847 108.326,134.514 109.5,133.5C 109.596,138.11 110.596,138.444 112.5,134.5C 113.881,136.929 114.881,136.595 115.5,133.5C 116.009,130.4 117.342,129.566 119.5,131C 118.888,133.058 117.888,134.891 116.5,136.5C 116.957,137.298 117.624,137.631 118.5,137.5 Z"/></g>
<g><path style="opacity:1" fill="#bdc1d2" d="M 156.5,132.5 C 156.923,134.781 156.256,136.448 154.5,137.5C 153.458,138.791 152.292,138.791 151,137.5C 150.005,138.066 149.172,138.733 148.5,139.5C 148.5,139.833 148.5,140.167 148.5,140.5C 143.564,143.175 143.231,142.342 147.5,138C 146.451,137.508 145.451,137.674 144.5,138.5C 142.908,135.554 143.742,133.554 147,132.5C 147.333,133.167 147.667,133.833 148,134.5C 148.689,133.643 149.522,132.977 150.5,132.5C 152.416,133.248 154.416,133.248 156.5,132.5 Z"/></g>
<g><path style="opacity:1" fill="#32347d" d="M 156.5,132.5 C 154.416,133.248 152.416,133.248 150.5,132.5C 149.522,132.977 148.689,133.643 148,134.5C 147.667,133.833 147.333,133.167 147,132.5C 143.742,133.554 142.908,135.554 144.5,138.5C 145.451,137.674 146.451,137.508 147.5,138C 143.231,142.342 143.564,143.175 148.5,140.5C 149.922,140.75 150.922,141.583 151.5,143C 148.446,143.821 145.446,143.655 142.5,142.5C 141.552,137.565 141.219,132.565 141.5,127.5C 139.801,127.34 138.134,127.506 136.5,128C 138.69,133.028 139.023,138.194 137.5,143.5C 136.167,143.5 134.833,143.5 133.5,143.5C 133.5,142.167 133.5,140.833 133.5,139.5C 138.108,138.393 138.775,136.06 135.5,132.5C 133.814,133.857 132.148,135.19 130.5,136.5C 130.5,136.167 130.5,135.833 130.5,135.5C 130.715,133.821 130.048,132.821 128.5,132.5C 127.167,132.5 125.833,132.5 124.5,132.5C 121.31,132.687 119.31,134.354 118.5,137.5C 117.624,137.631 116.957,137.298 116.5,136.5C 117.888,134.891 118.888,133.058 119.5,131C 117.342,129.566 116.009,130.4 115.5,133.5C 114.5,133.5 113.5,133.5 112.5,133.5C 114.025,131.784 115.025,129.784 115.5,127.5C 115.62,126.414 116.287,125.747 117.5,125.5C 119.334,126.754 121.334,127.421 123.5,127.5C 123.461,129.359 124.294,130.692 126,131.5C 128.394,130.864 130.894,130.864 133.5,131.5C 134.289,126.065 137.289,124.399 142.5,126.5C 143.452,128.045 143.785,129.712 143.5,131.5C 148.032,131.182 152.366,131.515 156.5,132.5 Z"/></g>
<g><path style="opacity:1" fill="#dbd3f4" d="M 128.5,132.5 C 130.048,132.821 130.715,133.821 130.5,135.5C 129.05,136.658 128.05,136.158 127.5,134C 128.056,133.617 128.389,133.117 128.5,132.5 Z"/></g>
<g><path style="opacity:1" fill="#282b3a" d="M 154.5,137.5 C 152.027,137.053 151.86,136.053 154,134.5C 154.483,135.448 154.649,136.448 154.5,137.5 Z"/></g>
<g><path style="opacity:1" fill="#a5a6cb" d="M 133.5,139.5 C 132.5,138.833 131.5,138.167 130.5,137.5C 130.5,137.167 130.5,136.833 130.5,136.5C 132.148,135.19 133.814,133.857 135.5,132.5C 138.775,136.06 138.108,138.393 133.5,139.5 Z"/></g>
<g><path style="opacity:1" fill="#bdc0dd" d="M 101.5,129.5 C 102.043,129.56 102.376,129.893 102.5,130.5C 101.5,132.5 100.5,134.5 99.5,136.5C 100.025,137.192 100.692,137.692 101.5,138C 101.167,138.333 100.833,138.667 100.5,139C 97.291,139.511 93.9577,139.344 90.5,138.5C 86.3301,137.916 82.9967,139.583 80.5,143.5C 79.8333,143.833 79.1667,144.167 78.5,144.5C 79.3891,142.264 80.7224,140.264 82.5,138.5C 82.0431,137.702 81.3764,137.369 80.5,137.5C 82.2806,134.954 84.614,133.454 87.5,133C 84.9962,138.72 85.6629,138.886 89.5,133.5C 90.5,133.5 91.5,133.5 92.5,133.5C 92.7828,134.289 93.2828,134.956 94,135.5C 95.6477,134.283 97.481,133.45 99.5,133C 100.305,131.887 100.972,130.721 101.5,129.5 Z"/></g>
<g><path style="opacity:1" fill="#2c3146" d="M 90.5,138.5 C 88.0268,138.053 87.8601,137.053 90,135.5C 90.4828,136.448 90.6495,137.448 90.5,138.5 Z"/></g>
<g><path style="opacity:1" fill="#3e3876" d="M 148.5,139.5 C 149.172,138.733 150.005,138.066 151,137.5C 152.292,138.791 153.458,138.791 154.5,137.5C 156.256,136.448 156.923,134.781 156.5,132.5C 157.5,132.5 158.5,132.5 159.5,132.5C 160.918,130.692 162.918,130.025 165.5,130.5C 165.777,133.448 165.444,136.281 164.5,139C 159.177,139.499 153.844,139.666 148.5,139.5 Z"/></g>
<g><path style="opacity:1" fill="#e0daf6" d="M 160.5,136.5 C 161.458,135.038 162.624,133.705 164,132.5C 163.621,134.075 163.788,135.575 164.5,137C 162.923,138.93 161.59,138.763 160.5,136.5 Z"/></g>
<g><path style="opacity:1" fill="#dfe0f3" d="M 159.5,132.5 C 160.239,132.369 160.906,132.536 161.5,133C 160.5,134 159.5,135 158.5,136C 159.094,136.464 159.761,136.631 160.5,136.5C 159.275,139.151 158.275,138.984 157.5,136C 157.978,134.697 158.645,133.531 159.5,132.5 Z"/></g>
<g><path style="opacity:1" fill="#37376b" d="M 124.5,132.5 C 125.833,132.5 127.167,132.5 128.5,132.5C 128.389,133.117 128.056,133.617 127.5,134C 128.05,136.158 129.05,136.658 130.5,135.5C 130.5,135.833 130.5,136.167 130.5,136.5C 130.5,136.833 130.5,137.167 130.5,137.5C 129.91,138.766 129.41,140.099 129,141.5C 122.864,140.183 116.697,140.183 110.5,141.5C 109.702,141.043 109.369,140.376 109.5,139.5C 110.807,138.847 112.14,138.18 113.5,137.5C 115.288,140.109 116.955,140.109 118.5,137.5C 120.479,139.936 122.646,139.936 125,137.5C 125.965,139.26 127.132,139.594 128.5,138.5C 127.478,137.646 126.645,136.646 126,135.5C 124.663,136.765 123.163,137.265 121.5,137C 123.439,136.092 124.439,134.592 124.5,132.5 Z"/></g>
<g><path style="opacity:1" fill="#2c3177" d="M 197.5,143.5 C 196.958,146.912 195.625,149.912 193.5,152.5C 193.896,149.518 193.229,146.851 191.5,144.5C 193.396,143.534 195.396,143.201 197.5,143.5 Z"/></g>
<g><path style="opacity:1" fill="#2f3287" d="M 193.5,152.5 C 191.312,158.885 187.645,164.218 182.5,168.5C 183.644,165.553 185.311,162.887 187.5,160.5C 186.5,159.167 185.5,159.167 184.5,160.5C 182.703,161.695 181.703,163.362 181.5,165.5C 176.273,163.955 176.273,161.955 181.5,159.5C 182.033,150.905 186.033,148.572 193.5,152.5 Z"/></g>
<g><path style="opacity:1" fill="#33347b" d="M 32.5,133.5 C 33.4584,133.953 34.2917,134.619 35,135.5C 35.0256,141.878 38.1922,144.545 44.5,143.5C 44.5,144.5 44.5,145.5 44.5,146.5C 41.7569,146.077 40.4235,147.244 40.5,150C 41.6717,153.304 43.005,156.471 44.5,159.5C 45.5,159.5 46.5,159.5 47.5,159.5C 47.5,160.5 47.5,161.5 47.5,162.5C 48.8333,162.5 50.1667,162.5 51.5,162.5C 51.5,161.5 51.5,160.5 51.5,159.5C 52.8333,159.5 54.1667,159.5 55.5,159.5C 55.5499,161.59 54.5499,162.923 52.5,163.5C 51.5344,165.396 51.2011,167.396 51.5,169.5C 42.0287,159.227 35.6954,147.227 32.5,133.5 Z"/></g>
<g><path style="opacity:1" fill="#303388" d="M 69.5,184.5 C 62.3266,181.001 56.3266,176.001 51.5,169.5C 55.285,169.369 58.9517,168.702 62.5,167.5C 63.0916,170.127 63.4249,172.794 63.5,175.5C 67.4753,175.988 71.142,177.321 74.5,179.5C 71.2148,179.698 69.5482,181.365 69.5,184.5 Z"/></g>
<g><path style="opacity:1" fill="#36367b" d="M 175.5,175.5 C 167.106,184.2 157.106,190.533 145.5,194.5C 130.73,199.374 115.73,200.374 100.5,197.5C 99.5,197.5 98.5,197.5 97.5,197.5C 91.9672,196.068 86.6339,194.068 81.5,191.5C 84.1873,191.336 86.854,191.503 89.5,192C 95.4804,194.72 101.814,196.554 108.5,197.5C 115.48,196.779 122.48,196.279 129.5,196C 134.318,194.131 139.318,193.131 144.5,193C 148.278,191.945 151.611,190.112 154.5,187.5C 156.5,187 158.5,186.5 160.5,186C 161.833,185 161.833,184 160.5,183C 156.905,182.439 153.572,181.272 150.5,179.5C 155.668,177.986 160.501,178.653 165,181.5C 166.44,180.852 167.94,180.519 169.5,180.5C 169.5,178.833 169.5,177.167 169.5,175.5C 171.5,175.5 173.5,175.5 175.5,175.5 Z"/></g>
<g><path style="opacity:1" fill="#f0f1f9" d="M 145.5,194.5 C 145.063,196.074 144.063,197.241 142.5,198C 130.42,201.645 117.42,202.312 103.5,200C 102.058,199.623 101.058,198.79 100.5,197.5C 115.73,200.374 130.73,199.374 145.5,194.5 Z"/></g>
</svg>
