<?xml version="1.0" standalone="no"?>
<!DOCTYPE svg PUBLIC "-//W3C//DTD SVG 20010904//EN"
 "http://www.w3.org/TR/2001/REC-SVG-20010904/DTD/svg10.dtd">
<svg version="1.0" xmlns="http://www.w3.org/2000/svg"
 width="153.000000pt" height="52.000000pt" viewBox="0 0 153.000000 52.000000"
 preserveAspectRatio="xMidYMid meet">

<g transform="translate(0.000000,52.000000) scale(0.100000,-0.100000)"
fill="#000000" stroke="none">
<path d="M310 433 c-49 -8 -111 -36 -126 -57 -7 -11 -14 -16 -14 -11 0 5 -7 0
-15 -11 -19 -25 -19 -58 0 -74 12 -10 15 -9 15 6 0 15 2 16 9 5 6 -9 16 -11
27 -7 18 7 18 8 2 17 -54 30 22 113 109 120 68 5 95 -1 124 -30 24 -25 29 -38
29 -80 0 -27 -5 -62 -12 -78 -6 -15 -10 -34 -9 -41 1 -7 -2 -11 -7 -10 -5 2
-20 -10 -34 -27 -21 -24 -33 -29 -69 -29 -57 0 -107 9 -117 19 -4 5 -1 5 6 1
6 -4 12 -3 12 2 0 5 9 12 19 15 16 4 19 12 16 36 -3 25 -2 29 9 18 10 -8 11
-16 4 -24 -6 -7 -6 -13 -1 -13 27 0 82 113 61 126 -6 4 -8 3 -5 -3 4 -6 -1
-17 -11 -24 -15 -12 -16 -12 -5 2 16 20 5 33 -15 16 -13 -11 -14 -9 -1 10 7
12 16 19 19 15 9 -13 24 -7 52 21 24 24 25 27 8 27 -11 0 -20 -5 -20 -11 0 -6
-6 -9 -12 -6 -25 9 -67 -34 -88 -89 -11 -30 -17 -61 -14 -67 4 -7 4 -9 -1 -5
-4 4 -21 -9 -36 -29 -19 -23 -29 -30 -29 -19 0 11 -9 16 -31 16 -16 0 -28 -4
-25 -9 4 -5 -2 -7 -12 -4 -10 2 -25 -3 -32 -12 -19 -23 5 -37 45 -28 17 4 44
6 60 5 111 -9 163 -4 218 22 65 31 123 93 137 148 9 31 7 44 -9 76 -21 41 -80
78 -106 68 -8 -3 -17 -1 -20 4 -6 10 -57 11 -105 3z m200 -52 c0 -4 -10 -7
-22 -8 -13 0 -17 1 -10 4 6 3 10 9 7 14 -4 5 1 6 9 3 9 -3 16 -9 16 -13z
m-335 -51 c-3 -5 -12 -10 -18 -10 -7 0 -6 4 3 10 19 12 23 12 15 0z m365 -44
c0 -2 -8 -10 -17 -17 -16 -13 -17 -12 -4 4 13 16 21 21 21 13z m-34 -56 c0
-12 -4 -16 -9 -11 -5 5 -6 14 -3 20 10 15 12 14 12 -9z"/>
<path d="M650 375 c-12 -15 -6 -35 11 -35 6 0 7 6 3 13 -6 9 -5 9 7 0 13 -10
20 -9 37 8 29 27 28 35 -3 15 -21 -14 -24 -14 -19 -1 8 20 -19 20 -36 0z"/>
<path d="M639 293 c-28 -4 -55 -46 -43 -65 4 -7 2 -8 -4 -4 -15 9 -35 -40 -29
-66 3 -10 1 -16 -4 -12 -16 10 -9 -13 9 -29 20 -18 37 -23 28 -8 -4 5 2 7 12
4 10 -2 34 7 55 21 45 31 43 31 50 6 11 -42 84 -47 138 -9 18 13 36 17 60 13
29 -5 43 0 79 28 25 19 51 37 58 42 21 13 73 25 67 16 -3 -4 1 -11 7 -14 7 -3
4 -4 -7 -1 -14 3 -26 -5 -42 -28 -61 -89 12 -112 118 -37 27 20 29 20 29 3 0
-20 18 -43 33 -43 4 0 5 5 2 10 -9 15 2 12 20 -6 14 -14 22 -15 60 -4 48 13
110 48 102 57 -3 3 -16 -2 -29 -11 -34 -24 -105 -21 -118 5 -14 25 -16 23 42
39 28 7 45 17 41 23 -3 6 -1 7 6 3 11 -7 51 27 51 44 0 16 -27 30 -59 29 -32
0 -33 -1 -13 -9 28 -12 28 -31 -1 -58 -33 -31 -79 -38 -98 -15 -12 16 -12 17
2 6 13 -11 20 -7 42 27 28 44 25 49 -13 23 -38 -26 -50 -40 -50 -58 0 -9 -4
-13 -10 -10 -5 3 -10 -1 -10 -9 0 -16 -79 -68 -92 -60 -13 8 -9 48 8 72 8 12
12 27 8 34 -4 6 -3 8 3 5 5 -3 17 7 27 24 21 36 13 37 -26 4 -36 -30 -75 -42
-91 -26 -9 9 -6 13 11 17 12 4 22 13 22 20 0 21 -37 17 -60 -6 -21 -21 -27
-50 -10 -50 22 0 7 -20 -37 -49 -51 -34 -52 -34 -72 -22 -12 8 -10 17 8 56 28
59 24 79 -13 83 -56 7 -94 -7 -108 -38 -14 -32 -35 -47 -35 -24 0 7 3 11 7 9
3 -2 11 5 18 16 7 10 8 19 4 19 -11 0 -60 -55 -85 -93 -24 -36 -63 -52 -83
-33 -7 8 -10 16 -6 18 15 6 44 77 37 89 -5 7 -4 10 3 5 6 -3 16 3 22 14 11 21
12 21 -41 13z m261 -12 c0 -5 -9 -11 -20 -14 -25 -7 -36 -52 -20 -83 12 -21
11 -26 -6 -39 -25 -19 -63 -19 -70 0 -20 51 37 145 87 145 16 0 29 -4 29 -9z
m503 -22 c-9 -9 -12 -7 -10 9 1 14 5 18 11 12 7 -7 6 -14 -1 -21z m-766 -11
c-3 -8 -6 -5 -6 6 -1 11 2 17 5 13 3 -3 4 -12 1 -19z m289 10 c4 -7 3 -8 -4
-4 -7 4 -12 2 -12 -5 0 -7 -3 -10 -6 -6 -6 5 3 27 11 27 2 0 7 -5 11 -12z
m-181 -68 c-3 -5 -12 -10 -18 -10 -7 0 -6 4 3 10 19 12 23 12 15 0z m22 -22
c-3 -7 -5 -2 -5 12 0 14 2 19 5 13 2 -7 2 -19 0 -25z m-150 16 c-3 -3 -12 -4
-19 -1 -8 3 -5 6 6 6 11 1 17 -2 13 -5z m-30 -36 c-3 -8 -6 -5 -6 6 -1 11 2
17 5 13 3 -3 4 -12 1 -19z m158 12 c-3 -5 -12 -10 -18 -10 -7 0 -6 4 3 10 19
12 23 12 15 0z m349 -6 c3 -8 2 -12 -4 -9 -6 3 -10 10 -10 16 0 14 7 11 14 -7z
m152 -9 c-14 -14 -16 -14 -16 -2 0 9 6 17 13 20 19 7 21 -1 3 -18z m-166 -15
c0 -5 -5 -10 -11 -10 -5 0 -7 5 -4 10 3 6 8 10 11 10 2 0 4 -4 4 -10z"/>
</g>
</svg>
