<?xml version="1.0" encoding="UTF-8"?>
<!DOCTYPE svg PUBLIC "-//W3C//DTD SVG 1.1//EN" "http://www.w3.org/Graphics/SVG/1.1/DTD/svg11.dtd">
<svg xmlns="http://www.w3.org/2000/svg" version="1.1" width="355px" height="142px" style="shape-rendering:geometricPrecision; text-rendering:geometricPrecision; image-rendering:optimizeQuality; fill-rule:evenodd; clip-rule:evenodd" xmlns:xlink="http://www.w3.org/1999/xlink">
<g><path style="opacity:1" fill="#fdfdfd" d="M -0.5,-0.5 C 117.833,-0.5 236.167,-0.5 354.5,-0.5C 354.5,46.8333 354.5,94.1667 354.5,141.5C 236.167,141.5 117.833,141.5 -0.5,141.5C -0.5,94.1667 -0.5,46.8333 -0.5,-0.5 Z"/></g>
<g><path style="opacity:1" fill="#2e87da" d="M 176.5,2.5 C 179.652,1.95855 182.152,2.95855 184,5.5C 184.667,20.5 184.667,35.5 184,50.5C 180.131,53.5145 176.798,53.1811 174,49.5C 173.333,34.8333 173.333,20.1667 174,5.5C 175.045,4.62656 175.878,3.62656 176.5,2.5 Z"/></g>
<g><path style="opacity:1" fill="#3389da" d="M 154.5,22.5 C 159.511,21.3289 162.511,23.1623 163.5,28C 160.963,32.2427 158.796,36.7427 157,41.5C 155.148,52.2855 158.648,60.7855 167.5,67C 180.389,72.5639 190.889,69.7306 199,58.5C 201.394,52.7243 202.061,46.7243 201,40.5C 198.831,36.1615 196.664,31.8282 194.5,27.5C 195.643,22.7472 198.643,21.2472 203.5,23C 211.998,31.8107 215.164,42.3107 213,54.5C 205.442,75.5329 190.609,84.0329 168.5,80C 153.03,73.5186 145.03,61.8519 144.5,45C 144.995,36.182 148.328,28.682 154.5,22.5 Z"/></g>
<g><path style="opacity:1" fill="#9b9b9b" d="M 167.5,101.5 C 169.693,100.203 172.027,100.203 174.5,101.5C 174.376,102.107 174.043,102.44 173.5,102.5C 171.735,101.539 169.735,101.205 167.5,101.5 Z"/></g>
<g><path style="opacity:1" fill="#040404" d="M 84.5,101.5 C 84.5,102.5 84.5,103.5 84.5,104.5C 75.1667,104.5 65.8333,104.5 56.5,104.5C 56.1832,108.702 56.5166,112.702 57.5,116.5C 66.1667,116.5 74.8333,116.5 83.5,116.5C 83.5,117.5 83.5,118.5 83.5,119.5C 74.5,119.5 65.5,119.5 56.5,119.5C 56.5,124.167 56.5,128.833 56.5,133.5C 65.8333,133.5 75.1667,133.5 84.5,133.5C 84.5,134.5 84.5,135.5 84.5,136.5C 73.8333,136.5 63.1667,136.5 52.5,136.5C 52.5,124.833 52.5,113.167 52.5,101.5C 63.1667,101.5 73.8333,101.5 84.5,101.5 Z"/></g>
<g><path style="opacity:1" fill="#0d0d0d" d="M 125.5,101.5 C 126.833,101.5 128.167,101.5 129.5,101.5C 129.5,113.167 129.5,124.833 129.5,136.5C 126.753,136.813 124.086,136.48 121.5,135.5C 113.815,126.096 106.148,116.763 98.5,107.5C 98.2172,106.711 97.7172,106.044 97,105.5C 96.5002,115.828 96.3335,126.161 96.5,136.5C 94.8333,136.5 93.1667,136.5 91.5,136.5C 91.5,124.833 91.5,113.167 91.5,101.5C 94.5184,101.335 97.5184,101.502 100.5,102C 108.667,112.167 116.833,122.333 125,132.5C 125.5,122.172 125.666,111.839 125.5,101.5 Z"/></g>
<g><path style="opacity:1" fill="#0f0f0f" d="M 140.5,101.5 C 141.833,101.5 143.167,101.5 144.5,101.5C 144.179,106.695 144.513,111.695 145.5,116.5C 148.226,116.736 150.559,115.903 152.5,114C 157.571,109.815 162.571,105.648 167.5,101.5C 169.735,101.205 171.735,101.539 173.5,102.5C 166.731,107.1 160.397,112.267 154.5,118C 154.759,119.261 155.426,120.261 156.5,121C 163.45,125.615 170.116,130.615 176.5,136C 174.167,136.667 171.833,136.667 169.5,136C 162.833,130.667 156.167,125.333 149.5,120C 148.207,119.51 146.873,119.343 145.5,119.5C 145.5,125.167 145.5,130.833 145.5,136.5C 143.833,136.5 142.167,136.5 140.5,136.5C 140.5,124.833 140.5,113.167 140.5,101.5 Z"/></g>
<g><path style="opacity:1" fill="#6c6c6c" d="M 140.5,101.5 C 141.919,100.549 143.585,100.216 145.5,100.5C 145.5,105.833 145.5,111.167 145.5,116.5C 144.513,111.695 144.179,106.695 144.5,101.5C 143.167,101.5 141.833,101.5 140.5,101.5 Z"/></g>
<g><path style="opacity:1" fill="#161616" d="M 188.5,100.5 C 196.561,100.179 204.561,100.679 212.5,102C 214.286,102.785 215.786,103.951 217,105.5C 218.601,113.395 218.934,121.395 218,129.5C 216.775,133.451 214.108,135.784 210,136.5C 181.301,142.469 171.801,131.635 181.5,104C 183.713,102.384 186.047,101.217 188.5,100.5 Z"/></g>
<g><path style="opacity:1" fill="#0b0b0b" d="M 250.5,101.5 C 260.315,101.746 263.815,106.746 261,116.5C 260.535,117.931 259.701,119.097 258.5,120C 260.141,121.129 261.141,122.629 261.5,124.5C 261.5,128.5 261.5,132.5 261.5,136.5C 259.833,136.5 258.167,136.5 256.5,136.5C 256.824,132.445 256.491,128.445 255.5,124.5C 254.817,124.137 254.15,123.804 253.5,123.5C 246.352,122.508 239.019,122.175 231.5,122.5C 231.5,127.167 231.5,131.833 231.5,136.5C 230.167,136.5 228.833,136.5 227.5,136.5C 227.5,124.833 227.5,113.167 227.5,101.5C 235.167,101.5 242.833,101.5 250.5,101.5 Z"/></g>
<g><path style="opacity:1" fill="#0a0a0a" d="M 303.5,104.5 C 294.167,104.5 284.833,104.5 275.5,104.5C 275.183,108.702 275.517,112.702 276.5,116.5C 285.167,116.5 293.833,116.5 302.5,116.5C 302.5,117.5 302.5,118.5 302.5,119.5C 293.5,119.5 284.5,119.5 275.5,119.5C 275.5,124.167 275.5,128.833 275.5,133.5C 284.833,133.5 294.167,133.5 303.5,133.5C 303.5,134.5 303.5,135.5 303.5,136.5C 292.5,136.5 281.5,136.5 270.5,136.5C 270.5,124.833 270.5,113.167 270.5,101.5C 281.5,101.5 292.5,101.5 303.5,101.5C 303.5,102.5 303.5,103.5 303.5,104.5 Z"/></g>
<g><path style="opacity:1" fill="#717171" d="M 84.5,101.5 C 73.8333,101.5 63.1667,101.5 52.5,101.5C 52.5,113.167 52.5,124.833 52.5,136.5C 51.5049,124.678 51.1716,112.678 51.5,100.5C 62.6794,100.172 73.6794,100.505 84.5,101.5 Z"/></g>
<g><path style="opacity:1" fill="#646464" d="M 125.5,101.5 C 126.919,100.549 128.585,100.216 130.5,100.5C 130.828,112.678 130.495,124.678 129.5,136.5C 129.5,124.833 129.5,113.167 129.5,101.5C 128.167,101.5 126.833,101.5 125.5,101.5 Z"/></g>
<g><path style="opacity:1" fill="#828282" d="M 250.5,101.5 C 242.833,101.5 235.167,101.5 227.5,101.5C 227.5,113.167 227.5,124.833 227.5,136.5C 226.505,124.678 226.172,112.678 226.5,100.5C 234.684,100.174 242.684,100.508 250.5,101.5 Z"/></g>
<g><path style="opacity:1" fill="#a3a3a3" d="M 84.5,104.5 C 75.6822,105.493 66.6822,105.827 57.5,105.5C 57.5,109.167 57.5,112.833 57.5,116.5C 56.5166,112.702 56.1832,108.702 56.5,104.5C 65.8333,104.5 75.1667,104.5 84.5,104.5 Z"/></g>
<g><path style="opacity:1" fill="#f9f9f9" d="M 188.5,104.5 C 195.508,104.334 202.508,104.5 209.5,105C 210.667,106.167 211.833,107.333 213,108.5C 213.667,115.5 213.667,122.5 213,129.5C 212.167,130.333 211.333,131.167 210.5,132C 203.274,133.594 195.94,133.928 188.5,133C 187.5,132.167 186.5,131.333 185.5,130.5C 184.367,122.883 184.2,115.216 185,107.5C 186.145,106.364 187.312,105.364 188.5,104.5 Z"/></g>
<g><path style="opacity:1" fill="#adadad" d="M 303.5,104.5 C 294.682,105.493 285.682,105.827 276.5,105.5C 276.5,109.167 276.5,112.833 276.5,116.5C 275.517,112.702 275.183,108.702 275.5,104.5C 284.833,104.5 294.167,104.5 303.5,104.5 Z"/></g>
<g><path style="opacity:1" fill="#878787" d="M 252.5,105.5 C 245.833,105.5 239.167,105.5 232.5,105.5C 232.5,109.833 232.5,114.167 232.5,118.5C 239.167,118.5 245.833,118.5 252.5,118.5C 245.687,119.491 238.687,119.825 231.5,119.5C 231.5,114.5 231.5,109.5 231.5,104.5C 238.687,104.175 245.687,104.509 252.5,105.5 Z"/></g>
<g><path style="opacity:1" fill="#fcfcfc" d="M 252.5,105.5 C 253.496,105.414 254.329,105.748 255,106.5C 255.825,110.211 255.659,113.878 254.5,117.5C 253.817,117.863 253.15,118.196 252.5,118.5C 245.833,118.5 239.167,118.5 232.5,118.5C 232.5,114.167 232.5,109.833 232.5,105.5C 239.167,105.5 245.833,105.5 252.5,105.5 Z"/></g>
<g><path style="opacity:1" fill="#c1c1c1" d="M 98.5,107.5 C 97.8333,117.167 97.1667,126.833 96.5,136.5C 96.3335,126.161 96.5002,115.828 97,105.5C 97.7172,106.044 98.2172,106.711 98.5,107.5 Z"/></g>
<g><path style="opacity:1" fill="#959595" d="M 253.5,123.5 C 246.5,123.5 239.5,123.5 232.5,123.5C 232.818,128.032 232.485,132.366 231.5,136.5C 231.5,131.833 231.5,127.167 231.5,122.5C 239.019,122.175 246.352,122.508 253.5,123.5 Z"/></g>
<g><path style="opacity:1" fill="#949494" d="M 261.5,124.5 C 262.485,128.634 262.818,132.968 262.5,137.5C 260.265,137.795 258.265,137.461 256.5,136.5C 258.167,136.5 259.833,136.5 261.5,136.5C 261.5,132.5 261.5,128.5 261.5,124.5 Z"/></g>
<g><path style="opacity:1" fill="#888888" d="M 83.5,116.5 C 84.4345,117.568 84.7678,118.901 84.5,120.5C 75.5,120.5 66.5,120.5 57.5,120.5C 57.5,124.5 57.5,128.5 57.5,132.5C 66.6822,132.173 75.6822,132.507 84.5,133.5C 75.1667,133.5 65.8333,133.5 56.5,133.5C 56.5,128.833 56.5,124.167 56.5,119.5C 65.5,119.5 74.5,119.5 83.5,119.5C 83.5,118.5 83.5,117.5 83.5,116.5 Z"/></g>
<g><path style="opacity:1" fill="#8f8f8f" d="M 302.5,119.5 C 294.016,120.493 285.349,120.826 276.5,120.5C 276.5,124.5 276.5,128.5 276.5,132.5C 285.682,132.173 294.682,132.507 303.5,133.5C 294.167,133.5 284.833,133.5 275.5,133.5C 275.5,128.833 275.5,124.167 275.5,119.5C 284.5,119.5 293.5,119.5 302.5,119.5 Z"/></g>
</svg>
