<?xml version="1.0" encoding="UTF-8"?>
<!DOCTYPE svg PUBLIC "-//W3C//DTD SVG 1.1//EN" "http://www.w3.org/Graphics/SVG/1.1/DTD/svg11.dtd">
<svg xmlns="http://www.w3.org/2000/svg" version="1.1" width="225px" height="225px" style="shape-rendering:geometricPrecision; text-rendering:geometricPrecision; image-rendering:optimizeQuality; fill-rule:evenodd; clip-rule:evenodd" xmlns:xlink="http://www.w3.org/1999/xlink">
<g><path style="opacity:1" fill="#fdfdfe" d="M -0.5,-0.5 C 74.5,-0.5 149.5,-0.5 224.5,-0.5C 224.5,74.5 224.5,149.5 224.5,224.5C 149.5,224.5 74.5,224.5 -0.5,224.5C -0.5,149.5 -0.5,74.5 -0.5,-0.5 Z"/></g>
<g><path style="opacity:1" fill="#151dad" d="M 103.5,18.5 C 109.866,17.5302 115.533,19.0302 120.5,23C 128.057,30.8922 135.89,38.3922 144,45.5C 145.959,47.7768 147.459,50.2768 148.5,53C 148.007,55.8192 146.84,58.3192 145,60.5C 133.471,72.3631 121.638,83.8631 109.5,95C 108.167,95.6667 106.833,95.6667 105.5,95C 101.244,91.2511 97.5776,87.0844 94.5,82.5C 94.7189,81.062 95.2189,79.7287 96,78.5C 103.333,71.1667 110.667,63.8333 118,56.5C 118.667,54.8333 118.667,53.1667 118,51.5C 115.5,49 113,46.5 110.5,44C 109.5,43.3333 108.5,43.3333 107.5,44C 95,56.5 82.5,69 70,81.5C 69.3333,83.1667 69.3333,84.8333 70,86.5C 82.471,97.9703 94.6376,109.804 106.5,122C 107.833,122.667 109.167,122.667 110.5,122C 127.5,105 144.5,88 161.5,71C 165.12,70.1593 168.454,70.826 171.5,73C 174.883,76.0467 177.883,79.38 180.5,83C 159.874,104.626 138.874,125.96 117.5,147C 110.6,150.535 103.934,150.202 97.5,146C 80.6667,129.167 63.8333,112.333 47,95.5C 40.5212,86.2875 41.1878,77.6209 49,69.5C 64.7792,53.7208 80.6126,37.8874 96.5,22C 98.9252,20.7874 101.259,19.6207 103.5,18.5 Z"/></g>
<g><path style="opacity:1" fill="#989cc7" d="M 27.5,164.5 C 34.6476,163.508 41.9809,163.175 49.5,163.5C 49.7845,165.415 49.4511,167.081 48.5,168.5C 48.5,167.167 48.5,165.833 48.5,164.5C 41.8333,164.5 35.1667,164.5 28.5,164.5C 28.1667,164.5 27.8333,164.5 27.5,164.5 Z"/></g>
<g><path style="opacity:1" fill="#8c93c2" d="M 71.5,164.5 C 64.8333,164.5 58.1667,164.5 51.5,164.5C 51.5,165.833 51.5,167.167 51.5,168.5C 50.5489,167.081 50.2155,165.415 50.5,163.5C 57.6866,163.175 64.6866,163.509 71.5,164.5 Z"/></g>
<g><path style="opacity:1" fill="#8a8fbc" d="M 109.5,164.5 C 107.219,164.077 105.552,164.744 104.5,166.5C 103.596,165.791 103.263,164.791 103.5,163.5C 105.735,163.205 107.735,163.539 109.5,164.5 Z"/></g>
<g><path style="opacity:1" fill="#9598c3" d="M 174.5,164.5 C 171.941,164.198 169.607,164.532 167.5,165.5C 166.957,165.44 166.624,165.107 166.5,164.5C 169.309,163.2 171.976,163.2 174.5,164.5 Z"/></g>
<g><path style="opacity:1" fill="#c5c8de" d="M 48.5,168.5 C 44.03,169.486 39.3633,169.819 34.5,169.5C 34.5,170.833 34.5,172.167 34.5,173.5C 39.0323,173.182 43.3656,173.515 47.5,174.5C 42.8333,174.5 38.1667,174.5 33.5,174.5C 33.5,172.5 33.5,170.5 33.5,168.5C 38.5,168.5 43.5,168.5 48.5,168.5 Z"/></g>
<g><path style="opacity:1" fill="#0c14a5" d="M 28.5,164.5 C 35.1667,164.5 41.8333,164.5 48.5,164.5C 48.5,165.833 48.5,167.167 48.5,168.5C 43.5,168.5 38.5,168.5 33.5,168.5C 33.5,170.5 33.5,172.5 33.5,174.5C 38.1667,174.5 42.8333,174.5 47.5,174.5C 47.5,175.833 47.5,177.167 47.5,178.5C 42.8333,178.5 38.1667,178.5 33.5,178.5C 33.5,180.5 33.5,182.5 33.5,184.5C 38.3054,185.487 43.3054,185.821 48.5,185.5C 48.5,186.5 48.5,187.5 48.5,188.5C 41.8333,188.5 35.1667,188.5 28.5,188.5C 28.5,180.5 28.5,172.5 28.5,164.5 Z"/></g>
<g><path style="opacity:1" fill="#4e519e" d="M 58.5,168.5 C 59.4907,174.979 59.824,181.646 59.5,188.5C 60.8333,188.5 62.1667,188.5 63.5,188.5C 63.176,181.646 63.5093,174.979 64.5,168.5C 64.5,175.5 64.5,182.5 64.5,189.5C 62.5,189.5 60.5,189.5 58.5,189.5C 58.5,182.5 58.5,175.5 58.5,168.5 Z"/></g>
<g><path style="opacity:1" fill="#0c16a7" d="M 71.5,164.5 C 71.5,165.833 71.5,167.167 71.5,168.5C 69.1667,168.5 66.8333,168.5 64.5,168.5C 63.5093,174.979 63.176,181.646 63.5,188.5C 62.1667,188.5 60.8333,188.5 59.5,188.5C 59.824,181.646 59.4907,174.979 58.5,168.5C 56.1667,168.5 53.8333,168.5 51.5,168.5C 51.5,167.167 51.5,165.833 51.5,164.5C 58.1667,164.5 64.8333,164.5 71.5,164.5 Z"/></g>
<g><path style="opacity:1" fill="#1c1fa5" d="M 174.5,164.5 C 176.331,168.154 178.664,171.487 181.5,174.5C 183.711,171.244 186.045,168.078 188.5,165C 190.833,164.333 193.167,164.333 195.5,165C 191.638,169.229 188.138,173.729 185,178.5C 184.501,182.152 184.335,185.818 184.5,189.5C 182.167,189.5 179.833,189.5 177.5,189.5C 177.665,185.818 177.499,182.152 177,178.5C 174.002,174.008 170.835,169.675 167.5,165.5C 169.607,164.532 171.941,164.198 174.5,164.5 Z"/></g>
<g><path style="opacity:1" fill="#161ba4" d="M 109.5,164.5 C 110.921,170.063 112.421,175.729 114,181.5C 116.217,176.017 117.717,170.351 118.5,164.5C 121.119,164.232 123.619,164.565 126,165.5C 127.421,171.301 129.088,176.967 131,182.5C 132.378,176.568 133.211,170.568 133.5,164.5C 135.857,164.337 138.19,164.503 140.5,165C 138.312,172.77 136.312,180.603 134.5,188.5C 131.966,189.777 129.466,189.777 127,188.5C 123.465,167.461 120.298,167.794 117.5,189.5C 114.833,189.5 112.167,189.5 109.5,189.5C 107.99,181.794 106.323,174.127 104.5,166.5C 105.552,164.744 107.219,164.077 109.5,164.5 Z"/></g>
<g><path style="opacity:1" fill="#181ca2" d="M 151.5,164.5 C 154.448,164.223 157.281,164.556 160,165.5C 163.023,173.412 166.523,181.079 170.5,188.5C 165.707,190.75 162.707,189.417 161.5,184.5C 157.541,183.34 153.541,183.173 149.5,184C 148.318,188.943 145.318,190.443 140.5,188.5C 143.793,180.267 147.46,172.267 151.5,164.5 Z"/></g>
<g><path style="opacity:1" fill="#e9eaf5" d="M 154.5,169.5 C 156.881,171.912 158.548,174.912 159.5,178.5C 156.914,179.48 154.247,179.813 151.5,179.5C 152.099,176.037 153.099,172.704 154.5,169.5 Z"/></g>
<g><path style="opacity:1" fill="#7d7fc8" d="M 33.5,184.5 C 38.8333,184.5 44.1667,184.5 49.5,184.5C 49.7845,186.415 49.4511,188.081 48.5,189.5C 48.5,189.167 48.5,188.833 48.5,188.5C 48.5,187.5 48.5,186.5 48.5,185.5C 43.3054,185.821 38.3054,185.487 33.5,184.5 Z"/></g>
<g><path style="opacity:1" fill="#171ca4" d="M 80.5,164.5 C 84.8461,164.334 89.1794,164.501 93.5,165C 104.193,169.481 106.193,176.481 99.5,186C 91.2661,191.083 83.4328,190.583 76,184.5C 71.6848,176.449 73.1848,169.783 80.5,164.5 Z"/></g>
<g><path style="opacity:1" fill="#f4f4fa" d="M 84.5,168.5 C 93.6485,168.095 97.1485,172.428 95,181.5C 89.9186,186.986 85.2519,186.653 81,180.5C 79.593,175.599 80.7597,171.599 84.5,168.5 Z"/></g>
<g><path style="opacity:1" fill="#2c359f" d="M 27.5,164.5 C 27.8333,164.5 28.1667,164.5 28.5,164.5C 28.5,172.5 28.5,180.5 28.5,188.5C 35.1667,188.5 41.8333,188.5 48.5,188.5C 48.5,188.833 48.5,189.167 48.5,189.5C 41.5,189.5 34.5,189.5 27.5,189.5C 27.5,181.167 27.5,172.833 27.5,164.5 Z"/></g>
<g><path style="opacity:1" fill="#7b80ba" d="M 102.5,194.5 C 105.625,193.521 108.958,193.187 112.5,193.5C 112.5,194.5 112.5,195.5 112.5,196.5C 109.612,195.99 107.279,196.656 105.5,198.5C 104.596,197.791 104.263,196.791 104.5,195.5C 106.857,195.663 109.19,195.497 111.5,195C 108.518,194.502 105.518,194.335 102.5,194.5 Z"/></g>
<g><path style="opacity:1" fill="#737ab7" d="M 141.5,194.5 C 142.209,193.596 143.209,193.263 144.5,193.5C 144.5,197.5 144.5,201.5 144.5,205.5C 143.209,205.737 142.209,205.404 141.5,204.5C 142.777,203.306 143.444,201.64 143.5,199.5C 143.444,197.36 142.777,195.694 141.5,194.5 Z"/></g>
<g><path style="opacity:1" fill="#241e94" d="M 40.5,194.5 C 41.552,194.351 42.552,194.517 43.5,195C 45.2317,201.794 47.0651,201.961 49,195.5C 50.0113,194.663 51.1779,194.33 52.5,194.5C 53.1919,197.897 53.1919,201.23 52.5,204.5C 51.8333,202.5 51.1667,200.5 50.5,198.5C 49.1667,200.833 47.8333,203.167 46.5,205.5C 44.8038,203.454 43.4705,201.121 42.5,198.5C 41.5258,200.743 41.1924,203.076 41.5,205.5C 40.325,205.719 39.325,205.386 38.5,204.5C 39.3818,201.209 40.0484,197.876 40.5,194.5 Z"/></g>
<g><path style="opacity:1" fill="#26269a" d="M 70.5,194.5 C 73.1873,194.336 75.854,194.503 78.5,195C 77.8903,197.514 78.5569,199.847 80.5,202C 80.2409,203.261 79.5742,204.261 78.5,205C 75.854,205.497 73.1873,205.664 70.5,205.5C 70.5,201.833 70.5,198.167 70.5,194.5 Z"/></g>
<g><path style="opacity:1" fill="#e1e2f2" d="M 73.5,195.5 C 74.5,195.5 75.5,195.5 76.5,195.5C 76.5,196.5 76.5,197.5 76.5,198.5C 75.5,198.5 74.5,198.5 73.5,198.5C 73.5,197.5 73.5,196.5 73.5,195.5 Z"/></g>
<g><path style="opacity:1" fill="#0d1696" d="M 141.5,194.5 C 142.777,195.694 143.444,197.36 143.5,199.5C 143.444,201.64 142.777,203.306 141.5,204.5C 141.5,203.167 141.5,201.833 141.5,200.5C 139.833,200.5 138.167,200.5 136.5,200.5C 136.5,201.833 136.5,203.167 136.5,204.5C 135.5,204.5 134.5,204.5 133.5,204.5C 133.5,201.167 133.5,197.833 133.5,194.5C 134.5,194.5 135.5,194.5 136.5,194.5C 136.5,195.833 136.5,197.167 136.5,198.5C 138.167,198.5 139.833,198.5 141.5,198.5C 141.5,197.167 141.5,195.833 141.5,194.5 Z"/></g>
<g><path style="opacity:1" fill="#1b1c97" d="M 161.5,194.5 C 162.552,194.351 163.552,194.517 164.5,195C 165.64,196.973 166.973,198.807 168.5,200.5C 169.167,198.5 169.833,196.5 170.5,194.5C 171.489,198.107 171.823,201.774 171.5,205.5C 168.279,204.118 165.779,201.785 164,198.5C 163.808,200.577 163.308,202.577 162.5,204.5C 161.513,201.232 161.18,197.898 161.5,194.5 Z"/></g>
<g><path style="opacity:1" fill="#e6e6f7" d="M 73.5,200.5 C 74.8333,200.5 76.1667,200.5 77.5,200.5C 77.5,201.5 77.5,202.5 77.5,203.5C 76.1667,203.5 74.8333,203.5 73.5,203.5C 73.5,202.5 73.5,201.5 73.5,200.5 Z"/></g>
<g><path style="opacity:1" fill="#202097" d="M 120.5,194.5 C 123.777,194.216 126.943,194.549 130,195.5C 130.72,197.112 130.554,198.612 129.5,200C 127.527,200.495 125.527,200.662 123.5,200.5C 123.5,202.167 123.5,203.833 123.5,205.5C 122.5,205.5 121.5,205.5 120.5,205.5C 120.5,201.833 120.5,198.167 120.5,194.5 Z"/></g>
<g><path style="opacity:1" fill="#dfe0f3" d="M 123.5,195.5 C 124.833,195.5 126.167,195.5 127.5,195.5C 127.5,196.5 127.5,197.5 127.5,198.5C 126.167,198.5 124.833,198.5 123.5,198.5C 123.5,197.5 123.5,196.5 123.5,195.5 Z"/></g>
<g><path style="opacity:1" fill="#28239b" d="M 59.5,193.5 C 65.3771,193.206 67.8771,195.872 67,201.5C 64.0782,206.233 60.7448,206.566 57,202.5C 55.9271,198.9 56.7605,195.9 59.5,193.5 Z"/></g>
<g><path style="opacity:1" fill="#f1f1fb" d="M 59.5,196.5 C 64.3276,196.385 65.6609,198.552 63.5,203C 62.2161,203.684 61.0495,203.517 60,202.5C 59.5045,200.527 59.3379,198.527 59.5,196.5 Z"/></g>
<g><path style="opacity:1" fill="#141793" d="M 83.5,194.5 C 84.5,194.5 85.5,194.5 86.5,194.5C 86.5,198.167 86.5,201.833 86.5,205.5C 85.5,205.5 84.5,205.5 83.5,205.5C 83.5,201.833 83.5,198.167 83.5,194.5 Z"/></g>
<g><path style="opacity:1" fill="#0d1494" d="M 102.5,194.5 C 105.518,194.335 108.518,194.502 111.5,195C 109.19,195.497 106.857,195.663 104.5,195.5C 104.263,196.791 104.596,197.791 105.5,198.5C 113.5,199.167 113.5,199.833 105.5,200.5C 104.596,201.209 104.263,202.209 104.5,203.5C 106.857,203.337 109.19,203.503 111.5,204C 108.518,204.498 105.518,204.665 102.5,204.5C 102.5,201.167 102.5,197.833 102.5,194.5 Z"/></g>
<g><path style="opacity:1" fill="#262290" d="M 175.5,194.5 C 178.898,194.18 182.232,194.513 185.5,195.5C 176.167,196.833 176.167,198.167 185.5,199.5C 183.257,200.474 180.924,200.808 178.5,200.5C 178.5,201.5 178.5,202.5 178.5,203.5C 180.924,203.192 183.257,203.526 185.5,204.5C 182.232,205.487 178.898,205.82 175.5,205.5C 175.5,201.833 175.5,198.167 175.5,194.5 Z"/></g>
<g><path style="opacity:1" fill="#241c8f" d="M 90.5,194.5 C 91.5,194.5 92.5,194.5 93.5,194.5C 93.5,197.5 93.5,200.5 93.5,203.5C 95.924,203.192 98.2573,203.526 100.5,204.5C 97.2317,205.487 93.8984,205.82 90.5,205.5C 90.5,201.833 90.5,198.167 90.5,194.5 Z"/></g>
<g><path style="opacity:1" fill="#211e9a" d="M 150.5,193.5 C 158.972,194.352 160.639,198.185 155.5,205C 149.171,205.668 146.671,202.834 148,196.5C 148.698,195.309 149.531,194.309 150.5,193.5 Z"/></g>
<g><path style="opacity:1" fill="#e1e1f0" d="M 150.5,196.5 C 155.328,196.385 156.661,198.552 154.5,203C 149.791,203.082 148.458,200.915 150.5,196.5 Z"/></g>
<g><path style="opacity:1" fill="#777db4" d="M 102.5,194.5 C 102.5,197.833 102.5,201.167 102.5,204.5C 105.518,204.665 108.518,204.498 111.5,204C 109.19,203.503 106.857,203.337 104.5,203.5C 104.263,202.209 104.596,201.209 105.5,200.5C 107.279,202.344 109.612,203.01 112.5,202.5C 112.5,203.5 112.5,204.5 112.5,205.5C 108.833,205.5 105.167,205.5 101.5,205.5C 101.185,201.629 101.518,197.962 102.5,194.5 Z"/></g>
</svg>
