<?xml version="1.0" encoding="UTF-8"?>
<svg version="1.1" xmlns="http://www.w3.org/2000/svg" width="150" height="150">
<path d="M0 0 C49.5 0 99 0 150 0 C150 49.5 150 99 150 150 C100.5 150 51 150 0 150 C0 100.5 0 51 0 0 Z " fill="#FDFDFD" transform="translate(0,0)"/>
<path d="M0 0 C2.64 0.33 5.28 0.66 8 1 C8.33 8.26 8.66 15.52 9 23 C11.97 23.33 14.94 23.66 18 24 C18 16.41 18 8.82 18 1 C25 0 25 0 34 0 C34 7.92 34 15.84 34 24 C36.97 24 39.94 24 43 24 C43 16.41 43 8.82 43 1 C44.98 1 46.96 1 49 1 C48.95359375 1.78503906 48.9071875 2.57007812 48.859375 3.37890625 C48.62443618 10.21730418 48.70849436 14.54862796 53 20 C56.65747264 23.23947576 60.07427865 23.44589664 64.78125 23.3046875 C67.90648287 22.8755182 70.30046619 21.58021491 73 20 C73.66 20 74.32 20 75 20 C75.28875 19.21625 75.5775 18.4325 75.875 17.625 C77 15 77 15 79 13 C79 33.79 79 54.58 79 76 C29.5 76 -20 76 -71 76 C-71 58.84 -71 41.68 -71 24 C-60.11 24 -49.22 24 -38 24 C-38 23.01 -38 22.02 -38 21 C-37.01 21 -36.02 21 -35 21 C-34.505 21.99 -34.505 21.99 -34 23 C-32.10466658 23.46523063 -32.10466658 23.46523063 -29.9375 23.625 C-28.638125 23.74875 -27.33875 23.8725 -26 24 C-26 21.36 -26 18.72 -26 16 C-24.125 16.625 -24.125 16.625 -22 18 C-20.75 21.125 -20.75 21.125 -20 24 C-16.96117061 23.98092785 -14.82695129 23.96073226 -12 23 C-9.93757294 20.74749439 -8.90029962 18.18073082 -7.75 15.375 C-7.12172764 13.96528143 -6.49153007 12.55641924 -5.859375 11.1484375 C-5.55966797 10.45975586 -5.25996094 9.77107422 -4.95117188 9.06152344 C-3.49992244 5.91615633 -1.76652867 2.97808594 0 0 Z " fill="#FEFEFE" transform="translate(71,74)"/>
<path d="M0 0 C3.54714372 3.05219344 6.21929853 5.69439381 7.0703125 10.453125 C7.30787455 15.10934127 6.67045155 18.88756432 4.07421875 22.8046875 C0.32163285 26.884964 -4.43103387 28.52197831 -9.875 28.875 C-14.76652781 28.6300012 -17.92368021 26.77479014 -21.3125 23.3125 C-24.35921604 19.08641001 -25.01009261 14.96677922 -24.86328125 9.8515625 C-23.66542393 4.3295252 -19.50511537 0.75501011 -14.9375 -2.25 C-9.49775718 -3.1566238 -4.91043564 -2.50154268 0 0 Z " fill="#070707" transform="translate(143.3125,69.6875)"/>
<path d="M0 0 C6.27 0 12.54 0 19 0 C21 4 21 4 21 7 C16.71 7 12.42 7 8 7 C8 8.65 8 10.3 8 12 C13.61 12 19.22 12 25 12 C25.66 13.98 26.32 15.96 27 18 C20.73 18 14.46 18 8 18 C8 19.98 8 21.96 8 24 C15.59 24 23.18 24 31 24 C33 28 33 28 33 31 C22.11 31 11.22 31 0 31 C0 20.77 0 10.54 0 0 Z " fill="#151515" transform="translate(0,67)"/>
<path d="M0 0 C2.64 0 5.28 0 8 0 C3.20760676 10.32272134 -1.71007775 20.52656723 -7.13671875 30.53125 C-9.87546273 35.62979225 -12.4466342 40.80622184 -15 46 C-17.64 46 -20.28 46 -23 46 C-27.07850599 38.43622526 -31.12438465 30.85767209 -35 23.1875 C-35.86625 21.47626953 -35.86625 21.47626953 -36.75 19.73046875 C-38 17 -38 17 -38 15 C-35.36 15 -32.72 15 -30 15 C-28.32686677 18.28841876 -26.66260393 21.58124682 -25 24.875 C-24.52304687 25.81214844 -24.04609375 26.74929687 -23.5546875 27.71484375 C-23.10351562 28.61074219 -22.65234375 29.50664063 -22.1875 30.4296875 C-21.55908203 31.67081299 -21.55908203 31.67081299 -20.91796875 32.93701172 C-20 35 -20 35 -20 37 C-19.34 37 -18.68 37 -18 37 C-17.76796875 36.20980469 -17.5359375 35.41960937 -17.296875 34.60546875 C-15.63258031 29.97852899 -13.47299786 25.69279944 -11.25 21.3125 C-10.80479004 20.42852539 -10.35958008 19.54455078 -9.90087891 18.63378906 C-6.72351781 12.35282498 -3.4592863 6.13109279 0 0 Z " fill="#0B0B0B" transform="translate(74,52)"/>
<path d="M0 0 C2.64 0 5.28 0 8 0 C9.27289905 2.20716463 10.5433605 4.41567485 11.8125 6.625 C12.34713867 7.55119141 12.34713867 7.55119141 12.89257812 8.49609375 C15.05913172 12.27265506 17.0904299 16.08447772 19 20 C19.99 20 20.98 20 22 20 C24.46921528 22.99833285 25.05635938 24.40259059 24.6875 28.3125 C24.460625 29.199375 24.23375 30.08625 24 31 C21.36 31 18.72 31 16 31 C15.67 30.01 15.34 29.02 15 28 C13.35 27.67 11.7 27.34 10 27 C10 26.01 10 25.02 10 24 C2.41 24 -5.18 24 -13 24 C-13 22.02 -13 20.04 -13 18 C-6.73 18 -0.46 18 6 18 C5.34 16.02 4.68 14.04 4 12 C-1.61 12 -7.22 12 -13 12 C-13 10.35 -13 8.7 -13 7 C-8.71 7 -4.42 7 0 7 C-0.33 5.35 -0.66 3.7 -1 2 C-0.67 1.34 -0.34 0.68 0 0 Z " fill="#F7F7F7" transform="translate(21,67)"/>
<path d="M0 0 C7.92 0 15.84 0 24 0 C22 6 22 6 21 7 C19.35 7 17.7 7 16 7 C16 14.92 16 22.84 16 31 C13.03 31 10.06 31 7 31 C7 23.08 7 15.16 7 7 C4.69 7 2.38 7 0 7 C0 4.69 0 2.38 0 0 Z " fill="#0E0E0E" transform="translate(98,67)"/>
<path d="M0 0 C6.6 0 13.2 0 20 0 C20 2.64 20 5.28 20 8 C17.69 8 15.38 8 13 8 C13 15.59 13 23.18 13 31 C10.03 31 7.06 31 4 31 C4 23.08 4 15.16 4 7 C2.02 7 0.04 7 -2 7 C-1.125 2.25 -1.125 2.25 0 0 Z " fill="#0F0F0F" transform="translate(76,67)"/>
<path d="M0 0 C2.64 0 5.28 0 8 0 C9.27289905 2.20716463 10.5433605 4.41567485 11.8125 6.625 C12.34713867 7.55119141 12.34713867 7.55119141 12.89257812 8.49609375 C15.05913172 12.27265506 17.0904299 16.08447772 19 20 C19.99 20 20.98 20 22 20 C24.46921528 22.99833285 25.05635938 24.40259059 24.6875 28.3125 C24.460625 29.199375 24.23375 30.08625 24 31 C21.36 31 18.72 31 16 31 C10.55652551 20.72039416 5.1272359 10.44205359 0 0 Z " fill="#0B0B0B" transform="translate(21,67)"/>
<path d="M0 0 C3.80484394 0.71340824 5.4511805 1.6388541 8 4.5625 C8.80740332 9.00321826 8.50331836 10.83040056 5.9375 14.5625 C3 16.5625 3 16.5625 -0.5625 16.6875 C-4.61808807 15.36021663 -5.90599656 14.24794605 -8 10.5625 C-8.5625 8.0625 -8.5625 8.0625 -8 5.5625 C-5.52745249 2.29001064 -4.07387885 0.76385228 0 0 Z " fill="#F4F4F4" transform="translate(134,74.4375)"/>
<path d="M0 0 C3.6875 -0.3125 3.6875 -0.3125 7 0 C5.74577315 3.98792946 4.28484419 7.66949404 2.3984375 11.3984375 C1.90859375 12.37167969 1.41875 13.34492187 0.9140625 14.34765625 C0.40617187 15.34667969 -0.10171875 16.34570312 -0.625 17.375 C-1.140625 18.39722656 -1.65625 19.41945313 -2.1875 20.47265625 C-3.45471873 22.98362669 -4.72564556 25.49264561 -6 28 C-8.64763831 25.44624957 -10.22733837 23.69218177 -11 20 C-9.89762628 17.26635089 -8.7952805 15.00855663 -7.3125 12.5 C-6.94705078 11.84902344 -6.58160156 11.19804688 -6.20507812 10.52734375 C-5.48766224 9.25678609 -4.75805682 7.99302023 -4.01538086 6.73706055 C-3.11756773 5.20112873 -2.28402603 3.62801941 -1.4609375 2.05078125 C-0.97882812 1.37402344 -0.49671875 0.69726562 0 0 Z " fill="#070707" transform="translate(60,52)"/>
<path d="M0 0 C0.99 0 1.98 0 3 0 C4.06092734 1.90607285 5.09820101 3.82532746 6.125 5.75 C6.70507812 6.81734375 7.28515625 7.8846875 7.8828125 8.984375 C9 12 9 12 8.1796875 14.390625 C7.79039063 14.92171875 7.40109375 15.4528125 7 16 C6.34 14.02 5.68 12.04 5 10 C-0.61 10 -6.22 10 -12 10 C-12 8.35 -12 6.7 -12 5 C-7.71 5 -3.42 5 1 5 C0.67 3.35 0.34 1.7 0 0 Z " fill="#E6E6E6" transform="translate(20,69)"/>
<path d="M0 0 C0.99 0 1.98 0 3 0 C3.99 1.98 4.98 3.96 6 6 C5.01 6.66 4.02 7.32 3 8 C0 2.25 0 2.25 0 0 Z " fill="#E2E2E2" transform="translate(48,75)"/>
</svg>
