<?xml version="1.0" encoding="UTF-8"?>
<svg version="1.1" xmlns="http://www.w3.org/2000/svg" width="444" height="113">
<path d="M0 0 C146.52 0 293.04 0 444 0 C444 37.29 444 74.58 444 113 C297.48 113 150.96 113 0 113 C0 75.71 0 38.42 0 0 Z " fill="#FBFBFB" transform="translate(0,0)"/>
<path d="M0 0 C19.14 0 38.28 0 58 0 C59 5 59 5 57.86352539 6.83349609 C57.28078857 7.39117676 56.69805176 7.94885742 56.09765625 8.5234375 C55.45376953 9.1525 54.80988281 9.7815625 54.14648438 10.4296875 C53.11491211 11.39261719 53.11491211 11.39261719 52.0625 12.375 C51.08313477 13.32632812 51.08313477 13.32632812 50.08398438 14.296875 C46.82309912 17.43912431 43.48354408 20.46509562 40.05078125 23.41796875 C34.67737384 28.07540397 29.78292968 33.20498556 24.828125 38.29882812 C24.10367188 39.03423828 23.37921875 39.76964844 22.6328125 40.52734375 C21.98199707 41.19499756 21.33118164 41.86265137 20.66064453 42.55053711 C19 44 19 44 17 44 C17 44.66 17 45.32 17 46 C30.53 46 44.06 46 58 46 C58 48.31 58 50.62 58 53 C50.45501767 53.02312851 42.91003899 53.04091769 35.36502934 53.05181217 C31.86191115 53.05703989 28.35881715 53.0641355 24.85571289 53.07543945 C20.83219159 53.08834206 16.80869586 53.09322912 12.78515625 53.09765625 C11.52163834 53.10281754 10.25812042 53.10797882 8.95631409 53.11329651 C7.795186 53.11337204 6.63405792 53.11344757 5.43774414 53.11352539 C3.8955294 53.11685631 3.8955294 53.11685631 2.32215881 53.12025452 C0 53 0 53 -1 52 C-1.34570312 49.75341797 -1.34570312 49.75341797 -1 47 C0.89257812 44.52392578 0.89257812 44.52392578 3.53125 41.9453125 C4.2352594 41.2483577 4.2352594 41.2483577 4.95349121 40.537323 C6.45765788 39.05445696 7.97850289 37.59005603 9.5 36.125 C10.49327856 35.14824369 11.48547783 34.17038856 12.4765625 33.19140625 C16.58239645 29.15568605 20.72403469 25.18175191 25.09375 21.4296875 C29.93623909 17.17798208 34.44331812 12.55668188 39 8 C19.695 7.505 19.695 7.505 0 7 C0 4.69 0 2.38 0 0 Z " fill="#737272" transform="translate(214,17)"/>
<path d="M0 0 C19.14 0 38.28 0 58 0 C58.495 2.475 58.495 2.475 59 5 C57.49633789 7.20068359 57.49633789 7.20068359 55.22265625 9.3984375 C53.98612305 10.61273437 53.98612305 10.61273437 52.72460938 11.8515625 C51.84611328 12.68429688 50.96761719 13.51703125 50.0625 14.375 C49.21880859 15.2 48.37511719 16.025 47.50585938 16.875 C43.07618356 21.17830881 38.53446615 25.30879421 33.86010742 29.34277344 C30.18998849 32.61259458 26.81569112 36.18340797 23.40625 39.72070312 C21.97301047 41.18281122 20.49037458 42.59617692 19 44 C18.34 44 17.68 44 17 44 C17 44.66 17 45.32 17 46 C30.53 46 44.06 46 58 46 C58 48.31 58 50.62 58 53 C50.45501767 53.02312851 42.91003899 53.04091769 35.36502934 53.05181217 C31.86191115 53.05703989 28.35881715 53.0641355 24.85571289 53.07543945 C20.83219159 53.08834206 16.80869586 53.09322912 12.78515625 53.09765625 C11.52163834 53.10281754 10.25812042 53.10797882 8.95631409 53.11329651 C7.795186 53.11337204 6.63405792 53.11344757 5.43774414 53.11352539 C3.8955294 53.11685631 3.8955294 53.11685631 2.32215881 53.12025452 C0 53 0 53 -1 52 C-1.3938799 48.88530881 -1.3388861 47.46851763 0.52539062 44.89111328 C1.22857422 44.20774902 1.93175781 43.52438477 2.65625 42.8203125 C3.43226563 42.05589844 4.20828125 41.29148438 5.0078125 40.50390625 C5.83023437 39.71886719 6.65265625 38.93382812 7.5 38.125 C8.68722656 36.95904297 8.68722656 36.95904297 9.8984375 35.76953125 C14.1855192 31.58786959 18.58782652 27.58710153 23.12011719 23.67480469 C26.79702725 20.39901209 30.17803193 16.82310437 33.59375 13.27929688 C35.02698953 11.81718878 36.50962542 10.40382308 38 9 C38.66 9 39.32 9 40 9 C40 8.34 40 7.68 40 7 C26.8 7 13.6 7 0 7 C0 4.69 0 2.38 0 0 Z " fill="#727171" transform="translate(367,17)"/>
<path d="M0 0 C1.02090729 0.00007553 2.04181458 0.00015106 3.09365845 0.00022888 C4.75151871 0.00797081 4.75151871 0.00797081 6.44287109 0.01586914 C7.57203949 0.01728409 8.70120789 0.01869904 9.86459351 0.02015686 C13.48185848 0.02576796 17.09906223 0.03832237 20.71630859 0.05102539 C23.16422437 0.05603896 25.61214111 0.06060211 28.06005859 0.06469727 C34.07049625 0.07574099 40.08089805 0.09248996 46.09130859 0.11352539 C46.09130859 2.42352539 46.09130859 4.73352539 46.09130859 7.11352539 C44.16883301 7.13539917 44.16883301 7.13539917 42.20751953 7.15771484 C37.45121395 7.21569859 32.69538175 7.29293172 27.93945312 7.37597656 C25.88126307 7.4092255 23.82298183 7.43725753 21.76464844 7.45996094 C18.80543168 7.49350729 15.84705042 7.54582341 12.88818359 7.60180664 C11.96825623 7.60819656 11.04832886 7.61458649 10.1005249 7.62117004 C6.56143064 7.70257161 3.78109735 7.81687643 0.51000977 9.22363281 C-1.62749465 12.07106384 -1.41013265 14.33696964 -1.40478516 17.86352539 C-1.40624039 18.51804687 -1.40769562 19.17256836 -1.40919495 19.84692383 C-1.4075372 21.22880511 -1.39598934 22.61070509 -1.37524414 23.99243164 C-1.34628748 26.10651131 -1.35463432 28.21808275 -1.36767578 30.33227539 C-1.36143797 31.67603757 -1.35304669 33.01979183 -1.34228516 34.36352539 C-1.33253662 35.58555664 -1.32278809 36.80758789 -1.31274414 38.06665039 C-1.16608699 41.08927879 -1.16608699 41.08927879 0.4934082 42.97290039 C3.18317425 44.89292896 4.91753654 45.25060202 8.17382812 45.31884766 C9.01454865 45.33879288 9.85526917 45.3587381 10.72146606 45.37928772 C12.0840303 45.40435646 12.0840303 45.40435646 13.47412109 45.42993164 C14.40352509 45.45071274 15.33292908 45.47149384 16.29049683 45.49290466 C19.26569069 45.55840185 22.24097437 45.61728592 25.21630859 45.67602539 C27.23064088 45.71921045 29.24496401 45.76282473 31.25927734 45.80688477 C36.20319523 45.91408342 41.14720362 46.0153504 46.09130859 46.11352539 C46.09130859 48.42352539 46.09130859 50.73352539 46.09130859 53.11352539 C39.11722384 53.2407497 32.14344054 53.32805443 25.16845703 53.38818359 C22.79790056 53.41326114 20.42742089 53.44733171 18.05712891 53.49072266 C14.64124554 53.55166936 11.22638824 53.57980389 7.81005859 53.60180664 C6.23146057 53.64051628 6.23146057 53.64051628 4.62097168 53.68000793 C-2.18695234 53.68257787 -6.64515507 52.53915984 -11.90869141 48.11352539 C-17.09744631 42.42263292 -16.16190564 35.69131915 -16.20385742 28.39941406 C-16.2153699 27.00575603 -16.2358107 25.61214185 -16.26538086 24.21875 C-16.30824954 22.1976955 -16.3242512 20.17794795 -16.33447266 18.15649414 C-16.34905518 16.95017334 -16.3636377 15.74385254 -16.37866211 14.50097656 C-15.65416388 9.27894389 -13.17076897 6.22535562 -9.28369141 2.80102539 C-5.8649518 0.37192093 -4.14831362 -0.01021752 0 0 Z " fill="#747373" transform="translate(161.90869140625,16.886474609375)"/>
<path d="M0 0 C1.44140625 1.890625 1.44140625 1.890625 2.5625 4.25 C3.19091797 5.47396484 3.19091797 5.47396484 3.83203125 6.72265625 C4.21746094 7.47417969 4.60289063 8.22570312 5 9 C10.38269002 17.26627396 18.37018623 20.52985319 27.69140625 22.5546875 C28.45324219 22.70164062 29.21507812 22.84859375 30 23 C27.22044213 29.85123455 19.50081174 33.61411808 13 36.4375 C4.22560411 39.31230207 -7.84519259 40.18401287 -16.3125 36 C-21.05684869 32.67522021 -24.31263605 28.5104659 -25.4375 22.765625 C-25.7471547 17.15313357 -24.37767587 12.49724259 -21 8 C-15.61490718 2.7340464 -7.70605545 -2.64740292 0 0 Z " fill="#D5206D" transform="translate(26,68)"/>
<path d="M0 0 C3.90989428 3.30168851 7.49795313 6.81016559 8.3203125 12.03515625 C8.66239849 18.68302737 6.89853469 23.75657637 2.45703125 28.7265625 C-2.22173333 33.07342387 -7.24429357 35.43375503 -13.5390625 36.3828125 C-16 36 -16 36 -17.703125 33.875 C-18.21359375 32.92625 -18.7240625 31.9775 -19.25 31 C-24.47522791 22.2121167 -31.19481277 16.17658687 -41 13 C-44.3585225 12.22777677 -44.3585225 12.22777677 -47 12 C-47 11.34 -47 10.68 -47 10 C-34.21931016 -0.85418879 -16.16386449 -8.84437869 0 0 Z " fill="#96BE24" transform="translate(110,9)"/>
<path d="M0 0 C4.29 0 8.58 0 13 0 C20.15970414 12.58405316 27.2905665 25.16896856 34 38 C41.28945514 25.4912069 48.13548967 12.74538655 55 0 C59.29 0 63.58 0 68 0 C66.59145276 3.52136809 65.20714513 6.62850859 63.41796875 9.9296875 C62.64706909 11.35462524 62.64706909 11.35462524 61.8605957 12.80834961 C61.30847412 13.82034424 60.75635254 14.83233887 60.1875 15.875 C59.61797607 16.92115479 59.04845215 17.96730957 58.46166992 19.04516602 C54.28337274 26.69707703 50.07058015 34.32969801 45.8125 41.9375 C45.26037842 42.93185059 44.70825684 43.92620117 44.1394043 44.95068359 C43.36850464 46.31894287 43.36850464 46.31894287 42.58203125 47.71484375 C42.13061768 48.52042725 41.6792041 49.32601074 41.21411133 50.15600586 C40 52 40 52 38 53 C32.96674116 53.83887647 32.96674116 53.83887647 30 53 C28.52954102 51.42944336 28.52954102 51.42944336 27.19140625 49.27734375 C26.68013184 48.45814453 26.16885742 47.63894531 25.64208984 46.79492188 C22.56546342 41.55834452 19.60553061 36.26386807 16.6875 30.9375 C15.69654952 29.13811755 14.70433853 27.33943393 13.71208191 25.54077148 C12.74116985 23.78039113 11.77145461 22.01935085 10.80175781 20.25830078 C8.05214807 15.28590354 5.25563016 10.34027573 2.43823242 5.40600586 C0 1.1070014 0 1.1070014 0 0 Z " fill="#737272" transform="translate(275,17)"/>
<path d="M0 0 C7.23456332 4.99529372 12.17045623 13.40114428 14 22 C14.93535163 30.34509029 13.43735165 37.60824269 8.19921875 44.30078125 C3.08724898 49.73038797 -1.91025019 52.98631135 -9.5 53.5 C-13.55216479 53.31393121 -16.27364028 52.38854789 -19.42578125 49.82421875 C-23.72276779 44.84483236 -26.393771 38.58671484 -26 32 C-25.443125 31.78085938 -24.88625 31.56171875 -24.3125 31.3359375 C-13.02302708 26.64470382 -6.81142918 20.70805696 -1.875 9.4296875 C-0.75711496 6.32556029 -0.38441646 3.26753989 0 0 Z " fill="#EFB918" transform="translate(95,58)"/>
<path d="M0 0 C5.66502207 5.13804327 7.15646434 11.00300073 7.6875 18.4375 C6.90246094 18.78941406 6.11742187 19.14132813 5.30859375 19.50390625 C-4.94000301 24.32011798 -11.9097135 29.77450145 -16.3125 40.4375 C-17.20026967 43.74814106 -17.83786366 47.04420436 -18.3125 50.4375 C-25.35629258 45.04989661 -30.07553186 38.10029438 -31.71435547 29.27294922 C-32.50018102 22.3261288 -32.55216499 15.35401622 -28.75 9.25 C-27.08984375 7.234375 -27.08984375 7.234375 -25.3125 5.4375 C-24.44818359 4.54804688 -24.44818359 4.54804688 -23.56640625 3.640625 C-16.4707934 -2.9966966 -8.78487958 -4.14381112 0 0 Z " fill="#1D95D4" transform="translate(42.3125,3.5625)"/>
<path d="M0 0 C3.63 0 7.26 0 11 0 C11 17.49 11 34.98 11 53 C7.37 53 3.74 53 0 53 C0 35.51 0 18.02 0 0 Z " fill="#727171" transform="translate(348,17)"/>
<path d="M0 0 C6.75 0.875 6.75 0.875 9 2 C9.8901668 9.83346787 6.7461105 16.94748742 2.390625 23.375 C-2.3534469 29.1201146 -7.73847062 33.18461765 -15 35 C-15 31.7 -15 28.4 -15 25 C-13.96875 24.525625 -12.9375 24.05125 -11.875 23.5625 C-7.07784419 20.76983526 -4.30199112 17.00848547 -2 12 C-1.00173916 8.02128575 -0.40038564 4.07979157 0 0 Z " fill="#EFB918" transform="translate(84,53)"/>
<path d="M0 0 C1.1484375 1.57421875 1.1484375 1.57421875 2.25 3.625 C5.25031029 9.00453724 9.33525629 11.71659909 15 14 C18.68290962 14.7021709 22.25397029 14.98575654 26 15 C24.94124926 18.40312738 23.99097846 21.01353231 22 24 C12.9423464 23.96070432 5.58740329 21.20303071 -1.14453125 15.03515625 C-9 6.41894737 -9 6.41894737 -9 1 C-5.53117978 -0.15627341 -3.62231912 -0.65201744 0 0 Z " fill="#D52470" transform="translate(37,65)"/>
<path d="M0 0 C0.35444147 3.07182605 0.51173474 5.9402527 0 9 C-2.625 11.125 -2.625 11.125 -6 13 C-12.88081227 19.67083443 -14.30995588 25.64808621 -15 35 C-21.875 33.125 -21.875 33.125 -23 32 C-23.71844687 22.94756943 -21.55754941 15.79532857 -15.8125 8.6875 C-11.65355519 4.25907713 -6.26361061 0 0 0 Z " fill="#1C95D4" transform="translate(50,25)"/>
<path d="M0 0 C10.30677571 0.76346487 19.06034179 4.10633112 26 12 C31 19.31143552 31 19.31143552 31 24 C27.92817395 24.35444147 25.0597473 24.51173474 22 24 C19.875 21.375 19.875 21.375 18 18 C11.56372037 11.21322989 5.06545629 9.76552742 -4 9 C-1.125 2.25 -1.125 2.25 0 0 Z " fill="#98BF27" transform="translate(60,23)"/>
<path d="M0 0 C13.86 0 27.72 0 42 0 C42 1.98 42 3.96 42 6 C28.14 6 14.28 6 0 6 C0 4.02 0 2.04 0 0 Z " fill="#6F6E6E" transform="translate(165,40)"/>
<path d="M0 0 C7.12660439 -0.65987078 12.02989415 1.05747727 18 5 C20.09022148 6.91252928 21.41011869 8.61517804 23 11 C23 11.66 23 12.32 23 13 C15.8967924 13.53385276 10.04985371 13.02912864 4 9 C0 4.2195122 0 4.2195122 0 0 Z " fill="#98BF25" transform="translate(56,34)"/>
<path d="M0 0 C8.4361207 0.28120402 15.79461022 0.79461022 22 7 C23 9 23 9 23 13 C14.53696414 13.52893974 8.76066904 11.07574235 2.34765625 5.59765625 C0.79802345 3.76055534 0.40034072 2.34630065 0 0 Z " fill="#D5206E" transform="translate(40,65)"/>
<path d="M0 0 C0.54822107 6.57865285 -0.05946508 11.56752845 -4 17 C-6.17646228 19.22873539 -8.43795857 21.2247272 -11 23 C-11.33 23 -11.66 23 -12 23 C-10.7261614 6.94963365 -10.7261614 6.94963365 -4.9375 1.9375 C-2 0 -2 0 0 0 Z " fill="#EFB916" transform="translate(81,53)"/>
<path d="M0 0 C-0.46350312 7.18429842 -1.3636133 15.66239457 -6.94921875 20.7890625 C-9 22 -9 22 -12 22 C-12.5491052 15.41073759 -11.89741063 10.46588076 -8 5 C-3.24271845 0 -3.24271845 0 0 0 Z " fill="#1B95D4" transform="translate(50,37)"/>
<path d="M0 0 C1 1 1 1 1.09765625 3.28515625 C1.08605469 4.20167969 1.07445313 5.11820313 1.0625 6.0625 C1.05347656 6.98160156 1.04445313 7.90070312 1.03515625 8.84765625 C1.02355469 9.55792969 1.01195313 10.26820312 1 11 C0.67 11 0.34 11 0 11 C0 8.03 0 5.06 0 2 C-9.97791383 6.17794421 -16.60419389 10.83912481 -20.875 21 C-22.26768728 25.23787051 -22.70233971 29.56588814 -23 34 C-23.33 34 -23.66 34 -24 34 C-24.144375 33.2575 -24.28875 32.515 -24.4375 31.75 C-24.91966256 29.12054271 -24.91966256 29.12054271 -25.62109375 27.1171875 C-26.40924411 22.7132958 -24.06388002 18.79102172 -22 15 C-17.6228734 8.93251962 -8.34664868 -2.78221623 0 0 Z " fill="#F2F8FC" transform="translate(50,23)"/>
<path d="M0 0 C0.05384521 2.29141286 0.09272087 4.58318188 0.125 6.875 C0.14820313 8.15117188 0.17140625 9.42734375 0.1953125 10.7421875 C0 14 0 14 -2 16 C-5.125 16.125 -5.125 16.125 -8 16 C-8 15.67 -8 15.34 -8 15 C-6.35 14.67 -4.7 14.34 -3 14 C-3 13.34 -3 12.68 -3 12 C-3.78375 11.87625 -4.5675 11.7525 -5.375 11.625 C-8 11 -8 11 -10 9 C-10.3267107 5.92891945 -10.48138276 3.84949899 -8.9375 1.125 C-6.03534029 -0.56012499 -3.29285854 -0.06852191 0 0 Z " fill="#D2D1D1" transform="translate(228,89)"/>
<path d="M0 0 C3.06242403 0.92644761 4.65658277 1.50915173 6.51953125 4.171875 C6.94621094 5.02265625 7.37289063 5.8734375 7.8125 6.75 C12.74409599 15.45872167 19.78171062 18.78871067 29 22 C28.67 22.99 28.34 23.98 28 25 C18.28729195 22.87090951 11.29942619 18.72551657 5.625 10.4375 C3.53767771 7.0513994 1.66650709 3.61076535 0 0 Z " fill="#FAEBF0" transform="translate(24,66)"/>
<path d="M0 0 C10.4390657 2.75475345 17.55379093 8.39362512 24 17 C25.05794332 18.96996343 26.07836462 20.96270075 27 23 C27.66 23.66 28.32 24.32 29 25 C27.35 25.33 25.7 25.66 24 26 C23.67128906 25.21496094 23.34257813 24.42992188 23.00390625 23.62109375 C19.03718255 14.85990183 14.89631378 9.55202211 5.9765625 5.69140625 C3.33563708 4.71039411 0.69717758 3.811674 -2 3 C-1.34 2.67 -0.68 2.34 0 2 C0 1.34 0 0.68 0 0 Z " fill="#F5F8EC" transform="translate(67,21)"/>
<path d="M0 0 C0.33 0.66 0.66 1.32 1 2 C-3.46648762 13.45297798 -8.97425902 20.68314268 -20 26 C-19.62464841 23.42773762 -19.29796938 22.26594463 -17.328125 20.5078125 C-16.64234375 20.05148438 -15.9565625 19.59515625 -15.25 19.125 C-10.05998113 15.4112119 -6.54044022 11.90207119 -4.375 5.75 C-3 2 -3 2 0 0 Z " fill="#FDF6E7" transform="translate(94,63)"/>
<path d="M0 0 C0.99 0 1.98 0 3 0 C3.42214773 7.8800909 2.13459968 13.63882307 -2.875 19.875 C-5.3141139 22.5519275 -7.43000267 24.05500071 -11 25 C-11 24.01 -11 23.02 -11 22 C-9.57421875 20.640625 -9.57421875 20.640625 -7.6875 19.25 C-2.60393617 15.07018085 -1.06751809 10.4851872 -0.3125 4.0625 C-0.19727993 2.709229 -0.0891201 1.35524008 0 0 Z " fill="#FCF5E4" transform="translate(81,53)"/>
<path d="M0 0 C2.375 -0.125 2.375 -0.125 5 0 C7 2 7 2 7.1953125 4.3828125 C7.17210937 5.28773437 7.14890625 6.19265625 7.125 7.125 C7.10695312 8.03507812 7.08890625 8.94515625 7.0703125 9.8828125 C7.04710937 10.58148438 7.02390625 11.28015625 7 12 C0.9453125 12.1953125 0.9453125 12.1953125 -1 12 C-1.66 11.34 -2.32 10.68 -3 10 C-2.625 7.875 -2.625 7.875 -2 6 C1.465 5.505 1.465 5.505 5 5 C4.67 4.01 4.34 3.02 4 2 C2.35 2 0.7 2 -1 2 C-0.67 1.34 -0.34 0.68 0 0 Z " fill="#8A898A" transform="translate(184,89)"/>
<path d="M0 0 C2.5 0.25 2.5 0.25 4.5 2.25 C4.5 3.57 4.5 4.89 4.5 6.25 C1.86 6.25 -0.78 6.25 -3.5 6.25 C-3.17 7.57 -2.84 8.89 -2.5 10.25 C-0.19 10.25 2.12 10.25 4.5 10.25 C3.84 10.91 3.18 11.57 2.5 12.25 C-0.5625 12 -0.5625 12 -3.5 11.25 C-5.00662097 8.23675805 -4.67770373 5.56713623 -4.5 2.25 C-2.5 0.25 -2.5 0.25 0 0 Z " fill="#7C7B7B" transform="translate(174.5,88.75)"/>
<path d="M0 0 C2.5 0.25 2.5 0.25 4.5 2.25 C4.5 3.57 4.5 4.89 4.5 6.25 C1.86 6.25 -0.78 6.25 -3.5 6.25 C-2.84 7.57 -2.18 8.89 -1.5 10.25 C0.48 10.25 2.46 10.25 4.5 10.25 C4.17 10.91 3.84 11.57 3.5 12.25 C0.625 12.375 0.625 12.375 -2.5 12.25 C-4.5 10.25 -4.5 10.25 -4.765625 8.375 C-4.76046875 7.67375 -4.7553125 6.9725 -4.75 6.25 C-4.75515625 5.54875 -4.7603125 4.8475 -4.765625 4.125 C-4.31971142 0.97737476 -3.03899237 0.30389924 0 0 Z " fill="#706F6F" transform="translate(407.5,88.75)"/>
<path d="M0 0 C0.66 0 1.32 0 2 0 C2 3.63 2 7.26 2 11 C-0.64 11 -3.28 11 -6 11 C-6.625 8.625 -6.625 8.625 -7 6 C-5 4 -5 4 -1.875 3.875 C-0.92625 3.91625 0.0225 3.9575 1 4 C0.67 2.68 0.34 1.36 0 0 Z " fill="#6D6C6D" transform="translate(329,90)"/>
<path d="M0 0 C0.66 0.33 1.32 0.66 2 1 C2 4.3 2 7.6 2 11 C-0.64 11 -3.28 11 -6 11 C-6.625 8.625 -6.625 8.625 -7 6 C-5 4 -5 4 -1.875 3.875 C-0.92625 3.91625 0.0225 3.9575 1 4 C0.67 2.68 0.34 1.36 0 0 Z " fill="#7A797A" transform="translate(256,90)"/>
<path d="M0 0 C0.66 0.33 1.32 0.66 2 1 C2.625 3.0625 2.625 3.0625 3 5 C2.67 4.34 2.34 3.68 2 3 C-3.80713343 6.57362057 -6.47348682 9.67587074 -9 16 C-9.99 16 -10.98 16 -12 16 C-10.43900511 9.06224493 -5.8184277 3.8789518 0 0 Z " fill="#ECF5FB" transform="translate(48,34)"/>
<path d="M0 0 C0.66 0 1.32 0 2 0 C1.52328556 2.7013818 0.93934105 5.16681211 0 7.75 C-1.24924568 11.81004846 -1.64371576 15.78084457 -2 20 C-2.33 20 -2.66 20 -3 20 C-3.144375 19.2575 -3.28875 18.515 -3.4375 17.75 C-3.90969416 15.12118752 -3.90969416 15.12118752 -4.65234375 13.15234375 C-5.1257678 10.22137013 -4.28496065 8.52040813 -3.125 5.8125 C-2.75632812 4.93207031 -2.38765625 4.05164062 -2.0078125 3.14453125 C-1 1 -1 1 0 0 Z " fill="#EBF4FA" transform="translate(29,37)"/>
<path d="M0 0 C0.66 0 1.32 0 2 0 C2 0.99 2 1.98 2 3 C2.66 3.33 3.32 3.66 4 4 C3.34 4 2.68 4 2 4 C2 7.3 2 10.6 2 14 C2.66 14.33 3.32 14.66 4 15 C2.68 14.67 1.36 14.34 0 14 C0 10.7 0 7.4 0 4 C-0.66 3.67 -1.32 3.34 -2 3 C-1.34 3 -0.68 3 0 3 C0 2.01 0 1.02 0 0 Z " fill="#8D8C8C" transform="translate(343,86)"/>
<path d="M0 0 C1.2065625 0.0309375 1.2065625 0.0309375 2.4375 0.0625 C2.7675 1.7125 3.0975 3.3625 3.4375 5.0625 C1.1275 5.0625 -1.1825 5.0625 -3.5625 5.0625 C-3.5625 0.08689024 -3.5625 0.08689024 0 0 Z " fill="#D5D5D5" transform="translate(253.5625,88.9375)"/>
<path d="M0 0 C1.98 0 3.96 0 6 0 C5.525625 0.495 5.05125 0.99 4.5625 1.5 C2.37832093 4.99468651 2.34086089 7.90966936 2 12 C1.34 12 0.68 12 0 12 C0 8.04 0 4.08 0 0 Z " fill="#9A9999" transform="translate(163,89)"/>
<path d="M0 0 C0.05384521 2.29141286 0.09272087 4.58318188 0.125 6.875 C0.14820313 8.15117188 0.17140625 9.42734375 0.1953125 10.7421875 C0 14 0 14 -2 16 C-5.125 16.125 -5.125 16.125 -8 16 C-8 15.67 -8 15.34 -8 15 C-6.35 14.67 -4.7 14.34 -3 14 C-2.80533668 12.20909747 -2.61948787 10.41723495 -2.4375 8.625 C-2.33308594 7.62726563 -2.22867188 6.62953125 -2.12109375 5.6015625 C-1.78855292 3.015963 -1.78855292 3.015963 -3 1 C-1 0 -1 0 0 0 Z " fill="#828181" transform="translate(228,89)"/>
<path d="M0 0 C1.65 0 3.3 0 5 0 C5.33 1.65 5.66 3.3 6 5 C3.69 5 1.38 5 -1 5 C-0.67 3.35 -0.34 1.7 0 0 Z " fill="#D4D4D4" transform="translate(324,89)"/>
<path d="M0 0 C1.98 0 3.96 0 6 0 C5.51917969 0.39832031 5.03835938 0.79664062 4.54296875 1.20703125 C2.62608175 3.43450247 2.52258357 4.78834669 2.3125 7.6875 C2.21388672 8.89986328 2.21388672 8.89986328 2.11328125 10.13671875 C2.07589844 10.75160156 2.03851563 11.36648437 2 12 C1.34 12 0.68 12 0 12 C0 8.04 0 4.08 0 0 Z " fill="#919090" transform="translate(334,89)"/>
<path d="M0 0 C3.3 0.99 6.6 1.98 10 3 C9.01 3.495 9.01 3.495 8 4 C8 4.66 8 5.32 8 6 C4.22454612 4.90931332 1.52956528 4.0916909 -1 1 C-0.67 0.67 -0.34 0.34 0 0 Z " fill="#F8E4EB" transform="translate(46,74)"/>
<path d="M0 0 C3.73487777 0.4979837 5.81237635 0.87491756 9 3 C8.67 3.99 8.34 4.98 8 6 C3.545 4.02 3.545 4.02 -1 2 C-0.67 1.34 -0.34 0.68 0 0 Z " fill="#F2F6E6" transform="translate(65,33)"/>
<path d="M0 0 C3 1 3 1 4 2 C4.07205511 3.68608966 4.08386068 5.37500659 4.0625 7.0625 C4.05347656 7.98160156 4.04445313 8.90070312 4.03515625 9.84765625 C4.02355469 10.55792969 4.01195312 11.26820312 4 12 C3.67 12 3.34 12 3 12 C3 9.03 3 6.06 3 3 C1.02 3.66 -0.96 4.32 -3 5 C-2.625 3.0625 -2.625 3.0625 -2 1 C-1.34 0.67 -0.68 0.34 0 0 Z " fill="#C7E1F2" transform="translate(47,22)"/>
<path d="M0 0 C1.2065625 0.0309375 1.2065625 0.0309375 2.4375 0.0625 C2.1075 1.3825 1.7775 2.7025 1.4375 4.0625 C0.1175 4.3925 -1.2025 4.7225 -2.5625 5.0625 C-3.125 3.125 -3.125 3.125 -3.5625 1.0625 C-2.5625 0.0625 -2.5625 0.0625 0 0 Z " fill="#F7F7F7" transform="translate(327.5625,94.9375)"/>
<path d="M0 0 C1.2065625 0.0309375 1.2065625 0.0309375 2.4375 0.0625 C2.1075 1.3825 1.7775 2.7025 1.4375 4.0625 C0.1175 4.3925 -1.2025 4.7225 -2.5625 5.0625 C-3.125 3.125 -3.125 3.125 -3.5625 1.0625 C-2.5625 0.0625 -2.5625 0.0625 0 0 Z " fill="#F8F8F8" transform="translate(254.5625,94.9375)"/>
<path d="M0 0 C1.2065625 0.0309375 1.2065625 0.0309375 2.4375 0.0625 C2.1075 1.3825 1.7775 2.7025 1.4375 4.0625 C0.1175 4.3925 -1.2025 4.7225 -2.5625 5.0625 C-3.125 3.125 -3.125 3.125 -3.5625 1.0625 C-2.5625 0.0625 -2.5625 0.0625 0 0 Z " fill="#F6F6F6" transform="translate(186.5625,94.9375)"/>
<path d="M0 0 C0.99 0.33 1.98 0.66 3 1 C2.67 4.63 2.34 8.26 2 12 C1.34 12 0.68 12 0 12 C0 8.04 0 4.08 0 0 Z " fill="#949393" transform="translate(383,89)"/>
<path d="M0 0 C0.99 0.33 1.98 0.66 3 1 C2.67 4.63 2.34 8.26 2 12 C1.34 12 0.68 12 0 12 C0 8.04 0 4.08 0 0 Z " fill="#979797" transform="translate(206,89)"/>
<path d="M0 0 C0.33 0.99 0.66 1.98 1 3 C1.99 3.33 2.98 3.66 4 4 C3.01 4 2.02 4 1 4 C1.11409593 5.45922693 1.24165544 6.91740598 1.375 8.375 C1.44460937 9.18710938 1.51421875 9.99921875 1.5859375 10.8359375 C1.82892588 13.20334191 1.82892588 13.20334191 4 15 C2.68 14.67 1.36 14.34 0 14 C0 10.7 0 7.4 0 4 C-0.66 3.67 -1.32 3.34 -2 3 C-1.34 3 -0.68 3 0 3 C0 2.01 0 1.02 0 0 Z " fill="#666566" transform="translate(195,86)"/>
<path d="M0 0 C1.32 0 2.64 0 4 0 C4.33 1.32 4.66 2.64 5 4 C2.69 4 0.38 4 -2 4 C-1.34 2.68 -0.68 1.36 0 0 Z " fill="#F0F0F0" transform="translate(406,90)"/>
<path d="M0 0 C1.32 0 2.64 0 4 0 C4.33 1.32 4.66 2.64 5 4 C2.69 4 0.38 4 -2 4 C-1.34 2.68 -0.68 1.36 0 0 Z " fill="#EDEDED" transform="translate(173,90)"/>
<path d="M0 0 C0.33 0.66 0.66 1.32 1 2 C1.66 2 2.32 2 3 2 C2.67 5.63 2.34 9.26 2 13 C1.67 13 1.34 13 1 13 C0.855625 12.2575 0.71125 11.515 0.5625 10.75 C0.0636926 8.09581805 0.0636926 8.09581805 -0.625 5.9375 C-1.06506291 3.66384163 -0.70205558 2.18417292 0 0 Z " fill="#BBDBF0" transform="translate(25,44)"/>
<path d="M0 0 C1.32 0.33 2.64 0.66 4 1 C4 1.99 4 2.98 4 4 C2.02 4.33 0.04 4.66 -2 5 C-1.34 3.35 -0.68 1.7 0 0 Z " fill="#F7F7F7" transform="translate(185,90)"/>
<path d="M0 0 C1 2 1 2 1 5 C1.99 5.66 2.98 6.32 4 7 C2.35 7 0.7 7 -1 7 C-1.625 4.625 -1.625 4.625 -2 2 C-1.34 1.34 -0.68 0.68 0 0 Z " fill="#858485" transform="translate(324,94)"/>
</svg>
