<?xml version="1.0" encoding="UTF-8"?>
<!DOCTYPE svg PUBLIC "-//W3C//DTD SVG 1.1//EN" "http://www.w3.org/Graphics/SVG/1.1/DTD/svg11.dtd">
<svg xmlns="http://www.w3.org/2000/svg" version="1.1" width="368px" height="137px" style="shape-rendering:geometricPrecision; text-rendering:geometricPrecision; image-rendering:optimizeQuality; fill-rule:evenodd; clip-rule:evenodd" xmlns:xlink="http://www.w3.org/1999/xlink">
<g><path style="opacity:1" fill="#fefdfd" d="M -0.5,-0.5 C 122.167,-0.5 244.833,-0.5 367.5,-0.5C 367.5,45.1667 367.5,90.8333 367.5,136.5C 244.833,136.5 122.167,136.5 -0.5,136.5C -0.5,90.8333 -0.5,45.1667 -0.5,-0.5 Z"/></g>
<g><path style="opacity:1" fill="#82888c" d="M 120.5,4.5 C 128.149,4.31437 131.315,7.98103 130,15.5C 125.333,22.1667 120.667,22.1667 116,15.5C 114.776,10.626 116.276,6.9593 120.5,4.5 Z"/></g>
<g><path style="opacity:1" fill="#e32024" d="M 60.5,4.5 C 93.5772,3.93644 116.077,18.9364 128,49.5C 134.487,80.1244 124.987,104.291 99.5,122C 64.974,138.374 36.474,131.207 14,100.5C -1.62732,69.9733 2.87268,42.8067 27.5,19C 37.4352,11.5297 48.4352,6.69636 60.5,4.5 Z"/></g>
<g><path style="opacity:1" fill="#f5f5f6" d="M 119.5,6.5 C 125.028,5.06928 128.362,7.06928 129.5,12.5C 128.349,18.0913 125.016,19.9246 119.5,18C 115.581,14.1727 115.581,10.3393 119.5,6.5 Z"/></g>
<g><path style="opacity:1" fill="#9fa3a7" d="M 119.5,8.5 C 121.792,8.24358 123.959,8.57692 126,9.5C 125.009,11.4473 124.675,13.4473 125,15.5C 122.979,12.7138 121.479,13.0472 120.5,16.5C 119.52,13.9135 119.187,11.2469 119.5,8.5 Z"/></g>
<g><path style="opacity:1" fill="#bfc1c3" d="M 152.5,26.5 C 168.325,25.5036 184.325,25.1703 200.5,25.5C 200.768,27.099 200.434,28.4324 199.5,29.5C 199.5,28.5 199.5,27.5 199.5,26.5C 183.833,26.5 168.167,26.5 152.5,26.5 Z"/></g>
<g><path style="opacity:1" fill="#323c44" d="M 152.5,26.5 C 168.167,26.5 183.833,26.5 199.5,26.5C 199.5,27.5 199.5,28.5 199.5,29.5C 199.265,33.57 197.265,36.4033 193.5,38C 184.506,38.4998 175.506,38.6664 166.5,38.5C 166.5,45.1667 166.5,51.8333 166.5,58.5C 176.5,58.5 186.5,58.5 196.5,58.5C 197.119,63.42 195.453,67.2534 191.5,70C 183.173,70.4997 174.84,70.6664 166.5,70.5C 166.5,81.5 166.5,92.5 166.5,103.5C 160.043,104.025 155.543,101.358 153,95.5C 152.5,72.5024 152.333,49.5024 152.5,26.5 Z"/></g>
<g><path style="opacity:1" fill="#333d45" d="M 342.5,26.5 C 350.656,25.8211 354.156,29.4878 353,37.5C 348.255,42.7434 343.588,42.7434 339,37.5C 337.663,32.9159 338.829,29.2493 342.5,26.5 Z"/></g>
<g><path style="opacity:1" fill="#364048" d="M 327.5,91.5 C 328.919,92.4511 330.585,92.7845 332.5,92.5C 332.5,94.1667 332.5,95.8333 332.5,97.5C 328.203,104.093 322.537,105.26 315.5,101C 313.622,99.4571 312.122,97.6238 311,95.5C 309.564,72.5388 309.064,49.5388 309.5,26.5C 314.825,26.1073 318.991,28.1073 322,32.5C 322.333,51.5 322.667,70.5 323,89.5C 324.11,91.0368 325.61,91.7035 327.5,91.5 Z"/></g>
<g><path style="opacity:1" fill="#fef9f9" d="M 101.5,31.5 C 103.167,31.5 104.833,31.5 106.5,31.5C 102.876,45.6222 93.8762,54.1222 79.5,57C 71.4836,57.87 63.4836,58.87 55.5,60C 51.2807,60.7913 47.6141,62.6246 44.5,65.5C 44.4761,57.7176 46.6427,50.3842 51,43.5C 52.4095,42.2125 53.9095,41.0458 55.5,40C 71.0205,37.4606 86.3538,34.6273 101.5,31.5 Z"/></g>
<g><path style="opacity:1" fill="#353f47" d="M 226.5,44.5 C 242.928,43.2908 254.761,49.9575 262,64.5C 265.861,80.9415 260.361,93.1082 245.5,101C 224.587,107.458 210.087,100.625 202,80.5C 200.494,61.8301 208.66,49.8301 226.5,44.5 Z"/></g>
<g><path style="opacity:1" fill="#787f83" d="M 278.5,48.5 C 275.833,48.5 273.167,48.5 270.5,48.5C 270.5,63.8333 270.5,79.1667 270.5,94.5C 269.504,79.0089 269.17,63.3422 269.5,47.5C 272.713,47.19 275.713,47.5233 278.5,48.5 Z"/></g>
<g><path style="opacity:1" fill="#343e46" d="M 278.5,48.5 C 281.273,49.9547 282.94,52.288 283.5,55.5C 285.417,52.4167 288.084,50.25 291.5,49C 295.821,48.501 300.154,48.3343 304.5,48.5C 304.804,52.2154 304.137,55.7154 302.5,59C 293.685,58.4868 287.185,61.9868 283,69.5C 282.5,80.8284 282.333,92.1618 282.5,103.5C 275.821,103.847 271.821,100.847 270.5,94.5C 270.5,79.1667 270.5,63.8333 270.5,48.5C 273.167,48.5 275.833,48.5 278.5,48.5 Z"/></g>
<g><path style="opacity:1" fill="#363f48" d="M 339.5,48.5 C 344.609,47.923 348.776,49.5896 352,53.5C 352.333,65.8333 352.667,78.1667 353,90.5C 354.444,92.1554 356.278,92.822 358.5,92.5C 358.994,101.174 354.994,104.674 346.5,103C 344,101.833 342.167,100 341,97.5C 339.56,81.2236 339.06,64.8903 339.5,48.5 Z"/></g>
<g><path style="opacity:1" fill="#fbfbfb" d="M 227.5,56.5 C 247.095,56.6875 253.595,66.0208 247,84.5C 239.94,91.7921 231.774,93.2921 222.5,89C 215.863,83.2894 213.696,76.1228 216,67.5C 218.412,62.2523 222.246,58.5857 227.5,56.5 Z"/></g>
<g><path style="opacity:1" fill="#fef6f6" d="M 74.5,61.5 C 76.288,61.2148 77.9547,61.5481 79.5,62.5C 73.5191,74.2925 63.8524,80.1258 50.5,80C 46.8388,80.829 43.5054,82.329 40.5,84.5C 40.4897,74.4266 45.4897,67.9266 55.5,65C 62.0838,64.4606 68.4171,63.2939 74.5,61.5 Z"/></g>
<g><path style="opacity:1" fill="#fef5f5" d="M 49.5,84.5 C 51.5,84.5 53.5,84.5 55.5,84.5C 52.563,99.9571 43.563,105.79 28.5,102C 34.752,101.377 38.252,97.877 39,91.5C 41.7093,87.7906 45.2093,85.4573 49.5,84.5 Z"/></g>
<g><path style="opacity:1" fill="#93979b" d="M 327.5,91.5 C 329.5,91.5 331.5,91.5 333.5,91.5C 333.795,93.7354 333.461,95.7354 332.5,97.5C 332.5,95.8333 332.5,94.1667 332.5,92.5C 330.585,92.7845 328.919,92.4511 327.5,91.5 Z"/></g>
</svg>
