<?xml version="1.0" encoding="UTF-8"?>
<!DOCTYPE svg PUBLIC "-//W3C//DTD SVG 1.1//EN" "http://www.w3.org/Graphics/SVG/1.1/DTD/svg11.dtd">
<svg xmlns="http://www.w3.org/2000/svg" version="1.1" width="227px" height="222px" style="shape-rendering:geometricPrecision; text-rendering:geometricPrecision; image-rendering:optimizeQuality; fill-rule:evenodd; clip-rule:evenodd" xmlns:xlink="http://www.w3.org/1999/xlink">
<g><path style="opacity:1" fill="#fcfdfd" d="M -0.5,-0.5 C 75.1667,-0.5 150.833,-0.5 226.5,-0.5C 226.5,73.5 226.5,147.5 226.5,221.5C 150.833,221.5 75.1667,221.5 -0.5,221.5C -0.5,147.5 -0.5,73.5 -0.5,-0.5 Z"/></g>
<g><path style="opacity:1" fill="#236eab" d="M 169.5,96.5 C 168.041,96.5674 166.708,96.2341 165.5,95.5C 165.167,94.5 164.5,93.8333 163.5,93.5C 163.357,91.7376 163.691,90.0709 164.5,88.5C 154.282,77.2247 141.949,74.3913 127.5,80C 119.749,83.0797 113.082,87.7464 107.5,94C 105.833,94.6667 104.167,94.6667 102.5,94C 114.833,78.1594 130.833,71.8261 150.5,75C 157.708,76.4283 163.375,80.095 167.5,86C 174.533,88.5967 175.199,92.0967 169.5,96.5 Z"/></g>
<g><path style="opacity:1" fill="#8eb0ca" d="M 173.5,87.5 C 174.189,86.2264 175.023,86.2264 176,87.5C 176.774,89.403 176.44,91.0696 175,92.5C 174.802,90.6183 174.302,88.9516 173.5,87.5 Z"/></g>
<g><path style="opacity:1" fill="#a4c2d2" d="M 163.5,93.5 C 164.5,93.8333 165.167,94.5 165.5,95.5C 164.662,95.8417 164.328,96.5084 164.5,97.5C 161.045,96.8716 159.878,94.8716 161,91.5C 161.075,93.935 161.908,94.6016 163.5,93.5 Z"/></g>
<g><path style="opacity:1" fill="#c8e7f5" d="M 100.5,97.5 C 107.325,96.8337 114.325,96.5003 121.5,96.5C 129.624,96.5984 137.624,97.2651 145.5,98.5C 143.525,100.137 141.525,101.804 139.5,103.5C 136.713,102.523 133.713,102.19 130.5,102.5C 133.625,101.521 136.958,101.187 140.5,101.5C 140.5,100.167 140.5,98.8333 140.5,97.5C 132.833,97.5 125.167,97.5 117.5,97.5C 117.5,98.8333 117.5,100.167 117.5,101.5C 120.385,101.194 123.052,101.527 125.5,102.5C 121.498,102.036 117.831,102.702 114.5,104.5C 114.674,102.139 115.007,99.8056 115.5,97.5C 110.5,97.5 105.5,97.5 100.5,97.5 Z"/></g>
<g><path style="opacity:1" fill="#dbeff6" d="M 165.5,95.5 C 166.708,96.2341 168.041,96.5674 169.5,96.5C 177.833,96.5 186.167,96.5 194.5,96.5C 194.077,98.7812 194.744,100.448 196.5,101.5C 195.136,103.191 193.803,104.858 192.5,106.5C 192.5,105.5 192.5,104.5 192.5,103.5C 187.105,103.267 181.772,103.6 176.5,104.5C 177.058,103.21 178.058,102.377 179.5,102C 184.155,101.501 188.821,101.334 193.5,101.5C 193.5,100.167 193.5,98.8333 193.5,97.5C 186.939,96.9186 180.605,97.752 174.5,100C 168.419,104.896 167.086,110.729 170.5,117.5C 169.153,116.829 167.986,116.829 167,117.5C 166.749,119.433 166.249,121.266 165.5,123C 166.537,124.851 165.87,126.017 163.5,126.5C 163.38,125.414 162.713,124.747 161.5,124.5C 159.927,124.752 158.594,125.418 157.5,126.5C 157.5,125.5 157.5,124.5 157.5,123.5C 159.857,123.663 162.19,123.497 164.5,123C 161.912,121.314 159.245,121.147 156.5,122.5C 155.702,122.043 155.369,121.376 155.5,120.5C 157.124,120.64 158.29,119.973 159,118.5C 159.912,113.536 160.412,108.536 160.5,103.5C 161.222,103.918 161.722,104.584 162,105.5C 162.383,104.944 162.883,104.611 163.5,104.5C 162.5,109.833 161.5,115.167 160.5,120.5C 162.144,120.714 163.644,120.38 165,119.5C 166.214,112.085 167.714,104.751 169.5,97.5C 167.833,97.5 166.167,97.5 164.5,97.5C 164.328,96.5084 164.662,95.8417 165.5,95.5 Z"/></g>
<g><path style="opacity:1" fill="#d7eef7" d="M 69.5,101.5 C 66.0751,104.729 64.7418,108.729 65.5,113.5C 64.8423,112.602 64.1757,111.602 63.5,110.5C 63.1667,110.833 62.8333,111.167 62.5,111.5C 62.2325,114.961 61.2325,117.961 59.5,120.5C 59.7261,117.751 59.3928,115.084 58.5,112.5C 65.1083,108.715 66.1083,103.882 61.5,98C 54.8417,97.5004 48.175,97.3337 41.5,97.5C 48.6873,96.7306 56.0206,96.0639 63.5,95.5C 63.7286,97.433 64.5619,99.0997 66,100.5C 67.0113,101.337 68.1779,101.67 69.5,101.5 Z"/></g>
<g><path style="opacity:1" fill="#92bfd7" d="M 217.5,99.5 C 217.5,100.5 217.5,101.5 217.5,102.5C 212.833,102.5 208.167,102.5 203.5,102.5C 208.279,102.047 212.946,101.047 217.5,99.5 Z"/></g>
<g><path style="opacity:1" fill="#1f6da9" d="M 130.5,102.5 C 129.149,107.751 127.982,113.084 127,118.5C 125.951,120.107 124.451,120.773 122.5,120.5C 122.986,114.406 123.986,108.406 125.5,102.5C 123.052,101.527 120.385,101.194 117.5,101.5C 117.5,100.167 117.5,98.8333 117.5,97.5C 125.167,97.5 132.833,97.5 140.5,97.5C 140.5,98.8333 140.5,100.167 140.5,101.5C 136.958,101.187 133.625,101.521 130.5,102.5 Z"/></g>
<g><path style="opacity:1" fill="#2671ab" d="M 160.5,103.5 C 160.412,108.536 159.912,113.536 159,118.5C 158.29,119.973 157.124,120.64 155.5,120.5C 154.624,120.631 153.957,120.298 153.5,119.5C 154.986,114.901 155.82,110.234 156,105.5C 151.368,101.302 147.035,101.636 143,106.5C 141.493,110.698 140.493,115.032 140,119.5C 138.644,120.38 137.144,120.714 135.5,120.5C 135.826,114.527 137.159,108.861 139.5,103.5C 141.525,101.804 143.525,100.137 145.5,98.5C 149.561,97.0092 153.561,97.1759 157.5,99C 158.883,100.271 159.883,101.771 160.5,103.5 Z"/></g>
<g><path style="opacity:1" fill="#236eac" d="M 38.5,97.5 C 38.5,98.8333 38.5,100.167 38.5,101.5C 33.8215,101.334 29.1548,101.501 24.5,102C 17.8984,104.352 16.2317,108.519 19.5,114.5C 22.4281,115.484 25.4281,115.817 28.5,115.5C 28.7135,117.144 28.3802,118.644 27.5,120C 24.854,120.497 22.1873,120.664 19.5,120.5C 13.7879,117.173 11.9546,112.173 14,105.5C 16.3028,101.859 19.4695,99.3594 23.5,98C 28.4889,97.5007 33.4889,97.3341 38.5,97.5 Z"/></g>
<g><path style="opacity:1" fill="#2c72ac" d="M 164.5,97.5 C 166.167,97.5 167.833,97.5 169.5,97.5C 167.714,104.751 166.214,112.085 165,119.5C 163.644,120.38 162.144,120.714 160.5,120.5C 161.5,115.167 162.5,109.833 163.5,104.5C 164.219,102.236 164.552,99.9029 164.5,97.5 Z"/></g>
<g><path style="opacity:1" fill="#206eaa" d="M 217.5,99.5 C 212.946,101.047 208.279,102.047 203.5,102.5C 201.355,102.738 199.688,103.738 198.5,105.5C 204.128,106.495 209.794,106.829 215.5,106.5C 215.768,108.099 215.434,109.432 214.5,110.5C 208.5,110.5 202.5,110.5 196.5,110.5C 196.263,111.791 196.596,112.791 197.5,113.5C 197.918,114.222 198.584,114.722 199.5,115C 204.155,115.499 208.821,115.666 213.5,115.5C 213.5,117.167 213.5,118.833 213.5,120.5C 208.156,120.666 202.823,120.499 197.5,120C 195.43,119.052 193.93,117.552 193,115.5C 192.502,112.518 192.335,109.518 192.5,106.5C 193.803,104.858 195.136,103.191 196.5,101.5C 200.526,98.3231 205.193,96.9898 210.5,97.5C 213.269,97.5286 215.603,98.1952 217.5,99.5 Z"/></g>
<g><path style="opacity:1" fill="#1d6cab" d="M 41.5,97.5 C 48.175,97.3337 54.8417,97.5004 61.5,98C 66.1083,103.882 65.1083,108.715 58.5,112.5C 59.3928,115.084 59.7261,117.751 59.5,120.5C 58.1667,120.5 56.8333,120.5 55.5,120.5C 55.9465,117.99 55.2798,115.99 53.5,114.5C 53.0825,113.778 52.4158,113.278 51.5,113C 48.5184,112.502 45.5184,112.335 42.5,112.5C 42.1667,115.167 41.8333,117.833 41.5,120.5C 40.1667,120.5 38.8333,120.5 37.5,120.5C 37.6386,113.672 38.6386,107.005 40.5,100.5C 40.5569,99.391 40.8902,98.391 41.5,97.5 Z"/></g>
<g><path style="opacity:1" fill="#f3f9f9" d="M 58.5,102.5 C 61.1239,104.198 61.1239,106.031 58.5,108C 53.5111,108.499 48.5111,108.666 43.5,108.5C 43.2322,106.901 43.5655,105.568 44.5,104.5C 48.8536,102.652 53.5203,101.985 58.5,102.5 Z"/></g>
<g><path style="opacity:1" fill="#95c1d8" d="M 58.5,102.5 C 53.5203,101.985 48.8536,102.652 44.5,104.5C 44.5,103.5 44.5,102.5 44.5,101.5C 49.3633,101.181 54.03,101.514 58.5,102.5 Z"/></g>
<g><path style="opacity:1" fill="#236eac" d="M 88.5,110.5 C 82.1318,110.17 75.7985,110.504 69.5,111.5C 69.6236,112.107 69.9569,112.44 70.5,112.5C 71.1667,113.833 72.1667,114.833 73.5,115.5C 78.0937,115.865 82.427,116.865 86.5,118.5C 84.2568,119.812 81.5902,120.478 78.5,120.5C 71.871,122.024 67.5376,119.691 65.5,113.5C 64.7418,108.729 66.0751,104.729 69.5,101.5C 71.2726,100.108 73.2726,98.941 75.5,98C 80.4889,97.5007 85.4889,97.3341 90.5,97.5C 90.5,98.8333 90.5,100.167 90.5,101.5C 85.4889,101.334 80.4889,101.501 75.5,102C 74.1667,103.333 72.8333,104.667 71.5,106C 77.1569,106.499 82.8236,106.666 88.5,106.5C 88.5,107.833 88.5,109.167 88.5,110.5 Z"/></g>
<g><path style="opacity:1" fill="#2771ae" d="M 100.5,97.5 C 105.5,97.5 110.5,97.5 115.5,97.5C 115.007,99.8056 114.674,102.139 114.5,104.5C 112.899,109.599 111.899,114.933 111.5,120.5C 109.833,120.5 108.167,120.5 106.5,120.5C 107.758,114.545 108.758,108.545 109.5,102.5C 106.15,102.335 102.817,102.502 99.5,103C 93.9088,106.279 93.2421,110.279 97.5,115C 99.8098,115.497 102.143,115.663 104.5,115.5C 104.579,116.93 104.246,118.264 103.5,119.5C 96.1894,121.532 91.5227,118.865 89.5,111.5C 90.3026,104.552 93.9693,99.8857 100.5,97.5 Z"/></g>
<g><path style="opacity:1" fill="#1f6ca8" d="M 176.5,104.5 C 173.764,106.858 172.93,109.858 174,113.5C 174.708,114.381 175.542,115.047 176.5,115.5C 180.634,116.485 184.968,116.818 189.5,116.5C 189.5,117.5 189.5,118.5 189.5,119.5C 184.684,120.65 179.684,120.816 174.5,120C 173.016,119.338 171.683,118.504 170.5,117.5C 167.086,110.729 168.419,104.896 174.5,100C 180.605,97.752 186.939,96.9186 193.5,97.5C 193.5,98.8333 193.5,100.167 193.5,101.5C 188.821,101.334 184.155,101.501 179.5,102C 178.058,102.377 177.058,103.21 176.5,104.5 Z"/></g>
<g><path style="opacity:1" fill="#6f9cc7" d="M 88.5,110.5 C 82.5,111.167 76.5,111.833 70.5,112.5C 69.9569,112.44 69.6236,112.107 69.5,111.5C 75.7985,110.504 82.1318,110.17 88.5,110.5 Z"/></g>
<g><path style="opacity:1" fill="#6d9bc7" d="M 214.5,110.5 C 208.594,110.854 202.927,111.854 197.5,113.5C 196.596,112.791 196.263,111.791 196.5,110.5C 202.5,110.5 208.5,110.5 214.5,110.5 Z"/></g>
<g><path style="opacity:1" fill="#78a8d4" d="M 73.5,115.5 C 78.1667,115.5 82.8333,115.5 87.5,115.5C 87.7373,116.791 87.404,117.791 86.5,118.5C 82.427,116.865 78.0937,115.865 73.5,115.5 Z"/></g>
<g><path style="opacity:1" fill="#6ea9d3" d="M 176.5,115.5 C 181.167,115.5 185.833,115.5 190.5,115.5C 190.768,117.099 190.434,118.432 189.5,119.5C 189.5,118.5 189.5,117.5 189.5,116.5C 184.968,116.818 180.634,116.485 176.5,115.5 Z"/></g>
<g><path style="opacity:1" fill="#e3f5f9" d="M 38.5,97.5 C 39.1667,98.5 39.8333,99.5 40.5,100.5C 38.6386,107.005 37.6386,113.672 37.5,120.5C 38.8333,120.5 40.1667,120.5 41.5,120.5C 41.8333,117.833 42.1667,115.167 42.5,112.5C 45.5184,112.335 48.5184,112.502 51.5,113C 52.4158,113.278 53.0825,113.778 53.5,114.5C 50.4281,114.183 47.4281,114.516 44.5,115.5C 44.1857,118.489 42.8524,120.822 40.5,122.5C 33.3703,121.866 26.3703,121.199 19.5,120.5C 22.1873,120.664 24.854,120.497 27.5,120C 28.3802,118.644 28.7135,117.144 28.5,115.5C 25.4281,115.817 22.4281,115.484 19.5,114.5C 16.2317,108.519 17.8984,104.352 24.5,102C 29.1548,101.501 33.8215,101.334 38.5,101.5C 38.5,100.167 38.5,98.8333 38.5,97.5 Z"/></g>
<g><path style="opacity:1" fill="#2f72ae" d="M 24.5,106.5 C 28.5,106.5 32.5,106.5 36.5,106.5C 35.8333,111.167 35.1667,115.833 34.5,120.5C 32.8333,120.5 31.1667,120.5 29.5,120.5C 29.8516,117.572 30.5183,114.738 31.5,112C 28.854,111.503 26.1873,111.336 23.5,111.5C 23.6287,109.784 23.962,108.117 24.5,106.5 Z"/></g>
<g><path style="opacity:1" fill="#2770a9" d="M 157.5,126.5 C 158.594,125.418 159.927,124.752 161.5,124.5C 162.713,124.747 163.38,125.414 163.5,126.5C 151.228,140.959 135.561,147.126 116.5,145C 105.675,142.008 98.675,135.174 95.5,124.5C 96.8333,124.5 98.1667,124.5 99.5,124.5C 103.759,136.222 112.259,141.889 125,141.5C 138.227,141.467 149.06,136.467 157.5,126.5 Z"/></g>
<g><path style="opacity:1" fill="#747474" d="M 70.5,154.5 C 73.9619,153.518 77.6286,153.185 81.5,153.5C 81.7373,154.791 81.404,155.791 80.5,156.5C 77.6627,154.598 74.3293,153.931 70.5,154.5 Z"/></g>
<g><path style="opacity:1" fill="#7f7f7f" d="M 121.5,154.5 C 123.948,153.527 126.615,153.194 129.5,153.5C 129.737,154.791 129.404,155.791 128.5,156.5C 126.721,154.656 124.388,153.99 121.5,154.5 Z"/></g>
<g><path style="opacity:1" fill="#7f7f7f" d="M 164.5,154.5 C 168.298,153.517 172.298,153.183 176.5,153.5C 176.737,154.791 176.404,155.791 175.5,156.5C 172.316,154.586 168.649,153.92 164.5,154.5 Z"/></g>
<g><path style="opacity:1" fill="#101010" d="M 70.5,154.5 C 74.3293,153.931 77.6627,154.598 80.5,156.5C 77.8806,156.232 75.3806,156.565 73,157.5C 71.5936,161.031 70.7603,164.698 70.5,168.5C 71.8333,168.5 73.1667,168.5 74.5,168.5C 74.6741,166.139 75.0074,163.806 75.5,161.5C 77.1667,161.5 78.8333,161.5 80.5,161.5C 80.2767,164.784 79.6101,167.951 78.5,171C 74.5,171.667 70.5,171.667 66.5,171C 65.3657,166.525 65.5323,162.025 67,157.5C 68.0391,156.29 69.2058,155.29 70.5,154.5 Z"/></g>
<g><path style="opacity:1" fill="#0c0c0c" d="M 83.5,154.5 C 87.5546,154.176 91.5546,154.509 95.5,155.5C 94.3984,156.176 93.3984,156.842 92.5,157.5C 90.7803,161.557 89.6137,165.89 89,170.5C 87.3005,171.406 85.4672,171.739 83.5,171.5C 84.7083,166.542 85.7083,161.542 86.5,156.5C 84.8212,156.715 83.8212,156.048 83.5,154.5 Z"/></g>
<g><path style="opacity:1" fill="#161616" d="M 95.5,158.5 C 96.4013,157.71 97.0679,156.71 97.5,155.5C 100.846,153.676 104.513,153.01 108.5,153.5C 108.5,154.5 108.5,155.5 108.5,156.5C 99.7368,156.717 99.2368,159.05 107,163.5C 107.45,167.091 105.95,169.591 102.5,171C 99.5184,171.498 96.5184,171.665 93.5,171.5C 93.5,170.5 93.5,169.5 93.5,168.5C 102.945,168.954 103.778,166.62 96,161.5C 95.5172,160.552 95.3505,159.552 95.5,158.5 Z"/></g>
<g><path style="opacity:1" fill="#090909" d="M 121.5,154.5 C 124.388,153.99 126.721,154.656 128.5,156.5C 127.343,161.464 126.343,166.464 125.5,171.5C 123.833,171.5 122.167,171.5 120.5,171.5C 122.058,165.852 122.391,160.185 121.5,154.5 Z"/></g>
<g><path style="opacity:1" fill="#171717" d="M 134.5,153.5 C 138.257,153.071 141.757,153.737 145,155.5C 145.755,158.497 144.922,160.997 142.5,163C 144.124,166.206 143.458,168.872 140.5,171C 136.577,171.793 132.744,171.626 129,170.5C 128.014,167.258 128.848,164.592 131.5,162.5C 130.515,160.902 130.349,159.235 131,157.5C 132.376,156.295 133.542,154.962 134.5,153.5 Z"/></g>
<g><path style="opacity:1" fill="#0c0c0c" d="M 147.5,154.5 C 151.182,154.335 154.848,154.501 158.5,155C 159.961,157.985 159.295,160.485 156.5,162.5C 158.187,165.903 157.52,168.736 154.5,171C 151.183,171.498 147.85,171.665 144.5,171.5C 144.5,170.5 144.5,169.5 144.5,168.5C 147.119,168.768 149.619,168.435 152,167.5C 152.689,164.671 151.522,163.004 148.5,162.5C 152.375,162.295 154.041,160.295 153.5,156.5C 150.918,156.975 148.918,156.308 147.5,154.5 Z"/></g>
<g><path style="opacity:1" fill="#111111" d="M 164.5,154.5 C 168.649,153.92 172.316,154.586 175.5,156.5C 172.813,156.336 170.146,156.503 167.5,157C 167.043,157.414 166.709,157.914 166.5,158.5C 175.668,159.932 177.001,164.099 170.5,171C 167.167,171.667 163.833,171.667 160.5,171C 159.485,167.199 159.651,163.366 161,159.5C 161.223,157.119 162.39,155.453 164.5,154.5 Z"/></g>
<g><path style="opacity:1" fill="#9e9e9e" d="M 83.5,154.5 C 85.4726,153.837 87.6392,153.504 90,153.5C 92.7772,153.631 95.2772,154.298 97.5,155.5C 97.0679,156.71 96.4013,157.71 95.5,158.5C 94.791,157.596 93.791,157.263 92.5,157.5C 93.3984,156.842 94.3984,156.176 95.5,155.5C 91.5546,154.509 87.5546,154.176 83.5,154.5 Z"/></g>
<g><path style="opacity:1" fill="#eaeaea" d="M 136.5,156.5 C 137.5,156.5 138.5,156.5 139.5,156.5C 139.5,157.833 139.5,159.167 139.5,160.5C 138.5,160.5 137.5,160.5 136.5,160.5C 136.5,159.167 136.5,157.833 136.5,156.5 Z"/></g>
<g><path style="opacity:1" fill="#575757" d="M 109.5,163.5 C 112.287,162.523 115.287,162.19 118.5,162.5C 118.737,163.791 118.404,164.791 117.5,165.5C 115.365,163.631 112.698,162.964 109.5,163.5 Z"/></g>
<g><path style="opacity:1" fill="#0a0a0a" d="M 109.5,163.5 C 112.698,162.964 115.365,163.631 117.5,165.5C 114.302,166.036 111.635,165.369 109.5,163.5 Z"/></g>
<g><path style="opacity:1" fill="#e0e0e0" d="M 165.5,162.5 C 166.5,162.5 167.5,162.5 168.5,162.5C 168.5,164.5 168.5,166.5 168.5,168.5C 167.167,168.5 165.833,168.5 164.5,168.5C 164.517,166.435 164.85,164.435 165.5,162.5 Z"/></g>
<g><path style="opacity:1" fill="#dfdfdf" d="M 135.5,163.5 C 136.5,163.5 137.5,163.5 138.5,163.5C 139.244,166.95 137.91,168.616 134.5,168.5C 134.366,166.708 134.699,165.042 135.5,163.5 Z"/></g>
</svg>
