<?xml version="1.0" standalone="no"?>
<!DOCTYPE svg PUBLIC "-//W3C//DTD SVG 20010904//EN"
 "http://www.w3.org/TR/2001/REC-SVG-20010904/DTD/svg10.dtd">
<svg version="1.0" xmlns="http://www.w3.org/2000/svg"
 width="169.000000pt" height="66.000000pt" viewBox="0 0 169.000000 66.000000"
 preserveAspectRatio="xMidYMid meet">

<g transform="translate(0.000000,66.000000) scale(0.100000,-0.100000)"
fill="#000000" stroke="none">
<path d="M950 552 c-78 -26 -109 -44 -159 -93 -60 -58 -36 -61 33 -5 85 69
117 81 218 81 80 0 89 -2 130 -31 33 -23 43 -36 43 -58 0 -32 24 -53 49 -43 9
4 16 14 16 24 0 20 -78 91 -129 118 -51 26 -135 29 -201 7z"/>
<path d="M1296 457 c3 -10 9 -15 12 -12 3 3 0 11 -7 18 -10 9 -11 8 -5 -6z"/>
<path d="M91 349 c-59 -58 -33 -144 40 -137 43 4 52 28 10 28 -34 0 -63 32
-54 59 14 39 35 51 93 51 42 0 59 4 64 15 4 12 -6 15 -59 15 -58 0 -66 -3 -94
-31z"/>
<path d="M261 318 c-7 -35 -15 -73 -18 -85 -4 -16 -1 -23 10 -23 8 0 17 13 21
30 5 26 10 30 40 30 36 0 66 -21 66 -46 0 -8 7 -14 16 -14 11 0 15 8 13 28 -2
18 5 39 19 56 47 61 24 86 -79 86 l-76 0 -12 -62z m154 22 c14 -23 -17 -40
-71 -40 -46 0 -54 3 -54 18 0 10 3 22 7 25 10 11 111 8 118 -3z"/>
<path d="M505 360 c-34 -22 -43 -41 -44 -87 -1 -45 31 -65 100 -61 73 4 79 28
7 28 -50 0 -78 12 -78 32 0 4 32 8 70 8 56 0 70 3 70 15 0 12 -14 15 -65 15
-36 0 -65 4 -65 9 0 19 28 30 85 33 35 2 60 8 63 16 7 21 -108 15 -143 -8z"/>
<path d="M681 351 c-40 -37 -44 -101 -9 -125 29 -21 78 -21 78 -1 0 9 -9 15
-23 15 -45 0 -62 45 -31 88 12 17 25 22 61 22 l46 0 -6 -37 c-4 -21 -9 -53
-13 -70 -5 -25 -3 -33 8 -33 9 0 18 21 27 63 7 34 15 72 18 85 5 21 3 22 -60
22 -58 0 -68 -3 -96 -29z"/>
<path d="M857 373 c-15 -15 -5 -23 28 -23 40 0 40 -2 21 -82 -12 -53 -12 -58
4 -58 13 0 20 16 29 70 l13 70 39 0 c28 0 39 4 39 15 0 12 -16 15 -83 15 -46
0 -87 -3 -90 -7z"/>
<path d="M1052 355 c-41 -34 -70 -145 -38 -145 10 0 17 16 22 45 8 58 37 95
74 95 49 0 59 -36 34 -122 -3 -12 0 -18 9 -18 18 0 24 15 33 79 5 41 3 52 -15
70 -29 29 -82 28 -119 -4z"/>
<path d="M1212 318 c-7 -35 -15 -73 -18 -85 -5 -17 -2 -23 9 -23 15 0 22 23
42 133 6 29 4 37 -7 37 -10 0 -18 -20 -26 -62z"/>
<path d="M1297 360 c-35 -28 -52 -81 -36 -112 17 -33 28 -38 92 -38 44 0 57 3
57 15 0 12 -13 15 -55 15 -51 0 -56 2 -66 27 -8 22 -6 32 9 52 16 22 28 26 81
29 45 2 61 7 61 17 0 25 -111 20 -143 -5z"/>
<path d="M1481 364 c-28 -20 -53 -76 -44 -101 15 -42 35 -53 95 -53 44 0 58 3
58 15 0 10 -15 15 -57 17 -46 2 -59 7 -61 21 -3 15 5 17 67 17 56 0 71 3 71
15 0 12 -14 15 -65 15 -36 0 -65 4 -65 8 0 21 29 32 81 32 41 0 58 4 63 15 8
22 -111 21 -143 -1z"/>
<path d="M147 303 c-15 -14 -6 -23 22 -23 28 0 29 -1 21 -35 -7 -30 -5 -35 11
-35 12 0 19 7 19 19 0 10 3 33 6 50 6 31 6 31 -33 31 -22 0 -43 -3 -46 -7z"/>
<path d="M690 165 c0 -32 64 -102 118 -129 104 -53 263 -12 367 93 54 56 28
51 -46 -9 -34 -27 -82 -56 -107 -65 -65 -22 -164 -20 -212 5 -38 20 -90 76
-90 98 0 7 -7 12 -15 12 -8 0 -15 -2 -15 -5z"/>
</g>
</svg>
