<?xml version="1.0" encoding="UTF-8"?>
<svg version="1.1" xmlns="http://www.w3.org/2000/svg" width="225" height="225">
<path d="M0 0 C74.25 0 148.5 0 225 0 C225 74.25 225 148.5 225 225 C150.75 225 76.5 225 0 225 C0 150.75 0 76.5 0 0 Z " fill="#FEFEFE" transform="translate(0,0)"/>
<path d="M0 0 C4.67752696 1.87101078 8.824552 4.02832086 13.1875 6.5 C13.91130859 6.90347656 14.63511719 7.30695313 15.38085938 7.72265625 C16.07373047 8.11324219 16.76660156 8.50382812 17.48046875 8.90625 C18.10848389 9.26009766 18.73649902 9.61394531 19.38354492 9.97851562 C21 11 21 11 23 13 C23.125 16.625 23.125 16.625 23 20 C20.03 20 17.06 20 14 20 C14 19.01 14 18.02 14 17 C11.525 16.01 11.525 16.01 9 15 C9 22.59 9 30.18 9 38 C9.99 37.34 10.98 36.68 12 36 C12.73606499 32.43230448 12.73606499 32.43230448 13 29 C12.34 29 11.68 29 11 29 C11 27.35 11 25.7 11 24 C14.96 24 18.92 24 23 24 C24.3610586 38.14828817 24.3610586 38.14828817 21.41796875 42.15234375 C19.02202838 43.71078425 16.61298983 44.8415136 14 46 C11.84493228 47.27620006 9.69918056 48.56824844 7.5625 49.875 C2.26623377 53 2.26623377 53 0 53 C0 35.51 0 18.02 0 0 Z " fill="#10C710" transform="translate(31,86)"/>
<path d="M0 0 C0 17.49 0 34.98 0 53 C-5 51 -5 51 -9 49 C-9 42.4 -9 35.8 -9 29 C-10.32 29 -11.64 29 -13 29 C-13 34.61 -13 40.22 -13 46 C-15.97 44.35 -18.94 42.7 -22 41 C-22 31.43 -22 21.86 -22 12 C-19.03 10.35 -16.06 8.7 -13 7 C-13 12.61 -13 18.22 -13 24 C-11.68 24 -10.36 24 -9 24 C-9 17.4 -9 10.8 -9 4 C-2 0 -2 0 0 0 Z " fill="#0AC60A" transform="translate(27,86)"/>
<path d="M0 0 C4.00662886 2.06223544 6.51665063 4.05349616 8.109375 8.26953125 C9.0856358 14.74946234 7.96911779 19.01599246 4.109375 24.26953125 C-0.48560141 27.21706471 -5.63348813 27.13707006 -10.890625 26.26953125 C-14.92360102 24.03837349 -17.42883319 21.65490667 -18.890625 17.26953125 C-19.2971218 13.0951218 -19.31914212 9.40384128 -17.828125 5.45703125 C-13.07153883 0.08669202 -7.03165575 -2.71677608 0 0 Z " fill="#141414" transform="translate(184.890625,99.73046875)"/>
<path d="M0 0 C7 0 7 0 9.1796875 1.6796875 C9.73914063 2.40414062 10.29859375 3.12859375 10.875 3.875 C11.44992188 4.59429687 12.02484375 5.31359375 12.6171875 6.0546875 C14 8 14 8 15 10 C15.33 6.7 15.66 3.4 16 0 C18.64 0 21.28 0 24 0 C24 8.58 24 17.16 24 26 C17 26 17 26 14.78515625 24.1015625 C13.93244141 22.87566406 13.93244141 22.87566406 13.0625 21.625 C12.47597656 20.81289062 11.88945312 20.00078125 11.28515625 19.1640625 C10 17 10 17 10 15 C9.34 15 8.68 15 8 15 C8 18.63 8 22.26 8 26 C5.36 26 2.72 26 0 26 C0 17.42 0 8.84 0 0 Z " fill="#151515" transform="translate(196,100)"/>
<path d="M0 0 C2.64 0 5.28 0 8 0 C8 2.97 8 5.94 8 9 C10.64 9 13.28 9 16 9 C16 6.03 16 3.06 16 0 C18.64 0 21.28 0 24 0 C24 8.58 24 17.16 24 26 C21.36 26 18.72 26 16 26 C16 22.7 16 19.4 16 16 C13.36 16 10.72 16 8 16 C8 19.3 8 22.6 8 26 C5.36 26 2.72 26 0 26 C0 17.42 0 8.84 0 0 Z " fill="#101010" transform="translate(77,100)"/>
<path d="M0 0 C2.05078125 0.03255208 4.1015625 0.06510417 6.15234375 0.09765625 C16.15234375 18.94872008 16.15234375 18.94872008 16.15234375 26.09765625 C13.51234375 26.09765625 10.87234375 26.09765625 8.15234375 26.09765625 C7.82234375 24.77765625 7.49234375 23.45765625 7.15234375 22.09765625 C2.20234375 22.59265625 2.20234375 22.59265625 -2.84765625 23.09765625 C-3.17765625 24.08765625 -3.50765625 25.07765625 -3.84765625 26.09765625 C-6.48765625 26.09765625 -9.12765625 26.09765625 -11.84765625 26.09765625 C-11.23803738 22.63237321 -10.34601432 19.53231444 -9.03515625 16.26953125 C-8.68195313 15.3878125 -8.32875 14.50609375 -7.96484375 13.59765625 C-7.59617187 12.69015625 -7.2275 11.78265625 -6.84765625 10.84765625 C-6.47898437 9.9246875 -6.1103125 9.00171875 -5.73046875 8.05078125 C-2.54058457 0.13428037 -2.54058457 0.13428037 0 0 Z " fill="#171717" transform="translate(114.84765625,99.90234375)"/>
<path d="M0 0 C2.64 0 5.28 0 8 0 C8 6.27 8 12.54 8 19 C11.63 19 15.26 19 19 19 C19 21.31 19 23.62 19 26 C12.73 26 6.46 26 0 26 C0 17.42 0 8.84 0 0 Z " fill="#141414" transform="translate(133,100)"/>
<path d="M0 0 C2.64 0 5.28 0 8 0 C8 8.58 8 17.16 8 26 C5.36 26 2.72 26 0 26 C0 17.42 0 8.84 0 0 Z " fill="#141414" transform="translate(155,100)"/>
<path d="M0 0 C2.375 0.9375 2.375 0.9375 4.375 3.9375 C4.84437082 7.61423806 4.81909864 9.29602418 2.6875 12.375 C0.375 13.9375 0.375 13.9375 -2.25 13.875 C-4.625 12.9375 -4.625 12.9375 -6.625 9.9375 C-7.09437082 6.26076194 -7.06909864 4.57897582 -4.9375 1.5 C-2.625 -0.0625 -2.625 -0.0625 0 0 Z " fill="#EEEEEE" transform="translate(180.625,106.0625)"/>
<path d="M0 0 C0.66 0 1.32 0 2 0 C2.33 1.98 2.66 3.96 3 6 C1.68 6 0.36 6 -1 6 C-0.67 4.02 -0.34 2.04 0 0 Z " fill="#D3D3D3" transform="translate(116,109)"/>
</svg>
