<?xml version="1.0" encoding="UTF-8"?>
<!DOCTYPE svg PUBLIC "-//W3C//DTD SVG 1.1//EN" "http://www.w3.org/Graphics/SVG/1.1/DTD/svg11.dtd">
<svg xmlns="http://www.w3.org/2000/svg" version="1.1" width="148px" height="148px" style="shape-rendering:geometricPrecision; text-rendering:geometricPrecision; image-rendering:optimizeQuality; fill-rule:evenodd; clip-rule:evenodd" xmlns:xlink="http://www.w3.org/1999/xlink">
<g><path style="opacity:1" fill="#fdfdfd" d="M -0.5,-0.5 C 48.8333,-0.5 98.1667,-0.5 147.5,-0.5C 147.5,48.8333 147.5,98.1667 147.5,147.5C 98.1667,147.5 48.8333,147.5 -0.5,147.5C -0.5,98.1667 -0.5,48.8333 -0.5,-0.5 Z"/></g>
<g><path style="opacity:1" fill="#7a64b5" d="M 63.5,45.5 C 60.2707,42.7183 56.604,40.7183 52.5,39.5C 53.3822,42.385 54.7155,45.0517 56.5,47.5C 53.5509,45.7219 51.5509,43.2219 50.5,40C 50.7485,36.918 52.4151,35.418 55.5,35.5C 55.3505,36.552 55.5172,37.552 56,38.5C 58.9985,40.3329 61.4985,42.6662 63.5,45.5 Z"/></g>
<g><path style="opacity:1" fill="#7f6aba" d="M 94.5,37.5 C 90.6519,41.7775 85.9852,45.1108 80.5,47.5C 84.1456,43.1877 88.1456,39.1877 92.5,35.5C 93.5223,35.8555 94.189,36.5222 94.5,37.5 Z"/></g>
<g><path style="opacity:1" fill="#6f5dae" d="M 46.5,51.5 C 45.0783,51.7086 43.745,52.2086 42.5,53C 39.5933,56.4124 36.2599,59.2458 32.5,61.5C 35.9629,57.5357 39.6295,53.7023 43.5,50C 44.9976,49.4153 45.9976,49.9153 46.5,51.5 Z"/></g>
<g><path style="opacity:1" fill="#745fbb" d="M 89.5,47.5 C 86.8676,51.7341 83.5343,55.4008 79.5,58.5C 79.0268,55.1671 80.3601,53.0004 83.5,52C 83.1667,51.6667 82.8333,51.3333 82.5,51C 83.7932,50.51 85.1266,50.3433 86.5,50.5C 86.5,49.5 86.5,48.5 86.5,47.5C 87.5,47.5 88.5,47.5 89.5,47.5 Z"/></g>
<g><path style="opacity:1" fill="#735cac" d="M 64.5,55.5 C 67.899,58.2281 71.5657,60.5615 75.5,62.5C 74.3991,63.5983 73.0657,63.765 71.5,63C 68.9614,60.6303 66.6281,58.1303 64.5,55.5 Z"/></g>
<g><path style="opacity:1" fill="#7252d3" d="M 94.5,37.5 C 95.7928,39.3635 95.7928,41.3635 94.5,43.5C 92.8152,44.9527 91.1486,46.286 89.5,47.5C 88.5,47.5 87.5,47.5 86.5,47.5C 86.5,48.5 86.5,49.5 86.5,50.5C 85.1266,50.3433 83.7932,50.51 82.5,51C 82.8333,51.3333 83.1667,51.6667 83.5,52C 80.3601,53.0004 79.0268,55.1671 79.5,58.5C 78.1667,59.8333 76.8333,61.1667 75.5,62.5C 71.5657,60.5615 67.899,58.2281 64.5,55.5C 61.4728,53.1395 58.8062,50.4729 56.5,47.5C 54.7155,45.0517 53.3822,42.385 52.5,39.5C 56.604,40.7183 60.2707,42.7183 63.5,45.5C 63.5,46.8333 64.1667,47.5 65.5,47.5C 67.3784,52.2432 70.7118,54.7432 75.5,55C 76.7213,52.9663 78.0546,51.133 79.5,49.5C 79.3284,48.5084 79.6618,47.8417 80.5,47.5C 85.9852,45.1108 90.6519,41.7775 94.5,37.5 Z"/></g>
<g><path style="opacity:1" fill="#7760b0" d="M 65.5,47.5 C 68.147,49.8109 70.8136,52.1442 73.5,54.5C 74.9108,52.086 76.9108,50.4194 79.5,49.5C 78.0546,51.133 76.7213,52.9663 75.5,55C 70.7118,54.7432 67.3784,52.2432 65.5,47.5 Z"/></g>
<g><path style="opacity:1" fill="#7a60bc" d="M 111.5,58.5 C 108.349,56.9614 105.183,55.2947 102,53.5C 99.9135,54.4181 97.7468,55.0847 95.5,55.5C 97.7887,53.552 100.122,51.552 102.5,49.5C 105.827,52.1606 108.827,55.1606 111.5,58.5 Z"/></g>
<g><path style="opacity:1" fill="#7050d8" d="M 111.5,58.5 C 111.5,58.8333 111.5,59.1667 111.5,59.5C 111.5,60.8333 111.5,62.1667 111.5,63.5C 112.5,63.5 113.5,63.5 114.5,63.5C 114.759,67.0681 116.759,68.4015 120.5,67.5C 120.5,69.1667 120.5,70.8333 120.5,72.5C 119.127,72.6567 117.793,72.49 116.5,72C 115.181,68.845 112.848,67.0116 109.5,66.5C 108.833,66.5 108.5,66.1667 108.5,65.5C 107.85,63.5648 107.517,61.5648 107.5,59.5C 104.193,58.9492 100.86,58.6159 97.5,58.5C 97.5,60.1667 97.5,61.8333 97.5,63.5C 97.1667,63.5 96.8333,63.5 96.5,63.5C 95.1667,63.5 93.8333,63.5 92.5,63.5C 91.2412,66.4904 89.9079,69.4904 88.5,72.5C 87.8333,72.5 87.5,72.8333 87.5,73.5C 85.0523,73.9153 83.7189,72.9153 83.5,70.5C 83.8333,68.8333 84.8333,67.8333 86.5,67.5C 87.4287,66.3112 87.762,64.9778 87.5,63.5C 89.9598,62.0634 92.6265,61.0634 95.5,60.5C 95.5,59.1667 95.5,57.8333 95.5,56.5C 95.5,56.1667 95.5,55.8333 95.5,55.5C 97.7468,55.0847 99.9135,54.4181 102,53.5C 105.183,55.2947 108.349,56.9614 111.5,58.5 Z"/></g>
<g><path style="opacity:1" fill="#7a62bb" d="M 95.5,56.5 C 95.5,57.8333 95.5,59.1667 95.5,60.5C 92.6265,61.0634 89.9598,62.0634 87.5,63.5C 89.5691,60.4275 92.2358,58.0941 95.5,56.5 Z"/></g>
<g><path style="opacity:1" fill="#7252d0" d="M 52.5,57.5 C 56.5,60.8333 60.1667,64.5 63.5,68.5C 63.5,69.8333 63.5,71.1667 63.5,72.5C 63.5,72.8333 63.5,73.1667 63.5,73.5C 58.2483,71.4171 54.415,67.7505 52,62.5C 51.3292,63.2524 50.4959,63.5858 49.5,63.5C 48.5,63.1667 47.8333,62.5 47.5,61.5C 48.3527,59.1073 50.0194,57.774 52.5,57.5 Z"/></g>
<g><path style="opacity:1" fill="#745bbd" d="M 108.5,65.5 C 106.186,63.5227 103.853,61.5227 101.5,59.5C 100.16,60.8665 98.8267,62.1999 97.5,63.5C 97.5,61.8333 97.5,60.1667 97.5,58.5C 100.86,58.6159 104.193,58.9492 107.5,59.5C 107.517,61.5648 107.85,63.5648 108.5,65.5 Z"/></g>
<g><path style="opacity:1" fill="#7050dd" d="M 46.5,51.5 C 47.1667,51.5 47.5,51.8333 47.5,52.5C 47.5,54.1667 47.5,55.8333 47.5,57.5C 46.1266,57.3433 44.7932,57.51 43.5,58C 40.8982,60.1315 38.2316,61.9648 35.5,63.5C 35.7373,64.791 35.404,65.791 34.5,66.5C 33.5,66.5 32.5,66.5 31.5,66.5C 31.5,65.5 31.5,64.5 31.5,63.5C 31.3284,62.5084 31.6618,61.8417 32.5,61.5C 36.2599,59.2458 39.5933,56.4124 42.5,53C 43.745,52.2086 45.0783,51.7086 46.5,51.5 Z"/></g>
<g><path style="opacity:1" fill="#725ab2" d="M 47.5,52.5 C 49.5,53.8333 51.1667,55.5 52.5,57.5C 50.0194,57.774 48.3527,59.1073 47.5,61.5C 46.5178,60.8592 45.5178,60.1925 44.5,59.5C 38.6216,64.5439 33.2883,70.0439 28.5,76C 26.5878,76.2793 25.2544,75.4459 24.5,73.5C 28.9055,72.7703 32.2389,70.437 34.5,66.5C 35.404,65.791 35.7373,64.791 35.5,63.5C 38.2316,61.9648 40.8982,60.1315 43.5,58C 44.7932,57.51 46.1266,57.3433 47.5,57.5C 47.5,55.8333 47.5,54.1667 47.5,52.5 Z"/></g>
<g><path style="opacity:1" fill="#765fb0" d="M 63.5,73.5 C 62.9976,75.0847 61.9976,75.5847 60.5,75C 56.6295,71.2977 52.9629,67.4643 49.5,63.5C 50.4959,63.5858 51.3292,63.2524 52,62.5C 54.415,67.7505 58.2483,71.4171 63.5,73.5 Z"/></g>
<g><path style="opacity:1" fill="#7a5fc4" d="M 111.5,59.5 C 115.12,61.4528 118.12,64.1195 120.5,67.5C 116.759,68.4015 114.759,67.0681 114.5,63.5C 113.5,63.5 112.5,63.5 111.5,63.5C 111.5,62.1667 111.5,60.8333 111.5,59.5 Z"/></g>
<g><path style="opacity:1" fill="#7964b7" d="M 96.5,63.5 C 94.5472,67.1203 91.8805,70.1203 88.5,72.5C 89.9079,69.4904 91.2412,66.4904 92.5,63.5C 93.8333,63.5 95.1667,63.5 96.5,63.5 Z"/></g>
<g><path style="opacity:1" fill="#7d749e" d="M 63.5,68.5 C 67.2654,70.1916 67.2654,71.5249 63.5,72.5C 63.5,71.1667 63.5,69.8333 63.5,68.5 Z"/></g>
<g><path style="opacity:1" fill="#7156c8" d="M 31.5,63.5 C 31.5,64.5 31.5,65.5 31.5,66.5C 32.5,66.5 33.5,66.5 34.5,66.5C 32.2389,70.437 28.9055,72.7703 24.5,73.5C 22.9122,72.3647 22.5788,71.0314 23.5,69.5C 25.921,67.0663 28.5877,65.0663 31.5,63.5 Z"/></g>
<g><path style="opacity:1" fill="#7a67b3" d="M 87.5,63.5 C 87.762,64.9778 87.4287,66.3112 86.5,67.5C 84.8333,67.8333 83.8333,68.8333 83.5,70.5C 83.7189,72.9153 85.0523,73.9153 87.5,73.5C 87.189,74.4778 86.5223,75.1445 85.5,75.5C 83.5,74.1667 81.8333,72.5 80.5,70.5C 83.1031,68.3793 85.4364,66.046 87.5,63.5 Z"/></g>
<g><path style="opacity:1" fill="#745dba" d="M 109.5,66.5 C 112.848,67.0116 115.181,68.845 116.5,72C 117.793,72.49 119.127,72.6567 120.5,72.5C 120.5,70.8333 120.5,69.1667 120.5,67.5C 122.022,68.1909 123.022,69.3576 123.5,71C 122.392,73.1124 120.892,74.9458 119,76.5C 114.982,73.9221 111.816,70.5887 109.5,66.5 Z"/></g>
<g><path style="opacity:1" fill="#78728a" d="M 83.5,97.5 C 87.0071,96.9935 90.1737,97.6602 93,99.5C 93.6877,100.332 93.521,100.998 92.5,101.5C 89.9151,98.136 87.0818,97.8027 84,100.5C 83.3333,103.167 83.3333,105.833 84,108.5C 87.6,111.354 90.6,110.687 93,106.5C 93.7112,108.367 93.2112,109.867 91.5,111C 85.1264,112.956 81.7931,110.622 81.5,104C 81.4823,101.558 82.149,99.3915 83.5,97.5 Z"/></g>
<g><path style="opacity:1" fill="#9f9aac" d="M 30.5,103.5 C 39.8333,104.167 39.8333,104.833 30.5,105.5C 30.5,104.833 30.5,104.167 30.5,103.5 Z"/></g>
<g><path style="opacity:1" fill="#635e75" d="M 43.5,97.5 C 46.5184,97.3354 49.5184,97.502 52.5,98C 49.854,98.4974 47.1873,98.6641 44.5,98.5C 44.5,100.167 44.5,101.833 44.5,103.5C 53.8333,103.833 53.8333,104.167 44.5,104.5C 44.6633,106.857 44.4966,109.19 44,111.5C 43.5008,106.845 43.3342,102.179 43.5,97.5 Z"/></g>
<g><path style="opacity:1" fill="#a09daa" d="M 21.5,100.5 C 22.7868,101.871 23.4535,103.705 23.5,106C 23.1667,107.833 22.8333,109.667 22.5,111.5C 21.5108,107.893 21.1774,104.226 21.5,100.5 Z"/></g>
<g><path style="opacity:1" fill="#877cb1" d="M 116.5,99.5 C 115.834,103.353 115.167,107.353 114.5,111.5C 113.507,106.88 113.173,102.214 113.5,97.5C 115.179,97.2852 116.179,97.9519 116.5,99.5 Z"/></g>
<g><path style="opacity:1" fill="#756a8b" d="M 30.5,103.5 C 30.5,104.167 30.5,104.833 30.5,105.5C 30.7989,107.604 30.4656,109.604 29.5,111.5C 28.5067,106.88 28.1734,102.214 28.5,97.5C 31.8499,97.335 35.1832,97.5017 38.5,98C 35.854,98.4974 33.1873,98.6641 30.5,98.5C 30.5,100.167 30.5,101.833 30.5,103.5 Z"/></g>
<g><path style="opacity:1" fill="#817c92" d="M 59.5,97.5 C 61.1238,97.3601 62.2904,98.0267 63,99.5C 64.6472,103.422 65.6472,107.422 66,111.5C 65.5,110.5 65,109.5 64.5,108.5C 61.9135,107.52 59.2469,107.187 56.5,107.5C 56.6882,109.103 56.1882,110.437 55,111.5C 55.7735,106.677 57.2735,102.01 59.5,97.5 Z"/></g>
<g><path style="opacity:1" fill="#f3edfa" d="M 60.5,99.5 C 62.0739,101.102 62.7406,103.102 62.5,105.5C 61.1667,105.5 59.8333,105.5 58.5,105.5C 58.6036,103.297 59.2702,101.297 60.5,99.5 Z"/></g>
<g><path style="opacity:1" fill="#7d788f" d="M 99.5,97.5 C 110.741,96.9084 113.407,101.408 107.5,111C 101.02,113.27 97.3528,111.103 96.5,104.5C 96.6946,101.782 97.6946,99.4486 99.5,97.5 Z"/></g>
<g><path style="opacity:1" fill="#f5f2f9" d="M 101.5,98.5 C 107.546,98.5727 109.713,101.573 108,107.5C 104.952,111.482 101.952,111.482 99,107.5C 97.9302,103.858 98.7636,100.858 101.5,98.5 Z"/></g>
<g><path style="opacity:1" fill="#8f87aa" d="M 116.5,99.5 C 119.135,102.079 121.301,105.079 123,108.5C 123.173,104.459 123.673,100.459 124.5,96.5C 125.494,101.456 125.827,106.456 125.5,111.5C 123.408,111.439 121.908,110.439 121,108.5C 118.962,105.757 117.462,102.757 116.5,99.5 Z"/></g>
<g><path style="opacity:1" fill="#797489" d="M 70.5,97.5 C 72.4302,101.373 73.0969,105.706 72.5,110.5C 75.1873,110.336 77.854,110.503 80.5,111C 77.1832,111.498 73.8499,111.665 70.5,111.5C 70.5,106.833 70.5,102.167 70.5,97.5 Z"/></g>
</svg>
