<?xml version="1.0" encoding="UTF-8"?>
<!DOCTYPE svg PUBLIC "-//W3C//DTD SVG 1.1//EN" "http://www.w3.org/Graphics/SVG/1.1/DTD/svg11.dtd">
<svg xmlns="http://www.w3.org/2000/svg" version="1.1" width="198px" height="148px" style="shape-rendering:geometricPrecision; text-rendering:geometricPrecision; image-rendering:optimizeQuality; fill-rule:evenodd; clip-rule:evenodd" xmlns:xlink="http://www.w3.org/1999/xlink">
<g><path style="opacity:1" fill="#fefefd" d="M -0.5,-0.5 C 65.5,-0.5 131.5,-0.5 197.5,-0.5C 197.5,19.8333 197.5,40.1667 197.5,60.5C 189.774,58.9924 183.274,60.9924 178,66.5C 175.688,81.6375 182.188,87.6375 197.5,84.5C 197.5,86.8333 197.5,89.1667 197.5,91.5C 196.842,90.6016 196.176,89.6016 195.5,88.5C 194.719,89.7366 193.719,90.7366 192.5,91.5C 191.494,91.0623 191.494,90.3957 192.5,89.5C 191.998,88.479 191.332,88.3123 190.5,89C 189.248,92.3826 187.914,95.716 186.5,99C 188.108,99.658 189.275,99.158 190,97.5C 190.494,95.8659 190.66,94.1992 190.5,92.5C 192.199,92.3398 193.866,92.5065 195.5,93C 190.11,95.412 190.443,96.912 196.5,97.5C 196.263,96.209 196.596,95.209 197.5,94.5C 197.5,112.167 197.5,129.833 197.5,147.5C 131.5,147.5 65.5,147.5 -0.5,147.5C -0.5,130.833 -0.5,114.167 -0.5,97.5C 9.27131,97.4484 16.938,93.4484 22.5,85.5C 25.7211,88.1787 29.2211,88.8454 33,87.5C 35.7836,76.1797 32.4503,67.1797 23,60.5C 23.1938,57.41 24.0272,54.41 25.5,51.5C 25.2528,50.2867 24.5862,49.62 23.5,49.5C 21.8825,48.0277 19.8825,47.361 17.5,47.5C 15.9549,47.5108 14.6216,47.8442 13.5,48.5C 8.01906,49.2405 3.35239,51.5738 -0.5,55.5C -0.5,36.8333 -0.5,18.1667 -0.5,-0.5 Z"/></g>
<g><path style="opacity:1" fill="#ffe59b" d="M 13.5,48.5 C 14.6216,47.8442 15.9549,47.5108 17.5,47.5C 19.8825,47.361 21.8825,48.0277 23.5,49.5C 20.2139,48.7929 16.8806,48.4595 13.5,48.5 Z"/></g>
<g><path style="opacity:1" fill="#ffcd2c" d="M 47.5,52.5 C 49.8568,52.3367 52.1902,52.5034 54.5,53C 55.4061,54.6995 55.7394,56.5328 55.5,58.5C 52.5,58.5 49.5,58.5 46.5,58.5C 46.3253,56.3792 46.6586,54.3792 47.5,52.5 Z"/></g>
<g><path style="opacity:1" fill="#fffdfa" d="M -0.5,86.5 C -0.5,83.8333 -0.5,81.1667 -0.5,78.5C 2.16667,76.8333 2.16667,75.1667 -0.5,73.5C -0.5,69.5 -0.5,65.5 -0.5,61.5C 1.58059,62.6227 3.74726,63.6227 6,64.5C 8.55372,62.2882 11.387,60.4548 14.5,59C 17.1396,58.161 19.4729,58.661 21.5,60.5C 20.0301,63.273 18.6968,66.1063 17.5,69C 18.9851,71.1561 20.4851,73.3228 22,75.5C 22.498,78.4816 22.6646,81.4816 22.5,84.5C 19.0473,83.8573 15.8806,82.5239 13,80.5C 9.29151,84.2707 4.79151,86.2707 -0.5,86.5 Z"/></g>
<g><path style="opacity:1" fill="#ffcb1a" d="M 13.5,48.5 C 16.8806,48.4595 20.2139,48.7929 23.5,49.5C 24.5862,49.62 25.2528,50.2867 25.5,51.5C 24.0272,54.41 23.1938,57.41 23,60.5C 32.4503,67.1797 35.7836,76.1797 33,87.5C 29.2211,88.8454 25.7211,88.1787 22.5,85.5C 16.938,93.4484 9.27131,97.4484 -0.5,97.5C -0.5,93.8333 -0.5,90.1667 -0.5,86.5C 4.79151,86.2707 9.29151,84.2707 13,80.5C 15.8806,82.5239 19.0473,83.8573 22.5,84.5C 22.6646,81.4816 22.498,78.4816 22,75.5C 20.4851,73.3228 18.9851,71.1561 17.5,69C 18.6968,66.1063 20.0301,63.273 21.5,60.5C 19.4729,58.661 17.1396,58.161 14.5,59C 11.387,60.4548 8.55372,62.2882 6,64.5C 3.74726,63.6227 1.58059,62.6227 -0.5,61.5C -0.5,59.5 -0.5,57.5 -0.5,55.5C 3.35239,51.5738 8.01906,49.2405 13.5,48.5 Z"/></g>
<g><path style="opacity:1" fill="#2e2b2b" d="M 47.5,60.5 C 49.9201,60.2924 52.2534,60.6258 54.5,61.5C 55.813,69.0579 55.813,76.5579 54.5,84C 51.9009,84.769 49.4009,84.6023 47,83.5C 46.2019,75.754 46.3686,68.0873 47.5,60.5 Z"/></g>
<g><path style="opacity:1" fill="#252323" d="M 66.5,60.5 C 72.9669,60.0803 79.3002,60.747 85.5,62.5C 106.199,55.2407 114.365,62.2407 110,83.5C 107.667,84.8333 105.333,84.8333 103,83.5C 102.83,77.4725 102.33,71.4725 101.5,65.5C 98.0568,63.2794 94.3901,62.9461 90.5,64.5C 89.6694,70.8072 89.1694,77.1406 89,83.5C 86.5335,84.7883 84.0335,84.7883 81.5,83.5C 80.6697,77.5275 80.1697,71.5275 80,65.5C 76.4881,63.3524 72.8215,63.019 69,64.5C 68.6667,70.8333 68.3333,77.1667 68,83.5C 65.5991,84.6023 63.0991,84.769 60.5,84C 59.1879,76.8907 59.1879,69.7241 60.5,62.5C 62.6568,61.9495 64.6568,61.2829 66.5,60.5 Z"/></g>
<g><path style="opacity:1" fill="#242222" d="M 117.5,60.5 C 125.253,60.1039 132.92,60.6039 140.5,62C 142.333,62.5 143.5,63.6667 144,65.5C 149.099,80.2313 144.099,86.5646 129,84.5C 124.719,84.6007 120.552,84.1007 116.5,83C 112.5,79.3333 112.5,75.6667 116.5,72C 122.715,70.5845 129.048,70.0845 135.5,70.5C 135.739,68.5328 135.406,66.6995 134.5,65C 128.509,64.5005 122.509,64.3338 116.5,64.5C 116.433,63.0413 116.766,61.7079 117.5,60.5 Z"/></g>
<g><path style="opacity:1" fill="#232121" d="M 154.5,60.5 C 161.175,60.3337 167.842,60.5004 174.5,61C 175.337,62.0113 175.67,63.1779 175.5,64.5C 170.156,64.334 164.823,64.5006 159.5,65C 157.051,66.8633 156.051,69.3633 156.5,72.5C 156.353,75.2534 157.02,77.7534 158.5,80C 164.157,80.4994 169.824,80.6661 175.5,80.5C 175.67,81.8221 175.337,82.9887 174.5,84C 167.833,84.6667 161.167,84.6667 154.5,84C 147.565,79.5361 145.732,73.3695 149,65.5C 150.73,63.5981 152.563,61.9314 154.5,60.5 Z"/></g>
<g><path style="opacity:1" fill="#1f1d1d" d="M 197.5,60.5 C 197.5,61.5 197.5,62.5 197.5,63.5C 189.839,61.8376 186.173,64.8376 186.5,72.5C 185.591,80.8788 189.258,83.8788 197.5,81.5C 197.5,82.5 197.5,83.5 197.5,84.5C 182.188,87.6375 175.688,81.6375 178,66.5C 183.274,60.9924 189.774,58.9924 197.5,60.5 Z"/></g>
<g><path style="opacity:1" fill="#f9f9f9" d="M 197.5,63.5 C 197.5,69.5 197.5,75.5 197.5,81.5C 189.258,83.8788 185.591,80.8788 186.5,72.5C 186.173,64.8376 189.839,61.8376 197.5,63.5 Z"/></g>
<g><path style="opacity:1" fill="#ededed" d="M 125.5,73.5 C 128.833,73.5 132.167,73.5 135.5,73.5C 135.663,75.8568 135.497,78.1902 135,80.5C 131,81.8333 127,81.8333 123,80.5C 121.916,77.3411 122.75,75.0078 125.5,73.5 Z"/></g>
<g><path style="opacity:1" fill="#ffce2f" d="M -0.5,73.5 C 2.16667,75.1667 2.16667,76.8333 -0.5,78.5C -0.5,76.8333 -0.5,75.1667 -0.5,73.5 Z"/></g>
<g><path style="opacity:1" fill="#b6b5b5" d="M 197.5,91.5 C 197.5,92.5 197.5,93.5 197.5,94.5C 196.596,95.209 196.263,96.209 196.5,97.5C 190.443,96.912 190.11,95.412 195.5,93C 193.866,92.5065 192.199,92.3398 190.5,92.5C 190.66,94.1992 190.494,95.8659 190,97.5C 189.275,99.158 188.108,99.658 186.5,99C 187.914,95.716 189.248,92.3826 190.5,89C 191.332,88.3123 191.998,88.479 192.5,89.5C 191.494,90.3957 191.494,91.0623 192.5,91.5C 193.719,90.7366 194.719,89.7366 195.5,88.5C 196.176,89.6016 196.842,90.6016 197.5,91.5 Z"/></g>
<g><path style="opacity:1" fill="#bdbcbc" d="M 115.5,89.5 C 117.217,91.5167 119.217,91.85 121.5,90.5C 123.49,91.4627 123.823,92.796 122.5,94.5C 121.304,94.1543 121.304,93.6543 122.5,93C 121.365,92.2506 120.365,92.4173 119.5,93.5C 120.641,94.4255 120.641,95.2588 119.5,96C 120.5,96.3333 121.5,96.6667 122.5,97C 119.854,97.4974 117.187,97.6641 114.5,97.5C 114.833,94.8333 115.167,92.1667 115.5,89.5 Z"/></g>
<g><path style="opacity:1" fill="#b8b8b8" d="M 154.5,88.5 C 155.165,90.3691 155.831,92.3691 156.5,94.5C 160.386,93.4119 160.386,92.5785 156.5,92C 157.865,90.3181 159.365,90.1514 161,91.5C 161.743,93.4406 161.576,95.2739 160.5,97C 158.343,97.0781 156.343,97.2448 154.5,97.5C 153.259,94.463 153.259,91.463 154.5,88.5 Z"/></g>
<g><path style="opacity:1" fill="#b2b1b1" d="M 180.5,90.5 C 184.473,91.0755 185.473,93.2421 183.5,97C 182.207,97.49 180.873,97.6567 179.5,97.5C 179.22,94.6118 180.553,93.1118 183.5,93C 181.881,92.7645 180.881,91.9311 180.5,90.5 Z"/></g>
<g><path style="opacity:1" fill="#b5b5b5" d="M 127.5,89.5 C 129.366,90.0138 131.2,90.6805 133,91.5C 135.331,89.9454 137.331,90.2787 139,92.5C 143.214,89.7307 143.881,90.064 141,93.5C 140.517,94.448 140.351,95.448 140.5,96.5C 143.481,96.544 143.814,96.8773 141.5,97.5C 138.898,96.9455 136.231,96.7788 133.5,97C 132.141,95.7955 131.141,94.2955 130.5,92.5C 128.931,93.714 128.098,95.3807 128,97.5C 127.503,94.854 127.336,92.1873 127.5,89.5 Z"/></g>
<g><path style="opacity:1" fill="#b9b8b8" d="M 171.5,88.5 C 172.376,88.3691 173.043,88.7025 173.5,89.5C 172.572,90.7678 172.405,92.1011 173,93.5C 174.373,90.8225 176.54,89.6559 179.5,90C 178.833,92.3333 178.167,94.6667 177.5,97C 175.343,97.0781 173.343,97.2448 171.5,97.5C 170.719,96.2713 170.219,94.938 170,93.5C 168.753,95.8808 168.42,95.5475 169,92.5C 170.706,91.6921 171.539,90.3588 171.5,88.5 Z"/></g>
</svg>
