<?xml version="1.0" encoding="UTF-8"?>
<!DOCTYPE svg PUBLIC "-//W3C//DTD SVG 1.1//EN" "http://www.w3.org/Graphics/SVG/1.1/DTD/svg11.dtd">
<svg xmlns="http://www.w3.org/2000/svg" version="1.1" width="180px" height="130px" style="shape-rendering:geometricPrecision; text-rendering:geometricPrecision; image-rendering:optimizeQuality; fill-rule:evenodd; clip-rule:evenodd" xmlns:xlink="http://www.w3.org/1999/xlink">
<g><path style="opacity:1" fill="#ebeaeb" d="M -0.5,-0.5 C 59.5,-0.5 119.5,-0.5 179.5,-0.5C 179.5,42.8333 179.5,86.1667 179.5,129.5C 119.5,129.5 59.5,129.5 -0.5,129.5C -0.5,86.1667 -0.5,42.8333 -0.5,-0.5 Z"/></g>
<g><path style="opacity:1" fill="#2db0d8" d="M 92.5,25.5 C 94.856,27.5573 95.856,30.224 95.5,33.5C 94.032,34.7791 93.3653,36.4458 93.5,38.5C 95.7354,38.2053 97.7354,38.5386 99.5,39.5C 94.7569,41.7465 91.5902,40.4131 90,35.5C 88.117,36.6526 87.2837,38.3193 87.5,40.5C 84.7628,40.5987 82.0961,40.2653 79.5,39.5C 81.556,38.8007 83.556,37.8007 85.5,36.5C 83.2955,33.9469 80.9621,33.9469 78.5,36.5C 77.5481,34.9547 77.2148,33.288 77.5,31.5C 78.7997,32.1079 80.1331,32.7745 81.5,33.5C 82.1667,33.1667 82.8333,32.8333 83.5,32.5C 84.7404,29.6066 86.0737,26.7733 87.5,24C 88.3333,23.8333 89.1667,23.6667 90,23.5C 91.3756,23.6842 92.2089,24.3509 92.5,25.5 Z"/></g>
<g><path style="opacity:1" fill="#10a9ef" d="M 92.5,25.5 C 92.5,28.1667 92.5,30.8333 92.5,33.5C 86.2651,33.7772 84.9318,31.2772 88.5,26C 89.7932,25.51 91.1266,25.3433 92.5,25.5 Z"/></g>
<g><path style="opacity:1" fill="#36add2" d="M 74.5,31.5 C 73.3065,31.9704 72.6399,32.9704 72.5,34.5C 73.226,38.2106 74.5593,41.5439 76.5,44.5C 74.8333,44.5 73.1667,44.5 71.5,44.5C 71.9817,43.5837 72.315,42.5837 72.5,41.5C 71.4032,38.71 70.4032,35.8766 69.5,33C 69.6448,32.228 69.9781,31.5613 70.5,31C 72.0657,30.235 73.3991,30.4017 74.5,31.5 Z"/></g>
<g><path style="opacity:1" fill="#29ace0" d="M 71.5,44.5 C 73.1667,44.5 74.8333,44.5 76.5,44.5C 74.5593,41.5439 73.226,38.2106 72.5,34.5C 72.6399,32.9704 73.3065,31.9704 74.5,31.5C 75.5,31.5 76.5,31.5 77.5,31.5C 77.2148,33.288 77.5481,34.9547 78.5,36.5C 80.9621,33.9469 83.2955,33.9469 85.5,36.5C 83.556,37.8007 81.556,38.8007 79.5,39.5C 79.6279,41.9276 79.2946,44.5943 78.5,47.5C 77.3279,47.9186 76.3279,48.5853 75.5,49.5C 76.5283,51.3615 78.0283,52.6948 80,53.5C 80.7562,55.8087 80.2562,57.8087 78.5,59.5C 79,59.8333 79.5,60.1667 80,60.5C 84.7005,58.333 87.8671,59.6664 89.5,64.5C 90.9505,63.3446 91.9505,61.8446 92.5,60C 94.8991,59.289 97.2324,59.4557 99.5,60.5C 99.7423,57.681 99.7423,54.681 99.5,51.5C 105.979,50.8518 106.146,49.5184 100,47.5C 99.8144,44.6005 99.6478,41.9339 99.5,39.5C 97.7354,38.5386 95.7354,38.2053 93.5,38.5C 93.3653,36.4458 94.032,34.7791 95.5,33.5C 99.7491,32.031 104.082,31.1976 108.5,31C 109.059,31.7247 109.392,32.5581 109.5,33.5C 107.885,37.0086 106.885,40.6753 106.5,44.5C 109.661,45.9762 112.995,46.9762 116.5,47.5C 116.5,49.1667 116.5,50.8333 116.5,52.5C 113.714,54.279 110.714,55.6124 107.5,56.5C 108.465,60.7726 109.131,65.1059 109.5,69.5C 104.573,69.5472 99.9066,68.5472 95.5,66.5C 95.1199,69.7449 93.9532,72.7449 92,75.5C 90.3333,76.8333 88.6667,76.8333 87,75.5C 85.7159,72.4701 84.5492,69.4701 83.5,66.5C 79.2509,67.969 74.9176,68.8024 70.5,69C 69.9415,68.2753 69.6082,67.4419 69.5,66.5C 71.2787,63.3854 72.112,60.052 72,56.5C 69.4125,54.8042 66.5792,53.8042 63.5,53.5C 63.1884,47.9652 65.8551,44.9652 71.5,44.5 Z"/></g>
<g><path style="opacity:1" fill="#e4eaee" d="M 99.5,39.5 C 99.6478,41.9339 99.8144,44.6005 100,47.5C 106.146,49.5184 105.979,50.8518 99.5,51.5C 99.7423,54.681 99.7423,57.681 99.5,60.5C 97.2324,59.4557 94.8991,59.289 92.5,60C 91.9505,61.8446 90.9505,63.3446 89.5,64.5C 87.8671,59.6664 84.7005,58.333 80,60.5C 79.5,60.1667 79,59.8333 78.5,59.5C 80.2562,57.8087 80.7562,55.8087 80,53.5C 78.0283,52.6948 76.5283,51.3615 75.5,49.5C 76.3279,48.5853 77.3279,47.9186 78.5,47.5C 79.2946,44.5943 79.6279,41.9276 79.5,39.5C 82.0961,40.2653 84.7628,40.5987 87.5,40.5C 87.2837,38.3193 88.117,36.6526 90,35.5C 91.5902,40.4131 94.7569,41.7465 99.5,39.5 Z"/></g>
<g><path style="opacity:1" fill="#3c5a7d" d="M 28.5,84.5 C 26.5853,84.7845 24.9187,84.4511 23.5,83.5C 24.5521,81.744 26.2188,81.0773 28.5,81.5C 28.5,82.5 28.5,83.5 28.5,84.5 Z"/></g>
<g><path style="opacity:1" fill="#1e4a88" d="M 60.5,81.5 C 61.8333,81.5 63.1667,81.5 64.5,81.5C 64.666,86.8437 64.4994,92.1771 64,97.5C 60.0669,99.4777 55.9002,99.9777 51.5,99C 50.6195,98.2917 49.9528,97.4584 49.5,96.5C 48.6671,88.3355 52.3338,85.0022 60.5,86.5C 60.5,84.8333 60.5,83.1667 60.5,81.5 Z"/></g>
<g><path style="opacity:1" fill="#5b83ac" d="M 60.5,81.5 C 60.5,83.1667 60.5,84.8333 60.5,86.5C 52.3338,85.0022 48.6671,88.3355 49.5,96.5C 49.1667,96.5 48.8333,96.5 48.5,96.5C 47.1667,87.8333 50.8333,84.1667 59.5,85.5C 59.2322,83.901 59.5655,82.5676 60.5,81.5 Z"/></g>
<g><path style="opacity:1" fill="#224b87" d="M 43.5,86.5 C 45.2624,87.2623 46.2624,88.5956 46.5,90.5C 46.5,93.5 46.5,96.5 46.5,99.5C 44.8333,99.5 43.1667,99.5 41.5,99.5C 41.5,95.8333 41.5,92.1667 41.5,88.5C 39.5,88.5 37.5,88.5 35.5,88.5C 35.5,90.8333 35.5,93.1667 35.5,95.5C 35.5,96.8333 35.5,98.1667 35.5,99.5C 33.8333,99.5 32.1667,99.5 30.5,99.5C 27.8333,88.1667 32.1667,83.8333 43.5,86.5 Z"/></g>
<g><path style="opacity:1" fill="#cfe3f6" d="M 23.5,83.5 C 24.9187,84.4511 26.5853,84.7845 28.5,84.5C 33.5,85.1667 38.5,85.8333 43.5,86.5C 32.1667,83.8333 27.8333,88.1667 30.5,99.5C 29.8333,99.5 29.1667,99.5 28.5,99.5C 27.51,103.149 25.6766,103.482 23,100.5C 22.3623,99.3914 21.8623,98.2247 21.5,97C 22.087,92.3518 22.7537,87.8518 23.5,83.5 Z"/></g>
<g><path style="opacity:1" fill="#1f4c86" d="M 28.5,99.5 C 26.8333,99.5 25.1667,99.5 23.5,99.5C 23.5,95.1667 23.5,90.8333 23.5,86.5C 25.1667,86.5 26.8333,86.5 28.5,86.5C 28.5,90.8333 28.5,95.1667 28.5,99.5 Z"/></g>
<g><path style="opacity:1" fill="#d6e2ef" d="M 64.5,81.5 C 65.0652,83.42 66.0652,85.0867 67.5,86.5C 64.8165,97.82 68.8165,101.82 79.5,98.5C 81.5,98.5 82.5,97.5 82.5,95.5C 83.4794,92.3752 83.8128,89.0419 83.5,85.5C 86.7657,85.2364 89.7657,84.2364 92.5,82.5C 93.5505,83.8848 94.8839,84.8848 96.5,85.5C 107.523,86.1519 118.523,85.4852 129.5,83.5C 133.726,83.6944 137.06,85.3611 139.5,88.5C 139.33,87.1779 139.663,86.0113 140.5,85C 145.5,84.3333 150.5,84.3333 155.5,85C 156,85.5 156.5,86 157,86.5C 157.081,93.2752 157.915,99.9419 159.5,106.5C 159.167,107.5 158.833,108.5 158.5,109.5C 155.744,106.157 152.577,103.157 149,100.5C 146.866,102.287 146.033,104.62 146.5,107.5C 145.5,107.5 144.5,107.5 143.5,107.5C 143.66,105.801 143.494,104.134 143,102.5C 141.124,101.391 139.291,100.391 137.5,99.5C 140.346,88.682 136.346,84.3486 125.5,86.5C 121.916,86.5184 118.416,86.8518 115,87.5C 114.501,91.4862 114.334,95.4862 114.5,99.5C 115.833,99.5 117.167,99.5 118.5,99.5C 117.081,100.451 115.415,100.784 113.5,100.5C 113.669,105.041 113.002,105.374 111.5,101.5C 106.156,102.354 100.822,102.02 95.5,100.5C 93.9951,99.1585 93.3285,97.4918 93.5,95.5C 92.5,95.5 91.5,95.5 90.5,95.5C 90.5,93.1667 90.5,90.8333 90.5,88.5C 95.3056,88.0486 95.4722,87.3819 91,86.5C 89.4385,86.6032 87.9385,86.9366 86.5,87.5C 85.5091,91.4454 85.1758,95.4454 85.5,99.5C 82.2241,99.2643 78.8908,99.9309 75.5,101.5C 65.3457,100.138 55.0124,100.305 44.5,102C 43.1414,103.204 42.1414,104.704 41.5,106.5C 39.4523,107.77 37.4523,108.103 35.5,107.5C 37.9732,105.939 39.9732,103.939 41.5,101.5C 39.2795,98.0249 38.9461,94.3583 40.5,90.5C 39.1667,90.5 37.8333,90.5 36.5,90.5C 36.7845,92.4147 36.4511,94.0813 35.5,95.5C 35.5,93.1667 35.5,90.8333 35.5,88.5C 37.5,88.5 39.5,88.5 41.5,88.5C 41.5,92.1667 41.5,95.8333 41.5,99.5C 43.1667,99.5 44.8333,99.5 46.5,99.5C 46.5,96.5 46.5,93.5 46.5,90.5C 47.3171,92.9686 47.8171,95.6353 48,98.5C 48.4643,97.9056 48.631,97.2389 48.5,96.5C 48.8333,96.5 49.1667,96.5 49.5,96.5C 49.9528,97.4584 50.6195,98.2917 51.5,99C 55.9002,99.9777 60.0669,99.4777 64,97.5C 64.4994,92.1771 64.666,86.8437 64.5,81.5 Z"/></g>
<g><path style="opacity:1" fill="#214980" d="M 83.5,85.5 C 83.8128,89.0419 83.4794,92.3752 82.5,95.5C 82.5,92.5 82.5,89.5 82.5,86.5C 81.5,86.5 80.5,86.5 79.5,86.5C 79.5,90.5 79.5,94.5 79.5,98.5C 68.8165,101.82 64.8165,97.82 67.5,86.5C 68.8333,86.5 70.1667,86.5 71.5,86.5C 71.3354,89.5184 71.502,92.5184 72,95.5C 74,96.8333 76,96.8333 78,95.5C 78.4983,92.1832 78.665,88.8499 78.5,85.5C 80.1667,85.5 81.8333,85.5 83.5,85.5 Z"/></g>
<g><path style="opacity:1" fill="#264a85" d="M 90.5,95.5 C 90.5,96.8333 90.5,98.1667 90.5,99.5C 88.8333,99.5 87.1667,99.5 85.5,99.5C 85.1758,95.4454 85.5091,91.4454 86.5,87.5C 87.9385,86.9366 89.4385,86.6032 91,86.5C 95.4722,87.3819 95.3056,88.0486 90.5,88.5C 90.5,90.8333 90.5,93.1667 90.5,95.5 Z"/></g>
<g><path style="opacity:1" fill="#1e4c86" d="M 97.5,86.5 C 101.514,86.3345 105.514,86.5012 109.5,87C 110,87.5 110.5,88 111,88.5C 111.499,92.1516 111.665,95.8183 111.5,99.5C 106.841,99.1613 102.174,98.828 97.5,98.5C 94.8407,94.4676 94.8407,90.4676 97.5,86.5 Z"/></g>
<g><path style="opacity:1" fill="#244a85" d="M 137.5,99.5 C 135.833,99.5 134.167,99.5 132.5,99.5C 132.5,96.1667 132.5,92.8333 132.5,89.5C 131.167,89.5 129.833,89.5 128.5,89.5C 128.5,92.8333 128.5,96.1667 128.5,99.5C 126.833,99.5 125.167,99.5 123.5,99.5C 123.5,96.1667 123.5,92.8333 123.5,89.5C 121.833,89.5 120.167,89.5 118.5,89.5C 118.5,92.8333 118.5,96.1667 118.5,99.5C 117.167,99.5 115.833,99.5 114.5,99.5C 114.334,95.4862 114.501,91.4862 115,87.5C 118.416,86.8518 121.916,86.5184 125.5,86.5C 136.346,84.3486 140.346,88.682 137.5,99.5 Z"/></g>
<g><path style="opacity:1" fill="#e0edf2" d="M 100.5,89.5 C 102.5,89.5 104.5,89.5 106.5,89.5C 106.5,91.8333 106.5,94.1667 106.5,96.5C 104.5,96.5 102.5,96.5 100.5,96.5C 100.5,94.1667 100.5,91.8333 100.5,89.5 Z"/></g>
<g><path style="opacity:1" fill="#104494" d="M 82.5,95.5 C 82.5,97.5 81.5,98.5 79.5,98.5C 79.5,94.5 79.5,90.5 79.5,86.5C 80.5,86.5 81.5,86.5 82.5,86.5C 82.5,89.5 82.5,92.5 82.5,95.5 Z"/></g>
<g><path style="opacity:1" fill="#244d82" d="M 142.5,86.5 C 141.049,90.6365 141.216,94.6365 143,98.5C 143.181,95.3054 143.681,92.3054 144.5,89.5C 145.9,88.8999 146.9,87.8999 147.5,86.5C 149.92,86.2924 152.253,86.6258 154.5,87.5C 155.491,91.4454 155.824,95.4454 155.5,99.5C 150.888,98.9663 146.222,98.7996 141.5,99C 139.737,95.7568 139.071,92.2568 139.5,88.5C 140.5,87.8333 141.5,87.1667 142.5,86.5 Z"/></g>
<g><path style="opacity:1" fill="#dfeff7" d="M 144.5,89.5 C 146.5,89.5 148.5,89.5 150.5,89.5C 150.5,91.8333 150.5,94.1667 150.5,96.5C 148.5,96.5 146.5,96.5 144.5,96.5C 144.5,94.1667 144.5,91.8333 144.5,89.5 Z"/></g>
<g><path style="opacity:1" fill="#d7e8ec" d="M 53.5,88.5 C 55.5,88.5 57.5,88.5 59.5,88.5C 59.5,91.1667 59.5,93.8333 59.5,96.5C 57.5328,96.7394 55.6995,96.4061 54,95.5C 53.5034,93.1902 53.3367,90.8568 53.5,88.5 Z"/></g>
<g><path style="opacity:1" fill="#094194" d="M 142.5,86.5 C 144.167,86.5 145.833,86.5 147.5,86.5C 146.9,87.8999 145.9,88.8999 144.5,89.5C 143.681,92.3054 143.181,95.3054 143,98.5C 141.216,94.6365 141.049,90.6365 142.5,86.5 Z"/></g>
</svg>
