<?xml version="1.0" encoding="UTF-8"?>
<svg version="1.1" xmlns="http://www.w3.org/2000/svg" width="225" height="225">
<path d="M0 0 C74.25 0 148.5 0 225 0 C225 74.25 225 148.5 225 225 C150.75 225 76.5 225 0 225 C0 150.75 0 76.5 0 0 Z " fill="#FFFFFF" transform="translate(0,0)"/>
<path d="M0 0 C66.99 0 133.98 0 203 0 C203 35.31 203 70.62 203 107 C136.01 107 69.02 107 0 107 C0 71.69 0 36.38 0 0 Z " fill="#04AFEF" transform="translate(11,59)"/>
<path d="M0 0 C3.04263267 -0.10845027 6.08136204 -0.18752063 9.125 -0.25 C9.9809375 -0.28351563 10.836875 -0.31703125 11.71875 -0.3515625 C17.50682881 -0.44060987 20.53452388 0.26212542 25 4 C26 5 26 5 26.11352539 7.86743164 C26.10828857 9.11903076 26.10305176 10.37062988 26.09765625 11.66015625 C26.0962413 12.32462265 26.09482635 12.98908905 26.09336853 13.6736908 C26.08775518 15.80333899 26.07520054 17.93288339 26.0625 20.0625 C26.05748671 21.50325369 26.05292351 22.94400903 26.04882812 24.38476562 C26.03778145 27.92321102 26.02050792 31.46159539 26 35 C24.68 35 23.36 35 22 35 C22 34.34 22 33.68 22 33 C20.515 33.495 20.515 33.495 19 34 C16.34152131 34.12226159 13.72076362 34.18512018 11.0625 34.1875 C10.34642578 34.19974609 9.63035156 34.21199219 8.89257812 34.22460938 C5.11181255 34.23512123 2.1580373 34.19756367 -1 32 C-4.15572763 28.28074958 -4.39907824 24.8638272 -4.59375 20.18359375 C-4 18 -4 18 -2.14453125 15.73828125 C2.4785386 13.18267121 6.62675749 13.56889952 11.8125 13.75 C12.79154297 13.76804687 13.77058594 13.78609375 14.77929688 13.8046875 C17.18720771 13.85167113 19.59309335 13.91734306 22 14 C20.90213575 8.59212615 20.90213575 8.59212615 17 5 C14.97457852 4.63648496 14.97457852 4.63648496 12.76953125 4.5859375 C11.96708984 4.54726562 11.16464844 4.50859375 10.33789062 4.46875 C9.08782227 4.42234375 9.08782227 4.42234375 7.8125 4.375 C6.5450293 4.31699219 6.5450293 4.31699219 5.25195312 4.2578125 C3.16832476 4.16363721 1.08419247 4.08073325 -1 4 C-0.67 2.68 -0.34 1.36 0 0 Z " fill="#E1E8E9" transform="translate(166,99)"/>
<path d="M0 0 C1.65 0 3.3 0 5 0 C5 0.99 5 1.98 5 3 C5.845625 2.67902344 6.69125 2.35804687 7.5625 2.02734375 C11.18386503 0.94504943 14.22710653 0.63282806 18 0.5625 C19.7634375 0.50255859 19.7634375 0.50255859 21.5625 0.44140625 C24.92593049 0.9879637 27.3493501 1.60741824 29.88378906 3.97387695 C32.62417337 8.94816596 31.5844285 15.29557369 31.375 20.8125 C31.34488122 22.18679094 31.31750872 23.56114499 31.29296875 24.93554688 C31.22230722 28.29196969 31.12367705 31.64518065 31 35 C29.35 35 27.7 35 26 35 C25.505 21.14 25.505 21.14 25 7 C22.47730319 5.7386516 20.6310726 5.79665224 17.8125 5.75 C16.42998047 5.71132812 16.42998047 5.71132812 15.01953125 5.671875 C11.20342071 5.93771497 11.20342071 5.93771497 5 9 C4.67 17.58 4.34 26.16 4 35 C2.68 35 1.36 35 0 35 C0 23.45 0 11.9 0 0 Z " fill="#E3E9E9" transform="translate(50,99)"/>
<path d="M0 0 C1.65 0 3.3 0 5 0 C8.96 8.91 12.92 17.82 17 27 C18.65 23.04 20.3 19.08 22 15 C23.078329 12.4353901 24.16065881 9.87245179 25.25 7.3125 C25.75015625 6.13300781 26.2503125 4.95351562 26.765625 3.73828125 C28 1 28 1 29 0 C30.66617115 -0.04063832 32.33388095 -0.042721 34 0 C31.57606156 7.73509365 28.50605264 15.11637146 25.3125 22.5625 C24.80138672 23.76197266 24.29027344 24.96144531 23.76367188 26.19726562 C22.51224198 29.13286285 21.25761707 32.06704935 20 35 C18.02 35 16.04 35 14 35 C12.00160844 30.338858 10.0079018 25.6757515 8.01855469 21.01074219 C7.34081105 19.42327555 6.66177908 17.83635832 5.98144531 16.25 C5.00508703 13.97277951 4.03334369 11.69363848 3.0625 9.4140625 C2.75626709 8.70255035 2.45003418 7.99103821 2.13452148 7.25796509 C0 2.22774341 0 2.22774341 0 0 Z " fill="#DEE7EA" transform="translate(125,99)"/>
<path d="M0 0 C3 1 3 1 4.6875 3.625 C6.37176541 7.95596819 6.92359786 11.38313938 5.34375 15.859375 C3.03151471 20.52371171 -0.1051179 23.10750688 -5 25 C-8.48065064 25.58538373 -11.91281433 25.69417345 -15.4375 25.75 C-16.35982422 25.77964844 -17.28214844 25.80929688 -18.23242188 25.83984375 C-20.48836601 25.90997673 -22.74331119 25.9629475 -25 26 C-25.33 26.66 -25.66 27.32 -26 28 C-26.99 27.67 -27.98 27.34 -29 27 C-29 24.36 -29 21.72 -29 19 C-26.06394995 17.34264013 -23.76424197 16.70429296 -20.41015625 16.47265625 C-19.10981445 16.36727539 -19.10981445 16.36727539 -17.78320312 16.25976562 C-15.97356502 16.12855712 -14.16366314 16.00093583 -12.35351562 15.87695312 C-7.5395014 15.48025262 -3.8969774 15.14119997 0 12 C1.31157516 9.37684968 0.89649988 7.76966564 0.5625 4.875 C0.46066406 3.96492188 0.35882813 3.05484375 0.25390625 2.1171875 C0.12822266 1.06917969 0.12822266 1.06917969 0 0 Z " fill="#E5E9E9" transform="translate(117,102)"/>
<path d="M0 0 C3.875 1.75 3.875 1.75 5 4 C5.375 7.375 5.375 7.375 5 11 C0.83320285 15.63724199 -3.51192812 15.75288553 -9.375 16.125 C-15.19237832 16.55221372 -20.43949988 17.18646762 -26 19 C-25.76095503 15.49400715 -25.44025754 13.51363379 -23.125 10.8125 C-18.64614549 8.21476438 -14.01927663 7.15409218 -9 6 C-8.10410156 5.79246094 -7.20820312 5.58492188 -6.28515625 5.37109375 C-4.19354156 4.89858048 -2.09722595 4.44694979 0 4 C0 2.68 0 1.36 0 0 Z " fill="#E6EAE9" transform="translate(112,100)"/>
<path d="M0 0 C0.79277344 0.01353516 1.58554688 0.02707031 2.40234375 0.04101562 C4.35185564 0.07624777 6.30101626 0.13005179 8.25 0.1875 C8.25 3.8175 8.25 7.4475 8.25 11.1875 C4.71105516 12.07223621 1.92585863 12.38282118 -1.6875 12.4375 C-2.70714844 12.46328125 -3.72679687 12.4890625 -4.77734375 12.515625 C-8.19421002 12.13846762 -10.04395771 11.28566322 -12.75 9.1875 C-13.3125 6.1875 -13.3125 6.1875 -12.75 3.1875 C-9.20255717 -0.80686477 -4.93176236 -0.15948485 0 0 Z " fill="#01AEEE" transform="translate(179.75,116.8125)"/>
<path d="M0 0 C0.33 0.99 0.66 1.98 1 3 C-1.6996448 7.38351416 -4.51000182 9.00923982 -9.25 10.8125 C-10.86648437 11.44091797 -10.86648437 11.44091797 -12.515625 12.08203125 C-13.33546875 12.38496094 -14.1553125 12.68789062 -15 13 C-14.43260132 17.12973628 -14.43260132 17.12973628 -13 21 C-16.88536171 20.4361068 -19.45224086 19.33310556 -22.6875 17.125 C-23.83798828 16.35542969 -23.83798828 16.35542969 -25.01171875 15.5703125 C-27 14 -27 14 -29 11 C-28.625 8.8125 -28.625 8.8125 -28 7 C-26.69804688 6.96261719 -25.39609375 6.92523438 -24.0546875 6.88671875 C-22.32809743 6.82103326 -20.60153619 6.75458682 -18.875 6.6875 C-18.0190625 6.66494141 -17.163125 6.64238281 -16.28125 6.61914062 C-10.28300582 6.36536876 -5.74331319 5.46898187 -1.125 1.3125 C-0.75375 0.879375 -0.3825 0.44625 0 0 Z " fill="#E4E9E9" transform="translate(121,122)"/>
<path d="M0 0 C1.32 0 2.64 0 4 0 C4 11.22 4 22.44 4 34 C2.68 34 1.36 34 0 34 C0 22.78 0 11.56 0 0 Z " fill="#EFECE9" transform="translate(37,100)"/>
<path d="M0 0 C0.89203125 0.01804687 1.7840625 0.03609375 2.703125 0.0546875 C3.71632813 0.08949219 3.71632813 0.08949219 4.75 0.125 C5.08 1.445 5.41 2.765 5.75 4.125 C2.56175377 5.99474253 0.16826263 6.33793287 -3.5 6.4375 C-9.18800467 6.83451509 -12.79535923 8.66595229 -17.25 12.125 C-15.68352827 6.64234894 -12.15032968 3.89068188 -7.3828125 0.98828125 C-4.78716463 -0.06233813 -2.79002955 -0.07342183 0 0 Z " fill="#E1E8E9" transform="translate(104.25,98.875)"/>
<path d="M0 0 C0.99 0.33 1.98 0.66 3 1 C-0.59655508 5.55563643 -3.47727695 6.75432603 -9.1640625 7.66796875 C-13.24690802 8.14598785 -17.33140777 8.491837 -21.43359375 8.75390625 C-24.116994 8.914426 -24.116994 8.914426 -27 10 C-26.6875 8.0625 -26.6875 8.0625 -26 6 C-23.36723041 5.12241014 -21.41906269 4.78517112 -18.69140625 4.5703125 C-17.86189453 4.49683594 -17.03238281 4.42335938 -16.17773438 4.34765625 C-14.43876743 4.1996038 -12.69915533 4.05893762 -10.95898438 3.92578125 C-6.32462515 3.50153425 -3.62053121 3.11347892 0 0 Z " fill="#17B2EE" transform="translate(116,111)"/>
<path d="M0 0 C6.27 0 12.54 0 19 0 C19 0.33 19 0.66 19 1 C17.02 1.33 15.04 1.66 13 2 C13.99 2.66 14.98 3.32 16 4 C10.39 4 4.78 4 -1 4 C-0.67 2.68 -0.34 1.36 0 0 Z " fill="#CFE3EA" transform="translate(166,99)"/>
<path d="M0 0 C0.99 0.33 1.98 0.66 3 1 C2.67 1.99 2.34 2.98 2 4 C-0.54579531 4.81561405 -2.95919125 5.44612923 -5.5625 6 C-7.02295582 6.33498477 -8.48260792 6.67349427 -9.94140625 7.015625 C-10.99352295 7.2621582 -10.99352295 7.2621582 -12.06689453 7.51367188 C-15.51186343 8.38035261 -18.72637709 9.63599046 -22 11 C-20.91978316 7.75934949 -19.85962716 6.66504122 -17.01953125 4.84765625 C-13.61985946 3.4207147 -10.13854467 3.35248833 -6.48828125 3.17578125 C-3.86867624 3.09433086 -3.86867624 3.09433086 -1 2 C-0.67 1.34 -0.34 0.68 0 0 Z " fill="#22B4EE" transform="translate(110,101)"/>
<path d="M0 0 C0.33 0.99 0.66 1.98 1 3 C2.32 3.33 3.64 3.66 5 4 C-0.94 4.495 -0.94 4.495 -7 5 C-7.66 3.68 -8.32 2.36 -9 1 C-5.8035914 -0.06546953 -3.34252724 -0.07427838 0 0 Z " fill="#D0E3EA" transform="translate(67,100)"/>
<path d="M0 0 C0.99 0 1.98 0 3 0 C1.58336454 4.24990638 -1.20784794 5.80454354 -5 8 C-7.9375 8.8125 -7.9375 8.8125 -10 9 C-7.85224355 6.61360394 -6.32708374 5.12931218 -3.3125 3.9375 C-2.549375 3.628125 -1.78625 3.31875 -1 3 C-0.67 2.01 -0.34 1.02 0 0 Z " fill="#24B4EE" transform="translate(120,120)"/>
<path d="M0 0 C0.33 1.32 0.66 2.64 1 4 C-0.98 5.32 -2.96 6.64 -5 8 C-3.8141763 4.62496331 -2.72426311 2.35277269 0 0 Z " fill="#D1E3EA" transform="translate(92,103)"/>
<path d="M0 0 C1.32 0 2.64 0 4 0 C3.67 1.65 3.34 3.3 3 5 C2.01 5 1.02 5 0 5 C0 3.35 0 1.7 0 0 Z " fill="#DBE7EA" transform="translate(37,87)"/>
<path d="M0 0 C0.99 0.33 1.98 0.66 3 1 C4.1875 3.5625 4.1875 3.5625 5 6 C4.34 6 3.68 6 3 6 C2.67 6.99 2.34 7.98 2 9 C1.34 6.03 0.68 3.06 0 0 Z " fill="#D1E3EA" transform="translate(117,102)"/>
<path d="M0 0 C-0.33 0.99 -0.66 1.98 -1 3 C-3.97 2.67 -6.94 2.34 -10 2 C-6.00889681 0.0044484 -4.30013434 -0.19546065 0 0 Z " fill="#F1EDE9" transform="translate(185,100)"/>
</svg>
