<?xml version="1.0" encoding="UTF-8"?>
<!DOCTYPE svg PUBLIC "-//W3C//DTD SVG 1.1//EN" "http://www.w3.org/Graphics/SVG/1.1/DTD/svg11.dtd">
<svg xmlns="http://www.w3.org/2000/svg" version="1.1" width="174px" height="148px" style="shape-rendering:geometricPrecision; text-rendering:geometricPrecision; image-rendering:optimizeQuality; fill-rule:evenodd; clip-rule:evenodd" xmlns:xlink="http://www.w3.org/1999/xlink">
<g><path style="opacity:1" fill="#fefdfd" d="M -0.5,-0.5 C 57.5,-0.5 115.5,-0.5 173.5,-0.5C 173.5,48.8333 173.5,98.1667 173.5,147.5C 115.5,147.5 57.5,147.5 -0.5,147.5C -0.5,98.1667 -0.5,48.8333 -0.5,-0.5 Z"/></g>
<g><path style="opacity:1" fill="#eb1e23" d="M 105.5,44.5 C 112.68,45.8568 114.346,49.6902 110.5,56C 103.333,57.5 100.5,54.6667 102,47.5C 103.145,46.3636 104.312,45.3636 105.5,44.5 Z"/></g>
<g><path style="opacity:1" fill="#eb2124" d="M 118.5,80.5 C 117.081,81.4511 115.415,81.7845 113.5,81.5C 107.975,80.0711 102.975,77.5711 98.5,74C 91.4556,73.0255 85.1223,74.6921 79.5,79C 66.5591,82.0688 54.8924,79.5688 44.5,71.5C 54.1495,70.6679 63.8162,70.1679 73.5,70C 78.3732,69.3017 83.0399,67.9683 87.5,66C 91.6646,61.6476 91.3313,57.6476 86.5,54C 79.8929,52.2706 73.2262,52.104 66.5,53.5C 66.3601,51.8762 67.0267,50.7096 68.5,50C 82.5535,45.8747 93.8869,49.5413 102.5,61C 110.753,59.6934 119.086,58.5267 127.5,57.5C 127.64,59.1238 126.973,60.2904 125.5,61C 120.9,62.3167 116.234,63.3167 111.5,64C 107.539,64.6078 106.039,66.7744 107,70.5C 110.812,73.9689 114.645,77.3023 118.5,80.5 Z"/></g>
<g><path style="opacity:1" fill="#f48789" d="M 118.5,80.5 C 119.043,80.56 119.376,80.8933 119.5,81.5C 117.364,82.7928 115.364,82.7928 113.5,81.5C 115.415,81.7845 117.081,81.4511 118.5,80.5 Z"/></g>
<g><path style="opacity:1" fill="#191717" d="M 46.5,88.5 C 48.5,88.5 50.5,88.5 52.5,88.5C 52.5,92.8333 52.5,97.1667 52.5,101.5C 50.5,101.5 48.5,101.5 46.5,101.5C 46.5,97.1667 46.5,92.8333 46.5,88.5 Z"/></g>
<g><path style="opacity:1" fill="#201e1e" d="M 66.5,88.5 C 71.5111,88.3341 76.5111,88.5007 81.5,89C 85.5224,91.6659 85.1891,93.9992 80.5,96C 86.4163,100.356 85.7496,102.023 78.5,101C 77.2567,99.8455 76.2567,98.5122 75.5,97C 74.552,96.5172 73.552,96.3505 72.5,96.5C 72.5,98.1667 72.5,99.8333 72.5,101.5C 70.5,101.5 68.5,101.5 66.5,101.5C 66.5,97.1667 66.5,92.8333 66.5,88.5 Z"/></g>
<g><path style="opacity:1" fill="#232121" d="M 88.5,88.5 C 90.5,88.5 92.5,88.5 94.5,88.5C 94.5,91.8333 94.5,95.1667 94.5,98.5C 96.7925,98.7564 98.9592,98.4231 101,97.5C 101.498,94.5184 101.665,91.5184 101.5,88.5C 103.167,88.5 104.833,88.5 106.5,88.5C 106.665,92.1817 106.499,95.8484 106,99.5C 103.413,101.014 100.58,101.68 97.5,101.5C 94.5457,101.709 91.879,101.042 89.5,99.5C 88.5741,95.9062 88.2408,92.2396 88.5,88.5 Z"/></g>
<g><path style="opacity:1" fill="#1b1919" d="M 112.5,88.5 C 117.914,88.2189 121.914,90.5522 124.5,95.5C 125.474,93.2573 125.808,90.924 125.5,88.5C 127.167,88.5 128.833,88.5 130.5,88.5C 130.5,92.8333 130.5,97.1667 130.5,101.5C 128.473,101.662 126.473,101.495 124.5,101C 122.333,98.8333 120.167,96.6667 118,94.5C 117.503,96.8098 117.337,99.1432 117.5,101.5C 115.833,101.5 114.167,101.5 112.5,101.5C 112.5,97.1667 112.5,92.8333 112.5,88.5 Z"/></g>
<g><path style="opacity:1" fill="#d8d7d7" d="M 72.5,90.5 C 74.9775,90.0508 76.9775,90.7175 78.5,92.5C 76.604,93.4656 74.604,93.7989 72.5,93.5C 72.5,92.5 72.5,91.5 72.5,90.5 Z"/></g>
<g><path style="opacity:1" fill="#383737" d="M 55.5,95.5 C 58.1667,95.5 60.8333,95.5 63.5,95.5C 63.5,96.5 63.5,97.5 63.5,98.5C 60.8333,98.5 58.1667,98.5 55.5,98.5C 55.5,97.5 55.5,96.5 55.5,95.5 Z"/></g>
</svg>
