<?xml version="1.0" encoding="UTF-8"?>
<!DOCTYPE svg PUBLIC "-//W3C//DTD SVG 1.1//EN" "http://www.w3.org/Graphics/SVG/1.1/DTD/svg11.dtd">
<svg xmlns="http://www.w3.org/2000/svg" version="1.1" width="225px" height="225px" style="shape-rendering:geometricPrecision; text-rendering:geometricPrecision; image-rendering:optimizeQuality; fill-rule:evenodd; clip-rule:evenodd" xmlns:xlink="http://www.w3.org/1999/xlink">
<g><path style="opacity:1" fill="#fefefe" d="M -0.5,-0.5 C 74.5,-0.5 149.5,-0.5 224.5,-0.5C 224.5,74.5 224.5,149.5 224.5,224.5C 149.5,224.5 74.5,224.5 -0.5,224.5C -0.5,149.5 -0.5,74.5 -0.5,-0.5 Z"/></g>
<g><path style="opacity:1" fill="#ffacaf" d="M 163.5,38.5 C 163.56,37.9569 163.893,37.6236 164.5,37.5C 165.5,68.4928 165.833,99.4928 165.5,130.5C 164.209,130.737 163.209,130.404 162.5,129.5C 163.833,114.682 164.499,99.515 164.5,84C 164.5,68.663 164.167,53.4963 163.5,38.5 Z"/></g>
<g><path style="opacity:1" fill="#ff1917" d="M 163.5,38.5 C 164.167,53.4963 164.5,68.663 164.5,84C 164.499,99.515 163.833,114.682 162.5,129.5C 147.959,126.192 133.293,123.525 118.5,121.5C 118.237,126.375 119.57,130.708 122.5,134.5C 121.903,135.139 121.07,135.472 120,135.5C 110.182,133.836 100.349,132.336 90.5,131C 91.056,130.617 91.3893,130.117 91.5,129.5C 93.0174,129.489 94.1841,128.823 95,127.5C 96.7411,124.691 97.9078,121.691 98.5,118.5C 86.17,118.067 73.8367,117.734 61.5,117.5C 61.5,96.5 61.5,75.5 61.5,54.5C 96.4798,55.2176 130.48,49.8842 163.5,38.5 Z"/></g>
<g><path style="opacity:1" fill="#ffe0e0" d="M 77.5,57.5 C 79.4147,57.2155 81.0813,57.5489 82.5,58.5C 76.8333,58.5 71.1667,58.5 65.5,58.5C 65.5,76.5 65.5,94.5 65.5,112.5C 75.1686,112.789 84.8352,113.122 94.5,113.5C 91.7131,114.477 88.7131,114.81 85.5,114.5C 78.1667,114.5 70.8333,114.5 63.5,114.5C 63.5,95.5 63.5,76.5 63.5,57.5C 68.1667,57.5 72.8333,57.5 77.5,57.5 Z"/></g>
<g><path style="opacity:1" fill="#ffd5d5" d="M 151.5,45.5 C 151.5,46.1667 151.833,46.5 152.5,46.5C 129.802,53.436 106.469,57.436 82.5,58.5C 81.0813,57.5489 79.4147,57.2155 77.5,57.5C 102.435,55.9846 127.102,51.9846 151.5,45.5 Z"/></g>
<g><path style="opacity:1" fill="#ff211d" d="M 160.5,122.5 C 138.711,118.006 116.711,115.006 94.5,113.5C 84.8352,113.122 75.1686,112.789 65.5,112.5C 65.5,94.5 65.5,76.5 65.5,58.5C 71.1667,58.5 76.8333,58.5 82.5,58.5C 106.469,57.436 129.802,53.436 152.5,46.5C 154.937,46.2437 157.271,45.5771 159.5,44.5C 160.5,70.4915 160.833,96.4915 160.5,122.5 Z"/></g>
<g><path style="opacity:1" fill="#ffd5d5" d="M 67.5,60.5 C 67.5,77.1667 67.5,93.8333 67.5,110.5C 70.7131,110.19 73.7131,110.523 76.5,111.5C 73.1667,111.5 69.8333,111.5 66.5,111.5C 66.1701,94.3251 66.5034,77.3251 67.5,60.5 Z"/></g>
<g><path style="opacity:1" fill="#fefafa" d="M 76.5,111.5 C 73.7131,110.523 70.7131,110.19 67.5,110.5C 67.5,93.8333 67.5,77.1667 67.5,60.5C 98.7425,60.0701 129.409,55.7368 159.5,47.5C 159.5,71.8333 159.5,96.1667 159.5,120.5C 132.072,115.344 104.405,112.344 76.5,111.5 Z"/></g>
<g><path style="opacity:1" fill="#050405" d="M 109.5,65.5 C 123.3,65.6313 130.633,72.6313 131.5,86.5C 129.939,101.939 121.605,108.105 106.5,105C 93.252,98.1704 89.752,88.0037 96,74.5C 99.5282,69.8341 104.028,66.8341 109.5,65.5 Z"/></g>
<g><path style="opacity:1" fill="#fffbfb" d="M 159.5,124.5 C 159.833,123.833 160.167,123.167 160.5,122.5C 160.833,96.4915 160.5,70.4915 159.5,44.5C 157.271,45.5771 154.937,46.2437 152.5,46.5C 151.833,46.5 151.5,46.1667 151.5,45.5C 154.55,44.7054 157.55,43.7054 160.5,42.5C 160.833,56.1667 161.167,69.8333 161.5,83.5C 161.499,97.5167 160.833,111.183 159.5,124.5 Z"/></g>
<g><path style="opacity:1" fill="#ffc6c5" d="M 94.5,113.5 C 116.711,115.006 138.711,118.006 160.5,122.5C 160.167,123.167 159.833,123.833 159.5,124.5C 134.939,119.371 110.272,116.038 85.5,114.5C 88.7131,114.81 91.7131,114.477 94.5,113.5 Z"/></g>
<g><path style="opacity:1" fill="#c3c2c2" d="M 91.5,129.5 C 91.3893,130.117 91.056,130.617 90.5,131C 100.349,132.336 110.182,133.836 120,135.5C 121.07,135.472 121.903,135.139 122.5,134.5C 131.018,133.578 139.518,132.578 148,131.5C 153.539,131.581 159.039,132.081 164.5,133C 150.422,142.114 135.088,145.114 118.5,142C 99.9199,137.57 81.2532,133.57 62.5,130C 72.1114,128.262 81.7781,128.095 91.5,129.5 Z"/></g>
<g><path style="opacity:1" fill="#19110e" d="M 62.5,169.5 C 60.8333,169.5 59.1667,169.5 57.5,169.5C 57.5,168.5 57.5,167.5 57.5,166.5C 60.2385,167.035 62.0718,166.035 63,163.5C 63.6841,158.178 64.1841,152.844 64.5,147.5C 66.1667,147.5 67.8333,147.5 69.5,147.5C 69.1584,153.566 68.325,159.566 67,165.5C 66.2525,167.751 64.7525,169.084 62.5,169.5 Z"/></g>
<g><path style="opacity:1" fill="#170e0b" d="M 79.5,147.5 C 81.7659,147.141 83.5993,147.808 85,149.5C 86.8223,156.104 88.3223,162.771 89.5,169.5C 87.8333,169.5 86.1667,169.5 84.5,169.5C 84.5,167.833 84.5,166.167 84.5,164.5C 81.4281,164.183 78.4281,164.516 75.5,165.5C 74.7542,166.736 74.4208,168.07 74.5,169.5C 72.712,169.785 71.0453,169.452 69.5,168.5C 72.8394,161.47 76.1728,154.47 79.5,147.5 Z"/></g>
<g><path style="opacity:1" fill="#1b1412" d="M 94.5,147.5 C 98.5138,147.334 102.514,147.501 106.5,148C 109.88,151.331 110.38,155.164 108,159.5C 104.827,161.613 101.327,162.613 97.5,162.5C 97.5,164.833 97.5,167.167 97.5,169.5C 95.8333,169.5 94.1667,169.5 92.5,169.5C 92.8375,162.134 93.5041,154.801 94.5,147.5 Z"/></g>
<g><path style="opacity:1" fill="#ff1615" d="M 117.5,147.5 C 119.5,147.5 121.5,147.5 123.5,147.5C 125.044,154.797 126.377,162.131 127.5,169.5C 125.833,169.5 124.167,169.5 122.5,169.5C 122.5,167.833 122.5,166.167 122.5,164.5C 119.813,164.336 117.146,164.503 114.5,165C 113.393,168.805 111.06,169.972 107.5,168.5C 111.12,161.595 114.453,154.595 117.5,147.5 Z"/></g>
<g><path style="opacity:1" fill="#ff1917" d="M 132.5,147.5 C 134.288,147.215 135.955,147.548 137.5,148.5C 140,152.833 142.5,157.167 145,161.5C 145.829,156.863 146.329,152.196 146.5,147.5C 148.199,147.34 149.866,147.506 151.5,148C 150.206,155.093 149.206,162.259 148.5,169.5C 146.856,169.714 145.356,169.38 144,168.5C 142.066,164.241 139.732,160.241 137,156.5C 135.523,160.696 134.689,165.029 134.5,169.5C 133.167,169.5 131.833,169.5 130.5,169.5C 131.261,162.176 131.927,154.842 132.5,147.5 Z"/></g>
<g><path style="opacity:1" fill="#eaeaea" d="M 99.5,150.5 C 102.93,149.755 104.597,151.089 104.5,154.5C 104.43,155.772 104.097,156.938 103.5,158C 101.866,158.494 100.199,158.66 98.5,158.5C 98.2786,155.721 98.612,153.054 99.5,150.5 Z"/></g>
<g><path style="opacity:1" fill="#e1e1e1" d="M 80.5,152.5 C 81.6491,152.791 82.3158,153.624 82.5,155C 83.0767,157.137 83.41,159.304 83.5,161.5C 81.396,161.799 79.396,161.466 77.5,160.5C 78.9,157.965 79.9,155.298 80.5,152.5 Z"/></g>
<g><path style="opacity:1" fill="#ffe8e8" d="M 119.5,152.5 C 120.913,155.219 121.58,158.219 121.5,161.5C 119.473,161.662 117.473,161.495 115.5,161C 116.703,158.095 118.036,155.262 119.5,152.5 Z"/></g>
<g><path style="opacity:1" fill="#b4b3b3" d="M 153.5,163.5 C 156.687,162.194 160.02,162.194 163.5,163.5C 164.309,165.071 164.643,166.738 164.5,168.5C 168.588,168.218 169.088,168.885 166,170.5C 164.503,169.523 163.003,168.523 161.5,167.5C 160.353,167.818 159.519,168.484 159,169.5C 158.506,167.866 158.34,166.199 158.5,164.5C 157.5,164.5 156.5,164.5 155.5,164.5C 155.66,166.199 155.494,167.866 155,169.5C 154.809,167.292 154.309,165.292 153.5,163.5 Z"/></g>
<g><path style="opacity:1" fill="#807f80" d="M 57.5,166.5 C 57.5,167.5 57.5,168.5 57.5,169.5C 59.1667,169.5 60.8333,169.5 62.5,169.5C 60.7354,170.461 58.7354,170.795 56.5,170.5C 56.2322,168.901 56.5655,167.568 57.5,166.5 Z"/></g>
<g><path style="opacity:1" fill="#858484" d="M 116.5,175.5 C 114.97,176.211 113.637,177.211 112.5,178.5C 112.5,177.167 111.833,176.5 110.5,176.5C 111.134,175.053 112.301,174.387 114,174.5C 115.07,174.528 115.903,174.861 116.5,175.5 Z"/></g>
<g><path style="opacity:1" fill="#3c3b3a" d="M 133.5,175.5 C 135.628,174.371 137.961,174.204 140.5,175C 139.333,175.5 138.5,176.333 138,177.5C 136.951,175.893 135.451,175.227 133.5,175.5 Z"/></g>
<g><path style="opacity:1" fill="#f8f8f8" d="M 116.5,175.5 C 116.747,178.505 115.747,181.005 113.5,183C 112.668,183.688 112.002,183.521 111.5,182.5C 112.246,181.264 112.579,179.93 112.5,178.5C 113.637,177.211 114.97,176.211 116.5,175.5 Z"/></g>
<g><path style="opacity:1" fill="#5d5c5c" d="M 78.5,175.5 C 78.2914,176.922 77.7914,178.255 77,179.5C 76.2274,177.648 76.7274,176.314 78.5,175.5 Z"/></g>
<g><path style="opacity:1" fill="#585858" d="M 71.5,175.5 C 72.2389,175.369 72.9056,175.536 73.5,176C 71.5758,178.99 70.2424,181.824 69.5,184.5C 69.1667,184 68.8333,183.5 68.5,183C 69.6513,180.535 70.6513,178.035 71.5,175.5 Z"/></g>
<g><path style="opacity:1" fill="#f3f3f3" d="M 110.5,176.5 C 111.833,176.5 112.5,177.167 112.5,178.5C 111.407,180.349 110.074,182.016 108.5,183.5C 109.455,181.254 110.122,178.921 110.5,176.5 Z"/></g>
<g><path style="opacity:1" fill="#909090" d="M 78.5,175.5 C 80.2884,174.378 82.2884,174.211 84.5,175C 85.0989,176.622 85.7656,178.122 86.5,179.5C 85.5868,181.086 85.5868,182.586 86.5,184C 85.0654,183.689 83.7321,183.855 82.5,184.5C 81.7746,181.309 81.7746,178.309 82.5,175.5C 81.091,178.652 79.4243,181.652 77.5,184.5C 77.1667,184.333 76.8333,184.167 76.5,184C 77.9606,181.579 79.2939,179.079 80.5,176.5C 80.0431,175.702 79.3764,175.369 78.5,175.5 Z"/></g>
<g><path style="opacity:1" fill="#7d7c7c" d="M 110.5,176.5 C 110.122,178.921 109.455,181.254 108.5,183.5C 107.903,183.265 107.57,182.765 107.5,182C 107.859,179.704 108.859,177.871 110.5,176.5 Z"/></g>
<g><path style="opacity:1" fill="#6e6d6e" d="M 86.5,179.5 C 88.8204,178.657 90.9871,178.657 93,179.5C 93.4922,180.549 93.3256,181.549 92.5,182.5C 94.2395,183.809 95.5729,183.476 96.5,181.5C 97.81,179.565 99.1433,177.565 100.5,175.5C 99.7635,178.769 99.7635,181.769 100.5,184.5C 99.7492,183.624 99.2492,182.624 99,181.5C 98.0795,183.314 96.5795,184.314 94.5,184.5C 92.5103,183.837 90.677,183.837 89,184.5C 87.4181,183.705 87.2515,182.538 88.5,181C 88.1639,179.97 87.4972,179.47 86.5,179.5 Z"/></g>
<g><path style="opacity:1" fill="#4d4c4c" d="M 139.5,178.5 C 140.043,178.56 140.376,178.893 140.5,179.5C 139.342,181.4 138.675,183.067 138.5,184.5C 137.531,182.383 137.864,180.383 139.5,178.5 Z"/></g>
<g><path style="opacity:1" fill="#4d4d4d" d="M 152.5,178.5 C 153.043,178.56 153.376,178.893 153.5,179.5C 152.342,181.4 151.675,183.067 151.5,184.5C 150.531,182.383 150.864,180.383 152.5,178.5 Z"/></g>
<g><path style="opacity:1" fill="#545454" d="M 96.5,181.5 C 94.3544,181.304 94.1878,180.304 96,178.5C 96.4828,179.448 96.6495,180.448 96.5,181.5 Z"/></g>
<g><path style="opacity:1" fill="#515050" d="M 123.5,184.5 C 122.595,183.298 122.595,181.964 123.5,180.5C 124.558,179.4 125.392,178.066 126,176.5C 126.654,175.304 127.154,175.304 127.5,176.5C 126.5,178.5 125.5,180.5 124.5,182.5C 125.981,183.944 125.648,184.611 123.5,184.5 Z"/></g>
<g><path style="opacity:1" fill="#777676" d="M 131.5,180.5 C 133.035,179.212 134.701,179.212 136.5,180.5C 135.279,184.339 134.612,184.339 134.5,180.5C 133.5,180.5 132.5,180.5 131.5,180.5 Z"/></g>
<g><path style="opacity:1" fill="#797979" d="M 147.5,175.5 C 148.186,176.848 149.186,178.015 150.5,179C 148.854,180.555 148.521,182.221 149.5,184C 148.065,183.689 146.732,183.855 145.5,184.5C 144.692,184.192 144.025,183.692 143.5,183C 144.746,180.407 146.079,177.907 147.5,175.5 Z"/></g>
<g><path style="opacity:1" fill="#636262" d="M 65.5,175.5 C 66.3636,176.688 67.3636,177.855 68.5,179C 61.516,180.533 61.1827,182.2 67.5,184C 65.8333,184.667 64.1667,184.667 62.5,184C 61.9781,183.439 61.6448,182.772 61.5,182C 63.2297,180.005 64.5631,177.838 65.5,175.5 Z"/></g>
<g><path style="opacity:1" fill="#abaaaa" d="M 123.5,180.5 C 122.595,181.964 122.595,183.298 123.5,184.5C 121.5,184.5 119.5,184.5 117.5,184.5C 117.5,183.167 117.5,181.833 117.5,180.5C 118.594,179.418 119.927,178.752 121.5,178.5C 122.713,178.747 123.38,179.414 123.5,180.5 Z"/></g>
<g><path style="opacity:1" fill="#504f50" d="M 155.5,179.5 C 156.386,178.224 157.386,178.224 158.5,179.5C 157.342,181.4 156.675,183.067 156.5,184.5C 156.057,182.713 155.724,181.046 155.5,179.5 Z"/></g>
<g><path style="opacity:1" fill="#4e4d4e" d="M 142.5,178.5 C 143.239,178.369 143.906,178.536 144.5,179C 143.283,180.648 142.45,182.481 142,184.5C 141.5,184 141,183.5 140.5,183C 141.582,181.67 142.249,180.17 142.5,178.5 Z"/></g>
<g><path style="opacity:1" fill="#646464" d="M 160.5,179.5 C 161.653,180.313 161.653,181.313 160.5,182.5C 161.603,182.998 162.603,183.331 163.5,183.5C 158.586,184.925 157.586,183.592 160.5,179.5 Z"/></g>
<g><path style="opacity:1" fill="#666665" d="M 116.5,175.5 C 117.451,176.919 117.784,178.585 117.5,180.5C 115.397,184.345 112.397,185.345 108.5,183.5C 110.074,182.016 111.407,180.349 112.5,178.5C 112.579,179.93 112.246,181.264 111.5,182.5C 112.002,183.521 112.668,183.688 113.5,183C 115.747,181.005 116.747,178.505 116.5,175.5 Z"/></g>
</svg>
