<?xml version="1.0" encoding="UTF-8"?>
<!DOCTYPE svg PUBLIC "-//W3C//DTD SVG 1.1//EN" "http://www.w3.org/Graphics/SVG/1.1/DTD/svg11.dtd">
<svg xmlns="http://www.w3.org/2000/svg" version="1.1" width="225px" height="225px" style="shape-rendering:geometricPrecision; text-rendering:geometricPrecision; image-rendering:optimizeQuality; fill-rule:evenodd; clip-rule:evenodd" xmlns:xlink="http://www.w3.org/1999/xlink">
<g><path style="opacity:1" fill="#fafbf9" d="M -0.5,-0.5 C 74.5,-0.5 149.5,-0.5 224.5,-0.5C 224.5,74.5 224.5,149.5 224.5,224.5C 149.5,224.5 74.5,224.5 -0.5,224.5C -0.5,149.5 -0.5,74.5 -0.5,-0.5 Z"/></g>
<g><path style="opacity:1" fill="#a0b7d0" d="M 130.5,31.5 C 133.5,31.5 136.5,31.5 139.5,31.5C 140.833,32.1667 142.167,32.8333 143.5,33.5C 138.972,33.2296 134.639,32.5629 130.5,31.5 Z"/></g>
<g><path style="opacity:1" fill="#dce7ef" d="M 139.5,31.5 C 143.182,31.3347 146.848,31.5014 150.5,32C 153.776,35.4716 157.776,37.6383 162.5,38.5C 162.863,39.1835 163.196,39.8501 163.5,40.5C 156.753,38.113 150.086,35.7797 143.5,33.5C 142.167,32.8333 140.833,32.1667 139.5,31.5 Z"/></g>
<g><path style="opacity:1" fill="#435a79" d="M 95.5,31.5 C 106.167,30.1667 116.833,30.1667 127.5,31.5C 126.5,31.5 125.5,31.5 124.5,31.5C 114.165,31.864 114.165,33.1973 124.5,35.5C 124.5,36.8333 124.5,38.1667 124.5,39.5C 131.567,39.0183 134.567,42.3517 133.5,49.5C 129.715,45.5917 125.715,41.9251 121.5,38.5C 116.181,35.2969 110.515,34.7969 104.5,37C 103.944,37.3826 103.611,37.8826 103.5,38.5C 100.569,40.0908 97.9024,42.0908 95.5,44.5C 96.164,41.9854 97.4974,39.8187 99.5,38C 103.325,35.6162 107.325,33.6162 111.5,32C 106.177,31.5006 100.844,31.334 95.5,31.5 Z"/></g>
<g><path style="opacity:1" fill="#7485a2" d="M 87.5,32.5 C 83.0971,34.4078 78.4305,35.7411 73.5,36.5C 77.7938,34.1837 82.4605,32.8504 87.5,32.5 Z"/></g>
<g><path style="opacity:1" fill="#b1c1ce" d="M 121.5,38.5 C 115.479,37.2743 109.479,37.2743 103.5,38.5C 103.611,37.8826 103.944,37.3826 104.5,37C 110.515,34.7969 116.181,35.2969 121.5,38.5 Z"/></g>
<g><path style="opacity:1" fill="#355378" d="M 124.5,31.5 C 125.5,31.5 126.5,31.5 127.5,31.5C 128.5,31.5 129.5,31.5 130.5,31.5C 134.639,32.5629 138.972,33.2296 143.5,33.5C 150.086,35.7797 156.753,38.113 163.5,40.5C 165.674,40.7497 167.341,41.7497 168.5,43.5C 165.564,42.5942 162.564,41.9275 159.5,41.5C 159.5,42.5 159.5,43.5 159.5,44.5C 161.716,44.2746 163.383,45.1079 164.5,47C 157.508,47.4996 150.508,47.6663 143.5,47.5C 143.728,49.3547 143.061,50.1881 141.5,50C 140.253,48.5421 140.253,47.0421 141.5,45.5C 145.467,44.5283 149.467,43.6949 153.5,43C 154.833,42.3333 154.833,41.6667 153.5,41C 149.959,39.0234 146.292,38.5234 142.5,39.5C 137.79,37.1647 133.123,34.8314 128.5,32.5C 127.5,33.1667 126.5,33.8333 125.5,34.5C 125.483,33.6063 125.149,32.6063 124.5,31.5 Z"/></g>
<g><path style="opacity:1" fill="#899bad" d="M 66.5,38.5 C 64.9674,40.2451 62.9674,41.2451 60.5,41.5C 62.0326,39.7549 64.0326,38.7549 66.5,38.5 Z"/></g>
<g><path style="opacity:1" fill="#2f507b" d="M 95.5,31.5 C 100.844,31.334 106.177,31.5006 111.5,32C 107.325,33.6162 103.325,35.6162 99.5,38C 97.4974,39.8187 96.164,41.9854 95.5,44.5C 91.7785,50.6936 88.4452,57.027 85.5,63.5C 83.7428,64.292 82.4095,65.6253 81.5,67.5C 75.3465,68.1668 69.3465,68.8334 63.5,69.5C 60.8333,69.8333 58.1667,70.1667 55.5,70.5C 52.5525,70.7771 49.7191,70.4438 47,69.5C 42.4899,70.8971 37.9899,72.0638 33.5,73C 35.3021,70.3621 37.3021,67.8621 39.5,65.5C 39.0814,64.3279 38.4147,63.3279 37.5,62.5C 38.1667,62.1667 38.8333,61.8333 39.5,61.5C 41.9724,62.9917 44.6391,63.6584 47.5,63.5C 47.6795,61.0459 47.0128,58.8792 45.5,57C 47.1109,54.7903 47.7776,52.2903 47.5,49.5C 51.3233,46.0843 55.6566,43.4176 60.5,41.5C 62.9674,41.2451 64.9674,40.2451 66.5,38.5C 68.8333,37.8333 71.1667,37.1667 73.5,36.5C 78.4305,35.7411 83.0971,34.4078 87.5,32.5C 89.9479,31.5269 92.6146,31.1936 95.5,31.5 Z"/></g>
<g><path style="opacity:1" fill="#f2f6f8" d="M 121.5,38.5 C 125.715,41.9251 129.715,45.5917 133.5,49.5C 133.5,49.8333 133.5,50.1667 133.5,50.5C 135.55,54.3088 137.216,58.3088 138.5,62.5C 137.675,63.3857 136.675,63.719 135.5,63.5C 133.272,55.6039 128.272,50.2706 120.5,47.5C 119.726,46.8529 118.726,46.5195 117.5,46.5C 115.645,46.3402 114.312,47.0069 113.5,48.5C 110.167,49.8333 107.833,52.1667 106.5,55.5C 103.546,61.1022 101.379,67.1022 100,73.5C 95.317,76.6966 90.817,80.03 86.5,83.5C 84.5772,79.9707 83.9106,75.9707 84.5,71.5C 84.5751,68.7938 84.9084,66.1272 85.5,63.5C 88.4452,57.027 91.7785,50.6936 95.5,44.5C 97.9024,42.0908 100.569,40.0908 103.5,38.5C 109.479,37.2743 115.479,37.2743 121.5,38.5 Z"/></g>
<g><path style="opacity:1" fill="#a4a8bc" d="M 120.5,47.5 C 118.097,47.448 115.764,47.7814 113.5,48.5C 114.312,47.0069 115.645,46.3402 117.5,46.5C 118.726,46.5195 119.726,46.8529 120.5,47.5 Z"/></g>
<g><path style="opacity:1" fill="#2f507d" d="M 124.5,31.5 C 125.149,32.6063 125.483,33.6063 125.5,34.5C 126.5,33.8333 127.5,33.1667 128.5,32.5C 133.123,34.8314 137.79,37.1647 142.5,39.5C 146.292,38.5234 149.959,39.0234 153.5,41C 154.833,41.6667 154.833,42.3333 153.5,43C 149.467,43.6949 145.467,44.5283 141.5,45.5C 140.253,47.0421 140.253,48.5421 141.5,50C 143.061,50.1881 143.728,49.3547 143.5,47.5C 150.508,47.6663 157.508,47.4996 164.5,47C 163.383,45.1079 161.716,44.2746 159.5,44.5C 159.5,43.5 159.5,42.5 159.5,41.5C 162.564,41.9275 165.564,42.5942 168.5,43.5C 175.082,46.2833 180.748,50.2833 185.5,55.5C 184.629,58.2716 184.629,60.9382 185.5,63.5C 186.5,63.5 187.5,63.5 188.5,63.5C 188.259,60.001 189.092,59.6677 191,62.5C 191.824,65.8823 191.657,69.2156 190.5,72.5C 188.684,73.7349 187.017,73.7349 185.5,72.5C 182.168,69.0596 178.168,68.0596 173.5,69.5C 170.456,68.8223 167.456,67.989 164.5,67C 168.152,66.5014 171.818,66.3347 175.5,66.5C 175.5,65.5 175.5,64.5 175.5,63.5C 168.996,63.4379 162.663,64.4379 156.5,66.5C 152.262,65.1189 147.929,64.1189 143.5,63.5C 141.102,60.3517 139.435,56.685 138.5,52.5C 136.678,52.1692 135.011,51.5025 133.5,50.5C 133.5,50.1667 133.5,49.8333 133.5,49.5C 134.567,42.3517 131.567,39.0183 124.5,39.5C 124.5,38.1667 124.5,36.8333 124.5,35.5C 114.165,33.1973 114.165,31.864 124.5,31.5 Z"/></g>
<g><path style="opacity:1" fill="#30527a" d="M 120.5,47.5 C 128.272,50.2706 133.272,55.6039 135.5,63.5C 136.675,63.719 137.675,63.3857 138.5,62.5C 137.216,58.3088 135.55,54.3088 133.5,50.5C 135.011,51.5025 136.678,52.1692 138.5,52.5C 139.435,56.685 141.102,60.3517 143.5,63.5C 147.929,64.1189 152.262,65.1189 156.5,66.5C 162.663,64.4379 168.996,63.4379 175.5,63.5C 175.5,64.5 175.5,65.5 175.5,66.5C 171.818,66.3347 168.152,66.5014 164.5,67C 167.456,67.989 170.456,68.8223 173.5,69.5C 178.168,68.0596 182.168,69.0596 185.5,72.5C 179.614,71.0314 173.614,70.3647 167.5,70.5C 159.174,69.7509 150.84,69.0842 142.5,68.5C 137.695,67.5128 132.695,67.1795 127.5,67.5C 123.688,66.6762 119.688,66.1762 115.5,66C 114.692,64.2942 113.359,63.4609 111.5,63.5C 111.626,65.1998 112.293,66.6998 113.5,68C 112.705,69.5819 111.538,69.7485 110,68.5C 108.005,70.2297 105.838,71.5631 103.5,72.5C 105.15,67.036 106.15,61.3693 106.5,55.5C 107.833,52.1667 110.167,49.8333 113.5,48.5C 115.764,47.7814 118.097,47.448 120.5,47.5 Z"/></g>
<g><path style="opacity:1" fill="#8ea0b2" d="M 127.5,67.5 C 132.695,67.1795 137.695,67.5128 142.5,68.5C 136.5,68.5 130.5,68.5 124.5,68.5C 122.143,68.3367 119.81,68.5034 117.5,69C 118.381,69.7083 119.047,70.5416 119.5,71.5C 117.616,71.2882 116.283,70.2882 115.5,68.5C 119.445,67.5091 123.445,67.1758 127.5,67.5 Z"/></g>
<g><path style="opacity:1" fill="#7b8e9f" d="M 192.5,63.5 C 194.199,65.5664 195.532,67.8997 196.5,70.5C 194.058,68.8791 192.725,66.5458 192.5,63.5 Z"/></g>
<g><path style="opacity:1" fill="#a5b7c6" d="M 63.5,69.5 C 68.5,69.5 73.5,69.5 78.5,69.5C 78.5,70.8333 78.5,72.1667 78.5,73.5C 77.1667,73.5 75.8333,73.5 74.5,73.5C 75.3984,72.8423 76.3984,72.1757 77.5,71.5C 62.5676,70.4889 48.2343,72.8223 34.5,78.5C 36.2094,76.187 38.5428,74.687 41.5,74C 46.2782,72.7506 50.9449,71.5839 55.5,70.5C 58.1667,70.1667 60.8333,69.8333 63.5,69.5 Z"/></g>
<g><path style="opacity:1" fill="#d8e1eb" d="M 124.5,68.5 C 130.5,68.5 136.5,68.5 142.5,68.5C 150.84,69.0842 159.174,69.7509 167.5,70.5C 168.5,71.1667 169.5,71.8333 170.5,72.5C 165.934,72.0251 161.434,72.0251 157,72.5C 146.066,70.7727 135.233,69.4394 124.5,68.5 Z"/></g>
<g><path style="opacity:1" fill="#889aa8" d="M 28.5,73.5 C 27.6932,79.4638 27.3599,85.4638 27.5,91.5C 26.8362,89.1903 26.5029,86.6903 26.5,84C 26.3037,80.1952 26.9704,76.6952 28.5,73.5 Z"/></g>
<g><path style="opacity:1" fill="#345477" d="M 63.5,75.5 C 60.4721,75.7903 58.4721,77.457 57.5,80.5C 58.5791,82.8764 59.9125,83.043 61.5,81C 60.6598,79.3335 61.1598,79.1669 63,80.5C 63.3742,79.5838 63.8742,78.7504 64.5,78C 69.4889,77.5007 74.4889,77.3341 79.5,77.5C 79.5,78.8333 79.5,80.1667 79.5,81.5C 74.1779,81.9801 68.8446,82.3135 63.5,82.5C 63.5,84.1667 63.5,85.8333 63.5,87.5C 62.609,86.8902 61.609,86.5569 60.5,86.5C 58.6284,85.4886 56.6284,84.6552 54.5,84C 51.9199,81.8797 51.9199,79.713 54.5,77.5C 57.333,76.0668 60.333,75.4001 63.5,75.5 Z"/></g>
<g><path style="opacity:1" fill="#f2f6f7" d="M 124.5,68.5 C 135.233,69.4394 146.066,70.7727 157,72.5C 161.434,72.0251 165.934,72.0251 170.5,72.5C 179.267,73.3853 186.933,76.7186 193.5,82.5C 195.299,86.5253 194.299,89.692 190.5,92C 180.664,96.5424 170.331,98.7091 159.5,98.5C 155.818,98.6653 152.152,98.4986 148.5,98C 153.581,96.9649 158.581,95.7983 163.5,94.5C 167.206,93.4775 170.54,91.6442 173.5,89C 172.338,86.7424 170.671,84.909 168.5,83.5C 163.994,81.8023 159.327,80.6357 154.5,80C 146.5,79.6667 138.5,79.3333 130.5,79C 126.42,76.9715 122.754,74.4715 119.5,71.5C 119.047,70.5416 118.381,69.7083 117.5,69C 119.81,68.5034 122.143,68.3367 124.5,68.5 Z"/></g>
<g><path style="opacity:1" fill="#2f4f7d" d="M 68.5,74.5 C 72.5546,74.1758 76.5546,74.5091 80.5,75.5C 83.3993,79.6857 83.0659,83.5191 79.5,87C 75.5138,87.4988 71.5138,87.6655 67.5,87.5C 66.1667,87.5 64.8333,87.5 63.5,87.5C 63.5,85.8333 63.5,84.1667 63.5,82.5C 68.8446,82.3135 74.1779,81.9801 79.5,81.5C 79.5,80.1667 79.5,78.8333 79.5,77.5C 74.4889,77.3341 69.4889,77.5007 64.5,78C 63.8742,78.7504 63.3742,79.5838 63,80.5C 61.1598,79.1669 60.6598,79.3335 61.5,81C 59.9125,83.043 58.5791,82.8764 57.5,80.5C 58.4721,77.457 60.4721,75.7903 63.5,75.5C 64.9187,74.5489 66.5853,74.2155 68.5,74.5 Z"/></g>
<g><path style="opacity:1" fill="#415a7a" d="M 106.5,55.5 C 106.15,61.3693 105.15,67.036 103.5,72.5C 105.838,71.5631 108.005,70.2297 110,68.5C 111.538,69.7485 112.705,69.5819 113.5,68C 112.293,66.6998 111.626,65.1998 111.5,63.5C 113.359,63.4609 114.692,64.2942 115.5,66C 119.688,66.1762 123.688,66.6762 127.5,67.5C 123.445,67.1758 119.445,67.5091 115.5,68.5C 116.283,70.2882 117.616,71.2882 119.5,71.5C 122.754,74.4715 126.42,76.9715 130.5,79C 138.5,79.3333 146.5,79.6667 154.5,80C 159.327,80.6357 163.994,81.8023 168.5,83.5C 170.671,84.909 172.338,86.7424 173.5,89C 170.54,91.6442 167.206,93.4775 163.5,94.5C 159.785,94.423 156.119,94.7564 152.5,95.5C 152.577,94.2502 153.244,93.4169 154.5,93C 159.09,91.5392 163.756,90.3726 168.5,89.5C 169.583,88.635 169.749,87.635 169,86.5C 161.546,83.886 153.88,81.886 146,80.5C 144.167,80.8333 142.333,81.1667 140.5,81.5C 142.03,83.2262 143.03,85.2262 143.5,87.5C 141.946,93.3423 140.779,99.3423 140,105.5C 139.667,105.167 139.333,104.833 139,104.5C 138.051,106.093 136.885,107.426 135.5,108.5C 136.971,104.282 137.971,99.9487 138.5,95.5C 139.806,92.3132 139.806,88.9798 138.5,85.5C 131.908,88.0974 126.574,92.0974 122.5,97.5C 122.5,96.1667 122.5,94.8333 122.5,93.5C 121.5,93.5 120.5,93.5 119.5,93.5C 119.5,93.1667 119.5,92.8333 119.5,92.5C 122.846,89.9964 126.346,87.6631 130,85.5C 130.585,84.0024 130.085,83.0024 128.5,82.5C 123.541,78.3486 118.208,74.682 112.5,71.5C 106.457,75.6102 100.291,79.6102 94,83.5C 93.3828,84.4491 93.5494,85.2825 94.5,86C 100.137,88.82 105.47,92.1533 110.5,96C 113.095,96.6004 115.429,96.1004 117.5,94.5C 116.32,96.913 114.32,97.913 111.5,97.5C 111.421,98.9305 111.754,100.264 112.5,101.5C 105.344,102.819 98.344,102.819 91.5,101.5C 97.5368,101.829 103.537,101.496 109.5,100.5C 109.043,99.7025 108.376,99.3691 107.5,99.5C 103.264,95.2717 98.264,92.2717 92.5,90.5C 84.1616,89.5508 75.8282,88.5508 67.5,87.5C 71.5138,87.6655 75.5138,87.4988 79.5,87C 83.0659,83.5191 83.3993,79.6857 80.5,75.5C 76.5546,74.5091 72.5546,74.1758 68.5,74.5C 70.2646,73.5386 72.2646,73.2053 74.5,73.5C 75.8333,73.5 77.1667,73.5 78.5,73.5C 78.5,72.1667 78.5,70.8333 78.5,69.5C 73.5,69.5 68.5,69.5 63.5,69.5C 69.3465,68.8334 75.3465,68.1668 81.5,67.5C 82.4095,65.6253 83.7428,64.292 85.5,63.5C 84.9084,66.1272 84.5751,68.7938 84.5,71.5C 83.5151,75.6344 83.1818,79.9677 83.5,84.5C 84.791,84.7373 85.791,84.404 86.5,83.5C 90.817,80.03 95.317,76.6966 100,73.5C 101.379,67.1022 103.546,61.1022 106.5,55.5 Z"/></g>
<g><path style="opacity:1" fill="#f7faf4" d="M 128.5,82.5 C 130.085,83.0024 130.585,84.0024 130,85.5C 126.346,87.6631 122.846,89.9964 119.5,92.5C 116.843,92.7474 114.51,93.7474 112.5,95.5C 111.614,94.675 111.281,93.675 111.5,92.5C 108.167,91.1667 104.833,89.8333 101.5,88.5C 100.773,84.7474 102.107,82.0807 105.5,80.5C 109.752,79.8167 113.918,78.8167 118,77.5C 118.833,77.8333 119.667,78.1667 120.5,78.5C 118.771,79.5968 117.104,80.7635 115.5,82C 112.591,81.7161 109.758,81.8828 107,82.5C 107.875,88.6648 111.042,89.9982 116.5,86.5C 117.429,85.3112 117.762,83.9778 117.5,82.5C 121.167,82.5 124.833,82.5 128.5,82.5 Z"/></g>
<g><path style="opacity:1" fill="#8b9eb5" d="M 84.5,71.5 C 83.9106,75.9707 84.5772,79.9707 86.5,83.5C 85.791,84.404 84.791,84.7373 83.5,84.5C 83.1818,79.9677 83.5151,75.6344 84.5,71.5 Z"/></g>
<g><path style="opacity:1" fill="#eef4f7" d="M 128.5,82.5 C 124.833,82.5 121.167,82.5 117.5,82.5C 117.762,83.9778 117.429,85.3112 116.5,86.5C 111.042,89.9982 107.875,88.6648 107,82.5C 109.758,81.8828 112.591,81.7161 115.5,82C 117.104,80.7635 118.771,79.5968 120.5,78.5C 119.667,78.1667 118.833,77.8333 118,77.5C 113.918,78.8167 109.752,79.8167 105.5,80.5C 102.107,82.0807 100.773,84.7474 101.5,88.5C 104.833,89.8333 108.167,91.1667 111.5,92.5C 111.281,93.675 111.614,94.675 112.5,95.5C 114.51,93.7474 116.843,92.7474 119.5,92.5C 119.5,92.8333 119.5,93.1667 119.5,93.5C 118.833,93.8333 118.167,94.1667 117.5,94.5C 115.429,96.1004 113.095,96.6004 110.5,96C 105.47,92.1533 100.137,88.82 94.5,86C 93.5494,85.2825 93.3828,84.4491 94,83.5C 100.291,79.6102 106.457,75.6102 112.5,71.5C 118.208,74.682 123.541,78.3486 128.5,82.5 Z"/></g>
<g><path style="opacity:1" fill="#8797b5" d="M 196.5,72.5 C 198.914,76.0214 199.914,80.0214 199.5,84.5C 199.868,89.2781 198.868,93.6114 196.5,97.5C 197.324,93.2007 197.991,88.8673 198.5,84.5C 198.038,80.4541 197.372,76.4541 196.5,72.5 Z"/></g>
<g><path style="opacity:1" fill="#697b91" d="M 60.5,86.5 C 61.609,86.5569 62.609,86.8902 63.5,87.5C 64.8333,87.5 66.1667,87.5 67.5,87.5C 75.8282,88.5508 84.1616,89.5508 92.5,90.5C 82.0436,91.0105 71.7103,90.1772 61.5,88C 60.944,87.6174 60.6107,87.1174 60.5,86.5 Z"/></g>
<g><path style="opacity:1" fill="#e3eef5" d="M 138.5,95.5 C 138.773,93.0418 137.773,91.3751 135.5,90.5C 132.952,92.9416 129.952,94.6083 126.5,95.5C 125.068,99.0133 124.235,102.68 124,106.5C 122.989,107.337 121.822,107.67 120.5,107.5C 120.843,109.483 120.176,110.817 118.5,111.5C 119.11,110.609 119.443,109.609 119.5,108.5C 120.653,104.889 121.653,101.223 122.5,97.5C 126.574,92.0974 131.908,88.0974 138.5,85.5C 139.806,88.9798 139.806,92.3132 138.5,95.5 Z"/></g>
<g><path style="opacity:1" fill="#345278" d="M 47.5,49.5 C 47.7776,52.2903 47.1109,54.7903 45.5,57C 47.0128,58.8792 47.6795,61.0459 47.5,63.5C 44.6391,63.6584 41.9724,62.9917 39.5,61.5C 38.8333,61.8333 38.1667,62.1667 37.5,62.5C 38.4147,63.3279 39.0814,64.3279 39.5,65.5C 37.3021,67.8621 35.3021,70.3621 33.5,73C 37.9899,72.0638 42.4899,70.8971 47,69.5C 49.7191,70.4438 52.5525,70.7771 55.5,70.5C 50.9449,71.5839 46.2782,72.7506 41.5,74C 38.5428,74.687 36.2094,76.187 34.5,78.5C 33.5041,78.4142 32.6708,78.7476 32,79.5C 30.6119,85.1438 32.4452,89.3104 37.5,92C 40.5612,94.0347 43.8945,95.2014 47.5,95.5C 49.5145,96.9238 51.8478,97.5905 54.5,97.5C 54.8333,97.5 55.1667,97.5 55.5,97.5C 59.1424,98.6066 62.8091,99.6066 66.5,100.5C 59.2185,101.322 52.0519,100.655 45,98.5C 43.4157,99.8613 41.5824,100.528 39.5,100.5C 38.4208,104.199 38.4208,107.865 39.5,111.5C 37.8333,110.167 36.1667,108.833 34.5,107.5C 31.7731,102.312 29.4398,96.9791 27.5,91.5C 27.3599,85.4638 27.6932,79.4638 28.5,73.5C 31.8552,63.1445 38.1885,55.1445 47.5,49.5 Z"/></g>
<g><path style="opacity:1" fill="#395579" d="M 185.5,55.5 C 188.573,57.5691 190.906,60.2358 192.5,63.5C 192.725,66.5458 194.058,68.8791 196.5,70.5C 196.5,71.1667 196.5,71.8333 196.5,72.5C 197.372,76.4541 198.038,80.4541 198.5,84.5C 197.991,88.8673 197.324,93.2007 196.5,97.5C 194.149,102.869 190.816,107.535 186.5,111.5C 185.785,108.24 185.785,104.907 186.5,101.5C 179.312,101.082 172.145,100.415 165,99.5C 160.477,100.396 155.977,101.396 151.5,102.5C 146.311,102.975 143.644,100.641 143.5,95.5C 144.833,95.5 146.167,95.5 147.5,95.5C 147.5,96.8333 147.5,98.1667 147.5,99.5C 151.702,99.8168 155.702,99.4834 159.5,98.5C 170.331,98.7091 180.664,96.5424 190.5,92C 194.299,89.692 195.299,86.5253 193.5,82.5C 186.933,76.7186 179.267,73.3853 170.5,72.5C 169.5,71.8333 168.5,71.1667 167.5,70.5C 173.614,70.3647 179.614,71.0314 185.5,72.5C 187.017,73.7349 188.684,73.7349 190.5,72.5C 191.657,69.2156 191.824,65.8823 191,62.5C 189.092,59.6677 188.259,60.001 188.5,63.5C 187.5,63.5 186.5,63.5 185.5,63.5C 184.629,60.9382 184.629,58.2716 185.5,55.5 Z"/></g>
<g><path style="opacity:1" fill="#99adc3" d="M 47.5,95.5 C 50.1522,95.4095 52.4855,96.0762 54.5,97.5C 51.8478,97.5905 49.5145,96.9238 47.5,95.5 Z"/></g>
<g><path style="opacity:1" fill="#f4f9f9" d="M 74.5,73.5 C 72.2646,73.2053 70.2646,73.5386 68.5,74.5C 66.5853,74.2155 64.9187,74.5489 63.5,75.5C 60.333,75.4001 57.333,76.0668 54.5,77.5C 51.9199,79.713 51.9199,81.8797 54.5,84C 56.6284,84.6552 58.6284,85.4886 60.5,86.5C 60.6107,87.1174 60.944,87.6174 61.5,88C 71.7103,90.1772 82.0436,91.0105 92.5,90.5C 98.264,92.2717 103.264,95.2717 107.5,99.5C 104.351,100.165 101.018,100.498 97.5,100.5C 83.4876,99.61 69.4876,98.61 55.5,97.5C 55.1667,97.5 54.8333,97.5 54.5,97.5C 52.4855,96.0762 50.1522,95.4095 47.5,95.5C 43.8945,95.2014 40.5612,94.0347 37.5,92C 32.4452,89.3104 30.6119,85.1438 32,79.5C 32.6708,78.7476 33.5041,78.4142 34.5,78.5C 48.2343,72.8223 62.5676,70.4889 77.5,71.5C 76.3984,72.1757 75.3984,72.8423 74.5,73.5 Z"/></g>
<g><path style="opacity:1" fill="#bdcadd" d="M 55.5,97.5 C 69.4876,98.61 83.4876,99.61 97.5,100.5C 101.018,100.498 104.351,100.165 107.5,99.5C 108.376,99.3691 109.043,99.7025 109.5,100.5C 103.537,101.496 97.5368,101.829 91.5,101.5C 85.8044,101.553 80.1377,101.22 74.5,100.5C 71.8333,100.5 69.1667,100.5 66.5,100.5C 62.8091,99.6066 59.1424,98.6066 55.5,97.5 Z"/></g>
<g><path style="opacity:1" fill="#b3c7d7" d="M 163.5,94.5 C 158.581,95.7983 153.581,96.9649 148.5,98C 152.152,98.4986 155.818,98.6653 159.5,98.5C 155.702,99.4834 151.702,99.8168 147.5,99.5C 147.5,98.1667 147.5,96.8333 147.5,95.5C 149.167,95.5 150.833,95.5 152.5,95.5C 156.119,94.7564 159.785,94.423 163.5,94.5 Z"/></g>
<g><path style="opacity:1" fill="#2e507c" d="M 152.5,95.5 C 150.833,95.5 149.167,95.5 147.5,95.5C 146.167,95.5 144.833,95.5 143.5,95.5C 143.644,100.641 146.311,102.975 151.5,102.5C 155.977,101.396 160.477,100.396 165,99.5C 172.145,100.415 179.312,101.082 186.5,101.5C 185.785,104.907 185.785,108.24 186.5,111.5C 184.372,114.13 182.039,116.63 179.5,119C 171.17,124.33 162.504,128.83 153.5,132.5C 151.708,132.366 150.042,132.699 148.5,133.5C 141.476,133.435 134.476,133.768 127.5,134.5C 127.5,132.5 127.5,130.5 127.5,128.5C 130.187,128.664 132.854,128.497 135.5,128C 133.744,127.798 132.078,127.298 130.5,126.5C 131.92,124.291 133.587,122.291 135.5,120.5C 134.846,118.885 134.346,117.218 134,115.5C 133.617,116.056 133.117,116.389 132.5,116.5C 134.043,114.072 135.043,111.406 135.5,108.5C 136.885,107.426 138.051,106.093 139,104.5C 139.333,104.833 139.667,105.167 140,105.5C 140.779,99.3423 141.946,93.3423 143.5,87.5C 143.03,85.2262 142.03,83.2262 140.5,81.5C 142.333,81.1667 144.167,80.8333 146,80.5C 153.88,81.886 161.546,83.886 169,86.5C 169.749,87.635 169.583,88.635 168.5,89.5C 163.756,90.3726 159.09,91.5392 154.5,93C 153.244,93.4169 152.577,94.2502 152.5,95.5 Z"/></g>
<g><path style="opacity:1" fill="#2e507c" d="M 66.5,100.5 C 69.1667,100.5 71.8333,100.5 74.5,100.5C 75.9526,101.825 75.6192,102.658 73.5,103C 70.2744,104.199 66.941,104.699 63.5,104.5C 63.1052,107.523 64.1052,108.523 66.5,107.5C 69.0567,108.407 71.5567,109.407 74,110.5C 75.5843,109.139 77.4176,108.472 79.5,108.5C 78.8133,114.872 79.8133,120.872 82.5,126.5C 80.748,128.002 78.748,129.002 76.5,129.5C 72.3985,127.819 68.0652,127.152 63.5,127.5C 62.6352,122.933 62.6352,118.267 63.5,113.5C 58.3902,111.82 53.0569,111.153 47.5,111.5C 47.5,112.5 47.5,113.5 47.5,114.5C 51.8191,113.799 55.4858,114.966 58.5,118C 54.8484,118.499 51.1817,118.665 47.5,118.5C 47.719,117.325 47.3857,116.325 46.5,115.5C 44.3896,113.711 42.0563,112.378 39.5,111.5C 38.4208,107.865 38.4208,104.199 39.5,100.5C 41.5824,100.528 43.4157,99.8613 45,98.5C 52.0519,100.655 59.2185,101.322 66.5,100.5 Z"/></g>
<g><path style="opacity:1" fill="#a6b6c9" d="M 34.5,107.5 C 36.1667,108.833 37.8333,110.167 39.5,111.5C 40.8333,113.167 42.1667,114.833 43.5,116.5C 39.5,114.5 36.5,111.5 34.5,107.5 Z"/></g>
<g><path style="opacity:1" fill="#8ea2b2" d="M 119.5,108.5 C 119.443,109.609 119.11,110.609 118.5,111.5C 118.573,113.027 117.906,114.027 116.5,114.5C 116.755,112.033 117.755,110.033 119.5,108.5 Z"/></g>
<g><path style="opacity:1" fill="#f3f7f8" d="M 138.5,95.5 C 137.971,99.9487 136.971,104.282 135.5,108.5C 135.043,111.406 134.043,114.072 132.5,116.5C 129.546,120.871 126.213,125.037 122.5,129C 119.928,131.287 116.928,132.453 113.5,132.5C 109.833,131.833 106.167,131.167 102.5,130.5C 98.5,128.5 95.5,125.5 93.5,121.5C 93.4326,120.041 93.7659,118.708 94.5,117.5C 103.014,123.633 110.348,122.633 116.5,114.5C 117.906,114.027 118.573,113.027 118.5,111.5C 120.176,110.817 120.843,109.483 120.5,107.5C 121.822,107.67 122.989,107.337 124,106.5C 124.235,102.68 125.068,99.0133 126.5,95.5C 129.952,94.6083 132.952,92.9416 135.5,90.5C 137.773,91.3751 138.773,93.0418 138.5,95.5 Z"/></g>
<g><path style="opacity:1" fill="#345278" d="M 119.5,93.5 C 120.5,93.5 121.5,93.5 122.5,93.5C 122.5,94.8333 122.5,96.1667 122.5,97.5C 121.653,101.223 120.653,104.889 119.5,108.5C 117.755,110.033 116.755,112.033 116.5,114.5C 110.348,122.633 103.014,123.633 94.5,117.5C 92.4251,114.354 90.5918,111.021 89,107.5C 87.5295,105.128 86.3628,105.128 85.5,107.5C 87.1664,112.844 89.8331,117.511 93.5,121.5C 95.5,125.5 98.5,128.5 102.5,130.5C 105.878,133.229 109.545,133.895 113.5,132.5C 116.928,132.453 119.928,131.287 122.5,129C 126.213,125.037 129.546,120.871 132.5,116.5C 133.117,116.389 133.617,116.056 134,115.5C 134.346,117.218 134.846,118.885 135.5,120.5C 133.587,122.291 131.92,124.291 130.5,126.5C 132.078,127.298 133.744,127.798 135.5,128C 132.854,128.497 130.187,128.664 127.5,128.5C 127.5,130.5 127.5,132.5 127.5,134.5C 134.476,133.768 141.476,133.435 148.5,133.5C 127.085,139.214 105.419,139.881 83.5,135.5C 68.5259,132.344 55.1926,126.01 43.5,116.5C 42.1667,114.833 40.8333,113.167 39.5,111.5C 42.0563,112.378 44.3896,113.711 46.5,115.5C 47.3857,116.325 47.719,117.325 47.5,118.5C 51.1817,118.665 54.8484,118.499 58.5,118C 55.4858,114.966 51.8191,113.799 47.5,114.5C 47.5,113.5 47.5,112.5 47.5,111.5C 53.0569,111.153 58.3902,111.82 63.5,113.5C 62.6352,118.267 62.6352,122.933 63.5,127.5C 68.0652,127.152 72.3985,127.819 76.5,129.5C 78.748,129.002 80.748,128.002 82.5,126.5C 79.8133,120.872 78.8133,114.872 79.5,108.5C 77.4176,108.472 75.5843,109.139 74,110.5C 71.5567,109.407 69.0567,108.407 66.5,107.5C 64.1052,108.523 63.1052,107.523 63.5,104.5C 66.941,104.699 70.2744,104.199 73.5,103C 75.6192,102.658 75.9526,101.825 74.5,100.5C 80.1377,101.22 85.8044,101.553 91.5,101.5C 98.344,102.819 105.344,102.819 112.5,101.5C 111.754,100.264 111.421,98.9305 111.5,97.5C 114.32,97.913 116.32,96.913 117.5,94.5C 118.167,94.1667 118.833,93.8333 119.5,93.5 Z"/></g>
<g><path style="opacity:1" fill="#dce7f1" d="M 94.5,117.5 C 93.7659,118.708 93.4326,120.041 93.5,121.5C 89.8331,117.511 87.1664,112.844 85.5,107.5C 86.3628,105.128 87.5295,105.128 89,107.5C 90.5918,111.021 92.4251,114.354 94.5,117.5 Z"/></g>
<g><path style="opacity:1" fill="#abbad5" d="M 102.5,130.5 C 106.167,131.167 109.833,131.833 113.5,132.5C 109.545,133.895 105.878,133.229 102.5,130.5 Z"/></g>
<g><path style="opacity:1" fill="#f0f1f0" d="M 153.5,132.5 C 152.737,133.268 151.737,133.768 150.5,134C 153.478,134.696 156.478,135.196 159.5,135.5C 159.5,137.167 159.5,138.833 159.5,140.5C 154.362,139.97 151.695,142.303 151.5,147.5C 153.415,147.216 155.081,147.549 156.5,148.5C 153.5,148.5 150.5,148.5 147.5,148.5C 147.5,156.167 147.5,163.833 147.5,171.5C 150.167,171.5 152.833,171.5 155.5,171.5C 155.881,167.881 156.881,164.548 158.5,161.5C 162.625,164.453 166.625,167.619 170.5,171C 173.817,171.498 177.15,171.665 180.5,171.5C 180.5,163.833 180.5,156.167 180.5,148.5C 178.735,147.539 176.735,147.205 174.5,147.5C 176.628,146.371 178.961,146.204 181.5,147C 182.167,148.333 182.833,149.667 183.5,151C 182.359,156.75 182.193,162.584 183,168.5C 184.617,169.536 184.784,170.703 183.5,172C 184.308,172.308 184.975,172.808 185.5,173.5C 182.335,173.551 179.002,173.718 175.5,174C 176.056,174.383 176.389,174.883 176.5,175.5C 160.167,175.5 143.833,175.5 127.5,175.5C 127.5,176.833 127.5,178.167 127.5,179.5C 124.833,179.5 122.167,179.5 119.5,179.5C 119.5,178.167 119.5,176.833 119.5,175.5C 108.833,175.5 98.1667,175.5 87.5,175.5C 86.6586,173.621 86.3253,171.621 86.5,169.5C 89.205,171.581 92.205,171.915 95.5,170.5C 90.0953,164.435 85.0953,158.102 80.5,151.5C 81.7666,152.087 82.7666,152.087 83.5,151.5C 81.5065,149.184 80.5065,146.518 80.5,143.5C 83.5184,143.665 86.5184,143.498 89.5,143C 88.3044,142.346 88.3044,141.846 89.5,141.5C 93.0896,143.987 96.7563,144.154 100.5,142C 96.0671,140.955 91.9004,139.455 88,137.5C 85.7545,138.795 84.2545,138.128 83.5,135.5C 105.419,139.881 127.085,139.214 148.5,133.5C 150.042,132.699 151.708,132.366 153.5,132.5 Z"/></g>
<g><path style="opacity:1" fill="#cbcbcb" d="M 217.5,169.5 C 218.919,165.985 219.586,162.319 219.5,158.5C 215.03,157.514 210.363,157.181 205.5,157.5C 209.647,156.675 213.981,156.175 218.5,156C 218.957,155.586 219.291,155.086 219.5,154.5C 213.872,153.505 208.206,153.171 202.5,153.5C 202.5,153.167 202.5,152.833 202.5,152.5C 208.167,152.5 213.833,152.5 219.5,152.5C 219.5,151.167 219.5,149.833 219.5,148.5C 210.833,148.5 202.167,148.5 193.5,148.5C 202.661,146.85 211.994,146.517 221.5,147.5C 220.708,153.449 220.208,159.449 220,165.5C 219.878,167.437 219.045,168.77 217.5,169.5 Z"/></g>
<g><path style="opacity:1" fill="#484848" d="M 193.5,148.5 C 202.167,148.5 210.833,148.5 219.5,148.5C 219.5,149.833 219.5,151.167 219.5,152.5C 213.833,152.5 208.167,152.5 202.5,152.5C 201.833,152.5 201.167,152.5 200.5,152.5C 206.346,151.833 212.346,151.167 218.5,150.5C 209.853,149.335 201.186,149.168 192.5,150C 191.099,150.41 189.766,150.91 188.5,151.5C 189.3,149.259 190.966,148.259 193.5,148.5 Z"/></g>
<g><path style="opacity:1" fill="#111111" d="M 26.5,148.5 C 29.8333,148.5 33.1667,148.5 36.5,148.5C 36.5,154.167 36.5,159.833 36.5,165.5C 35.5116,166.795 34.5116,168.128 33.5,169.5C 24.6394,171.344 15.6394,172.01 6.5,171.5C 6.5,170.167 6.5,168.833 6.5,167.5C 23.0476,171.283 29.7143,164.95 26.5,148.5 Z"/></g>
<g><path style="opacity:1" fill="#7b7b7b" d="M 26.5,148.5 C 29.9619,147.518 33.6286,147.185 37.5,147.5C 37.8229,153.69 37.4896,159.69 36.5,165.5C 36.5,159.833 36.5,154.167 36.5,148.5C 33.1667,148.5 29.8333,148.5 26.5,148.5 Z"/></g>
<g><path style="opacity:1" fill="#0c0c0c" d="M 45.5,148.5 C 48.1667,148.5 50.8333,148.5 53.5,148.5C 53.5,156.167 53.5,163.833 53.5,171.5C 50.8333,171.5 48.1667,171.5 45.5,171.5C 45.5,163.833 45.5,156.167 45.5,148.5 Z"/></g>
<g><path style="opacity:1" fill="#161616" d="M 80.5,151.5 C 85.0953,158.102 90.0953,164.435 95.5,170.5C 92.205,171.915 89.205,171.581 86.5,169.5C 80.4908,169.334 74.4908,169.501 68.5,170C 67.944,170.383 67.6107,170.883 67.5,171.5C 64.2869,171.81 61.2869,171.477 58.5,170.5C 59.1667,169.167 60.1667,168.167 61.5,167.5C 63.914,166.089 65.5806,164.089 66.5,161.5C 67.7997,158.568 69.7997,156.234 72.5,154.5C 73.9063,154.027 74.573,153.027 74.5,151.5C 76.3591,148.981 78.3591,148.981 80.5,151.5 Z"/></g>
<g><path style="opacity:1" fill="#101010" d="M 96.5,148.5 C 99.8333,148.5 103.167,148.5 106.5,148.5C 106.179,153.695 106.513,158.695 107.5,163.5C 108.249,164.531 108.915,165.698 109.5,167C 115.348,167.173 121.015,167.673 126.5,168.5C 126.5,169.5 126.5,170.5 126.5,171.5C 119.5,171.5 112.5,171.5 105.5,171.5C 103.898,169.926 101.898,169.259 99.5,169.5C 98.4955,168.317 97.6622,166.984 97,165.5C 96.5006,159.843 96.3339,154.176 96.5,148.5 Z"/></g>
<g><path style="opacity:1" fill="#080808" d="M 132.5,148.5 C 135.167,148.5 137.833,148.5 140.5,148.5C 140.5,156.167 140.5,163.833 140.5,171.5C 137.833,171.5 135.167,171.5 132.5,171.5C 132.5,163.833 132.5,156.167 132.5,148.5 Z"/></g>
<g><path style="opacity:1" fill="#0f0f0f" d="M 156.5,148.5 C 160.859,152.528 165.193,156.528 169.5,160.5C 169.811,161.478 170.478,162.145 171.5,162.5C 172.493,157.88 172.827,153.214 172.5,148.5C 175.167,148.5 177.833,148.5 180.5,148.5C 180.5,156.167 180.5,163.833 180.5,171.5C 177.15,171.665 173.817,171.498 170.5,171C 166.625,167.619 162.625,164.453 158.5,161.5C 158.189,160.522 157.522,159.855 156.5,159.5C 155.509,163.445 155.176,167.445 155.5,171.5C 152.833,171.5 150.167,171.5 147.5,171.5C 147.5,163.833 147.5,156.167 147.5,148.5C 150.5,148.5 153.5,148.5 156.5,148.5 Z"/></g>
<g><path style="opacity:1" fill="#0e0e0e" d="M 200.5,152.5 C 198.629,152.859 197.129,153.859 196,155.5C 195.195,158.696 195.362,161.696 196.5,164.5C 197.27,166.935 198.937,168.269 201.5,168.5C 202.449,169.152 203.615,169.486 205,169.5C 207.221,169.607 209.054,168.94 210.5,167.5C 211.451,166.081 211.784,164.415 211.5,162.5C 210.081,161.549 208.415,161.216 206.5,161.5C 206.5,160.5 206.5,159.5 206.5,158.5C 210.833,158.5 215.167,158.5 219.5,158.5C 219.586,162.319 218.919,165.985 217.5,169.5C 216.711,169.783 216.044,170.283 215.5,171C 211.5,171.167 207.5,171.333 203.5,171.5C 190.232,174.055 184.066,168.722 185,155.5C 185.66,153.676 186.827,152.343 188.5,151.5C 189.766,150.91 191.099,150.41 192.5,150C 201.186,149.168 209.853,149.335 218.5,150.5C 212.346,151.167 206.346,151.833 200.5,152.5 Z"/></g>
<g><path style="opacity:1" fill="#818181" d="M 96.5,148.5 C 99.9619,147.518 103.629,147.185 107.5,147.5C 107.5,152.833 107.5,158.167 107.5,163.5C 106.513,158.695 106.179,153.695 106.5,148.5C 103.167,148.5 99.8333,148.5 96.5,148.5 Z"/></g>
<g><path style="opacity:1" fill="#787878" d="M 45.5,148.5 C 48.2869,147.523 51.2869,147.19 54.5,147.5C 54.5,155.5 54.5,163.5 54.5,171.5C 54.1667,171.5 53.8333,171.5 53.5,171.5C 53.5,163.833 53.5,156.167 53.5,148.5C 50.8333,148.5 48.1667,148.5 45.5,148.5 Z"/></g>
<g><path style="opacity:1" fill="#636363" d="M 74.5,151.5 C 74.573,153.027 73.9063,154.027 72.5,154.5C 72.427,152.973 73.0937,151.973 74.5,151.5 Z"/></g>
<g><path style="opacity:1" fill="#f5f5f5" d="M 202.5,153.5 C 208.206,153.171 213.872,153.505 219.5,154.5C 219.291,155.086 218.957,155.586 218.5,156C 213.981,156.175 209.647,156.675 205.5,157.5C 205.5,159.167 205.5,160.833 205.5,162.5C 206.919,163.451 208.585,163.784 210.5,163.5C 210.5,164.833 210.5,166.167 210.5,167.5C 207.545,168.159 204.545,168.492 201.5,168.5C 198.937,168.269 197.27,166.935 196.5,164.5C 196.336,161.813 196.503,159.146 197,156.5C 198.264,154.393 200.097,153.393 202.5,153.5 Z"/></g>
<g><path style="opacity:1" fill="#8b8b8b" d="M 174.5,147.5 C 176.735,147.205 178.735,147.539 180.5,148.5C 177.833,148.5 175.167,148.5 172.5,148.5C 172.827,153.214 172.493,157.88 171.5,162.5C 170.478,162.145 169.811,161.478 169.5,160.5C 171.43,156.627 172.097,152.294 171.5,147.5C 172.5,147.5 173.5,147.5 174.5,147.5 Z"/></g>
<g><path style="opacity:1" fill="#a2a2a2" d="M 200.5,152.5 C 201.167,152.5 201.833,152.5 202.5,152.5C 202.5,152.833 202.5,153.167 202.5,153.5C 200.097,153.393 198.264,154.393 197,156.5C 196.503,159.146 196.336,161.813 196.5,164.5C 195.362,161.696 195.195,158.696 196,155.5C 197.129,153.859 198.629,152.859 200.5,152.5 Z"/></g>
<g><path style="opacity:1" fill="#494949" d="M 205.5,157.5 C 210.363,157.181 215.03,157.514 219.5,158.5C 215.167,158.5 210.833,158.5 206.5,158.5C 206.5,159.5 206.5,160.5 206.5,161.5C 208.415,161.216 210.081,161.549 211.5,162.5C 209.5,162.5 207.5,162.5 205.5,162.5C 205.5,160.833 205.5,159.167 205.5,157.5 Z"/></g>
<g><path style="opacity:1" fill="#bcbcbc" d="M 45.5,148.5 C 45.5,156.167 45.5,163.833 45.5,171.5C 48.1667,171.5 50.8333,171.5 53.5,171.5C 53.8333,171.5 54.1667,171.5 54.5,171.5C 51.3752,172.479 48.0419,172.813 44.5,172.5C 44.1743,164.316 44.5076,156.316 45.5,148.5 Z"/></g>
<g><path style="opacity:1" fill="#a3a3a3" d="M 79.5,161.5 C 77.6017,160.266 75.935,160.599 74.5,162.5C 74.7118,160.616 75.7118,159.283 77.5,158.5C 78.9185,159.005 79.5852,160.005 79.5,161.5 Z"/></g>
<g><path style="opacity:1" fill="#f5f5f5" d="M 79.5,161.5 C 80.1667,161.5 80.5,161.833 80.5,162.5C 80.0296,163.693 79.0296,164.36 77.5,164.5C 75.9704,164.36 74.9704,163.693 74.5,162.5C 75.935,160.599 77.6017,160.266 79.5,161.5 Z"/></g>
<g><path style="opacity:1" fill="#a4a4a4" d="M 205.5,162.5 C 207.5,162.5 209.5,162.5 211.5,162.5C 211.784,164.415 211.451,166.081 210.5,167.5C 210.5,166.167 210.5,164.833 210.5,163.5C 208.585,163.784 206.919,163.451 205.5,162.5 Z"/></g>
<g><path style="opacity:1" fill="#585858" d="M 66.5,161.5 C 65.5806,164.089 63.914,166.089 61.5,167.5C 62.4194,164.911 64.086,162.911 66.5,161.5 Z"/></g>
<g><path style="opacity:1" fill="#a8a8a8" d="M 74.5,162.5 C 74.9704,163.693 75.9704,164.36 77.5,164.5C 79.0296,164.36 80.0296,163.693 80.5,162.5C 81.404,163.209 81.7373,164.209 81.5,165.5C 78.4281,165.817 75.4281,165.484 72.5,164.5C 72.8555,163.478 73.5222,162.811 74.5,162.5 Z"/></g>
<g><path style="opacity:1" fill="#bdbdbd" d="M 158.5,161.5 C 156.881,164.548 155.881,167.881 155.5,171.5C 155.176,167.445 155.509,163.445 156.5,159.5C 157.522,159.855 158.189,160.522 158.5,161.5 Z"/></g>
<g><path style="opacity:1" fill="#898989" d="M 36.5,165.5 C 36.9118,167.973 35.9118,169.306 33.5,169.5C 34.5116,168.128 35.5116,166.795 36.5,165.5 Z"/></g>
<g><path style="opacity:1" fill="#777777" d="M 210.5,167.5 C 209.054,168.94 207.221,169.607 205,169.5C 203.615,169.486 202.449,169.152 201.5,168.5C 204.545,168.492 207.545,168.159 210.5,167.5 Z"/></g>
<g><path style="opacity:1" fill="#5c5c5c" d="M 99.5,169.5 C 101.898,169.259 103.898,169.926 105.5,171.5C 103.102,171.741 101.102,171.074 99.5,169.5 Z"/></g>
<g><path style="opacity:1" fill="#bdbdbd" d="M 33.5,169.5 C 32.7703,171.045 31.437,171.878 29.5,172C 21.6554,172.822 13.9887,172.656 6.5,171.5C 15.6394,172.01 24.6394,171.344 33.5,169.5 Z"/></g>
<g><path style="opacity:1" fill="#aaaaaa" d="M 58.5,170.5 C 61.2869,171.477 64.2869,171.81 67.5,171.5C 64.3132,172.806 60.9798,172.806 57.5,171.5C 57.6236,170.893 57.9569,170.56 58.5,170.5 Z"/></g>
<g><path style="opacity:1" fill="#aaaaaa" d="M 126.5,168.5 C 127.613,169.946 127.78,171.613 127,173.5C 119.734,172.849 112.568,172.182 105.5,171.5C 112.5,171.5 119.5,171.5 126.5,171.5C 126.5,170.5 126.5,169.5 126.5,168.5 Z"/></g>
<g><path style="opacity:1" fill="#f7fefe" d="M 87.5,175.5 C 98.1667,175.5 108.833,175.5 119.5,175.5C 119.5,176.833 119.5,178.167 119.5,179.5C 122.167,179.5 124.833,179.5 127.5,179.5C 127.5,178.167 127.5,176.833 127.5,175.5C 143.833,175.5 160.167,175.5 176.5,175.5C 178.5,175.5 180.5,175.5 182.5,175.5C 182.5,178.167 182.5,180.833 182.5,183.5C 181.5,183.5 180.5,183.5 179.5,183.5C 179.5,186.167 179.5,188.833 179.5,191.5C 181.833,191.5 184.167,191.5 186.5,191.5C 186.5,196.833 186.5,202.167 186.5,207.5C 150.833,207.5 115.167,207.5 79.5,207.5C 79.5,205.833 79.5,204.167 79.5,202.5C 68.8333,202.5 58.1667,202.5 47.5,202.5C 47.5,195.167 47.5,187.833 47.5,180.5C 60.8513,180.666 74.1846,180.333 87.5,179.5C 87.5,178.167 87.5,176.833 87.5,175.5 Z"/></g>
</svg>
