<?xml version="1.0" encoding="UTF-8"?>
<!DOCTYPE svg PUBLIC "-//W3C//DTD SVG 1.1//EN" "http://www.w3.org/Graphics/SVG/1.1/DTD/svg11.dtd">
<svg xmlns="http://www.w3.org/2000/svg" version="1.1" width="204px" height="192px" style="shape-rendering:geometricPrecision; text-rendering:geometricPrecision; image-rendering:optimizeQuality; fill-rule:evenodd; clip-rule:evenodd" xmlns:xlink="http://www.w3.org/1999/xlink">
<g><path style="opacity:1" fill="#fdfdfd" d="M -0.5,-0.5 C 67.5,-0.5 135.5,-0.5 203.5,-0.5C 203.5,63.5 203.5,127.5 203.5,191.5C 135.5,191.5 67.5,191.5 -0.5,191.5C -0.5,127.5 -0.5,63.5 -0.5,-0.5 Z"/></g>
<g><path style="opacity:1" fill="#4d5882" d="M 85.5,69.5 C 83.1667,69.5 80.8333,69.5 78.5,69.5C 78.5,71.5 78.5,73.5 78.5,75.5C 77.5318,73.3926 77.1984,71.0593 77.5,68.5C 80.3854,68.1936 83.0521,68.5269 85.5,69.5 Z"/></g>
<g><path style="opacity:1" fill="#182563" d="M 93.5,68.5 C 100.833,68.5 108.167,68.5 115.5,68.5C 115.5,70.5 115.5,72.5 115.5,74.5C 106.815,74.464 98.1487,74.7974 89.5,75.5C 89.9613,72.6967 91.2947,70.3634 93.5,68.5 Z"/></g>
<g><path style="opacity:1" fill="#162664" d="M 126.5,68.5 C 126.5,71.5 126.5,74.5 126.5,77.5C 130.182,77.3347 133.848,77.5014 137.5,78C 142.098,79.1919 142.431,80.8586 138.5,83C 134.514,83.4988 130.514,83.6655 126.5,83.5C 126.5,86.5 126.5,89.5 126.5,92.5C 124.167,92.5 121.833,92.5 119.5,92.5C 119.5,84.5 119.5,76.5 119.5,68.5C 121.833,68.5 124.167,68.5 126.5,68.5 Z"/></g>
<g><path style="opacity:1" fill="#132062" d="M 136.5,68.5 C 138.833,68.5 141.167,68.5 143.5,68.5C 143.815,72.3714 143.482,76.0381 142.5,79.5C 141.024,77.5 139.191,75.8334 137,74.5C 136.505,72.5273 136.338,70.5273 136.5,68.5 Z"/></g>
<g><path style="opacity:1" fill="#06105a" d="M 85.5,69.5 C 85.5,71.5 85.5,73.5 85.5,75.5C 83.1667,75.5 80.8333,75.5 78.5,75.5C 78.5,73.5 78.5,71.5 78.5,69.5C 80.8333,69.5 83.1667,69.5 85.5,69.5 Z"/></g>
<g><path style="opacity:1" fill="#a7abbd" d="M 63.5,68.5 C 63.5,70.8333 63.5,73.1667 63.5,75.5C 65.8333,75.5 68.1667,75.5 70.5,75.5C 70.5,73.1667 70.5,70.8333 70.5,68.5C 71.4731,70.9479 71.8064,73.6146 71.5,76.5C 68.5,76.5 65.5,76.5 62.5,76.5C 62.1936,73.6146 62.5269,70.9479 63.5,68.5 Z"/></g>
<g><path style="opacity:1" fill="#172363" d="M 63.5,68.5 C 65.8333,68.5 68.1667,68.5 70.5,68.5C 70.5,70.8333 70.5,73.1667 70.5,75.5C 68.1667,75.5 65.8333,75.5 63.5,75.5C 63.5,73.1667 63.5,70.8333 63.5,68.5 Z"/></g>
<g><path style="opacity:1" fill="#05165b" d="M 96.5,78.5 C 96.5,79.8333 96.5,81.1667 96.5,82.5C 94.1667,82.5 91.8333,82.5 89.5,82.5C 89.5,81.1667 89.5,79.8333 89.5,78.5C 91.8333,78.5 94.1667,78.5 96.5,78.5 Z"/></g>
<g><path style="opacity:1" fill="#61668b" d="M 85.5,78.5 C 83.1667,78.5 80.8333,78.5 78.5,78.5C 78.5,79.8333 78.5,81.1667 78.5,82.5C 80.8333,82.5 83.1667,82.5 85.5,82.5C 83.0521,83.4731 80.3854,83.8064 77.5,83.5C 77.5,81.5 77.5,79.5 77.5,77.5C 80.3854,77.1936 83.0521,77.5269 85.5,78.5 Z"/></g>
<g><path style="opacity:1" fill="#091c5f" d="M 85.5,78.5 C 85.5,79.8333 85.5,81.1667 85.5,82.5C 83.1667,82.5 80.8333,82.5 78.5,82.5C 78.5,81.1667 78.5,79.8333 78.5,78.5C 80.8333,78.5 83.1667,78.5 85.5,78.5 Z"/></g>
<g><path style="opacity:1" fill="#717395" d="M 96.5,78.5 C 94.1667,78.5 91.8333,78.5 89.5,78.5C 89.5,79.8333 89.5,81.1667 89.5,82.5C 91.8333,82.5 94.1667,82.5 96.5,82.5C 94.0521,83.4731 91.3854,83.8064 88.5,83.5C 88.5,81.5 88.5,79.5 88.5,77.5C 91.3854,77.1936 94.0521,77.5269 96.5,78.5 Z"/></g>
<g><path style="opacity:1" fill="#5c5e85" d="M 63.5,77.5 C 66.1667,77.5 68.8333,77.5 71.5,77.5C 71.5,79.5 71.5,81.5 71.5,83.5C 68.8333,83.5 66.1667,83.5 63.5,83.5C 63.5,81.5 63.5,79.5 63.5,77.5 Z"/></g>
<g><path style="opacity:1" fill="#051b5f" d="M 64.5,78.5 C 66.5,78.5 68.5,78.5 70.5,78.5C 70.5,79.8333 70.5,81.1667 70.5,82.5C 68.5,82.5 66.5,82.5 64.5,82.5C 64.5,81.1667 64.5,79.8333 64.5,78.5 Z"/></g>
<g><path style="opacity:1" fill="#b6b9c9" d="M 126.5,68.5 C 127.473,70.9479 127.806,73.6146 127.5,76.5C 130.167,76.5 132.833,76.5 135.5,76.5C 135.194,73.6146 135.527,70.9479 136.5,68.5C 136.338,70.5273 136.505,72.5273 137,74.5C 139.191,75.8334 141.024,77.5 142.5,79.5C 142.557,80.609 142.89,81.609 143.5,82.5C 138.035,83.6327 135.702,86.966 136.5,92.5C 138.833,92.5 141.167,92.5 143.5,92.5C 141.052,93.4731 138.385,93.8064 135.5,93.5C 135.5,90.5 135.5,87.5 135.5,84.5C 132.833,84.5 130.167,84.5 127.5,84.5C 127.5,87.5 127.5,90.5 127.5,93.5C 124.615,93.8064 121.948,93.4731 119.5,92.5C 121.833,92.5 124.167,92.5 126.5,92.5C 126.5,89.5 126.5,86.5 126.5,83.5C 130.514,83.6655 134.514,83.4988 138.5,83C 142.431,80.8586 142.098,79.1919 137.5,78C 133.848,77.5014 130.182,77.3347 126.5,77.5C 126.5,74.5 126.5,71.5 126.5,68.5 Z"/></g>
<g><path style="opacity:1" fill="#0f2162" d="M 143.5,82.5 C 143.5,85.8333 143.5,89.1667 143.5,92.5C 141.167,92.5 138.833,92.5 136.5,92.5C 135.702,86.966 138.035,83.6327 143.5,82.5 Z"/></g>
<g><path style="opacity:1" fill="#132262" d="M 67.5,92.5 C 64.5,92.5 61.5,92.5 58.5,92.5C 58.5,90.8333 58.5,89.1667 58.5,87.5C 59.791,87.7373 60.791,87.404 61.5,86.5C 64.3915,85.5975 67.3915,85.2641 70.5,85.5C 71.0922,88.6305 70.0922,90.9639 67.5,92.5 Z"/></g>
<g><path style="opacity:1" fill="#0e1f60" d="M 81.5,92.5 C 78.8333,92.5 76.1667,92.5 73.5,92.5C 73.5,90.8333 73.5,89.1667 73.5,87.5C 74.791,87.7373 75.791,87.404 76.5,86.5C 79.3915,85.5975 82.3915,85.2641 85.5,85.5C 85.4452,88.6145 84.1119,90.9478 81.5,92.5 Z"/></g>
<g><path style="opacity:1" fill="#0d1f60" d="M 98.5,86.5 C 103.975,87.4889 109.642,87.8222 115.5,87.5C 115.5,89.1667 115.5,90.8333 115.5,92.5C 108.5,92.5 101.5,92.5 94.5,92.5C 91.142,91.4731 89.4754,89.1398 89.5,85.5C 92.6085,85.2641 95.6085,85.5975 98.5,86.5 Z"/></g>
<g><path style="opacity:1" fill="#888ea8" d="M 61.5,86.5 C 60.791,87.404 59.791,87.7373 58.5,87.5C 58.5,89.1667 58.5,90.8333 58.5,92.5C 61.5,92.5 64.5,92.5 67.5,92.5C 64.3752,93.4794 61.0419,93.8128 57.5,93.5C 57.5,91.1667 57.5,88.8333 57.5,86.5C 58.8333,86.5 60.1667,86.5 61.5,86.5 Z"/></g>
<g><path style="opacity:1" fill="#797d9b" d="M 76.5,86.5 C 75.791,87.404 74.791,87.7373 73.5,87.5C 73.5,89.1667 73.5,90.8333 73.5,92.5C 76.1667,92.5 78.8333,92.5 81.5,92.5C 78.7131,93.4767 75.7131,93.81 72.5,93.5C 72.5,91.1667 72.5,88.8333 72.5,86.5C 73.8333,86.5 75.1667,86.5 76.5,86.5 Z"/></g>
<g><path style="opacity:1" fill="#898ea8" d="M 98.5,86.5 C 104.5,86.5 110.5,86.5 116.5,86.5C 116.5,88.8333 116.5,91.1667 116.5,93.5C 108.981,93.825 101.648,93.4916 94.5,92.5C 101.5,92.5 108.5,92.5 115.5,92.5C 115.5,90.8333 115.5,89.1667 115.5,87.5C 109.642,87.8222 103.975,87.4889 98.5,86.5 Z"/></g>
<g><path style="opacity:1" fill="#707797" d="M 136.5,99.5 C 139.687,98.1944 143.02,98.1944 146.5,99.5C 146.376,100.107 146.043,100.44 145.5,100.5C 142.713,99.5233 139.713,99.19 136.5,99.5 Z"/></g>
<g><path style="opacity:1" fill="#969ab1" d="M 30.5,111.5 C 30.6655,107.486 30.4988,103.486 30,99.5C 29.8227,103.356 29.3227,107.023 28.5,110.5C 28.5,106.5 28.5,102.5 28.5,98.5C 29.5,98.5 30.5,98.5 31.5,98.5C 31.8182,103.032 31.4849,107.366 30.5,111.5 Z"/></g>
<g><path style="opacity:1" fill="#717494" d="M 105.5,99.5 C 102.959,99.1486 101.292,99.4819 100.5,100.5C 100.5,102.833 100.5,105.167 100.5,107.5C 102.5,107.5 104.5,107.5 106.5,107.5C 104.735,108.461 102.735,108.795 100.5,108.5C 100.799,110.604 100.466,112.604 99.5,114.5C 98.5052,109.208 98.1718,103.875 98.5,98.5C 101.059,98.1984 103.393,98.5318 105.5,99.5 Z"/></g>
<g><path style="opacity:1" fill="#1b205f" d="M 105.5,99.5 C 108.976,101.859 109.309,104.526 106.5,107.5C 108.223,102.213 106.223,99.8794 100.5,100.5C 101.292,99.4819 102.959,99.1486 105.5,99.5 Z"/></g>
<g><path style="opacity:1" fill="#807d9f" d="M 173.5,99.5 C 175.43,103.373 176.097,107.706 175.5,112.5C 177.604,112.201 179.604,112.534 181.5,113.5C 178.914,114.48 176.247,114.813 173.5,114.5C 173.5,109.5 173.5,104.5 173.5,99.5 Z"/></g>
<g><path style="opacity:1" fill="#636588" d="M 40.5,99.5 C 40.56,98.9569 40.8933,98.6236 41.5,98.5C 42.8111,102.984 42.8111,107.317 41.5,111.5C 41.8168,107.298 41.4834,103.298 40.5,99.5 Z"/></g>
<g><path style="opacity:1" fill="#f4f4f7" d="M 100.5,100.5 C 106.223,99.8794 108.223,102.213 106.5,107.5C 104.5,107.5 102.5,107.5 100.5,107.5C 100.5,105.167 100.5,102.833 100.5,100.5 Z"/></g>
<g><path style="opacity:1" fill="#25306b" d="M 136.5,99.5 C 139.713,99.19 142.713,99.5233 145.5,100.5C 144.167,100.5 142.833,100.5 141.5,100.5C 141.167,119.167 140.833,119.167 140.5,100.5C 138.901,100.768 137.568,100.434 136.5,99.5 Z"/></g>
<g><path style="opacity:1" fill="#494a78" d="M 86.5,108.5 C 87.3149,109.429 88.1482,110.429 89,111.5C 95.7075,94.041 97.8742,95.041 95.5,114.5C 94.6747,110.878 94.1747,107.211 94,103.5C 92.4964,106.684 90.9964,109.851 89.5,113C 87.2266,112.683 86.2266,111.183 86.5,108.5 Z"/></g>
<g><path style="opacity:1" fill="#212867" d="M 86.5,108.5 C 84.8828,106.879 83.7162,104.879 83,102.5C 82.6667,106.5 82.3333,110.5 82,114.5C 81.1711,109.467 81.3377,104.467 82.5,99.5C 84.6221,102.083 85.9554,105.083 86.5,108.5 Z"/></g>
<g><path style="opacity:1" fill="#8c91aa" d="M 68.5,107.5 C 69.3091,109.292 69.8091,111.292 70,113.5C 70.6424,102.446 70.4757,100.112 69.5,106.5C 66.8333,106.5 64.1667,106.5 61.5,106.5C 60.5243,100.112 60.3576,102.446 61,113.5C 61.1909,111.292 61.6909,109.292 62.5,107.5C 62.5,109.833 62.5,112.167 62.5,114.5C 61.5,114.5 60.5,114.5 59.5,114.5C 59.5,109.167 59.5,103.833 59.5,98.5C 60.5,98.5 61.5,98.5 62.5,98.5C 62.5,100.833 62.5,103.167 62.5,105.5C 64.5,105.5 66.5,105.5 68.5,105.5C 68.5,103.167 68.5,100.833 68.5,98.5C 69.5,98.5 70.5,98.5 71.5,98.5C 71.5,103.833 71.5,109.167 71.5,114.5C 70.5,114.5 69.5,114.5 68.5,114.5C 68.5,112.167 68.5,109.833 68.5,107.5 Z"/></g>
<g><path style="opacity:1" fill="#282c67" d="M 121.5,101.5 C 114.529,99.2839 111.029,101.951 111,109.5C 109.5,101.667 112.667,98.5 120.5,100C 121.056,100.383 121.389,100.883 121.5,101.5 Z"/></g>
<g><path style="opacity:1" fill="#36336e" d="M 126.5,98.5 C 135.792,98.1075 138.125,101.774 133.5,109.5C 134.64,111.078 135.14,112.744 135,114.5C 133.686,112.188 132.019,110.188 130,108.5C 129.228,108.645 128.561,108.978 128,109.5C 127.667,110.833 127.333,112.167 127,113.5C 126.501,108.511 126.334,103.511 126.5,98.5 Z"/></g>
<g><path style="opacity:1" fill="#eeeff2" d="M 127.5,100.5 C 133.662,99.1555 135.662,101.322 133.5,107C 131.527,107.495 129.527,107.662 127.5,107.5C 127.5,105.167 127.5,102.833 127.5,100.5 Z"/></g>
<g><path style="opacity:1" fill="#585983" d="M 151.5,99.5 C 154.073,99.1485 156.406,99.6485 158.5,101C 156.557,100.695 154.557,100.695 152.5,101C 151.028,104.552 152.362,106.218 156.5,106C 160.701,109.905 160.035,112.738 154.5,114.5C 152.792,114.297 151.459,113.464 150.5,112C 152.751,112.207 155.085,112.373 157.5,112.5C 157.657,111.127 157.49,109.793 157,108.5C 151.162,107.844 149.329,104.844 151.5,99.5 Z"/></g>
<g><path style="opacity:1" fill="#575781" d="M 168.5,100.5 C 170.722,100.559 171.722,101.725 171.5,104C 171.166,106.175 170.166,108.008 168.5,109.5C 169.251,113.195 168.585,113.028 166.5,109C 165.552,108.517 164.552,108.351 163.5,108.5C 163.799,110.604 163.466,112.604 162.5,114.5C 161.506,109.544 161.173,104.544 161.5,99.5C 164.059,99.1984 166.393,99.5318 168.5,100.5 Z"/></g>
<g><path style="opacity:1" fill="#f4f4f7" d="M 168.5,100.5 C 170.914,105.795 169.247,108.129 163.5,107.5C 163.5,105.167 163.5,102.833 163.5,100.5C 165.167,100.5 166.833,100.5 168.5,100.5 Z"/></g>
<g><path style="opacity:1" fill="#000456" d="M 68.5,107.5 C 66.5,107.5 64.5,107.5 62.5,107.5C 61.6909,109.292 61.1909,111.292 61,113.5C 60.3576,102.446 60.5243,100.112 61.5,106.5C 64.1667,106.5 66.8333,106.5 69.5,106.5C 70.4757,100.112 70.6424,102.446 70,113.5C 69.8091,111.292 69.3091,109.292 68.5,107.5 Z"/></g>
<g><path style="opacity:1" fill="#272463" d="M 48.5,99.5 C 52.5963,98.7153 55.9296,99.882 58.5,103C 58,103.167 57.5,103.333 57,103.5C 53.1617,99.3417 49.8283,99.675 47,104.5C 46.1667,110.333 48.6667,112.833 54.5,112C 55.6763,109.699 57.0096,109.366 58.5,111C 48.5828,117.106 44.4161,114.273 46,102.5C 47.045,101.627 47.8783,100.627 48.5,99.5 Z"/></g>
<g><path style="opacity:1" fill="#1d185b" d="M 30.5,111.5 C 28.9472,114.254 26.6139,115.087 23.5,114C 21.7888,112.867 21.2888,111.367 22,109.5C 22.4788,111.646 23.8121,112.646 26,112.5C 27.3756,112.316 28.2089,111.649 28.5,110.5C 29.3227,107.023 29.8227,103.356 30,99.5C 30.4988,103.486 30.6655,107.486 30.5,111.5 Z"/></g>
<g><path style="opacity:1" fill="#242362" d="M 40.5,99.5 C 41.4834,103.298 41.8168,107.298 41.5,111.5C 38.0119,115.737 35.0119,115.403 32.5,110.5C 32.8333,110.167 33.1667,109.833 33.5,109.5C 35.0084,112.418 37.1751,113.084 40,111.5C 40.4988,107.514 40.6655,103.514 40.5,99.5 Z"/></g>
<g><path style="opacity:1" fill="#616289" d="M 121.5,101.5 C 125.64,105.748 125.307,109.915 120.5,114C 117.351,115.035 114.684,114.368 112.5,112C 121.63,114.029 124.63,110.529 121.5,101.5 Z"/></g>
<g><path style="opacity:1" fill="#acb0c3" d="M 135.5,118.5 C 138.062,119.371 140.728,119.371 143.5,118.5C 143.67,119.822 143.337,120.989 142.5,122C 140.154,121.208 137.821,121.375 135.5,122.5C 135.5,121.167 135.5,119.833 135.5,118.5 Z"/></g>
<g><path style="opacity:1" fill="#8a8faa" d="M 144.5,118.5 C 145.222,118.918 145.722,119.584 146,120.5C 146.333,119.833 146.667,119.167 147,118.5C 147.667,119.833 147.667,121.167 147,122.5C 146.333,121.167 145.667,121.167 145,122.5C 144.51,121.207 144.343,119.873 144.5,118.5 Z"/></g>
<g><path style="opacity:1" fill="#9ba0b6" d="M 50.5,118.5 C 51.6879,119.684 52.8545,119.684 54,118.5C 54.49,119.793 54.6567,121.127 54.5,122.5C 53.1667,122.5 51.8333,122.5 50.5,122.5C 50.5,121.167 50.5,119.833 50.5,118.5 Z"/></g>
<g><path style="opacity:1" fill="#babdcd" d="M 77.5,117.5 C 82.2843,118.471 86.951,118.471 91.5,117.5C 92.0724,119.078 92.4057,120.578 92.5,122C 87.1628,121.831 81.8295,121.997 76.5,122.5C 76.366,120.708 76.6993,119.042 77.5,117.5 Z"/></g>
<g><path style="opacity:1" fill="#b4b8c9" d="M 104.5,117.5 C 107.049,119.184 109.382,120.517 111.5,121.5C 111.669,120.603 112.002,119.603 112.5,118.5C 113.429,119.689 113.762,121.022 113.5,122.5C 110.346,121.905 107.346,121.905 104.5,122.5C 104.5,120.833 104.5,119.167 104.5,117.5 Z"/></g>
<g><path style="opacity:1" fill="#c3c6d4" d="M 114.5,117.5 C 117.455,118.159 120.455,118.492 123.5,118.5C 123.5,119.833 123.5,121.167 123.5,122.5C 121.5,122.5 119.5,122.5 117.5,122.5C 117.307,118.551 116.807,118.551 116,122.5C 115.392,120.846 114.892,119.179 114.5,117.5 Z"/></g>
<g><path style="opacity:1" fill="#6f769a" d="M 124.5,118.5 C 125.397,119.598 126.23,119.598 127,118.5C 127.49,119.793 127.657,121.127 127.5,122.5C 126.5,122.5 125.5,122.5 124.5,122.5C 124.5,121.167 124.5,119.833 124.5,118.5 Z"/></g>
</svg>
