<?xml version="1.0" encoding="UTF-8"?>
<!DOCTYPE svg PUBLIC "-//W3C//DTD SVG 1.1//EN" "http://www.w3.org/Graphics/SVG/1.1/DTD/svg11.dtd">
<svg xmlns="http://www.w3.org/2000/svg" version="1.1" width="322px" height="156px" style="shape-rendering:geometricPrecision; text-rendering:geometricPrecision; image-rendering:optimizeQuality; fill-rule:evenodd; clip-rule:evenodd" xmlns:xlink="http://www.w3.org/1999/xlink">
<g><path style="opacity:1" fill="#fefefd" d="M -0.5,-0.5 C 106.833,-0.5 214.167,-0.5 321.5,-0.5C 321.5,51.5 321.5,103.5 321.5,155.5C 214.167,155.5 106.833,155.5 -0.5,155.5C -0.5,103.5 -0.5,51.5 -0.5,-0.5 Z"/></g>
<g><path style="opacity:1" fill="#c09693" d="M 132.5,37.5 C 131.5,37.5 130.5,37.5 129.5,37.5C 130.5,34.8333 131.5,34.8333 132.5,37.5 Z"/></g>
<g><path style="opacity:1" fill="#eb898e" d="M 132.5,37.5 C 134.25,38.6594 135.25,40.326 135.5,42.5C 134.1,41.9002 133.1,40.9002 132.5,39.5C 132.5,38.8333 132.5,38.1667 132.5,37.5 Z"/></g>
<g><path style="opacity:1" fill="#be4445" d="M 129.5,37.5 C 130.5,37.5 131.5,37.5 132.5,37.5C 132.5,38.1667 132.5,38.8333 132.5,39.5C 130.336,39.7215 128.67,40.7215 127.5,42.5C 127.893,40.7162 128.559,39.0495 129.5,37.5 Z"/></g>
<g><path style="opacity:1" fill="#de7976" d="M 127.5,42.5 C 127.5,43.1667 127.5,43.8333 127.5,44.5C 126.272,45.3065 125.272,46.3065 124.5,47.5C 124.273,45.0672 125.273,43.4006 127.5,42.5 Z"/></g>
<g><path style="opacity:1" fill="#e87576" d="M 135.5,44.5 C 136.167,44.5 136.833,44.5 137.5,44.5C 137.5,45.5 137.5,46.5 137.5,47.5C 136.094,47.0269 135.427,46.0269 135.5,44.5 Z"/></g>
<g><path style="opacity:1" fill="#f9b7ba" d="M 124.5,47.5 C 123.833,49.1667 123.167,50.8333 122.5,52.5C 121.833,52.8333 121.167,53.1667 120.5,53.5C 120.684,50.6627 122.018,48.6627 124.5,47.5 Z"/></g>
<g><path style="opacity:1" fill="#ca1b1d" d="M 127.5,44.5 C 126.863,48.4405 125.197,51.7738 122.5,54.5C 122.5,53.8333 122.5,53.1667 122.5,52.5C 123.167,50.8333 123.833,49.1667 124.5,47.5C 125.272,46.3065 126.272,45.3065 127.5,44.5 Z"/></g>
<g><path style="opacity:1" fill="#de090a" d="M 132.5,39.5 C 133.1,40.9002 134.1,41.9002 135.5,42.5C 135.5,43.1667 135.5,43.8333 135.5,44.5C 135.427,46.0269 136.094,47.0269 137.5,47.5C 137.5,48.5 137.5,49.5 137.5,50.5C 136.5,50.5 135.5,50.5 134.5,50.5C 134.159,47.4842 132.993,44.8175 131,42.5C 129.143,47.6082 127.143,52.9416 125,58.5C 124.667,57.5 124.333,56.5 124,55.5C 122.626,57.7465 121.126,59.9132 119.5,62C 118.614,64.1118 118.614,66.2784 119.5,68.5C 118.5,68.5 117.5,68.5 116.5,68.5C 114.306,73.9669 112.306,79.1336 110.5,84C 111.287,86.0989 111.62,88.2655 111.5,90.5C 110.5,90.5 109.5,90.5 108.5,90.5C 108.657,89.1266 108.49,87.7932 108,86.5C 106.882,88.7654 106.049,91.0987 105.5,93.5C 109.5,93.5 113.5,93.5 117.5,93.5C 113.03,94.4861 108.363,94.8195 103.5,94.5C 103.5,92.8333 103.5,91.1667 103.5,89.5C 103.5,88.8333 103.5,88.1667 103.5,87.5C 104.167,87.5 104.833,87.5 105.5,87.5C 108.023,83.7866 110.023,79.7866 111.5,75.5C 111.5,74.8333 111.5,74.1667 111.5,73.5C 111.5,72.8333 111.5,72.1667 111.5,71.5C 112.492,71.6716 113.158,71.3382 113.5,70.5C 115.294,68.5718 116.294,66.2384 116.5,63.5C 117.404,62.791 117.737,61.791 117.5,60.5C 118.906,60.0269 119.573,59.0269 119.5,57.5C 120.9,56.9002 121.9,55.9002 122.5,54.5C 125.197,51.7738 126.863,48.4405 127.5,44.5C 127.5,43.8333 127.5,43.1667 127.5,42.5C 128.67,40.7215 130.336,39.7215 132.5,39.5 Z"/></g>
<g><path style="opacity:1" fill="#fddedb" d="M 137.5,44.5 C 139.045,45.2297 139.878,46.563 140,48.5C 140.333,48.1667 140.667,47.8333 141,47.5C 141.492,48.549 141.326,49.549 140.5,50.5C 141.325,51.3857 142.325,51.719 143.5,51.5C 144.582,56.0533 145.915,60.3867 147.5,64.5C 146.833,64.5 146.5,64.1667 146.5,63.5C 146.573,61.9731 145.906,60.9731 144.5,60.5C 142.421,56.0074 140.088,51.674 137.5,47.5C 137.5,46.5 137.5,45.5 137.5,44.5 Z"/></g>
<g><path style="opacity:1" fill="#ca2d27" d="M 137.5,47.5 C 140.088,51.674 142.421,56.0074 144.5,60.5C 144.427,62.0269 145.094,63.0269 146.5,63.5C 146.5,64.1667 146.833,64.5 147.5,64.5C 147.5,65.1667 147.5,65.8333 147.5,66.5C 147.5,67.1667 147.5,67.8333 147.5,68.5C 146.206,67.7101 145.039,66.7101 144,65.5C 141.283,60.7326 139.116,55.7326 137.5,50.5C 137.5,49.5 137.5,48.5 137.5,47.5 Z"/></g>
<g><path style="opacity:1" fill="#ef0205" d="M 137.5,50.5 C 139.116,55.7326 141.283,60.7326 144,65.5C 145.039,66.7101 146.206,67.7101 147.5,68.5C 148.167,68.5 148.5,68.8333 148.5,69.5C 148.012,72.7107 148.679,75.544 150.5,78C 149.833,78.3333 149.167,78.6667 148.5,79C 150.061,79.3176 151.228,80.1509 152,81.5C 152.18,84.9555 152.847,88.2889 154,91.5C 155.232,88.7703 156.065,88.937 156.5,92C 156.415,93.1074 156.081,94.1074 155.5,95C 160.545,95.3564 162.378,97.8564 161,102.5C 163.591,103.775 165.758,105.442 167.5,107.5C 167.025,110.666 167.692,113.666 169.5,116.5C 164.489,116.666 159.489,116.499 154.5,116C 153.468,114.373 152.134,113.207 150.5,112.5C 149.89,111.609 149.557,110.609 149.5,109.5C 150.038,107.883 150.371,106.216 150.5,104.5C 149.5,104.5 148.5,104.5 147.5,104.5C 146.759,101.366 145.759,98.366 144.5,95.5C 143.5,95.5 142.5,95.5 141.5,95.5C 141.443,94.391 141.11,93.391 140.5,92.5C 140.196,89.4781 139.696,86.4781 139,83.5C 138.617,82.944 138.117,82.6107 137.5,82.5C 137.702,80.0108 137.202,77.6775 136,75.5C 135.667,75.8333 135.333,76.1667 135,76.5C 134.521,74.354 133.188,73.354 131,73.5C 125.068,73.6285 122.902,76.6285 124.5,82.5C 122.725,85.6389 121.225,88.9722 120,92.5C 119.329,93.2524 118.496,93.5858 117.5,93.5C 113.5,93.5 109.5,93.5 105.5,93.5C 106.049,91.0987 106.882,88.7654 108,86.5C 108.49,87.7932 108.657,89.1266 108.5,90.5C 109.5,90.5 110.5,90.5 111.5,90.5C 111.62,88.2655 111.287,86.0989 110.5,84C 112.306,79.1336 114.306,73.9669 116.5,68.5C 117.5,68.5 118.5,68.5 119.5,68.5C 118.614,66.2784 118.614,64.1118 119.5,62C 121.126,59.9132 122.626,57.7465 124,55.5C 124.333,56.5 124.667,57.5 125,58.5C 127.143,52.9416 129.143,47.6082 131,42.5C 132.993,44.8175 134.159,47.4842 134.5,50.5C 135.5,50.5 136.5,50.5 137.5,50.5 Z"/></g>
<g><path style="opacity:1" fill="#d34d4d" d="M 122.5,52.5 C 122.5,53.1667 122.5,53.8333 122.5,54.5C 121.9,55.9002 120.9,56.9002 119.5,57.5C 119.833,56.1667 120.167,54.8333 120.5,53.5C 121.167,53.1667 121.833,52.8333 122.5,52.5 Z"/></g>
<g><path style="opacity:1" fill="#e8bbbe" d="M 298.5,59.5 C 297.167,58.1667 295.833,58.1667 294.5,59.5C 294.167,59.5 293.833,59.5 293.5,59.5C 291.735,58.5386 289.735,58.2053 287.5,58.5C 290.32,55.2392 293.654,54.7392 297.5,57C 298.252,57.6708 298.586,58.5041 298.5,59.5 Z"/></g>
<g><path style="opacity:1" fill="#e68488" d="M 119.5,57.5 C 119.573,59.0269 118.906,60.0269 117.5,60.5C 117.427,58.9731 118.094,57.9731 119.5,57.5 Z"/></g>
<g><path style="opacity:1" fill="#d59ea6" d="M 298.5,59.5 C 299.629,61.6282 299.796,63.9615 299,66.5C 298.28,68.0557 297.113,69.0557 295.5,69.5C 294.655,68.3285 293.989,66.9952 293.5,65.5C 295.115,63.6721 295.448,61.6721 294.5,59.5C 295.833,58.1667 297.167,58.1667 298.5,59.5 Z"/></g>
<g><path style="opacity:1" fill="#db8a96" d="M 287.5,58.5 C 289.735,58.2053 291.735,58.5386 293.5,59.5C 292.167,59.5 290.833,59.5 289.5,59.5C 289.216,61.4147 289.549,63.0813 290.5,64.5C 290.912,66.9726 289.912,68.3059 287.5,68.5C 288.368,65.0645 288.368,61.7312 287.5,58.5 Z"/></g>
<g><path style="opacity:1" fill="#fdebe8" d="M 82.5,62.5 C 74.4271,61.8682 66.7605,62.5349 59.5,64.5C 58.3263,65.5137 57.6596,66.847 57.5,68.5C 56.0937,68.9731 55.427,69.9731 55.5,71.5C 55.5,72.1667 55.5,72.8333 55.5,73.5C 54.8333,73.8333 54.1667,74.1667 53.5,74.5C 53.4231,70.0372 54.0898,65.7039 55.5,61.5C 64.6822,61.1734 73.6822,61.5067 82.5,62.5 Z"/></g>
<g><path style="opacity:1" fill="#c05862" d="M 293.5,59.5 C 293.833,59.5 294.167,59.5 294.5,59.5C 295.448,61.6721 295.115,63.6721 293.5,65.5C 292.609,64.8902 291.609,64.5569 290.5,64.5C 289.549,63.0813 289.216,61.4147 289.5,59.5C 290.833,59.5 292.167,59.5 293.5,59.5 Z"/></g>
<g><path style="opacity:1" fill="#f2bbc0" d="M 82.5,62.5 C 82.5,62.8333 82.5,63.1667 82.5,63.5C 82.1667,63.5 81.8333,63.5 81.5,63.5C 74.3134,63.1755 67.3134,63.5088 60.5,64.5C 60.1667,64.5 59.8333,64.5 59.5,64.5C 66.7605,62.5349 74.4271,61.8682 82.5,62.5 Z"/></g>
<g><path style="opacity:1" fill="#f4a6b3" d="M 117.5,60.5 C 117.737,61.791 117.404,62.791 116.5,63.5C 116.167,63.5 115.833,63.5 115.5,63.5C 115.427,61.9731 116.094,60.9731 117.5,60.5 Z"/></g>
<g><path style="opacity:1" fill="#ec9c97" d="M 144.5,60.5 C 145.906,60.9731 146.573,61.9731 146.5,63.5C 145.094,63.0269 144.427,62.0269 144.5,60.5 Z"/></g>
<g><path style="opacity:1" fill="#fddfe4" d="M 263.5,64.5 C 258.036,63.2433 252.703,63.2433 247.5,64.5C 246.167,64.5 244.833,64.5 243.5,64.5C 243.5,63.5 243.5,62.5 243.5,61.5C 248.511,61.3341 253.511,61.5007 258.5,62C 260.744,62.0496 262.411,62.8829 263.5,64.5 Z"/></g>
<g><path style="opacity:1" fill="#d6464a" d="M 23.5,64.5 C 23.5,64.1667 23.5,63.8333 23.5,63.5C 31.3516,63.1746 39.0182,63.508 46.5,64.5C 46.5,72.1667 46.5,79.8333 46.5,87.5C 45.5111,82.0247 45.1778,76.358 45.5,70.5C 45.5,68.5 45.5,66.5 45.5,64.5C 38.1667,64.5 30.8333,64.5 23.5,64.5 Z"/></g>
<g><path style="opacity:1" fill="#d14646" d="M 60.5,64.5 C 67.3134,63.5088 74.3134,63.1755 81.5,63.5C 82.6414,65.4513 82.6414,67.4513 81.5,69.5C 81.1667,70.5 80.5,71.1667 79.5,71.5C 81.2932,65.5115 78.9599,63.1781 72.5,64.5C 68.5,64.5 64.5,64.5 60.5,64.5 Z"/></g>
<g><path style="opacity:1" fill="#ce4b46" d="M 162.5,63.5 C 182.833,63.5 203.167,63.5 223.5,63.5C 223.585,66.6489 222.585,69.3155 220.5,71.5C 220.5,69.5 220.5,67.5 220.5,65.5C 219.5,65.5 218.5,65.5 217.5,65.5C 200.307,64.2018 182.973,64.2018 165.5,65.5C 165.5,66.8333 165.5,68.1667 165.5,69.5C 164.833,69.1667 164.167,68.8333 163.5,68.5C 162.962,66.8828 162.629,65.2161 162.5,63.5 Z"/></g>
<g><path style="opacity:1" fill="#e27577" d="M 247.5,64.5 C 252.703,63.2433 258.036,63.2433 263.5,64.5C 263.5,64.8333 263.5,65.1667 263.5,65.5C 258.213,64.6576 252.88,64.3243 247.5,64.5 Z"/></g>
<g><path style="opacity:1" fill="#c62929" d="M 59.5,64.5 C 59.8333,64.5 60.1667,64.5 60.5,64.5C 64.5,64.5 68.5,64.5 72.5,64.5C 72.5,64.8333 72.5,65.1667 72.5,65.5C 68.4295,65.2338 64.4295,65.5672 60.5,66.5C 58.9848,68.5473 58.1515,70.8807 58,73.5C 57.2917,74.3805 56.4584,75.0472 55.5,75.5C 55.5,74.8333 55.5,74.1667 55.5,73.5C 55.5,72.8333 55.5,72.1667 55.5,71.5C 56.9063,71.0269 57.573,70.0269 57.5,68.5C 57.6596,66.847 58.3263,65.5137 59.5,64.5 Z"/></g>
<g><path style="opacity:1" fill="#ca1316" d="M 217.5,65.5 C 203.323,65.1709 189.323,65.5042 175.5,66.5C 172.5,66.5 169.5,66.5 166.5,66.5C 166.993,68.8056 167.326,71.139 167.5,73.5C 166.833,72.8333 166.167,72.1667 165.5,71.5C 165.5,70.8333 165.5,70.1667 165.5,69.5C 165.5,68.1667 165.5,66.8333 165.5,65.5C 182.973,64.2018 200.307,64.2018 217.5,65.5 Z"/></g>
<g><path style="opacity:1" fill="#b82420" d="M 243.5,64.5 C 244.833,64.5 246.167,64.5 247.5,64.5C 252.88,64.3243 258.213,64.6576 263.5,65.5C 263.5,65.8333 263.5,66.1667 263.5,66.5C 259.516,66.0725 255.516,65.7392 251.5,65.5C 247.281,65.4118 243.281,66.0785 239.5,67.5C 239.5,66.8333 239.833,66.5 240.5,66.5C 242.027,66.573 243.027,65.9063 243.5,64.5 Z"/></g>
<g><path style="opacity:1" fill="#ce6b76" d="M 81.5,63.5 C 81.8333,63.5 82.1667,63.5 82.5,63.5C 83.1386,64.0968 83.472,64.9302 83.5,66C 83.6134,67.6991 82.9468,68.8658 81.5,69.5C 82.6414,67.4513 82.6414,65.4513 81.5,63.5 Z"/></g>
<g><path style="opacity:1" fill="#da090d" d="M 217.5,65.5 C 218.5,65.5 219.5,65.5 220.5,65.5C 220.5,67.5 220.5,69.5 220.5,71.5C 219.662,71.8417 219.328,72.5084 219.5,73.5C 218.094,73.9731 217.427,74.9731 217.5,76.5C 215.952,76.8212 215.285,77.8212 215.5,79.5C 214.833,80.5 214.167,81.5 213.5,82.5C 213.192,80.076 213.526,77.7427 214.5,75.5C 215.06,72.814 216.06,71.1473 217.5,70.5C 218.828,69.0903 218.495,67.9236 216.5,67C 202.66,66.9426 188.993,66.7759 175.5,66.5C 189.323,65.5042 203.323,65.1709 217.5,65.5 Z"/></g>
<g><path style="opacity:1" fill="#e29493" d="M 243.5,64.5 C 243.027,65.9063 242.027,66.573 240.5,66.5C 240.973,65.0937 241.973,64.427 243.5,64.5 Z"/></g>
<g><path style="opacity:1" fill="#dcb2be" d="M 287.5,58.5 C 288.368,61.7312 288.368,65.0645 287.5,68.5C 286.235,67.4855 285.569,65.9855 285.5,64C 285.667,62.5 285.833,61 286,59.5C 286.383,58.944 286.883,58.6107 287.5,58.5 Z"/></g>
<g><path style="opacity:1" fill="#cb1a17" d="M 72.5,65.5 C 72.5,65.1667 72.5,64.8333 72.5,64.5C 78.9599,63.1781 81.2932,65.5115 79.5,71.5C 78.8902,72.391 78.5569,73.391 78.5,74.5C 77.8333,74.8333 77.1667,75.1667 76.5,75.5C 77.0508,72.1933 77.3841,68.8599 77.5,65.5C 75.8333,65.5 74.1667,65.5 72.5,65.5 Z"/></g>
<g><path style="opacity:1" fill="#d34943" d="M 115.5,63.5 C 115.833,63.5 116.167,63.5 116.5,63.5C 116.294,66.2384 115.294,68.5718 113.5,70.5C 113.5,69.8333 113.5,69.1667 113.5,68.5C 114.167,66.8333 114.833,65.1667 115.5,63.5 Z"/></g>
<g><path style="opacity:1" fill="#e60404" d="M 175.5,66.5 C 188.993,66.7759 202.66,66.9426 216.5,67C 218.495,67.9236 218.828,69.0903 217.5,70.5C 217.082,69.7784 216.416,69.2784 215.5,69C 202.167,68.3333 188.833,68.3333 175.5,69C 173.392,69.3599 171.392,70.0266 169.5,71C 168.402,71.7697 168.402,72.603 169.5,73.5C 168.833,73.5 168.167,73.5 167.5,73.5C 167.326,71.139 166.993,68.8056 166.5,66.5C 169.5,66.5 172.5,66.5 175.5,66.5 Z"/></g>
<g><path style="opacity:1" fill="#fbdad9" d="M 263.5,66.5 C 263.5,66.1667 263.5,65.8333 263.5,65.5C 268.518,64.9979 271.852,66.9979 273.5,71.5C 273.167,71.5 272.833,71.5 272.5,71.5C 272.167,71.5 271.833,71.5 271.5,71.5C 271.167,69.1667 269.833,67.8333 267.5,67.5C 266.391,67.4431 265.391,67.1098 264.5,66.5C 264.167,66.5 263.833,66.5 263.5,66.5 Z"/></g>
<g><path style="opacity:1" fill="#f18b91" d="M 147.5,66.5 C 148.5,66.8333 149.167,67.5 149.5,68.5C 149.5,68.8333 149.5,69.1667 149.5,69.5C 149.167,69.5 148.833,69.5 148.5,69.5C 148.5,68.8333 148.167,68.5 147.5,68.5C 147.5,67.8333 147.5,67.1667 147.5,66.5 Z"/></g>
<g><path style="opacity:1" fill="#fadcd2" d="M 162.5,63.5 C 162.629,65.2161 162.962,66.8828 163.5,68.5C 163.427,70.0269 164.094,71.0269 165.5,71.5C 166.167,72.1667 166.833,72.8333 167.5,73.5C 167.5,74.1667 167.5,74.8333 167.5,75.5C 166.222,75.2178 165.222,74.5511 164.5,73.5C 161.914,70.4441 161.247,67.1108 162.5,63.5 Z"/></g>
<g><path style="opacity:1" fill="#e6bebe" d="M 290.5,64.5 C 291.609,64.5569 292.609,64.8902 293.5,65.5C 293.989,66.9952 294.655,68.3285 295.5,69.5C 294.551,70.1524 293.385,70.4857 292,70.5C 289.992,70.6932 288.492,70.0265 287.5,68.5C 289.912,68.3059 290.912,66.9726 290.5,64.5 Z"/></g>
<g><path style="opacity:1" fill="#ed9b9e" d="M 57.5,68.5 C 57.573,70.0269 56.9063,71.0269 55.5,71.5C 55.427,69.9731 56.0937,68.9731 57.5,68.5 Z"/></g>
<g><path style="opacity:1" fill="#eb9298" d="M 113.5,68.5 C 113.5,69.1667 113.5,69.8333 113.5,70.5C 113.158,71.3382 112.492,71.6716 111.5,71.5C 111.427,69.9731 112.094,68.9731 113.5,68.5 Z"/></g>
<g><path style="opacity:1" fill="#f3a297" d="M 163.5,68.5 C 164.167,68.8333 164.833,69.1667 165.5,69.5C 165.5,70.1667 165.5,70.8333 165.5,71.5C 164.094,71.0269 163.427,70.0269 163.5,68.5 Z"/></g>
<g><path style="opacity:1" fill="#ee0204" d="M 217.5,70.5 C 216.06,71.1473 215.06,72.814 214.5,75.5C 213.526,77.7427 213.192,80.076 213.5,82.5C 210.703,82.9666 209.369,84.6333 209.5,87.5C 209.5,88.1667 209.5,88.8333 209.5,89.5C 206.504,90.4744 204.837,92.4744 204.5,95.5C 202.968,96.6774 201.468,98.0107 200,99.5C 199.502,102.817 199.335,106.15 199.5,109.5C 206.833,108.833 214.167,108.167 221.5,107.5C 221.5,110.5 221.5,113.5 221.5,116.5C 208.673,117.66 195.673,117.827 182.5,117C 179.365,113.428 177.698,109.262 177.5,104.5C 177.932,103.29 178.599,102.29 179.5,101.5C 183.034,95.4336 186.868,89.4336 191,83.5C 191.49,82.2068 191.657,80.8734 191.5,79.5C 191.5,78.8333 191.5,78.1667 191.5,77.5C 184.167,76.1667 176.833,74.8333 169.5,73.5C 168.402,72.603 168.402,71.7697 169.5,71C 171.392,70.0266 173.392,69.3599 175.5,69C 188.833,68.3333 202.167,68.3333 215.5,69C 216.416,69.2784 217.082,69.7784 217.5,70.5 Z"/></g>
<g><path style="opacity:1" fill="#ce4b4e" d="M 239.5,67.5 C 239.5,67.8333 239.5,68.1667 239.5,68.5C 238.33,70.2785 236.664,71.2785 234.5,71.5C 234.5,70.8333 234.5,70.1667 234.5,69.5C 236.167,68.8333 237.833,68.1667 239.5,67.5 Z"/></g>
<g><path style="opacity:1" fill="#ed0306" d="M 263.5,66.5 C 263.833,66.5 264.167,66.5 264.5,66.5C 266.152,68.471 267.319,70.8044 268,73.5C 269.667,74.1667 271.333,74.8333 273,75.5C 273.684,76.7839 273.517,77.9505 272.5,79C 274.519,80.777 276.019,82.9437 277,85.5C 277.641,91.5283 277.474,97.5283 276.5,103.5C 274.989,104.502 273.322,105.169 271.5,105.5C 271.5,106.5 271.5,107.5 271.5,108.5C 270.5,108.5 269.5,108.5 268.5,108.5C 268.727,113.037 266.727,114.704 262.5,113.5C 261.713,114.242 261.047,115.075 260.5,116C 255.511,116.499 250.511,116.666 245.5,116.5C 244.508,116.672 243.842,116.338 243.5,115.5C 241.555,111.226 238.221,108.893 233.5,108.5C 232.301,105.044 230.801,101.711 229,98.5C 228.501,93.5111 228.334,88.5111 228.5,83.5C 231.987,78.3934 235.653,73.3934 239.5,68.5C 239.5,68.1667 239.5,67.8333 239.5,67.5C 243.281,66.0785 247.281,65.4118 251.5,65.5C 255.516,65.7392 259.516,66.0725 263.5,66.5 Z"/></g>
<g><path style="opacity:1" fill="#d56971" d="M 267.5,67.5 C 269.833,67.8333 271.167,69.1667 271.5,71.5C 269.736,70.674 268.402,69.3407 267.5,67.5 Z"/></g>
<g><path style="opacity:1" fill="#d60a0b" d="M 44.5,66.5 C 38.1667,66.5 31.8333,66.5 25.5,66.5C 25.5,83.1667 25.5,99.8333 25.5,116.5C 24.5034,99.6749 24.1701,82.6749 24.5,65.5C 31.3543,65.176 38.021,65.5093 44.5,66.5 Z"/></g>
<g><path style="opacity:1" fill="#f6a79d" d="M 46.5,64.5 C 46.8486,71.7259 47.8486,78.7259 49.5,85.5C 49.1667,86.1667 48.8333,86.8333 48.5,87.5C 47.8333,87.5 47.1667,87.5 46.5,87.5C 46.5,79.8333 46.5,72.1667 46.5,64.5 Z"/></g>
<g><path style="opacity:1" fill="#f6babf" d="M 149.5,68.5 C 150.497,68.4701 151.164,68.9701 151.5,70C 152.282,73.3138 153.282,76.4805 154.5,79.5C 153.11,78.1007 152.11,76.4341 151.5,74.5C 151.573,72.9731 150.906,71.9731 149.5,71.5C 149.5,70.8333 149.5,70.1667 149.5,69.5C 149.5,69.1667 149.5,68.8333 149.5,68.5 Z"/></g>
<g><path style="opacity:1" fill="#d76f6a" d="M 272.5,71.5 C 272.833,71.5 273.167,71.5 273.5,71.5C 274.11,72.391 274.443,73.391 274.5,74.5C 273.094,74.0269 272.427,73.0269 272.5,71.5 Z"/></g>
<g><path style="opacity:1" fill="#d95c5b" d="M 149.5,71.5 C 150.906,71.9731 151.573,72.9731 151.5,74.5C 150.094,74.0269 149.427,73.0269 149.5,71.5 Z"/></g>
<g><path style="opacity:1" fill="#fadbde" d="M 23.5,63.5 C 31.3225,62.3439 39.3225,62.1772 47.5,63C 48.3002,67.08 48.8002,71.2467 49,75.5C 50.0113,76.3366 51.1779,76.67 52.5,76.5C 51.8902,77.391 51.5569,78.391 51.5,79.5C 51.5,80.1667 51.5,80.8333 51.5,81.5C 50.0937,81.9731 49.427,82.9731 49.5,84.5C 49.5,84.8333 49.5,85.1667 49.5,85.5C 47.8486,78.7259 46.8486,71.7259 46.5,64.5C 39.0182,63.508 31.3516,63.1746 23.5,63.5 Z"/></g>
<g><path style="opacity:1" fill="#e98485" d="M 55.5,73.5 C 55.5,74.1667 55.5,74.8333 55.5,75.5C 54.8333,75.8333 54.1667,76.1667 53.5,76.5C 53.5,75.8333 53.5,75.1667 53.5,74.5C 54.1667,74.1667 54.8333,73.8333 55.5,73.5 Z"/></g>
<g><path style="opacity:1" fill="#db6a6e" d="M 111.5,73.5 C 111.5,74.1667 111.5,74.8333 111.5,75.5C 110.143,76.5903 109.143,77.9236 108.5,79.5C 108.5,78.8333 108.5,78.1667 108.5,77.5C 108.738,75.5956 109.738,74.2623 111.5,73.5 Z"/></g>
<g><path style="opacity:1" fill="#ca1115" d="M 167.5,73.5 C 168.167,73.5 168.833,73.5 169.5,73.5C 176.833,74.8333 184.167,76.1667 191.5,77.5C 190.833,77.5 190.167,77.5 189.5,77.5C 189.167,77.5 188.833,77.5 188.5,77.5C 181.6,76.8007 174.6,76.134 167.5,75.5C 167.5,74.8333 167.5,74.1667 167.5,73.5 Z"/></g>
<g><path style="opacity:1" fill="#e88b82" d="M 219.5,73.5 C 219.573,75.0269 218.906,76.0269 217.5,76.5C 217.427,74.9731 218.094,73.9731 219.5,73.5 Z"/></g>
<g><path style="opacity:1" fill="#fcefef" d="M 223.5,63.5 C 224.748,64.3339 225.415,65.6672 225.5,67.5C 224.488,71.3714 223.488,75.2047 222.5,79C 223.126,79.7504 223.626,80.5838 224,81.5C 224.206,78.3771 224.873,75.3771 226,72.5C 227.183,73.731 228.349,73.731 229.5,72.5C 228.975,71.8076 228.308,71.3076 227.5,71C 229.594,69.6485 231.927,69.1485 234.5,69.5C 234.5,70.1667 234.5,70.8333 234.5,71.5C 232.738,72.2623 231.738,73.5956 231.5,75.5C 229.738,76.2623 228.738,77.5956 228.5,79.5C 226.415,81.6845 225.415,84.3511 225.5,87.5C 225.167,87.5 224.833,87.5 224.5,87.5C 222.137,85.4156 220.47,82.7489 219.5,79.5C 218.378,80.6302 217.044,81.2969 215.5,81.5C 215.5,80.8333 215.5,80.1667 215.5,79.5C 216.401,78.7095 217.068,77.7095 217.5,76.5C 218.906,76.0269 219.573,75.0269 219.5,73.5C 219.328,72.5084 219.662,71.8417 220.5,71.5C 222.585,69.3155 223.585,66.6489 223.5,63.5 Z"/></g>
<g><path style="opacity:1" fill="#dd1410" d="M 137.5,82.5 C 136.868,80.2574 135.534,78.5907 133.5,77.5C 129.834,75.7864 127.834,77.1197 127.5,81.5C 127.5,81.8333 127.5,82.1667 127.5,82.5C 126.833,82.5 126.167,82.5 125.5,82.5C 125.167,82.5 124.833,82.5 124.5,82.5C 122.902,76.6285 125.068,73.6285 131,73.5C 133.188,73.354 134.521,74.354 135,76.5C 135.333,76.1667 135.667,75.8333 136,75.5C 137.202,77.6775 137.702,80.0108 137.5,82.5 Z"/></g>
<g><path style="opacity:1" fill="#f3948f" d="M 133.5,77.5 C 133.5,77.8333 133.5,78.1667 133.5,78.5C 131.737,77.0462 130.403,77.3796 129.5,79.5C 129.5,80.8333 128.833,81.5 127.5,81.5C 127.834,77.1197 129.834,75.7864 133.5,77.5 Z"/></g>
<g><path style="opacity:1" fill="#c34045" d="M 167.5,75.5 C 174.6,76.134 181.6,76.8007 188.5,77.5C 181.833,77.5 175.167,77.5 168.5,77.5C 167.662,77.1583 167.328,76.4916 167.5,75.5 Z"/></g>
<g><path style="opacity:1" fill="#c75356" d="M 231.5,75.5 C 231.262,77.4044 230.262,78.7377 228.5,79.5C 228.738,77.5956 229.738,76.2623 231.5,75.5 Z"/></g>
<g><path style="opacity:1" fill="#c22828" d="M 255.5,77.5 C 252.447,77.1107 249.78,77.7773 247.5,79.5C 246.833,79.5 246.167,79.5 245.5,79.5C 245.577,78.2502 246.244,77.4169 247.5,77C 250.367,76.1993 253.034,76.3659 255.5,77.5 Z"/></g>
<g><path style="opacity:1" fill="#df676a" d="M 274.5,74.5 C 275.906,74.9731 276.573,75.9731 276.5,77.5C 275.094,77.0269 274.427,76.0269 274.5,74.5 Z"/></g>
<g><path style="opacity:1" fill="#d42a26" d="M 76.5,75.5 C 75.6373,77.4214 74.9707,79.4214 74.5,81.5C 73.6618,81.8417 73.3284,82.5084 73.5,83.5C 72.8333,83.8333 72.1667,84.1667 71.5,84.5C 71.5,82.1667 71.5,79.8333 71.5,77.5C 73.3224,77.1692 74.9891,76.5025 76.5,75.5 Z"/></g>
<g><path style="opacity:1" fill="#fcf8f6" d="M 164.5,73.5 C 165.222,74.5511 166.222,75.2178 167.5,75.5C 167.328,76.4916 167.662,77.1583 168.5,77.5C 174.979,78.4907 181.646,78.824 188.5,78.5C 188.5,79.5 188.5,80.5 188.5,81.5C 187.4,82.6049 186.733,83.9382 186.5,85.5C 186.672,86.4916 186.338,87.1583 185.5,87.5C 184.094,87.9731 183.427,88.9731 183.5,90.5C 182.662,90.8417 182.328,91.5084 182.5,92.5C 180.469,94.902 178.803,97.5687 177.5,100.5C 176.094,100.973 175.427,101.973 175.5,103.5C 174.833,103.5 174.5,103.833 174.5,104.5C 173.833,107.167 173.167,109.833 172.5,112.5C 171.857,110.924 170.857,109.59 169.5,108.5C 169.573,106.973 168.906,105.973 167.5,105.5C 167.672,104.508 167.338,103.842 166.5,103.5C 166.245,101.033 165.245,99.0326 163.5,97.5C 163.672,96.5084 163.338,95.8417 162.5,95.5C 160.175,90.2009 157.841,84.8676 155.5,79.5C 157.074,82.2522 159.408,83.4188 162.5,83C 163.432,79.9146 164.099,76.7479 164.5,73.5 Z"/></g>
<g><path style="opacity:1" fill="#fdbabc" d="M 168.5,77.5 C 175.167,77.5 181.833,77.5 188.5,77.5C 188.833,77.5 189.167,77.5 189.5,77.5C 189.768,79.099 189.434,80.4324 188.5,81.5C 188.5,80.5 188.5,79.5 188.5,78.5C 181.646,78.824 174.979,78.4907 168.5,77.5 Z"/></g>
<g><path style="opacity:1" fill="#d76061" d="M 217.5,76.5 C 217.068,77.7095 216.401,78.7095 215.5,79.5C 215.285,77.8212 215.952,76.8212 217.5,76.5 Z"/></g>
<g><path style="opacity:1" fill="#d24d46" d="M 255.5,77.5 C 256.833,77.5 258.167,77.5 259.5,77.5C 259.833,78.1667 260.167,78.8333 260.5,79.5C 258.597,79.2041 256.93,78.5375 255.5,77.5 Z"/></g>
<g><path style="opacity:1" fill="#f5abaf" d="M 52.5,76.5 C 52.8333,76.5 53.1667,76.5 53.5,76.5C 53.7148,78.1788 53.0481,79.1788 51.5,79.5C 51.5569,78.391 51.8902,77.391 52.5,76.5 Z"/></g>
<g><path style="opacity:1" fill="#ef0304" d="M 72.5,65.5 C 74.1667,65.5 75.8333,65.5 77.5,65.5C 77.3841,68.8599 77.0508,72.1933 76.5,75.5C 74.9891,76.5025 73.3224,77.1692 71.5,77.5C 71.5,79.8333 71.5,82.1667 71.5,84.5C 71.0679,85.7095 70.4013,86.7095 69.5,87.5C 62.1819,90.2658 61.5152,94.2658 67.5,99.5C 69.5301,103.193 72.5301,105.86 76.5,107.5C 76.2155,109.415 76.5489,111.081 77.5,112.5C 77.5,113.5 77.5,114.5 77.5,115.5C 74.15,115.614 70.8167,115.947 67.5,116.5C 66.1667,116.167 64.8333,115.833 63.5,115.5C 66.1071,114.682 68.7737,114.182 71.5,114C 66.9425,113.853 62.6092,113.019 58.5,111.5C 58.6621,109.473 58.4955,107.473 58,105.5C 56.1653,103.551 54.9986,101.217 54.5,98.5C 52.5202,99.3833 50.5202,99.2166 48.5,98C 49.9494,96.883 51.6161,96.2163 53.5,96C 52.354,95.3551 51.354,94.5217 50.5,93.5C 46.4915,94.1081 46.4915,93.4414 50.5,91.5C 51.1667,90.1667 51.8333,88.8333 52.5,87.5C 53.4255,86.3595 54.2588,86.3595 55,87.5C 55.6667,85.8333 55.6667,84.1667 55,82.5C 53.8932,83.7119 53.3932,83.3786 53.5,81.5C 55.3079,80.0821 55.9746,78.0821 55.5,75.5C 56.4584,75.0472 57.2917,74.3805 58,73.5C 58.1515,70.8807 58.9848,68.5473 60.5,66.5C 64.4295,65.5672 68.4295,65.2338 72.5,65.5 Z"/></g>
<g><path style="opacity:1" fill="#f8c0ba" d="M 133.5,78.5 C 134.892,81.0067 135.892,83.6733 136.5,86.5C 134.59,85.0254 133.424,83.0254 133,80.5C 131.989,79.6634 130.822,79.33 129.5,79.5C 130.403,77.3796 131.737,77.0462 133.5,78.5 Z"/></g>
<g><path style="opacity:1" fill="#fcc4bd" d="M 255.5,77.5 C 256.93,78.5375 258.597,79.2041 260.5,79.5C 260.833,80.1667 261.167,80.8333 261.5,81.5C 256.993,79.8874 252.327,79.2207 247.5,79.5C 249.78,77.7773 252.447,77.1107 255.5,77.5 Z"/></g>
<g><path style="opacity:1" fill="#c55154" d="M 23.5,63.5 C 23.5,63.8333 23.5,64.1667 23.5,64.5C 23.5,82.5 23.5,100.5 23.5,118.5C 31.1667,118.5 38.8333,118.5 46.5,118.5C 39.0182,119.492 31.3516,119.825 23.5,119.5C 22.1667,100.833 22.1667,82.1667 23.5,63.5 Z"/></g>
<g><path style="opacity:1" fill="#fad5ce" d="M 108.5,77.5 C 108.5,78.1667 108.5,78.8333 108.5,79.5C 106.992,81.1815 105.992,83.1815 105.5,85.5C 105.167,85.5 104.833,85.5 104.5,85.5C 104.338,83.4727 104.505,81.4727 105,79.5C 105.71,78.0267 106.876,77.3601 108.5,77.5 Z"/></g>
<g><path style="opacity:1" fill="#cf1011" d="M 264.5,66.5 C 265.391,67.1098 266.391,67.4431 267.5,67.5C 268.402,69.3407 269.736,70.674 271.5,71.5C 271.833,71.5 272.167,71.5 272.5,71.5C 272.427,73.0269 273.094,74.0269 274.5,74.5C 274.427,76.0269 275.094,77.0269 276.5,77.5C 278.271,85.3529 278.938,93.3529 278.5,101.5C 277.833,102.167 277.167,102.833 276.5,103.5C 277.474,97.5283 277.641,91.5283 277,85.5C 276.019,82.9437 274.519,80.777 272.5,79C 273.517,77.9505 273.684,76.7839 273,75.5C 271.333,74.8333 269.667,74.1667 268,73.5C 267.319,70.8044 266.152,68.471 264.5,66.5 Z"/></g>
<g><path style="opacity:1" fill="#d22425" d="M 55.5,75.5 C 55.9746,78.0821 55.3079,80.0821 53.5,81.5C 52.7794,84.2669 51.1128,86.2669 48.5,87.5C 48.8333,86.8333 49.1667,86.1667 49.5,85.5C 49.5,85.1667 49.5,84.8333 49.5,84.5C 50.9063,84.0269 51.573,83.0269 51.5,81.5C 51.5,80.8333 51.5,80.1667 51.5,79.5C 53.0481,79.1788 53.7148,78.1788 53.5,76.5C 54.1667,76.1667 54.8333,75.8333 55.5,75.5 Z"/></g>
<g><path style="opacity:1" fill="#eda9a3" d="M 78.5,74.5 C 77.5324,77.1003 76.1991,79.4336 74.5,81.5C 74.9707,79.4214 75.6373,77.4214 76.5,75.5C 77.1667,75.1667 77.8333,74.8333 78.5,74.5 Z"/></g>
<g><path style="opacity:1" fill="#bf2d28" d="M 245.5,79.5 C 244.5,81.1667 243.167,82.5 241.5,83.5C 241.167,80.5 242.5,79.1667 245.5,79.5 Z"/></g>
<g><path style="opacity:1" fill="#fcf9f7" d="M 247.5,79.5 C 252.327,79.2207 256.993,79.8874 261.5,81.5C 263.073,84.6505 264.073,87.9839 264.5,91.5C 264.317,94.8455 263.317,97.8455 261.5,100.5C 261.5,101.167 261.167,101.5 260.5,101.5C 256.412,103.18 252.079,103.847 247.5,103.5C 246.738,101.738 245.404,100.738 243.5,100.5C 242.89,98.5659 241.89,96.8993 240.5,95.5C 240.342,92.0977 240.676,88.7644 241.5,85.5C 243.833,83.8333 245.833,81.8333 247.5,79.5 Z"/></g>
<g><path style="opacity:1" fill="#d66062" d="M 154.5,79.5 C 154.833,79.5 155.167,79.5 155.5,79.5C 157.841,84.8676 160.175,90.2009 162.5,95.5C 158.242,90.984 155.575,85.6507 154.5,79.5 Z"/></g>
<g><path style="opacity:1" fill="#dc5a5d" d="M 189.5,77.5 C 190.167,77.5 190.833,77.5 191.5,77.5C 191.5,78.1667 191.5,78.8333 191.5,79.5C 190.615,82.06 188.949,84.06 186.5,85.5C 186.733,83.9382 187.4,82.6049 188.5,81.5C 189.434,80.4324 189.768,79.099 189.5,77.5 Z"/></g>
<g><path style="opacity:1" fill="#f8b7b0" d="M 215.5,79.5 C 215.5,80.1667 215.5,80.8333 215.5,81.5C 215.262,83.4044 214.262,84.7377 212.5,85.5C 212.557,84.391 212.89,83.391 213.5,82.5C 214.167,81.5 214.833,80.5 215.5,79.5 Z"/></g>
<g><path style="opacity:1" fill="#cb1917" d="M 239.5,68.5 C 235.653,73.3934 231.987,78.3934 228.5,83.5C 228.5,82.1667 228.5,80.8333 228.5,79.5C 230.262,78.7377 231.262,77.4044 231.5,75.5C 231.738,73.5956 232.738,72.2623 234.5,71.5C 236.664,71.2785 238.33,70.2785 239.5,68.5 Z"/></g>
<g><path style="opacity:1" fill="#e10509" d="M 259.5,77.5 C 258.167,77.5 256.833,77.5 255.5,77.5C 253.034,76.3659 250.367,76.1993 247.5,77C 246.244,77.4169 245.577,78.2502 245.5,79.5C 242.5,79.1667 241.167,80.5 241.5,83.5C 241.5,84.1667 241.5,84.8333 241.5,85.5C 240.223,86.6936 239.556,88.3603 239.5,90.5C 239.507,92.3693 239.84,94.036 240.5,95.5C 240.517,97.5648 240.85,99.5648 241.5,101.5C 239.883,100.962 238.216,100.629 236.5,100.5C 236.421,99.0695 236.754,97.7362 237.5,96.5C 236.507,91.8897 235.84,87.2231 235.5,82.5C 237.451,82.2267 238.951,82.8934 240,84.5C 239.815,80.3535 241.648,77.5202 245.5,76C 249.833,75.3333 254.167,75.3333 258.5,76C 259.056,76.3826 259.389,76.8826 259.5,77.5 Z"/></g>
<g><path style="opacity:1" fill="#eeaaa0" d="M 245.5,79.5 C 246.167,79.5 246.833,79.5 247.5,79.5C 245.833,81.8333 243.833,83.8333 241.5,85.5C 241.5,84.8333 241.5,84.1667 241.5,83.5C 243.167,82.5 244.5,81.1667 245.5,79.5 Z"/></g>
<g><path style="opacity:1" fill="#cf3130" d="M 260.5,79.5 C 262.679,79.84 264.512,80.84 266,82.5C 266.814,87.0204 266.647,91.3537 265.5,95.5C 265.665,92.1501 265.498,88.8168 265,85.5C 264.34,83.6763 263.173,82.343 261.5,81.5C 261.167,80.8333 260.833,80.1667 260.5,79.5 Z"/></g>
<g><path style="opacity:1" fill="#cb2e2b" d="M 213.5,82.5 C 212.89,83.391 212.557,84.391 212.5,85.5C 211.778,86.5511 210.778,87.2178 209.5,87.5C 209.369,84.6333 210.703,82.9666 213.5,82.5 Z"/></g>
<g><path style="opacity:1" fill="#da6c6f" d="M 104.5,85.5 C 104.833,85.5 105.167,85.5 105.5,85.5C 105.5,86.1667 105.5,86.8333 105.5,87.5C 104.833,87.5 104.167,87.5 103.5,87.5C 103.328,86.5084 103.662,85.8417 104.5,85.5 Z"/></g>
<g><path style="opacity:1" fill="#c52423" d="M 111.5,75.5 C 110.023,79.7866 108.023,83.7866 105.5,87.5C 105.5,86.8333 105.5,86.1667 105.5,85.5C 105.992,83.1815 106.992,81.1815 108.5,79.5C 109.143,77.9236 110.143,76.5903 111.5,75.5 Z"/></g>
<g><path style="opacity:1" fill="#cc2420" d="M 133.5,77.5 C 135.534,78.5907 136.868,80.2574 137.5,82.5C 138.117,82.6107 138.617,82.944 139,83.5C 139.696,86.4781 140.196,89.4781 140.5,92.5C 139.833,92.1667 139.167,91.8333 138.5,91.5C 138.608,89.4862 137.942,87.8195 136.5,86.5C 135.892,83.6733 134.892,81.0067 133.5,78.5C 133.5,78.1667 133.5,77.8333 133.5,77.5 Z"/></g>
<g><path style="opacity:1" fill="#fbf6f4" d="M 129.5,79.5 C 130.822,79.33 131.989,79.6634 133,80.5C 133.424,83.0254 134.59,85.0254 136.5,86.5C 137.942,87.8195 138.608,89.4862 138.5,91.5C 139.508,93.5439 140.508,95.5439 141.5,97.5C 141.609,100.899 142.942,103.566 145.5,105.5C 145.517,107.565 145.85,109.565 146.5,111.5C 144.516,111.383 142.85,112.05 141.5,113.5C 140.52,116.086 140.187,118.753 140.5,121.5C 122.659,121.83 104.992,121.497 87.5,120.5C 104.675,120.83 121.675,120.497 138.5,119.5C 139.833,118.5 139.833,117.5 138.5,116.5C 137.766,115.292 137.433,113.959 137.5,112.5C 136.283,108.966 136.283,105.466 137.5,102C 136.322,101.033 134.989,100.533 133.5,100.5C 133.833,99.8333 134.167,99.1667 134.5,98.5C 132.234,97.6858 129.9,97.1858 127.5,97C 129.878,96.0255 129.544,95.3589 126.5,95C 127.517,93.9505 127.684,92.7839 127,91.5C 126.023,92.7736 125.189,92.7736 124.5,91.5C 125.304,88.4214 126.304,85.4214 127.5,82.5C 127.5,82.1667 127.5,81.8333 127.5,81.5C 128.833,81.5 129.5,80.8333 129.5,79.5 Z"/></g>
<g><path style="opacity:1" fill="#fdd0d0" d="M 224.5,87.5 C 224.833,87.5 225.167,87.5 225.5,87.5C 225.194,90.3854 225.527,93.0521 226.5,95.5C 227.371,98.1123 228.037,100.779 228.5,103.5C 224.847,98.9308 223.514,93.5974 224.5,87.5 Z"/></g>
<g><path style="opacity:1" fill="#d54c47" d="M 276.5,77.5 C 277.5,78.8333 278.5,80.1667 279.5,81.5C 281.128,88.3977 280.795,95.0644 278.5,101.5C 278.938,93.3529 278.271,85.3529 276.5,77.5 Z"/></g>
<g><path style="opacity:1" fill="#fad5d3" d="M 279.5,81.5 C 280.117,81.6107 280.617,81.944 281,82.5C 281.73,89.5484 281.397,96.5484 280,103.5C 278.693,105.192 277.193,106.525 275.5,107.5C 275.833,106.167 276.167,104.833 276.5,103.5C 277.167,102.833 277.833,102.167 278.5,101.5C 280.795,95.0644 281.128,88.3977 279.5,81.5 Z"/></g>
<g><path style="opacity:1" fill="#f7c5cb" d="M 212.5,85.5 C 212.545,88.0772 211.545,90.0772 209.5,91.5C 209.5,90.8333 209.5,90.1667 209.5,89.5C 209.5,88.8333 209.5,88.1667 209.5,87.5C 210.778,87.2178 211.778,86.5511 212.5,85.5 Z"/></g>
<g><path style="opacity:1" fill="#ea8283" d="M 185.5,87.5 C 185.573,89.0269 184.906,90.0269 183.5,90.5C 183.427,88.9731 184.094,87.9731 185.5,87.5 Z"/></g>
<g><path style="opacity:1" fill="#f0999d" d="M 228.5,79.5 C 228.5,80.8333 228.5,82.1667 228.5,83.5C 227.778,83.9175 227.278,84.5842 227,85.5C 226.502,88.8168 226.335,92.1501 226.5,95.5C 225.527,93.0521 225.194,90.3854 225.5,87.5C 225.415,84.3511 226.415,81.6845 228.5,79.5 Z"/></g>
<g><path style="opacity:1" fill="#c61a1a" d="M 228.5,83.5 C 228.334,88.5111 228.501,93.5111 229,98.5C 230.801,101.711 232.301,105.044 233.5,108.5C 232.833,108.5 232.167,108.5 231.5,108.5C 230.89,106.566 229.89,104.899 228.5,103.5C 228.037,100.779 227.371,98.1123 226.5,95.5C 226.335,92.1501 226.502,88.8168 227,85.5C 227.278,84.5842 227.778,83.9175 228.5,83.5 Z"/></g>
<g><path style="opacity:1" fill="#d14a4a" d="M 241.5,85.5 C 240.676,88.7644 240.342,92.0977 240.5,95.5C 239.84,94.036 239.507,92.3693 239.5,90.5C 239.556,88.3603 240.223,86.6936 241.5,85.5 Z"/></g>
<g><path style="opacity:1" fill="#c73d3c" d="M 209.5,89.5 C 209.5,90.1667 209.5,90.8333 209.5,91.5C 207.357,93.1307 205.69,95.1307 204.5,97.5C 204.5,96.8333 204.5,96.1667 204.5,95.5C 204.837,92.4744 206.504,90.4744 209.5,89.5 Z"/></g>
<g><path style="opacity:1" fill="#dc1b1d" d="M 69.5,87.5 C 68.2504,90.006 67.5838,92.6726 67.5,95.5C 67.5,96.8333 67.5,98.1667 67.5,99.5C 61.5152,94.2658 62.1819,90.2658 69.5,87.5 Z"/></g>
<g><path style="opacity:1" fill="#e79091" d="M 138.5,91.5 C 139.167,91.8333 139.833,92.1667 140.5,92.5C 141.11,93.391 141.443,94.391 141.5,95.5C 141.5,96.1667 141.5,96.8333 141.5,97.5C 140.508,95.5439 139.508,93.5439 138.5,91.5 Z"/></g>
<g><path style="opacity:1" fill="#f7b1b5" d="M 261.5,81.5 C 263.173,82.343 264.34,83.6763 265,85.5C 265.498,88.8168 265.665,92.1501 265.5,95.5C 265.5,96.1667 265.5,96.8333 265.5,97.5C 264.363,98.7888 263.03,99.7888 261.5,100.5C 263.317,97.8455 264.317,94.8455 264.5,91.5C 264.073,87.9839 263.073,84.6505 261.5,81.5 Z"/></g>
<g><path style="opacity:1" fill="#fbd3d1" d="M 73.5,83.5 C 71.985,86.7016 70.6516,90.0349 69.5,93.5C 69.8457,94.8492 70.179,96.1825 70.5,97.5C 69.5,96.8333 68.5,96.1667 67.5,95.5C 67.5838,92.6726 68.2504,90.006 69.5,87.5C 70.4013,86.7095 71.0679,85.7095 71.5,84.5C 72.1667,84.1667 72.8333,83.8333 73.5,83.5 Z"/></g>
<g><path style="opacity:1" fill="#c01a16" d="M 124.5,82.5 C 124.833,82.5 125.167,82.5 125.5,82.5C 124.29,87.251 122.29,91.5844 119.5,95.5C 113.5,95.5 107.5,95.5 101.5,95.5C 101.5,94.5 101.5,93.5 101.5,92.5C 101.427,90.9731 102.094,89.9731 103.5,89.5C 103.5,91.1667 103.5,92.8333 103.5,94.5C 108.363,94.8195 113.03,94.4861 117.5,93.5C 118.496,93.5858 119.329,93.2524 120,92.5C 121.225,88.9722 122.725,85.6389 124.5,82.5 Z"/></g>
<g><path style="opacity:1" fill="#da1010" d="M 148.5,69.5 C 148.833,69.5 149.167,69.5 149.5,69.5C 149.5,70.1667 149.5,70.8333 149.5,71.5C 149.427,73.0269 150.094,74.0269 151.5,74.5C 152.11,76.4341 153.11,78.1007 154.5,79.5C 155.575,85.6507 158.242,90.984 162.5,95.5C 163.338,95.8417 163.672,96.5084 163.5,97.5C 163.755,99.9674 164.755,101.967 166.5,103.5C 167.338,103.842 167.672,104.508 167.5,105.5C 167.5,106.167 167.5,106.833 167.5,107.5C 165.758,105.442 163.591,103.775 161,102.5C 162.378,97.8564 160.545,95.3564 155.5,95C 156.081,94.1074 156.415,93.1074 156.5,92C 156.065,88.937 155.232,88.7703 154,91.5C 152.847,88.2889 152.18,84.9555 152,81.5C 151.228,80.1509 150.061,79.3176 148.5,79C 149.167,78.6667 149.833,78.3333 150.5,78C 148.679,75.544 148.012,72.7107 148.5,69.5 Z"/></g>
<g><path style="opacity:1" fill="#f9bdbe" d="M 125.5,82.5 C 126.167,82.5 126.833,82.5 127.5,82.5C 126.304,85.4214 125.304,88.4214 124.5,91.5C 123.438,93.4818 122.105,95.3152 120.5,97C 113.654,97.8206 106.987,97.654 100.5,96.5C 107.022,96.8235 113.355,96.4902 119.5,95.5C 122.29,91.5844 124.29,87.251 125.5,82.5 Z"/></g>
<g><path style="opacity:1" fill="#fbdede" d="M 103.5,87.5 C 103.5,88.1667 103.5,88.8333 103.5,89.5C 102.094,89.9731 101.427,90.9731 101.5,92.5C 100.566,93.5676 100.232,94.901 100.5,96.5C 106.987,97.654 113.654,97.8206 120.5,97C 122.105,95.3152 123.438,93.4818 124.5,91.5C 125.189,92.7736 126.023,92.7736 127,91.5C 127.684,92.7839 127.517,93.9505 126.5,95C 129.544,95.3589 129.878,96.0255 127.5,97C 129.9,97.1858 132.234,97.6858 134.5,98.5C 134.167,99.1667 133.833,99.8333 133.5,100.5C 134.989,100.533 136.322,101.033 137.5,102C 136.283,105.466 136.283,108.966 137.5,112.5C 136.833,112.167 136.167,111.833 135.5,111.5C 135.946,108.99 135.28,106.99 133.5,105.5C 133.167,104.833 132.833,104.167 132.5,103.5C 132.67,102.178 132.337,101.011 131.5,100C 125.833,99.8333 120.167,99.6667 114.5,99.5C 108.458,99.5045 102.792,100.171 97.5,101.5C 96.5987,102.29 95.9321,103.29 95.5,104.5C 94.8333,104.833 94.1667,105.167 93.5,105.5C 93.3259,103.139 92.9926,100.806 92.5,98.5C 94.143,98.5198 95.4763,97.8532 96.5,96.5C 97.1667,96.8333 97.8333,97.1667 98.5,97.5C 99.3184,94.8929 99.8184,92.2263 100,89.5C 100.71,88.0267 101.876,87.3601 103.5,87.5 Z"/></g>
<g><path style="opacity:1" fill="#cc5764" d="M 101.5,92.5 C 101.5,93.5 101.5,94.5 101.5,95.5C 107.5,95.5 113.5,95.5 119.5,95.5C 113.355,96.4902 107.022,96.8235 100.5,96.5C 100.232,94.901 100.566,93.5676 101.5,92.5 Z"/></g>
<g><path style="opacity:1" fill="#cb1616" d="M 191.5,79.5 C 191.657,80.8734 191.49,82.2068 191,83.5C 186.868,89.4336 183.034,95.4336 179.5,101.5C 180.698,98.5738 181.698,95.5738 182.5,92.5C 182.328,91.5084 182.662,90.8417 183.5,90.5C 184.906,90.0269 185.573,89.0269 185.5,87.5C 186.338,87.1583 186.672,86.4916 186.5,85.5C 188.949,84.06 190.615,82.06 191.5,79.5 Z"/></g>
<g><path style="opacity:1" fill="#f4a5a8" d="M 243.5,100.5 C 245.404,100.738 246.738,101.738 247.5,103.5C 245.596,103.262 244.262,102.262 243.5,100.5 Z"/></g>
<g><path style="opacity:1" fill="#c02822" d="M 132.5,103.5 C 132.167,103.5 131.833,103.5 131.5,103.5C 131.134,102.305 130.301,101.639 129,101.5C 118.692,102.133 108.525,102.799 98.5,103.5C 97.6618,103.158 97.3284,102.492 97.5,101.5C 102.792,100.171 108.458,99.5045 114.5,99.5C 120.167,99.6667 125.833,99.8333 131.5,100C 132.337,101.011 132.67,102.178 132.5,103.5 Z"/></g>
<g><path style="opacity:1" fill="#f3a8a8" d="M 141.5,97.5 C 143.387,99.7886 144.721,102.455 145.5,105.5C 142.942,103.566 141.609,100.899 141.5,97.5 Z"/></g>
<g><path style="opacity:1" fill="#cd2d29" d="M 265.5,97.5 C 265.657,98.8734 265.49,100.207 265,101.5C 263.066,103.943 260.566,105.276 257.5,105.5C 257.5,105.167 257.5,104.833 257.5,104.5C 258.694,103.728 259.694,102.728 260.5,101.5C 261.167,101.5 261.5,101.167 261.5,100.5C 263.03,99.7888 264.363,98.7888 265.5,97.5 Z"/></g>
<g><path style="opacity:1" fill="#f4adad" d="M 70.5,98.5 C 72.9971,99.1293 74.3304,100.796 74.5,103.5C 72.478,102.493 71.1447,100.826 70.5,98.5 Z"/></g>
<g><path style="opacity:1" fill="#dc1e26" d="M 131.5,103.5 C 120.5,103.5 109.5,103.5 98.5,103.5C 108.525,102.799 118.692,102.133 129,101.5C 130.301,101.639 131.134,102.305 131.5,103.5 Z"/></g>
<g><path style="opacity:1" fill="#dc6a6b" d="M 163.5,97.5 C 165.245,99.0326 166.245,101.033 166.5,103.5C 164.755,101.967 163.755,99.9674 163.5,97.5 Z"/></g>
<g><path style="opacity:1" fill="#e89092" d="M 177.5,100.5 C 177.573,102.027 176.906,103.027 175.5,103.5C 175.427,101.973 176.094,100.973 177.5,100.5 Z"/></g>
<g><path style="opacity:1" fill="#bf1614" d="M 23.5,64.5 C 30.8333,64.5 38.1667,64.5 45.5,64.5C 45.5,66.5 45.5,68.5 45.5,70.5C 44.5655,69.4324 44.2322,68.099 44.5,66.5C 38.021,65.5093 31.3543,65.176 24.5,65.5C 24.1701,82.6749 24.5034,99.6749 25.5,116.5C 27.1667,116.5 28.8333,116.5 30.5,116.5C 35.6405,117.488 40.9738,117.821 46.5,117.5C 46.1805,112.637 46.5139,107.97 47.5,103.5C 47.5,107.833 47.5,112.167 47.5,116.5C 47.6716,117.492 47.3382,118.158 46.5,118.5C 38.8333,118.5 31.1667,118.5 23.5,118.5C 23.5,100.5 23.5,82.5 23.5,64.5 Z"/></g>
<g><path style="opacity:1" fill="#c64444" d="M 182.5,92.5 C 181.698,95.5738 180.698,98.5738 179.5,101.5C 178.599,102.29 177.932,103.29 177.5,104.5C 176.549,105.919 176.216,107.585 176.5,109.5C 174.787,108.365 174.12,106.698 174.5,104.5C 174.5,103.833 174.833,103.5 175.5,103.5C 176.906,103.027 177.573,102.027 177.5,100.5C 178.803,97.5687 180.469,94.902 182.5,92.5 Z"/></g>
<g><path style="opacity:1" fill="#fddde0" d="M 209.5,91.5 C 207.954,93.8825 207.287,96.5491 207.5,99.5C 206.5,99.5 205.5,99.5 204.5,99.5C 204.5,100.833 204.5,102.167 204.5,103.5C 210.69,103.177 216.69,103.51 222.5,104.5C 216.167,104.5 209.833,104.5 203.5,104.5C 203.5,102.833 203.5,101.167 203.5,99.5C 203.328,98.5084 203.662,97.8417 204.5,97.5C 205.69,95.1307 207.357,93.1307 209.5,91.5 Z"/></g>
<g><path style="opacity:1" fill="#ffc8c9" d="M 260.5,101.5 C 259.694,102.728 258.694,103.728 257.5,104.5C 253.958,104.813 250.625,104.479 247.5,103.5C 252.079,103.847 256.412,103.18 260.5,101.5 Z"/></g>
<g><path style="opacity:1" fill="#cd2f29" d="M 67.5,95.5 C 68.5,96.1667 69.5,96.8333 70.5,97.5C 70.5,97.8333 70.5,98.1667 70.5,98.5C 71.1447,100.826 72.478,102.493 74.5,103.5C 75.6005,104.605 76.2671,105.938 76.5,107.5C 72.5301,105.86 69.5301,103.193 67.5,99.5C 67.5,98.1667 67.5,96.8333 67.5,95.5 Z"/></g>
<g><path style="opacity:1" fill="#f93d43" d="M 97.5,101.5 C 97.3284,102.492 97.6618,103.158 98.5,103.5C 109.5,103.5 120.5,103.5 131.5,103.5C 131.833,103.5 132.167,103.5 132.5,103.5C 132.833,104.167 133.167,104.833 133.5,105.5C 120.833,105.5 108.167,105.5 95.5,105.5C 95.5,105.167 95.5,104.833 95.5,104.5C 95.9321,103.29 96.5987,102.29 97.5,101.5 Z"/></g>
<g><path style="opacity:1" fill="#f0a4a6" d="M 203.5,99.5 C 203.5,101.167 203.5,102.833 203.5,104.5C 209.833,104.5 216.167,104.5 222.5,104.5C 222.5,104.833 222.5,105.167 222.5,105.5C 215.5,105.5 208.5,105.5 201.5,105.5C 201.259,103.102 201.926,101.102 203.5,99.5 Z"/></g>
<g><path style="opacity:1" fill="#d13f40" d="M 240.5,95.5 C 241.89,96.8993 242.89,98.5659 243.5,100.5C 244.262,102.262 245.596,103.262 247.5,103.5C 250.625,104.479 253.958,104.813 257.5,104.5C 257.5,104.833 257.5,105.167 257.5,105.5C 253.5,105.5 249.5,105.5 245.5,105.5C 244.527,103.861 243.194,102.527 241.5,101.5C 240.85,99.5648 240.517,97.5648 240.5,95.5 Z"/></g>
<g><path style="opacity:1" fill="#da0d0e" d="M 141.5,95.5 C 142.5,95.5 143.5,95.5 144.5,95.5C 145.759,98.366 146.759,101.366 147.5,104.5C 148.5,104.5 149.5,104.5 150.5,104.5C 150.371,106.216 150.038,107.883 149.5,109.5C 148.9,108.1 147.9,107.1 146.5,106.5C 146.5,105.833 146.167,105.5 145.5,105.5C 144.721,102.455 143.387,99.7886 141.5,97.5C 141.5,96.8333 141.5,96.1667 141.5,95.5 Z"/></g>
<g><path style="opacity:1" fill="#d11b1a" d="M 276.5,103.5 C 276.167,104.833 275.833,106.167 275.5,107.5C 273.554,108.035 272.554,109.368 272.5,111.5C 269.865,112.811 267.531,114.478 265.5,116.5C 263.883,117.038 262.216,117.371 260.5,117.5C 255.305,117.821 250.305,117.487 245.5,116.5C 250.511,116.666 255.511,116.499 260.5,116C 261.047,115.075 261.713,114.242 262.5,113.5C 266.727,114.704 268.727,113.037 268.5,108.5C 269.5,108.5 270.5,108.5 271.5,108.5C 271.5,107.5 271.5,106.5 271.5,105.5C 273.322,105.169 274.989,104.502 276.5,103.5 Z"/></g>
<g><path style="opacity:1" fill="#f1a7a9" d="M 228.5,103.5 C 229.89,104.899 230.89,106.566 231.5,108.5C 230.833,108.167 230.167,107.833 229.5,107.5C 228.566,106.432 228.232,105.099 228.5,103.5 Z"/></g>
<g><path style="opacity:1" fill="#ce1314" d="M 245.5,105.5 C 249.5,105.5 253.5,105.5 257.5,105.5C 256.486,106.765 254.986,107.431 253,107.5C 250.179,107.592 247.679,106.926 245.5,105.5 Z"/></g>
<g><path style="opacity:1" fill="#eaa0a0" d="M 95.5,104.5 C 95.5,104.833 95.5,105.167 95.5,105.5C 94.8902,106.391 94.5569,107.391 94.5,108.5C 94.5,109.833 93.8333,110.5 92.5,110.5C 92.366,108.708 92.6993,107.042 93.5,105.5C 94.1667,105.167 94.8333,104.833 95.5,104.5 Z"/></g>
<g><path style="opacity:1" fill="#d31014" d="M 95.5,105.5 C 108.167,105.5 120.833,105.5 133.5,105.5C 133.5,106.5 133.5,107.5 133.5,108.5C 120.5,108.5 107.5,108.5 94.5,108.5C 94.5569,107.391 94.8902,106.391 95.5,105.5 Z"/></g>
<g><path style="opacity:1" fill="#e1777b" d="M 167.5,105.5 C 168.906,105.973 169.573,106.973 169.5,108.5C 168.833,108.167 168.167,107.833 167.5,107.5C 167.5,106.833 167.5,106.167 167.5,105.5 Z"/></g>
<g><path style="opacity:1" fill="#d90f0f" d="M 204.5,95.5 C 204.5,96.1667 204.5,96.8333 204.5,97.5C 203.662,97.8417 203.328,98.5084 203.5,99.5C 201.926,101.102 201.259,103.102 201.5,105.5C 208.313,106.491 215.313,106.825 222.5,106.5C 222.813,110.042 222.479,113.375 221.5,116.5C 221.5,113.5 221.5,110.5 221.5,107.5C 214.167,108.167 206.833,108.833 199.5,109.5C 199.335,106.15 199.502,102.817 200,99.5C 201.468,98.0107 202.968,96.6774 204.5,95.5 Z"/></g>
<g><path style="opacity:1" fill="#fdd5d9" d="M 222.5,105.5 C 222.5,105.167 222.5,104.833 222.5,104.5C 223.496,104.414 224.329,104.748 225,105.5C 225.812,109.689 225.645,113.689 224.5,117.5C 224.815,113.629 224.482,109.962 223.5,106.5C 223.5,105.833 223.167,105.5 222.5,105.5 Z"/></g>
<g><path style="opacity:1" fill="#d85c63" d="M 231.5,108.5 C 232.167,108.5 232.833,108.5 233.5,108.5C 234.11,109.391 234.443,110.391 234.5,111.5C 233.167,110.833 232.167,109.833 231.5,108.5 Z"/></g>
<g><path style="opacity:1" fill="#f7575f" d="M 133.5,105.5 C 135.28,106.99 135.946,108.99 135.5,111.5C 134.833,111.5 134.167,111.5 133.5,111.5C 126.345,110.671 119.011,110.171 111.5,110C 119.011,109.829 126.345,109.329 133.5,108.5C 133.5,107.5 133.5,106.5 133.5,105.5 Z"/></g>
<g><path style="opacity:1" fill="#d03938" d="M 146.5,106.5 C 147.9,107.1 148.9,108.1 149.5,109.5C 149.557,110.609 149.89,111.609 150.5,112.5C 151.11,113.391 151.443,114.391 151.5,115.5C 150.833,115.167 150.167,114.833 149.5,114.5C 148.195,111.947 147.195,109.28 146.5,106.5 Z"/></g>
<g><path style="opacity:1" fill="#e69189" d="M 275.5,107.5 C 274.833,108.833 274.167,110.167 273.5,111.5C 273.167,111.5 272.833,111.5 272.5,111.5C 272.554,109.368 273.554,108.035 275.5,107.5 Z"/></g>
<g><path style="opacity:1" fill="#e70506" d="M 44.5,66.5 C 44.2322,68.099 44.5655,69.4324 45.5,70.5C 45.1778,76.358 45.5111,82.0247 46.5,87.5C 47.1667,87.5 47.8333,87.5 48.5,87.5C 51.1128,86.2669 52.7794,84.2669 53.5,81.5C 53.3932,83.3786 53.8932,83.7119 55,82.5C 55.6667,84.1667 55.6667,85.8333 55,87.5C 54.2588,86.3595 53.4255,86.3595 52.5,87.5C 51.8333,88.8333 51.1667,90.1667 50.5,91.5C 46.4915,93.4414 46.4915,94.1081 50.5,93.5C 51.354,94.5217 52.354,95.3551 53.5,96C 51.6161,96.2163 49.9494,96.883 48.5,98C 50.5202,99.2166 52.5202,99.3833 54.5,98.5C 54.9986,101.217 56.1653,103.551 58,105.5C 58.4955,107.473 58.6621,109.473 58.5,111.5C 62.6092,113.019 66.9425,113.853 71.5,114C 68.7737,114.182 66.1071,114.682 63.5,115.5C 64.8333,115.833 66.1667,116.167 67.5,116.5C 70.8167,115.947 74.15,115.614 77.5,115.5C 77.5,114.5 77.5,113.5 77.5,112.5C 79.7012,112.858 81.0345,114.192 81.5,116.5C 74.5237,117.664 67.5237,117.831 60.5,117C 59.9221,115.583 58.9221,114.75 57.5,114.5C 57.5,113.5 57.5,112.5 57.5,111.5C 58.467,107.149 56.8004,104.815 52.5,104.5C 52.9118,102.027 51.9118,100.694 49.5,100.5C 48.469,99.7515 47.3024,99.0848 46,98.5C 45.6667,98.8333 45.3333,99.1667 45,99.5C 44.5006,105.157 44.3339,110.824 44.5,116.5C 39.8333,116.5 35.1667,116.5 30.5,116.5C 28.8333,116.5 27.1667,116.5 25.5,116.5C 25.5,99.8333 25.5,83.1667 25.5,66.5C 31.8333,66.5 38.1667,66.5 44.5,66.5 Z"/></g>
<g><path style="opacity:1" fill="#e37d77" d="M 53.5,108.5 C 54.9063,108.973 55.573,109.973 55.5,111.5C 54.8333,111.167 54.1667,110.833 53.5,110.5C 53.5,109.833 53.5,109.167 53.5,108.5 Z"/></g>
<g><path style="opacity:1" fill="#d31312" d="M 49.5,100.5 C 51.9118,100.694 52.9118,102.027 52.5,104.5C 56.8004,104.815 58.467,107.149 57.5,111.5C 56.8333,111.5 56.1667,111.5 55.5,111.5C 55.573,109.973 54.9063,108.973 53.5,108.5C 53.573,106.973 52.9063,105.973 51.5,105.5C 51.6716,104.508 51.3382,103.842 50.5,103.5C 50.4431,102.391 50.1098,101.391 49.5,100.5 Z"/></g>
<g><path style="opacity:1" fill="#e28485" d="M 51.5,105.5 C 52.9063,105.973 53.573,106.973 53.5,108.5C 52.0937,108.027 51.427,107.027 51.5,105.5 Z"/></g>
<g><path style="opacity:1" fill="#fab3b6" d="M 47.5,102.5 C 48.609,102.557 49.609,102.89 50.5,103.5C 51.3382,103.842 51.6716,104.508 51.5,105.5C 50.5,105.5 49.5,105.5 48.5,105.5C 48.815,109.371 48.4816,113.038 47.5,116.5C 47.5,112.167 47.5,107.833 47.5,103.5C 47.5,103.167 47.5,102.833 47.5,102.5 Z"/></g>
<g><path style="opacity:1" fill="#f7777a" d="M 49.5,100.5 C 50.1098,101.391 50.4431,102.391 50.5,103.5C 49.609,102.89 48.609,102.557 47.5,102.5C 47.5,101.167 48.1667,100.5 49.5,100.5 Z"/></g>
<g><path style="opacity:1" fill="#f191a0" d="M 51.5,81.5 C 51.573,83.0269 50.9063,84.0269 49.5,84.5C 49.427,82.9731 50.0937,81.9731 51.5,81.5 Z"/></g>
<g><path style="opacity:1" fill="#f30103" d="M 27.5,68.5 C 28.1515,69.0906 28.8182,69.7573 29.5,70.5C 34.1873,69.2223 38.854,69.3889 43.5,71C 42.3611,76.4162 42.1944,81.9162 43,87.5C 43.1629,89.676 43.9963,91.5093 45.5,93C 43.9109,94.7454 41.9109,95.912 39.5,96.5C 40.1054,98.4812 41.1054,98.8146 42.5,97.5C 43.4941,102.456 43.8275,107.456 43.5,112.5C 38.0712,112.262 32.7379,112.262 27.5,112.5C 26.2,97.8001 26.2,83.1334 27.5,68.5 Z"/></g>
<g><path style="opacity:1" fill="#d75255" d="M 55.5,111.5 C 56.1667,111.5 56.8333,111.5 57.5,111.5C 57.5,112.5 57.5,113.5 57.5,114.5C 56.0937,114.027 55.427,113.027 55.5,111.5 Z"/></g>
<g><path style="opacity:1" fill="#d20c0f" d="M 233.5,108.5 C 238.221,108.893 241.555,111.226 243.5,115.5C 242.167,115.5 240.833,115.5 239.5,115.5C 239.027,114.094 238.027,113.427 236.5,113.5C 236.167,112.5 235.5,111.833 234.5,111.5C 234.443,110.391 234.11,109.391 233.5,108.5 Z"/></g>
<g><path style="opacity:1" fill="#f8c9c5" d="M 272.5,111.5 C 272.833,111.5 273.167,111.5 273.5,111.5C 272.061,114.893 269.394,116.56 265.5,116.5C 267.531,114.478 269.865,112.811 272.5,111.5 Z"/></g>
<g><path style="opacity:1" fill="#e18688" d="M 223.5,106.5 C 224.482,109.962 224.815,113.629 224.5,117.5C 224.672,118.492 224.338,119.158 223.5,119.5C 208.99,119.829 194.657,119.496 180.5,118.5C 194.833,118.5 209.167,118.5 223.5,118.5C 223.5,114.5 223.5,110.5 223.5,106.5 Z"/></g>
<g><path style="opacity:1" fill="#d8767b" d="M 236.5,113.5 C 238.027,113.427 239.027,114.094 239.5,115.5C 237.973,115.573 236.973,114.906 236.5,113.5 Z"/></g>
<g><path style="opacity:1" fill="#ec3e41" d="M 94.5,108.5 C 107.5,108.5 120.5,108.5 133.5,108.5C 126.345,109.329 119.011,109.829 111.5,110C 119.011,110.171 126.345,110.671 133.5,111.5C 120.15,111.167 106.817,111.501 93.5,112.5C 93.2907,113.086 92.9574,113.586 92.5,114C 106.829,114.5 121.163,114.667 135.5,114.5C 135.5,113.5 135.5,112.5 135.5,111.5C 136.167,111.833 136.833,112.167 137.5,112.5C 137.433,113.959 137.766,115.292 138.5,116.5C 122.458,117.805 106.458,117.805 90.5,116.5C 90.2525,114.142 90.9192,112.142 92.5,110.5C 93.8333,110.5 94.5,109.833 94.5,108.5 Z"/></g>
<g><path style="opacity:1" fill="#d60d12" d="M 133.5,111.5 C 134.167,111.5 134.833,111.5 135.5,111.5C 135.5,112.5 135.5,113.5 135.5,114.5C 121.163,114.667 106.829,114.5 92.5,114C 92.9574,113.586 93.2907,113.086 93.5,112.5C 106.817,111.501 120.15,111.167 133.5,111.5 Z"/></g>
<g><path style="opacity:1" fill="#d60c13" d="M 49.5,100.5 C 48.1667,100.5 47.5,101.167 47.5,102.5C 47.5,102.833 47.5,103.167 47.5,103.5C 46.5139,107.97 46.1805,112.637 46.5,117.5C 40.9738,117.821 35.6405,117.488 30.5,116.5C 35.1667,116.5 39.8333,116.5 44.5,116.5C 44.3339,110.824 44.5006,105.157 45,99.5C 45.3333,99.1667 45.6667,98.8333 46,98.5C 47.3024,99.0848 48.469,99.7515 49.5,100.5 Z"/></g>
<g><path style="opacity:1" fill="#fbcecc" d="M 145.5,105.5 C 146.167,105.5 146.5,105.833 146.5,106.5C 147.195,109.28 148.195,111.947 149.5,114.5C 149.427,116.027 150.094,117.027 151.5,117.5C 151.5,117.833 151.5,118.167 151.5,118.5C 151.5,118.833 151.5,119.167 151.5,119.5C 148.368,117.797 146.701,115.13 146.5,111.5C 145.85,109.565 145.517,107.565 145.5,105.5 Z"/></g>
<g><path style="opacity:1" fill="#d7737b" d="M 149.5,114.5 C 150.167,114.833 150.833,115.167 151.5,115.5C 151.5,116.167 151.5,116.833 151.5,117.5C 150.094,117.027 149.427,116.027 149.5,114.5 Z"/></g>
<g><path style="opacity:1" fill="#cd0d0c" d="M 167.5,107.5 C 168.167,107.833 168.833,108.167 169.5,108.5C 169.604,110.703 170.27,112.703 171.5,114.5C 171.5,115.5 171.5,116.5 171.5,117.5C 164.833,117.5 158.167,117.5 151.5,117.5C 151.5,116.833 151.5,116.167 151.5,115.5C 151.443,114.391 151.11,113.391 150.5,112.5C 152.134,113.207 153.468,114.373 154.5,116C 159.489,116.499 164.489,116.666 169.5,116.5C 167.692,113.666 167.025,110.666 167.5,107.5 Z"/></g>
<g><path style="opacity:1" fill="#fadedc" d="M 53.5,110.5 C 54.1667,110.833 54.8333,111.167 55.5,111.5C 55.427,113.027 56.0937,114.027 57.5,114.5C 58.0256,116.23 59.0256,117.564 60.5,118.5C 67.6476,119.492 74.9809,119.825 82.5,119.5C 73.3189,120.702 63.9856,120.702 54.5,119.5C 54.2962,116.482 53.9629,113.482 53.5,110.5 Z"/></g>
<g><path style="opacity:1" fill="#b6211e" d="M 76.5,107.5 C 78.7447,109.678 80.7447,112.012 82.5,114.5C 82.5394,115.583 82.8728,116.583 83.5,117.5C 75.8622,118.497 68.1955,118.831 60.5,118.5C 59.0256,117.564 58.0256,116.23 57.5,114.5C 58.9221,114.75 59.9221,115.583 60.5,117C 67.5237,117.831 74.5237,117.664 81.5,116.5C 81.0345,114.192 79.7012,112.858 77.5,112.5C 76.5489,111.081 76.2155,109.415 76.5,107.5 Z"/></g>
<g><path style="opacity:1" fill="#ae1617" d="M 171.5,114.5 C 172.434,115.568 172.768,116.901 172.5,118.5C 165.5,118.5 158.5,118.5 151.5,118.5C 151.5,118.167 151.5,117.833 151.5,117.5C 158.167,117.5 164.833,117.5 171.5,117.5C 171.5,116.5 171.5,115.5 171.5,114.5 Z"/></g>
<g><path style="opacity:1" fill="#bb2527" d="M 177.5,104.5 C 177.698,109.262 179.365,113.428 182.5,117C 195.673,117.827 208.673,117.66 221.5,116.5C 222.479,113.375 222.813,110.042 222.5,106.5C 215.313,106.825 208.313,106.491 201.5,105.5C 208.5,105.5 215.5,105.5 222.5,105.5C 223.167,105.5 223.5,105.833 223.5,106.5C 223.5,110.5 223.5,114.5 223.5,118.5C 209.167,118.5 194.833,118.5 180.5,118.5C 179.424,115.352 178.091,112.352 176.5,109.5C 176.216,107.585 176.549,105.919 177.5,104.5 Z"/></g>
<g><path style="opacity:1" fill="#faebe8" d="M 229.5,107.5 C 230.167,107.833 230.833,108.167 231.5,108.5C 232.167,109.833 233.167,110.833 234.5,111.5C 235.5,111.833 236.167,112.5 236.5,113.5C 236.973,114.906 237.973,115.573 239.5,115.5C 241.181,117.008 243.181,118.008 245.5,118.5C 245.5,118.833 245.5,119.167 245.5,119.5C 242.5,119.5 239.5,119.5 236.5,119.5C 236.338,117.176 235.172,115.509 233,114.5C 232.667,114.833 232.333,115.167 232,115.5C 231.059,112.846 230.226,110.179 229.5,107.5 Z"/></g>
<g><path style="opacity:1" fill="#bf373a" d="M 239.5,115.5 C 240.833,115.5 242.167,115.5 243.5,115.5C 243.842,116.338 244.508,116.672 245.5,116.5C 250.305,117.487 255.305,117.821 260.5,117.5C 255.695,118.487 250.695,118.821 245.5,118.5C 243.181,118.008 241.181,117.008 239.5,115.5 Z"/></g>
<g><path style="opacity:1" fill="#f0a4a4" d="M 265.5,116.5 C 264.653,117.966 263.32,118.8 261.5,119C 256.177,119.499 250.844,119.666 245.5,119.5C 245.5,119.167 245.5,118.833 245.5,118.5C 250.695,118.821 255.695,118.487 260.5,117.5C 262.216,117.371 263.883,117.038 265.5,116.5 Z"/></g>
<g><path style="opacity:1" fill="#d46e6e" d="M 82.5,114.5 C 83.5,115.167 84.5,115.833 85.5,116.5C 85.4431,117.609 85.1098,118.609 84.5,119.5C 83.8333,119.5 83.1667,119.5 82.5,119.5C 74.9809,119.825 67.6476,119.492 60.5,118.5C 68.1955,118.831 75.8622,118.497 83.5,117.5C 82.8728,116.583 82.5394,115.583 82.5,114.5 Z"/></g>
<g><path style="opacity:1" fill="#d57174" d="M 88.5,116.5 C 88.8333,116.5 89.1667,116.5 89.5,116.5C 97.3049,117.831 105.472,118.498 114,118.5C 122.528,118.498 130.695,117.831 138.5,116.5C 139.833,117.5 139.833,118.5 138.5,119.5C 121.833,119.5 105.167,119.5 88.5,119.5C 88.5,118.5 88.5,117.5 88.5,116.5 Z"/></g>
<g><path style="opacity:1" fill="#a8131f" d="M 89.5,116.5 C 89.8333,116.5 90.1667,116.5 90.5,116.5C 106.458,117.805 122.458,117.805 138.5,116.5C 130.695,117.831 122.528,118.498 114,118.5C 105.472,118.498 97.3049,117.831 89.5,116.5 Z"/></g>
<g><path style="opacity:1" fill="#d97170" d="M 169.5,108.5 C 170.857,109.59 171.857,110.924 172.5,112.5C 173.369,114.717 173.702,117.05 173.5,119.5C 166.167,119.5 158.833,119.5 151.5,119.5C 151.5,119.167 151.5,118.833 151.5,118.5C 158.5,118.5 165.5,118.5 172.5,118.5C 172.768,116.901 172.434,115.568 171.5,114.5C 170.27,112.703 169.604,110.703 169.5,108.5 Z"/></g>
<g><path style="opacity:1" fill="#fadadd" d="M 51.5,105.5 C 51.427,107.027 52.0937,108.027 53.5,108.5C 53.5,109.167 53.5,109.833 53.5,110.5C 51.8706,112.06 50.704,111.727 50,109.5C 49.9345,113.233 49.1011,116.733 47.5,120C 39.3225,120.823 31.3225,120.656 23.5,119.5C 31.3516,119.825 39.0182,119.492 46.5,118.5C 47.3382,118.158 47.6716,117.492 47.5,116.5C 48.4816,113.038 48.815,109.371 48.5,105.5C 49.5,105.5 50.5,105.5 51.5,105.5 Z"/></g>
<g><path style="opacity:1" fill="#f9d4db" d="M 85.5,116.5 C 86.5,116.5 87.5,116.5 88.5,116.5C 88.5,117.5 88.5,118.5 88.5,119.5C 105.167,119.5 121.833,119.5 138.5,119.5C 121.675,120.497 104.675,120.83 87.5,120.5C 87.631,119.761 87.4643,119.094 87,118.5C 86.3292,119.252 85.4959,119.586 84.5,119.5C 85.1098,118.609 85.4431,117.609 85.5,116.5 Z"/></g>
<g><path style="opacity:1" fill="#f8d1d2" d="M 174.5,104.5 C 174.12,106.698 174.787,108.365 176.5,109.5C 178.091,112.352 179.424,115.352 180.5,118.5C 194.657,119.496 208.99,119.829 223.5,119.5C 208.995,120.826 194.328,120.826 179.5,119.5C 176.788,113.082 174.788,113.082 173.5,119.5C 173.702,117.05 173.369,114.717 172.5,112.5C 173.167,109.833 173.833,107.167 174.5,104.5 Z"/></g>
</svg>
