<?xml version="1.0" encoding="UTF-8"?>
<!DOCTYPE svg PUBLIC "-//W3C//DTD SVG 1.1//EN" "http://www.w3.org/Graphics/SVG/1.1/DTD/svg11.dtd">
<svg xmlns="http://www.w3.org/2000/svg" version="1.1" width="219px" height="148px" style="shape-rendering:geometricPrecision; text-rendering:geometricPrecision; image-rendering:optimizeQuality; fill-rule:evenodd; clip-rule:evenodd" xmlns:xlink="http://www.w3.org/1999/xlink">
<g><path style="opacity:1" fill="#fdfdfd" d="M -0.5,-0.5 C 72.5,-0.5 145.5,-0.5 218.5,-0.5C 218.5,48.8333 218.5,98.1667 218.5,147.5C 145.5,147.5 72.5,147.5 -0.5,147.5C -0.5,98.1667 -0.5,48.8333 -0.5,-0.5 Z"/></g>
<g><path style="opacity:1" fill="#121212" d="M 96.5,89.5 C 96.6664,81.16 96.4997,72.8267 96,64.5C 95.6174,63.944 95.1174,63.6107 94.5,63.5C 88.5,63.5 82.5,63.5 76.5,63.5C 76.5,72.1667 76.5,80.8333 76.5,89.5C 74.1667,89.5 71.8333,89.5 69.5,89.5C 69.5,78.1667 69.5,66.8333 69.5,55.5C 78.5062,55.3336 87.5062,55.5002 96.5,56C 99.3807,57.2506 101.214,59.4173 102,62.5C 102.5,71.4938 102.666,80.4938 102.5,89.5C 100.5,89.5 98.5,89.5 96.5,89.5 Z"/></g>
<g><path style="opacity:1" fill="#0e0e0e" d="M 152.5,55.5 C 152.5,57.8333 152.5,60.1667 152.5,62.5C 144.316,62.1743 136.316,62.5076 128.5,63.5C 126.418,64.5849 126.084,66.0849 127.5,68C 134.167,68.3333 140.833,68.6667 147.5,69C 155.749,76.2181 155.415,82.8848 146.5,89C 137.84,89.4998 129.173,89.6664 120.5,89.5C 120.5,86.8333 120.5,84.1667 120.5,81.5C 128.84,81.6664 137.173,81.4997 145.5,81C 146.833,79.6667 146.833,78.3333 145.5,77C 139.5,76.6667 133.5,76.3333 127.5,76C 120.765,72.6781 118.931,67.5114 122,60.5C 122.785,58.714 123.951,57.214 125.5,56C 134.494,55.5002 143.494,55.3336 152.5,55.5 Z"/></g>
<g><path style="opacity:1" fill="#0e0e0e" d="M 192.5,63.5 C 192.72,70.5433 192.386,77.5433 191.5,84.5C 190.229,86.9339 188.229,88.4339 185.5,89C 178.392,89.9239 171.392,89.5906 164.5,88C 162.951,86.786 161.785,85.286 161,83.5C 160.333,76.1667 160.333,68.8333 161,61.5C 162.122,59.3762 163.622,57.5429 165.5,56C 172.5,55.3333 179.5,55.3333 186.5,56C 189.817,57.4802 191.817,59.9802 192.5,63.5 Z"/></g>
<g><path style="opacity:1" fill="#121212" d="M 25.5,55.5 C 27.8333,55.5 30.1667,55.5 32.5,55.5C 32.5,59.8333 32.5,64.1667 32.5,68.5C 35.5184,68.6646 38.5184,68.498 41.5,68C 44.4148,64.172 47.0814,60.172 49.5,56C 51.1341,55.5065 52.8008,55.3398 54.5,55.5C 52.932,61.14 50.932,66.64 48.5,72C 50.6809,77.5326 53.0142,83.0326 55.5,88.5C 53.5787,89.641 51.5787,89.8077 49.5,89C 47.7714,84.8762 45.7714,80.8762 43.5,77C 39.8484,76.5014 36.1817,76.3347 32.5,76.5C 32.5,80.8333 32.5,85.1667 32.5,89.5C 30.1667,89.5 27.8333,89.5 25.5,89.5C 25.5,78.1667 25.5,66.8333 25.5,55.5 Z"/></g>
<g><path style="opacity:1" fill="#141414" d="M 58.5,55.5 C 60.8333,55.5 63.1667,55.5 65.5,55.5C 65.5,66.8333 65.5,78.1667 65.5,89.5C 63.1667,89.5 60.8333,89.5 58.5,89.5C 58.5,78.1667 58.5,66.8333 58.5,55.5 Z"/></g>
<g><path style="opacity:1" fill="#111111" d="M 107.5,55.5 C 109.833,55.5 112.167,55.5 114.5,55.5C 114.5,66.8333 114.5,78.1667 114.5,89.5C 112.167,89.5 109.833,89.5 107.5,89.5C 107.5,78.1667 107.5,66.8333 107.5,55.5 Z"/></g>
<g><path style="opacity:1" fill="#3c3c3c" d="M 152.5,55.5 C 153.473,57.9479 153.806,60.6146 153.5,63.5C 145.167,63.5 136.833,63.5 128.5,63.5C 136.316,62.5076 144.316,62.1743 152.5,62.5C 152.5,60.1667 152.5,57.8333 152.5,55.5 Z"/></g>
<g><path style="opacity:1" fill="#f3f3f3" d="M 167.5,63.5 C 173.537,63.1707 179.537,63.5041 185.5,64.5C 186.833,69.8333 186.833,75.1667 185.5,80.5C 179.528,81.6636 173.528,81.8303 167.5,81C 166.187,75.167 166.187,69.3337 167.5,63.5 Z"/></g>
<g><path style="opacity:1" fill="#5c5c5c" d="M 94.5,63.5 C 95.1174,63.6107 95.6174,63.944 96,64.5C 96.4997,72.8267 96.6664,81.16 96.5,89.5C 95.7788,80.9636 95.1121,72.2969 94.5,63.5 Z"/></g>
<g><path style="opacity:1" fill="#9e9e9e" d="M 192.5,63.5 C 193.653,69.6529 193.82,75.9863 193,82.5C 192.722,83.4158 192.222,84.0825 191.5,84.5C 192.386,77.5433 192.72,70.5433 192.5,63.5 Z"/></g>
<g><path style="opacity:1" fill="#020202" d="M 82.5,67.5 C 84.5,67.5 86.5,67.5 88.5,67.5C 88.5,74.8333 88.5,82.1667 88.5,89.5C 86.5,89.5 84.5,89.5 82.5,89.5C 82.5,82.1667 82.5,74.8333 82.5,67.5 Z"/></g>
</svg>
