<?xml version="1.0" encoding="UTF-8"?>
<!DOCTYPE svg PUBLIC "-//W3C//DTD SVG 1.1//EN" "http://www.w3.org/Graphics/SVG/1.1/DTD/svg11.dtd">
<svg xmlns="http://www.w3.org/2000/svg" version="1.1" width="225px" height="225px" style="shape-rendering:geometricPrecision; text-rendering:geometricPrecision; image-rendering:optimizeQuality; fill-rule:evenodd; clip-rule:evenodd" xmlns:xlink="http://www.w3.org/1999/xlink">
<g><path style="opacity:1" fill="#fefdfe" d="M -0.5,-0.5 C 74.5,-0.5 149.5,-0.5 224.5,-0.5C 224.5,74.5 224.5,149.5 224.5,224.5C 149.5,224.5 74.5,224.5 -0.5,224.5C -0.5,149.5 -0.5,74.5 -0.5,-0.5 Z"/></g>
<g><path style="opacity:1" fill="#134899" d="M 149.5,70.5 C 151.182,77.7121 151.848,85.0455 151.5,92.5C 151.672,93.4916 151.338,94.1583 150.5,94.5C 151.136,79.9288 144.802,69.7621 131.5,64C 126.413,62.9123 121.747,63.7456 117.5,66.5C 111.903,64.4144 106.236,64.081 100.5,65.5C 100.833,64.1667 101.167,62.8333 101.5,61.5C 105.229,54.2515 111.229,51.4182 119.5,53C 116.256,51.5301 112.923,50.3634 109.5,49.5C 106.5,48.8333 103.5,48.1667 100.5,47.5C 117.416,43.3585 131.916,47.6918 144,60.5C 146.112,63.7271 147.945,67.0604 149.5,70.5 Z"/></g>
<g><path style="opacity:1" fill="#70a1c8" d="M 100.5,47.5 C 103.5,48.1667 106.5,48.8333 109.5,49.5C 104.44,49.5077 99.4399,49.6744 94.5,50C 96.1691,48.331 98.1691,47.4977 100.5,47.5 Z"/></g>
<g><path style="opacity:1" fill="#84a7c6" d="M 101.5,61.5 C 101.167,62.8333 100.833,64.1667 100.5,65.5C 100.5,67.1667 100.5,68.8333 100.5,70.5C 99.3659,68.0336 99.1993,65.367 100,62.5C 100.383,61.944 100.883,61.6107 101.5,61.5 Z"/></g>
<g><path style="opacity:1" fill="#fc2838" d="M 150.5,94.5 C 148.681,108.466 141.014,117.466 127.5,121.5C 122.821,121.666 118.155,121.499 113.5,121C 121.015,120.306 126.015,116.472 128.5,109.5C 129.853,105.444 129.353,101.444 127,97.5C 123.701,94.0216 120.034,91.0216 116,88.5C 110.961,80.7056 111.461,73.3723 117.5,66.5C 121.747,63.7456 126.413,62.9123 131.5,64C 144.802,69.7621 151.136,79.9288 150.5,94.5 Z"/></g>
<g><path style="opacity:1" fill="#94bada" d="M 75.5,82.5 C 74.8826,82.3893 74.3826,82.056 74,81.5C 73.5014,85.1516 73.3347,88.8183 73.5,92.5C 72.3493,87.3497 72.1826,82.0164 73,76.5C 73.2492,75.376 73.7492,74.376 74.5,73.5C 75.4841,76.4281 75.8174,79.4281 75.5,82.5 Z"/></g>
<g><path style="opacity:1" fill="#5991be" d="M 149.5,70.5 C 150.6,72.2774 151.434,74.2774 152,76.5C 152.817,82.0164 152.651,87.3497 151.5,92.5C 151.848,85.0455 151.182,77.7121 149.5,70.5 Z"/></g>
<g><path style="opacity:1" fill="#123167" d="M 117.5,66.5 C 111.461,73.3723 110.961,80.7056 116,88.5C 120.034,91.0216 123.701,94.0216 127,97.5C 129.353,101.444 129.853,105.444 128.5,109.5C 129.124,104.608 127.458,103.442 123.5,106C 115.921,107.76 109.254,106.26 103.5,101.5C 110.528,92.4828 110.028,83.8162 102,75.5C 101.392,73.8455 100.892,72.1789 100.5,70.5C 100.5,68.8333 100.5,67.1667 100.5,65.5C 106.236,64.081 111.903,64.4144 117.5,66.5 Z"/></g>
<g><path style="opacity:1" fill="#0d4598" d="M 75.5,82.5 C 76.135,90.9355 79.8017,97.7688 86.5,103C 92.5008,105.348 98.1675,104.848 103.5,101.5C 109.254,106.26 115.921,107.76 123.5,106C 127.458,103.442 129.124,104.608 128.5,109.5C 126.015,116.472 121.015,120.306 113.5,121C 118.155,121.499 122.821,121.666 127.5,121.5C 126.5,122.167 125.5,122.833 124.5,123.5C 117.869,124.331 111.202,124.664 104.5,124.5C 88.1027,119.769 77.7694,109.102 73.5,92.5C 73.3347,88.8183 73.5014,85.1516 74,81.5C 74.3826,82.056 74.8826,82.3893 75.5,82.5 Z"/></g>
<g><path style="opacity:1" fill="#a3c5e0" d="M 124.5,123.5 C 120.966,125.048 117.133,125.714 113,125.5C 109.979,125.498 107.146,125.164 104.5,124.5C 111.202,124.664 117.869,124.331 124.5,123.5 Z"/></g>
<g><path style="opacity:1" fill="#fe9da8" d="M 115.5,136.5 C 116.404,135.791 116.737,134.791 116.5,133.5C 111.637,133.181 106.97,133.514 102.5,134.5C 101.325,134.719 100.325,134.386 99.5,133.5C 105.463,132.504 111.463,132.171 117.5,132.5C 117.785,134.288 117.452,135.955 116.5,137.5C 115.893,137.376 115.56,137.043 115.5,136.5 Z"/></g>
<g><path style="opacity:1" fill="#feaab4" d="M 129.5,133.5 C 126.615,133.194 123.948,133.527 121.5,134.5C 120.957,134.44 120.624,134.107 120.5,133.5C 123.645,132.197 126.645,132.197 129.5,133.5 Z"/></g>
<g><path style="opacity:1" fill="#fc464f" d="M 57.5,144.5 C 56.596,143.791 56.2627,142.791 56.5,141.5C 55.1667,141.5 53.8333,141.5 52.5,141.5C 52.5,137.5 52.5,133.5 52.5,129.5C 50.2646,129.205 48.2646,129.539 46.5,130.5C 45.234,129.91 43.9007,129.41 42.5,129C 46.1516,128.501 49.8183,128.335 53.5,128.5C 53.3345,132.514 53.5012,136.514 54,140.5C 56,137.833 58,135.167 60,132.5C 60.4922,131.451 60.3256,130.451 59.5,129.5C 61.8333,128.167 64.1667,128.167 66.5,129.5C 63.0479,134.273 60.0479,139.273 57.5,144.5 Z"/></g>
<g><path style="opacity:1" fill="#fd3742" d="M 102.5,134.5 C 106.97,133.514 111.637,133.181 116.5,133.5C 116.737,134.791 116.404,135.791 115.5,136.5C 113.5,136.5 111.5,136.5 109.5,136.5C 108.539,138.265 108.205,140.265 108.5,142.5C 110.167,142.5 111.833,142.5 113.5,142.5C 113.5,143.5 113.5,144.5 113.5,145.5C 111.833,145.5 110.167,145.5 108.5,145.5C 108.5,147.833 108.5,150.167 108.5,152.5C 111.059,152.802 113.393,152.468 115.5,151.5C 118.647,146.838 120.98,141.671 122.5,136C 122.43,135.235 122.097,134.735 121.5,134.5C 123.948,133.527 126.615,133.194 129.5,133.5C 130.777,140.653 133.444,147.32 137.5,153.5C 138.496,147.202 138.83,140.868 138.5,134.5C 139.491,140.979 139.824,147.646 139.5,154.5C 138.209,154.263 137.209,154.596 136.5,155.5C 136.167,155.5 135.833,155.5 135.5,155.5C 132.808,153.797 130.808,151.464 129.5,148.5C 127.235,147.353 124.902,147.186 122.5,148C 121.324,150.686 119.657,153.019 117.5,155C 111.167,155.667 104.833,155.667 98.5,155C 96.6298,152.96 94.6298,151.127 92.5,149.5C 92.44,148.957 92.1067,148.624 91.5,148.5C 90.5258,150.743 90.1924,153.076 90.5,155.5C 89.1667,155.5 87.8333,155.5 86.5,155.5C 86.8134,152.753 86.48,150.086 85.5,147.5C 84.7025,147.957 84.3691,148.624 84.5,149.5C 78.7887,157.98 72.2887,158.647 65,151.5C 61.1667,145 62,139.167 67.5,134C 74.5291,130.963 80.3624,132.463 85,138.5C 85.5946,137.101 85.4279,135.768 84.5,134.5C 89.2506,133.119 93.9173,133.286 98.5,135C 99.8941,135.956 100.561,137.289 100.5,139C 99.6123,141.562 98.279,143.896 96.5,146C 98.1455,148.795 100.146,151.295 102.5,153.5C 103.817,147.012 103.817,140.678 102.5,134.5 Z"/></g>
<g><path style="opacity:1" fill="#fdf3f3" d="M 91.5,136.5 C 95.6466,137.6 96.3133,139.6 93.5,142.5C 91.6921,141.082 91.0254,139.082 91.5,136.5 Z"/></g>
<g><path style="opacity:1" fill="#fd9da6" d="M 91.5,136.5 C 91.0254,139.082 91.6921,141.082 93.5,142.5C 92.791,143.404 91.791,143.737 90.5,143.5C 90.1984,140.941 90.5318,138.607 91.5,136.5 Z"/></g>
<g><path style="opacity:1" fill="#fff2f3" d="M 71.5,135.5 C 79.2867,136.377 82.1201,140.711 80,148.5C 76.1462,153.757 72.4795,153.757 69,148.5C 67.7428,143.617 68.5761,139.284 71.5,135.5 Z"/></g>
<g><path style="opacity:1" fill="#fc2c39" d="M 157.5,131.5 C 158.166,135.319 158.499,139.319 158.5,143.5C 158.491,147.893 157.824,151.893 156.5,155.5C 152.5,151.167 148.5,146.833 144.5,142.5C 144.44,141.957 144.107,141.624 143.5,141.5C 142.507,146.12 142.173,150.786 142.5,155.5C 140.5,155.5 138.5,155.5 136.5,155.5C 137.209,154.596 138.209,154.263 139.5,154.5C 139.824,147.646 139.491,140.979 138.5,134.5C 137.527,134.013 136.527,133.513 135.5,133C 138.5,132.333 141.5,132.333 144.5,133C 147.313,136.981 150.647,140.481 154.5,143.5C 155.325,139.878 155.825,136.211 156,132.5C 156.383,131.944 156.883,131.611 157.5,131.5 Z"/></g>
<g><path style="opacity:1" fill="#fb969f" d="M 109.5,136.5 C 109.5,138.167 109.5,139.833 109.5,141.5C 111.099,141.232 112.432,141.566 113.5,142.5C 111.833,142.5 110.167,142.5 108.5,142.5C 108.205,140.265 108.539,138.265 109.5,136.5 Z"/></g>
<g><path style="opacity:1" fill="#ffc0c3" d="M 124.5,139.5 C 127.084,140.048 128.084,141.715 127.5,144.5C 126.5,144.5 125.5,144.5 124.5,144.5C 124.5,142.833 124.5,141.167 124.5,139.5 Z"/></g>
<g><path style="opacity:1" fill="#fdaeb1" d="M 144.5,142.5 C 143.514,146.97 143.181,151.637 143.5,156.5C 140.615,156.806 137.948,156.473 135.5,155.5C 135.833,155.5 136.167,155.5 136.5,155.5C 138.5,155.5 140.5,155.5 142.5,155.5C 142.173,150.786 142.507,146.12 143.5,141.5C 144.107,141.624 144.44,141.957 144.5,142.5 Z"/></g>
<g><path style="opacity:1" fill="#fc97a0" d="M 90.5,155.5 C 89.0813,156.451 87.4147,156.784 85.5,156.5C 85.8016,153.941 85.4682,151.607 84.5,149.5C 84.3691,148.624 84.7025,147.957 85.5,147.5C 86.48,150.086 86.8134,152.753 86.5,155.5C 87.8333,155.5 89.1667,155.5 90.5,155.5 Z"/></g>
<g><path style="opacity:1" fill="#fdc1c5" d="M 113.5,145.5 C 112.432,146.434 111.099,146.768 109.5,146.5C 109.5,148.167 109.5,149.833 109.5,151.5C 111.5,151.5 113.5,151.5 115.5,151.5C 113.393,152.468 111.059,152.802 108.5,152.5C 108.5,150.167 108.5,147.833 108.5,145.5C 110.167,145.5 111.833,145.5 113.5,145.5 Z"/></g>
<g><path style="opacity:1" fill="#ffadb7" d="M 92.5,149.5 C 91.8333,151.5 91.1667,153.5 90.5,155.5C 90.1924,153.076 90.5258,150.743 91.5,148.5C 92.1067,148.624 92.44,148.957 92.5,149.5 Z"/></g>
<g><path style="opacity:1" fill="#fd4149" d="M 157.5,131.5 C 157.56,130.957 157.893,130.624 158.5,130.5C 159.321,133.447 159.821,136.447 160,139.5C 162.967,132.547 168.133,130.047 175.5,132C 182.99,136.979 184.49,143.479 180,151.5C 171.786,157.847 165.119,156.514 160,147.5C 159.502,150.482 159.335,153.482 159.5,156.5C 158.209,156.737 157.209,156.404 156.5,155.5C 157.824,151.893 158.491,147.893 158.5,143.5C 158.499,139.319 158.166,135.319 157.5,131.5 Z"/></g>
<g><path style="opacity:1" fill="#fef5f5" d="M 168.5,135.5 C 176.071,135.263 178.904,138.93 177,146.5C 174.368,152.329 170.701,152.995 166,148.5C 164.743,143.617 165.576,139.284 168.5,135.5 Z"/></g>
<g><path style="opacity:1" fill="#fc353f" d="M 46.5,130.5 C 48.2646,129.539 50.2646,129.205 52.5,129.5C 52.5,133.5 52.5,137.5 52.5,141.5C 53.8333,141.5 55.1667,141.5 56.5,141.5C 56.2627,142.791 56.596,143.791 57.5,144.5C 62.8606,153.367 69.5273,161.201 77.5,168C 74.208,168.936 71.208,168.436 68.5,166.5C 63.477,160.645 58.6436,154.645 54,148.5C 53.5014,152.152 53.3347,155.818 53.5,159.5C 51.8333,159.5 50.1667,159.5 48.5,159.5C 48.6665,150.161 48.4998,140.827 48,131.5C 47.6174,130.944 47.1174,130.611 46.5,130.5 Z"/></g>
<g><path style="opacity:1" fill="#515151" d="M 139.5,166.5 C 138.655,167.671 137.989,169.005 137.5,170.5C 136.998,172.085 135.998,172.585 134.5,172C 137.509,169.753 137.842,167.419 135.5,165C 137.704,162.931 139.037,163.431 139.5,166.5 Z"/></g>
<g><path style="opacity:1" fill="#b1b1b1" d="M 139.5,166.5 C 143.042,166.187 146.375,166.521 149.5,167.5C 148.167,167.5 146.833,167.5 145.5,167.5C 145.567,168.959 145.234,170.292 144.5,171.5C 144.167,171.5 143.833,171.5 143.5,171.5C 143.5,170.167 143.5,168.833 143.5,167.5C 142.167,167.5 140.833,167.5 139.5,167.5C 139.232,169.099 139.566,170.432 140.5,171.5C 140.44,172.043 140.107,172.376 139.5,172.5C 138.818,171.757 138.151,171.091 137.5,170.5C 137.989,169.005 138.655,167.671 139.5,166.5 Z"/></g>
<g><path style="opacity:1" fill="#9c9c9c" d="M 172.5,167.5 C 171.766,168.708 171.433,170.041 171.5,171.5C 170.167,171.833 168.833,172.167 167.5,172.5C 164.825,170.624 165.158,169.124 168.5,168C 167.552,167.517 166.552,167.351 165.5,167.5C 167.448,166.869 169.281,165.869 171,164.5C 171.232,165.737 171.732,166.737 172.5,167.5 Z"/></g>
<g><path style="opacity:1" fill="#454545" d="M 143.5,171.5 C 143.103,172.525 142.437,172.692 141.5,172C 142.597,167.773 142.264,167.606 140.5,171.5C 139.566,170.432 139.232,169.099 139.5,167.5C 140.833,167.5 142.167,167.5 143.5,167.5C 143.5,168.833 143.5,170.167 143.5,171.5 Z"/></g>
<g><path style="opacity:1" fill="#6b6b6b" d="M 171.5,171.5 C 171.433,170.041 171.766,168.708 172.5,167.5C 172.908,166.357 173.575,165.357 174.5,164.5C 175.506,164.938 175.506,165.604 174.5,166.5C 176.396,167.466 178.396,167.799 180.5,167.5C 180.543,171.893 180.043,172.226 179,168.5C 178.077,169.759 177.243,171.092 176.5,172.5C 174.785,172.405 173.119,172.072 171.5,171.5 Z"/></g>
<g><path style="opacity:1" fill="#5e5e5e" d="M 111.5,171.5 C 111.649,170.448 111.483,169.448 111,168.5C 110.31,169.738 109.81,169.738 109.5,168.5C 111.719,166.425 113.719,164.091 115.5,161.5C 115.833,161.833 116.167,162.167 116.5,162.5C 114.499,164.487 113.665,166.82 114,169.5C 115.784,166.997 117.451,166.997 119,169.5C 121.901,167.312 124.234,164.645 126,161.5C 124.639,164.942 123.805,168.609 123.5,172.5C 119.156,172.289 115.156,171.955 111.5,171.5 Z"/></g>
<g><path style="opacity:1" fill="#787878" d="M 109.5,168.5 C 109.81,169.738 110.31,169.738 111,168.5C 111.483,169.448 111.649,170.448 111.5,171.5C 109.795,172.088 108.128,172.421 106.5,172.5C 105.289,171.726 105.289,170.893 106.5,170C 105.906,169.536 105.239,169.369 104.5,169.5C 105.263,168.732 106.263,168.232 107.5,168C 105.866,167.506 104.199,167.34 102.5,167.5C 102.232,169.099 102.566,170.432 103.5,171.5C 101.393,172.468 99.0593,172.802 96.5,172.5C 96.6495,171.448 96.4828,170.448 96,169.5C 95.3333,171.5 94.6667,173.5 94,175.5C 92.5601,178.335 90.7267,178.835 88.5,177C 91.7139,176.651 93.0472,175.151 92.5,172.5C 89.5521,172.219 86.5521,172.219 83.5,172.5C 81.0056,172.378 80.339,171.378 81.5,169.5C 82.4776,169.977 83.3109,170.643 84,171.5C 83.5624,168.94 83.729,166.44 84.5,164C 85.9437,163.219 87.277,163.386 88.5,164.5C 87.5022,167.028 86.6689,167.028 86,164.5C 85.405,170.078 86.905,170.745 90.5,166.5C 92.5631,166.392 94.7297,166.725 97,167.5C 98.3323,169.936 99.4989,169.936 100.5,167.5C 103.375,166.919 106.042,165.919 108.5,164.5C 108.76,165.905 109.093,167.238 109.5,168.5 Z"/></g>
<g><path style="opacity:1" fill="#1e1e1e" d="M 104.5,169.5 C 103.662,169.842 103.328,170.508 103.5,171.5C 102.566,170.432 102.232,169.099 102.5,167.5C 104.199,167.34 105.866,167.506 107.5,168C 106.263,168.232 105.263,168.732 104.5,169.5 Z"/></g>
<g><path style="opacity:1" fill="#636363" d="M 128.5,166.5 C 129.649,166.791 130.316,167.624 130.5,169C 130.087,172.717 128.754,173.217 126.5,170.5C 127.18,169.14 127.847,167.807 128.5,166.5 Z"/></g>
<g><path style="opacity:1" fill="#6a6a6a" d="M 149.5,167.5 C 151.603,167.402 153.936,167.735 156.5,168.5C 155.263,169.281 154.263,170.281 153.5,171.5C 151.647,171.92 149.813,172.253 148,172.5C 148,171.167 148,169.833 148,168.5C 147,169.833 146,171.167 145,172.5C 144.601,172.272 144.435,171.938 144.5,171.5C 145.234,170.292 145.567,168.959 145.5,167.5C 146.833,167.5 148.167,167.5 149.5,167.5 Z"/></g>
<g><path style="opacity:1" fill="#646464" d="M 165.5,167.5 C 166.552,167.351 167.552,167.517 168.5,168C 165.158,169.124 164.825,170.624 167.5,172.5C 163.32,172.772 159.32,172.439 155.5,171.5C 156.646,170.281 157.646,168.948 158.5,167.5C 160.967,167.6 163.3,167.6 165.5,167.5 Z"/></g>
</svg>
