<?xml version="1.0" encoding="UTF-8"?>
<!DOCTYPE svg PUBLIC "-//W3C//DTD SVG 1.1//EN" "http://www.w3.org/Graphics/SVG/1.1/DTD/svg11.dtd">
<svg xmlns="http://www.w3.org/2000/svg" version="1.1" width="343px" height="147px" style="shape-rendering:geometricPrecision; text-rendering:geometricPrecision; image-rendering:optimizeQuality; fill-rule:evenodd; clip-rule:evenodd" xmlns:xlink="http://www.w3.org/1999/xlink">
<g><path style="opacity:1" fill="#fdfdfd" d="M -0.5,-0.5 C 113.833,-0.5 228.167,-0.5 342.5,-0.5C 342.5,48.5 342.5,97.5 342.5,146.5C 228.167,146.5 113.833,146.5 -0.5,146.5C -0.5,97.5 -0.5,48.5 -0.5,-0.5 Z"/></g>
<g><path style="opacity:1" fill="#f41914" d="M 290.5,72.5 C 290.971,70.4214 291.637,68.4214 292.5,66.5C 298.082,61.001 300.582,54.3344 300,46.5C 298.749,43.6193 296.583,41.786 293.5,41C 290.167,40.3333 286.833,40.3333 283.5,41C 278.7,42.5692 274.034,44.4026 269.5,46.5C 278.151,38.2301 288.484,35.0634 300.5,37C 309.825,40.459 311.992,46.6257 307,55.5C 302.646,62.353 297.146,68.0196 290.5,72.5 Z"/></g>
<g><path style="opacity:1" fill="#010101" d="M 283.5,105.5 C 205.237,106.497 126.904,106.83 48.5,106.5C 36.6586,106.146 32.1586,100.146 35,88.5C 40.7241,74.0518 46.7241,59.7184 53,45.5C 58.082,44.363 63.2487,44.1963 68.5,45C 61.985,58.8664 56.1516,73.033 51,87.5C 49.586,91.7521 51.086,94.2521 55.5,95C 132.167,95.3333 208.833,95.6667 285.5,96C 284.134,98.9973 283.467,102.164 283.5,105.5 Z"/></g>
<g><path style="opacity:1" fill="#ff998f" d="M 269.5,46.5 C 268.121,49.0735 266.121,50.5735 263.5,51C 265.114,48.8733 267.114,47.3733 269.5,46.5 Z"/></g>
<g><path style="opacity:1" fill="#050505" d="M 200.5,60.5 C 200.5,61.8333 200.5,63.1667 200.5,64.5C 190.836,64.5506 181.503,63.7172 172.5,62C 171.167,63.3333 171.167,64.6667 172.5,66C 179.844,66.9271 187.178,67.9271 194.5,69C 195.931,69.4652 197.097,70.2986 198,71.5C 199.295,68.7083 200.795,66.0416 202.5,63.5C 213.497,53.9969 226.164,51.1635 240.5,55C 244.667,56.5 247.5,59.3333 249,63.5C 250.145,60.5682 250.978,57.5682 251.5,54.5C 256.875,54.1718 262.208,54.5052 267.5,55.5C 266.494,56.3957 266.494,57.0623 267.5,57.5C 275.756,52.1908 283.923,52.1908 292,57.5C 292.498,60.4816 292.665,63.4816 292.5,66.5C 291.637,68.4214 290.971,70.4214 290.5,72.5C 288.865,77.7091 287.865,83.0424 287.5,88.5C 281.642,88.8222 275.975,88.4889 270.5,87.5C 270.5,87.1667 270.5,86.8333 270.5,86.5C 273.396,80.144 275.063,73.4774 275.5,66.5C 270.465,65.5021 266.298,66.8354 263,70.5C 260.387,76.6221 258.553,82.9554 257.5,89.5C 252.125,89.8282 246.792,89.4948 241.5,88.5C 242.548,86.5441 243.048,84.5441 243,82.5C 239.479,85.8445 235.312,88.0112 230.5,89C 223.215,90.4137 215.882,90.747 208.5,90C 203.162,88.6787 199.495,85.512 197.5,80.5C 193.318,86.184 187.651,89.3507 180.5,90C 173.167,90.6667 165.833,90.6667 158.5,90C 156.385,89.4427 154.385,88.6094 152.5,87.5C 151.304,87.8457 151.304,88.3457 152.5,89C 145.808,89.8309 139.142,89.6642 132.5,88.5C 131.164,85.4902 129.831,82.4902 128.5,79.5C 125.683,82.8178 122.683,85.9845 119.5,89C 112.833,89.6667 106.167,89.6667 99.5,89C 100.96,88.1887 101.293,87.3554 100.5,86.5C 91.1591,90.1064 81.4924,91.2731 71.5,90C 62.5858,87.4185 59.0858,81.5851 61,72.5C 64.1408,64.0258 69.9742,58.1925 78.5,55C 87.9471,52.7193 97.2804,53.0526 106.5,56C 112.616,61.2371 114.283,67.7371 111.5,75.5C 99.8333,75.5 88.1667,75.5 76.5,75.5C 76.393,77.9032 77.393,79.7365 79.5,81C 84.1473,82.0044 88.4806,81.3378 92.5,79C 98.4163,78.1928 104.25,78.3594 110,79.5C 113.672,76.6579 117.172,73.6579 120.5,70.5C 117.248,65.6657 114.248,60.6657 111.5,55.5C 117.807,54.3361 124.141,54.1694 130.5,55C 131.686,57.7481 132.686,60.5815 133.5,63.5C 135.956,60.542 138.622,57.7087 141.5,55C 148.167,54.3333 154.833,54.3333 161.5,55C 155.041,59.7904 148.874,64.9571 143,70.5C 143.799,74.4407 145.466,78.1073 148,81.5C 148.483,80.552 148.649,79.552 148.5,78.5C 155.2,78.17 161.866,78.5033 168.5,79.5C 168.709,80.086 169.043,80.586 169.5,81C 172.5,81.6667 175.5,81.6667 178.5,81C 179.337,79.9887 179.67,78.8221 179.5,77.5C 171.04,77.0638 162.874,75.3971 155,72.5C 153.578,69.9699 153.245,67.3033 154,64.5C 157.158,58.6732 161.992,55.1732 168.5,54C 178.311,52.927 187.978,53.5937 197.5,56C 199.141,57.129 200.141,58.629 200.5,60.5 Z"/></g>
<g><path style="opacity:1" fill="#eeeeee" d="M 97.5,67.5 C 91.31,67.8229 85.31,67.4896 79.5,66.5C 83.9409,61.5992 89.2742,60.4325 95.5,63C 97.0368,64.1096 97.7035,65.6096 97.5,67.5 Z"/></g>
<g><path style="opacity:1" fill="#dfdfdf" d="M 200.5,60.5 C 201.167,61.5 201.833,62.5 202.5,63.5C 200.795,66.0416 199.295,68.7083 198,71.5C 197.097,70.2986 195.931,69.4652 194.5,69C 187.178,67.9271 179.844,66.9271 172.5,66C 171.167,64.6667 171.167,63.3333 172.5,62C 181.503,63.7172 190.836,64.5506 200.5,64.5C 200.5,63.1667 200.5,61.8333 200.5,60.5 Z"/></g>
<g><path style="opacity:1" fill="#ebebeb" d="M 234.5,67.5 C 228.31,67.8229 222.31,67.4896 216.5,66.5C 220.889,61.4446 226.223,60.2779 232.5,63C 234.037,64.1096 234.703,65.6096 234.5,67.5 Z"/></g>
<g><path style="opacity:1" fill="#959595" d="M 79.5,66.5 C 85.31,67.4896 91.31,67.8229 97.5,67.5C 91.3217,68.8174 84.9883,68.8174 78.5,67.5C 78.6236,66.8933 78.9569,66.56 79.5,66.5 Z"/></g>
<g><path style="opacity:1" fill="#959595" d="M 216.5,66.5 C 222.31,67.4896 228.31,67.8229 234.5,67.5C 228.322,68.8174 221.988,68.8174 215.5,67.5C 215.624,66.8933 215.957,66.56 216.5,66.5 Z"/></g>
<g><path style="opacity:1" fill="#f3f3f3" d="M 213.5,75.5 C 224.187,75.168 234.854,75.5013 245.5,76.5C 245.291,77.086 244.957,77.586 244.5,78C 239.5,78.3333 234.5,78.6667 229.5,79C 225.517,81.4355 221.184,82.1022 216.5,81C 214.393,79.7365 213.393,77.9032 213.5,75.5 Z"/></g>
<g><path style="opacity:1" fill="#f96963" d="M 270.5,86.5 C 270.5,86.8333 270.5,87.1667 270.5,87.5C 269.577,88.3029 268.577,88.4696 267.5,88C 268.244,86.9614 269.244,86.4614 270.5,86.5 Z"/></g>
<g><path style="opacity:1" fill="#636363" d="M 283.5,105.5 C 244.672,106.833 205.506,107.5 166,107.5C 126.665,107.5 87.4986,107.167 48.5,106.5C 126.904,106.83 205.237,106.497 283.5,105.5 Z"/></g>
</svg>
