<?xml version="1.0" encoding="UTF-8"?>
<!DOCTYPE svg PUBLIC "-//W3C//DTD SVG 1.1//EN" "http://www.w3.org/Graphics/SVG/1.1/DTD/svg11.dtd">
<svg xmlns="http://www.w3.org/2000/svg" version="1.1" width="231px" height="218px" style="shape-rendering:geometricPrecision; text-rendering:geometricPrecision; image-rendering:optimizeQuality; fill-rule:evenodd; clip-rule:evenodd" xmlns:xlink="http://www.w3.org/1999/xlink">
<g><path style="opacity:1" fill="#fefefe" d="M -0.5,-0.5 C 76.5,-0.5 153.5,-0.5 230.5,-0.5C 230.5,72.1667 230.5,144.833 230.5,217.5C 153.5,217.5 76.5,217.5 -0.5,217.5C -0.5,144.833 -0.5,72.1667 -0.5,-0.5 Z"/></g>
<g><path style="opacity:1" fill="#5c5a5a" d="M 183.5,108.5 C 181.079,103.217 182.746,99.8837 188.5,98.5C 196.041,100.713 197.374,104.88 192.5,111C 190.167,111.667 187.833,111.667 185.5,111C 184.244,110.583 183.577,109.75 183.5,108.5 Z"/></g>
<g><path style="opacity:1" fill="#e4e4e4" d="M 183.5,108.5 C 182.998,100.514 186.165,98.5137 193,102.5C 193.892,110.579 190.725,112.579 183.5,108.5 Z"/></g>
<g><path style="opacity:1" fill="#7f7b79" d="M 170.5,101.5 C 170.5,110.167 170.5,118.833 170.5,127.5C 172.833,127.5 175.167,127.5 177.5,127.5C 175.052,128.473 172.385,128.806 169.5,128.5C 169.173,119.318 169.507,110.318 170.5,101.5 Z"/></g>
<g><path style="opacity:1" fill="#2f2624" d="M 170.5,101.5 C 172.833,101.5 175.167,101.5 177.5,101.5C 177.5,110.167 177.5,118.833 177.5,127.5C 175.167,127.5 172.833,127.5 170.5,127.5C 170.5,118.833 170.5,110.167 170.5,101.5 Z"/></g>
<g><path style="opacity:1" fill="#757473" d="M 124.5,103.5 C 124.5,111.5 124.5,119.5 124.5,127.5C 126.833,127.5 129.167,127.5 131.5,127.5C 129.052,128.473 126.385,128.806 123.5,128.5C 123.174,119.983 123.507,111.65 124.5,103.5 Z"/></g>
<g><path style="opacity:1" fill="#2e2623" d="M 110.5,102.5 C 112.833,102.5 115.167,102.5 117.5,102.5C 117.5,110.833 117.5,119.167 117.5,127.5C 115.167,127.5 112.833,127.5 110.5,127.5C 110.5,119.167 110.5,110.833 110.5,102.5 Z"/></g>
<g><path style="opacity:1" fill="#777373" d="M 186.5,101.5 C 188.144,101.286 189.644,101.62 191,102.5C 190.596,104.579 190.43,106.579 190.5,108.5C 189.184,105.972 188.017,105.972 187,108.5C 186.503,106.19 186.337,103.857 186.5,101.5 Z"/></g>
<g><path style="opacity:1" fill="#6f6b69" d="M 155.5,109.5 C 155.56,108.957 155.893,108.624 156.5,108.5C 157.496,114.798 157.83,121.132 157.5,127.5C 159.833,127.5 162.167,127.5 164.5,127.5C 162.052,128.473 159.385,128.806 156.5,128.5C 156.823,121.978 156.49,115.645 155.5,109.5 Z"/></g>
<g><path style="opacity:1" fill="#2f2926" d="M 164.5,127.5 C 162.167,127.5 159.833,127.5 157.5,127.5C 157.83,121.132 157.496,114.798 156.5,108.5C 155.893,108.624 155.56,108.957 155.5,109.5C 151.606,112.371 147.773,115.371 144,118.5C 140.257,115.379 136.424,112.379 132.5,109.5C 131.504,115.463 131.171,121.463 131.5,127.5C 129.167,127.5 126.833,127.5 124.5,127.5C 124.5,119.5 124.5,111.5 124.5,103.5C 124.611,102.883 124.944,102.383 125.5,102C 127.5,101.333 129.5,101.333 131.5,102C 135.974,104.973 140.307,108.14 144.5,111.5C 148.318,108.093 152.318,104.926 156.5,102C 159.347,101.056 161.847,101.556 164,103.5C 164.5,111.493 164.666,119.493 164.5,127.5 Z"/></g>
<g><path style="opacity:1" fill="#54514d" d="M 110.5,102.5 C 112.948,101.527 115.615,101.194 118.5,101.5C 118.5,110.5 118.5,119.5 118.5,128.5C 115.615,128.806 112.948,128.473 110.5,127.5C 112.833,127.5 115.167,127.5 117.5,127.5C 117.5,119.167 117.5,110.833 117.5,102.5C 115.167,102.5 112.833,102.5 110.5,102.5 Z"/></g>
<g><path style="opacity:1" fill="#312a26" d="M 39.5,100.5 C 41.8333,100.5 44.1667,100.5 46.5,100.5C 46.3337,107.175 46.5004,113.842 47,120.5C 47.5,121 48,121.5 48.5,122C 53.1548,122.499 57.8215,122.666 62.5,122.5C 62.5,124.5 62.5,126.5 62.5,128.5C 56.4908,128.666 50.4908,128.499 44.5,128C 43.3333,126.833 42.1667,125.667 41,124.5C 39.5989,116.585 39.0989,108.585 39.5,100.5 Z"/></g>
<g><path style="opacity:1" fill="#312a26" d="M 97.5,128.5 C 91.5,128.5 85.5,128.5 79.5,128.5C 79.5,122.5 79.5,116.5 79.5,110.5C 81.8333,110.5 84.1667,110.5 86.5,110.5C 86.5,114.5 86.5,118.5 86.5,122.5C 95.7508,123.7 99.2508,119.7 97,110.5C 96.5776,108.574 95.4109,107.574 93.5,107.5C 87.021,106.509 80.3543,106.176 73.5,106.5C 73.5,113.833 73.5,121.167 73.5,128.5C 71.1667,128.5 68.8333,128.5 66.5,128.5C 66.5,119.167 66.5,109.833 66.5,100.5C 76.5056,100.334 86.5056,100.5 96.5,101C 104.499,104.167 107.333,110.001 105,118.5C 104.552,123.439 102.052,126.773 97.5,128.5 Z"/></g>
<g><path style="opacity:1" fill="#bdbcbb" d="M 93.5,107.5 C 87.1667,107.5 80.8333,107.5 74.5,107.5C 74.8245,114.687 74.4912,121.687 73.5,128.5C 73.5,121.167 73.5,113.833 73.5,106.5C 80.3543,106.176 87.021,106.509 93.5,107.5 Z"/></g>
<g><path style="opacity:1" fill="#a4a09f" d="M 79.5,110.5 C 79.5,116.5 79.5,122.5 79.5,128.5C 85.5,128.5 91.5,128.5 97.5,128.5C 91.3554,129.49 85.0221,129.823 78.5,129.5C 78.1765,122.978 78.5098,116.645 79.5,110.5 Z"/></g>
</svg>
