<?xml version="1.0" encoding="UTF-8"?>
<!DOCTYPE svg PUBLIC "-//W3C//DTD SVG 1.1//EN" "http://www.w3.org/Graphics/SVG/1.1/DTD/svg11.dtd">
<svg xmlns="http://www.w3.org/2000/svg" version="1.1" width="296px" height="162px" style="shape-rendering:geometricPrecision; text-rendering:geometricPrecision; image-rendering:optimizeQuality; fill-rule:evenodd; clip-rule:evenodd" xmlns:xlink="http://www.w3.org/1999/xlink">
<g><path style="opacity:1" fill="#dc0401" d="M -0.5,-0.5 C 98.1667,-0.5 196.833,-0.5 295.5,-0.5C 295.5,53.5 295.5,107.5 295.5,161.5C 196.833,161.5 98.1667,161.5 -0.5,161.5C -0.5,107.5 -0.5,53.5 -0.5,-0.5 Z"/></g>
<g><path style="opacity:1" fill="#fefafa" d="M 51.5,129.5 C 64.8333,130.167 78.1667,130.833 91.5,131.5C 90.1064,133.708 88.1064,135.208 85.5,136C 63.5,136.667 41.5,136.667 19.5,136C 18.2512,133.79 18.4178,131.624 20,129.5C 23.8787,122.238 28.3787,115.405 33.5,109C 43.0607,107.552 52.7274,107.052 62.5,107.5C 62.6567,108.873 62.49,110.207 62,111.5C 58.236,117.363 54.736,123.363 51.5,129.5 Z"/></g>
<g><path style="opacity:1" fill="#fefdfd" d="M 108.5,108.5 C 135.502,108.333 162.502,108.5 189.5,109C 187.702,111.472 185.368,113.139 182.5,114C 165.5,114.333 148.5,114.667 131.5,115C 129.963,116.11 129.297,117.61 129.5,119.5C 146.503,119.333 163.503,119.5 180.5,120C 181.672,121.868 181.505,123.702 180,125.5C 177.864,129.629 175.031,133.129 171.5,136C 145.16,136.833 118.827,136.667 92.5,135.5C 93.9242,133.282 95.9242,131.782 98.5,131C 115.5,130.667 132.5,130.333 149.5,130C 151.037,128.89 151.703,127.39 151.5,125.5C 134.83,125.667 118.163,125.5 101.5,125C 100.424,123.274 100.257,121.441 101,119.5C 103.33,115.678 105.83,112.012 108.5,108.5 Z"/></g>
<g><path style="opacity:1" fill="#fefdfd" d="M 195.5,108.5 C 222.074,108.172 248.574,108.505 275,109.5C 275.635,111.635 275.301,113.635 274,115.5C 272.303,117.699 270.803,120.032 269.5,122.5C 268.335,123.584 267.002,124.417 265.5,125C 247.833,125.333 230.167,125.667 212.5,126C 210.963,127.11 210.297,128.61 210.5,130.5C 226.837,130.333 243.17,130.5 259.5,131C 262.362,131.93 264.695,133.597 266.5,136C 238.261,136.828 210.095,136.661 182,135.5C 182.337,128.995 185.17,123.829 190.5,120C 208.5,119.667 226.5,119.333 244.5,119C 246.037,117.89 246.703,116.39 246.5,114.5C 231.496,114.667 216.496,114.5 201.5,114C 198.74,112.821 196.74,110.988 195.5,108.5 Z"/></g>
<g><path style="opacity:1" fill="#e43f3f" d="M 51.5,129.5 C 65.1829,129.167 78.8496,129.501 92.5,130.5C 92.3764,131.107 92.0431,131.44 91.5,131.5C 78.1667,130.833 64.8333,130.167 51.5,129.5 Z"/></g>
</svg>
