<?xml version="1.0" encoding="UTF-8"?>
<!DOCTYPE svg PUBLIC "-//W3C//DTD SVG 1.1//EN" "http://www.w3.org/Graphics/SVG/1.1/DTD/svg11.dtd">
<svg xmlns="http://www.w3.org/2000/svg" version="1.1" width="225px" height="225px" style="shape-rendering:geometricPrecision; text-rendering:geometricPrecision; image-rendering:optimizeQuality; fill-rule:evenodd; clip-rule:evenodd" xmlns:xlink="http://www.w3.org/1999/xlink">
<g><path style="opacity:1" fill="#fefefe" d="M -0.5,-0.5 C 74.5,-0.5 149.5,-0.5 224.5,-0.5C 224.5,74.5 224.5,149.5 224.5,224.5C 149.5,224.5 74.5,224.5 -0.5,224.5C -0.5,149.5 -0.5,74.5 -0.5,-0.5 Z"/></g>
<g><path style="opacity:1" fill="#0a0a0a" d="M 49.5,128.5 C 46.5118,130.273 43.1785,130.94 39.5,130.5C 41.9328,119.171 44.4328,107.838 47,96.5C 49.4772,91.6319 52.4772,91.2986 56,95.5C 58.6238,102.081 61.7905,108.414 65.5,114.5C 68.6511,108.198 71.8178,101.864 75,95.5C 77.2825,91.9594 79.9491,91.6261 83,94.5C 86.2576,106.264 89.0909,118.097 91.5,130C 88.1832,130.498 84.8499,130.665 81.5,130.5C 81.1963,124.012 80.0296,117.678 78,111.5C 75.0156,117.469 72.0156,123.469 69,129.5C 66.0337,132.265 63.367,131.932 61,128.5C 58.8606,122.888 56.1939,117.554 53,112.5C 51.0837,117.662 49.917,122.996 49.5,128.5 Z"/></g>
<g><path style="opacity:1" fill="#060606" d="M 107.5,129.5 C 109.059,127.392 110.392,125.059 111.5,122.5C 115.833,121.833 120.167,121.167 124.5,120.5C 122,116.167 119.5,111.833 117,107.5C 113.142,114.554 109.309,121.554 105.5,128.5C 101.817,130.481 97.8173,130.981 93.5,130C 99.7429,117.508 106.743,105.508 114.5,94C 118.305,92.8266 121.139,93.9933 123,97.5C 128.431,108.585 134.265,119.419 140.5,130C 129.326,130.826 118.326,130.659 107.5,129.5 Z"/></g>
<g><path style="opacity:1" fill="#060606" d="M 183.5,129.5 C 179.267,130.794 174.934,130.794 170.5,129.5C 165.964,121.981 159.297,119.314 150.5,121.5C 150.5,124.5 150.5,127.5 150.5,130.5C 147.833,130.5 145.167,130.5 142.5,130.5C 142.5,124.167 142.5,117.833 142.5,111.5C 151.839,111.666 161.173,111.5 170.5,111C 173.265,108.034 172.932,105.367 169.5,103C 160.5,102.667 151.5,102.333 142.5,102C 143.916,99.1651 145.583,96.4985 147.5,94C 155.833,93.3333 164.167,93.3333 172.5,94C 181.762,98.9219 183.929,106.089 179,115.5C 177.649,117.019 176.149,118.352 174.5,119.5C 177.551,122.879 180.551,126.212 183.5,129.5 Z"/></g>
<g><path style="opacity:1" fill="#e7e7e7" d="M 107.5,129.5 C 107.591,127.302 106.925,126.969 105.5,128.5C 109.309,121.554 113.142,114.554 117,107.5C 119.5,111.833 122,116.167 124.5,120.5C 120.167,121.167 115.833,121.833 111.5,122.5C 110.392,125.059 109.059,127.392 107.5,129.5 Z"/></g>
<g><path style="opacity:1" fill="#868686" d="M 142.5,111.5 C 142.5,117.833 142.5,124.167 142.5,130.5C 145.167,130.5 147.833,130.5 150.5,130.5C 147.713,131.477 144.713,131.81 141.5,131.5C 141.176,124.646 141.509,117.979 142.5,111.5 Z"/></g>
<g><path style="opacity:1" fill="#777777" d="M 49.5,128.5 C 49.5,129.5 49.5,130.5 49.5,131.5C 45.9581,131.813 42.6248,131.479 39.5,130.5C 43.1785,130.94 46.5118,130.273 49.5,128.5 Z"/></g>
<g><path style="opacity:1" fill="#9b9b9b" d="M 170.5,129.5 C 174.934,130.794 179.267,130.794 183.5,129.5C 184.043,129.56 184.376,129.893 184.5,130.5C 182.167,130.833 179.833,131.167 177.5,131.5C 174.731,131.471 172.397,130.805 170.5,129.5 Z"/></g>
</svg>
