<?xml version="1.0" encoding="UTF-8"?>
<!DOCTYPE svg PUBLIC "-//W3C//DTD SVG 1.1//EN" "http://www.w3.org/Graphics/SVG/1.1/DTD/svg11.dtd">
<svg xmlns="http://www.w3.org/2000/svg" version="1.1" width="385px" height="131px" style="shape-rendering:geometricPrecision; text-rendering:geometricPrecision; image-rendering:optimizeQuality; fill-rule:evenodd; clip-rule:evenodd" xmlns:xlink="http://www.w3.org/1999/xlink">
<g><path style="opacity:1" fill="#fdfdfd" d="M -0.5,-0.5 C 127.833,-0.5 256.167,-0.5 384.5,-0.5C 384.5,43.1667 384.5,86.8333 384.5,130.5C 256.167,130.5 127.833,130.5 -0.5,130.5C -0.5,86.8333 -0.5,43.1667 -0.5,-0.5 Z"/></g>
<g><path style="opacity:1" fill="#8e8e8e" d="M 154.5,49.5 C 144.167,49.5 133.833,49.5 123.5,49.5C 123.5,51.5 123.5,53.5 123.5,55.5C 121.656,53.7211 120.99,51.3878 121.5,48.5C 132.679,48.1721 143.679,48.5054 154.5,49.5 Z"/></g>
<g><path style="opacity:1" fill="#7d7d7d" d="M 158.5,49.5 C 168.987,48.5056 179.654,48.1722 190.5,48.5C 190.5,50.8333 190.5,53.1667 190.5,55.5C 190.167,55.5 189.833,55.5 189.5,55.5C 189.5,53.5 189.5,51.5 189.5,49.5C 179.167,49.5 168.833,49.5 158.5,49.5 Z"/></g>
<g><path style="opacity:1" fill="#828282" d="M 295.5,55.5 C 295.5,53.5 295.5,51.5 295.5,49.5C 285.167,49.5 274.833,49.5 264.5,49.5C 264.5,51.5 264.5,53.5 264.5,55.5C 263.532,53.3926 263.198,51.0593 263.5,48.5C 274.5,48.5 285.5,48.5 296.5,48.5C 296.802,51.0593 296.468,53.3926 295.5,55.5 Z"/></g>
<g><path style="opacity:1" fill="#090909" d="M 29.5,76.5 C 29.5,69.5 29.5,62.5 29.5,55.5C 27.1667,55.5 24.8333,55.5 22.5,55.5C 20.8333,55.5 19.1667,55.5 17.5,55.5C 17.5,53.5 17.5,51.5 17.5,49.5C 25.84,49.3336 34.1733,49.5003 42.5,50C 44.3333,51.8333 46.1667,53.6667 48,55.5C 48.4996,62.4921 48.6663,69.4921 48.5,76.5C 46.1667,76.5 43.8333,76.5 41.5,76.5C 41.5,69.5 41.5,62.5 41.5,55.5C 39.8333,55.5 38.1667,55.5 36.5,55.5C 36.5,62.5 36.5,69.5 36.5,76.5C 34.1667,76.5 31.8333,76.5 29.5,76.5 Z"/></g>
<g><path style="opacity:1" fill="#060606" d="M 83.5,55.5 C 83.5,62.5 83.5,69.5 83.5,76.5C 81.5,76.5 79.5,76.5 77.5,76.5C 77.5,74.1667 77.5,71.8333 77.5,69.5C 71.1667,69.5 64.8333,69.5 58.5,69.5C 58.5,71.8333 58.5,74.1667 58.5,76.5C 56.5,76.5 54.5,76.5 52.5,76.5C 52.5,70.8333 52.5,65.1667 52.5,59.5C 54.5,59.5 56.5,59.5 58.5,59.5C 58.5,60.8333 58.5,62.1667 58.5,63.5C 64.8333,63.5 71.1667,63.5 77.5,63.5C 77.5,60.8333 77.5,58.1667 77.5,55.5C 69.1667,55.5 60.8333,55.5 52.5,55.5C 52.5,53.5 52.5,51.5 52.5,49.5C 61.1731,49.3336 69.8397,49.5002 78.5,50C 79.6635,52.3284 81.3302,54.1618 83.5,55.5 Z"/></g>
<g><path style="opacity:1" fill="#0b0b0b" d="M 113.5,76.5 C 105.167,76.5 96.8333,76.5 88.5,76.5C 88.5,74.5 88.5,72.5 88.5,70.5C 96.6841,70.8257 104.684,70.4924 112.5,69.5C 112.5,68.5 112.5,67.5 112.5,66.5C 104.5,66.5 96.5,66.5 88.5,66.5C 87.3659,64.0336 87.1993,61.367 88,58.5C 90.9689,57.3974 91.1355,56.064 88.5,54.5C 90.3159,53.1851 91.9825,51.6851 93.5,50C 102.16,49.5002 110.827,49.3336 119.5,49.5C 119.5,51.5 119.5,53.5 119.5,55.5C 111.167,55.5 102.833,55.5 94.5,55.5C 94.5,56.8333 94.5,58.1667 94.5,59.5C 102.833,59.5 111.167,59.5 119.5,59.5C 119.665,63.1817 119.499,66.8484 119,70.5C 116.96,72.3702 115.127,74.3702 113.5,76.5 Z"/></g>
<g><path style="opacity:1" fill="#030303" d="M 154.5,49.5 C 154.5,51.5 154.5,53.5 154.5,55.5C 150.298,55.1832 146.298,55.5166 142.5,56.5C 141.509,62.979 141.176,69.6457 141.5,76.5C 139.5,76.5 137.5,76.5 135.5,76.5C 135.5,69.5 135.5,62.5 135.5,55.5C 131.5,55.5 127.5,55.5 123.5,55.5C 123.5,53.5 123.5,51.5 123.5,49.5C 133.833,49.5 144.167,49.5 154.5,49.5 Z"/></g>
<g><path style="opacity:1" fill="#040404" d="M 158.5,49.5 C 168.833,49.5 179.167,49.5 189.5,49.5C 189.5,51.5 189.5,53.5 189.5,55.5C 179.167,55.5 168.833,55.5 158.5,55.5C 158.5,53.5 158.5,51.5 158.5,49.5 Z"/></g>
<g><path style="opacity:1" fill="#0c0c0c" d="M 223.5,75.5 C 220.713,76.4767 217.713,76.81 214.5,76.5C 212.363,74.1996 210.03,72.0329 207.5,70C 205.19,69.5034 202.857,69.3367 200.5,69.5C 200.5,71.8333 200.5,74.1667 200.5,76.5C 198.5,76.5 196.5,76.5 194.5,76.5C 194.5,71.8333 194.5,67.1667 194.5,62.5C 195.833,60.8333 197.167,59.1667 198.5,57.5C 199.167,57.5 199.833,57.5 200.5,57.5C 200.5,59.1667 200.5,60.8333 200.5,62.5C 206.31,63.4896 212.31,63.8229 218.5,63.5C 218.5,60.8333 218.5,58.1667 218.5,55.5C 210.167,55.5 201.833,55.5 193.5,55.5C 193.5,53.5 193.5,51.5 193.5,49.5C 202.173,49.3336 210.84,49.5002 219.5,50C 225.225,54.0861 227.059,59.5861 225,66.5C 223.333,68.6278 221.166,69.9611 218.5,70.5C 220.006,72.4014 221.673,74.0681 223.5,75.5 Z"/></g>
<g><path style="opacity:1" fill="#080808" d="M 260.5,49.5 C 260.5,51.5 260.5,53.5 260.5,55.5C 256.5,55.5 252.5,55.5 248.5,55.5C 248.5,62.5 248.5,69.5 248.5,76.5C 246.167,76.5 243.833,76.5 241.5,76.5C 241.5,69.5 241.5,62.5 241.5,55.5C 237.5,55.5 233.5,55.5 229.5,55.5C 229.5,53.5 229.5,51.5 229.5,49.5C 239.833,49.5 250.167,49.5 260.5,49.5 Z"/></g>
<g><path style="opacity:1" fill="#030303" d="M 295.5,55.5 C 285.167,55.5 274.833,55.5 264.5,55.5C 264.5,53.5 264.5,51.5 264.5,49.5C 274.833,49.5 285.167,49.5 295.5,49.5C 295.5,51.5 295.5,53.5 295.5,55.5 Z"/></g>
<g><path style="opacity:1" fill="#050505" d="M 328.5,49.5 C 328.833,50.5 329.5,51.1667 330.5,51.5C 330.5,55.1667 330.5,58.8333 330.5,62.5C 328.5,62.5 326.5,62.5 324.5,62.5C 324.5,60.1667 324.5,57.8333 324.5,55.5C 318.31,55.1771 312.31,55.5104 306.5,56.5C 306.5,60.8333 306.5,65.1667 306.5,69.5C 314.316,70.4924 322.316,70.8257 330.5,70.5C 330.216,72.4147 330.549,74.0813 331.5,75.5C 322.009,76.658 312.342,76.8246 302.5,76C 301.956,75.2828 301.289,74.7828 300.5,74.5C 300.5,66.1667 300.5,57.8333 300.5,49.5C 309.833,49.5 319.167,49.5 328.5,49.5 Z"/></g>
<g><path style="opacity:1" fill="#080808" d="M 341.5,49.5 C 341.5,52.8333 341.5,56.1667 341.5,59.5C 347.5,59.5 353.5,59.5 359.5,59.5C 359.5,56.1667 359.5,52.8333 359.5,49.5C 361.833,49.5 364.167,49.5 366.5,49.5C 366.5,58.5 366.5,67.5 366.5,76.5C 364.167,76.5 361.833,76.5 359.5,76.5C 359.5,73.1667 359.5,69.8333 359.5,66.5C 353.5,66.5 347.5,66.5 341.5,66.5C 341.5,69.8333 341.5,73.1667 341.5,76.5C 339.5,76.5 337.5,76.5 335.5,76.5C 335.5,67.5 335.5,58.5 335.5,49.5C 337.5,49.5 339.5,49.5 341.5,49.5 Z"/></g>
<g><path style="opacity:1" fill="#b4b4b4" d="M 264.5,55.5 C 274.833,55.5 285.167,55.5 295.5,55.5C 287.657,56.1666 279.657,56.8333 271.5,57.5C 278.655,58.1667 285.655,58.8334 292.5,59.5C 284.722,60.1109 277.222,59.4442 270,57.5C 269.292,58.3805 268.458,59.0472 267.5,59.5C 267.229,57.5695 266.229,56.2362 264.5,55.5 Z"/></g>
<g><path style="opacity:1" fill="#a9a9a9" d="M 306.5,56.5 C 312.31,55.5104 318.31,55.1771 324.5,55.5C 324.5,57.8333 324.5,60.1667 324.5,62.5C 323.539,60.7354 323.205,58.7354 323.5,56.5C 317.833,56.5 312.167,56.5 306.5,56.5 Z"/></g>
<g><path style="opacity:1" fill="#c0c0c0" d="M 158.5,55.5 C 168.833,55.5 179.167,55.5 189.5,55.5C 189.833,55.5 190.167,55.5 190.5,55.5C 182.324,56.1666 173.99,56.8333 165.5,57.5C 172.655,58.1667 179.655,58.8334 186.5,59.5C 178.722,60.1109 171.222,59.4442 164,57.5C 159.124,61.5992 157.291,66.9325 158.5,73.5C 158.096,68.8783 157.096,64.3783 155.5,60C 157.774,59.5298 159.774,58.5298 161.5,57C 160.263,56.7679 159.263,56.2679 158.5,55.5 Z"/></g>
<g><path style="opacity:1" fill="#fbfbfb" d="M 200.5,62.5 C 200.5,60.8333 200.5,59.1667 200.5,57.5C 205.975,56.5111 211.642,56.1778 217.5,56.5C 217.5,58.5 217.5,60.5 217.5,62.5C 211.833,62.5 206.167,62.5 200.5,62.5 Z"/></g>
<g><path style="opacity:1" fill="#535353" d="M 328.5,49.5 C 319.167,49.5 309.833,49.5 300.5,49.5C 300.5,57.8333 300.5,66.1667 300.5,74.5C 299.507,66.0161 299.174,57.3494 299.5,48.5C 309.348,48.1729 319.014,48.5062 328.5,49.5 Z"/></g>
<g><path style="opacity:1" fill="#080808" d="M 22.5,57.5 C 23.4902,63.6446 23.8235,69.9779 23.5,76.5C 21.5,76.5 19.5,76.5 17.5,76.5C 17.5,71.8333 17.5,67.1667 17.5,62.5C 18.973,60.6053 20.6397,58.9387 22.5,57.5 Z"/></g>
<g><path style="opacity:1" fill="#0a0a0a" d="M 186.5,59.5 C 186.5,61.8333 186.5,64.1667 186.5,66.5C 179.5,66.5 172.5,66.5 165.5,66.5C 164.566,67.5676 164.232,68.901 164.5,70.5C 172.833,70.5 181.167,70.5 189.5,70.5C 189.5,72.5 189.5,74.5 189.5,76.5C 180.167,76.5 170.833,76.5 161.5,76.5C 160.167,75.8333 159.167,74.8333 158.5,73.5C 157.291,66.9325 159.124,61.5992 164,57.5C 171.222,59.4442 178.722,60.1109 186.5,59.5 Z"/></g>
<g><path style="opacity:1" fill="#898989" d="M 260.5,49.5 C 250.167,49.5 239.833,49.5 229.5,49.5C 229.5,51.5 229.5,53.5 229.5,55.5C 233.5,55.5 237.5,55.5 241.5,55.5C 241.5,62.5 241.5,69.5 241.5,76.5C 243.833,76.5 246.167,76.5 248.5,76.5C 246.052,77.4731 243.385,77.8064 240.5,77.5C 240.5,70.5 240.5,63.5 240.5,56.5C 236.5,56.5 232.5,56.5 228.5,56.5C 228.5,53.8333 228.5,51.1667 228.5,48.5C 239.346,48.1722 250.013,48.5056 260.5,49.5 Z"/></g>
<g><path style="opacity:1" fill="#080808" d="M 292.5,59.5 C 292.5,61.8333 292.5,64.1667 292.5,66.5C 285.167,66.5 277.833,66.5 270.5,66.5C 270.5,67.8333 270.5,69.1667 270.5,70.5C 278.833,70.5 287.167,70.5 295.5,70.5C 295.5,72.5 295.5,74.5 295.5,76.5C 285.833,76.5 276.167,76.5 266.5,76.5C 263.519,70.5407 263.853,64.8741 267.5,59.5C 268.458,59.0472 269.292,58.3805 270,57.5C 277.222,59.4442 284.722,60.1109 292.5,59.5 Z"/></g>
<g><path style="opacity:1" fill="#565656" d="M 330.5,51.5 C 331.483,55.2984 331.817,59.2984 331.5,63.5C 328.941,63.8016 326.607,63.4682 324.5,62.5C 326.5,62.5 328.5,62.5 330.5,62.5C 330.5,58.8333 330.5,55.1667 330.5,51.5 Z"/></g>
<g><path style="opacity:1" fill="#bcbcbc" d="M 366.5,49.5 C 364.167,49.5 361.833,49.5 359.5,49.5C 359.5,52.8333 359.5,56.1667 359.5,59.5C 353.5,59.5 347.5,59.5 341.5,59.5C 341.5,56.1667 341.5,52.8333 341.5,49.5C 341.5,49.1667 341.5,48.8333 341.5,48.5C 342.479,51.6248 342.813,54.9581 342.5,58.5C 347.833,58.5 353.167,58.5 358.5,58.5C 358.5,54.8333 358.5,51.1667 358.5,47.5C 361.698,46.9644 364.365,47.631 366.5,49.5 Z"/></g>
<g><path style="opacity:1" fill="#939393" d="M 123.5,55.5 C 127.5,55.5 131.5,55.5 135.5,55.5C 135.5,62.5 135.5,69.5 135.5,76.5C 134.509,70.021 134.176,63.3543 134.5,56.5C 130.629,56.815 126.962,56.4816 123.5,55.5 Z"/></g>
<g><path style="opacity:1" fill="#8e8e8e" d="M 52.5,55.5 C 60.8333,55.5 69.1667,55.5 77.5,55.5C 77.5,58.1667 77.5,60.8333 77.5,63.5C 71.1667,63.5 64.8333,63.5 58.5,63.5C 58.5,62.1667 58.5,60.8333 58.5,59.5C 59.404,60.209 59.7373,61.209 59.5,62.5C 65.1667,62.5 70.8333,62.5 76.5,62.5C 76.5,60.5 76.5,58.5 76.5,56.5C 68.3159,56.8257 60.3159,56.4924 52.5,55.5 Z"/></g>
<g><path style="opacity:1" fill="#9a9a9a" d="M 193.5,55.5 C 201.833,55.5 210.167,55.5 218.5,55.5C 218.5,58.1667 218.5,60.8333 218.5,63.5C 212.31,63.8229 206.31,63.4896 200.5,62.5C 206.167,62.5 211.833,62.5 217.5,62.5C 217.5,60.5 217.5,58.5 217.5,56.5C 211.642,56.1778 205.975,56.5111 200.5,57.5C 199.833,57.5 199.167,57.5 198.5,57.5C 196.833,56.8333 195.167,56.1667 193.5,55.5 Z"/></g>
<g><path style="opacity:1" fill="#9e9e9e" d="M 22.5,55.5 C 24.8333,55.5 27.1667,55.5 29.5,55.5C 29.5,62.5 29.5,69.5 29.5,76.5C 28.5093,70.021 28.176,63.3543 28.5,56.5C 27.1667,56.5 25.8333,56.5 24.5,56.5C 24.5,63.5 24.5,70.5 24.5,77.5C 21.8333,77.5 19.1667,77.5 16.5,77.5C 16.1795,72.3054 16.5128,67.3054 17.5,62.5C 17.5,67.1667 17.5,71.8333 17.5,76.5C 19.5,76.5 21.5,76.5 23.5,76.5C 23.8235,69.9779 23.4902,63.6446 22.5,57.5C 22.5,56.8333 22.5,56.1667 22.5,55.5 Z"/></g>
<g><path style="opacity:1" fill="#545454" d="M 142.5,56.5 C 142.5,63.5 142.5,70.5 142.5,77.5C 139.941,77.8016 137.607,77.4682 135.5,76.5C 137.5,76.5 139.5,76.5 141.5,76.5C 141.176,69.6457 141.509,62.979 142.5,56.5 Z"/></g>
<g><path style="opacity:1" fill="#b6b6b6" d="M 88.5,66.5 C 96.5,66.5 104.5,66.5 112.5,66.5C 112.5,67.5 112.5,68.5 112.5,69.5C 112.167,69.5 111.833,69.5 111.5,69.5C 104.054,67.8467 96.3875,66.8467 88.5,66.5 Z"/></g>
<g><path style="opacity:1" fill="#bebebe" d="M 359.5,76.5 C 358.523,73.7131 358.19,70.7131 358.5,67.5C 353.167,67.5 347.833,67.5 342.5,67.5C 342.81,70.7131 342.477,73.7131 341.5,76.5C 341.5,73.1667 341.5,69.8333 341.5,66.5C 347.5,66.5 353.5,66.5 359.5,66.5C 359.5,69.8333 359.5,73.1667 359.5,76.5 Z"/></g>
<g><path style="opacity:1" fill="#545454" d="M 194.5,62.5 C 194.5,67.1667 194.5,71.8333 194.5,76.5C 196.5,76.5 198.5,76.5 200.5,76.5C 198.393,77.4682 196.059,77.8016 193.5,77.5C 193.179,72.3054 193.513,67.3054 194.5,62.5 Z"/></g>
<g><path style="opacity:1" fill="#686868" d="M 341.5,48.5 C 341.5,48.8333 341.5,49.1667 341.5,49.5C 339.5,49.5 337.5,49.5 335.5,49.5C 335.5,58.5 335.5,67.5 335.5,76.5C 337.5,76.5 339.5,76.5 341.5,76.5C 339.393,77.4682 337.059,77.8016 334.5,77.5C 334.5,67.8333 334.5,58.1667 334.5,48.5C 336.833,48.5 339.167,48.5 341.5,48.5 Z"/></g>
<g><path style="opacity:1" fill="#747474" d="M 83.5,55.5 C 84.4916,62.6476 84.825,69.9809 84.5,77.5C 81.8333,77.5 79.1667,77.5 76.5,77.5C 76.5,75.1667 76.5,72.8333 76.5,70.5C 70.8333,70.5 65.1667,70.5 59.5,70.5C 59.5,72.8333 59.5,75.1667 59.5,77.5C 56.9407,77.8016 54.6074,77.4682 52.5,76.5C 54.5,76.5 56.5,76.5 58.5,76.5C 58.5,74.1667 58.5,71.8333 58.5,69.5C 64.8333,69.5 71.1667,69.5 77.5,69.5C 77.5,71.8333 77.5,74.1667 77.5,76.5C 79.5,76.5 81.5,76.5 83.5,76.5C 83.5,69.5 83.5,62.5 83.5,55.5 Z"/></g>
<g><path style="opacity:1" fill="#838383" d="M 111.5,69.5 C 111.833,69.5 112.167,69.5 112.5,69.5C 104.684,70.4924 96.6841,70.8257 88.5,70.5C 88.5,72.5 88.5,74.5 88.5,76.5C 96.8333,76.5 105.167,76.5 113.5,76.5C 105.016,77.493 96.3494,77.8264 87.5,77.5C 87.5,74.8333 87.5,72.1667 87.5,69.5C 95.5,69.5 103.5,69.5 111.5,69.5 Z"/></g>
<g><path style="opacity:1" fill="#848484" d="M 165.5,66.5 C 165.5,67.5 165.5,68.5 165.5,69.5C 173.833,69.5 182.167,69.5 190.5,69.5C 190.5,72.1667 190.5,74.8333 190.5,77.5C 180.652,77.8271 170.986,77.4938 161.5,76.5C 170.833,76.5 180.167,76.5 189.5,76.5C 189.5,74.5 189.5,72.5 189.5,70.5C 181.167,70.5 172.833,70.5 164.5,70.5C 164.232,68.901 164.566,67.5676 165.5,66.5 Z"/></g>
<g><path style="opacity:1" fill="#777777" d="M 306.5,69.5 C 314.833,69.5 323.167,69.5 331.5,69.5C 331.5,71.5 331.5,73.5 331.5,75.5C 330.549,74.0813 330.216,72.4147 330.5,70.5C 322.316,70.8257 314.316,70.4924 306.5,69.5 Z"/></g>
<g><path style="opacity:1" fill="#969696" d="M 223.5,75.5 C 224.043,75.56 224.376,75.8933 224.5,76.5C 221.02,77.8056 217.687,77.8056 214.5,76.5C 217.713,76.81 220.713,76.4767 223.5,75.5 Z"/></g>
<g><path style="opacity:1" fill="#9b9b9b" d="M 292.5,66.5 C 285.655,67.1666 278.655,67.8333 271.5,68.5C 279.807,69.4979 288.14,69.8312 296.5,69.5C 296.5,72.1667 296.5,74.8333 296.5,77.5C 286.319,77.8274 276.319,77.494 266.5,76.5C 276.167,76.5 285.833,76.5 295.5,76.5C 295.5,74.5 295.5,72.5 295.5,70.5C 287.167,70.5 278.833,70.5 270.5,70.5C 270.5,69.1667 270.5,67.8333 270.5,66.5C 277.833,66.5 285.167,66.5 292.5,66.5 Z"/></g>
</svg>
