<?xml version="1.0" standalone="no"?>
<!DOCTYPE svg PUBLIC "-//W3C//DTD SVG 20010904//EN"
 "http://www.w3.org/TR/2001/REC-SVG-20010904/DTD/svg10.dtd">
<svg version="1.0" xmlns="http://www.w3.org/2000/svg"
 width="257.000000pt" height="196.000000pt" viewBox="0 0 257.000000 196.000000"
 preserveAspectRatio="xMidYMid meet">

<g transform="translate(0.000000,196.000000) scale(0.100000,-0.100000)"
fill="#000000" stroke="none">
<path d="M366 1098 c-3 -7 -13 -66 -23 -130 l-19 -118 42 0 42 0 9 68 8 67 19
-68 c18 -63 21 -68 45 -65 21 3 28 12 45 68 l21 65 2 -45 c6 -84 9 -90 53 -90
26 0 40 5 40 13 -1 6 -9 64 -18 127 l-18 115 -42 3 c-38 3 -43 1 -53 -25 -6
-15 -13 -43 -16 -60 -3 -18 -9 -33 -12 -33 -4 0 -13 26 -21 58 l-15 57 -43 3
c-28 2 -44 -1 -46 -10z"/>
<path d="M670 980 l0 -130 45 0 45 0 0 130 0 130 -45 0 -45 0 0 -130z"/>
<path d="M860 1097 c-76 -27 -106 -135 -54 -196 29 -34 89 -57 127 -47 21 5
26 13 29 48 3 24 4 44 3 45 -1 2 -15 -3 -32 -9 -39 -15 -63 1 -63 43 0 37 32
56 66 40 23 -10 24 -9 24 34 0 29 -4 45 -12 45 -7 0 -22 2 -33 5 -11 2 -36 -1
-55 -8z"/>
<path d="M987 1103 c-4 -3 -7 -62 -7 -130 l0 -123 45 0 45 0 1 43 0 42 22 -42
c20 -42 22 -43 69 -43 l48 0 -31 49 -30 50 20 20 c23 23 28 70 11 101 -6 11
-27 24 -48 30 -41 11 -135 14 -145 3z m118 -88 c0 -11 -8 -21 -17 -23 -14 -3
-18 3 -18 23 0 20 4 26 18 23 9 -2 17 -12 17 -23z"/>
<path d="M1296 1100 c-92 -28 -120 -150 -49 -216 77 -71 213 -14 213 89 0 23
-6 53 -13 66 -26 50 -94 78 -151 61z m77 -110 c8 -30 -24 -64 -51 -56 -33 11
-40 55 -13 78 27 21 55 11 64 -22z"/>
<path d="M1480 979 l0 -130 43 3 42 3 0 57 c-1 64 5 63 44 -9 24 -44 29 -48
69 -51 l42 -3 0 130 0 131 -40 0 -39 0 -3 -62 -3 -63 -35 63 c-34 61 -35 62
-77 62 l-43 0 0 -131z"/>
<path d="M1740 980 l0 -130 45 0 45 0 0 130 0 130 -45 0 -45 0 0 -130z"/>
<path d="M1930 1097 c-72 -25 -105 -132 -59 -191 36 -46 98 -67 143 -50 11 4
16 19 16 49 l0 43 -29 -11 c-37 -14 -61 3 -61 44 0 37 32 56 66 40 23 -10 24
-9 24 34 0 29 -4 45 -12 45 -7 0 -22 2 -33 5 -11 2 -36 -1 -55 -8z"/>
<path d="M2135 1103 c-38 -9 -65 -44 -65 -84 0 -39 14 -56 54 -67 14 -4 25
-11 23 -17 -2 -11 -22 -12 -52 -2 -17 6 -23 1 -32 -24 -11 -29 -11 -31 22 -45
92 -38 182 18 161 100 -4 17 -19 29 -51 42 -25 9 -45 21 -45 25 0 13 44 11 58
-3 8 -8 14 -5 22 16 5 15 10 31 10 36 0 8 -67 32 -80 29 -3 -1 -14 -3 -25 -6z"/>
</g>
</svg>
