<?xml version="1.0" encoding="UTF-8"?>
<!DOCTYPE svg PUBLIC "-//W3C//DTD SVG 1.1//EN" "http://www.w3.org/Graphics/SVG/1.1/DTD/svg11.dtd">
<svg xmlns="http://www.w3.org/2000/svg" version="1.1" width="362px" height="139px" style="shape-rendering:geometricPrecision; text-rendering:geometricPrecision; image-rendering:optimizeQuality; fill-rule:evenodd; clip-rule:evenodd" xmlns:xlink="http://www.w3.org/1999/xlink">
<g><path style="opacity:1" fill="#fefefe" d="M -0.5,-0.5 C 20.1667,-0.5 40.8333,-0.5 61.5,-0.5C 26.4802,6.35034 7.48018,27.517 4.5,63C 4.35183,72.2412 6.18516,81.0745 10,89.5C 6.18266,55.6328 19.6827,31.4661 50.5,17C 82.5173,6.54221 109.351,14.0422 131,39.5C 125.045,23.2075 113.878,11.7075 97.5,5C 90.6006,2.18982 83.6006,0.356485 76.5,-0.5C 171.5,-0.5 266.5,-0.5 361.5,-0.5C 361.5,14.8333 361.5,30.1667 361.5,45.5C 360.728,44.3065 359.728,43.3065 358.5,42.5C 357.508,40.9735 356.008,40.3068 354,40.5C 351.992,40.3068 350.492,40.9735 349.5,42.5C 346.066,45.2142 345.733,48.2142 348.5,51.5C 349.425,53.8837 351.258,54.8837 354,54.5C 356.742,54.8837 358.575,53.8837 359.5,51.5C 360.167,51.1667 360.833,50.8333 361.5,50.5C 361.5,79.8333 361.5,109.167 361.5,138.5C 266.167,138.5 170.833,138.5 75.5,138.5C 106.907,132.935 126.74,114.601 135,83.5C 137.323,94.7523 139.157,106.086 140.5,117.5C 145.833,117.5 151.167,117.5 156.5,117.5C 152.991,94.7578 149.158,72.0912 145,49.5C 140.599,48.5333 136.099,48.2 131.5,48.5C 133.167,65.3412 130.334,81.3412 123,96.5C 121,99.1667 119,101.833 117,104.5C 113.842,85.9092 111.009,67.2425 108.5,48.5C 103.57,48.1975 98.7367,48.5308 94,49.5C 93.0531,66.6272 88.3865,82.6272 80,97.5C 73.177,107.326 64.0103,113.826 52.5,117C 75.5312,116.304 91.0312,105.137 99,83.5C 101.386,95.4145 102.719,107.414 103,119.5C 67.4002,135.683 36.4002,129.35 10,100.5C 6.24544,95.9974 3.24544,90.9974 1,85.5C 5.13436,103.914 15.301,118.08 31.5,128C 40.0478,133.01 49.0478,136.51 58.5,138.5C 38.8333,138.5 19.1667,138.5 -0.5,138.5C -0.5,92.1667 -0.5,45.8333 -0.5,-0.5 Z"/></g>
<g><path style="opacity:1" fill="#1ab1f0" d="M 61.5,-0.5 C 66.5,-0.5 71.5,-0.5 76.5,-0.5C 83.6006,0.356485 90.6006,2.18982 97.5,5C 113.878,11.7075 125.045,23.2075 131,39.5C 109.351,14.0422 82.5173,6.54221 50.5,17C 19.6827,31.4661 6.18266,55.6328 10,89.5C 6.18516,81.0745 4.35183,72.2412 4.5,63C 7.48018,27.517 26.4802,6.35034 61.5,-0.5 Z"/></g>
<g><path style="opacity:1" fill="#48b7f1" d="M 358.5,42.5 C 355.5,41.1667 352.5,41.1667 349.5,42.5C 350.492,40.9735 351.992,40.3068 354,40.5C 356.008,40.3068 357.508,40.9735 358.5,42.5 Z"/></g>
<g><path style="opacity:1" fill="#f6fbfe" d="M 358.5,42.5 C 359.299,45.4299 359.632,48.4299 359.5,51.5C 358.883,51.6107 358.383,51.944 358,52.5C 357.722,51.5842 357.222,50.9175 356.5,50.5C 356.5,51.5 356.5,52.5 356.5,53.5C 353.579,53.7174 350.913,53.0507 348.5,51.5C 348.368,48.4299 348.701,45.4299 349.5,42.5C 352.5,41.1667 355.5,41.1667 358.5,42.5 Z"/></g>
<g><path style="opacity:1" fill="#84ccf5" d="M 349.5,42.5 C 348.701,45.4299 348.368,48.4299 348.5,51.5C 345.733,48.2142 346.066,45.2142 349.5,42.5 Z"/></g>
<g><path style="opacity:1" fill="#6ec2f3" d="M 356.5,44.5 C 356.465,46.5088 356.465,48.5088 356.5,50.5C 354.227,47.6024 352.727,47.9358 352,51.5C 351.503,48.854 351.336,46.1873 351.5,43.5C 353.415,43.2155 355.081,43.5489 356.5,44.5 Z"/></g>
<g><path style="opacity:1" fill="#f9fcfe" d="M 356.5,44.5 C 356.38,45.5862 355.713,46.2528 354.5,46.5C 353.833,46.1667 353.167,45.8333 352.5,45.5C 353.689,44.5713 355.022,44.238 356.5,44.5 Z"/></g>
<g><path style="opacity:1" fill="#72c6f4" d="M 358.5,42.5 C 359.728,43.3065 360.728,44.3065 361.5,45.5C 361.5,47.1667 361.5,48.8333 361.5,50.5C 360.833,50.8333 360.167,51.1667 359.5,51.5C 359.632,48.4299 359.299,45.4299 358.5,42.5 Z"/></g>
<g><path style="opacity:1" fill="#18b1f0" d="M 75.5,138.5 C 69.8333,138.5 64.1667,138.5 58.5,138.5C 49.0478,136.51 40.0478,133.01 31.5,128C 15.301,118.08 5.13436,103.914 1,85.5C 3.24544,90.9974 6.24544,95.9974 10,100.5C 36.4002,129.35 67.4002,135.683 103,119.5C 102.719,107.414 101.386,95.4145 99,83.5C 91.0312,105.137 75.5312,116.304 52.5,117C 64.0103,113.826 73.177,107.326 80,97.5C 88.3865,82.6272 93.0531,66.6272 94,49.5C 98.7367,48.5308 103.57,48.1975 108.5,48.5C 111.009,67.2425 113.842,85.9092 117,104.5C 119,101.833 121,99.1667 123,96.5C 130.334,81.3412 133.167,65.3412 131.5,48.5C 136.099,48.2 140.599,48.5333 145,49.5C 149.158,72.0912 152.991,94.7578 156.5,117.5C 151.167,117.5 145.833,117.5 140.5,117.5C 139.157,106.086 137.323,94.7523 135,83.5C 126.74,114.601 106.907,132.935 75.5,138.5 Z"/></g>
<g><path style="opacity:1" fill="#0db0f0" d="M 165.5,48.5 C 169.5,48.5 173.5,48.5 177.5,48.5C 177.5,52.5 177.5,56.5 177.5,60.5C 173.5,60.5 169.5,60.5 165.5,60.5C 165.5,56.5 165.5,52.5 165.5,48.5 Z"/></g>
<g><path style="opacity:1" fill="#0db0f0" d="M 225.5,48.5 C 229.5,48.5 233.5,48.5 237.5,48.5C 237.5,71.5 237.5,94.5 237.5,117.5C 233.5,117.5 229.5,117.5 225.5,117.5C 225.662,115.473 225.495,113.473 225,111.5C 216.943,118.021 208.11,119.188 198.5,115C 187.695,106.571 184.529,95.7376 189,82.5C 192.112,74.3879 197.946,69.5546 206.5,68C 212.651,67.0343 218.651,67.5343 224.5,69.5C 225.497,62.5316 225.83,55.5316 225.5,48.5 Z"/></g>
<g><path style="opacity:1" fill="#68c0f3" d="M 356.5,50.5 C 357.222,50.9175 357.722,51.5842 358,52.5C 358.383,51.944 358.883,51.6107 359.5,51.5C 358.575,53.8837 356.742,54.8837 354,54.5C 351.258,54.8837 349.425,53.8837 348.5,51.5C 350.913,53.0507 353.579,53.7174 356.5,53.5C 356.5,52.5 356.5,51.5 356.5,50.5 Z"/></g>
<g><path style="opacity:1" fill="#0ab0f0" d="M 165.5,67.5 C 169.5,67.5 173.5,67.5 177.5,67.5C 177.5,84.1667 177.5,100.833 177.5,117.5C 173.5,117.5 169.5,117.5 165.5,117.5C 165.5,100.833 165.5,84.1667 165.5,67.5 Z"/></g>
<g><path style="opacity:1" fill="#19b0f0" d="M 319.5,67.5 C 327.206,66.6646 334.539,67.8312 341.5,71C 342.787,72.4095 343.954,73.9095 345,75.5C 346.465,89.4021 346.965,103.402 346.5,117.5C 343.167,117.5 339.833,117.5 336.5,117.5C 336.66,115.801 336.494,114.134 336,112.5C 330.689,117.146 324.523,118.646 317.5,117C 304.665,112.165 301.498,103.665 308,91.5C 312.872,86.82 318.706,84.82 325.5,85.5C 329.201,85.6267 332.868,85.96 336.5,86.5C 336.823,80.9695 334.49,77.1361 329.5,75C 321.538,73.1563 315.204,75.4896 310.5,82C 308.704,82.436 307.371,81.7693 306.5,80C 308.764,73.5673 313.097,69.4006 319.5,67.5 Z"/></g>
<g><path style="opacity:1" fill="#18b1f0" d="M 264.5,67.5 C 284.955,65.1915 295.288,74.1915 295.5,94.5C 283.5,94.5 271.5,94.5 259.5,94.5C 259.679,100.69 262.679,104.857 268.5,107C 273.167,107.667 277.833,107.667 282.5,107C 285.807,106.347 288.473,104.681 290.5,102C 292.259,101.202 293.926,101.369 295.5,102.5C 289.694,114.737 280.027,119.57 266.5,117C 250.053,111.612 243.886,100.445 248,83.5C 251.438,75.8934 256.938,70.56 264.5,67.5 Z"/></g>
<g><path style="opacity:1" fill="#fcfefe" d="M 208.5,76.5 C 214.572,75.7772 220.072,77.1105 225,80.5C 225.667,88.1667 225.667,95.8333 225,103.5C 217.94,108.68 210.94,108.68 204,103.5C 198.134,93.0329 199.634,84.0329 208.5,76.5 Z"/></g>
<g><path style="opacity:1" fill="#f7fbfe" d="M 268.5,75.5 C 277.638,74.6571 282.972,78.6571 284.5,87.5C 276.167,87.5 267.833,87.5 259.5,87.5C 260.211,81.7885 263.211,77.7885 268.5,75.5 Z"/></g>
<g><path style="opacity:1" fill="#f9fcfe" d="M 321.5,92.5 C 326.297,92.1211 330.964,92.6211 335.5,94C 336.629,98.0785 336.796,102.245 336,106.5C 328.656,111.091 321.989,110.424 316,104.5C 315.333,102.167 315.333,99.8333 316,97.5C 317.73,95.5981 319.563,93.9314 321.5,92.5 Z"/></g>
</svg>
