<?xml version="1.0" encoding="UTF-8"?>
<!DOCTYPE svg PUBLIC "-//W3C//DTD SVG 1.1//EN" "http://www.w3.org/Graphics/SVG/1.1/DTD/svg11.dtd">
<svg xmlns="http://www.w3.org/2000/svg" version="1.1" width="225px" height="148px" style="shape-rendering:geometricPrecision; text-rendering:geometricPrecision; image-rendering:optimizeQuality; fill-rule:evenodd; clip-rule:evenodd" xmlns:xlink="http://www.w3.org/1999/xlink">
<g><path style="opacity:1" fill="#f5f5f5" d="M -0.5,-0.5 C 31.5,-0.5 63.5,-0.5 95.5,-0.5C 95.5,2.16667 95.5,4.83333 95.5,7.5C 98.1667,7.5 100.833,7.5 103.5,7.5C 103.5,8.5 103.5,9.5 103.5,10.5C 95.4318,10.4909 87.4318,9.82426 79.5,8.5C 79.5,9.5 79.5,10.5 79.5,11.5C 76.8333,11.5 74.1667,11.5 71.5,11.5C 71.5,12.5 71.5,13.5 71.5,14.5C 68.8333,14.5 66.1667,14.5 63.5,14.5C 63.5,15.8333 63.5,17.1667 63.5,18.5C 60.2893,18.988 57.456,18.3213 55,16.5C 52.6667,18.5 50.3333,20.5 48,22.5C 47.7508,21.376 47.2508,20.376 46.5,19.5C 44.7392,21.6798 42.5726,23.3464 40,24.5C 39.6667,23.8333 39.3333,23.1667 39,22.5C 35.1537,24.5015 32.6537,27.5015 31.5,31.5C 26.93,32.1412 22.93,32.1412 19.5,31.5C 19.5,34.1667 19.5,36.8333 19.5,39.5C 16.8333,39.5 14.1667,39.5 11.5,39.5C 11.5,42.1667 11.5,44.8333 11.5,47.5C 8.83333,47.5 6.16667,47.5 3.5,47.5C 3.5,50.1667 3.5,52.8333 3.5,55.5C 2.16667,55.5 0.833333,55.5 -0.5,55.5C -0.5,36.8333 -0.5,18.1667 -0.5,-0.5 Z"/></g>
<g><path style="opacity:1" fill="#fbfcfc" d="M 95.5,-0.5 C 110.5,-0.5 125.5,-0.5 140.5,-0.5C 140.5,2.16667 140.5,4.83333 140.5,7.5C 138.833,7.5 137.167,7.5 135.5,7.5C 135.5,8.5 135.5,9.5 135.5,10.5C 143.517,10.5012 151.517,10.8345 159.5,11.5C 159.351,10.448 159.517,9.44802 160,8.5C 162.074,10.4521 164.241,12.2854 166.5,14C 172.157,15.0175 177.823,15.8509 183.5,16.5C 183.5,17.5 183.5,18.5 183.5,19.5C 188.833,19.5 194.167,19.5 199.5,19.5C 199.34,21.1992 199.506,22.8659 200,24.5C 201.494,23.2528 202.994,23.2528 204.5,24.5C 206.426,29.4592 209.759,33.1259 214.5,35.5C 215.429,34.3112 215.762,32.9778 215.5,31.5C 218.167,31.5 220.833,31.5 223.5,31.5C 223.232,33.099 223.566,34.4324 224.5,35.5C 224.5,61.1667 224.5,86.8333 224.5,112.5C 221.15,112.335 217.817,112.502 214.5,113C 211.833,115 209.167,117 206.5,119C 207.167,119.333 207.833,119.667 208.5,120C 207.663,121.011 207.33,122.178 207.5,123.5C 204.833,123.5 202.167,123.5 199.5,123.5C 199.5,124.5 199.5,125.5 199.5,126.5C 194.167,126.5 188.833,126.5 183.5,126.5C 183.5,128.167 183.5,129.833 183.5,131.5C 180.833,131.5 178.167,131.5 175.5,131.5C 175.5,132.5 175.5,133.5 175.5,134.5C 172.833,134.5 170.167,134.5 167.5,134.5C 167.719,133.325 167.386,132.325 166.5,131.5C 164.332,133.633 162.666,136.133 161.5,139C 159.939,139.188 159.272,138.355 159.5,136.5C 152.798,136.664 146.131,136.331 139.5,135.5C 139.505,139.534 139.838,143.534 140.5,147.5C 125.5,147.5 110.5,147.5 95.5,147.5C 95.5,143.5 95.5,139.5 95.5,135.5C 91.476,135.503 87.476,135.836 83.5,136.5C 76.8601,135.503 70.1934,134.837 63.5,134.5C 63.5,132.5 63.5,130.5 63.5,128.5C 57.8236,128.666 52.1569,128.499 46.5,128C 47.1667,127.667 47.8333,127.333 48.5,127C 45.5767,124.955 42.7433,122.788 40,120.5C 38.8372,124.213 37.3372,124.213 35.5,120.5C 34.3112,119.571 32.9778,119.238 31.5,119.5C 31.5,118.167 31.5,116.833 31.5,115.5C 28.1501,115.665 24.8168,115.498 21.5,115C 19.9963,113.509 19.1629,111.676 19,109.5C 17.5093,107.996 15.676,107.163 13.5,107C 12.1667,104.667 10.8333,102.333 9.5,100C 6.7708,99.9953 4.7708,98.8287 3.5,96.5C 4.72865,95.7189 6.06199,95.2189 7.5,95C 4.98605,92.5855 2.31938,90.4188 -0.5,88.5C -0.5,77.5 -0.5,66.5 -0.5,55.5C 0.833333,55.5 2.16667,55.5 3.5,55.5C 3.5,52.8333 3.5,50.1667 3.5,47.5C 6.16667,47.5 8.83333,47.5 11.5,47.5C 11.5,44.8333 11.5,42.1667 11.5,39.5C 14.1667,39.5 16.8333,39.5 19.5,39.5C 19.5,36.8333 19.5,34.1667 19.5,31.5C 22.93,32.1412 26.93,32.1412 31.5,31.5C 32.6537,27.5015 35.1537,24.5015 39,22.5C 39.3333,23.1667 39.6667,23.8333 40,24.5C 42.5726,23.3464 44.7392,21.6798 46.5,19.5C 47.2508,20.376 47.7508,21.376 48,22.5C 50.3333,20.5 52.6667,18.5 55,16.5C 57.456,18.3213 60.2893,18.988 63.5,18.5C 63.5,17.1667 63.5,15.8333 63.5,14.5C 66.1667,14.5 68.8333,14.5 71.5,14.5C 71.5,13.5 71.5,12.5 71.5,11.5C 74.1667,11.5 76.8333,11.5 79.5,11.5C 79.5,10.5 79.5,9.5 79.5,8.5C 87.4318,9.82426 95.4318,10.4909 103.5,10.5C 103.5,9.5 103.5,8.5 103.5,7.5C 100.833,7.5 98.1667,7.5 95.5,7.5C 95.5,4.83333 95.5,2.16667 95.5,-0.5 Z"/></g>
<g><path style="opacity:1" fill="#f5f5f5" d="M 140.5,-0.5 C 168.5,-0.5 196.5,-0.5 224.5,-0.5C 224.5,11.5 224.5,23.5 224.5,35.5C 223.566,34.4324 223.232,33.099 223.5,31.5C 220.833,31.5 218.167,31.5 215.5,31.5C 215.762,32.9778 215.429,34.3112 214.5,35.5C 209.759,33.1259 206.426,29.4592 204.5,24.5C 202.994,23.2528 201.494,23.2528 200,24.5C 199.506,22.8659 199.34,21.1992 199.5,19.5C 194.167,19.5 188.833,19.5 183.5,19.5C 183.5,18.5 183.5,17.5 183.5,16.5C 177.823,15.8509 172.157,15.0175 166.5,14C 164.241,12.2854 162.074,10.4521 160,8.5C 159.517,9.44802 159.351,10.448 159.5,11.5C 151.517,10.8345 143.517,10.5012 135.5,10.5C 135.5,9.5 135.5,8.5 135.5,7.5C 137.167,7.5 138.833,7.5 140.5,7.5C 140.5,4.83333 140.5,2.16667 140.5,-0.5 Z"/></g>
<g><path style="opacity:1" fill="#58566d" d="M 38.5,63.5 C 35.7892,63.1849 33.4559,63.8516 31.5,65.5C 31.5,64.5 31.5,63.5 31.5,62.5C 34.0593,62.1984 36.3926,62.5318 38.5,63.5 Z"/></g>
<g><path style="opacity:1" fill="#3c3860" d="M 97.5,62.5 C 102.833,62.5 108.167,62.5 113.5,62.5C 113.5,64.1667 113.5,65.8333 113.5,67.5C 111.833,67.5 110.167,67.5 108.5,67.5C 109.209,66.596 110.209,66.2627 111.5,66.5C 111.5,65.5 111.5,64.5 111.5,63.5C 108.102,63.1796 104.768,63.513 101.5,64.5C 102.127,65.4168 102.461,66.4168 102.5,67.5C 100.833,67.5 99.1667,67.5 97.5,67.5C 97.5,65.8333 97.5,64.1667 97.5,62.5 Z"/></g>
<g><path style="opacity:1" fill="#48465c" d="M 199.5,63.5 C 201.966,62.3659 204.633,62.1993 207.5,63C 206.956,63.7172 206.289,64.2172 205.5,64.5C 203.735,63.5386 201.735,63.2053 199.5,63.5 Z"/></g>
<g><path style="opacity:1" fill="#141374" d="M 108.5,67.5 C 107.512,72.6405 107.179,77.9738 107.5,83.5C 106.167,83.5 104.833,83.5 103.5,83.5C 103.821,77.9738 103.488,72.6405 102.5,67.5C 102.461,66.4168 102.127,65.4168 101.5,64.5C 104.768,63.513 108.102,63.1796 111.5,63.5C 111.5,64.5 111.5,65.5 111.5,66.5C 110.209,66.2627 109.209,66.596 108.5,67.5 Z"/></g>
<g><path style="opacity:1" fill="#6e73a4" d="M 117.5,63.5 C 117.5,70.1667 117.5,76.8333 117.5,83.5C 119.167,83.5 120.833,83.5 122.5,83.5C 122.192,81.076 122.526,78.7427 123.5,76.5C 124.298,76.9569 124.631,77.6236 124.5,78.5C 123.539,80.2646 123.205,82.2646 123.5,84.5C 121.167,84.5 118.833,84.5 116.5,84.5C 116.175,77.3134 116.509,70.3134 117.5,63.5 Z"/></g>
<g><path style="opacity:1" fill="#1d1b6b" d="M 129.5,62.5 C 134.666,64.9861 135.666,68.6528 132.5,73.5C 131.675,74.3857 130.675,74.719 129.5,74.5C 129.351,75.552 129.517,76.552 130,77.5C 132.018,79.3501 133.851,81.3501 135.5,83.5C 133.167,84.8333 130.833,84.8333 128.5,83.5C 127.388,81.5808 126.054,79.9142 124.5,78.5C 124.631,77.6236 124.298,76.9569 123.5,76.5C 122.526,78.7427 122.192,81.076 122.5,83.5C 120.833,83.5 119.167,83.5 117.5,83.5C 117.5,76.8333 117.5,70.1667 117.5,63.5C 121.298,62.5166 125.298,62.1832 129.5,62.5 Z"/></g>
<g><path style="opacity:1" fill="#23215f" d="M 155.5,68.5 C 152.916,67.9517 151.916,66.285 152.5,63.5C 150.833,63.5 149.167,63.5 147.5,63.5C 147.238,64.9778 147.571,66.3112 148.5,67.5C 150.134,67.968 151.3,68.968 152,70.5C 152.943,73.8445 153.777,77.1779 154.5,80.5C 151.167,80.5 147.833,80.5 144.5,80.5C 144.768,82.099 144.434,83.4324 143.5,84.5C 141.396,84.7989 139.396,84.4656 137.5,83.5C 138.246,82.2638 138.579,80.9305 138.5,79.5C 139.167,78.8333 139.833,78.1667 140.5,77.5C 140.051,79.9775 140.717,81.9775 142.5,83.5C 143.429,82.3112 143.762,80.9778 143.5,79.5C 148.242,80.188 149.075,79.188 146,76.5C 145.728,73.7462 145.228,71.0795 144.5,68.5C 145.018,62.6832 148.018,61.0166 153.5,63.5C 154.456,65.0754 155.123,66.742 155.5,68.5 Z"/></g>
<g><path style="opacity:1" fill="#383c61" d="M 192.5,71.5 C 191.527,69.0521 191.194,66.3854 191.5,63.5C 190.167,63.5 188.833,63.5 187.5,63.5C 187.5,70.1667 187.5,76.8333 187.5,83.5C 189.167,83.5 190.833,83.5 192.5,83.5C 190.735,84.4614 188.735,84.7947 186.5,84.5C 186.5,77.1667 186.5,69.8333 186.5,62.5C 188.5,62.5 190.5,62.5 192.5,62.5C 192.5,65.5 192.5,68.5 192.5,71.5 Z"/></g>
<g><path style="opacity:1" fill="#dae0ee" d="M 122.5,66.5 C 127.159,66.0146 128.492,67.848 126.5,72C 125.207,72.49 123.873,72.6567 122.5,72.5C 122.5,70.5 122.5,68.5 122.5,66.5 Z"/></g>
<g><path style="opacity:1" fill="#9692c7" d="M 54.5,63.5 C 54.8333,63.5 55.1667,63.5 55.5,63.5C 56.2071,66.7861 56.5405,70.1194 56.5,73.5C 55.2154,70.4115 54.5488,67.0781 54.5,63.5 Z"/></g>
<g><path style="opacity:1" fill="#151671" d="M 192.5,71.5 C 193.5,70.8333 194.5,70.1667 195.5,69.5C 196.496,69.5858 197.329,69.2524 198,68.5C 199.22,72.2931 198.053,74.9598 194.5,76.5C 194.44,75.9569 194.107,75.6236 193.5,75.5C 192.52,78.0865 192.187,80.7531 192.5,83.5C 190.833,83.5 189.167,83.5 187.5,83.5C 187.5,76.8333 187.5,70.1667 187.5,63.5C 188.833,63.5 190.167,63.5 191.5,63.5C 191.194,66.3854 191.527,69.0521 192.5,71.5 Z"/></g>
<g><path style="opacity:1" fill="#eeeff5" d="M 97.5,62.5 C 97.5,64.1667 97.5,65.8333 97.5,67.5C 99.1667,67.5 100.833,67.5 102.5,67.5C 102.5,73.1667 102.5,78.8333 102.5,84.5C 101.183,84.179 99.8492,83.8457 98.5,83.5C 95.2184,84.7544 92.0517,86.0878 89,87.5C 88,86.8333 87,86.1667 86,85.5C 86.9791,83.7215 86.6458,82.0548 85,80.5C 84.0853,81.3279 83.4186,82.3279 83,83.5C 82.7216,82.5842 82.2216,81.9175 81.5,81.5C 81.3585,84.4799 79.8585,86.4799 77,87.5C 74.2529,87.1631 71.4196,86.9964 68.5,87C 70.9351,85.9966 70.6018,85.4966 67.5,85.5C 65.4075,85.4858 63.5741,86.1524 62,87.5C 61.5,87 61,86.5 60.5,86C 61.4231,83.9592 61.7564,81.7925 61.5,79.5C 60.5,79.5 59.5,79.5 58.5,79.5C 58.7845,81.4147 58.4511,83.0813 57.5,84.5C 57.0578,80.8455 56.7244,77.1788 56.5,73.5C 56.5405,70.1194 56.2071,66.7861 55.5,63.5C 56.9823,67.6506 58.4823,71.984 60,76.5C 60.9832,71.7284 61.8166,67.0618 62.5,62.5C 65.1711,61.7021 68.0044,61.0354 71,60.5C 71.772,60.6448 72.4387,60.9781 73,61.5C 77.6041,57.468 81.9374,57.8013 86,62.5C 86.3333,61.8333 86.6667,61.1667 87,60.5C 89.6184,61.7376 92.285,61.7376 95,60.5C 96.0111,61.0556 96.8444,61.7222 97.5,62.5 Z"/></g>
<g><path style="opacity:1" fill="#241f6d" d="M 73.5,63.5 C 75.6282,62.3709 77.9615,62.2042 80.5,63C 81.7256,64.6349 83.059,66.1349 84.5,67.5C 85.5207,66.0986 86.5207,64.7653 87.5,63.5C 89.7354,63.2053 91.7354,63.5386 93.5,64.5C 91.8236,67.1731 90.1569,69.8397 88.5,72.5C 90.4024,76.4102 92.7357,80.0769 95.5,83.5C 93.1667,84.8333 90.8333,84.8333 88.5,83.5C 87.8678,81.0353 86.3678,79.3686 84,78.5C 82.583,79.0779 81.7496,80.0779 81.5,81.5C 80.2092,83.3154 78.3759,84.3154 76,84.5C 74.6153,84.4857 73.4486,84.1524 72.5,83.5C 75.1419,79.8516 77.8086,76.1849 80.5,72.5C 78.3884,69.25 76.0551,66.25 73.5,63.5 Z"/></g>
<g><path style="opacity:1" fill="#f7f7f8" d="M 73.5,63.5 C 76.0551,66.25 78.3884,69.25 80.5,72.5C 77.8086,76.1849 75.1419,79.8516 72.5,83.5C 71.5,83.5 70.5,83.5 69.5,83.5C 69.17,76.8002 69.5033,70.1335 70.5,63.5C 71.5272,64.7914 72.5272,64.7914 73.5,63.5 Z"/></g>
<g><path style="opacity:1" fill="#373869" d="M 62.5,62.5 C 64.5,62.5 66.5,62.5 68.5,62.5C 68.5,69.8333 68.5,77.1667 68.5,84.5C 66.5,84.5 64.5,84.5 62.5,84.5C 62.5,77.1667 62.5,69.8333 62.5,62.5 Z"/></g>
<g><path style="opacity:1" fill="#111473" d="M 63.5,63.5 C 64.8333,63.5 66.1667,63.5 67.5,63.5C 67.7054,69.8778 67.3721,76.2111 66.5,82.5C 65.5,82.5 64.5,82.5 63.5,82.5C 63.5,76.1667 63.5,69.8333 63.5,63.5 Z"/></g>
<g><path style="opacity:1" fill="#524f63" d="M 87.5,63.5 C 89.9664,62.3659 92.633,62.1993 95.5,63C 94.9558,63.7172 94.2891,64.2172 93.5,64.5C 91.7354,63.5386 89.7354,63.2053 87.5,63.5 Z"/></g>
<g><path style="opacity:1" fill="#1c1a6c" d="M 54.5,63.5 C 54.5488,67.0781 55.2154,70.4115 56.5,73.5C 56.7244,77.1788 57.0578,80.8455 57.5,84.5C 55.5,84.5 53.5,84.5 51.5,84.5C 51.212,70.2386 48.8786,69.9052 44.5,83.5C 43.675,84.3857 42.675,84.719 41.5,84.5C 37.7019,68.9699 35.3685,68.9699 34.5,84.5C 32.5,84.5 30.5,84.5 28.5,84.5C 28.2155,82.5853 28.5489,80.9187 29.5,79.5C 30.552,79.6495 31.552,79.4828 32.5,79C 31.565,76.6194 31.2317,74.1194 31.5,71.5C 31.5,69.5 31.5,67.5 31.5,65.5C 33.4559,63.8516 35.7892,63.1849 38.5,63.5C 39.4971,66.9637 40.9971,70.2971 43,73.5C 45.2307,70.2051 47.0641,66.7051 48.5,63C 50.7116,62.2109 52.7116,62.3775 54.5,63.5 Z"/></g>
<g><path style="opacity:1" fill="#d2daf6" d="M 149.5,69.5 C 150.864,71.22 151.864,73.22 152.5,75.5C 150.955,76.4519 149.288,76.7852 147.5,76.5C 147.767,74.0347 148.434,71.7014 149.5,69.5 Z"/></g>
<g><path style="opacity:1" fill="#3f407e" d="M 102.5,67.5 C 103.488,72.6405 103.821,77.9738 103.5,83.5C 104.833,83.5 106.167,83.5 107.5,83.5C 107.179,77.9738 107.512,72.6405 108.5,67.5C 108.5,73.1667 108.5,78.8333 108.5,84.5C 106.5,84.5 104.5,84.5 102.5,84.5C 102.5,78.8333 102.5,73.1667 102.5,67.5 Z"/></g>
<g><path style="opacity:1" fill="#1a1778" d="M 144.5,68.5 C 145.228,71.0795 145.728,73.7462 146,76.5C 149.075,79.188 148.242,80.188 143.5,79.5C 143.762,80.9778 143.429,82.3112 142.5,83.5C 140.717,81.9775 140.051,79.9775 140.5,77.5C 141.594,74.318 142.928,71.318 144.5,68.5 Z"/></g>
<g><path style="opacity:1" fill="#18174b" d="M 31.5,71.5 C 31.2317,74.1194 31.565,76.6194 32.5,79C 31.552,79.4828 30.552,79.6495 29.5,79.5C 29.2938,76.5049 29.9605,73.8383 31.5,71.5 Z"/></g>
<g><path style="opacity:1" fill="#1e1b66" d="M 172.5,62.5 C 175.579,62.2601 178.579,62.5934 181.5,63.5C 182.833,65.1667 182.833,66.8333 181.5,68.5C 175.681,65.96 172.015,67.6267 170.5,73.5C 172.015,79.3733 175.681,81.04 181.5,78.5C 182.466,80.396 182.799,82.396 182.5,84.5C 169.48,86.7008 163.647,81.3674 165,68.5C 167.134,65.8474 169.634,63.8474 172.5,62.5 Z"/></g>
<g><path style="opacity:1" fill="#1c1b74" d="M 155.5,68.5 C 157.245,72.0713 158.578,75.738 159.5,79.5C 159.762,80.9778 159.429,82.3112 158.5,83.5C 157.148,82.4756 155.815,81.4756 154.5,80.5C 153.777,77.1779 152.943,73.8445 152,70.5C 151.3,68.968 150.134,67.968 148.5,67.5C 147.571,66.3112 147.238,64.9778 147.5,63.5C 149.167,63.5 150.833,63.5 152.5,63.5C 151.916,66.285 152.916,67.9517 155.5,68.5 Z"/></g>
<g><path style="opacity:1" fill="#221d68" d="M 199.5,63.5 C 201.735,63.2053 203.735,63.5386 205.5,64.5C 203.381,67.2336 201.381,70.0669 199.5,73C 202.052,76.6109 204.718,80.1109 207.5,83.5C 205.235,84.6474 202.902,84.8141 200.5,84C 198.666,81.3367 196.666,78.8367 194.5,76.5C 198.053,74.9598 199.22,72.2931 198,68.5C 197.329,69.2524 196.496,69.5858 195.5,69.5C 196.833,67.5 198.167,65.5 199.5,63.5 Z"/></g>
<g><path style="opacity:1" fill="#3d3664" d="M 159.5,79.5 C 161.213,80.6354 161.88,82.302 161.5,84.5C 159.396,84.7989 157.396,84.4656 155.5,83.5C 154.873,82.5832 154.539,81.5832 154.5,80.5C 155.815,81.4756 157.148,82.4756 158.5,83.5C 159.429,82.3112 159.762,80.9778 159.5,79.5 Z"/></g>
<g><path style="opacity:1" fill="#e7e8f4" d="M 129.5,62.5 C 131.144,62.2865 132.644,62.6198 134,63.5C 135.51,69.0697 137.01,74.4031 138.5,79.5C 138.579,80.9305 138.246,82.2638 137.5,83.5C 139.396,84.4656 141.396,84.7989 143.5,84.5C 139.018,85.3255 134.351,85.8255 129.5,86C 127.77,87.8524 126.604,87.6857 126,85.5C 125.667,86.1667 125.333,86.8333 125,87.5C 122.286,86.0035 119.453,85.0035 116.5,84.5C 118.833,84.5 121.167,84.5 123.5,84.5C 123.205,82.2646 123.539,80.2646 124.5,78.5C 126.054,79.9142 127.388,81.5808 128.5,83.5C 130.833,84.8333 133.167,84.8333 135.5,83.5C 133.851,81.3501 132.018,79.3501 130,77.5C 129.517,76.552 129.351,75.552 129.5,74.5C 130.675,74.719 131.675,74.3857 132.5,73.5C 135.666,68.6528 134.666,64.9861 129.5,62.5 Z"/></g>
<g><path style="opacity:1" fill="#f5f5f5" d="M -0.5,88.5 C 2.31938,90.4188 4.98605,92.5855 7.5,95C 6.06199,95.2189 4.72865,95.7189 3.5,96.5C 4.7708,98.8287 6.7708,99.9953 9.5,100C 10.8333,102.333 12.1667,104.667 13.5,107C 15.676,107.163 17.5093,107.996 19,109.5C 19.1629,111.676 19.9963,113.509 21.5,115C 24.8168,115.498 28.1501,115.665 31.5,115.5C 31.5,116.833 31.5,118.167 31.5,119.5C 32.9778,119.238 34.3112,119.571 35.5,120.5C 37.3372,124.213 38.8372,124.213 40,120.5C 42.7433,122.788 45.5767,124.955 48.5,127C 47.8333,127.333 47.1667,127.667 46.5,128C 52.1569,128.499 57.8236,128.666 63.5,128.5C 63.5,130.5 63.5,132.5 63.5,134.5C 70.1934,134.837 76.8601,135.503 83.5,136.5C 87.476,135.836 91.476,135.503 95.5,135.5C 95.5,139.5 95.5,143.5 95.5,147.5C 63.5,147.5 31.5,147.5 -0.5,147.5C -0.5,127.833 -0.5,108.167 -0.5,88.5 Z"/></g>
<g><path style="opacity:1" fill="#f5f5f5" d="M 224.5,112.5 C 224.5,124.167 224.5,135.833 224.5,147.5C 196.5,147.5 168.5,147.5 140.5,147.5C 139.838,143.534 139.505,139.534 139.5,135.5C 146.131,136.331 152.798,136.664 159.5,136.5C 159.272,138.355 159.939,139.188 161.5,139C 162.666,136.133 164.332,133.633 166.5,131.5C 167.386,132.325 167.719,133.325 167.5,134.5C 170.167,134.5 172.833,134.5 175.5,134.5C 175.5,133.5 175.5,132.5 175.5,131.5C 178.167,131.5 180.833,131.5 183.5,131.5C 183.5,129.833 183.5,128.167 183.5,126.5C 188.833,126.5 194.167,126.5 199.5,126.5C 199.5,125.5 199.5,124.5 199.5,123.5C 202.167,123.5 204.833,123.5 207.5,123.5C 207.33,122.178 207.663,121.011 208.5,120C 207.833,119.667 207.167,119.333 206.5,119C 209.167,117 211.833,115 214.5,113C 217.817,112.502 221.15,112.335 224.5,112.5 Z"/></g>
</svg>
