<?xml version="1.0" encoding="UTF-8"?>
<!DOCTYPE svg PUBLIC "-//W3C//DTD SVG 1.1//EN" "http://www.w3.org/Graphics/SVG/1.1/DTD/svg11.dtd">
<svg xmlns="http://www.w3.org/2000/svg" version="1.1" width="324px" height="139px" style="shape-rendering:geometricPrecision; text-rendering:geometricPrecision; image-rendering:optimizeQuality; fill-rule:evenodd; clip-rule:evenodd" xmlns:xlink="http://www.w3.org/1999/xlink">
<g><path style="opacity:1" fill="#fdfdfd" d="M -0.5,-0.5 C 107.5,-0.5 215.5,-0.5 323.5,-0.5C 323.5,45.8333 323.5,92.1667 323.5,138.5C 215.5,138.5 107.5,138.5 -0.5,138.5C -0.5,92.1667 -0.5,45.8333 -0.5,-0.5 Z"/></g>
<g><path style="opacity:1" fill="#dcdff3" d="M 47.5,15.5 C 55.6307,15.8913 63.2974,18.058 70.5,22C 74.5507,26.5521 77.5507,31.7188 79.5,37.5C 76.5133,37.4223 75.8466,38.589 77.5,41C 75.3734,47.1252 71.7068,51.9585 66.5,55.5C 68.0461,53.1175 68.7128,50.4509 68.5,47.5C 65.911,47.539 63.911,46.539 62.5,44.5C 67.5725,43.569 69.9058,40.4023 69.5,35C 69.2257,25.3972 64.3924,19.8972 55,18.5C 49.9031,20.442 44.7364,22.1086 39.5,23.5C 39.6751,26.3289 38.3418,27.9955 35.5,28.5C 36.1272,29.4168 36.4606,30.4168 36.5,31.5C 34.8008,31.6602 33.1341,31.4935 31.5,31C 33.2603,30.0347 33.5937,28.868 32.5,27.5C 31.1585,29.0049 29.4918,29.6715 27.5,29.5C 27.5,28.1667 27.5,26.8333 27.5,25.5C 30.8394,25.1103 34.1727,24.6103 37.5,24C 37.1667,23.6667 36.8333,23.3333 36.5,23C 39.5597,22.1524 42.5597,21.1524 45.5,20C 47.0368,18.8904 47.7035,17.3904 47.5,15.5 Z"/></g>
<g><path style="opacity:1" fill="#f3f5fc" d="M 62.5,44.5 C 58.2983,38.5783 52.4649,35.245 45,34.5C 42.1512,36.0639 39.3179,36.3972 36.5,35.5C 36.5,34.1667 36.5,32.8333 36.5,31.5C 36.4606,30.4168 36.1272,29.4168 35.5,28.5C 38.3418,27.9955 39.6751,26.3289 39.5,23.5C 44.7364,22.1086 49.9031,20.442 55,18.5C 64.3924,19.8972 69.2257,25.3972 69.5,35C 69.9058,40.4023 67.5725,43.569 62.5,44.5 Z"/></g>
<g><path style="opacity:1" fill="#4b3d90" d="M 88.5,26.5 C 90.1992,26.3398 91.8659,26.5065 93.5,27C 92.552,27.4828 91.552,27.6495 90.5,27.5C 90.5,28.8333 90.5,30.1667 90.5,31.5C 91.552,31.3505 92.552,31.5172 93.5,32C 89.0748,32.9558 87.4082,31.1225 88.5,26.5 Z"/></g>
<g><path style="opacity:1" fill="#4b3d91" d="M 102.5,26.5 C 103.919,28.1511 105.253,29.9844 106.5,32C 105.207,32.49 103.873,32.6567 102.5,32.5C 102.5,30.5 102.5,28.5 102.5,26.5 Z"/></g>
<g><path style="opacity:1" fill="#45388f" d="M 129.5,26.5 C 131.017,26.5106 132.184,27.1772 133,28.5C 133.308,27.6919 133.808,27.0253 134.5,26.5C 135.833,28.5 135.833,30.5 134.5,32.5C 133.482,31.8075 132.482,31.1408 131.5,30.5C 130.659,29.9907 130.159,30.6573 130,32.5C 129.505,30.5273 129.338,28.5273 129.5,26.5 Z"/></g>
<g><path style="opacity:1" fill="#51448f" d="M 143.5,26.5 C 147.893,26.4568 148.226,26.9568 144.5,28C 146.863,28.5885 147.863,30.0885 147.5,32.5C 145.712,32.7852 144.045,32.4519 142.5,31.5C 142.579,29.8717 142.912,28.2051 143.5,26.5 Z"/></g>
<g><path style="opacity:1" fill="#3d2e8c" d="M 136.5,26.5 C 138.199,26.3398 139.866,26.5065 141.5,27C 138.456,27.3589 138.122,28.0255 140.5,29C 137.999,30.4177 138.332,31.4177 141.5,32C 139.866,32.4935 138.199,32.6602 136.5,32.5C 136.5,30.5 136.5,28.5 136.5,26.5 Z"/></g>
<g><path style="opacity:1" fill="#4e3f97" d="M 99.5,32.5 C 98.5,32.5 97.5,32.5 96.5,32.5C 94.6231,31.3409 94.1231,29.6742 95,27.5C 96.6995,26.5939 98.5328,26.2606 100.5,26.5C 100.795,28.7354 100.461,30.7354 99.5,32.5 Z"/></g>
<g><path style="opacity:1" fill="#dedbe9" d="M 96.5,27.5 C 99.8606,28.2032 100.194,29.5365 97.5,31.5C 96.5713,30.3112 96.238,28.9778 96.5,27.5 Z"/></g>
<g><path style="opacity:1" fill="#efebf3" d="M 116.5,26.5 C 115.307,26.9704 114.64,27.9704 114.5,29.5C 114.721,32.9431 115.721,33.2764 117.5,30.5C 118.265,31.6119 119.265,32.2786 120.5,32.5C 121.167,32.5 121.833,32.5 122.5,32.5C 124.167,32.5 125.833,32.5 127.5,32.5C 127.5,31.1667 127.5,29.8333 127.5,28.5C 128.167,27.8333 128.833,27.1667 129.5,26.5C 129.338,28.5273 129.505,30.5273 130,32.5C 130.159,30.6573 130.659,29.9907 131.5,30.5C 131.5,31.8333 131.5,33.1667 131.5,34.5C 130.178,34.67 129.011,34.3366 128,33.5C 126.207,35.0248 124.374,36.3582 122.5,37.5C 119.287,37.19 116.287,37.5233 113.5,38.5C 112.215,44.1876 110.715,49.8543 109,55.5C 108.667,55.8333 108.333,56.1667 108,56.5C 107.023,54.26 106.523,51.9267 106.5,49.5C 107.268,50.2625 107.768,51.2625 108,52.5C 108.458,48.658 107.791,44.9913 106,41.5C 105.51,42.7932 105.343,44.1266 105.5,45.5C 104.076,43.4855 103.41,41.1522 103.5,38.5C 98.8333,38.5 94.1667,38.5 89.5,38.5C 89.1667,38.5 88.8333,38.5 88.5,38.5C 90.7441,37.6991 92.7441,36.3657 94.5,34.5C 96.2141,35.6085 96.8808,34.9418 96.5,32.5C 97.5,32.5 98.5,32.5 99.5,32.5C 98.4376,33.5754 98.4376,34.5754 99.5,35.5C 101.213,35.1207 102.213,34.1207 102.5,32.5C 103.873,32.6567 105.207,32.49 106.5,32C 105.253,29.9844 103.919,28.1511 102.5,26.5C 104.309,25.7093 106.309,25.7093 108.5,26.5C 106.395,30.9771 107.728,32.8104 112.5,32C 111.552,31.5172 110.552,31.3505 109.5,31.5C 109.5,30.1667 109.5,28.8333 109.5,27.5C 113.5,27.1667 113.5,26.8333 109.5,26.5C 112.04,24.5743 114.373,24.5743 116.5,26.5 Z"/></g>
<g><path style="opacity:1" fill="#524595" d="M 127.5,28.5 C 127.5,29.8333 127.5,31.1667 127.5,32.5C 125.833,32.5 124.167,32.5 122.5,32.5C 120.638,29.236 121.472,27.236 125,26.5C 126.376,26.6842 127.209,27.3509 127.5,28.5 Z"/></g>
<g><path style="opacity:1" fill="#e1e0ef" d="M 123.5,27.5 C 124.586,27.62 125.253,28.2867 125.5,29.5C 125.167,30.1667 124.833,30.8333 124.5,31.5C 123.571,30.3112 123.238,28.9778 123.5,27.5 Z"/></g>
<g><path style="opacity:1" fill="#514396" d="M 116.5,26.5 C 117.12,28.9767 118.12,28.9767 119.5,26.5C 120.466,28.396 120.799,30.396 120.5,32.5C 119.265,32.2786 118.265,31.6119 117.5,30.5C 115.721,33.2764 114.721,32.9431 114.5,29.5C 114.64,27.9704 115.307,26.9704 116.5,26.5 Z"/></g>
<g><path style="opacity:1" fill="#46388e" d="M 108.5,26.5 C 108.833,26.5 109.167,26.5 109.5,26.5C 113.5,26.8333 113.5,27.1667 109.5,27.5C 109.5,28.8333 109.5,30.1667 109.5,31.5C 110.552,31.3505 111.552,31.5172 112.5,32C 107.728,32.8104 106.395,30.9771 108.5,26.5 Z"/></g>
<g><path style="opacity:1" fill="#9e99d8" d="M 20.5,31.5 C 21.8333,31.5 22.5,32.1667 22.5,33.5C 23.0065,34.8589 24.0065,35.8589 25.5,36.5C 23.6554,38.5364 23.1554,40.8697 24,43.5C 27.4556,48.0779 30.1223,53.0779 32,58.5C 34.8349,59.4195 37.6682,60.4195 40.5,61.5C 41.9501,62.8498 42.6168,64.5165 42.5,66.5C 42.1818,71.0323 42.5151,75.3656 43.5,79.5C 46.6248,80.4794 49.9581,80.8128 53.5,80.5C 51.866,81.1611 50.0326,81.4944 48,81.5C 44.8502,81.6397 42.0169,80.973 39.5,79.5C 40.7479,78.6661 41.4146,77.3328 41.5,75.5C 41.4057,73.0772 40.9057,70.7438 40,68.5C 39.6667,68.8333 39.3333,69.1667 39,69.5C 31.7514,65.944 25.9181,60.7774 21.5,54C 23.0072,49.3392 21.8406,48.5058 18,51.5C 17.5045,53.4727 17.3379,55.4727 17.5,57.5C 16.7321,56.7375 16.2321,55.7375 16,54.5C 15.3333,50.1667 15.3333,45.8333 16,41.5C 16.7386,37.6991 18.2386,34.3657 20.5,31.5 Z"/></g>
<g><path style="opacity:1" fill="#d6d3e2" d="M 297.5,30.5 C 296.351,30.7911 295.684,31.6244 295.5,33C 295.594,35.9541 296.094,36.1208 297,33.5C 297.667,36.1667 298.333,36.1667 299,33.5C 299.333,34.1667 299.667,34.8333 300,35.5C 301.651,34.1375 303.151,33.4708 304.5,33.5C 306.84,32.4282 307.173,30.7615 305.5,28.5C 305.846,27.3044 306.346,27.3044 307,28.5C 309.401,36.1984 306.567,40.0317 298.5,40C 291.447,36.19 290.78,31.5233 296.5,26C 298.833,25.3333 301.167,25.3333 303.5,26C 301.5,26.3333 299.5,26.6667 297.5,27C 296.316,28.1455 296.316,29.3121 297.5,30.5 Z"/></g>
<g><path style="opacity:1" fill="#7d72b5" d="M 297.5,30.5 C 297.369,31.2389 297.536,31.9056 298,32.5C 300.179,30.3628 302.679,30.0295 305.5,31.5C 305.137,32.1835 304.804,32.8501 304.5,33.5C 303.151,33.4708 301.651,34.1375 300,35.5C 299.667,34.8333 299.333,34.1667 299,33.5C 298.333,36.1667 297.667,36.1667 297,33.5C 296.094,36.1208 295.594,35.9541 295.5,33C 295.684,31.6244 296.351,30.7911 297.5,30.5 Z"/></g>
<g><path style="opacity:1" fill="#bebee6" d="M 79.5,37.5 C 81.6449,43.504 81.9782,49.504 80.5,55.5C 80.6653,51.8183 80.4986,48.1516 80,44.5C 78.01,51.4545 73.8433,56.7878 67.5,60.5C 66.2638,61.2458 64.9305,61.5792 63.5,61.5C 63.6535,59.0301 64.6535,57.0301 66.5,55.5C 71.7068,51.9585 75.3734,47.1252 77.5,41C 75.8466,38.589 76.5133,37.4223 79.5,37.5 Z"/></g>
<g><path style="opacity:1" fill="#c2c2e8" d="M 26.5,34.5 C 30.7442,35.7827 35.0775,36.7827 39.5,37.5C 38.519,40.807 37.519,44.1404 36.5,47.5C 36.4534,49.0377 37.1201,50.0377 38.5,50.5C 40.1667,52.5 41.8333,54.5 43.5,56.5C 44.1408,57.4822 44.8075,58.4822 45.5,59.5C 45.3764,60.1067 45.0431,60.44 44.5,60.5C 42.0793,58.5656 39.7459,56.3989 37.5,54C 36.2575,53.6886 35.2575,54.1886 34.5,55.5C 30.3538,50.7137 27.3538,45.2137 25.5,39C 26.3802,37.6439 26.7135,36.1439 26.5,34.5 Z"/></g>
<g><path style="opacity:1" fill="#b0afe2" d="M 22.5,33.5 C 23.7079,34.2341 25.0413,34.5674 26.5,34.5C 26.7135,36.1439 26.3802,37.6439 25.5,39C 27.3538,45.2137 30.3538,50.7137 34.5,55.5C 35.2575,54.1886 36.2575,53.6886 37.5,54C 39.7459,56.3989 42.0793,58.5656 44.5,60.5C 43.9518,62.6264 43.2852,64.6264 42.5,66.5C 42.6168,64.5165 41.9501,62.8498 40.5,61.5C 37.6682,60.4195 34.8349,59.4195 32,58.5C 30.1223,53.0779 27.4556,48.0779 24,43.5C 23.1554,40.8697 23.6554,38.5364 25.5,36.5C 24.0065,35.8589 23.0065,34.8589 22.5,33.5 Z"/></g>
<g><path style="opacity:1" fill="#afaeaf" d="M 47.5,15.5 C 47.7035,17.3904 47.0368,18.8904 45.5,20C 42.5597,21.1524 39.5597,22.1524 36.5,23C 36.8333,23.3333 37.1667,23.6667 37.5,24C 34.1727,24.6103 30.8394,25.1103 27.5,25.5C 27.5,26.8333 27.5,28.1667 27.5,29.5C 29.4918,29.6715 31.1585,29.0049 32.5,27.5C 33.5937,28.868 33.2603,30.0347 31.5,31C 33.1341,31.4935 34.8008,31.6602 36.5,31.5C 36.5,32.8333 36.5,34.1667 36.5,35.5C 39.3179,36.3972 42.1512,36.0639 45,34.5C 52.4649,35.245 58.2983,38.5783 62.5,44.5C 63.911,46.539 65.911,47.539 68.5,47.5C 68.7128,50.4509 68.0461,53.1175 66.5,55.5C 64.6535,57.0301 63.6535,59.0301 63.5,61.5C 61.8984,63.0739 59.8984,63.7406 57.5,63.5C 57.1692,65.3224 56.5025,66.9891 55.5,68.5C 53.1312,70.6822 50.4645,72.3489 47.5,73.5C 45.3095,74.9293 43.9762,76.9293 43.5,79.5C 42.5151,75.3656 42.1818,71.0323 42.5,66.5C 43.2852,64.6264 43.9518,62.6264 44.5,60.5C 45.0431,60.44 45.3764,60.1067 45.5,59.5C 44.8075,58.4822 44.1408,57.4822 43.5,56.5C 44.5832,56.5394 45.5832,56.8728 46.5,57.5C 46.8333,56.6667 47.1667,55.8333 47.5,55C 46.7868,52.4531 45.4535,50.2864 43.5,48.5C 46.5055,45.865 46.1722,43.865 42.5,42.5C 39.5783,44.3433 38.245,47.01 38.5,50.5C 37.1201,50.0377 36.4534,49.0377 36.5,47.5C 37.519,44.1404 38.519,40.807 39.5,37.5C 35.0775,36.7827 30.7442,35.7827 26.5,34.5C 25.0413,34.5674 23.7079,34.2341 22.5,33.5C 22.5,32.1667 21.8333,31.5 20.5,31.5C 24.595,23.2567 31.2616,18.09 40.5,16C 42.8098,15.5034 45.1432,15.3367 47.5,15.5 Z"/></g>
<g><path style="opacity:1" fill="#6d62a4" d="M 88.5,38.5 C 88.8333,38.5 89.1667,38.5 89.5,38.5C 89.5,49.8333 89.5,61.1667 89.5,72.5C 92.2788,72.7214 94.9455,72.388 97.5,71.5C 95.0122,73.3878 92.0122,74.0545 88.5,73.5C 88.5,61.8333 88.5,50.1667 88.5,38.5 Z"/></g>
<g><path style="opacity:1" fill="#3c3092" d="M 225.5,73.5 C 222.5,73.5 219.5,73.5 216.5,73.5C 216.358,68.8046 215.025,68.8046 212.5,73.5C 207.684,74.1608 203.351,73.1608 199.5,70.5C 197.335,64.5307 197.168,58.5307 199,52.5C 202.254,47.7773 206.754,46.2773 212.5,48C 213.416,48.3742 214.25,48.8742 215,49.5C 215.499,45.8484 215.665,42.1817 215.5,38.5C 218.833,38.5 222.167,38.5 225.5,38.5C 225.5,50.1667 225.5,61.8333 225.5,73.5 Z"/></g>
<g><path style="opacity:1" fill="#ab97c2" d="M 231.5,38.5 C 234.625,37.5206 237.958,37.1872 241.5,37.5C 241.5,40.1667 241.5,42.8333 241.5,45.5C 241.5,45.8333 241.5,46.1667 241.5,46.5C 238.017,45.9899 234.684,45.3232 231.5,44.5C 234.5,44.5 237.5,44.5 240.5,44.5C 240.5,42.5 240.5,40.5 240.5,38.5C 237.5,38.5 234.5,38.5 231.5,38.5 Z"/></g>
<g><path style="opacity:1" fill="#be2d27" d="M 226.5,40.5 C 228.478,51.7854 229.145,63.4521 228.5,75.5C 225.482,75.6646 222.482,75.498 219.5,75C 222.036,74.8138 224.369,74.3138 226.5,73.5C 226.5,62.5 226.5,51.5 226.5,40.5 Z"/></g>
<g><path style="opacity:1" fill="#ce746b" d="M 290.5,40.5 C 291.5,40.5 292.5,40.5 293.5,40.5C 293.828,52.3453 293.495,64.012 292.5,75.5C 292.667,64.1618 292.5,52.8284 292,41.5C 291.83,52.3412 291.33,63.0079 290.5,73.5C 290.5,62.5 290.5,51.5 290.5,40.5 Z"/></g>
<g><path style="opacity:1" fill="#c52e25" d="M 292.5,75.5 C 289.5,75.5 286.5,75.5 283.5,75.5C 285.833,74.8333 288.167,74.1667 290.5,73.5C 291.33,63.0079 291.83,52.3412 292,41.5C 292.5,52.8284 292.667,64.1618 292.5,75.5 Z"/></g>
<g><path style="opacity:1" fill="#bd3729" d="M 43.5,56.5 C 41.8333,54.5 40.1667,52.5 38.5,50.5C 38.245,47.01 39.5783,44.3433 42.5,42.5C 46.1722,43.865 46.5055,45.865 43.5,48.5C 45.4535,50.2864 46.7868,52.4531 47.5,55C 47.1667,55.8333 46.8333,56.6667 46.5,57.5C 45.5832,56.8728 44.5832,56.5394 43.5,56.5 Z"/></g>
<g><path style="opacity:1" fill="#3e3293" d="M 160.5,47.5 C 160.5,56.1667 160.5,64.8333 160.5,73.5C 157.5,73.5 154.5,73.5 151.5,73.5C 151.657,72.1266 151.49,70.7932 151,69.5C 148.303,72.8705 144.803,74.2038 140.5,73.5C 136.532,72.9291 134.365,70.5957 134,66.5C 133.5,60.1754 133.334,53.8421 133.5,47.5C 136.833,47.5 140.167,47.5 143.5,47.5C 143.334,53.1764 143.501,58.8431 144,64.5C 146.33,66.0317 148.33,65.6983 150,63.5C 150.499,58.1771 150.666,52.8437 150.5,47.5C 153.833,47.5 157.167,47.5 160.5,47.5 Z"/></g>
<g><path style="opacity:1" fill="#7b71ae" d="M 299.5,53.5 C 303.456,54.0527 303.456,54.8861 299.5,56C 304.193,56.8164 304.526,58.3164 300.5,60.5C 298.239,58.5165 297.906,56.1831 299.5,53.5 Z"/></g>
<g><path style="opacity:1" fill="#b99ebd" d="M 113.5,38.5 C 116.287,37.5233 119.287,37.19 122.5,37.5C 124.5,37.5 126.5,37.5 128.5,37.5C 128.263,38.791 128.596,39.791 129.5,40.5C 129.828,51.6794 129.495,62.6794 128.5,73.5C 128.167,73.5 127.833,73.5 127.5,73.5C 127.5,61.8333 127.5,50.1667 127.5,38.5C 122.833,38.5 118.167,38.5 113.5,38.5 Z"/></g>
<g><path style="opacity:1" fill="#c54035" d="M 129.5,40.5 C 131.478,51.7854 132.145,63.4521 131.5,75.5C 128.482,75.6646 125.482,75.498 122.5,75C 124.708,74.8091 126.708,74.3091 128.5,73.5C 129.495,62.6794 129.828,51.6794 129.5,40.5 Z"/></g>
<g><path style="opacity:1" fill="#db9794" d="M 145.5,50.5 C 145.56,49.9569 145.893,49.6236 146.5,49.5C 147.814,54.6523 147.814,59.6523 146.5,64.5C 146.819,59.6367 146.486,54.97 145.5,50.5 Z"/></g>
<g><path style="opacity:1" fill="#aeaadf" d="M 80.5,55.5 C 79.917,58.9466 78.5837,61.9466 76.5,64.5C 78.9996,56.7323 77.4996,55.7323 72,61.5C 71.2825,60.5494 70.4491,60.3828 69.5,61C 67.2005,62.7248 65.0338,64.5582 63,66.5C 62.6667,66.1667 62.3333,65.8333 62,65.5C 60.0065,66.914 57.8398,67.914 55.5,68.5C 56.5025,66.9891 57.1692,65.3224 57.5,63.5C 59.8984,63.7406 61.8984,63.0739 63.5,61.5C 64.9305,61.5792 66.2638,61.2458 67.5,60.5C 73.8433,56.7878 78.01,51.4545 80,44.5C 80.4986,48.1516 80.6653,51.8183 80.5,55.5 Z"/></g>
<g><path style="opacity:1" fill="#bd4434" d="M 145.5,50.5 C 146.486,54.97 146.819,59.6367 146.5,64.5C 145.883,64.3893 145.383,64.056 145,63.5C 144.186,58.9796 144.353,54.6463 145.5,50.5 Z"/></g>
<g><path style="opacity:1" fill="#3e3192" d="M 89.5,38.5 C 94.1667,38.5 98.8333,38.5 103.5,38.5C 103.41,41.1522 104.076,43.4855 105.5,45.5C 105.232,47.099 105.566,48.4324 106.5,49.5C 106.523,51.9267 107.023,54.26 108,56.5C 108.333,56.1667 108.667,55.8333 109,55.5C 110.715,49.8543 112.215,44.1876 113.5,38.5C 118.167,38.5 122.833,38.5 127.5,38.5C 127.5,50.1667 127.5,61.8333 127.5,73.5C 124.833,73.5 122.167,73.5 119.5,73.5C 119.666,64.8269 119.5,56.1603 119,47.5C 117.182,53.7807 115.682,60.114 114.5,66.5C 113.076,68.5145 112.41,70.8478 112.5,73.5C 109.5,73.5 106.5,73.5 103.5,73.5C 102.613,65.2837 100.779,57.2837 98,49.5C 97.5003,56.8258 97.3337,64.1591 97.5,71.5C 94.9455,72.388 92.2788,72.7214 89.5,72.5C 89.5,61.1667 89.5,49.8333 89.5,38.5 Z"/></g>
<g><path style="opacity:1" fill="#baa5c4" d="M 119.5,73.5 C 118.833,71.1667 118.167,68.8333 117.5,66.5C 117.662,64.4727 117.495,62.4727 117,60.5C 116.434,62.7226 115.6,64.7226 114.5,66.5C 115.682,60.114 117.182,53.7807 119,47.5C 119.5,56.1603 119.666,64.8269 119.5,73.5 Z"/></g>
<g><path style="opacity:1" fill="#ce6458" d="M 106.5,49.5 C 105.566,48.4324 105.232,47.099 105.5,45.5C 105.343,44.1266 105.51,42.7932 106,41.5C 107.791,44.9913 108.458,48.658 108,52.5C 107.768,51.2625 107.268,50.2625 106.5,49.5 Z"/></g>
<g><path style="opacity:1" fill="#be392b" d="M 117.5,66.5 C 117.149,69.2377 116.482,71.9044 115.5,74.5C 112.894,75.6517 110.227,75.8184 107.5,75C 109.382,74.8019 111.048,74.3019 112.5,73.5C 114.163,71.5615 114.829,69.2282 114.5,66.5C 115.6,64.7226 116.434,62.7226 117,60.5C 117.495,62.4727 117.662,64.4727 117.5,66.5 Z"/></g>
<g><path style="opacity:1" fill="#6b60a4" d="M 299.5,61.5 C 301.61,63.1051 303.61,64.9384 305.5,67C 303.536,67.624 301.869,67.124 300.5,65.5C 299.833,66.1667 299.167,66.8333 298.5,67.5C 298.167,67.1667 297.833,66.8333 297.5,66.5C 298.456,64.9246 299.123,63.258 299.5,61.5 Z"/></g>
<g><path style="opacity:1" fill="#847ac4" d="M 39.5,79.5 C 27.8427,76.5094 20.5094,69.1761 17.5,57.5C 17.3379,55.4727 17.5045,53.4727 18,51.5C 21.8406,48.5058 23.0072,49.3392 21.5,54C 25.9181,60.7774 31.7514,65.944 39,69.5C 39.3333,69.1667 39.6667,68.8333 40,68.5C 40.9057,70.7438 41.4057,73.0772 41.5,75.5C 41.4146,77.3328 40.7479,78.6661 39.5,79.5 Z"/></g>
<g><path style="opacity:1" fill="#9a93d4" d="M 76.5,64.5 C 75.2235,66.95 73.7235,69.2833 72,71.5C 71.1841,72.8228 70.0174,73.4894 68.5,73.5C 68.38,72.4138 67.7133,71.7472 66.5,71.5C 65.0445,72.3898 63.7112,72.3898 62.5,71.5C 61.7506,73.0116 60.584,74.0116 59,74.5C 55.2238,73.6058 51.3905,73.2725 47.5,73.5C 50.4645,72.3489 53.1312,70.6822 55.5,68.5C 57.8398,67.914 60.0065,66.914 62,65.5C 62.3333,65.8333 62.6667,66.1667 63,66.5C 65.0338,64.5582 67.2005,62.7248 69.5,61C 70.4491,60.3828 71.2825,60.5494 72,61.5C 77.4996,55.7323 78.9996,56.7323 76.5,64.5 Z"/></g>
<g><path style="opacity:1" fill="#d3bad4" d="M 114.5,66.5 C 114.829,69.2282 114.163,71.5615 112.5,73.5C 112.41,70.8478 113.076,68.5145 114.5,66.5 Z"/></g>
<g><path style="opacity:1" fill="#564d85" d="M 299.5,73.5 C 298.199,72.1155 298.199,70.6155 299.5,69C 301.074,68.3013 302.407,68.6346 303.5,70C 302.207,70.49 300.873,70.6567 299.5,70.5C 299.5,71.5 299.5,72.5 299.5,73.5 Z"/></g>
<g><path style="opacity:1" fill="#e1bdc0" d="M 151.5,73.5 C 151.672,74.4916 151.338,75.1583 150.5,75.5C 150.53,74.5028 150.03,73.8361 149,73.5C 142.261,74.6847 142.094,75.3513 148.5,75.5C 146.372,76.6291 144.039,76.7958 141.5,76C 140.748,75.3292 140.414,74.4959 140.5,73.5C 144.803,74.2038 148.303,72.8705 151,69.5C 151.49,70.7932 151.657,72.1266 151.5,73.5 Z"/></g>
<g><path style="opacity:1" fill="#6c61a5" d="M 299.5,73.5 C 301.109,73.0941 302.443,73.0941 303.5,73.5C 302.042,74.782 300.708,74.782 299.5,73.5 Z"/></g>
<g><path style="opacity:1" fill="#c14536" d="M 98.5,57.5 C 99.2679,58.2625 99.7679,59.2625 100,60.5C 100.499,65.4889 100.666,70.4889 100.5,75.5C 97.4816,75.6646 94.4816,75.498 91.5,75C 93.8098,74.5034 96.1432,74.3367 98.5,74.5C 98.5,68.8333 98.5,63.1667 98.5,57.5 Z"/></g>
<g><path style="opacity:1" fill="#be342e" d="M 150.5,75.5 C 150.167,75.5 149.833,75.5 149.5,75.5C 149.167,75.5 148.833,75.5 148.5,75.5C 142.094,75.3513 142.261,74.6847 149,73.5C 150.03,73.8361 150.53,74.5028 150.5,75.5 Z"/></g>
<g><path style="opacity:1" fill="#7f74c2" d="M 68.5,73.5 C 67.657,75.1733 66.3237,76.34 64.5,77C 60.9675,78.6323 57.3008,79.7989 53.5,80.5C 49.9581,80.8128 46.6248,80.4794 43.5,79.5C 43.9762,76.9293 45.3095,74.9293 47.5,73.5C 51.3905,73.2725 55.2238,73.6058 59,74.5C 60.584,74.0116 61.7506,73.0116 62.5,71.5C 63.7112,72.3898 65.0445,72.3898 66.5,71.5C 67.7133,71.7472 68.38,72.4138 68.5,73.5 Z"/></g>
<g><path style="opacity:1" fill="#3f3192" d="M 60.5,82.5 C 74.9111,82.0645 89.2445,82.8979 103.5,85C 114.18,87.8331 124.847,90.3331 135.5,92.5C 137.515,93.9238 139.848,94.5905 142.5,94.5C 142.833,94.5 143.167,94.5 143.5,94.5C 164.247,101.721 185.581,107.055 207.5,110.5C 234.055,115.991 260.722,115.825 287.5,110C 293.425,108.221 299.258,106.055 305,103.5C 306.722,103.611 306.888,104.111 305.5,105C 280.299,120.244 252.965,125.911 223.5,122C 215.459,120.925 207.459,119.592 199.5,118C 173.56,111.466 147.56,105.132 121.5,99C 87.2856,91.5735 52.9522,90.5735 18.5,96C 31.3532,88.1163 45.3532,83.6163 60.5,82.5 Z"/></g>
<g><path style="opacity:1" fill="#c34d4d" d="M 277.5,85.5 C 278.434,86.5676 278.768,87.901 278.5,89.5C 277.732,88.7375 277.232,87.7375 277,86.5C 275.318,87.8646 275.151,89.3646 276.5,91C 274.82,91.0343 273.32,91.201 272,91.5C 270.956,90.3774 270.29,89.0441 270,87.5C 266.802,92.7856 265.802,92.1189 267,85.5C 267.333,86.5 267.667,87.5 268,88.5C 269.857,84.6205 271.19,84.9538 272,89.5C 273.706,88.6921 274.539,87.3588 274.5,85.5C 275.5,85.5 276.5,85.5 277.5,85.5 Z"/></g>
<g><path style="opacity:1" fill="#be3125" d="M 127.5,80.5 C 147.662,86.6057 167.996,92.439 188.5,98C 217.057,105.457 245.39,105.29 273.5,97.5C 279.071,96.8837 284.404,95.3837 289.5,93C 290.77,92.1004 291.77,90.9337 292.5,89.5C 293.583,90.365 293.749,91.365 293,92.5C 267.01,109.699 238.51,115.699 207.5,110.5C 186.261,105.19 164.928,99.857 143.5,94.5C 143.167,94.5 142.833,94.5 142.5,94.5C 140.562,92.8372 138.228,92.1706 135.5,92.5C 124.847,90.3331 114.18,87.8331 103.5,85C 89.2445,82.8979 74.9111,82.0645 60.5,82.5C 70.6871,78.5973 81.3537,76.5973 92.5,76.5C 104.292,76.9326 115.959,78.2659 127.5,80.5 Z"/></g>
<g><path style="opacity:1" fill="#e76685" d="M 288.5,89.5 C 290.337,89.6395 290.67,90.3061 289.5,91.5C 288.702,91.0431 288.369,90.3764 288.5,89.5 Z"/></g>
<g><path style="opacity:1" fill="#c45459" d="M 279.5,91.5 C 280.263,90.7321 281.263,90.2321 282.5,90C 281.906,89.5357 281.239,89.369 280.5,89.5C 278.725,85.739 279.725,84.4057 283.5,85.5C 279.859,86.9873 280.192,88.3206 284.5,89.5C 283.332,91.2174 281.665,91.8841 279.5,91.5 Z"/></g>
<g><path style="opacity:1" fill="#f8f3f2" d="M 234.5,74.5 C 237.625,75.4794 240.958,75.8128 244.5,75.5C 244.5,68.8333 244.5,62.1667 244.5,55.5C 245.314,57.631 245.814,59.9644 246,62.5C 246.353,59.8475 247.52,57.8475 249.5,56.5C 251.5,57.1667 253.5,57.8333 255.5,58.5C 248.327,58.8534 245.494,62.5201 247,69.5C 247.5,71.3333 248.667,72.5 250.5,73C 253.817,73.4983 257.15,73.665 260.5,73.5C 261.374,72.4749 262.541,71.8082 264,71.5C 265.406,72.4138 266.906,73.0805 268.5,73.5C 268.328,74.4916 268.662,75.1583 269.5,75.5C 272.518,75.6646 275.518,75.498 278.5,75C 277.522,68.5898 277.189,62.0898 277.5,55.5C 278.167,59.1667 278.833,62.8333 279.5,66.5C 279.5,68.8333 279.5,71.1667 279.5,73.5C 283.042,73.8128 286.375,73.4794 289.5,72.5C 289.5,61.1667 289.5,49.8333 289.5,38.5C 290.338,38.8417 290.672,39.5084 290.5,40.5C 290.5,51.5 290.5,62.5 290.5,73.5C 288.167,74.1667 285.833,74.8333 283.5,75.5C 286.305,76.3195 289.305,76.8195 292.5,77C 291.584,77.3742 290.75,77.8742 290,78.5C 283.916,77.358 277.749,77.1913 271.5,78C 276.688,77.9058 279.688,78.4058 280.5,79.5C 279.968,82.2482 278.968,84.2482 277.5,85.5C 276.5,85.5 275.5,85.5 274.5,85.5C 274.539,87.3588 273.706,88.6921 272,89.5C 271.19,84.9538 269.857,84.6205 268,88.5C 267.667,87.5 267.333,86.5 267,85.5C 265.802,92.1189 266.802,92.7856 270,87.5C 270.29,89.0441 270.956,90.3774 272,91.5C 273.32,91.201 274.82,91.0343 276.5,91C 275.151,89.3646 275.318,87.8646 277,86.5C 277.232,87.7375 277.732,88.7375 278.5,89.5C 279.167,89.5 279.833,89.5 280.5,89.5C 281.239,89.369 281.906,89.5357 282.5,90C 281.263,90.2321 280.263,90.7321 279.5,91.5C 278.883,91.3893 278.383,91.056 278,90.5C 277.751,91.624 277.251,92.624 276.5,93.5C 272.388,91.8342 268.388,91.1675 264.5,91.5C 264.631,90.7611 264.464,90.0944 264,89.5C 260.654,90.0891 260.654,89.4224 264,87.5C 264.351,83.9006 263.351,83.5672 261,86.5C 260.506,88.1341 260.34,89.8008 260.5,91.5C 261.5,91.5 262.5,91.5 263.5,91.5C 262.791,92.404 261.791,92.7373 260.5,92.5C 260.119,94.9418 260.786,95.6085 262.5,94.5C 265.699,97.0571 269.366,98.0571 273.5,97.5C 245.39,105.29 217.057,105.457 188.5,98C 167.996,92.439 147.662,86.6057 127.5,80.5C 130.699,81.4323 133.865,81.4323 137,80.5C 139.667,83.1667 142.333,83.1667 145,80.5C 150.755,81.9398 152.255,80.2731 149.5,75.5C 149.833,75.5 150.167,75.5 150.5,75.5C 151.338,75.1583 151.672,74.4916 151.5,73.5C 154.5,73.5 157.5,73.5 160.5,73.5C 160.5,64.8333 160.5,56.1667 160.5,47.5C 161.404,48.209 161.737,49.209 161.5,50.5C 161.5,58.5 161.5,66.5 161.5,74.5C 159.143,74.3367 156.81,74.5034 154.5,75C 157.482,75.498 160.482,75.6646 163.5,75.5C 163.5,67.1667 163.5,58.8333 163.5,50.5C 165.153,57.9458 166.153,65.6125 166.5,73.5C 169.777,73.7839 172.943,73.4505 176,72.5C 176.173,66.9842 176.673,61.6509 177.5,56.5C 179.223,55.193 181.057,55.193 183,56.5C 183.499,61.8229 183.666,67.1563 183.5,72.5C 186.625,73.4794 189.958,73.8128 193.5,73.5C 191.369,74.3138 189.036,74.8138 186.5,75C 187.448,75.4828 188.448,75.6495 189.5,75.5C 191.369,76.1646 193.369,76.8313 195.5,77.5C 191.555,78.4909 187.555,78.8242 183.5,78.5C 183.021,82.4344 183.688,86.1011 185.5,89.5C 185.376,90.1067 185.043,90.44 184.5,90.5C 184.5,91.8333 184.5,93.1667 184.5,94.5C 185.822,94.33 186.989,94.6634 188,95.5C 189.507,91.7636 190.34,91.7636 190.5,95.5C 191.675,95.719 192.675,95.3857 193.5,94.5C 192.833,94.1667 192.167,93.8333 191.5,93.5C 192.127,92.5832 192.461,91.5832 192.5,90.5C 194.3,91.6052 195.467,90.9386 196,88.5C 196.639,91.2277 197.806,91.7277 199.5,90C 198.033,88.9025 197.199,87.4025 197,85.5C 195.598,87.9734 194.098,87.9734 192.5,85.5C 191.274,86.3629 189.94,86.3629 188.5,85.5C 186.895,83.6921 186.561,81.6921 187.5,79.5C 188.902,82.7943 191.402,84.7943 195,85.5C 195.333,84.8333 195.667,84.1667 196,83.5C 199.241,85.0396 201.575,83.7062 203,79.5C 203.497,82.146 203.664,84.8127 203.5,87.5C 203.217,88.2891 202.717,88.9558 202,89.5C 201.667,88.1667 201.333,86.8333 201,85.5C 200.192,87.5787 200.359,89.5787 201.5,91.5C 203.235,90.943 204.902,90.6097 206.5,90.5C 205.972,88.6639 205.306,86.9972 204.5,85.5C 206.554,84.2879 206.554,82.6212 204.5,80.5C 205.631,79.3961 206.465,79.7295 207,81.5C 207.414,81.0426 207.914,80.7093 208.5,80.5C 209.429,81.6888 209.762,83.0222 209.5,84.5C 210.833,84.5 212.167,84.5 213.5,84.5C 213.612,88.3393 214.279,88.3393 215.5,84.5C 211.236,79.5347 205.903,76.368 199.5,75C 198.272,73.5098 198.272,72.0098 199.5,70.5C 203.351,73.1608 207.684,74.1608 212.5,73.5C 215.025,68.8046 216.358,68.8046 216.5,73.5C 219.5,73.5 222.5,73.5 225.5,73.5C 225.833,73.5 226.167,73.5 226.5,73.5C 224.369,74.3138 222.036,74.8138 219.5,75C 222.482,75.498 225.482,75.6646 228.5,75.5C 229.145,63.4521 228.478,51.7854 226.5,40.5C 227.832,39.1696 228.665,37.5029 229,35.5C 229.333,36.5 229.667,37.5 230,38.5C 230.5,50.4954 230.667,62.4954 230.5,74.5C 231.833,74.5 233.167,74.5 234.5,74.5 Z"/></g>
<g><path style="opacity:1" fill="#cd4d4e" d="M 253.5,85.5 C 254.29,86.6085 254.79,87.9419 255,89.5C 256,88.5 257,87.5 258,86.5C 258.273,88.1012 258.773,89.6012 259.5,91C 258.256,91.4561 257.423,90.9561 257,89.5C 256.311,90.3567 255.478,91.0233 254.5,91.5C 253.534,89.604 253.201,87.604 253.5,85.5 Z"/></g>
<g><path style="opacity:1" fill="#c65252" d="M 247.5,85.5 C 250.966,86.109 251.966,87.9423 250.5,91C 248.597,91.7737 246.93,91.4404 245.5,90C 247.167,89.6667 248.833,89.3333 250.5,89C 248.937,88.2411 247.937,87.0744 247.5,85.5 Z"/></g>
<g><path style="opacity:1" fill="#cc6966" d="M 219.5,82.5 C 220.765,83.5145 221.431,85.0145 221.5,87C 221.333,88.5 221.167,90 221,91.5C 220.333,90.8333 219.667,90.1667 219,89.5C 218.612,90.428 217.945,91.0946 217,91.5C 215.765,90.3845 214.598,90.3845 213.5,91.5C 212.201,90.91 211.368,89.91 211,88.5C 210.167,89.5 209.333,90.5 208.5,91.5C 207.359,89.5787 207.192,87.5787 208,85.5C 208.626,89.1358 209.793,89.1358 211.5,85.5C 212.386,86.325 212.719,87.325 212.5,88.5C 213.675,88.719 214.675,88.3857 215.5,87.5C 216.767,85.6829 218.1,84.0163 219.5,82.5 Z"/></g>
<g><path style="opacity:1" fill="#c75f60" d="M 203.5,87.5 C 204.338,87.1583 204.672,86.4916 204.5,85.5C 205.306,86.9972 205.972,88.6639 206.5,90.5C 204.902,90.6097 203.235,90.943 201.5,91.5C 200.359,89.5787 200.192,87.5787 201,85.5C 201.333,86.8333 201.667,88.1667 202,89.5C 202.717,88.9558 203.217,88.2891 203.5,87.5 Z"/></g>
<g><path style="opacity:1" fill="#ca7c79" d="M 223.5,85.5 C 227.82,85.9592 228.487,87.7925 225.5,91C 224.552,91.4828 223.552,91.6495 222.5,91.5C 222.517,89.4352 222.85,87.4352 223.5,85.5 Z"/></g>
<g><path style="opacity:1" fill="#cc5857" d="M 235.5,82.5 C 236.497,82.4701 237.164,82.9701 237.5,84C 236.242,86.1849 236.242,88.3516 237.5,90.5C 236.369,91.6039 235.535,91.2705 235,89.5C 234.311,90.3567 233.478,91.0233 232.5,91.5C 231.359,89.5787 231.192,87.5787 232,85.5C 233.729,85.0257 234.895,84.0257 235.5,82.5 Z"/></g>
<g><path style="opacity:1" fill="#fcf3e5" d="M 232.5,86.5 C 234.973,86.9473 235.14,87.9473 233,89.5C 232.517,88.552 232.351,87.552 232.5,86.5 Z"/></g>
<g><path style="opacity:1" fill="#c24d47" d="M 264.5,91.5 C 264.167,91.5 263.833,91.5 263.5,91.5C 262.5,91.5 261.5,91.5 260.5,91.5C 260.34,89.8008 260.506,88.1341 261,86.5C 263.351,83.5672 264.351,83.9006 264,87.5C 260.654,89.4224 260.654,90.0891 264,89.5C 264.464,90.0944 264.631,90.7611 264.5,91.5 Z"/></g>
<g><path style="opacity:1" fill="#cb6865" d="M 188.5,85.5 C 189.94,86.3629 191.274,86.3629 192.5,85.5C 194.098,87.9734 195.598,87.9734 197,85.5C 197.199,87.4025 198.033,88.9025 199.5,90C 197.806,91.7277 196.639,91.2277 196,88.5C 195.467,90.9386 194.3,91.6052 192.5,90.5C 192.631,89.7611 192.464,89.0944 192,88.5C 191.167,89.5 190.333,90.5 189.5,91.5C 188.534,89.604 188.201,87.604 188.5,85.5 Z"/></g>
<g><path style="opacity:1" fill="#c95a55" d="M 180.5,87.5 C 179.053,92.7145 176.72,93.3812 173.5,89.5C 171.929,90.3094 170.262,90.6427 168.5,90.5C 168.18,87.1016 168.513,83.7683 169.5,80.5C 169.713,83.4818 170.047,86.4818 170.5,89.5C 171.478,89.0233 172.311,88.3567 173,87.5C 173.29,85.0481 173.956,82.7148 175,80.5C 175.176,83.8818 175.676,87.2152 176.5,90.5C 177.298,88.9223 177.798,87.2556 178,85.5C 178.075,87.935 178.908,88.6016 180.5,87.5 Z"/></g>
<g><path style="opacity:1" fill="#c54e4c" d="M 239.5,84.5 C 242.983,85.5508 242.983,87.2174 239.5,89.5C 240.603,89.9976 241.603,90.3309 242.5,90.5C 241.311,91.4287 239.978,91.762 238.5,91.5C 238.448,89.0971 238.781,86.7638 239.5,84.5 Z"/></g>
<g><path style="opacity:1" fill="#b9464b" d="M 184.5,90.5 C 183.5,90.5 182.5,90.5 181.5,90.5C 181.737,89.209 181.404,88.209 180.5,87.5C 180.369,86.6236 180.702,85.9569 181.5,85.5C 182.275,87.3964 183.275,89.063 184.5,90.5 Z"/></g>
<g><path style="opacity:1" fill="#c34a4e" d="M 247.5,85.5 C 246.402,84.3991 246.235,83.0657 247,81.5C 248.183,80.269 249.349,80.269 250.5,81.5C 249.675,82.3857 248.675,82.719 247.5,82.5C 247.5,83.5 247.5,84.5 247.5,85.5 Z"/></g>
<g><path style="opacity:1" fill="#d16159" d="M 260.5,73.5 C 261.822,73.67 262.989,73.3366 264,72.5C 264.658,74.108 264.158,75.2747 262.5,76C 260.098,76.8141 257.765,76.6474 255.5,75.5C 257.291,74.8302 258.958,74.1635 260.5,73.5 Z"/></g>
<g><path style="opacity:1" fill="#dc938b" d="M 210.5,74.5 C 211.568,75.4345 212.901,75.7678 214.5,75.5C 212.307,76.7969 209.973,76.7969 207.5,75.5C 208.325,74.6143 209.325,74.281 210.5,74.5 Z"/></g>
<g><path style="opacity:1" fill="#be3e34" d="M 214.5,75.5 C 212.901,75.7678 211.568,75.4345 210.5,74.5C 211.492,74.6716 212.158,74.3382 212.5,73.5C 213.496,73.5858 214.329,73.2524 215,72.5C 215.74,73.7494 215.573,74.7494 214.5,75.5 Z"/></g>
<g><path style="opacity:1" fill="#695fa9" d="M 192.5,55.5 C 193.49,61.31 193.823,67.31 193.5,73.5C 189.958,73.8128 186.625,73.4794 183.5,72.5C 186.5,72.5 189.5,72.5 192.5,72.5C 192.5,66.8333 192.5,61.1667 192.5,55.5 Z"/></g>
<g><path style="opacity:1" fill="#3c2f92" d="M 273.5,54.5 C 273.21,60.561 273.543,66.561 274.5,72.5C 272.604,73.4656 270.604,73.7989 268.5,73.5C 266.906,73.0805 265.406,72.4138 264,71.5C 262.541,71.8082 261.374,72.4749 260.5,73.5C 257.15,73.665 253.817,73.4983 250.5,73C 248.667,72.5 247.5,71.3333 247,69.5C 245.494,62.5201 248.327,58.8534 255.5,58.5C 257.786,58.405 259.786,57.7384 261.5,56.5C 262.675,56.719 263.675,56.3857 264.5,55.5C 264.376,54.8933 264.043,54.56 263.5,54.5C 262.726,53.8529 261.726,53.5195 260.5,53.5C 257.399,55.0188 254.066,55.6854 250.5,55.5C 249.022,55.762 247.689,55.4287 246.5,54.5C 249.086,48.6226 253.586,46.2893 260,47.5C 263.59,47.4716 267.09,47.9716 270.5,49C 272.16,50.4877 273.16,52.321 273.5,54.5 Z"/></g>
<g><path style="opacity:1" fill="#bf2f28" d="M 242.5,50.5 C 244.256,51.5521 244.923,53.2188 244.5,55.5C 244.5,62.1667 244.5,68.8333 244.5,75.5C 240.958,75.8128 237.625,75.4794 234.5,74.5C 234.833,74.5 235.167,74.5 235.5,74.5C 237.833,74.5 240.167,74.5 242.5,74.5C 242.5,66.5 242.5,58.5 242.5,50.5 Z"/></g>
<g><path style="opacity:1" fill="#c03124" d="M 189.5,75.5 C 188.448,75.6495 187.448,75.4828 186.5,75C 189.036,74.8138 191.369,74.3138 193.5,73.5C 194.328,67.0126 194.828,60.346 195,53.5C 196.429,60.7194 196.929,68.0528 196.5,75.5C 194.167,75.5 191.833,75.5 189.5,75.5 Z"/></g>
<g><path style="opacity:1" fill="#c14e41" d="M 276.5,54.5 C 276.5,55.1667 276.833,55.5 277.5,55.5C 277.189,62.0898 277.522,68.5898 278.5,75C 275.518,75.498 272.518,75.6646 269.5,75.5C 272.046,75.0181 274.379,74.0181 276.5,72.5C 275.191,66.3708 275.191,60.3708 276.5,54.5 Z"/></g>
<g><path style="opacity:1" fill="#d7c1d5" d="M 258.5,63.5 C 260.214,62.2616 262.214,61.595 264.5,61.5C 264.506,66.3306 262.173,68.4973 257.5,68C 254.817,65.8784 255.15,64.3784 258.5,63.5 Z"/></g>
<g><path style="opacity:1" fill="#cf9cae" d="M 276.5,54.5 C 275.191,60.3708 275.191,66.3708 276.5,72.5C 274.379,74.0181 272.046,75.0181 269.5,75.5C 268.662,75.1583 268.328,74.4916 268.5,73.5C 270.604,73.7989 272.604,73.4656 274.5,72.5C 273.543,66.561 273.21,60.561 273.5,54.5C 274.472,51.9017 275.472,51.9017 276.5,54.5 Z"/></g>
<g><path style="opacity:1" fill="#be3f32" d="M 258.5,63.5 C 263.592,63.7886 263.759,64.7886 259,66.5C 257.317,65.8235 257.15,64.8235 258.5,63.5 Z"/></g>
<g><path style="opacity:1" fill="#c03028" d="M 177.5,56.5 C 180.88,56.1794 181.713,57.1794 180,59.5C 179.501,64.8229 179.334,70.1563 179.5,75.5C 176.15,75.665 172.817,75.4983 169.5,75C 172.146,74.5026 174.813,74.3359 177.5,74.5C 177.5,68.5 177.5,62.5 177.5,56.5 Z"/></g>
<g><path style="opacity:1" fill="#ede2e8" d="M 209.5,54.5 C 212.238,53.9648 214.072,54.9648 215,57.5C 215.978,60.6693 215.478,63.5027 213.5,66C 211.299,66.8249 209.466,66.3249 208,64.5C 207.037,60.8513 207.537,57.518 209.5,54.5 Z"/></g>
<g><path style="opacity:1" fill="#b93b35" d="M 211.5,55.5 C 213.892,56.7421 213.725,58.0755 211,59.5C 210.667,61.1667 210.333,62.8333 210,64.5C 207.708,60.914 208.208,57.914 211.5,55.5 Z"/></g>
<g><path style="opacity:1" fill="#c7c0e6" d="M 263.5,54.5 C 264.043,54.56 264.376,54.8933 264.5,55.5C 263.675,56.3857 262.675,56.719 261.5,56.5C 262.167,55.8333 262.833,55.1667 263.5,54.5 Z"/></g>
<g><path style="opacity:1" fill="#c44232" d="M 161.5,50.5 C 162.167,50.5 162.833,50.5 163.5,50.5C 163.5,58.8333 163.5,67.1667 163.5,75.5C 160.482,75.6646 157.482,75.498 154.5,75C 156.81,74.5034 159.143,74.3367 161.5,74.5C 161.5,66.5 161.5,58.5 161.5,50.5 Z"/></g>
<g><path style="opacity:1" fill="#c04635" d="M 263.5,54.5 C 262.833,55.1667 262.167,55.8333 261.5,56.5C 260.127,56.6567 258.793,56.49 257.5,56C 259.25,54.6814 261.25,54.1814 263.5,54.5 Z"/></g>
<g><path style="opacity:1" fill="#d8b2c7" d="M 263.5,54.5 C 261.25,54.1814 259.25,54.6814 257.5,56C 258.793,56.49 260.127,56.6567 261.5,56.5C 259.786,57.7384 257.786,58.405 255.5,58.5C 253.5,57.8333 251.5,57.1667 249.5,56.5C 250.167,56.5 250.5,56.1667 250.5,55.5C 254.066,55.6854 257.399,55.0188 260.5,53.5C 261.726,53.5195 262.726,53.8529 263.5,54.5 Z"/></g>
<g><path style="opacity:1" fill="#3f3394" d="M 241.5,47.5 C 241.5,48.5 241.5,49.5 241.5,50.5C 241.666,57.8409 241.5,65.1742 241,72.5C 239.301,73.4061 237.467,73.7394 235.5,73.5C 234.167,73.5 232.833,73.5 231.5,73.5C 231.5,64.8333 231.5,56.1667 231.5,47.5C 234.833,47.5 238.167,47.5 241.5,47.5 Z"/></g>
<g><path style="opacity:1" fill="#3e3293" d="M 192.5,55.5 C 192.5,61.1667 192.5,66.8333 192.5,72.5C 189.5,72.5 186.5,72.5 183.5,72.5C 183.666,67.1563 183.499,61.8229 183,56.5C 181.057,55.193 179.223,55.193 177.5,56.5C 176.673,61.6509 176.173,66.9842 176,72.5C 172.943,73.4505 169.777,73.7839 166.5,73.5C 166.5,64.8333 166.5,56.1667 166.5,47.5C 169.5,47.5 172.5,47.5 175.5,47.5C 175.628,50.7741 176.961,50.9408 179.5,48C 184.03,46.7726 188.03,47.6059 191.5,50.5C 192.309,52.0709 192.643,53.7376 192.5,55.5 Z"/></g>
<g><path style="opacity:1" fill="#eac9c1" d="M 241.5,50.5 C 241.833,50.5 242.167,50.5 242.5,50.5C 242.5,58.5 242.5,66.5 242.5,74.5C 240.167,74.5 237.833,74.5 235.5,74.5C 235.5,74.1667 235.5,73.8333 235.5,73.5C 237.467,73.7394 239.301,73.4061 241,72.5C 241.5,65.1742 241.666,57.8409 241.5,50.5 Z"/></g>
<g><path style="opacity:1" fill="#bc3226" d="M 241.5,47.5 C 241.5,47.1667 241.5,46.8333 241.5,46.5C 241.5,46.1667 241.5,45.8333 241.5,45.5C 242.163,43.9581 242.83,42.2914 243.5,40.5C 244.474,42.7427 244.808,45.076 244.5,47.5C 243.5,47.5 242.5,47.5 241.5,47.5 Z"/></g>
<g><path style="opacity:1" fill="#3a2f94" d="M 231.5,38.5 C 234.5,38.5 237.5,38.5 240.5,38.5C 240.5,40.5 240.5,42.5 240.5,44.5C 237.5,44.5 234.5,44.5 231.5,44.5C 231.5,42.5 231.5,40.5 231.5,38.5 Z"/></g>
<g><path style="opacity:1" fill="#392e8f" d="M 280.5,38.5 C 283.5,38.5 286.5,38.5 289.5,38.5C 289.5,49.8333 289.5,61.1667 289.5,72.5C 286.5,72.5 283.5,72.5 280.5,72.5C 280.5,61.1667 280.5,49.8333 280.5,38.5 Z"/></g>
<g><path style="opacity:1" fill="#928cc6" d="M 280.5,38.5 C 280.5,49.8333 280.5,61.1667 280.5,72.5C 283.5,72.5 286.5,72.5 289.5,72.5C 286.375,73.4794 283.042,73.8128 279.5,73.5C 279.5,71.1667 279.5,68.8333 279.5,66.5C 279.173,56.985 279.506,47.6517 280.5,38.5 Z"/></g>
<g><path style="opacity:1" fill="#d2879b" d="M 135.5,92.5 C 138.228,92.1706 140.562,92.8372 142.5,94.5C 139.848,94.5905 137.515,93.9238 135.5,92.5 Z"/></g>
<g><path style="opacity:1" fill="#e3d0de" d="M 143.5,94.5 C 164.928,99.857 186.261,105.19 207.5,110.5C 185.581,107.055 164.247,101.721 143.5,94.5 Z"/></g>
</svg>
