<?xml version="1.0" encoding="UTF-8"?>
<!DOCTYPE svg PUBLIC "-//W3C//DTD SVG 1.1//EN" "http://www.w3.org/Graphics/SVG/1.1/DTD/svg11.dtd">
<svg xmlns="http://www.w3.org/2000/svg" version="1.1" width="450px" height="112px" style="shape-rendering:geometricPrecision; text-rendering:geometricPrecision; image-rendering:optimizeQuality; fill-rule:evenodd; clip-rule:evenodd" xmlns:xlink="http://www.w3.org/1999/xlink">
<g><path style="opacity:1" fill="#fdfdfe" d="M -0.5,-0.5 C 149.5,-0.5 299.5,-0.5 449.5,-0.5C 449.5,36.8333 449.5,74.1667 449.5,111.5C 299.5,111.5 149.5,111.5 -0.5,111.5C -0.5,74.1667 -0.5,36.8333 -0.5,-0.5 Z"/></g>
<g><path style="opacity:1" fill="#07196b" d="M 445.5,37.5 C 446.833,54.8333 446.833,72.1667 445.5,89.5C 322.334,88.5005 199.001,88.1671 75.5,88.5C 75.5,71.8333 75.5,55.1667 75.5,38.5C 199.001,38.8329 322.334,38.4995 445.5,37.5 Z"/></g>
<g><path style="opacity:1" fill="#f5f5f8" d="M 209.5,42.5 C 217.677,41.3852 224.177,44.0518 229,50.5C 229.495,52.4727 229.662,54.4727 229.5,56.5C 225.774,56.8226 222.107,56.4892 218.5,55.5C 215.377,50.4397 211.877,50.4397 208,55.5C 207.104,60.9491 207.437,66.2825 209,71.5C 211.925,74.0594 214.925,74.0594 218,71.5C 218.483,70.552 218.649,69.552 218.5,68.5C 222.167,68.5 225.833,68.5 229.5,68.5C 229.723,74.5614 227.056,78.7281 221.5,81C 200.374,83.5359 192.207,74.3693 197,53.5C 199.708,48.0793 203.875,44.4127 209.5,42.5 Z"/></g>
<g><path style="opacity:1" fill="#f5f5f8" d="M 266.5,43.5 C 285.127,42.966 292.96,51.966 290,70.5C 283.489,83.6724 273.989,86.5058 261.5,79C 250.952,65.4306 252.619,53.5972 266.5,43.5 Z"/></g>
<g><path style="opacity:1" fill="#fbfbfc" d="M 236.5,43.5 C 240.5,43.5 244.5,43.5 248.5,43.5C 248.5,56.1667 248.5,68.8333 248.5,81.5C 244.5,81.5 240.5,81.5 236.5,81.5C 236.5,68.8333 236.5,56.1667 236.5,43.5 Z"/></g>
<g><path style="opacity:1" fill="#fdfdfe" d="M 379.5,44.5 C 383.167,44.5 386.833,44.5 390.5,44.5C 390.173,54.015 390.506,63.3483 391.5,72.5C 395.833,72.5 400.167,72.5 404.5,72.5C 404.5,75.5 404.5,78.5 404.5,81.5C 396.167,81.5 387.833,81.5 379.5,81.5C 379.5,69.1667 379.5,56.8333 379.5,44.5 Z"/></g>
<g><path style="opacity:1" fill="#a1a5c0" d="M 379.5,44.5 C 383.298,43.5166 387.298,43.1832 391.5,43.5C 391.5,53.1667 391.5,62.8333 391.5,72.5C 390.506,63.3483 390.173,54.015 390.5,44.5C 386.833,44.5 383.167,44.5 379.5,44.5 Z"/></g>
<g><path style="opacity:1" fill="#0a1a6c" d="M 21.5,90.5 C 21.5,83.1667 21.5,75.8333 21.5,68.5C 26.544,68.8275 31.544,68.4941 36.5,67.5C 34.1923,63.205 31.5256,59.205 28.5,55.5C 25.6654,59.1638 23.332,63.1638 21.5,67.5C 20.5987,68.2905 19.9321,69.2905 19.5,70.5C 16.8452,75.1393 14.1785,79.806 11.5,84.5C 2.73627,75.3612 0.236265,64.6946 4,52.5C 5.60776,49.228 7.60776,46.228 10,43.5C 15.1667,46.6667 20.3333,49.8333 25.5,53C 26.3317,53.6877 26.9984,53.521 27.5,52.5C 24.6262,47.2514 21.6262,42.0848 18.5,37C 36.3007,33.1313 48.634,39.4646 55.5,56C 49.5,60 43.5,64 37.5,68C 43.1667,68.3333 48.8333,68.6667 54.5,69C 49.8084,85.4826 38.8084,92.6493 21.5,90.5 Z"/></g>
<g><path style="opacity:1" fill="#a3a7c0" d="M 132.5,45.5 C 127.5,45.5 122.5,45.5 117.5,45.5C 117.5,57.5 117.5,69.5 117.5,81.5C 116.505,69.3446 116.171,57.0113 116.5,44.5C 122.026,44.1786 127.36,44.5119 132.5,45.5 Z"/></g>
<g><path style="opacity:1" fill="#fafafc" d="M 132.5,45.5 C 135.594,52.0252 138.427,58.6918 141,65.5C 141.5,58.8417 141.666,52.175 141.5,45.5C 144.5,45.5 147.5,45.5 150.5,45.5C 150.5,57.5 150.5,69.5 150.5,81.5C 145.786,81.8266 141.12,81.4933 136.5,80.5C 133.609,73.0502 130.442,65.7169 127,58.5C 126.5,66.1594 126.334,73.8261 126.5,81.5C 123.5,81.5 120.5,81.5 117.5,81.5C 117.5,69.5 117.5,57.5 117.5,45.5C 122.5,45.5 127.5,45.5 132.5,45.5 Z"/></g>
<g><path style="opacity:1" fill="#f5f5f8" d="M 168.5,44.5 C 172.833,44.5 177.167,44.5 181.5,44.5C 185.74,56.8159 190.407,68.9826 195.5,81C 191.5,81.6667 187.5,81.6667 183.5,81C 182.373,79.2467 181.373,77.4134 180.5,75.5C 176.878,74.3414 173.211,74.1747 169.5,75C 168.692,77.0876 167.692,79.0876 166.5,81C 162.789,81.8253 159.122,81.6586 155.5,80.5C 160.238,68.6173 164.571,56.6173 168.5,44.5 Z"/></g>
<g><path style="opacity:1" fill="#a3a7c0" d="M 312.5,45.5 C 307.5,45.5 302.5,45.5 297.5,45.5C 297.5,57.5 297.5,69.5 297.5,81.5C 296.505,69.3446 296.171,57.0113 296.5,44.5C 302.026,44.1786 307.36,44.5119 312.5,45.5 Z"/></g>
<g><path style="opacity:1" fill="#fafafc" d="M 312.5,45.5 C 315.594,52.0252 318.427,58.6918 321,65.5C 321.5,58.8417 321.666,52.175 321.5,45.5C 324.5,45.5 327.5,45.5 330.5,45.5C 330.5,57.5 330.5,69.5 330.5,81.5C 325.786,81.8266 321.12,81.4933 316.5,80.5C 313.609,73.0502 310.442,65.7169 307,58.5C 306.5,66.1594 306.334,73.8261 306.5,81.5C 303.5,81.5 300.5,81.5 297.5,81.5C 297.5,69.5 297.5,57.5 297.5,45.5C 302.5,45.5 307.5,45.5 312.5,45.5 Z"/></g>
<g><path style="opacity:1" fill="#f6f6f9" d="M 349.5,44.5 C 353.767,44.203 357.934,44.5363 362,45.5C 366.838,57.3503 371.671,69.1836 376.5,81C 372.5,81.6667 368.5,81.6667 364.5,81C 363.373,79.2467 362.373,77.4134 361.5,75.5C 357.878,74.3414 354.211,74.1747 350.5,75C 349.308,76.9124 348.308,78.9124 347.5,81C 343.789,81.8253 340.122,81.6586 336.5,80.5C 341.234,68.629 345.568,56.629 349.5,44.5 Z"/></g>
<g><path style="opacity:1" fill="#888eaf" d="M 141.5,45.5 C 144.625,44.5206 147.958,44.1872 151.5,44.5C 151.829,57.0113 151.495,69.3446 150.5,81.5C 150.5,69.5 150.5,57.5 150.5,45.5C 147.5,45.5 144.5,45.5 141.5,45.5 Z"/></g>
<g><path style="opacity:1" fill="#888eaf" d="M 321.5,45.5 C 324.625,44.5206 327.958,44.1872 331.5,44.5C 331.829,57.0113 331.495,69.3446 330.5,81.5C 330.5,69.5 330.5,57.5 330.5,45.5C 327.5,45.5 324.5,45.5 321.5,45.5 Z"/></g>
<g><path style="opacity:1" fill="#09186b" d="M 270.5,51.5 C 276.987,52.0799 279.987,55.7466 279.5,62.5C 279.458,65.2586 278.958,67.9253 278,70.5C 274.952,74.0095 271.619,74.3428 268,71.5C 263.988,64.0908 264.821,57.4241 270.5,51.5 Z"/></g>
<g><path style="opacity:1" fill="#f0f1f5" d="M 21.5,68.5 C 21.5,68.1667 21.5,67.8333 21.5,67.5C 23.332,63.1638 25.6654,59.1638 28.5,55.5C 31.5256,59.205 34.1923,63.205 36.5,67.5C 31.544,68.4941 26.544,68.8275 21.5,68.5 Z"/></g>
<g><path style="opacity:1" fill="#18196d" d="M 174.5,56.5 C 175.791,58.949 176.791,61.6156 177.5,64.5C 175.5,65.8333 173.5,65.8333 171.5,64.5C 172.513,61.8122 173.513,59.1456 174.5,56.5 Z"/></g>
<g><path style="opacity:1" fill="#13156b" d="M 357.5,63.5 C 356.448,65.256 354.781,65.9227 352.5,65.5C 353.179,62.2932 354.346,59.2932 356,56.5C 356.44,58.8659 356.94,61.1992 357.5,63.5 Z"/></g>
<g><path style="opacity:1" fill="#8186ab" d="M 357.5,63.5 C 358.404,64.209 358.737,65.209 358.5,66.5C 356.265,66.7947 354.265,66.4614 352.5,65.5C 354.781,65.9227 356.448,65.256 357.5,63.5 Z"/></g>
<g><path style="opacity:1" fill="#7980a6" d="M 21.5,67.5 C 21.5,67.8333 21.5,68.1667 21.5,68.5C 21.5,75.8333 21.5,83.1667 21.5,90.5C 20.8333,83.8333 20.1667,77.1667 19.5,70.5C 19.9321,69.2905 20.5987,68.2905 21.5,67.5 Z"/></g>
<g><path style="opacity:1" fill="#000063" d="M 445.5,37.5 C 322.334,38.4995 199.001,38.8329 75.5,38.5C 75.5,55.1667 75.5,71.8333 75.5,88.5C 199.001,88.1671 322.334,88.5005 445.5,89.5C 321.833,89.5 198.167,89.5 74.5,89.5C 74.5,72.1667 74.5,54.8333 74.5,37.5C 198.167,37.5 321.833,37.5 445.5,37.5 Z"/></g>
</svg>
