<?xml version="1.0" encoding="UTF-8"?>
<!DOCTYPE svg PUBLIC "-//W3C//DTD SVG 1.1//EN" "http://www.w3.org/Graphics/SVG/1.1/DTD/svg11.dtd">
<svg xmlns="http://www.w3.org/2000/svg" version="1.1" width="194px" height="148px" style="shape-rendering:geometricPrecision; text-rendering:geometricPrecision; image-rendering:optimizeQuality; fill-rule:evenodd; clip-rule:evenodd" xmlns:xlink="http://www.w3.org/1999/xlink">
<g><path style="opacity:1" fill="#fdfdfd" d="M -0.5,-0.5 C 64.1667,-0.5 128.833,-0.5 193.5,-0.5C 193.5,48.8333 193.5,98.1667 193.5,147.5C 128.833,147.5 64.1667,147.5 -0.5,147.5C -0.5,98.1667 -0.5,48.8333 -0.5,-0.5 Z"/></g>
<g><path style="opacity:1" fill="#0c0c0c" d="M 51.5,59.5 C 54.5184,59.3354 57.5184,59.502 60.5,60C 61.9308,60.4652 63.0975,61.2986 64,62.5C 65.017,68.568 66.3503,74.568 68,80.5C 69.916,83.033 71.916,83.033 74,80.5C 75.662,73.5207 77.162,66.5207 78.5,59.5C 80.1667,59.5 81.8333,59.5 83.5,59.5C 82.8352,67.3241 81.3352,74.9907 79,82.5C 74.2849,88.2214 68.9516,88.888 63,84.5C 61.4528,78.5511 60.1194,72.5511 59,66.5C 56.7309,63.9456 54.3975,63.9456 52,66.5C 51.1786,73.2737 49.8453,79.9403 48,86.5C 46.3333,87.8333 44.6667,87.8333 43,86.5C 43.9934,79.1747 45.3267,71.8414 47,64.5C 48.7073,62.9625 50.2073,61.2959 51.5,59.5 Z"/></g>
<g><path style="opacity:1" fill="#0f0f0f" d="M 98.5,58.5 C 104.176,58.3339 109.843,58.5006 115.5,59C 116.86,60.9376 116.527,62.6043 114.5,64C 108.058,64.0827 101.725,64.7493 95.5,66C 89.4642,71.1164 89.1308,76.4497 94.5,82C 100.157,82.4994 105.824,82.6661 111.5,82.5C 111.714,84.1439 111.38,85.6439 110.5,87C 104.167,87.6667 97.8333,87.6667 91.5,87C 89,85.8333 87.1667,84 86,81.5C 83.4212,69.9811 87.5879,62.3145 98.5,58.5 Z"/></g>
<g><path style="opacity:1" fill="#0f0f0f" d="M 121.5,58.5 C 122.675,58.281 123.675,58.6143 124.5,59.5C 126.877,63.6233 129.711,67.2899 133,70.5C 138.076,67.4301 142.576,63.5967 146.5,59C 149.667,58.1667 150.833,59.3333 150,62.5C 146.118,66.0456 142.618,69.8789 139.5,74C 141.722,77.3846 143.722,80.8846 145.5,84.5C 145.392,85.4419 145.059,86.2753 144.5,87C 142.741,87.7975 141.074,87.6309 139.5,86.5C 137.667,83.5 135.833,80.5 134,77.5C 133.275,76.9415 132.442,76.6082 131.5,76.5C 127.083,79.4101 123.083,82.9101 119.5,87C 117.866,87.4935 116.199,87.6602 114.5,87.5C 114.343,86.1266 114.51,84.7932 115,83.5C 118.566,79.9336 122.066,76.4336 125.5,73C 123.5,69.3333 121.5,65.6667 119.5,62C 119.978,60.6974 120.645,59.5307 121.5,58.5 Z"/></g>
<g><path style="opacity:1" fill="#0b0b0b" d="M 97.5,70.5 C 102.511,70.3341 107.511,70.5007 112.5,71C 113.86,72.9376 113.527,74.6043 111.5,76C 106.5,76.6667 101.5,76.6667 96.5,76C 95.1563,73.8564 95.4896,72.0231 97.5,70.5 Z"/></g>
</svg>
