<?xml version="1.0" encoding="UTF-8"?>
<svg version="1.1" xmlns="http://www.w3.org/2000/svg" width="204" height="148">
<path d="M0 0 C67.32 0 134.64 0 204 0 C204 48.84 204 97.68 204 148 C136.68 148 69.36 148 0 148 C0 99.16 0 50.32 0 0 Z " fill="#FDFDFE" transform="translate(0,0)"/>
<path d="M0 0 C4.74903302 4.01762012 6.61309117 9.03493906 7.40625 15.11328125 C7.60676797 21.95595697 7.11034536 26.5804601 2.84765625 32.0625 C-2.00646119 37.15265274 -7.46540402 41.41707735 -14.61328125 42.3359375 C-22.88856601 42.4556956 -27.4832336 40.41346714 -34.1875 35.8125 C-39.51413843 30.48586157 -42.28305383 25.56927126 -42.5625 17.9375 C-42.16376884 9.66907494 -38.98908784 4.07972441 -32.9765625 -1.5234375 C-22.39633564 -9.42724334 -10.32811216 -6.68199871 0 0 Z " fill="#0748BA" transform="translate(67,58)"/>
<path d="M0 0 C4.78131048 2.12799479 7.32126204 4.57791686 9.78515625 9.30859375 C11.07259612 13.06411375 10.89844806 16.75905857 10.8828125 20.69921875 C10.88139755 21.4038324 10.8799826 22.10844604 10.87852478 22.83441162 C10.87294558 25.07584959 10.86039698 27.31718618 10.84765625 29.55859375 C10.84263856 31.0820298 10.83807612 32.60546743 10.83398438 34.12890625 C10.82383559 37.85553885 10.80425634 41.58195335 10.78515625 45.30859375 C5.83515625 45.30859375 0.88515625 45.30859375 -4.21484375 45.30859375 C-4.25222656 43.32214844 -4.28960937 41.33570313 -4.328125 39.2890625 C-4.37680191 37.36284762 -4.42558183 35.4366338 -4.47729492 33.51049805 C-4.52685694 31.51568745 -4.56135508 29.52052118 -4.59570312 27.52539062 C-4.64887695 25.6449707 -4.64887695 25.6449707 -4.703125 23.7265625 C-4.72930908 22.56922607 -4.75549316 21.41188965 -4.7824707 20.21948242 C-4.98937981 17.3330236 -4.98937981 17.3330236 -6.52807617 15.43481445 C-9.41453866 13.50758165 -11.87349932 13.8909257 -15.21484375 14.30859375 C-18.53583127 17.49835684 -18.62496229 20.35380963 -18.7265625 24.82421875 C-18.76201172 26.07460937 -18.79746094 27.325 -18.83398438 28.61328125 C-18.86782227 30.56621094 -18.86782227 30.56621094 -18.90234375 32.55859375 C-18.93650391 33.87601563 -18.97066406 35.1934375 -19.00585938 36.55078125 C-19.08834535 39.80308546 -19.15327048 43.05582642 -19.21484375 46.30859375 C-24.16484375 46.30859375 -29.11484375 46.30859375 -34.21484375 46.30859375 C-34.21484375 31.12859375 -34.21484375 15.94859375 -34.21484375 0.30859375 C-28.93484375 0.30859375 -23.65484375 0.30859375 -18.21484375 0.30859375 C-17.88484375 0.96859375 -17.55484375 1.62859375 -17.21484375 2.30859375 C-16.41046875 1.81359375 -15.60609375 1.31859375 -14.77734375 0.80859375 C-9.69734037 -1.33035504 -5.30008828 -1.65452491 0 0 Z " fill="#0848BA" transform="translate(163.21484375,52.69140625)"/>
<path d="M0 0 C4.63483554 4.99136135 5.14286921 8.23547351 5.09765625 14.8515625 C5.0962413 15.62559418 5.09482635 16.39962585 5.09336853 17.19711304 C5.08776403 19.67311442 5.07521083 22.14902588 5.0625 24.625 C5.05748558 26.30208203 5.05292257 27.97916547 5.04882812 29.65625 C5.03779315 33.77086806 5.02052554 37.88541878 5 42 C0.05 42 -4.9 42 -10 42 C-10.04898438 39.92976563 -10.09796875 37.85953125 -10.1484375 35.7265625 C-10.20405689 33.72426441 -10.25974397 31.72196754 -10.31738281 29.71972656 C-10.35569327 28.32691428 -10.39054259 26.93400235 -10.421875 25.54101562 C-10.46747907 23.54013692 -10.52651623 21.53957854 -10.5859375 19.5390625 C-10.63306885 17.73236084 -10.63306885 17.73236084 -10.68115234 15.88916016 C-10.70915226 12.8739982 -10.70915226 12.8739982 -13 11 C-17.33643601 10.68462284 -19.32653229 10.55102153 -23 13 C-23.51220541 16.10213725 -23.51220541 16.10213725 -23.51171875 19.7578125 C-23.52966995 20.42086395 -23.54762115 21.08391541 -23.56611633 21.76705933 C-23.62032924 23.88630803 -23.65414771 26.00533025 -23.6875 28.125 C-23.72066367 29.56122952 -23.75515245 30.9974291 -23.79101562 32.43359375 C-23.87856089 35.95576363 -23.93852579 39.47689189 -24 43 C-28.95 43 -33.9 43 -39 43 C-39 28.15 -39 13.3 -39 -2 C-34.38 -2 -29.76 -2 -25 -2 C-25 -1.01 -25 -0.02 -25 1 C-24.2575 0.360625 -23.515 -0.27875 -22.75 -0.9375 C-15.62068449 -6.28448664 -7.01327042 -4.836202 0 0 Z " fill="#0647BA" transform="translate(118,56)"/>
<path d="M0 0 C2.5625 1.5625 2.5625 1.5625 4 4 C4.7061509 8.94305629 4.81651929 10.83707859 1.9375 14.9375 C-1.57823396 17.40599406 -3.71383323 18 -8 18 C-10.87552999 16.78588734 -12.4458311 15.73889186 -14.3125 13.25 C-15.33789057 9.89417631 -15.49005128 7.49161539 -15 4 C-10.58800349 -1.43014956 -6.61709316 -2.03409695 0 0 Z " fill="#0D4BBB" transform="translate(194,82)"/>
<path d="M0 0 C2.75329021 1.79562405 4.52627461 3.05254922 6 6 C6.39447548 10.18144011 6.45035186 12.30946048 4.125 15.875 C1.18884789 18.81115211 0.38251808 18.96298212 -3.875 19.375 C-7.11115049 19.31027699 -7.82479187 19.1357863 -10.5 17.0625 C-12.52692722 12.92419027 -12.93223392 9.52215224 -12 5 C-8.6691068 0.05412828 -5.84239298 -0.93895602 0 0 Z " fill="#F5F7FB" transform="translate(53,66)"/>
</svg>
