<?xml version="1.0" encoding="UTF-8"?>
<svg version="1.1" xmlns="http://www.w3.org/2000/svg" width="260" height="148">
<path d="M0 0 C85.8 0 171.6 0 260 0 C260 48.84 260 97.68 260 148 C174.2 148 88.4 148 0 148 C0 99.16 0 50.32 0 0 Z " fill="#FDFDFD" transform="translate(0,0)"/>
<path d="M0 0 C85.8 0 171.6 0 260 0 C260 16.17 260 32.34 260 49 C257.36 49.33 254.72 49.66 252 50 C249.20864421 52.12448478 249.20864421 52.12448478 247 55 C246.53335938 55.54914062 246.06671875 56.09828125 245.5859375 56.6640625 C244.37261624 58.09429035 243.18398316 59.54539212 242 61 C238.893533 57.893533 238.30910218 54.16532512 237 50 C233.04 49.67 229.08 49.34 225 49 C225 49.66 225 50.32 225 51 C224.34 51 223.68 51 223 51 C223 51.66 223 52.32 223 53 C222.34 53 221.68 53 221 53 C221 51.68 221 50.36 221 49 C216.71 49 212.42 49 208 49 C208 49.66 208 50.32 208 51 C207.34 51 206.68 51 206 51 C205.90525391 51.93392578 205.90525391 51.93392578 205.80859375 52.88671875 C204.23723123 64.74637058 200.55332124 77.37730708 195 88 C193.54207116 88.05399736 192.08357288 88.09279177 190.625 88.125 C189.81289062 88.14820312 189.00078125 88.17140625 188.1640625 88.1953125 C186 88 186 88 184 86 C182.86918806 78.5016177 184.87855354 71.29363565 186.875 64.125 C187.27912109 62.59746094 187.27912109 62.59746094 187.69140625 61.0390625 C188.8540647 56.72871898 189.9918467 53.0163066 192 49 C188.04 49 184.08 49 180 49 C180 49.66 180 50.32 180 51 C179.01 51.495 179.01 51.495 178 52 C176.97559374 54.68667311 176.97559374 54.68667311 176.08984375 57.9765625 C175.56487305 59.81927734 175.56487305 59.81927734 175.02929688 61.69921875 C174.85003662 62.3442334 174.67077637 62.98924805 174.48608398 63.65380859 C173.94478451 65.59882503 173.39048721 67.53975473 172.83398438 69.48046875 C171.16778978 75.38760596 169.87275031 80.89074782 169 87 C161.74 87 154.48 87 147 87 C149.25253207 75.73733964 149.25253207 75.73733964 150.69140625 70.40625 C150.99626953 69.27445312 151.30113281 68.14265625 151.61523438 66.9765625 C152.08413086 65.25566406 152.08413086 65.25566406 152.5625 63.5 C152.87896484 62.32179687 153.19542969 61.14359375 153.52148438 59.9296875 C155.86624765 51.2675047 155.86624765 51.2675047 157 49 C153.04 49 149.08 49 145 49 C145 49.66 145 50.32 145 51 C144.01 51.495 144.01 51.495 143 52 C142.09272416 54.64464329 142.09272416 54.64464329 141.3125 58 C140.96912783 59.34808526 140.62392952 60.69570611 140.27734375 62.04296875 C139.9831958 63.19418213 139.9831958 63.19418213 139.68310547 64.36865234 C138.29968138 69.69765335 136.8387783 75.00511831 135.375 80.3125 C135.07376221 81.42818359 134.77252441 82.54386719 134.4621582 83.69335938 C134.17300537 84.73943359 133.88385254 85.78550781 133.5859375 86.86328125 C133.19994385 88.27540894 133.19994385 88.27540894 132.80615234 89.71606445 C132 92 132 92 130 94 C128.38293303 91.11489392 127.69855153 88.83214864 127.4375 85.54296875 C127.32704346 84.25519531 127.32704346 84.25519531 127.21435547 82.94140625 C127.14361816 82.03261719 127.07288086 81.12382813 127 80.1875 C126.33649721 72.42384713 125.49608804 64.74250904 124.3671875 57.03125 C124 54 124 54 124 49 C119.38 49 114.76 49 110 49 C110 49.66 110 50.32 110 51 C109.14148438 51.81210938 109.14148438 51.81210938 108.265625 52.640625 C105.33858208 55.68878693 103.65931857 59.0091499 101.75 62.75 C101.38648437 63.44738281 101.02296875 64.14476563 100.6484375 64.86328125 C99.75893803 66.57205654 98.87854133 68.28556498 98 70 C97.01 70 96.02 70 95 70 C95 64.72 95 59.44 95 54 C93.35 53.34 91.7 52.68 90 52 C88.778573 51.45593506 88.778573 51.45593506 87.5324707 50.90087891 C84.73552506 49.905918 82.44243974 49.68522144 79.48046875 49.5859375 C78.45888672 49.54726563 77.43730469 49.50859375 76.38476562 49.46875 C74.80211914 49.42234375 74.80211914 49.42234375 73.1875 49.375 C72.11306641 49.33632813 71.03863281 49.29765625 69.93164062 49.2578125 C67.28792912 49.16381387 64.6442195 49.07815427 62 49 C60.3021806 52.29197874 59.13688759 55.5114117 58.0625 59.0625 C57.71445312 60.20332031 57.36640625 61.34414063 57.0078125 62.51953125 C55.81602722 66.63534784 54.77951301 70.77998134 53.80859375 74.953125 C53.40833984 75.96632812 53.40833984 75.96632812 53 77 C52.01 77.33 51.02 77.66 50 78 C49.97421875 77.38253906 49.9484375 76.76507813 49.921875 76.12890625 C49.33814461 67.41275017 46.91697718 60.54421858 41 54 C33.83311074 49.0907341 26.67141006 46.44771055 18 48 C10.66845418 50.3233772 5.32285241 55.67714759 0 61 C0 40.87 0 20.74 0 0 Z " fill="#FEFDFD" transform="translate(0,0)"/>
<path d="M0 0 C4.62 0 9.24 0 14 0 C15.84238061 11.43504231 17.41198553 22.81327213 18.26513672 34.36987305 C18.33361816 35.20945557 18.40209961 36.04903809 18.47265625 36.9140625 C18.55398804 38.0270874 18.55398804 38.0270874 18.63696289 39.16259766 C18.87064825 41.2417378 18.87064825 41.2417378 21 43 C21.76298795 40.28997745 22.52508249 37.57970809 23.28613281 34.86914062 C23.92991843 32.57708121 24.57510619 30.28541516 25.22167969 27.99414062 C26.6198657 23.02061345 28.01103985 18.0510485 29.25 13.03515625 C29.42370117 12.33914307 29.59740234 11.64312988 29.77636719 10.92602539 C30.22053025 9.11983857 30.64986075 7.31002248 31.078125 5.5 C31.38234375 4.675 31.6865625 3.85 32 3 C32.99 2.67 33.98 2.34 35 2 C35 1.34 35 0.68 35 0 C38.96 0 42.92 0 47 0 C44.14345131 12.82086266 40.67507348 25.38781603 37 38 C44.26 38 51.52 38 59 38 C59 35.69 59 33.38 59 31 C59.86309215 26.79100672 61.05643184 22.68975517 62.25317383 18.56396484 C62.815889 16.61325166 63.35485055 14.65694816 63.89257812 12.69921875 C64.41948242 10.85650391 64.41948242 10.85650391 64.95703125 8.9765625 C65.43619995 7.29167725 65.43619995 7.29167725 65.92504883 5.57275391 C66.27978271 4.72374512 66.6345166 3.87473633 67 3 C67.99 2.67 68.98 2.34 70 2 C70 1.34 70 0.68 70 0 C73.96 0 77.92 0 82 0 C81.5875 1.485 81.175 2.97 80.75 4.5 C80.16576448 6.66642357 79.58254659 8.83312167 79 11 C78.73533936 11.95543701 78.73533936 11.95543701 78.46533203 12.93017578 C75.0720346 24.77453271 75.0720346 24.77453271 75 37 C76.58272601 38.58272601 78.38034003 38.34735747 80.5625 38.5625 C81.38878906 38.64628906 82.21507812 38.73007813 83.06640625 38.81640625 C83.70449219 38.87699219 84.34257812 38.93757813 85 39 C85.556875 37.1128125 85.556875 37.1128125 86.125 35.1875 C87.20478493 31.57616188 88.32029138 27.97794331 89.46484375 24.38671875 C89.85808838 23.15175659 89.85808838 23.15175659 90.25927734 21.8918457 C90.78479763 20.24516224 91.31238481 18.59913661 91.84228516 16.95385742 C93.42119904 12.00431451 94.7916304 7.05318196 96 2 C96.66 2 97.32 2 98 2 C98 1.34 98 0.68 98 0 C102.29 0 106.58 0 111 0 C110.608125 1.2375 110.21625 2.475 109.8125 3.75 C108.44944337 8.25065869 107.30660134 12.78304511 106.20385742 17.35229492 C100.89942958 39.25047535 100.89942958 39.25047535 94 45 C93.030625 45.886875 92.06125 46.77375 91.0625 47.6875 C85.17400388 52.13391543 79.20451732 52.88704267 72 52 C67.68674286 50.71265864 64.13668522 49.13668522 60.9375 45.9375 C60 44 60 44 60 41 C59.34 41 58.68 41 58 41 C57.67 43.31 57.34 45.62 57 48 C56.34 48 55.68 48 55 48 C55 48.99 55 49.98 55 51 C38.5 51 22 51 5 51 C5 48.03 5 45.06 5 42 C2.41211799 42.00601833 -0.16379429 42.05340953 -2.75 42.125 C-3.47960937 42.12242188 -4.20921875 42.11984375 -4.9609375 42.1171875 C-7.42021598 42.14680297 -7.42021598 42.14680297 -11 43 C-13.51559091 45.85464341 -13.51559091 45.85464341 -15 49 C-16 50 -16 50 -18.72265625 50.09765625 C-19.82480469 50.08605469 -20.92695312 50.07445312 -22.0625 50.0625 C-23.16722656 50.05347656 -24.27195312 50.04445312 -25.41015625 50.03515625 C-26.69212891 50.01775391 -26.69212891 50.01775391 -28 50 C-27.43102347 46.24731676 -26.41208288 43.66936757 -24.37890625 40.4765625 C-21.99917876 36.64314889 -19.72170093 32.77879866 -17.52734375 28.8359375 C-16.93759766 27.77632812 -16.34785156 26.71671875 -15.74023438 25.625 C-14.53417847 23.45070204 -13.32845157 21.27622155 -12.12304688 19.1015625 C-5.34117398 6.91944689 -5.34117398 6.91944689 -2 2 C-1.34 2 -0.68 2 0 2 C0 1.34 0 0.68 0 0 Z " fill="#E93538" transform="translate(110,49)"/>
<path d="M0 0 C6.3010507 3.48065802 10.44831027 7.29304381 13.1171875 14.1953125 C14.84229139 21.59998919 14.65075824 29.19369735 10.70703125 35.78515625 C10.34996094 36.30980469 9.99289063 36.83445313 9.625 37.375 C9.08875 38.2 8.5525 39.025 8 39.875 C7.54625 40.37 7.0925 40.865 6.625 41.375 C5.965 41.375 5.305 41.375 4.625 41.375 C4.295 42.365 3.965 43.355 3.625 44.375 C-4.27726593 49.44437814 -10.97693726 50.15253756 -20.375 49.375 C-26.87492796 47.70206772 -31.98223338 43.07067495 -35.375 37.375 C-36.37294711 33.00853107 -36.3562479 28.83741194 -36.25 24.375 C-36.29060547 22.66957031 -36.29060547 22.66957031 -36.33203125 20.9296875 C-36.27479174 13.88105013 -35.2475735 9.9007451 -30.18066406 4.89990234 C-20.78500496 -3.03483085 -11.36354492 -5.35249588 0 0 Z " fill="#E93438" transform="translate(35.375,49.625)"/>
<path d="M0 0 C4.62 0 9.24 0 14 0 C15.84238061 11.43504231 17.41198553 22.81327213 18.26513672 34.36987305 C18.33361816 35.20945557 18.40209961 36.04903809 18.47265625 36.9140625 C18.55398804 38.0270874 18.55398804 38.0270874 18.63696289 39.16259766 C18.87064825 41.2417378 18.87064825 41.2417378 21 43 C26.62270755 23.03352899 26.62270755 23.03352899 32 3 C32.66 3 33.32 3 34 3 C33.41730074 7.61649124 32.55943856 11.95626522 31.2578125 16.421875 C30.91363281 17.61296875 30.56945312 18.8040625 30.21484375 20.03125 C29.85519531 21.2584375 29.49554688 22.485625 29.125 23.75 C28.41865253 26.18211218 27.71291522 28.61440166 27.0078125 31.046875 C26.69473145 32.11776367 26.38165039 33.18865234 26.05908203 34.29199219 C24.66229042 39.18237276 23.33820098 44.09326309 22 49 C32.56 49 43.12 49 54 49 C54.33 49.66 54.66 50.32 55 51 C38.5 51 22 51 5 51 C5 48.03 5 45.06 5 42 C2.41211799 42.00601833 -0.16379429 42.05340953 -2.75 42.125 C-3.47960937 42.12242188 -4.20921875 42.11984375 -4.9609375 42.1171875 C-7.42021598 42.14680297 -7.42021598 42.14680297 -11 43 C-13.51559091 45.85464341 -13.51559091 45.85464341 -15 49 C-16 50 -16 50 -18.72265625 50.09765625 C-19.82480469 50.08605469 -20.92695312 50.07445312 -22.0625 50.0625 C-23.16722656 50.05347656 -24.27195312 50.04445312 -25.41015625 50.03515625 C-26.69212891 50.01775391 -26.69212891 50.01775391 -28 50 C-27.43102347 46.24731676 -26.41208288 43.66936757 -24.37890625 40.4765625 C-21.99917876 36.64314889 -19.72170093 32.77879866 -17.52734375 28.8359375 C-16.93759766 27.77632812 -16.34785156 26.71671875 -15.74023438 25.625 C-14.53417847 23.45070204 -13.32845157 21.27622155 -12.12304688 19.1015625 C-5.34117398 6.91944689 -5.34117398 6.91944689 -2 2 C-1.34 2 -0.68 2 0 2 C0 1.34 0 0.68 0 0 Z " fill="#D73A3E" transform="translate(110,49)"/>
<path d="M0 0 C2.9247163 -0.03597601 5.84437396 -0.0602665 8.76928711 -0.02905273 C10.26878906 -0.06482422 10.26878906 -0.06482422 11.79858398 -0.10131836 C18.82176997 -0.08762794 25.05514834 1.09630802 30.70678711 5.53344727 C32.42601063 9.96829427 32.50043228 15.1116957 31.02319336 19.61938477 C28.39637643 25.30900483 24.89772765 30.20542577 19.00366211 32.65844727 C15.27283536 33.64861929 11.66629117 33.97948678 7.83178711 34.15844727 C5.48053711 34.28219727 3.12928711 34.40594727 0.70678711 34.53344727 C-0.61321289 39.15344727 -1.93321289 43.77344727 -3.29321289 48.53344727 C-3.95321289 48.53344727 -4.61321289 48.53344727 -5.29321289 48.53344727 C-5.29321289 49.19344727 -5.29321289 49.85344727 -5.29321289 50.53344727 C-9.25321289 50.53344727 -13.21321289 50.53344727 -17.29321289 50.53344727 C-16.02951747 43.10773229 -14.44988805 35.90899201 -12.41821289 28.65844727 C-12.15355225 27.70534668 -11.8888916 26.75224609 -11.61621094 25.77026367 C-10.8489806 23.02259524 -10.0727444 20.27764747 -9.29321289 17.53344727 C-9.08873535 16.80577148 -8.88425781 16.0780957 -8.67358398 15.32836914 C-4.64469073 1.08044813 -4.64469073 1.08044813 0 0 Z " fill="#E13337" transform="translate(64.293212890625,48.466552734375)"/>
<path d="M0 0 C3.96 0 7.92 0 12 0 C14.475 5.445 14.475 5.445 17 11 C18.6396875 8.834375 18.6396875 8.834375 20.3125 6.625 C22.47771043 3.76528811 23.98509443 2.00993705 27 0 C29.04296875 -0.1953125 29.04296875 -0.1953125 31.1875 -0.125 C33.0746875 -0.063125 33.0746875 -0.063125 35 0 C35.42142689 4.36204192 35.36149518 6.44995762 32.91796875 10.16796875 C32.02503023 11.18978499 31.11427775 12.19627317 30.1875 13.1875 C29.28452136 14.20125776 28.38216334 15.21556871 27.48046875 16.23046875 C26.04423097 17.83407912 24.59510151 19.42669427 23.11328125 20.98828125 C21.44065452 24.01074709 22.11833929 25.69279271 23 29 C23.94763067 31.94505293 24.98994585 34.84838019 26.0625 37.75 C29 45.74914188 29 45.74914188 29 48 C28.34 48 27.68 48 27 48 C27 48.66 27 49.32 27 50 C23.04 50 19.08 50 15 50 C11 40.375 11 40.375 11 37 C10.319375 37.66 9.63875 38.32 8.9375 39 C8.47214844 39.44730469 8.00679687 39.89460938 7.52734375 40.35546875 C5.92036102 42.00229966 5.92036102 42.00229966 4.56640625 44.11328125 C2.8408799 46.53590303 1.42879936 48.26393646 -1 50 C-5.41372256 50.67625457 -9.57223289 50.47939734 -14 50 C-12.68624618 46.19807605 -11.12513458 43.73246361 -8.375 40.8125 C-7.67246094 40.03519531 -6.96992188 39.25789063 -6.24609375 38.45703125 C-4.72924567 36.79773135 -3.20022566 35.14948872 -1.66015625 33.51171875 C2.31970241 29.15652958 2.31970241 29.15652958 4.453125 23.7890625 C4.08031205 18.05188536 1.41488197 12.7680415 -0.94140625 7.6015625 C-2 5 -2 5 -2 2 C-1.34 2 -0.68 2 0 2 C0 1.34 0 0.68 0 0 Z " fill="#EA363A" transform="translate(225,49)"/>
<path d="M0 0 C3.96 0 7.92 0 12 0 C9.14345131 12.82086266 5.67507348 25.38781603 2 38 C9.26 38 16.52 38 24 38 C23.34 41.3 22.68 44.6 22 48 C21.34 48 20.68 48 20 48 C19.505 48.99 19.505 48.99 19 50 C8.44 49.67 -2.12 49.34 -13 49 C-12.33416809 43.67334473 -11.73441441 39.53775761 -10.22265625 34.55859375 C-9.87396484 33.39779297 -9.52527344 32.23699219 -9.16601562 31.04101562 C-8.80185547 29.85185547 -8.43769531 28.66269531 -8.0625 27.4375 C-7.34487545 25.06125125 -6.62742241 22.6849507 -5.91015625 20.30859375 C-5.40935547 18.65525024 -5.40935547 18.65525024 -4.8984375 16.96850586 C-4.60195312 15.98889893 -4.30546875 15.00929199 -4 14 C-3.77054688 13.24275635 -3.54109375 12.4855127 -3.3046875 11.70532227 C-2.31325466 8.35440232 -1.78738162 5.50820334 -2 2 C-1.34 2 -0.68 2 0 2 C0 1.34 0 0.68 0 0 Z " fill="#E73438" transform="translate(145,49)"/>
<path d="M0 0 C6.3674308 2.51653975 10.15863714 6.86607073 13 13 C14.79405782 18.92269089 14.76750005 23.9845582 12 29.5 C11.34897292 30.67546556 10.68771754 31.84561699 10 33 C8.73973202 30.47946405 9.08125555 29.1457902 9.4375 26.375 C9.53933594 25.55773437 9.64117187 24.74046875 9.74609375 23.8984375 C9.82988281 23.27195312 9.91367187 22.64546875 10 22 C9.70867188 22.55429688 9.41734375 23.10859375 9.1171875 23.6796875 C5.72727273 29.67066895 5.72727273 29.67066895 1.6875 31.5 C0.3571875 31.7475 0.3571875 31.7475 -1 32 C-1 33.32 -1 34.64 -1 36 C-1.66 36 -2.32 36 -3 36 C-3 36.66 -3 37.32 -3 38 C-3.66 38 -4.32 38 -5 38 C-5.33 36.02 -5.66 34.04 -6 32 C-7.2375 32.04125 -8.475 32.0825 -9.75 32.125 C-15.44132096 32.08484959 -15.44132096 32.08484959 -18 30 C-19.8125 27.0625 -19.8125 27.0625 -21 24 C-20.505 22.515 -20.505 22.515 -20 21 C-18.68 23.31 -17.36 25.62 -16 28 C-12.7 28 -9.4 28 -6 28 C-6.33 26.68 -6.66 25.36 -7 24 C-6.34 24.33 -5.68 24.66 -5 25 C-4.59007813 24.50628906 -4.18015625 24.01257813 -3.7578125 23.50390625 C-3.21898438 22.86324219 -2.68015625 22.22257812 -2.125 21.5625 C-1.59132813 20.92441406 -1.05765625 20.28632812 -0.5078125 19.62890625 C1 18 1 18 3 17 C5.3329866 16.95977609 7.66706666 16.95679753 10 17 C7.66264067 10.37748189 4.96305505 7.03233593 -1.4375 3.75 C-4.59998976 2.82439324 -7.73132668 2.3845498 -11 2 C-7.25552083 -0.49631944 -4.33281748 -0.73503154 0 0 Z " fill="#A0393C" transform="translate(23,52)"/>
<path d="M0 0 C0.886875 0.721875 1.77375 1.44375 2.6875 2.1875 C3.450625 2.80625 4.21375 3.425 5 4.0625 C7.11454175 6.72525628 7.38353603 8.84389632 7.6875 12.1875 C6.79998047 12.33445312 6.79998047 12.33445312 5.89453125 12.484375 C0.81707861 13.44519801 -2.48763744 14.4860201 -6.3125 18.1875 C-6.704375 17.094375 -7.09625 16.00125 -7.5 14.875 C-9.0850124 11.21841324 -10.5746914 9.80155372 -14.3125 8.1875 C-16.62941454 7.46583809 -18.96098923 6.78690471 -21.3125 6.1875 C-20.74713006 2.90835432 -19.9421988 1.25369192 -17.3125 -0.8125 C-11.66091612 -4.13696111 -5.5140156 -3.01710288 0 0 Z " fill="#FAF4F4" transform="translate(25.3125,56.8125)"/>
<path d="M0 0 C0.33 0.66 0.66 1.32 1 2 C0.34 2 -0.32 2 -1 2 C-1 2.66 -1 3.32 -1 4 C-0.34 4.33 0.32 4.66 1 5 C-0.670625 5.309375 -0.670625 5.309375 -2.375 5.625 C-6.26599195 6.61628301 -6.26599195 6.61628301 -7.4375 10.125 C-7.623125 11.07375 -7.80875 12.0225 -8 13 C-6.948125 13.103125 -5.89625 13.20625 -4.8125 13.3125 C-0.18511693 14.14694613 2.45567418 15.5089268 5.8125 18.75 C7.46578713 21.88254404 7.20087346 24.51819328 7 28 C6.34 28 5.68 28 5 28 C5.33 28.99 5.66 29.98 6 31 C2.27262907 31.34703109 -1.2844791 31.52391518 -5 31 C-8.43543224 27.48467399 -9 25.91957603 -9 21 C-9.66 21 -10.32 21 -11 21 C-11.33 21.99 -11.66 22.98 -12 24 C-13.06132355 12.94875793 -13.06132355 12.94875793 -10.6171875 8.4609375 C-7.54414704 4.90898165 -4.25859045 2.06477113 0 0 Z " fill="#D93135" transform="translate(12,50)"/>
<path d="M0 0 C0.66 0 1.32 0 2 0 C1.37650642 2.52121432 0.75124639 5.04196931 0.125 7.5625 C-0.13603516 8.61920898 -0.13603516 8.61920898 -0.40234375 9.69726562 C-0.57636719 10.39658203 -0.75039062 11.09589844 -0.9296875 11.81640625 C-1.10508057 12.52128174 -1.28047363 13.22615723 -1.46118164 13.95239258 C-1.95600684 15.83281803 -2.53097675 17.69167331 -3.11328125 19.546875 C-4.09419254 23.36681146 -4.30054843 26.74746603 -4.3125 30.6875 C-4.32925781 31.97011719 -4.34601563 33.25273438 -4.36328125 34.57421875 C-3.98166554 38.17289596 -3.33978592 39.36388235 -1 42 C-1 42.66 -1 43.32 -1 44 C1.99706695 44.86963087 4.64956526 45.11763099 7.765625 45.09765625 C9.09980469 45.09282227 9.09980469 45.09282227 10.4609375 45.08789062 C11.38132813 45.07951172 12.30171875 45.07113281 13.25 45.0625 C14.18585938 45.05798828 15.12171875 45.05347656 16.0859375 45.04882812 C18.39069041 45.03706918 20.69531227 45.02063426 23 45 C18.13010168 49.00027362 13.83397427 49.36451587 7.66796875 49.2734375 C2.63338853 48.75744831 -1.84889102 47.1858978 -5.44921875 43.52734375 C-8.69721127 38.70663906 -8.56015189 33.60879949 -8 28 C-6.9107063 23.04802508 -5.47795648 18.22329643 -4 13.375 C-3.61334385 12.07198175 -3.22791805 10.76859774 -2.84375 9.46484375 C-1.90782568 6.30609916 -0.95970499 3.15158439 0 0 Z " fill="#564848" transform="translate(177,52)"/>
<path d="M0 0 C0.33 0 0.66 0 1 0 C1.45290156 6.3406218 0.6867748 10.72451632 -3 16 C-6.51283095 19.21173115 -10.03803945 19.57226547 -14.6484375 19.42578125 C-18.70040148 18.69212 -21.89207322 16.64583694 -25 14 C-25.66 13.01 -26.32 12.02 -27 11 C-23.37 11.33 -19.74 11.66 -16 12 C-15.67 13.98 -15.34 15.96 -15 18 C-14.34 18 -13.68 18 -13 18 C-13 17.34 -13 16.68 -13 16 C-12.34 16 -11.68 16 -11 16 C-11 14.68 -11 13.36 -11 12 C-10.05125 11.7525 -9.1025 11.505 -8.125 11.25 C-4.98770962 10.33326951 -4.98770962 10.33326951 -3.8125 8.25 C-3.544375 7.5075 -3.27625 6.765 -3 6 C-2 4 -1 2 0 0 Z " fill="#F6EAEB" transform="translate(33,72)"/>
<path d="M0 0 C1.62463842 -0.05395478 3.24978541 -0.09277195 4.875 -0.125 C5.77992187 -0.14820313 6.68484375 -0.17140625 7.6171875 -0.1953125 C10 0 10 0 12 2 C12.125 5.125 12.125 5.125 12 8 C8.78817851 9.90608098 6.46117397 10.22266247 2.75 10.125 C1.85796875 10.10695313 0.9659375 10.08890625 0.046875 10.0703125 C-0.96632813 10.03550781 -0.96632813 10.03550781 -2 10 C-1.54177532 6.53058454 -1.10868317 3.32604951 0 0 Z " fill="#FAE9E9" transform="translate(70,61)"/>
<path d="M0 0 C6.3674308 2.51653975 10.15863714 6.86607073 13 13 C14.79405782 18.92269089 14.76750005 23.9845582 12 29.5 C11.34897292 30.67546556 10.68771754 31.84561699 10 33 C8.55968412 30.11936824 9.32370821 28.14160799 9.875 25 C10.05804688 23.9275 10.24109375 22.855 10.4296875 21.75 C11 19 11 19 12 17 C11.34 17 10.68 17 10 17 C9.443125 15.4221875 9.443125 15.4221875 8.875 13.8125 C6.73032231 8.81499633 3.40534911 6.23351236 -1.4375 3.75 C-4.59998976 2.82439324 -7.73132668 2.3845498 -11 2 C-7.25552083 -0.49631944 -4.33281748 -0.73503154 0 0 Z " fill="#3B3636" transform="translate(23,52)"/>
<path d="M0 0 C-1.54947022 4.39016562 -3.66966004 8.66966004 -7 12 C-8.99958364 12.04080783 -11.00045254 12.04254356 -13 12 C-12.67 10.68 -12.34 9.36 -12 8 C-12.66 8 -13.32 8 -14 8 C-13.69209738 5.15190074 -13.34521809 3.41713852 -11.5 1.1875 C-7.73512805 -0.60081417 -4.09873595 -0.23646554 0 0 Z " fill="#E63236" transform="translate(35,69)"/>
<path d="M0 0 C2 2 2 2 3.6875 5.25 C6.47521849 10.25950917 10.53218825 14.17739608 16 16 C17.40824893 16.08021999 18.81997231 16.10765977 20.23046875 16.09765625 C21.03291016 16.09443359 21.83535156 16.09121094 22.66210938 16.08789062 C23.49548828 16.07951172 24.32886719 16.07113281 25.1875 16.0625 C26.4549707 16.05573242 26.4549707 16.05573242 27.74804688 16.04882812 C29.83206155 16.03705403 31.91603977 16.0191189 34 16 C30.50896374 19.49103626 26.53055722 19.20488082 21.75 19.3125 C14.55511678 19.22397235 10.32743163 17.93859383 4.9609375 13.19921875 C1.86456319 10.02265945 -0.42820038 7.58471102 -0.4375 3 C-0.293125 2.01 -0.14875 1.02 0 0 Z " fill="#524041" transform="translate(0,80)"/>
<path d="M0 0 C4.50495019 0.88332357 6.48337462 1.52734274 9.9375 4.6875 C12.30688367 8.49287378 12.43997682 10.60023176 12 15 C11.360625 14.34 10.72125 13.68 10.0625 13 C6.2170765 9.14346256 2.09075581 5.59166578 -2 2 C-1.34 1.34 -0.68 0.68 0 0 Z " fill="#EC383C" transform="translate(7,63)"/>
<path d="M0 0 C0.66 0 1.32 0 2 0 C2.67031719 1.9570868 3.33614683 3.91571113 4 5.875 C4.556875 7.51082031 4.556875 7.51082031 5.125 9.1796875 C6 12 6 12 6 14 C9.3 14 12.6 14 16 14 C16 14.66 16 15.32 16 16 C12.04 16 8.08 16 4 16 C3.13444052 13.90049414 2.28288723 11.7952093 1.4375 9.6875 C0.72400391 7.92986328 0.72400391 7.92986328 -0.00390625 6.13671875 C-1 3 -1 3 0 0 Z " fill="#472F30" transform="translate(236,83)"/>
<path d="M0 0 C0.33 0 0.66 0 1 0 C1.33897106 6.52330967 0.1908936 11.68958147 -1.8125 17.875 C-2.07353516 18.70902344 -2.33457031 19.54304688 -2.60351562 20.40234375 C-3.12830059 22.07906411 -3.65707287 23.75454202 -4.18994141 25.42871094 C-5.50575022 29.60535301 -6.7528186 33.80244285 -8 38 C-8.33 38 -8.66 38 -9 38 C-8.44582176 31.78088868 -7.38948959 26.10484022 -5.625 20.125 C-5.17558874 18.55734684 -4.72636973 16.98963856 -4.27734375 15.421875 C-4.05933105 14.66970703 -3.84131836 13.91753906 -3.61669922 13.14257812 C-2.77776369 10.2278916 -1.98007305 7.30259039 -1.1875 4.375 C-0.95417969 3.51648437 -0.72085938 2.65796875 -0.48046875 1.7734375 C-0.32191406 1.18820313 -0.16335937 0.60296875 0 0 Z " fill="#5C4E4E" transform="translate(58,55)"/>
<path d="M0 0 C1.89355469 0.26806641 1.89355469 0.26806641 4 1 C5.00488281 2.62646484 5.00488281 2.62646484 5.703125 4.7109375 C5.9609375 5.46117187 6.21875 6.21140625 6.484375 6.984375 C6.73703125 7.77328125 6.9896875 8.5621875 7.25 9.375 C7.518125 10.15617187 7.78625 10.93734375 8.0625 11.7421875 C9.15562725 14.99926054 10 17.53649703 10 21 C7 20 7 20 6.0168457 18.26586914 C5.73929443 17.52973389 5.46174316 16.79359863 5.17578125 16.03515625 C4.86962891 15.23529297 4.56347656 14.43542969 4.24804688 13.61132812 C3.93931641 12.77021484 3.63058594 11.92910156 3.3125 11.0625 C2.83200195 9.80663086 2.83200195 9.80663086 2.34179688 8.52539062 C0 2.31887993 0 2.31887993 0 0 Z " fill="#453536" transform="translate(223,52)"/>
<path d="M0 0 C0.33 0 0.66 0 1 0 C1.33 4.29 1.66 8.58 2 13 C-0.64 13 -3.28 13 -6 13 C-5.52467862 7.92990529 -2.95637706 4.02506742 0 0 Z " fill="#F7ECED" transform="translate(112,66)"/>
<path d="M0 0 C5.61 0 11.22 0 17 0 C17 2.97 17 5.94 17 9 C20.3 9 23.6 9 27 9 C27 9.33 27 9.66 27 10 C23.37 10 19.74 10 16 10 C15.67 7.36 15.34 4.72 15 2 C9.72 2 4.44 2 -1 2 C-0.67 1.34 -0.34 0.68 0 0 Z " fill="#313233" transform="translate(100,89)"/>
<path d="M0 0 C1.26339822 3.79019466 0.49719015 5.37522384 -1 9 C-1.99 9.495 -1.99 9.495 -3 10 C-3.33 10.99 -3.66 11.98 -4 13 C-4.66 13 -5.32 13 -6 13 C-6 13.66 -6 14.32 -6 15 C-2.7 15 0.6 15 4 15 C4 15.66 4 16.32 4 17 C0.04 17 -3.92 17 -8 17 C-7.10709213 12.53546064 -6.33074044 10.5159121 -4 6.8125 C-1.89110597 3.46706412 -1.89110597 3.46706412 0 0 Z " fill="#6F3E40" transform="translate(90,82)"/>
<path d="M0 0 C1.60379341 -0.05416188 3.20811406 -0.09286638 4.8125 -0.125 C5.70582031 -0.14820313 6.59914063 -0.17140625 7.51953125 -0.1953125 C10 0 10 0 13 2 C13.1875 5.125 13.1875 5.125 13 8 C12.01 8.495 12.01 8.495 11 9 C10.34 7.35 9.68 5.7 9 4 C6.03 3.67 3.06 3.34 0 3 C0 2.01 0 1.02 0 0 Z " fill="#544748" transform="translate(71,58)"/>
<path d="M0 0 C-6.24309927 2.77471079 -11.19796625 3.37634203 -18 3 C-18 2.01 -18 1.02 -18 0 C-15.56288386 -0.19484938 -13.12562602 -0.38115178 -10.6875 -0.5625 C-9.99720703 -0.61857422 -9.30691406 -0.67464844 -8.59570312 -0.73242188 C-5.37487726 -0.96581505 -3.09672655 -1.03224218 0 0 Z " fill="#6D494A" transform="translate(200,98)"/>
<path d="M0 0 C0.99 0.495 0.99 0.495 2 1 C2 1.66 2 2.32 2 3 C2.99 3.33 3.98 3.66 5 4 C5.46450943 10.50313209 4.32575612 14.4174808 1 20 C-0.44031588 17.11936824 0.32370821 15.14160799 0.875 12 C1.05804688 10.9275 1.24109375 9.855 1.4296875 8.75 C2 6 2 6 3 4 C2.34 4 1.68 4 1 4 C0.67 2.68 0.34 1.36 0 0 Z " fill="#695556" transform="translate(32,65)"/>
<path d="M0 0 C0.33 0 0.66 0 1 0 C2.0712828 6.02596573 2.09945415 11.88909517 2 18 C1.34 18 0.68 18 0 18 C-1.03974406 14.5836981 -1.13374875 11.43573988 -1.125 7.875 C-1.12886719 6.29332031 -1.12886719 6.29332031 -1.1328125 4.6796875 C-1 2 -1 2 0 0 Z " fill="#4A3A3A" transform="translate(114,61)"/>
<path d="M0 0 C1.13732426 3.40401948 0.83989957 5.77456664 0.0625 9.25 C-0.13214844 10.14203125 -0.32679688 11.0340625 -0.52734375 11.953125 C-0.68332031 12.62859375 -0.83929688 13.3040625 -1 14 C-1.66 14 -2.32 14 -3 14 C-3.185625 15.36125 -3.185625 15.36125 -3.375 16.75 C-3.92109677 19.58970323 -4.57263803 21.52590591 -6 24 C-6.66 23.67 -7.32 23.34 -8 23 C-7.67386719 22.17757812 -7.34773437 21.35515625 -7.01171875 20.5078125 C-4.3635427 13.74285538 -1.94386982 7.00109211 0 0 Z " fill="#614244" transform="translate(203,63)"/>
<path d="M0 0 C2.1917718 2.1917718 3.48009386 4.55440996 4.98046875 7.24609375 C6.16966652 9.29187842 7.52258876 11.15323595 9 13 C5.62765029 12.71897086 4.21360261 12.19628348 1.6875 9.875 C-0.38044558 6.35183346 -0.31523361 4.01922848 0 0 Z " fill="#403434" transform="translate(0,80)"/>
<path d="M0 0 C1.74271938 2.297221 3.39911152 4.59866729 5 7 C7.87759068 7.80336113 7.87759068 7.80336113 11.125 8.1875 C12.22070312 8.34605469 13.31640625 8.50460938 14.4453125 8.66796875 C15.28835937 8.77753906 16.13140625 8.88710937 17 9 C16.67 9.66 16.34 10.32 16 11 C14.58376784 11.05447047 13.16691809 11.09300508 11.75 11.125 C10.96109375 11.14820312 10.1721875 11.17140625 9.359375 11.1953125 C6.72680062 10.97738416 5.20961217 10.43339066 3 9 C1.07555275 5.76967782 0 3.78176921 0 0 Z " fill="#4D494A" transform="translate(2,73)"/>
<path d="M0 0 C0.33 0.66 0.66 1.32 1 2 C0.34 2 -0.32 2 -1 2 C-1 2.66 -1 3.32 -1 4 C-0.34 4.33 0.32 4.66 1 5 C-0.670625 5.309375 -0.670625 5.309375 -2.375 5.625 C-6.26599195 6.61628301 -6.26599195 6.61628301 -7.4375 10.125 C-7.623125 11.07375 -7.80875 12.0225 -8 13 C-8.66 11.68 -9.32 10.36 -10 9 C-6.93906776 5.06451569 -4.50884026 2.31883213 0 0 Z " fill="#D84F52" transform="translate(12,50)"/>
<path d="M0 0 C0 0.66 0 1.32 0 2 C-2.1875 3.4375 -2.1875 3.4375 -5 5 C-5.928125 5.556875 -6.85625 6.11375 -7.8125 6.6875 C-8.534375 7.120625 -9.25625 7.55375 -10 8 C-9.67372714 4.98197607 -9.38918764 3.40308719 -7.25 1.1875 C-4.62847443 -0.19608294 -2.92325122 -0.24360427 0 0 Z " fill="#EC4346" transform="translate(31,69)"/>
<path d="M0 0 C0.66 0.33 1.32 0.66 2 1 C2.33 2.32 2.66 3.64 3 5 C-1.62 4.01 -6.24 3.02 -11 2 C-6.94641576 -0.70238949 -4.81689896 -0.22937614 0 0 Z " fill="#523738" transform="translate(23,52)"/>
<path d="M0 0 C0.66 0.66 1.32 1.32 2 2 C4.20250992 2.46006346 4.20250992 2.46006346 6.625 2.625 C7.44226563 2.69976562 8.25953125 2.77453125 9.1015625 2.8515625 C9.72804687 2.90054688 10.35453125 2.94953125 11 3 C11 3.66 11 4.32 11 5 C6.71 5 2.42 5 -2 5 C-1.34 3.35 -0.68 1.7 0 0 Z " fill="#633335" transform="translate(213,94)"/>
<path d="M0 0 C0.33 1.32 0.66 2.64 1 4 C1.33 4.66 1.66 5.32 2 6 C-0.40339772 8.76390737 -1.16263678 9.04065919 -5 10 C-3.35 6.7 -1.7 3.4 0 0 Z " fill="#F1C9CA" transform="translate(95,66)"/>
<path d="M0 0 C0.66 0 1.32 0 2 0 C2.66 1.65 3.32 3.3 4 5 C3.34 5 2.68 5 2 5 C2 5.66 2 6.32 2 7 C1.34 7 0.68 7 0 7 C-0.38133299 5.0085944 -0.71325582 3.00720923 -1 1 C-0.67 0.67 -0.34 0.34 0 0 Z " fill="#937879" transform="translate(18,83)"/>
<path d="M0 0 C0.33 0 0.66 0 1 0 C1.13277344 0.61488281 1.26554688 1.22976562 1.40234375 1.86328125 C1.57894531 2.67152344 1.75554687 3.47976562 1.9375 4.3125 C2.19853516 5.51326172 2.19853516 5.51326172 2.46484375 6.73828125 C2.99886159 9.145401 2.99886159 9.145401 4 12 C3.01 12.33 2.02 12.66 1 13 C-0.10228696 8.59085217 -0.07654536 4.51617599 0 0 Z " fill="#273333" transform="translate(170,81)"/>
<path d="M0 0 C1.74271938 2.297221 3.39911152 4.59866729 5 7 C5.99 7.66 6.98 8.32 8 9 C6.68 9.33 5.36 9.66 4 10 C0 3.375 0 3.375 0 0 Z " fill="#563637" transform="translate(2,73)"/>
<path d="M0 0 C0.99 0 1.98 0 3 0 C3 0.66 3 1.32 3 2 C4.65 2 6.3 2 8 2 C8 2.33 8 2.66 8 3 C4.7 3.66 1.4 4.32 -2 5 C-2 4.34 -2 3.68 -2 3 C-1.34 3 -0.68 3 0 3 C0 2.01 0 1.02 0 0 Z " fill="#E23A3E" transform="translate(13,49)"/>
<path d="M0 0 C1.32 0.33 2.64 0.66 4 1 C4.33 2.65 4.66 4.3 5 6 C4.01 6 3.02 6 2 6 C1.34 4.02 0.68 2.04 0 0 Z " fill="#462D2E" transform="translate(223,52)"/>
</svg>
