<?xml version="1.0" encoding="UTF-8"?>
<!DOCTYPE svg PUBLIC "-//W3C//DTD SVG 1.1//EN" "http://www.w3.org/Graphics/SVG/1.1/DTD/svg11.dtd">
<svg xmlns="http://www.w3.org/2000/svg" version="1.1" width="204px" height="192px" style="shape-rendering:geometricPrecision; text-rendering:geometricPrecision; image-rendering:optimizeQuality; fill-rule:evenodd; clip-rule:evenodd" xmlns:xlink="http://www.w3.org/1999/xlink">
<g><path style="opacity:1" fill="#fdfdfd" d="M -0.5,-0.5 C 67.5,-0.5 135.5,-0.5 203.5,-0.5C 203.5,63.5 203.5,127.5 203.5,191.5C 135.5,191.5 67.5,191.5 -0.5,191.5C -0.5,127.5 -0.5,63.5 -0.5,-0.5 Z"/></g>
<g><path style="opacity:1" fill="#cf1522" d="M 22.5,70.5 C 40.0924,70.5842 47.9257,79.2509 46,96.5C 40.3383,110.39 30.505,114.557 16.5,109C 7.34913,102.845 4.18247,94.3446 7,83.5C 10.2659,76.7209 15.4326,72.3876 22.5,70.5 Z"/></g>
<g><path style="opacity:1" fill="#252424" d="M 141.5,75.5 C 147.969,76.052 147.969,77.052 141.5,78.5C 141.5,77.5 141.5,76.5 141.5,75.5 Z"/></g>
<g><path style="opacity:1" fill="#f9f1f1" d="M 25.5,75.5 C 26.4959,75.4142 27.3292,75.7476 28,76.5C 31.933,82.7019 35.5996,89.0353 39,95.5C 39.4935,97.1341 39.6602,98.8008 39.5,100.5C 30.8333,100.5 22.1667,100.5 13.5,100.5C 13.3398,98.8008 13.5065,97.1341 14,95.5C 18.0933,88.9251 21.9266,82.2584 25.5,75.5 Z"/></g>
<g><path style="opacity:1" fill="#aeadad" d="M 193.5,75.5 C 197.013,76.0282 198.013,77.8615 196.5,81C 191.289,81.5464 190.289,79.713 193.5,75.5 Z"/></g>
<g><path style="opacity:1" fill="#1c1a1b" d="M 56.5,81.5 C 61.5111,81.3341 66.5111,81.5007 71.5,82C 75.2916,84.0527 76.4582,87.2194 75,91.5C 74.6258,92.4162 74.1258,93.2496 73.5,94C 70.4459,94.8214 67.4459,94.6548 64.5,93.5C 66.7812,92.7234 68.9479,91.7234 71,90.5C 71.7562,88.1913 71.2562,86.1913 69.5,84.5C 66.9135,83.52 64.2469,83.1866 61.5,83.5C 61.5,89.1667 61.5,94.8333 61.5,100.5C 59.8333,100.5 58.1667,100.5 56.5,100.5C 56.5,94.1667 56.5,87.8333 56.5,81.5 Z"/></g>
<g><path style="opacity:1" fill="#1a1919" d="M 83.5,81.5 C 85.1439,81.2865 86.6439,81.6198 88,82.5C 90.5971,88.1251 93.0971,93.7918 95.5,99.5C 93.0341,100.881 91.0341,100.381 89.5,98C 84.831,96.9335 80.6644,97.7668 77,100.5C 76.5,100.167 76,99.8333 75.5,99.5C 78.7339,93.7033 81.4006,87.7033 83.5,81.5 Z"/></g>
<g><path style="opacity:1" fill="#191819" d="M 127.5,81.5 C 128.833,81.5 130.167,81.5 131.5,81.5C 133.599,87.7033 136.266,93.7033 139.5,99.5C 137.604,100.466 135.604,100.799 133.5,100.5C 133.5,99.5 133.5,98.5 133.5,97.5C 129.833,97.5 126.167,97.5 122.5,97.5C 122.5,98.5 122.5,99.5 122.5,100.5C 121.127,100.657 119.793,100.49 118.5,100C 121.37,93.7612 124.37,87.5945 127.5,81.5 Z"/></g>
<g><path style="opacity:1" fill="#1a1919" d="M 150.5,100.5 C 153.548,98.8813 156.881,97.8813 160.5,97.5C 161.404,96.791 161.737,95.791 161.5,94.5C 157.699,93.5497 154.199,91.883 151,89.5C 149.808,82.9664 152.641,80.2997 159.5,81.5C 161.5,81.8333 163.5,82.1667 165.5,82.5C 162.553,83.3214 159.553,83.8214 156.5,84C 156.043,84.414 155.709,84.914 155.5,85.5C 158.285,88.3998 161.618,90.5664 165.5,92C 168.621,95.7474 167.954,98.414 163.5,100C 159.179,100.499 154.846,100.666 150.5,100.5 Z"/></g>
<g><path style="opacity:1" fill="#252425" d="M 141.5,81.5 C 143.167,81.5 144.833,81.5 146.5,81.5C 146.5,87.8333 146.5,94.1667 146.5,100.5C 144.833,100.5 143.167,100.5 141.5,100.5C 141.5,94.1667 141.5,87.8333 141.5,81.5 Z"/></g>
<g><path style="opacity:1" fill="#1b191a" d="M 176.5,81.5 C 183.638,80.1042 189.472,82.1042 194,87.5C 195.654,93.6932 193.487,97.8599 187.5,100C 180.692,102.524 174.859,101.024 170,95.5C 168.453,88.9298 170.619,84.2632 176.5,81.5 Z"/></g>
<g><path style="opacity:1" fill="#eeeeee" d="M 178.5,83.5 C 186.656,82.8211 190.156,86.4878 189,94.5C 184.255,99.7434 179.588,99.7434 175,94.5C 173.662,89.9597 174.829,86.293 178.5,83.5 Z"/></g>
<g><path style="opacity:1" fill="#d5d4d4" d="M 127.5,88.5 C 130.083,89.985 131.416,92.3183 131.5,95.5C 129.076,95.8076 126.743,95.4742 124.5,94.5C 125.513,92.4734 126.513,90.4734 127.5,88.5 Z"/></g>
<g><path style="opacity:1" fill="#dcdbdb" d="M 83.5,88.5 C 85.3056,90.0894 86.6389,92.0894 87.5,94.5C 85.1667,95.8333 82.8333,95.8333 80.5,94.5C 81.5133,92.4734 82.5133,90.4734 83.5,88.5 Z"/></g>
<g><path style="opacity:1" fill="#161415" d="M 109.5,84.5 C 107.393,83.5318 105.059,83.1984 102.5,83.5C 102.5,89.1667 102.5,94.8333 102.5,100.5C 101.167,100.5 99.8333,100.5 98.5,100.5C 98.5,94.1667 98.5,87.8333 98.5,81.5C 102.846,81.3343 107.179,81.501 111.5,82C 117.634,85.7027 117.967,89.8693 112.5,94.5C 113.711,96.4219 115.044,98.2552 116.5,100C 114.421,100.808 112.421,100.641 110.5,99.5C 109.167,97.5 107.833,95.5 106.5,93.5C 107.914,92.376 109.414,91.376 111,90.5C 111.941,88.0106 111.441,86.0106 109.5,84.5 Z"/></g>
<g><path style="opacity:1" fill="#aba9aa" d="M 109.5,84.5 C 107.5,84.5 105.5,84.5 103.5,84.5C 103.821,90.0262 103.488,95.3595 102.5,100.5C 102.5,94.8333 102.5,89.1667 102.5,83.5C 105.059,83.1984 107.393,83.5318 109.5,84.5 Z"/></g>
<g><path style="opacity:1" fill="#7f7e7e" d="M 160.5,97.5 C 156.881,97.8813 153.548,98.8813 150.5,100.5C 149.596,99.791 149.263,98.791 149.5,97.5C 153.167,97.5 156.833,97.5 160.5,97.5 Z"/></g>
</svg>
