<?xml version="1.0" encoding="UTF-8"?>
<!DOCTYPE svg PUBLIC "-//W3C//DTD SVG 1.1//EN" "http://www.w3.org/Graphics/SVG/1.1/DTD/svg11.dtd">
<svg xmlns="http://www.w3.org/2000/svg" version="1.1" width="225px" height="225px" style="shape-rendering:geometricPrecision; text-rendering:geometricPrecision; image-rendering:optimizeQuality; fill-rule:evenodd; clip-rule:evenodd" xmlns:xlink="http://www.w3.org/1999/xlink">
<g><path style="opacity:1" fill="#fefffe" d="M -0.5,-0.5 C 74.5,-0.5 149.5,-0.5 224.5,-0.5C 224.5,74.5 224.5,149.5 224.5,224.5C 149.5,224.5 74.5,224.5 -0.5,224.5C -0.5,149.5 -0.5,74.5 -0.5,-0.5 Z"/></g>
<g><path style="opacity:1" fill="#fddf68" d="M 10.5,10.5 C 78.1667,10.5 145.833,10.5 213.5,10.5C 213.5,78.1667 213.5,145.833 213.5,213.5C 145.833,213.5 78.1667,213.5 10.5,213.5C 10.5,145.833 10.5,78.1667 10.5,10.5 Z"/></g>
<g><path style="opacity:1" fill="#fbd400" d="M 11.5,11.5 C 78.5,11.5 145.5,11.5 212.5,11.5C 212.5,78.5 212.5,145.5 212.5,212.5C 145.5,212.5 78.5,212.5 11.5,212.5C 11.5,145.5 11.5,78.5 11.5,11.5 Z"/></g>
<g><path style="opacity:1" fill="#282622" d="M 24.5,67.5 C 32.84,67.3336 41.1733,67.5003 49.5,68C 61.7199,73.3605 64.8866,82.1939 59,94.5C 56.6351,97.8691 53.4685,100.036 49.5,101C 44.8452,101.499 40.1785,101.666 35.5,101.5C 35.5,107.833 35.5,114.167 35.5,120.5C 31.5633,120.793 27.73,120.46 24,119.5C 23.1818,102.093 23.3485,84.7596 24.5,67.5 Z"/></g>
<g><path style="opacity:1" fill="#252422" d="M 83.5,67.5 C 102.006,65.838 111.006,74.338 110.5,93C 110.634,100.724 108.8,107.89 105,114.5C 98.8057,119.841 91.6391,121.674 83.5,120C 76.9028,117.737 72.7361,113.237 71,106.5C 68.2963,95.4344 69.2963,84.7677 74,74.5C 76.7901,71.535 79.9567,69.2016 83.5,67.5 Z"/></g>
<g><path style="opacity:1" fill="#242222" d="M 173.5,67.5 C 187.268,65.6143 195.768,71.2809 199,84.5C 200.08,93.3259 199.413,101.993 197,110.5C 189.711,120.808 180.211,123.308 168.5,118C 163.795,114.774 160.962,110.274 160,104.5C 156.035,91.193 158.869,79.693 168.5,70C 170.491,69.6264 172.158,68.793 173.5,67.5 Z"/></g>
<g><path style="opacity:1" fill="#242322" d="M 133.5,67.5 C 140.578,67.1219 147.244,68.4552 153.5,71.5C 152.833,73.1667 152.167,74.8333 151.5,76.5C 134.044,75.1276 126.877,83.1276 130,100.5C 132.905,110.121 139.239,113.455 149,110.5C 151.646,111.526 153.146,113.526 153.5,116.5C 146.258,120.72 138.592,121.553 130.5,119C 125.269,116.768 121.769,112.935 120,107.5C 118.068,98.4778 118.068,89.4778 120,80.5C 122.442,73.8884 126.942,69.555 133.5,67.5 Z"/></g>
<g><path style="opacity:1" fill="#f9d201" d="M 35.5,76.5 C 39.5138,76.3345 43.5138,76.5012 47.5,77C 50.516,78.5286 51.8494,81.0286 51.5,84.5C 51.5965,86.9259 50.9298,89.0926 49.5,91C 44.964,92.3789 40.2973,92.8789 35.5,92.5C 35.5,87.1667 35.5,81.8333 35.5,76.5 Z"/></g>
<g><path style="opacity:1" fill="#f9d201" d="M 86.5,75.5 C 92.3455,74.6676 96.1788,77.0009 98,82.5C 98.8758,91.2296 98.5425,99.8963 97,108.5C 94.3981,112.212 90.8981,113.378 86.5,112C 84.1853,110.891 82.6853,109.057 82,106.5C 81.3333,98.1667 81.3333,89.8333 82,81.5C 83.332,79.34 84.832,77.34 86.5,75.5 Z"/></g>
<g><path style="opacity:1" fill="#f6cf02" d="M 176.5,75.5 C 182.862,74.5935 186.695,77.2602 188,83.5C 188.856,91.2318 188.523,98.8984 187,106.5C 185.02,111.906 181.186,113.739 175.5,112C 173.106,110.048 171.606,107.548 171,104.5C 170.333,97.5 170.333,90.5 171,83.5C 171.625,79.8907 173.458,77.224 176.5,75.5 Z"/></g>
<g><path style="opacity:1" fill="#3a3122" d="M 103.5,146.5 C 103.685,144.804 104.519,143.471 106,142.5C 106.279,144.412 105.446,145.746 103.5,146.5 Z"/></g>
<g><path style="opacity:1" fill="#352e22" d="M 99.5,149.5 C 98.017,147.906 96.517,146.24 95,144.5C 94.3123,143.668 94.479,143.002 95.5,142.5C 97.6159,144.4 98.9493,146.733 99.5,149.5 Z"/></g>
<g><path style="opacity:1" fill="#282321" d="M 103.5,146.5 C 103.573,148.027 102.906,149.027 101.5,149.5C 101.427,147.973 102.094,146.973 103.5,146.5 Z"/></g>
<g><path style="opacity:1" fill="#2e2a21" d="M 129.5,148.5 C 131.288,147.378 133.288,147.211 135.5,148C 136.252,148.671 136.586,149.504 136.5,150.5C 134.521,148.832 132.188,148.166 129.5,148.5 Z"/></g>
<g><path style="opacity:1" fill="#f3ce03" d="M 71.5,148.5 C 72.4349,151.113 72.6015,153.779 72,156.5C 70.1575,158.834 67.9909,159.168 65.5,157.5C 62.801,151.274 64.801,148.274 71.5,148.5 Z"/></g>
<g><path style="opacity:1" fill="#f3ce03" d="M 129.5,148.5 C 132.188,148.166 134.521,148.832 136.5,150.5C 136.717,153.421 136.051,156.087 134.5,158.5C 132.435,158.483 130.435,158.15 128.5,157.5C 128.368,154.43 128.701,151.43 129.5,148.5 Z"/></g>
<g><path style="opacity:1" fill="#080822" d="M 142.5,148.5 C 141.74,152.081 141.24,155.748 141,159.5C 140.333,155.5 140.333,151.5 141,147.5C 141.383,148.056 141.883,148.389 142.5,148.5 Z"/></g>
<g><path style="opacity:1" fill="#1b1922" d="M 71.5,148.5 C 64.801,148.274 62.801,151.274 65.5,157.5C 64.7784,157.918 64.2784,158.584 64,159.5C 63.3333,153.833 63.3333,148.167 64,142.5C 64.3333,144.5 64.6667,146.5 65,148.5C 67.2735,147.189 69.4402,147.189 71.5,148.5 Z"/></g>
<g><path style="opacity:1" fill="#2b2622" d="M 83.5,151.5 C 83.3118,149.897 83.8118,148.563 85,147.5C 85.3478,149.14 84.8478,150.473 83.5,151.5 Z"/></g>
<g><path style="opacity:1" fill="#352f20" d="M 142.5,148.5 C 146.5,148.5 150.5,148.5 154.5,148.5C 152.278,148.178 150.444,148.845 149,150.5C 148.667,153.5 148.333,156.5 148,159.5C 147.667,156.167 147.333,152.833 147,149.5C 145.644,148.62 144.144,148.286 142.5,148.5 Z"/></g>
<g><path style="opacity:1" fill="#282322" d="M 99.5,149.5 C 100.167,149.5 100.833,149.5 101.5,149.5C 102.242,151.98 103.242,154.313 104.5,156.5C 102.821,155.084 101.154,153.75 99.5,152.5C 99.5,151.5 99.5,150.5 99.5,149.5 Z"/></g>
<g><path style="opacity:1" fill="#1c1a23" d="M 154.5,148.5 C 155.117,148.611 155.617,148.944 156,149.5C 156.667,152.833 156.667,156.167 156,159.5C 155.68,155.786 155.18,152.119 154.5,148.5 Z"/></g>
<g><path style="opacity:1" fill="#262023" d="M 115.5,154.5 C 117.011,152.559 119.011,152.059 121.5,153C 119.482,153.505 117.482,154.005 115.5,154.5 Z"/></g>
<g><path style="opacity:1" fill="#292522" d="M 78.5,154.5 C 76.7726,152.484 75.9392,150.151 76,147.5C 77.5234,149.569 78.3568,151.903 78.5,154.5 Z"/></g>
<g><path style="opacity:1" fill="#332b22" d="M 99.5,152.5 C 99.573,154.027 98.9063,155.027 97.5,155.5C 97.427,153.973 98.0937,152.973 99.5,152.5 Z"/></g>
<g><path style="opacity:1" fill="#161422" d="M 120.5,158.5 C 122.14,155.472 122.974,152.139 123,148.5C 123.498,151.817 123.665,155.15 123.5,158.5C 122.5,158.5 121.5,158.5 120.5,158.5 Z"/></g>
<g><path style="opacity:1" fill="#5a4c20" d="M 129.5,148.5 C 128.701,151.43 128.368,154.43 128.5,157.5C 125.576,154.122 125.91,151.122 129.5,148.5 Z"/></g>
<g><path style="opacity:1" fill="#2d2622" d="M 71.5,148.5 C 72.1174,148.611 72.6174,148.944 73,149.5C 73.6667,152.167 73.6667,154.833 73,157.5C 70.3794,160.14 67.8794,160.14 65.5,157.5C 67.9909,159.168 70.1575,158.834 72,156.5C 72.6015,153.779 72.4349,151.113 71.5,148.5 Z"/></g>
<g><path style="opacity:1" fill="#282223" d="M 97.5,155.5 C 97.3146,157.196 96.4813,158.529 95,159.5C 94.7207,157.588 95.5541,156.254 97.5,155.5 Z"/></g>
<g><path style="opacity:1" fill="#2f2623" d="M 136.5,150.5 C 137.622,152.288 137.789,154.288 137,156.5C 136.583,157.756 135.75,158.423 134.5,158.5C 136.051,156.087 136.717,153.421 136.5,150.5 Z"/></g>
<g><path style="opacity:1" fill="#443a21" d="M 83.5,151.5 C 82.7941,156.075 81.1274,160.241 78.5,164C 77.0563,164.781 75.723,164.614 74.5,163.5C 75.9905,162.756 77.4905,162.09 79,161.5C 79.3336,159.153 79.167,156.819 78.5,154.5C 79.1515,155.091 79.8182,155.757 80.5,156.5C 81.3249,154.64 82.3249,152.974 83.5,151.5 Z"/></g>
<g><path style="opacity:1" fill="#2c2821" d="M 104.5,156.5 C 106.085,157.002 106.585,158.002 106,159.5C 104.961,158.756 104.461,157.756 104.5,156.5 Z"/></g>
<g><path style="opacity:1" fill="#1a1822" d="M 115.5,154.5 C 115.384,157.91 117.05,159.244 120.5,158.5C 119.054,159.613 117.387,159.78 115.5,159C 114.199,157.384 114.199,155.884 115.5,154.5 Z"/></g>
<g><path style="opacity:1" fill="#211c23" d="M 128.5,157.5 C 130.435,158.15 132.435,158.483 134.5,158.5C 133.903,159.139 133.07,159.472 132,159.5C 130.301,159.613 129.134,158.947 128.5,157.5 Z"/></g>
</svg>
