<?xml version="1.0" encoding="UTF-8"?>
<!DOCTYPE svg PUBLIC "-//W3C//DTD SVG 1.1//EN" "http://www.w3.org/Graphics/SVG/1.1/DTD/svg11.dtd">
<svg xmlns="http://www.w3.org/2000/svg" version="1.1" width="225px" height="225px" style="shape-rendering:geometricPrecision; text-rendering:geometricPrecision; image-rendering:optimizeQuality; fill-rule:evenodd; clip-rule:evenodd" xmlns:xlink="http://www.w3.org/1999/xlink">
<g><path style="opacity:1" fill="#fefefe" d="M -0.5,-0.5 C 74.5,-0.5 149.5,-0.5 224.5,-0.5C 224.5,74.5 224.5,149.5 224.5,224.5C 149.5,224.5 74.5,224.5 -0.5,224.5C -0.5,149.5 -0.5,74.5 -0.5,-0.5 Z"/></g>
<g><path style="opacity:1" fill="#f1e4b3" d="M 196.5,101.5 C 195.027,100.928 193.693,100.095 192.5,99C 182.839,98.5002 173.172,98.3335 163.5,98.5C 172.986,97.5062 182.652,97.1729 192.5,97.5C 191.572,90.5746 194.239,88.7413 200.5,92C 201.727,93.5874 201.394,94.9207 199.5,96C 200.428,96.3879 201.095,97.0546 201.5,98C 200.079,99.6229 198.412,100.79 196.5,101.5 Z"/></g>
<g><path style="opacity:1" fill="#f1ab00" d="M 96.5,114.5 C 106.008,115.167 115.675,115.833 125.5,116.5C 114.854,117.499 104.187,117.832 93.5,117.5C 93.5,111.167 93.5,104.833 93.5,98.5C 94.5,98.5 95.5,98.5 96.5,98.5C 96.5,103.833 96.5,109.167 96.5,114.5 Z"/></g>
<g><path style="opacity:1" fill="#edb331" d="M 89.5,100.5 C 90.8333,105.833 90.8333,111.167 89.5,116.5C 88.5,116.833 87.8333,117.5 87.5,118.5C 78.8269,118.666 70.1603,118.5 61.5,118C 60.6266,116.955 59.6266,116.122 58.5,115.5C 57.3516,111.019 57.1849,106.352 58,101.5C 59.1667,100.333 60.3333,99.1667 61.5,98C 70.1858,97.1681 78.8525,97.3348 87.5,98.5C 87.8555,99.5223 88.5222,100.189 89.5,100.5 Z"/></g>
<g><path style="opacity:1" fill="#fefefb" d="M 62.5,102.5 C 70.5,102.5 78.5,102.5 86.5,102.5C 86.5,106.167 86.5,109.833 86.5,113.5C 78.5,113.5 70.5,113.5 62.5,113.5C 62.5,109.833 62.5,106.167 62.5,102.5 Z"/></g>
<g><path style="opacity:1" fill="#ebad1e" d="M 163.5,98.5 C 173.172,98.3335 182.839,98.5002 192.5,99C 193.693,100.095 195.027,100.928 196.5,101.5C 196.838,104.157 196.171,106.49 194.5,108.5C 196.792,111.983 197.125,115.65 195.5,119.5C 194.167,119.5 192.833,119.5 191.5,119.5C 191.5,119.167 191.5,118.833 191.5,118.5C 192.473,116.052 192.806,113.385 192.5,110.5C 184.167,110.5 175.833,110.5 167.5,110.5C 167.5,113.167 167.5,115.833 167.5,118.5C 166.167,118.5 164.833,118.5 163.5,118.5C 163.5,111.833 163.5,105.167 163.5,98.5 Z"/></g>
<g><path style="opacity:1" fill="#f8e3a3" d="M 167.5,102.5 C 175.65,101.507 183.983,101.174 192.5,101.5C 192.5,103.167 192.5,104.833 192.5,106.5C 183.983,106.826 175.65,106.493 167.5,105.5C 175.5,105.5 183.5,105.5 191.5,105.5C 191.5,104.5 191.5,103.5 191.5,102.5C 183.5,102.5 175.5,102.5 167.5,102.5 Z"/></g>
<g><path style="opacity:1" fill="#fdfdf7" d="M 167.5,102.5 C 175.5,102.5 183.5,102.5 191.5,102.5C 191.5,103.5 191.5,104.5 191.5,105.5C 183.5,105.5 175.5,105.5 167.5,105.5C 167.5,104.5 167.5,103.5 167.5,102.5 Z"/></g>
<g><path style="opacity:1" fill="#eeac12" d="M 160.5,101.5 C 160.5,107.167 160.5,112.833 160.5,118.5C 159.5,118.5 158.5,118.5 157.5,118.5C 157.5,115.833 157.5,113.167 157.5,110.5C 149.167,110.5 140.833,110.5 132.5,110.5C 132.5,113.167 132.5,115.833 132.5,118.5C 131.167,118.5 129.833,118.5 128.5,118.5C 128.5,112.833 128.5,107.167 128.5,101.5C 128.953,100.542 129.619,99.7083 130.5,99C 139.5,98.3333 148.5,98.3333 157.5,99C 158.571,99.8518 159.571,100.685 160.5,101.5 Z"/></g>
<g><path style="opacity:1" fill="#f8e4a3" d="M 156.5,102.5 C 157.434,103.568 157.768,104.901 157.5,106.5C 149.167,106.5 140.833,106.5 132.5,106.5C 132.5,104.833 132.5,103.167 132.5,101.5C 140.684,101.174 148.684,101.508 156.5,102.5 Z"/></g>
<g><path style="opacity:1" fill="#fdfdf7" d="M 156.5,102.5 C 156.5,103.5 156.5,104.5 156.5,105.5C 148.833,105.5 141.167,105.5 133.5,105.5C 133.5,104.5 133.5,103.5 133.5,102.5C 141.167,102.5 148.833,102.5 156.5,102.5 Z"/></g>
<g><path style="opacity:1" fill="#f5dc9b" d="M 163.5,98.5 C 163.5,105.167 163.5,111.833 163.5,118.5C 164.833,118.5 166.167,118.5 167.5,118.5C 166.833,119.167 166.167,119.833 165.5,120.5C 163.5,119.167 161.5,119.167 159.5,120.5C 158.833,119.833 158.167,119.167 157.5,118.5C 158.5,118.5 159.5,118.5 160.5,118.5C 160.5,112.833 160.5,107.167 160.5,101.5C 161.327,106.985 161.827,112.652 162,118.5C 162.172,111.654 162.672,104.987 163.5,98.5 Z"/></g>
<g><path style="opacity:1" fill="#fef8d5" d="M 51.5,110.5 C 43.6841,111.492 35.6841,111.826 27.5,111.5C 27.8016,114.059 27.4682,116.393 26.5,118.5C 26.5,115.833 26.5,113.167 26.5,110.5C 34.8333,110.5 43.1667,110.5 51.5,110.5 Z"/></g>
<g><path style="opacity:1" fill="#fefad9" d="M 191.5,118.5 C 191.5,116.167 191.5,113.833 191.5,111.5C 183.833,111.5 176.167,111.5 168.5,111.5C 168.802,114.059 168.468,116.393 167.5,118.5C 167.5,115.833 167.5,113.167 167.5,110.5C 175.833,110.5 184.167,110.5 192.5,110.5C 192.806,113.385 192.473,116.052 191.5,118.5 Z"/></g>
<g><path style="opacity:1" fill="#eeb32d" d="M 51.5,110.5 C 43.1667,110.5 34.8333,110.5 26.5,110.5C 26.5,113.167 26.5,115.833 26.5,118.5C 25.1667,118.5 23.8333,118.5 22.5,118.5C 22.5,111.5 22.5,104.5 22.5,97.5C 32.5222,97.1681 42.5222,97.5015 52.5,98.5C 56.635,102.837 56.3017,106.837 51.5,110.5 Z"/></g>
<g><path style="opacity:1" fill="#fdfae4" d="M 26.5,102.5 C 34.8333,102.5 43.1667,102.5 51.5,102.5C 51.5,103.833 51.5,105.167 51.5,106.5C 43.1667,106.5 34.8333,106.5 26.5,106.5C 26.5,105.167 26.5,103.833 26.5,102.5 Z"/></g>
<g><path style="opacity:1" fill="#faeeec" d="M 191.5,118.5 C 191.5,118.833 191.5,119.167 191.5,119.5C 189.247,121.45 188.914,123.784 190.5,126.5C 188.974,125.895 187.974,124.729 187.5,123C 186.552,122.517 185.552,122.351 184.5,122.5C 185.091,121.849 185.757,121.182 186.5,120.5C 184.167,119.167 181.833,119.167 179.5,120.5C 181.331,124.241 181.997,128.241 181.5,132.5C 180.834,129.311 180.167,125.977 179.5,122.5C 178.914,122.291 178.414,121.957 178,121.5C 177.823,125.356 177.323,129.023 176.5,132.5C 176.826,128.116 176.492,123.783 175.5,119.5C 174.548,121.045 174.215,122.712 174.5,124.5C 173.5,124.5 172.5,124.5 171.5,124.5C 171.923,122.219 171.256,120.552 169.5,119.5C 168.515,123.634 168.182,127.968 168.5,132.5C 167.833,132.5 167.167,132.5 166.5,132.5C 166.5,130.167 166.5,127.833 166.5,125.5C 165.432,124.566 164.099,124.232 162.5,124.5C 163.052,126.331 163.052,127.997 162.5,129.5C 161.52,126.914 161.187,124.247 161.5,121.5C 162.93,121.421 164.264,121.754 165.5,122.5C 166.463,122.03 166.463,121.363 165.5,120.5C 166.167,119.833 166.833,119.167 167.5,118.5C 168.468,116.393 168.802,114.059 168.5,111.5C 176.167,111.5 183.833,111.5 191.5,111.5C 191.5,113.833 191.5,116.167 191.5,118.5 Z"/></g>
<g><path style="opacity:1" fill="#fdf5c5" d="M 62.5,102.5 C 62.5,106.167 62.5,109.833 62.5,113.5C 70.5,113.5 78.5,113.5 86.5,113.5C 78.3501,114.493 70.0168,114.826 61.5,114.5C 61.1832,110.298 61.5166,106.298 62.5,102.5 Z"/></g>
<g><path style="opacity:1" fill="#f1cf78" d="M 97.5,113.5 C 97.5,113.833 97.5,114.167 97.5,114.5C 97.1667,114.5 96.8333,114.5 96.5,114.5C 96.5,109.167 96.5,103.833 96.5,98.5C 95.5,98.5 94.5,98.5 93.5,98.5C 93.5,104.833 93.5,111.167 93.5,117.5C 93.5,117.833 93.5,118.167 93.5,118.5C 92.5093,112.021 92.176,105.354 92.5,98.5C 93.9187,97.5489 95.5853,97.2155 97.5,97.5C 97.5,102.833 97.5,108.167 97.5,113.5 Z"/></g>
<g><path style="opacity:1" fill="#fcecbe" d="M 58.5,115.5 C 59.6266,116.122 60.6266,116.955 61.5,118C 70.1603,118.5 78.8269,118.666 87.5,118.5C 78.3251,119.822 68.9918,119.822 59.5,118.5C 58.8728,117.583 58.5394,116.583 58.5,115.5 Z"/></g>
<g><path style="opacity:1" fill="#fdf5d0" d="M 92.5,98.5 C 92.176,105.354 92.5093,112.021 93.5,118.5C 104.5,118.5 115.5,118.5 126.5,118.5C 126.5,117.167 126.5,115.833 126.5,114.5C 116.833,114.5 107.167,114.5 97.5,114.5C 97.5,114.167 97.5,113.833 97.5,113.5C 107.172,113.666 116.839,113.5 126.5,113C 127.138,109.065 127.804,105.231 128.5,101.5C 128.5,107.167 128.5,112.833 128.5,118.5C 129.833,118.5 131.167,118.5 132.5,118.5C 132.5,115.833 132.5,113.167 132.5,110.5C 140.833,110.5 149.167,110.5 157.5,110.5C 157.5,113.167 157.5,115.833 157.5,118.5C 157.167,118.5 156.833,118.5 156.5,118.5C 156.5,116.167 156.5,113.833 156.5,111.5C 148.833,111.5 141.167,111.5 133.5,111.5C 133.5,114.167 133.5,116.833 133.5,119.5C 130.254,119.135 127.588,120.135 125.5,122.5C 124.707,121.645 125.04,120.811 126.5,120C 114.838,119.5 103.171,119.333 91.5,119.5C 91.7148,117.821 91.0481,116.821 89.5,116.5C 90.8333,111.167 90.8333,105.833 89.5,100.5C 90.7777,100.218 91.7777,99.5511 92.5,98.5 Z"/></g>
<g><path style="opacity:1" fill="#e2b12b" d="M 96.5,114.5 C 96.8333,114.5 97.1667,114.5 97.5,114.5C 107.167,114.5 116.833,114.5 126.5,114.5C 126.5,115.833 126.5,117.167 126.5,118.5C 115.5,118.5 104.5,118.5 93.5,118.5C 93.5,118.167 93.5,117.833 93.5,117.5C 104.187,117.832 114.854,117.499 125.5,116.5C 115.675,115.833 106.008,115.167 96.5,114.5 Z"/></g>
<g><path style="opacity:1" fill="#a13023" d="M 184.5,122.5 C 184.5,125.833 184.5,129.167 184.5,132.5C 183.5,132.5 182.5,132.5 181.5,132.5C 181.997,128.241 181.331,124.241 179.5,120.5C 181.833,119.167 184.167,119.167 186.5,120.5C 185.757,121.182 185.091,121.849 184.5,122.5 Z"/></g>
<g><path style="opacity:1" fill="#bf706f" d="M 156.5,118.5 C 156.5,118.833 156.5,119.167 156.5,119.5C 154.57,123.373 153.903,127.706 154.5,132.5C 153.514,128.03 153.181,123.363 153.5,118.5C 154.5,118.5 155.5,118.5 156.5,118.5 Z"/></g>
<g><path style="opacity:1" fill="#a44e4c" d="M 169.5,119.5 C 169.334,123.514 169.501,127.514 170,131.5C 170.494,129.866 170.66,128.199 170.5,126.5C 171.833,126.5 173.167,126.5 174.5,126.5C 174.5,128.5 174.5,130.5 174.5,132.5C 173.837,130.958 173.17,129.291 172.5,127.5C 171.548,129.045 171.215,130.712 171.5,132.5C 170.5,132.5 169.5,132.5 168.5,132.5C 168.182,127.968 168.515,123.634 169.5,119.5 Z"/></g>
<g><path style="opacity:1" fill="#9a160f" d="M 169.5,119.5 C 171.256,120.552 171.923,122.219 171.5,124.5C 172.5,124.5 173.5,124.5 174.5,124.5C 174.215,122.712 174.548,121.045 175.5,119.5C 176.492,123.783 176.826,128.116 176.5,132.5C 175.833,132.5 175.167,132.5 174.5,132.5C 174.5,130.5 174.5,128.5 174.5,126.5C 173.167,126.5 171.833,126.5 170.5,126.5C 170.66,128.199 170.494,129.866 170,131.5C 169.501,127.514 169.334,123.514 169.5,119.5 Z"/></g>
<g><path style="opacity:1" fill="#deaeac" d="M 147.5,119.5 C 145.57,123.373 144.903,127.706 145.5,132.5C 144.514,128.03 144.181,123.363 144.5,118.5C 145.791,118.263 146.791,118.596 147.5,119.5 Z"/></g>
<g><path style="opacity:1" fill="#960c08" d="M 147.5,119.5 C 147.5,123.167 147.5,126.833 147.5,130.5C 148.978,130.238 150.311,130.571 151.5,131.5C 149.604,132.466 147.604,132.799 145.5,132.5C 144.903,127.706 145.57,123.373 147.5,119.5 Z"/></g>
<g><path style="opacity:1" fill="#981510" d="M 165.5,120.5 C 166.463,121.363 166.463,122.03 165.5,122.5C 164.264,121.754 162.93,121.421 161.5,121.5C 160.523,124.287 160.19,127.287 160.5,130.5C 161.833,130.5 163.167,130.5 164.5,130.5C 164.714,128.856 164.38,127.356 163.5,126C 164.448,125.517 165.448,125.351 166.5,125.5C 166.5,127.833 166.5,130.167 166.5,132.5C 163.635,132.945 161.135,132.278 159,130.5C 158.253,127.076 158.42,123.743 159.5,120.5C 161.5,119.167 163.5,119.167 165.5,120.5 Z"/></g>
<g><path style="opacity:1" fill="#992b23" d="M 156.5,119.5 C 157.097,124.294 156.43,128.627 154.5,132.5C 153.903,127.706 154.57,123.373 156.5,119.5 Z"/></g>
<g><path style="opacity:1" fill="#9b221b" d="M 191.5,119.5 C 192.833,119.5 194.167,119.5 195.5,119.5C 194.817,121.176 193.483,121.843 191.5,121.5C 191.5,122.5 191.5,123.5 191.5,124.5C 196.668,125.339 197.668,127.839 194.5,132C 193.056,132.781 191.723,132.614 190.5,131.5C 191.689,130.571 193.022,130.238 194.5,130.5C 194.5,129.5 194.5,128.5 194.5,127.5C 193.041,127.567 191.708,127.234 190.5,126.5C 188.914,123.784 189.247,121.45 191.5,119.5 Z"/></g>
<g><path style="opacity:1" fill="#c17570" d="M 161.5,121.5 C 161.187,124.247 161.52,126.914 162.5,129.5C 163.052,127.997 163.052,126.331 162.5,124.5C 164.099,124.232 165.432,124.566 166.5,125.5C 165.448,125.351 164.448,125.517 163.5,126C 164.38,127.356 164.714,128.856 164.5,130.5C 163.167,130.5 161.833,130.5 160.5,130.5C 160.19,127.287 160.523,124.287 161.5,121.5 Z"/></g>
</svg>
