<?xml version="1.0" encoding="UTF-8"?>
<!DOCTYPE svg PUBLIC "-//W3C//DTD SVG 1.1//EN" "http://www.w3.org/Graphics/SVG/1.1/DTD/svg11.dtd">
<svg xmlns="http://www.w3.org/2000/svg" version="1.1" width="183px" height="148px" style="shape-rendering:geometricPrecision; text-rendering:geometricPrecision; image-rendering:optimizeQuality; fill-rule:evenodd; clip-rule:evenodd" xmlns:xlink="http://www.w3.org/1999/xlink">
<g><path style="opacity:1" fill="#fdfdfc" d="M -0.5,-0.5 C 60.5,-0.5 121.5,-0.5 182.5,-0.5C 182.5,48.8333 182.5,98.1667 182.5,147.5C 121.5,147.5 60.5,147.5 -0.5,147.5C -0.5,98.1667 -0.5,48.8333 -0.5,-0.5 Z"/></g>
<g><path style="opacity:1" fill="#caa45c" d="M 28.5,32.5 C 35.858,32.0384 42.858,33.3717 49.5,36.5C 56.552,44.6007 55.8854,52.1007 47.5,59C 42.8101,60.7848 38.3101,62.9515 34,65.5C 35.1315,60.9738 36.2982,56.3071 37.5,51.5C 36.6684,44.5037 32.6684,40.6704 25.5,40C 22.1667,39.6667 18.8333,39.3333 15.5,39C 19.7355,36.5391 24.0689,34.3725 28.5,32.5 Z"/></g>
<g><path style="opacity:1" fill="#151515" d="M 10.5,48.5 C 15.1785,48.3342 19.8452,48.5008 24.5,49C 27.6207,49.7261 30.2873,51.2261 32.5,53.5C 23.988,57.6922 19.6546,64.5255 19.5,74C 20.7547,86.1754 25.7547,96.5087 34.5,105C 18.2012,99.0251 7.70118,87.5251 3,70.5C 1.81481,61.8885 4.31481,54.5552 10.5,48.5 Z"/></g>
<g><path style="opacity:1" fill="#8b8b8b" d="M 108.5,48.5 C 109.675,48.281 110.675,48.6143 111.5,49.5C 111.12,51.0207 110.954,52.6874 111,54.5C 109.933,53.0569 108.766,51.7236 107.5,50.5C 107.863,49.8165 108.196,49.1499 108.5,48.5 Z"/></g>
<g><path style="opacity:1" fill="#717171" d="M 58.5,48.5 C 62.8383,48.6219 63.1716,48.9553 59.5,49.5C 59.6602,51.1992 59.4935,52.8659 59,54.5C 57.3115,52.6804 57.1448,50.6804 58.5,48.5 Z"/></g>
<g><path style="opacity:1" fill="#8b8b8b" d="M 70.5,48.5 C 72.0358,50.0251 73.0358,52.0251 73.5,54.5C 74.3957,53.4937 75.0623,53.4937 75.5,54.5C 73.9547,55.4519 72.288,55.7852 70.5,55.5C 70.5,53.1667 70.5,50.8333 70.5,48.5 Z"/></g>
<g><path style="opacity:1" fill="#9f9f9f" d="M 89.5,50.5 C 89.5,51.5 89.5,52.5 89.5,53.5C 87.5441,55.1484 85.2108,55.8151 82.5,55.5C 82.5,53.1667 82.5,50.8333 82.5,48.5C 85.2108,48.1849 87.5441,48.8516 89.5,50.5 Z"/></g>
<g><path style="opacity:1" fill="#696969" d="M 102.5,48.5 C 103.873,48.3433 105.207,48.51 106.5,49C 104.519,49.6054 104.185,50.6054 105.5,52C 104.953,52.9246 104.287,53.7579 103.5,54.5C 102.534,52.604 102.201,50.604 102.5,48.5 Z"/></g>
<g><path style="opacity:1" fill="#4d4d4d" d="M 114.5,48.5 C 117.128,49.6248 117.961,51.6248 117,54.5C 116.345,52.3716 115.511,50.3716 114.5,48.5 Z"/></g>
<g><path style="opacity:1" fill="#5b5b5b" d="M 132.5,54.5 C 132.34,52.8008 132.506,51.1341 133,49.5C 135.065,51.451 134.898,53.1177 132.5,54.5 Z"/></g>
<g><path style="opacity:1" fill="#393939" d="M 135.5,48.5 C 137.982,49.8043 139.149,51.8043 139,54.5C 137.558,52.6089 136.391,50.6089 135.5,48.5 Z"/></g>
<g><path style="opacity:1" fill="#989898" d="M 153.5,49.5 C 154.62,56.0173 155.454,56.0173 156,49.5C 156.21,51.0581 156.71,52.3915 157.5,53.5C 158.15,53.8039 158.817,54.1373 159.5,54.5C 160.466,52.604 160.799,50.604 160.5,48.5C 162.415,48.2155 164.081,48.5489 165.5,49.5C 164.508,49.3284 163.842,49.6618 163.5,50.5C 162.549,51.9187 162.216,53.5853 162.5,55.5C 159.346,54.9054 156.346,54.9054 153.5,55.5C 153.367,50.7955 152.034,50.7955 149.5,55.5C 148.526,53.2573 148.192,50.924 148.5,48.5C 150.292,48.366 151.958,48.6993 153.5,49.5 Z"/></g>
<g><path style="opacity:1" fill="#626262" d="M 157.5,53.5 C 156.71,52.3915 156.21,51.0581 156,49.5C 155.454,56.0173 154.62,56.0173 153.5,49.5C 157.735,47.7342 159.068,49.0675 157.5,53.5 Z"/></g>
<g><path style="opacity:1" fill="#333333" d="M 163.5,50.5 C 163.842,49.6618 164.508,49.3284 165.5,49.5C 166.8,50.601 167.3,51.9343 167,53.5C 165.961,52.2899 164.794,51.2899 163.5,50.5 Z"/></g>
<g><path style="opacity:1" fill="#808080" d="M 171.5,54.5 C 170.351,54.2089 169.684,53.3756 169.5,52C 169.767,48.8358 171.433,47.8358 174.5,49C 175.696,49.6543 175.696,50.1543 174.5,50.5C 173.833,50.1667 173.167,49.8333 172.5,49.5C 171.548,51.0453 171.215,52.712 171.5,54.5 Z"/></g>
<g><path style="opacity:1" fill="#666666" d="M 95.5,50.5 C 95.5,51.5 95.5,52.5 95.5,53.5C 93.3591,56.0186 91.3591,56.0186 89.5,53.5C 89.5,52.5 89.5,51.5 89.5,50.5C 91.3591,47.9814 93.3591,47.9814 95.5,50.5 Z"/></g>
<g><path style="opacity:1" fill="#f7f7f7" d="M 91.5,49.5 C 93.898,50.8823 94.0647,52.549 92,54.5C 90.2116,52.9769 90.0449,51.3102 91.5,49.5 Z"/></g>
<g><path style="opacity:1" fill="#6b6b6b" d="M 65.5,54.5 C 63.324,53.2867 62.9907,51.62 64.5,49.5C 69.0845,47.9715 70.5845,49.6382 69,54.5C 67.7083,55.7911 66.5417,55.7911 65.5,54.5 Z"/></g>
<g><path style="opacity:1" fill="#f9f9f9" d="M 65.5,54.5 C 65.2148,52.712 65.5481,51.0453 66.5,49.5C 66.8333,50.3333 67.1667,51.1667 67.5,52C 67.3158,53.3756 66.6491,54.2089 65.5,54.5 Z"/></g>
<g><path style="opacity:1" fill="#595959" d="M 77.5,48.5 C 78.9778,48.238 80.3112,48.5713 81.5,49.5C 80.4699,49.5545 79.3033,49.8878 78,50.5C 77.9152,52.0846 77.7486,53.4179 77.5,54.5C 76.3058,52.4844 76.3058,50.4844 77.5,48.5 Z"/></g>
<g><path style="opacity:1" fill="#505050" d="M 132.5,54.5 C 129.006,55.8348 127.84,54.5015 129,50.5C 129.057,52.9102 130.224,54.2435 132.5,54.5 Z"/></g>
<g><path style="opacity:1" fill="#b3b3b3" d="M 95.5,53.5 C 95.5,52.5 95.5,51.5 95.5,50.5C 95.4701,49.5028 95.9701,48.8361 97,48.5C 98.221,49.2718 99.221,50.2718 100,51.5C 100.799,47.5761 101.299,47.5761 101.5,51.5C 101.279,54.9431 100.279,55.2764 98.5,52.5C 97.8333,53.5 97.1667,54.5 96.5,55.5C 95.7025,55.0431 95.3691,54.3764 95.5,53.5 Z"/></g>
<g><path style="opacity:1" fill="#8c8c8c" d="M 122.5,48.5 C 124.665,48.1159 126.332,48.7826 127.5,50.5C 126.855,51.7321 126.689,53.0654 127,54.5C 125.644,55.3802 124.144,55.7135 122.5,55.5C 122.5,53.1667 122.5,50.8333 122.5,48.5 Z"/></g>
<g><path style="opacity:1" fill="#636363" d="M 143.5,49.5 C 146.238,50.6633 147.238,52.4967 146.5,55C 145.365,55.7494 144.365,55.5827 143.5,54.5C 144.167,54.1667 144.833,53.8333 145.5,53.5C 144.37,52.3777 143.703,51.0443 143.5,49.5 Z"/></g>
<g><path style="opacity:1" fill="#747474" d="M 171.5,54.5 C 172.735,54.2786 173.735,53.6119 174.5,52.5C 175.7,54.107 175.2,55.107 173,55.5C 172.235,55.4301 171.735,55.0967 171.5,54.5 Z"/></g>
<g><path style="opacity:1" fill="#caa35b" d="M 132.5,60.5 C 134.527,60.3379 136.527,60.5045 138.5,61C 141.399,64.2266 140.732,66.56 136.5,68C 134.167,68.6667 131.833,68.6667 129.5,68C 128.919,67.1074 128.585,66.1074 128.5,65C 129.167,62.8495 130.5,61.3495 132.5,60.5 Z"/></g>
<g><path style="opacity:1" fill="#caa560" d="M 130.5,70.5 C 125.025,71.4889 119.358,71.8222 113.5,71.5C 113.924,68.646 114.924,65.9793 116.5,63.5C 111.509,62.9941 106.509,63.4941 101.5,65C 98.5,65.6667 95.5,65.6667 92.5,65C 94.5563,63.4806 96.8896,62.6472 99.5,62.5C 108.203,61.7195 116.87,60.7195 125.5,59.5C 125.657,60.8734 125.49,62.2068 125,63.5C 122.692,64.6411 120.859,66.3078 119.5,68.5C 123.105,69.5386 126.772,70.2053 130.5,70.5 Z"/></g>
<g><path style="opacity:1" fill="#d5be8e" d="M 130.5,70.5 C 134.555,70.1758 138.555,70.5091 142.5,71.5C 132.675,72.8225 123.008,72.8225 113.5,71.5C 119.358,71.8222 125.025,71.4889 130.5,70.5 Z"/></g>
<g><path style="opacity:1" fill="#5b5b5b" d="M 127.5,77.5 C 128.492,85.3159 128.826,93.3159 128.5,101.5C 127.5,101.5 126.5,101.5 125.5,101.5C 125.5,101.167 125.5,100.833 125.5,100.5C 127.465,93.2395 128.132,85.5729 127.5,77.5 Z"/></g>
<g><path style="opacity:1" fill="#6a6a6a" d="M 158.5,77.5 C 158.5,85.1667 158.5,92.8333 158.5,100.5C 159.5,100.5 160.5,100.5 161.5,100.5C 160.432,101.434 159.099,101.768 157.5,101.5C 157.174,93.3159 157.508,85.3159 158.5,77.5 Z"/></g>
<g><path style="opacity:1" fill="#212121" d="M 158.5,77.5 C 162.182,77.3347 165.848,77.5014 169.5,78C 174.223,79.0427 176.056,81.876 175,86.5C 173.842,88.4909 172.342,90.1576 170.5,91.5C 171.913,94.6612 173.58,97.6612 175.5,100.5C 174.311,101.429 172.978,101.762 171.5,101.5C 170.372,98.5617 169.205,95.5617 168,92.5C 165.959,91.5769 163.792,91.2436 161.5,91.5C 161.5,94.5 161.5,97.5 161.5,100.5C 160.5,100.5 159.5,100.5 158.5,100.5C 158.5,92.8333 158.5,85.1667 158.5,77.5 Z"/></g>
<g><path style="opacity:1" fill="#141414" d="M 43.5,77.5 C 47.8461,77.3343 52.1794,77.501 56.5,78C 60.2916,80.0527 61.4582,83.2194 60,87.5C 59.5,88 59,88.5 58.5,89C 54.6372,90.3537 50.6372,90.8537 46.5,90.5C 46.5,93.8333 46.5,97.1667 46.5,100.5C 45.5,100.5 44.5,100.5 43.5,100.5C 43.5,92.8333 43.5,85.1667 43.5,77.5 Z"/></g>
<g><path style="opacity:1" fill="#ececec" d="M 46.5,78.5 C 49.941,78.3011 53.2744,78.8011 56.5,80C 57.8333,82.6667 57.8333,85.3333 56.5,88C 53.2432,89.0429 49.9099,89.5429 46.5,89.5C 46.5,85.8333 46.5,82.1667 46.5,78.5 Z"/></g>
<g><path style="opacity:1" fill="#6d6d6d" d="M 64.5,77.5 C 64.1692,85.1955 64.5025,92.8622 65.5,100.5C 66.4973,93.1968 66.8306,85.8635 66.5,78.5C 69.3854,78.8064 72.0521,78.4731 74.5,77.5C 75.4916,77.3284 76.1583,77.6618 76.5,78.5C 75.8333,78.5 75.5,78.8333 75.5,79.5C 72.8333,79.5 70.1667,79.5 67.5,79.5C 67.5,82.8333 67.5,86.1667 67.5,89.5C 68.8333,89.5 70.1667,89.5 71.5,89.5C 71.8333,90.1667 72.1667,90.8333 72.5,91.5C 70.8333,91.5 69.1667,91.5 67.5,91.5C 67.5,94.8333 67.5,98.1667 67.5,101.5C 66.1667,101.5 64.8333,101.5 63.5,101.5C 63.1743,93.3159 63.5076,85.3159 64.5,77.5 Z"/></g>
<g><path style="opacity:1" fill="#070707" d="M 64.5,77.5 C 67.8333,77.5 71.1667,77.5 74.5,77.5C 72.0521,78.4731 69.3854,78.8064 66.5,78.5C 66.8306,85.8635 66.4973,93.1968 65.5,100.5C 64.5025,92.8622 64.1692,85.1955 64.5,77.5 Z"/></g>
<g><path style="opacity:1" fill="#f5f5f5" d="M 75.5,79.5 C 80.2561,85.1135 78.9227,88.4469 71.5,89.5C 70.1667,89.5 68.8333,89.5 67.5,89.5C 67.5,86.1667 67.5,82.8333 67.5,79.5C 70.1667,79.5 72.8333,79.5 75.5,79.5 Z"/></g>
<g><path style="opacity:1" fill="#131313" d="M 100.5,78.5 C 96.5,78.5 92.5,78.5 88.5,78.5C 88.5,85.8333 88.5,93.1667 88.5,100.5C 87.5,100.5 86.5,100.5 85.5,100.5C 85.5,92.8333 85.5,85.1667 85.5,77.5C 90.6946,77.1795 95.6946,77.5128 100.5,78.5 Z"/></g>
<g><path style="opacity:1" fill="#0f0f0f" d="M 155.5,78.5 C 151.5,78.5 147.5,78.5 143.5,78.5C 143.5,85.8333 143.5,93.1667 143.5,100.5C 142.5,100.5 141.5,100.5 140.5,100.5C 140.5,92.8333 140.5,85.1667 140.5,77.5C 145.695,77.1795 150.695,77.5128 155.5,78.5 Z"/></g>
<g><path style="opacity:1" fill="#f2f2f2" d="M 161.5,79.5 C 164.518,79.3354 167.518,79.502 170.5,80C 173.387,83.3446 173.054,86.3446 169.5,89C 166.854,89.4974 164.187,89.6641 161.5,89.5C 161.5,86.1667 161.5,82.8333 161.5,79.5 Z"/></g>
<g><path style="opacity:1" fill="#1b1b1b" d="M 75.5,79.5 C 75.5,78.8333 75.8333,78.5 76.5,78.5C 79.5552,79.2465 81.2219,81.2465 81.5,84.5C 80.5703,87.3593 78.9036,89.6926 76.5,91.5C 78.4203,94.3388 80.0869,97.3388 81.5,100.5C 80.1667,101.833 78.8333,101.833 77.5,100.5C 76.58,96.9849 74.9134,93.9849 72.5,91.5C 72.1667,90.8333 71.8333,90.1667 71.5,89.5C 78.9227,88.4469 80.2561,85.1135 75.5,79.5 Z"/></g>
<g><path style="opacity:1" fill="#9b9b9b" d="M 103.5,77.5 C 103.334,85.1739 103.5,92.8406 104,100.5C 104.333,94.5 104.667,88.5 105,82.5C 105.717,83.0442 106.217,83.7109 106.5,84.5C 105.511,89.9753 105.178,95.642 105.5,101.5C 104.5,101.5 103.5,101.5 102.5,101.5C 102.174,93.3159 102.508,85.3159 103.5,77.5 Z"/></g>
<g><path style="opacity:1" fill="#a5a5a5" d="M 125.5,100.5 C 125.5,100.833 125.5,101.167 125.5,101.5C 124.833,96.1667 124.167,90.8333 123.5,85.5C 123.461,84.2438 123.961,83.2438 125,82.5C 125.499,88.4908 125.666,94.4908 125.5,100.5 Z"/></g>
<g><path style="opacity:1" fill="#818181" d="M 155.5,78.5 C 152.038,79.4816 148.371,79.815 144.5,79.5C 144.5,82.1667 144.5,84.8333 144.5,87.5C 157.833,88.1667 157.833,88.8333 144.5,89.5C 144.5,92.8333 144.5,96.1667 144.5,99.5C 148.226,99.1774 151.893,99.5108 155.5,100.5C 150.348,101.814 145.348,101.814 140.5,100.5C 141.5,100.5 142.5,100.5 143.5,100.5C 143.5,93.1667 143.5,85.8333 143.5,78.5C 147.5,78.5 151.5,78.5 155.5,78.5 Z"/></g>
<g><path style="opacity:1" fill="#7a7a7a" d="M 133.5,77.5 C 134.167,108.167 134.833,108.167 135.5,77.5C 136.492,85.3159 136.826,93.3159 136.5,101.5C 135.167,101.5 133.833,101.5 132.5,101.5C 132.174,93.3159 132.508,85.3159 133.5,77.5 Z"/></g>
<g><path style="opacity:1" fill="#010101" d="M 133.5,77.5 C 134.167,77.5 134.833,77.5 135.5,77.5C 134.833,108.167 134.167,108.167 133.5,77.5 Z"/></g>
<g><path style="opacity:1" fill="#161616" d="M 103.5,77.5 C 104.822,77.33 105.989,77.6634 107,78.5C 110,84.5 113,90.5 116,96.5C 119.09,90.6517 121.923,84.6517 124.5,78.5C 125.325,77.6143 126.325,77.281 127.5,77.5C 128.132,85.5729 127.465,93.2395 125.5,100.5C 125.666,94.4908 125.499,88.4908 125,82.5C 123.961,83.2438 123.461,84.2438 123.5,85.5C 120.864,90.7726 118.197,96.1059 115.5,101.5C 112.251,96.004 109.251,90.3373 106.5,84.5C 106.217,83.7109 105.717,83.0442 105,82.5C 104.667,88.5 104.333,94.5 104,100.5C 103.5,92.8406 103.334,85.1739 103.5,77.5 Z"/></g>
<g><path style="opacity:1" fill="#7b7b7b" d="M 100.5,78.5 C 97.0381,79.4816 93.3714,79.815 89.5,79.5C 89.5,82.1667 89.5,84.8333 89.5,87.5C 102.833,88.1667 102.833,88.8333 89.5,89.5C 89.5,92.8333 89.5,96.1667 89.5,99.5C 93.226,99.1774 96.8927,99.5108 100.5,100.5C 95.3477,101.814 90.3477,101.814 85.5,100.5C 86.5,100.5 87.5,100.5 88.5,100.5C 88.5,93.1667 88.5,85.8333 88.5,78.5C 92.5,78.5 96.5,78.5 100.5,78.5 Z"/></g>
<g><path style="opacity:1" fill="#434343" d="M 99.5,105.5 C 100.693,105.97 101.36,106.97 101.5,108.5C 101.333,109.5 101.167,110.5 101,111.5C 100.495,109.482 99.9954,107.482 99.5,105.5 Z"/></g>
<g><path style="opacity:1" fill="#707070" d="M 95.5,105.5 C 98.2436,106.072 99.0769,107.738 98,110.5C 97.0255,108.122 96.3589,108.456 96,111.5C 95.5045,109.527 95.3379,107.527 95.5,105.5 Z"/></g>
<g><path style="opacity:1" fill="#777777" d="M 112.5,105.5 C 113.458,105.953 114.292,106.619 115,107.5C 115.308,106.692 115.808,106.025 116.5,105.5C 117.641,107.421 117.808,109.421 117,111.5C 116.717,108.258 115.883,107.924 114.5,110.5C 113.438,108.978 112.771,107.312 112.5,105.5 Z"/></g>
<g><path style="opacity:1" fill="#868686" d="M 126.5,105.5 C 127.693,105.97 128.36,106.97 128.5,108.5C 128.167,109.5 127.833,110.5 127.5,111.5C 126.534,109.604 126.201,107.604 126.5,105.5 Z"/></g>
<g><path style="opacity:1" fill="#3e3e3e" d="M 80.5,105.5 C 81.5,105.5 82.5,105.5 83.5,105.5C 81.9402,105.855 81.1068,107.855 81,111.5C 80.5045,109.527 80.3379,107.527 80.5,105.5 Z"/></g>
<g><path style="opacity:1" fill="#727272" d="M 129.5,105.5 C 132.095,106.249 133.262,107.916 133,110.5C 131.221,107.724 130.221,108.057 130,111.5C 129.505,109.527 129.338,107.527 129.5,105.5 Z"/></g>
<g><path style="opacity:1" fill="#6d6d6d" d="M 84.5,105.5 C 85.7498,105.577 86.5831,106.244 87,107.5C 87.3333,106.833 87.6667,106.167 88,105.5C 89.5796,111.938 90.413,111.938 90.5,105.5C 91.8734,105.343 93.2068,105.51 94.5,106C 91.8333,107.667 91.8333,109.333 94.5,111C 91.6529,111.944 89.1529,111.444 87,109.5C 86.6924,110.308 86.1924,110.975 85.5,111.5C 84.5344,109.604 84.2011,107.604 84.5,105.5 Z"/></g>
<g><path style="opacity:1" fill="#6f6f6f" d="M 135.5,105.5 C 136.793,106.842 137.626,108.509 138,110.5C 138.654,109.304 139.154,109.304 139.5,110.5C 138.311,111.429 136.978,111.762 135.5,111.5C 135.5,109.5 135.5,107.5 135.5,105.5 Z"/></g>
</svg>
