<?xml version="1.0" encoding="UTF-8"?>
<!DOCTYPE svg PUBLIC "-//W3C//DTD SVG 1.1//EN" "http://www.w3.org/Graphics/SVG/1.1/DTD/svg11.dtd">
<svg xmlns="http://www.w3.org/2000/svg" version="1.1" width="148px" height="148px" style="shape-rendering:geometricPrecision; text-rendering:geometricPrecision; image-rendering:optimizeQuality; fill-rule:evenodd; clip-rule:evenodd" xmlns:xlink="http://www.w3.org/1999/xlink">
<g><path style="opacity:1" fill="#fdfdfd" d="M -0.5,-0.5 C 48.8333,-0.5 98.1667,-0.5 147.5,-0.5C 147.5,22.1667 147.5,44.8333 147.5,67.5C 147.167,67.5 146.833,67.5 146.5,67.5C 145.283,45.4459 134.616,38.9459 114.5,48C 107.904,52.5939 102.738,58.4273 99,65.5C 97.1032,45.9615 86.9366,39.7948 68.5,47C 61.9325,51.7329 56.5992,57.5662 52.5,64.5C 51.0656,48.2222 42.3989,41.7222 26.5,45C 9.08859,53.3171 0.421924,67.1504 0.5,86.5C 0.166667,86.5 -0.166667,86.5 -0.5,86.5C -0.5,57.5 -0.5,28.5 -0.5,-0.5 Z"/></g>
<g><path style="opacity:1" fill="#0d0d0d" d="M 146.5,67.5 C 143.526,84.959 133.86,96.7923 117.5,103C 102.553,104.561 94.8861,97.7275 94.5,82.5C 90.0239,90.1429 84.0239,96.3095 76.5,101C 58.8597,107.425 49.0264,101.259 47,82.5C 41.1816,94.9012 31.515,101.901 18,103.5C 7.78506,102.453 1.95173,96.7864 0.5,86.5C 0.421924,67.1504 9.08859,53.3171 26.5,45C 42.3989,41.7222 51.0656,48.2222 52.5,64.5C 56.5992,57.5662 61.9325,51.7329 68.5,47C 86.9366,39.7948 97.1032,45.9615 99,65.5C 102.738,58.4273 107.904,52.5939 114.5,48C 134.616,38.9459 145.283,45.4459 146.5,67.5 Z"/></g>
<g><path style="opacity:1" fill="#f4f4f4" d="M 29.5,48.5 C 40.5591,47.7225 46.5591,52.8892 47.5,64C 47.0654,71.9144 44.5654,79.0811 40,85.5C 37.4266,88.0048 35.2599,87.5048 33.5,84C 34,83.5 34.5,83 35,82.5C 35.6667,76.8333 35.6667,71.1667 35,65.5C 29.6337,59.2725 23.967,58.9392 18,64.5C 17.3333,70.5 17.3333,76.5 18,82.5C 20.3951,87.6167 24.2284,89.2834 29.5,87.5C 34.1583,89.5976 34.4916,92.0976 30.5,95C 25.2233,98.1616 19.5566,99.1616 13.5,98C 10.3333,96.1667 7.83333,93.6667 6,90.5C 3.90439,70.8006 11.7377,56.8006 29.5,48.5 Z"/></g>
<g><path style="opacity:1" fill="#f6f6f6" d="M 76.5,48.5 C 88.2438,47.3719 94.2438,52.7052 94.5,64.5C 92.8934,79.8947 85.2268,91.0614 71.5,98C 62.1574,100.747 55.9907,97.58 53,88.5C 51.859,69.7686 59.6923,56.4353 76.5,48.5 Z"/></g>
<g><path style="opacity:1" fill="#f7f7f7" d="M 123.5,48.5 C 138.552,48.2132 144.386,55.5465 141,70.5C 138.097,83.4967 130.597,92.6634 118.5,98C 109.157,100.747 102.991,97.58 100,88.5C 98.8715,69.8164 106.705,56.483 123.5,48.5 Z"/></g>
<g><path style="opacity:1" fill="#0a0a0a" d="M 82.5,68.5 C 80.5,68.5 78.5,68.5 76.5,68.5C 76.7373,67.209 76.404,66.209 75.5,65.5C 74.1155,64.1991 72.6155,64.1991 71,65.5C 70.3333,71.1667 70.3333,76.8333 71,82.5C 74.4659,84.35 76.2993,83.35 76.5,79.5C 81.6876,78.6219 83.1876,80.2885 81,84.5C 76,89.8333 71,89.8333 66,84.5C 64,77.5 64,70.5 66,63.5C 70.3438,59.8718 75.0105,59.5385 80,62.5C 81.5588,64.2166 82.3921,66.2166 82.5,68.5 Z"/></g>
<g><path style="opacity:1" fill="#0c0c0c" d="M 112.5,62.5 C 114.364,61.2072 116.364,61.2072 118.5,62.5C 119.843,64.8391 121.176,67.1724 122.5,69.5C 123.702,66.9296 125.035,64.4296 126.5,62C 128.259,61.2025 129.926,61.3691 131.5,62.5C 129.562,66.4923 127.729,70.4923 126,74.5C 125.501,78.8206 125.334,83.1539 125.5,87.5C 123.5,87.5 121.5,87.5 119.5,87.5C 119.666,83.1539 119.499,78.8206 119,74.5C 117.045,70.2467 114.878,66.2467 112.5,62.5 Z"/></g>
<g><path style="opacity:1" fill="#ebebeb" d="M 24.5,64.5 C 26.3904,64.2965 27.8904,64.9632 29,66.5C 29.6667,71.8333 29.6667,77.1667 29,82.5C 27.3333,83.8333 25.6667,83.8333 24,82.5C 23.2124,76.418 23.379,70.418 24.5,64.5 Z"/></g>
<g><path style="opacity:1" fill="#fdfdfd" d="M 146.5,67.5 C 146.833,67.5 147.167,67.5 147.5,67.5C 147.5,94.1667 147.5,120.833 147.5,147.5C 98.1667,147.5 48.8333,147.5 -0.5,147.5C -0.5,127.167 -0.5,106.833 -0.5,86.5C -0.166667,86.5 0.166667,86.5 0.5,86.5C 1.95173,96.7864 7.78506,102.453 18,103.5C 31.515,101.901 41.1816,94.9012 47,82.5C 49.0264,101.259 58.8597,107.425 76.5,101C 84.0239,96.3095 90.0239,90.1429 94.5,82.5C 94.8861,97.7275 102.553,104.561 117.5,103C 133.86,96.7923 143.526,84.959 146.5,67.5 Z"/></g>
<g><path style="opacity:1" fill="#7c7c7c" d="M 75.5,65.5 C 76.404,66.209 76.7373,67.209 76.5,68.5C 78.5,68.5 80.5,68.5 82.5,68.5C 80.3926,69.4682 78.0593,69.8016 75.5,69.5C 75.5,68.1667 75.5,66.8333 75.5,65.5 Z"/></g>
</svg>
