<?xml version="1.0" encoding="UTF-8"?>
<!DOCTYPE svg PUBLIC "-//W3C//DTD SVG 1.1//EN" "http://www.w3.org/Graphics/SVG/1.1/DTD/svg11.dtd">
<svg xmlns="http://www.w3.org/2000/svg" version="1.1" width="294px" height="172px" style="shape-rendering:geometricPrecision; text-rendering:geometricPrecision; image-rendering:optimizeQuality; fill-rule:evenodd; clip-rule:evenodd" xmlns:xlink="http://www.w3.org/1999/xlink">
<g><path style="opacity:1" fill="#e4eae8" d="M -0.5,-0.5 C 20.1667,-0.5 40.8333,-0.5 61.5,-0.5C 64.5839,1.90707 67.5839,4.57373 70.5,7.5C 71.487,10.7683 71.8204,14.1016 71.5,17.5C 57.6809,14.5224 43.6809,12.6891 29.5,12C 27.6494,11.1628 25.8161,10.3295 24,9.5C 23.6667,10.1667 23.3333,10.8333 23,11.5C 20.6349,10.7109 18.4682,9.5442 16.5,8C 10.8431,7.50058 5.17645,7.33391 -0.5,7.5C -0.5,4.83333 -0.5,2.16667 -0.5,-0.5 Z"/></g>
<g><path style="opacity:1" fill="#e3edea" d="M 119.5,-0.5 C 122.167,-0.5 124.833,-0.5 127.5,-0.5C 127.5,2.16667 127.5,4.83333 127.5,7.5C 136.833,7.5 146.167,7.5 155.5,7.5C 154.651,13.6425 154.984,19.6425 156.5,25.5C 155.855,26.8118 154.855,27.8118 153.5,28.5C 152.679,25.5535 152.179,22.5535 152,19.5C 151.617,18.944 151.117,18.6107 150.5,18.5C 150.833,16.5 151.167,14.5 151.5,12.5C 146.167,12.5 140.833,12.5 135.5,12.5C 135.5,13.5 135.5,14.5 135.5,15.5C 132.289,15.012 129.456,15.6787 127,17.5C 125.704,16.9319 124.204,16.9319 122.5,17.5C 121.006,17.2908 119.839,16.6241 119,15.5C 118.802,17.3817 118.302,19.0484 117.5,20.5C 117.754,18.5992 117.42,17.9326 116.5,18.5C 114.631,20.6353 113.964,23.3019 114.5,26.5C 114.167,26.5 113.833,26.5 113.5,26.5C 112.185,25.5244 110.852,24.5244 109.5,23.5C 108.718,25.3293 109.384,26.8293 111.5,28C 109.865,28.5396 108.532,28.0396 107.5,26.5C 106.818,27.2427 106.151,27.9094 105.5,28.5C 105.516,26.5159 104.516,25.5159 102.5,25.5C 100.212,26.6933 98.0453,28.0266 96,29.5C 95.3333,28.1667 95.3333,26.8333 96,25.5C 96.8928,26.7112 97.7261,26.7112 98.5,25.5C 96.4411,24.0488 95.4411,22.0488 95.5,19.5C 92.8333,19.5 90.1667,19.5 87.5,19.5C 87.5,15.5 87.5,11.5 87.5,7.5C 98.1667,7.5 108.833,7.5 119.5,7.5C 119.5,4.83333 119.5,2.16667 119.5,-0.5 Z"/></g>
<g><path style="opacity:1" fill="#e2edef" d="M 127.5,-0.5 C 140.833,-0.5 154.167,-0.5 167.5,-0.5C 167.5,2.16667 167.5,4.83333 167.5,7.5C 170.518,7.33537 173.518,7.50204 176.5,8C 178.208,10.0435 180.208,11.7101 182.5,13C 188.196,13.1701 193.862,13.6701 199.5,14.5C 198.271,15.2811 196.938,15.7811 195.5,16C 196.167,16.6667 196.833,17.3333 197.5,18C 200.817,18.4983 204.15,18.665 207.5,18.5C 207.5,20.1667 207.5,21.8333 207.5,23.5C 211.746,23.1052 215.913,23.1052 220,23.5C 221.261,23.2409 222.261,22.5742 223,21.5C 225.456,23.3213 228.289,23.988 231.5,23.5C 231.5,25.1667 231.5,26.8333 231.5,28.5C 233.911,28.1367 235.411,29.1367 236,31.5C 236.733,36.8851 236.567,42.2185 235.5,47.5C 232.881,47.2317 230.381,47.565 228,48.5C 226.608,45.7216 226.108,42.7216 226.5,39.5C 225.5,39.5 224.5,39.5 223.5,39.5C 223.5,40.5 223.5,41.5 223.5,42.5C 220.552,42.2229 217.719,42.5562 215,43.5C 214.383,42.5509 214.549,41.7175 215.5,41C 222.134,40.1768 222.134,39.6768 215.5,39.5C 215.5,38.1667 215.5,36.8333 215.5,35.5C 207.248,35.8158 199.081,35.4825 191,34.5C 191.409,36.2251 191.242,37.8918 190.5,39.5C 189.614,38.675 189.281,37.675 189.5,36.5C 185.208,36.0349 181.208,36.8682 177.5,39C 179.632,39.9204 181.632,41.0871 183.5,42.5C 180.454,43.85 178.12,43.0167 176.5,40C 170.738,39.299 165.405,40.4656 160.5,43.5C 159.571,44.6888 159.238,46.0222 159.5,47.5C 158.71,46.3915 158.21,45.0581 158,43.5C 157.781,44.938 157.281,46.2713 156.5,47.5C 155.808,46.9747 155.308,46.3081 155,45.5C 153.887,46.7604 153.72,47.927 154.5,49C 153.313,50.0195 152.313,51.1861 151.5,52.5C 153.359,55.0186 155.359,55.0186 157.5,52.5C 160.448,53.42 161.448,55.0867 160.5,57.5C 159.25,57.4226 158.417,56.756 158,55.5C 157.289,57.3668 157.789,58.8668 159.5,60C 158.906,60.4643 158.239,60.631 157.5,60.5C 155.347,61.5729 153.347,61.5729 151.5,60.5C 152.678,59.0014 154.345,58.0014 156.5,57.5C 156.167,56.5 155.5,55.8333 154.5,55.5C 154.511,56.4415 154.011,57.1081 153,57.5C 151.989,57.1081 151.489,56.4415 151.5,55.5C 150.548,57.0453 150.215,58.712 150.5,60.5C 149.849,61.0906 149.182,61.7573 148.5,62.5C 147.893,62.3764 147.56,62.0431 147.5,61.5C 148.461,59.7354 148.795,57.7354 148.5,55.5C 146.833,55.5 145.167,55.5 143.5,55.5C 143.5,57.1667 143.5,58.8333 143.5,60.5C 142.685,61.4293 141.852,62.4293 141,63.5C 139.698,62.9152 138.531,62.2485 137.5,61.5C 141.323,61.8331 142.823,60.1664 142,56.5C 137.085,54.3209 135.251,55.6543 136.5,60.5C 135.732,61.2625 135.232,62.2625 135,63.5C 134.283,62.9558 133.783,62.2891 133.5,61.5C 134.461,59.7354 134.795,57.7354 134.5,55.5C 132.549,55.7733 131.049,55.1066 130,53.5C 129.51,54.7932 129.343,56.1266 129.5,57.5C 127.712,57.2148 126.045,57.5481 124.5,58.5C 124.957,59.2975 125.624,59.6309 126.5,59.5C 125.791,60.404 124.791,60.7373 123.5,60.5C 123.5,59.1667 123.5,57.8333 123.5,56.5C 128.5,55.9969 128.167,55.6636 122.5,55.5C 122.5,57.5 122.5,59.5 122.5,61.5C 123.833,61.5 125.167,61.5 126.5,61.5C 124.264,62.9821 121.931,63.3154 119.5,62.5C 119.158,61.6618 118.492,61.3284 117.5,61.5C 119.532,56.1988 117.866,54.5321 112.5,56.5C 113.557,56.9059 114.891,56.9059 116.5,56.5C 116.5,57.8333 116.5,59.1667 116.5,60.5C 114.876,60.6399 113.71,59.9733 113,58.5C 112.517,59.448 112.351,60.448 112.5,61.5C 113.833,61.5 115.167,61.5 116.5,61.5C 116.5,62.1667 116.167,62.5 115.5,62.5C 112.388,61.7814 109.388,61.4481 106.5,61.5C 108.103,61.6882 109.437,61.1882 110.5,60C 106.121,61.1158 104.454,59.2825 105.5,54.5C 107.741,54.9539 109.741,54.9539 111.5,54.5C 113.603,53.3501 115.603,52.0167 117.5,50.5C 116.904,47.8284 116.57,44.8284 116.5,41.5C 116.5,40.5 116.5,39.5 116.5,38.5C 116.833,38.5 117.167,38.5 117.5,38.5C 118.091,39.1515 118.757,39.8182 119.5,40.5C 118.253,42.0421 118.253,43.5421 119.5,45C 130.159,44.5559 140.326,46.0559 150,49.5C 151.03,49.1639 151.53,48.4972 151.5,47.5C 151.216,45.5853 151.549,43.9187 152.5,42.5C 153.167,40.8333 153.833,39.1667 154.5,37.5C 155.575,38.5624 156.575,38.5624 157.5,37.5C 156.754,36.2638 156.421,34.9305 156.5,33.5C 169.689,33.4248 169.689,32.7581 156.5,31.5C 156.586,29.323 157.253,27.323 158.5,25.5C 158.03,24.537 157.363,24.537 156.5,25.5C 154.984,19.6425 154.651,13.6425 155.5,7.5C 146.167,7.5 136.833,7.5 127.5,7.5C 127.5,4.83333 127.5,2.16667 127.5,-0.5 Z"/></g>
<g><path style="opacity:1" fill="#ddecf0" d="M 167.5,-0.5 C 180.833,-0.5 194.167,-0.5 207.5,-0.5C 207.5,2.16667 207.5,4.83333 207.5,7.5C 210.167,7.5 212.833,7.5 215.5,7.5C 215.5,11.5 215.5,15.5 215.5,19.5C 223.49,18.3466 231.49,18.3466 239.5,19.5C 238.833,22.1667 238.167,24.8333 237.5,27.5C 240.278,27.0217 242.278,28.0217 243.5,30.5C 242.271,31.2811 240.938,31.7811 239.5,32C 242.146,32.4974 244.813,32.6641 247.5,32.5C 247.5,34.8333 247.5,37.1667 247.5,39.5C 252.833,39.5 258.167,39.5 263.5,39.5C 263.5,44.8333 263.5,50.1667 263.5,55.5C 268.933,54.6359 274.266,54.6359 279.5,55.5C 279.232,58.1194 279.565,60.6194 280.5,63C 284.821,63.499 289.154,63.6657 293.5,63.5C 293.5,68.8333 293.5,74.1667 293.5,79.5C 291.5,79.5 289.5,79.5 287.5,79.5C 287.5,76.8333 287.5,74.1667 287.5,71.5C 283.774,71.8226 280.107,71.4892 276.5,70.5C 274.992,68.4925 273.158,66.8259 271,65.5C 270.508,64.451 270.674,63.451 271.5,62.5C 263.81,62.5798 258.31,59.2465 255,52.5C 252.634,50.7884 250.301,49.1217 248,47.5C 244.846,47.4916 244.679,48.1582 247.5,49.5C 245.577,50.3078 243.577,50.8078 241.5,51C 243.5,52 245.5,53 247.5,54C 243.377,54.4366 239.377,53.9366 235.5,52.5C 233.879,50.8828 231.879,49.7162 229.5,49C 232.233,48.2421 234.733,48.7421 237,50.5C 238.815,48.7826 238.315,47.7826 235.5,47.5C 236.567,42.2185 236.733,36.8851 236,31.5C 235.411,29.1367 233.911,28.1367 231.5,28.5C 231.5,26.8333 231.5,25.1667 231.5,23.5C 228.289,23.988 225.456,23.3213 223,21.5C 222.261,22.5742 221.261,23.2409 220,23.5C 215.913,23.1052 211.746,23.1052 207.5,23.5C 207.5,21.8333 207.5,20.1667 207.5,18.5C 204.15,18.665 200.817,18.4983 197.5,18C 196.833,17.3333 196.167,16.6667 195.5,16C 196.938,15.7811 198.271,15.2811 199.5,14.5C 193.862,13.6701 188.196,13.1701 182.5,13C 180.208,11.7101 178.208,10.0435 176.5,8C 173.518,7.50204 170.518,7.33537 167.5,7.5C 167.5,4.83333 167.5,2.16667 167.5,-0.5 Z"/></g>
<g><path style="opacity:1" fill="#d7e9ee" d="M 207.5,-0.5 C 213.5,-0.5 219.5,-0.5 225.5,-0.5C 226.812,1.47881 228.479,3.14548 230.5,4.5C 231.386,5.32496 231.719,6.32496 231.5,7.5C 234.167,7.5 236.833,7.5 239.5,7.5C 239.5,10.1667 239.5,12.8333 239.5,15.5C 242.167,15.5 244.833,15.5 247.5,15.5C 247.5,18.1667 247.5,20.8333 247.5,23.5C 251.224,22.7731 253.891,24.1064 255.5,27.5C 258.497,28.2482 261.497,28.9149 264.5,29.5C 264.833,29.8333 265.167,30.1667 265.5,30.5C 264.689,31.2164 264.022,32.0497 263.5,33C 265.478,34.9782 267.478,36.9782 269.5,39C 268.742,40.3639 269.242,41.5305 271,42.5C 271.249,41.376 271.749,40.376 272.5,39.5C 275.973,43.0706 279.973,45.9039 284.5,48C 286.328,50.4967 288.328,52.83 290.5,55C 288.5,55.3333 286.5,55.6667 284.5,56C 287.883,57.6863 290.883,59.853 293.5,62.5C 293.5,62.8333 293.5,63.1667 293.5,63.5C 289.154,63.6657 284.821,63.499 280.5,63C 279.565,60.6194 279.232,58.1194 279.5,55.5C 274.266,54.6359 268.933,54.6359 263.5,55.5C 263.5,50.1667 263.5,44.8333 263.5,39.5C 258.167,39.5 252.833,39.5 247.5,39.5C 247.5,37.1667 247.5,34.8333 247.5,32.5C 244.813,32.6641 242.146,32.4974 239.5,32C 240.938,31.7811 242.271,31.2811 243.5,30.5C 242.278,28.0217 240.278,27.0217 237.5,27.5C 238.167,24.8333 238.833,22.1667 239.5,19.5C 231.49,18.3466 223.49,18.3466 215.5,19.5C 215.5,15.5 215.5,11.5 215.5,7.5C 212.833,7.5 210.167,7.5 207.5,7.5C 207.5,4.83333 207.5,2.16667 207.5,-0.5 Z"/></g>
<g><path style="opacity:1" fill="#cce2ea" d="M 225.5,-0.5 C 248.167,-0.5 270.833,-0.5 293.5,-0.5C 293.5,20.5 293.5,41.5 293.5,62.5C 290.883,59.853 287.883,57.6863 284.5,56C 286.5,55.6667 288.5,55.3333 290.5,55C 288.328,52.83 286.328,50.4967 284.5,48C 279.973,45.9039 275.973,43.0706 272.5,39.5C 271.749,40.376 271.249,41.376 271,42.5C 269.242,41.5305 268.742,40.3639 269.5,39C 267.478,36.9782 265.478,34.9782 263.5,33C 264.022,32.0497 264.689,31.2164 265.5,30.5C 265.167,30.1667 264.833,29.8333 264.5,29.5C 261.497,28.9149 258.497,28.2482 255.5,27.5C 253.891,24.1064 251.224,22.7731 247.5,23.5C 247.5,20.8333 247.5,18.1667 247.5,15.5C 244.833,15.5 242.167,15.5 239.5,15.5C 239.5,12.8333 239.5,10.1667 239.5,7.5C 236.833,7.5 234.167,7.5 231.5,7.5C 231.719,6.32496 231.386,5.32496 230.5,4.5C 228.479,3.14548 226.812,1.47881 225.5,-0.5 Z"/></g>
<g><path style="opacity:1" fill="#eaefee" d="M 61.5,-0.5 C 80.8333,-0.5 100.167,-0.5 119.5,-0.5C 119.5,2.16667 119.5,4.83333 119.5,7.5C 108.833,7.5 98.1667,7.5 87.5,7.5C 87.5,11.5 87.5,15.5 87.5,19.5C 90.1667,19.5 92.8333,19.5 95.5,19.5C 95.4411,22.0488 96.4411,24.0488 98.5,25.5C 97.7261,26.7112 96.8928,26.7112 96,25.5C 95.3333,26.8333 95.3333,28.1667 96,29.5C 98.0453,28.0266 100.212,26.6933 102.5,25.5C 104.516,25.5159 105.516,26.5159 105.5,28.5C 104.167,28.5 102.833,28.5 101.5,28.5C 101.263,29.791 101.596,30.791 102.5,31.5C 105.287,32.4767 108.287,32.81 111.5,32.5C 111.489,34.0174 110.823,35.1841 109.5,36C 110.819,36.195 112.153,36.0283 113.5,35.5C 113.833,35.5 114.167,35.5 114.5,35.5C 114.337,37.8568 114.503,40.1902 115,42.5C 115.383,41.944 115.883,41.6107 116.5,41.5C 116.57,44.8284 116.904,47.8284 117.5,50.5C 115.603,52.0167 113.603,53.3501 111.5,54.5C 104.505,51.49 102.172,53.8233 104.5,61.5C 102.242,59.9161 100.408,57.9161 99,55.5C 96.9269,55.7607 94.9269,55.7607 93,55.5C 93.3333,53.5 93.6667,51.5 94,49.5C 90.9244,52.585 87.591,55.2516 84,57.5C 82.9914,55.9751 82.4914,54.3084 82.5,52.5C 82.4207,49.7294 82.9207,47.0627 84,44.5C 89.5249,47.5291 90.3582,46.8624 86.5,42.5C 89.5456,41.6247 92.5456,40.6247 95.5,39.5C 92.9135,38.52 90.2469,38.1866 87.5,38.5C 88.6005,37.3951 89.2671,36.0618 89.5,34.5C 90.5624,33.4246 90.5624,32.4246 89.5,31.5C 88.2638,32.2458 86.9305,32.5792 85.5,32.5C 85.6567,31.1266 85.49,29.7932 85,28.5C 84.5045,30.4727 84.3379,32.4727 84.5,34.5C 84.1667,34.5 83.8333,34.5 83.5,34.5C 83.5,31.5 83.5,28.5 83.5,25.5C 83.6309,24.6236 83.2975,23.9569 82.5,23.5C 81.4024,27.3605 80.5691,27.3605 80,23.5C 78.2627,21.3754 76.096,20.542 73.5,21C 74.6721,21.4186 75.6721,22.0853 76.5,23C 74.8659,23.4935 73.1992,23.6602 71.5,23.5C 71.5,21.8333 71.5,20.1667 71.5,18.5C 68.7531,18.1866 66.0865,18.52 63.5,19.5C 61.5,20.8333 59.5,22.1667 57.5,23.5C 50.1025,22.9919 42.7692,21.9919 35.5,20.5C 27.5308,24.3088 20.8641,22.8088 15.5,16C 10.1771,15.5006 4.84372,15.334 -0.5,15.5C -0.5,12.8333 -0.5,10.1667 -0.5,7.5C 5.17645,7.33391 10.8431,7.50058 16.5,8C 18.4682,9.5442 20.6349,10.7109 23,11.5C 23.3333,10.8333 23.6667,10.1667 24,9.5C 25.8161,10.3295 27.6494,11.1628 29.5,12C 43.6809,12.6891 57.6809,14.5224 71.5,17.5C 71.8204,14.1016 71.487,10.7683 70.5,7.5C 67.5839,4.57373 64.5839,1.90707 61.5,-0.5 Z"/></g>
<g><path style="opacity:1" fill="#e7efec" d="M 150.5,18.5 C 150.82,21.8984 150.487,25.2317 149.5,28.5C 148.449,27.1152 147.116,26.1152 145.5,25.5C 145.5,27.1667 145.5,28.8333 145.5,30.5C 143.224,31.2132 140.891,31.7132 138.5,32C 140.382,32.1981 142.048,32.6981 143.5,33.5C 142.127,33.3433 140.793,33.51 139.5,34C 141.81,34.4966 144.143,34.6633 146.5,34.5C 146.297,36.0443 145.63,37.3777 144.5,38.5C 144.833,38.8333 145.167,39.1667 145.5,39.5C 146.518,38.8075 147.518,38.1408 148.5,37.5C 149.167,37.5 149.833,37.5 150.5,37.5C 150.187,41.0419 150.521,44.3752 151.5,47.5C 151.53,48.4972 151.03,49.1639 150,49.5C 140.326,46.0559 130.159,44.5559 119.5,45C 118.253,43.5421 118.253,42.0421 119.5,40.5C 118.757,39.8182 118.091,39.1515 117.5,38.5C 117.263,37.209 117.596,36.209 118.5,35.5C 122.204,36.4122 122.538,35.4122 119.5,32.5C 123.182,32.6653 126.848,32.4986 130.5,32C 129.207,31.51 127.873,31.3433 126.5,31.5C 126.611,30.8826 126.944,30.3826 127.5,30C 125.19,29.5034 122.857,29.3367 120.5,29.5C 121.476,28.1851 122.476,26.8518 123.5,25.5C 123.376,24.8933 123.043,24.56 122.5,24.5C 122.44,23.9569 122.107,23.6236 121.5,23.5C 120.14,24.1799 118.807,24.8466 117.5,25.5C 117.5,23.8333 117.5,22.1667 117.5,20.5C 118.302,19.0484 118.802,17.3817 119,15.5C 119.839,16.6241 121.006,17.2908 122.5,17.5C 124.204,16.9319 125.704,16.9319 127,17.5C 129.456,15.6787 132.289,15.012 135.5,15.5C 135.5,14.5 135.5,13.5 135.5,12.5C 140.833,12.5 146.167,12.5 151.5,12.5C 151.167,14.5 150.833,16.5 150.5,18.5 Z"/></g>
<g><path style="opacity:1" fill="#eff3f1" d="M -0.5,15.5 C 4.84372,15.334 10.1771,15.5006 15.5,16C 20.8641,22.8088 27.5308,24.3088 35.5,20.5C 42.7692,21.9919 50.1025,22.9919 57.5,23.5C 59.5,22.1667 61.5,20.8333 63.5,19.5C 66.0865,18.52 68.7531,18.1866 71.5,18.5C 71.5,20.1667 71.5,21.8333 71.5,23.5C 73.1992,23.6602 74.8659,23.4935 76.5,23C 75.6721,22.0853 74.6721,21.4186 73.5,21C 76.096,20.542 78.2627,21.3754 80,23.5C 80.5691,27.3605 81.4024,27.3605 82.5,23.5C 83.2975,23.9569 83.6309,24.6236 83.5,25.5C 81.4321,28.083 80.0987,31.083 79.5,34.5C 73.1265,30.9113 72.7932,31.9113 78.5,37.5C 75.1667,38.1667 71.8333,38.8333 68.5,39.5C 72.1667,40.1667 75.8333,40.8333 79.5,41.5C 77.8333,42.5 76.5,43.8333 75.5,45.5C 75.8333,45.8333 76.1667,46.1667 76.5,46.5C 77.5,45.8333 78.5,45.1667 79.5,44.5C 80.753,47.1836 81.753,49.8503 82.5,52.5C 82.4914,54.3084 82.9914,55.9751 84,57.5C 87.591,55.2516 90.9244,52.585 94,49.5C 93.6667,51.5 93.3333,53.5 93,55.5C 94.9269,55.7607 96.9269,55.7607 99,55.5C 100.408,57.9161 102.242,59.9161 104.5,61.5C 105.167,61.5 105.833,61.5 106.5,61.5C 109.388,61.4481 112.388,61.7814 115.5,62.5C 115.918,63.2216 116.584,63.7216 117.5,64C 115.5,64.8333 113.5,65.6667 111.5,66.5C 112.554,68.2012 113.554,69.8679 114.5,71.5C 114.167,72.8333 113.833,74.1667 113.5,75.5C 110.812,76.0241 109.312,77.6908 109,80.5C 107.768,77.6996 107.101,74.6996 107,71.5C 106.667,72.8333 106.333,74.1667 106,75.5C 105.503,73.1902 105.337,70.8568 105.5,68.5C 98.7099,67.8086 92.0432,66.4753 85.5,64.5C 83.5,64.5 81.5,64.5 79.5,64.5C 79.5,62.8333 79.5,61.1667 79.5,59.5C 76.8333,59.5 74.1667,59.5 71.5,59.5C 71.5,60.8333 71.5,62.1667 71.5,63.5C 67.3184,63.3303 63.3184,63.3303 59.5,63.5C 58.6143,62.675 58.281,61.675 58.5,60.5C 59.3764,60.6309 60.0431,60.2975 60.5,59.5C 59.0905,58.4305 58.0905,57.0972 57.5,55.5C 61.0419,55.8128 64.3752,55.4794 67.5,54.5C 65.0122,52.6122 62.0122,51.9455 58.5,52.5C 59.6005,51.3951 60.2671,50.0618 60.5,48.5C 60.719,47.325 60.3857,46.325 59.5,45.5C 58.4787,47.188 57.1454,48.5213 55.5,49.5C 55.8016,46.9407 55.4682,44.6074 54.5,42.5C 54.5,41.5 54.5,40.5 54.5,39.5C 55.404,38.791 55.7373,37.791 55.5,36.5C 52.7938,36.5751 50.1272,36.9084 47.5,37.5C 47.703,35.3618 48.703,33.6951 50.5,32.5C 46.8927,31.5108 43.226,31.1774 39.5,31.5C 39.5,32.5 39.5,33.5 39.5,34.5C 36.8333,34.5 34.1667,34.5 31.5,34.5C 31.5,32.8333 31.5,31.1667 31.5,29.5C 20.0257,27.6177 10.359,30.7844 2.5,39C 1.55198,39.4828 0.551975,39.6495 -0.5,39.5C -0.5,31.5 -0.5,23.5 -0.5,15.5 Z"/></g>
<g><path style="opacity:1" fill="#7f7b5d" d="M 117.5,20.5 C 117.5,22.1667 117.5,23.8333 117.5,25.5C 117.5,26.5 117.5,27.5 117.5,28.5C 116.167,28.5 114.833,28.5 113.5,28.5C 113.5,27.8333 113.5,27.1667 113.5,26.5C 113.833,26.5 114.167,26.5 114.5,26.5C 116.369,24.3647 117.036,21.6981 116.5,18.5C 117.42,17.9326 117.754,18.5992 117.5,20.5 Z"/></g>
<g><path style="opacity:1" fill="#ece14e" d="M 116.5,18.5 C 117.036,21.6981 116.369,24.3647 114.5,26.5C 113.964,23.3019 114.631,20.6353 116.5,18.5 Z"/></g>
<g><path style="opacity:1" fill="#e6e766" d="M 122.5,24.5 C 121.415,26.5869 119.749,27.9202 117.5,28.5C 117.5,27.5 117.5,26.5 117.5,25.5C 118.807,24.8466 120.14,24.1799 121.5,23.5C 122.107,23.6236 122.44,23.9569 122.5,24.5 Z"/></g>
<g><path style="opacity:1" fill="#e2df83" d="M 113.5,26.5 C 113.5,27.1667 113.5,27.8333 113.5,28.5C 113.5,29.1667 113.5,29.8333 113.5,30.5C 109.936,31.4227 106.269,31.756 102.5,31.5C 101.596,30.791 101.263,29.791 101.5,28.5C 102.833,28.5 104.167,28.5 105.5,28.5C 106.151,27.9094 106.818,27.2427 107.5,26.5C 108.532,28.0396 109.865,28.5396 111.5,28C 109.384,26.8293 108.718,25.3293 109.5,23.5C 110.852,24.5244 112.185,25.5244 113.5,26.5 Z"/></g>
<g><path style="opacity:1" fill="#736a58" d="M 122.5,24.5 C 123.043,24.56 123.376,24.8933 123.5,25.5C 122.476,26.8518 121.476,28.1851 120.5,29.5C 119.957,29.56 119.624,29.8933 119.5,30.5C 121.743,31.4742 124.076,31.8076 126.5,31.5C 127.873,31.3433 129.207,31.51 130.5,32C 126.848,32.4986 123.182,32.6653 119.5,32.5C 118.833,32.5 118.167,32.5 117.5,32.5C 117.5,31.1667 117.5,29.8333 117.5,28.5C 119.749,27.9202 121.415,26.5869 122.5,24.5 Z"/></g>
<g><path style="opacity:1" fill="#cfcc4f" d="M 150.5,18.5 C 151.117,18.6107 151.617,18.944 152,19.5C 152.179,22.5535 152.679,25.5535 153.5,28.5C 154.855,27.8118 155.855,26.8118 156.5,25.5C 157.363,24.537 158.03,24.537 158.5,25.5C 157.253,27.323 156.586,29.323 156.5,31.5C 169.689,32.7581 169.689,33.4248 156.5,33.5C 156.421,34.9305 156.754,36.2638 157.5,37.5C 156.575,38.5624 155.575,38.5624 154.5,37.5C 153.656,35.2407 151.989,34.2407 149.5,34.5C 149.762,33.0222 149.429,31.6888 148.5,30.5C 147.614,31.325 147.281,32.325 147.5,33.5C 146.167,33.5 144.833,33.5 143.5,33.5C 142.048,32.6981 140.382,32.1981 138.5,32C 140.891,31.7132 143.224,31.2132 145.5,30.5C 145.5,28.8333 145.5,27.1667 145.5,25.5C 147.116,26.1152 148.449,27.1152 149.5,28.5C 150.487,25.2317 150.82,21.8984 150.5,18.5 Z"/></g>
<g><path style="opacity:1" fill="#eee73b" d="M 120.5,29.5 C 122.857,29.3367 125.19,29.5034 127.5,30C 126.944,30.3826 126.611,30.8826 126.5,31.5C 124.076,31.8076 121.743,31.4742 119.5,30.5C 119.624,29.8933 119.957,29.56 120.5,29.5 Z"/></g>
<g><path style="opacity:1" fill="#595658" d="M 113.5,30.5 C 113.5,31.1667 113.5,31.8333 113.5,32.5C 112.833,32.5 112.167,32.5 111.5,32.5C 108.287,32.81 105.287,32.4767 102.5,31.5C 106.269,31.756 109.936,31.4227 113.5,30.5 Z"/></g>
<g><path style="opacity:1" fill="#efec2e" d="M 113.5,28.5 C 114.833,28.5 116.167,28.5 117.5,28.5C 117.5,29.8333 117.5,31.1667 117.5,32.5C 116.167,32.5 114.833,32.5 113.5,32.5C 113.5,31.8333 113.5,31.1667 113.5,30.5C 113.5,29.8333 113.5,29.1667 113.5,28.5 Z"/></g>
<g><path style="opacity:1" fill="#e9ecac" d="M 89.5,34.5 C 88.1851,35.4756 86.8518,36.4756 85.5,37.5C 84.6143,36.675 84.281,35.675 84.5,34.5C 84.3379,32.4727 84.5045,30.4727 85,28.5C 85.49,29.7932 85.6567,31.1266 85.5,32.5C 86.9305,32.5792 88.2638,32.2458 89.5,31.5C 90.5624,32.4246 90.5624,33.4246 89.5,34.5 Z"/></g>
<g><path style="opacity:1" fill="#e2e14d" d="M 117.5,32.5 C 118.167,32.5 118.833,32.5 119.5,32.5C 122.538,35.4122 122.204,36.4122 118.5,35.5C 117.89,34.609 117.557,33.609 117.5,32.5 Z"/></g>
<g><path style="opacity:1" fill="#635949" d="M 149.5,34.5 C 148.5,34.5 147.5,34.5 146.5,34.5C 144.143,34.6633 141.81,34.4966 139.5,34C 140.793,33.51 142.127,33.3433 143.5,33.5C 144.833,33.5 146.167,33.5 147.5,33.5C 147.281,32.325 147.614,31.325 148.5,30.5C 149.429,31.6888 149.762,33.0222 149.5,34.5 Z"/></g>
<g><path style="opacity:1" fill="#f2f4f0" d="M 54.5,39.5 C 52.5864,42.6843 51.9197,46.351 52.5,50.5C 52.1667,50.5 51.8333,50.5 51.5,50.5C 50.5248,48.4872 48.8581,47.1539 46.5,46.5C 46.1667,46.8333 45.8333,47.1667 45.5,47.5C 47.264,49.2776 49.264,50.6109 51.5,51.5C 51.5,52.8333 51.5,54.1667 51.5,55.5C 48.7026,55.9666 47.3692,57.6333 47.5,60.5C 47.5,60.8333 47.5,61.1667 47.5,61.5C 47.7633,65.6002 47.4299,69.6002 46.5,73.5C 43.3671,69.9222 39.3671,68.5889 34.5,69.5C 31.1552,67.783 27.4885,67.1164 23.5,67.5C 23.5,64.8333 23.5,62.1667 23.5,59.5C 18.1667,59.5 12.8333,59.5 7.5,59.5C 7.5,61.5 7.5,63.5 7.5,65.5C 4.83333,65.5 2.16667,65.5 -0.5,65.5C -0.5,56.8333 -0.5,48.1667 -0.5,39.5C 0.551975,39.6495 1.55198,39.4828 2.5,39C 10.359,30.7844 20.0257,27.6177 31.5,29.5C 31.5,31.1667 31.5,32.8333 31.5,34.5C 34.1667,34.5 36.8333,34.5 39.5,34.5C 39.5,33.5 39.5,32.5 39.5,31.5C 43.226,31.1774 46.8927,31.5108 50.5,32.5C 48.703,33.6951 47.703,35.3618 47.5,37.5C 50.1272,36.9084 52.7938,36.5751 55.5,36.5C 55.7373,37.791 55.404,38.791 54.5,39.5 Z"/></g>
<g><path style="opacity:1" fill="#d6d84a" d="M 111.5,32.5 C 112.167,32.5 112.833,32.5 113.5,32.5C 113.5,33.5 113.5,34.5 113.5,35.5C 112.153,36.0283 110.819,36.195 109.5,36C 110.823,35.1841 111.489,34.0174 111.5,32.5 Z"/></g>
<g><path style="opacity:1" fill="#7c7447" d="M 113.5,32.5 C 114.833,32.5 116.167,32.5 117.5,32.5C 117.557,33.609 117.89,34.609 118.5,35.5C 117.596,36.209 117.263,37.209 117.5,38.5C 117.167,38.5 116.833,38.5 116.5,38.5C 116.762,37.0222 116.429,35.6888 115.5,34.5C 114.893,34.6236 114.56,34.9569 114.5,35.5C 114.167,35.5 113.833,35.5 113.5,35.5C 113.5,34.5 113.5,33.5 113.5,32.5 Z"/></g>
<g><path style="opacity:1" fill="#605437" d="M 149.5,34.5 C 151.989,34.2407 153.656,35.2407 154.5,37.5C 153.833,39.1667 153.167,40.8333 152.5,42.5C 152.808,40.076 152.474,37.7427 151.5,35.5C 150.702,35.9569 150.369,36.6236 150.5,37.5C 149.833,37.5 149.167,37.5 148.5,37.5C 149.11,36.609 149.443,35.609 149.5,34.5 Z"/></g>
<g><path style="opacity:1" fill="#dfe26c" d="M 146.5,34.5 C 147.5,34.5 148.5,34.5 149.5,34.5C 149.443,35.609 149.11,36.609 148.5,37.5C 147.518,38.1408 146.518,38.8075 145.5,39.5C 145.167,39.1667 144.833,38.8333 144.5,38.5C 145.63,37.3777 146.297,36.0443 146.5,34.5 Z"/></g>
<g><path style="opacity:1" fill="#7b6b4e" d="M 83.5,34.5 C 83.8333,34.5 84.1667,34.5 84.5,34.5C 84.281,35.675 84.6143,36.675 85.5,37.5C 86.8518,36.4756 88.1851,35.4756 89.5,34.5C 89.2671,36.0618 88.6005,37.3951 87.5,38.5C 86.0689,38.8807 85.2355,39.8807 85,41.5C 84.8333,38.6667 83.3333,37.1667 80.5,37C 81.9423,36.6232 82.9423,35.7899 83.5,34.5 Z"/></g>
<g><path style="opacity:1" fill="#efee5f" d="M 116.5,38.5 C 116.5,39.5 116.5,40.5 116.5,41.5C 115.883,41.6107 115.383,41.944 115,42.5C 114.503,40.1902 114.337,37.8568 114.5,35.5C 114.56,34.9569 114.893,34.6236 115.5,34.5C 116.429,35.6888 116.762,37.0222 116.5,38.5 Z"/></g>
<g><path style="opacity:1" fill="#ece96e" d="M 152.5,42.5 C 151.549,43.9187 151.216,45.5853 151.5,47.5C 150.521,44.3752 150.187,41.0419 150.5,37.5C 150.369,36.6236 150.702,35.9569 151.5,35.5C 152.474,37.7427 152.808,40.076 152.5,42.5 Z"/></g>
<g><path style="opacity:1" fill="#d7d456" d="M 83.5,25.5 C 83.5,28.5 83.5,31.5 83.5,34.5C 82.9423,35.7899 81.9423,36.6232 80.5,37C 83.3333,37.1667 84.8333,38.6667 85,41.5C 85.2355,39.8807 86.0689,38.8807 87.5,38.5C 90.2469,38.1866 92.9135,38.52 95.5,39.5C 92.5456,40.6247 89.5456,41.6247 86.5,42.5C 90.3582,46.8624 89.5249,47.5291 84,44.5C 82.9207,47.0627 82.4207,49.7294 82.5,52.5C 81.753,49.8503 80.753,47.1836 79.5,44.5C 78.5,45.1667 77.5,45.8333 76.5,46.5C 76.1667,46.1667 75.8333,45.8333 75.5,45.5C 76.5,43.8333 77.8333,42.5 79.5,41.5C 75.8333,40.8333 72.1667,40.1667 68.5,39.5C 71.8333,38.8333 75.1667,38.1667 78.5,37.5C 72.7932,31.9113 73.1265,30.9113 79.5,34.5C 80.0987,31.083 81.4321,28.083 83.5,25.5 Z"/></g>
<g><path style="opacity:1" fill="#ded952" d="M 54.5,39.5 C 54.5,40.5 54.5,41.5 54.5,42.5C 55.0356,45.6981 54.369,48.3647 52.5,50.5C 51.9197,46.351 52.5864,42.6843 54.5,39.5 Z"/></g>
<g><path style="opacity:1" fill="#ecf2f4" d="M 235.5,47.5 C 238.315,47.7826 238.815,48.7826 237,50.5C 234.733,48.7421 232.233,48.2421 229.5,49C 231.879,49.7162 233.879,50.8828 235.5,52.5C 218.606,46.3657 201.273,42.199 183.5,40C 184.167,40.3333 184.833,40.6667 185.5,41C 192.111,42.7256 198.444,44.8923 204.5,47.5C 204.575,50.2062 204.908,52.8728 205.5,55.5C 195.509,56.0061 185.509,55.3395 175.5,53.5C 175.5,52.5 175.5,51.5 175.5,50.5C 172.833,50.5 170.167,50.5 167.5,50.5C 167.719,49.325 167.386,48.325 166.5,47.5C 165.719,48.7287 165.219,50.062 165,51.5C 164.333,50.1667 163.667,50.1667 163,51.5C 162.26,49.6813 161.093,48.3479 159.5,47.5C 159.238,46.0222 159.571,44.6888 160.5,43.5C 165.405,40.4656 170.738,39.299 176.5,40C 178.12,43.0167 180.454,43.85 183.5,42.5C 181.632,41.0871 179.632,39.9204 177.5,39C 181.208,36.8682 185.208,36.0349 189.5,36.5C 189.281,37.675 189.614,38.675 190.5,39.5C 191.242,37.8918 191.409,36.2251 191,34.5C 199.081,35.4825 207.248,35.8158 215.5,35.5C 215.5,36.8333 215.5,38.1667 215.5,39.5C 222.134,39.6768 222.134,40.1768 215.5,41C 214.549,41.7175 214.383,42.5509 215,43.5C 217.719,42.5562 220.552,42.2229 223.5,42.5C 223.5,41.5 223.5,40.5 223.5,39.5C 224.5,39.5 225.5,39.5 226.5,39.5C 226.108,42.7216 226.608,45.7216 228,48.5C 230.381,47.565 232.881,47.2317 235.5,47.5 Z"/></g>
<g><path style="opacity:1" fill="#e2e664" d="M 60.5,48.5 C 59.078,49.925 57.4113,50.925 55.5,51.5C 55.5,50.8333 55.5,50.1667 55.5,49.5C 57.1454,48.5213 58.4787,47.188 59.5,45.5C 60.3857,46.325 60.719,47.325 60.5,48.5 Z"/></g>
<g><path style="opacity:1" fill="#ecf25c" d="M 51.5,50.5 C 51.5,50.8333 51.5,51.1667 51.5,51.5C 49.264,50.6109 47.264,49.2776 45.5,47.5C 45.8333,47.1667 46.1667,46.8333 46.5,46.5C 48.8581,47.1539 50.5248,48.4872 51.5,50.5 Z"/></g>
<g><path style="opacity:1" fill="#70644a" d="M 54.5,42.5 C 55.4682,44.6074 55.8016,46.9407 55.5,49.5C 55.5,50.1667 55.5,50.8333 55.5,51.5C 54.1667,51.5 52.8333,51.5 51.5,51.5C 51.5,51.1667 51.5,50.8333 51.5,50.5C 51.8333,50.5 52.1667,50.5 52.5,50.5C 54.369,48.3647 55.0356,45.6981 54.5,42.5 Z"/></g>
<g><path style="opacity:1" fill="#eff2f4" d="M 159.5,47.5 C 161.093,48.3479 162.26,49.6813 163,51.5C 163.667,50.1667 164.333,50.1667 165,51.5C 165.219,50.062 165.719,48.7287 166.5,47.5C 167.386,48.325 167.719,49.325 167.5,50.5C 170.167,50.5 172.833,50.5 175.5,50.5C 175.5,51.5 175.5,52.5 175.5,53.5C 185.509,55.3395 195.509,56.0061 205.5,55.5C 204.908,52.8728 204.575,50.2062 204.5,47.5C 222.888,52.6957 238.888,62.0291 252.5,75.5C 259.421,85.9723 260.254,96.9723 255,108.5C 252.715,111.432 250.215,114.098 247.5,116.5C 243.53,110.422 241.696,103.756 242,96.5C 247.156,93.1795 249.989,88.5128 250.5,82.5C 247.873,83.0916 245.206,83.4249 242.5,83.5C 244.089,86.9635 243.589,89.9635 241,92.5C 239.638,89.3533 238.805,86.0199 238.5,82.5C 234.469,83.0037 230.469,83.6704 226.5,84.5C 222.665,81.7042 218.998,81.8709 215.5,85C 206.946,92.9458 202.946,102.779 203.5,114.5C 203.125,110.558 202.125,106.891 200.5,103.5C 203.476,92.3114 205.81,80.978 207.5,69.5C 203.245,69.3839 199.245,70.2172 195.5,72C 197.124,73.1171 198.124,74.6171 198.5,76.5C 195.936,86.8185 193.436,97.1518 191,107.5C 190.501,111.486 190.334,115.486 190.5,119.5C 189.677,116.023 189.177,112.356 189,108.5C 188.55,106.481 187.717,104.648 186.5,103C 188.743,102.393 190.41,101.06 191.5,99C 191.252,97.2509 190.252,96.4176 188.5,96.5C 188.5,94.1667 188.5,91.8333 188.5,89.5C 185.833,89.5 183.167,89.5 180.5,89.5C 181.221,84.8301 182.054,80.1635 183,75.5C 184.67,73.3017 186.67,72.9683 189,74.5C 189.499,78.4862 189.666,82.4862 189.5,86.5C 190.5,86.5 191.5,86.5 192.5,86.5C 193.328,80.8547 193.994,75.188 194.5,69.5C 191.5,69.5 188.5,69.5 185.5,69.5C 187.292,68.6909 189.292,68.1909 191.5,68C 181.187,68.9439 171.687,66.7772 163,61.5C 161.908,62.2961 160.741,62.9628 159.5,63.5C 157.264,62.7815 155.098,62.4482 153,62.5C 152.5,63 152,63.5 151.5,64C 154.345,64.5382 157.012,65.5382 159.5,67C 158.833,67.1667 158.167,67.3333 157.5,67.5C 154.197,66.4851 150.864,66.4851 147.5,67.5C 145.616,67.2837 143.949,66.617 142.5,65.5C 140.476,67.3581 138.309,69.0248 136,70.5C 135.517,69.552 135.351,68.552 135.5,67.5C 131.766,67.3227 128.099,67.6561 124.5,68.5C 122.533,68.7394 120.699,68.4061 119,67.5C 116.822,70.4685 115.656,70.1351 115.5,66.5C 116.675,66.719 117.675,66.3857 118.5,65.5C 119.056,64.3366 119.389,63.3366 119.5,62.5C 121.931,63.3154 124.264,62.9821 126.5,61.5C 127.833,60.8333 127.833,60.1667 126.5,59.5C 125.624,59.6309 124.957,59.2975 124.5,58.5C 126.045,57.5481 127.712,57.2148 129.5,57.5C 130.003,62.5 130.336,62.1667 130.5,56.5C 131.5,56.5 132.5,56.5 133.5,56.5C 133.5,58.1667 133.5,59.8333 133.5,61.5C 133.783,62.2891 134.283,62.9558 135,63.5C 135.232,62.2625 135.732,61.2625 136.5,60.5C 136.5,61.1667 136.833,61.5 137.5,61.5C 138.531,62.2485 139.698,62.9152 141,63.5C 141.852,62.4293 142.685,61.4293 143.5,60.5C 144.521,60.1007 144.854,58.7674 144.5,56.5C 145.5,56.5 146.5,56.5 147.5,56.5C 147.5,58.1667 147.5,59.8333 147.5,61.5C 147.56,62.0431 147.893,62.3764 148.5,62.5C 149.182,61.7573 149.849,61.0906 150.5,60.5C 150.833,60.5 151.167,60.5 151.5,60.5C 153.347,61.5729 155.347,61.5729 157.5,60.5C 158.209,61.404 159.209,61.7373 160.5,61.5C 160.5,60.1667 160.5,58.8333 160.5,57.5C 161.448,55.0867 160.448,53.42 157.5,52.5C 155.359,55.0186 153.359,55.0186 151.5,52.5C 152.313,51.1861 153.313,50.0195 154.5,49C 153.72,47.927 153.887,46.7604 155,45.5C 155.308,46.3081 155.808,46.9747 156.5,47.5C 157.281,46.2713 157.781,44.938 158,43.5C 158.21,45.0581 158.71,46.3915 159.5,47.5 Z"/></g>
<g><path style="opacity:1" fill="#5f5b41" d="M 60.5,48.5 C 60.2671,50.0618 59.6005,51.3951 58.5,52.5C 57.6236,52.3691 56.9569,52.7025 56.5,53.5C 60.1073,54.4892 63.774,54.8226 67.5,54.5C 64.3752,55.4794 61.0419,55.8128 57.5,55.5C 56.8333,55.5 56.1667,55.5 55.5,55.5C 55.5,54.1667 55.5,52.8333 55.5,51.5C 57.4113,50.925 59.078,49.925 60.5,48.5 Z"/></g>
<g><path style="opacity:1" fill="#e6dd59" d="M 58.5,52.5 C 62.0122,51.9455 65.0122,52.6122 67.5,54.5C 63.774,54.8226 60.1073,54.4892 56.5,53.5C 56.9569,52.7025 57.6236,52.3691 58.5,52.5 Z"/></g>
<g><path style="opacity:1" fill="#e7d961" d="M 40.5,52.5 C 43.5719,52.1826 46.5719,52.5159 49.5,53.5C 46.2156,54.657 42.8823,54.8236 39.5,54C 40.056,53.6174 40.3893,53.1174 40.5,52.5 Z"/></g>
<g><path style="opacity:1" fill="#f4ec35" d="M 51.5,51.5 C 52.8333,51.5 54.1667,51.5 55.5,51.5C 55.5,52.8333 55.5,54.1667 55.5,55.5C 54.1667,55.5 52.8333,55.5 51.5,55.5C 51.5,54.1667 51.5,52.8333 51.5,51.5 Z"/></g>
<g><path style="opacity:1" fill="#4a4683" d="M 111.5,54.5 C 109.741,54.9539 107.741,54.9539 105.5,54.5C 104.454,59.2825 106.121,61.1158 110.5,60C 109.437,61.1882 108.103,61.6882 106.5,61.5C 105.833,61.5 105.167,61.5 104.5,61.5C 102.172,53.8233 104.505,51.49 111.5,54.5 Z"/></g>
<g><path style="opacity:1" fill="#646331" d="M 51.5,55.5 C 52.8333,55.5 54.1667,55.5 55.5,55.5C 55.5569,56.609 55.8902,57.609 56.5,58.5C 55.8333,59.8333 55.1667,61.1667 54.5,62.5C 54.7989,60.396 54.4656,58.396 53.5,56.5C 52.8933,56.6236 52.56,56.9569 52.5,57.5C 52.1667,57.5 51.8333,57.5 51.5,57.5C 51.5,56.8333 51.5,56.1667 51.5,55.5 Z"/></g>
<g><path style="opacity:1" fill="#19135e" d="M 133.5,61.5 C 133.5,59.8333 133.5,58.1667 133.5,56.5C 132.5,56.5 131.5,56.5 130.5,56.5C 130.336,62.1667 130.003,62.5 129.5,57.5C 129.343,56.1266 129.51,54.7932 130,53.5C 131.049,55.1066 132.549,55.7733 134.5,55.5C 134.795,57.7354 134.461,59.7354 133.5,61.5 Z"/></g>
<g><path style="opacity:1" fill="#47457b" d="M 137.5,61.5 C 136.833,61.5 136.5,61.1667 136.5,60.5C 135.251,55.6543 137.085,54.3209 142,56.5C 142.823,60.1664 141.323,61.8331 137.5,61.5 Z"/></g>
<g><path style="opacity:1" fill="#ecec55" d="M 51.5,55.5 C 51.5,56.1667 51.5,56.8333 51.5,57.5C 50.1667,58.5 48.8333,59.5 47.5,60.5C 47.3692,57.6333 48.7026,55.9666 51.5,55.5 Z"/></g>
<g><path style="opacity:1" fill="#38367f" d="M 151.5,60.5 C 151.167,60.5 150.833,60.5 150.5,60.5C 150.215,58.712 150.548,57.0453 151.5,55.5C 151.489,56.4415 151.989,57.1081 153,57.5C 154.011,57.1081 154.511,56.4415 154.5,55.5C 155.5,55.8333 156.167,56.5 156.5,57.5C 154.345,58.0014 152.678,59.0014 151.5,60.5 Z"/></g>
<g><path style="opacity:1" fill="#ede256" d="M 54.5,62.5 C 53.9101,63.766 53.4101,65.0993 53,66.5C 52.5604,64.1341 52.0604,61.8008 51.5,59.5C 52.3382,59.1583 52.6716,58.4916 52.5,57.5C 52.56,56.9569 52.8933,56.6236 53.5,56.5C 54.4656,58.396 54.7989,60.396 54.5,62.5 Z"/></g>
<g><path style="opacity:1" fill="#dde050" d="M 55.5,55.5 C 56.1667,55.5 56.8333,55.5 57.5,55.5C 58.0905,57.0972 59.0905,58.4305 60.5,59.5C 60.0431,60.2975 59.3764,60.6309 58.5,60.5C 57.8333,59.8333 57.1667,59.1667 56.5,58.5C 55.8902,57.609 55.5569,56.609 55.5,55.5 Z"/></g>
<g><path style="opacity:1" fill="#342e75" d="M 126.5,59.5 C 127.833,60.1667 127.833,60.8333 126.5,61.5C 125.167,61.5 123.833,61.5 122.5,61.5C 122.5,59.5 122.5,57.5 122.5,55.5C 128.167,55.6636 128.5,55.9969 123.5,56.5C 123.5,57.8333 123.5,59.1667 123.5,60.5C 124.791,60.7373 125.791,60.404 126.5,59.5 Z"/></g>
<g><path style="opacity:1" fill="#eaeef8" d="M 137.5,56.5 C 138.5,56.5 139.5,56.5 140.5,56.5C 140.5,57.8333 140.5,59.1667 140.5,60.5C 139.5,60.5 138.5,60.5 137.5,60.5C 137.5,59.1667 137.5,57.8333 137.5,56.5 Z"/></g>
<g><path style="opacity:1" fill="#1d1e5d" d="M 147.5,61.5 C 147.5,59.8333 147.5,58.1667 147.5,56.5C 146.5,56.5 145.5,56.5 144.5,56.5C 144.854,58.7674 144.521,60.1007 143.5,60.5C 143.5,58.8333 143.5,57.1667 143.5,55.5C 145.167,55.5 146.833,55.5 148.5,55.5C 148.795,57.7354 148.461,59.7354 147.5,61.5 Z"/></g>
<g><path style="opacity:1" fill="#403d6e" d="M 160.5,57.5 C 160.5,58.8333 160.5,60.1667 160.5,61.5C 159.209,61.7373 158.209,61.404 157.5,60.5C 158.239,60.631 158.906,60.4643 159.5,60C 157.789,58.8668 157.289,57.3668 158,55.5C 158.417,56.756 159.25,57.4226 160.5,57.5 Z"/></g>
<g><path style="opacity:1" fill="#624f72" d="M 51.5,57.5 C 51.8333,57.5 52.1667,57.5 52.5,57.5C 52.6716,58.4916 52.3382,59.1583 51.5,59.5C 50.3951,60.6005 49.0618,61.2671 47.5,61.5C 47.5,61.1667 47.5,60.8333 47.5,60.5C 48.8333,59.5 50.1667,58.5 51.5,57.5 Z"/></g>
<g><path style="opacity:1" fill="#443e79" d="M 117.5,61.5 C 117.167,61.5 116.833,61.5 116.5,61.5C 115.167,61.5 113.833,61.5 112.5,61.5C 112.351,60.448 112.517,59.448 113,58.5C 113.71,59.9733 114.876,60.6399 116.5,60.5C 116.5,59.1667 116.5,57.8333 116.5,56.5C 114.891,56.9059 113.557,56.9059 112.5,56.5C 117.866,54.5321 119.532,56.1988 117.5,61.5 Z"/></g>
<g><path style="opacity:1" fill="#f6f5f3" d="M 56.5,58.5 C 57.1667,59.1667 57.8333,59.8333 58.5,60.5C 58.281,61.675 58.6143,62.675 59.5,63.5C 63.3184,63.3303 67.3184,63.3303 71.5,63.5C 71.5,62.1667 71.5,60.8333 71.5,59.5C 74.1667,59.5 76.8333,59.5 79.5,59.5C 79.5,61.1667 79.5,62.8333 79.5,64.5C 81.5,64.5 83.5,64.5 85.5,64.5C 84.1516,65.6006 82.6516,66.6006 81,67.5C 80.5172,68.448 80.3505,69.448 80.5,70.5C 79.1667,73.5 79.1667,76.5 80.5,79.5C 78.5891,79.5743 77.4224,80.5743 77,82.5C 76.3333,81.1667 75.3333,80.1667 74,79.5C 74.3308,81.0187 74.1641,82.352 73.5,83.5C 70.5525,83.2229 67.7191,83.5562 65,84.5C 64.4201,94.9124 61.0868,104.246 55,112.5C 54.3076,111.975 53.8076,111.308 53.5,110.5C 55.5049,103.487 57.5049,96.4871 59.5,89.5C 60.8112,87.4402 60.8112,85.2735 59.5,83C 55.647,82.8128 51.9804,83.3128 48.5,84.5C 49.3123,86.7426 49.9789,89.0759 50.5,91.5C 48.4265,98.056 46.7598,104.723 45.5,111.5C 45.1402,115.01 46.1402,118.01 48.5,120.5C 48.0582,121.231 47.8915,122.231 48,123.5C 47.6174,122.944 47.1174,122.611 46.5,122.5C 44.9922,119.75 42.6589,118.916 39.5,120C 39.05,122.501 38.05,124.667 36.5,126.5C 33.1315,124.827 29.7981,123.16 26.5,121.5C 33.6061,117.223 38.7728,111.223 42,103.5C 46.5972,93.9055 48.0972,83.9055 46.5,73.5C 47.4299,69.6002 47.7633,65.6002 47.5,61.5C 49.0618,61.2671 50.3951,60.6005 51.5,59.5C 52.0604,61.8008 52.5604,64.1341 53,66.5C 53.4101,65.0993 53.9101,63.766 54.5,62.5C 55.1667,61.1667 55.8333,59.8333 56.5,58.5 Z"/></g>
<g><path style="opacity:1" fill="#e8eff1" d="M 293.5,79.5 C 293.5,88.8333 293.5,98.1667 293.5,107.5C 288.786,107.173 284.12,107.507 279.5,108.5C 277.016,111.294 275.849,114.627 276,118.5C 274.594,119.668 273.428,119.335 272.5,117.5C 271.482,118.193 270.482,118.859 269.5,119.5C 278.922,104.66 278.755,89.9933 269,75.5C 265.167,71.8333 261.333,68.1667 257.5,64.5C 250.073,60.4573 242.74,56.4573 235.5,52.5C 239.377,53.9366 243.377,54.4366 247.5,54C 245.5,53 243.5,52 241.5,51C 243.577,50.8078 245.577,50.3078 247.5,49.5C 244.679,48.1582 244.846,47.4916 248,47.5C 250.301,49.1217 252.634,50.7884 255,52.5C 258.31,59.2465 263.81,62.5798 271.5,62.5C 270.674,63.451 270.508,64.451 271,65.5C 273.158,66.8259 274.992,68.4925 276.5,70.5C 280.107,71.4892 283.774,71.8226 287.5,71.5C 287.5,74.1667 287.5,76.8333 287.5,79.5C 289.5,79.5 291.5,79.5 293.5,79.5 Z"/></g>
<g><path style="opacity:1" fill="#f6f8f6" d="M 185.5,69.5 C 184.833,69.5 184.167,69.5 183.5,69.5C 178.589,69.9668 173.922,69.3001 169.5,67.5C 167.283,67.8783 165.283,68.545 163.5,69.5C 161.283,70.3686 158.95,70.702 156.5,70.5C 159.162,74.8252 159.162,79.1585 156.5,83.5C 154.088,82.1823 151.754,82.349 149.5,84C 145.915,87.0781 142.915,90.5781 140.5,94.5C 139.833,92.1667 139.167,89.8333 138.5,87.5C 138.5,86.8333 138.5,86.1667 138.5,85.5C 138.926,84.4721 138.926,83.1388 138.5,81.5C 137.07,81.4208 135.736,81.7542 134.5,82.5C 133.396,81.3687 133.729,80.5354 135.5,80C 132.881,80.0833 130.214,80.25 127.5,80.5C 127.5,77.5 127.5,74.5 127.5,71.5C 126.5,71.5 125.5,71.5 124.5,71.5C 124.5,70.5 124.5,69.5 124.5,68.5C 128.099,67.6561 131.766,67.3227 135.5,67.5C 135.351,68.552 135.517,69.552 136,70.5C 138.309,69.0248 140.476,67.3581 142.5,65.5C 143.949,66.617 145.616,67.2837 147.5,67.5C 150.864,66.4851 154.197,66.4851 157.5,67.5C 158.167,67.3333 158.833,67.1667 159.5,67C 157.012,65.5382 154.345,64.5382 151.5,64C 152,63.5 152.5,63 153,62.5C 155.098,62.4482 157.264,62.7815 159.5,63.5C 160.741,62.9628 161.908,62.2961 163,61.5C 171.687,66.7772 181.187,68.9439 191.5,68C 189.292,68.1909 187.292,68.6909 185.5,69.5 Z"/></g>
<g><path style="opacity:1" fill="#e52529" d="M 80.5,79.5 C 79.1667,76.5 79.1667,73.5 80.5,70.5C 88.537,66.7754 91.037,69.1087 88,77.5C 86.0466,80.4462 83.5466,81.1128 80.5,79.5 Z"/></g>
<g><path style="opacity:1" fill="#f9f9f3" d="M 34.5,69.5 C 22.529,78.3346 16.1956,90.3346 15.5,105.5C 15.1906,110.907 16.8573,115.574 20.5,119.5C 18.6136,120.406 16.7803,121.406 15,122.5C 14.51,123.793 14.3433,125.127 14.5,126.5C 22.0026,124.334 28.0026,126.334 32.5,132.5C 28.8725,134.302 26.3725,133.302 25,129.5C 22.733,130.289 20.3997,130.956 18,131.5C 16.2957,131.026 14.4623,130.859 12.5,131C 11.1198,129.676 10.7865,128.343 11.5,127C 10.4258,126.261 9.75908,125.261 9.5,124C 10.5472,122.422 10.5472,120.922 9.5,119.5C 8.21525,122.114 7.54858,124.614 7.5,127C 4.85397,127.497 2.1873,127.664 -0.5,127.5C -0.5,106.833 -0.5,86.1667 -0.5,65.5C 2.16667,65.5 4.83333,65.5 7.5,65.5C 7.5,63.5 7.5,61.5 7.5,59.5C 12.8333,59.5 18.1667,59.5 23.5,59.5C 23.5,62.1667 23.5,64.8333 23.5,67.5C 27.4885,67.1164 31.1552,67.783 34.5,69.5 Z"/></g>
<g><path style="opacity:1" fill="#66688f" d="M 234.5,72.5 C 236.626,72.8499 238.959,72.8499 241.5,72.5C 241.5,73.5 241.5,74.5 241.5,75.5C 239.167,75.5 236.833,75.5 234.5,75.5C 234.5,74.5 234.5,73.5 234.5,72.5 Z"/></g>
<g><path style="opacity:1" fill="#e92228" d="M 235.5,52.5 C 242.74,56.4573 250.073,60.4573 257.5,64.5C 261.333,68.1667 265.167,71.8333 269,75.5C 278.755,89.9933 278.922,104.66 269.5,119.5C 266.167,123.167 262.833,126.833 259.5,130.5C 256.185,132.808 252.851,135.141 249.5,137.5C 248.818,136.757 248.151,136.091 247.5,135.5C 243.896,131.747 243.896,128.081 247.5,124.5C 262.531,114.438 267.365,100.771 262,83.5C 259.667,80.1667 257.333,76.8333 255,73.5C 254.536,74.0944 254.369,74.7611 254.5,75.5C 253.833,75.5 253.167,75.5 252.5,75.5C 238.888,62.0291 222.888,52.6957 204.5,47.5C 198.444,44.8923 192.111,42.7256 185.5,41C 184.833,40.6667 184.167,40.3333 183.5,40C 201.273,42.199 218.606,46.3657 235.5,52.5 Z"/></g>
<g><path style="opacity:1" fill="#f7edea" d="M 85.5,64.5 C 92.0432,66.4753 98.7099,67.8086 105.5,68.5C 105.337,70.8568 105.503,73.1902 106,75.5C 106.333,74.1667 106.667,72.8333 107,71.5C 107.101,74.6996 107.768,77.6996 109,80.5C 109.312,77.6908 110.812,76.0241 113.5,75.5C 112.251,79.9181 109.417,82.9181 105,84.5C 104.376,86.4645 104.876,88.1311 106.5,89.5C 104.793,94.9458 103.127,100.279 101.5,105.5C 101.954,98.045 100.621,97.7117 97.5,104.5C 100.475,92.959 102.808,81.2923 104.5,69.5C 100.5,69.8333 96.5,70.1667 92.5,70.5C 92.5,71.5 92.5,72.5 92.5,73.5C 93.5,73.5 94.5,73.5 95.5,73.5C 93.6331,84.968 91.1331,96.3013 88,107.5C 87.5012,111.486 87.3345,115.486 87.5,119.5C 88.8333,119.5 90.1667,119.5 91.5,119.5C 91.4226,120.75 90.756,121.583 89.5,122C 86.1832,122.498 82.8499,122.665 79.5,122.5C 79.9258,120.861 79.9258,119.528 79.5,118.5C 80.9169,111.407 83.0836,104.407 86,97.5C 87.1224,92.8984 87.6224,88.2318 87.5,83.5C 83.8212,83.7244 80.1545,84.0578 76.5,84.5C 77.3123,86.7426 77.9789,89.0759 78.5,91.5C 77.313,96.5638 75.813,101.564 74,106.5C 72.9246,110.77 72.4246,115.103 72.5,119.5C 74.5648,119.483 76.5648,119.15 78.5,118.5C 78.4983,122.541 77.165,123.208 74.5,120.5C 70.2404,120.282 65.9071,120.616 61.5,121.5C 59.2438,120.886 57.2438,119.886 55.5,118.5C 57.8529,114.188 58.8529,114.522 58.5,119.5C 62.1879,119.219 65.8546,118.719 69.5,118C 69.9574,117.586 70.2907,117.086 70.5,116.5C 69.0069,114.636 68.3403,112.47 68.5,110C 70.9003,101.301 72.567,92.4675 73.5,83.5C 74.1641,82.352 74.3308,81.0187 74,79.5C 75.3333,80.1667 76.3333,81.1667 77,82.5C 77.4224,80.5743 78.5891,79.5743 80.5,79.5C 83.5466,81.1128 86.0466,80.4462 88,77.5C 91.037,69.1087 88.537,66.7754 80.5,70.5C 80.3505,69.448 80.5172,68.448 81,67.5C 82.6516,66.6006 84.1516,65.6006 85.5,64.5 Z"/></g>
<g><path style="opacity:1" fill="#e82327" d="M 97.5,104.5 C 96.8694,108.804 96.3694,113.137 96,117.5C 94.3775,118.099 92.8775,118.766 91.5,119.5C 90.1667,119.5 88.8333,119.5 87.5,119.5C 87.3345,115.486 87.5012,111.486 88,107.5C 91.1331,96.3013 93.6331,84.968 95.5,73.5C 94.5,73.5 93.5,73.5 92.5,73.5C 92.5,72.5 92.5,71.5 92.5,70.5C 96.5,70.1667 100.5,69.8333 104.5,69.5C 102.808,81.2923 100.475,92.959 97.5,104.5 Z"/></g>
<g><path style="opacity:1" fill="#30308e" d="M 200.5,103.5 C 199.834,108.017 199.167,112.683 198.5,117.5C 195.979,118.785 193.313,119.452 190.5,119.5C 190.334,115.486 190.501,111.486 191,107.5C 193.436,97.1518 195.936,86.8185 198.5,76.5C 198.124,74.6171 197.124,73.1171 195.5,72C 199.245,70.2172 203.245,69.3839 207.5,69.5C 205.81,80.978 203.476,92.3114 200.5,103.5 Z"/></g>
<g><path style="opacity:1" fill="#dd6d6b" d="M 59.5,89.5 C 59.5,87.8333 59.5,86.1667 59.5,84.5C 55.8333,84.5 52.1667,84.5 48.5,84.5C 51.9804,83.3128 55.647,82.8128 59.5,83C 60.8112,85.2735 60.8112,87.4402 59.5,89.5 Z"/></g>
<g><path style="opacity:1" fill="#e7262a" d="M 100.5,119.5 C 100.669,114.819 101.002,110.152 101.5,105.5C 103.127,100.279 104.793,94.9458 106.5,89.5C 104.876,88.1311 104.376,86.4645 105,84.5C 109.417,82.9181 112.251,79.9181 113.5,75.5C 113.833,74.1667 114.167,72.8333 114.5,71.5C 115.15,71.1961 115.817,70.8627 116.5,70.5C 117.54,74.8182 117.54,79.1515 116.5,83.5C 117.833,83.5 119.167,83.5 120.5,83.5C 120.512,87.4459 118.512,89.1126 114.5,88.5C 111.746,96.9384 110.413,105.605 110.5,114.5C 111.5,114.5 112.5,114.5 113.5,114.5C 113.67,115.822 113.337,116.989 112.5,118C 108.509,118.642 104.509,119.142 100.5,119.5 Z"/></g>
<g><path style="opacity:1" fill="#e72428" d="M 73.5,83.5 C 72.567,92.4675 70.9003,101.301 68.5,110C 68.3403,112.47 69.0069,114.636 70.5,116.5C 70.2907,117.086 69.9574,117.586 69.5,118C 65.8546,118.719 62.1879,119.219 58.5,119.5C 58.8529,114.522 57.8529,114.188 55.5,118.5C 53.412,119.939 51.0786,120.606 48.5,120.5C 46.1402,118.01 45.1402,115.01 45.5,111.5C 46.7598,104.723 48.4265,98.056 50.5,91.5C 49.9789,89.0759 49.3123,86.7426 48.5,84.5C 52.1667,84.5 55.8333,84.5 59.5,84.5C 59.5,86.1667 59.5,87.8333 59.5,89.5C 57.5049,96.4871 55.5049,103.487 53.5,110.5C 53.8076,111.308 54.3076,111.975 55,112.5C 61.0868,104.246 64.4201,94.9124 65,84.5C 67.7191,83.5562 70.5525,83.2229 73.5,83.5 Z"/></g>
<g><path style="opacity:1" fill="#e62729" d="M 138.5,85.5 C 138.5,86.1667 138.5,86.8333 138.5,87.5C 139.111,92.6184 137.944,97.2851 135,101.5C 131.867,104.867 128.534,105.201 125,102.5C 123.585,105.958 123.085,109.625 123.5,113.5C 126.959,112.564 129.793,110.564 132,107.5C 132.87,108.108 133.37,108.941 133.5,110C 130.971,116.459 126.304,119.792 119.5,120C 118.069,119.535 116.903,118.701 116,117.5C 113.09,104.127 116.923,92.9605 127.5,84C 131.402,83.1122 135.069,83.6122 138.5,85.5 Z"/></g>
<g><path style="opacity:1" fill="#31318e" d="M 183.5,69.5 C 184.167,69.5 184.833,69.5 185.5,69.5C 188.5,69.5 191.5,69.5 194.5,69.5C 193.994,75.188 193.328,80.8547 192.5,86.5C 191.5,86.5 190.5,86.5 189.5,86.5C 189.666,82.4862 189.499,78.4862 189,74.5C 186.67,72.9683 184.67,73.3017 183,75.5C 182.054,80.1635 181.221,84.8301 180.5,89.5C 183.167,89.5 185.833,89.5 188.5,89.5C 188.5,91.8333 188.5,94.1667 188.5,96.5C 181.245,93.6628 177.078,95.9962 176,103.5C 175.352,108.204 175.519,112.871 176.5,117.5C 172.833,118.167 169.167,118.833 165.5,119.5C 165.334,115.486 165.501,111.486 166,107.5C 168.373,97.2984 170.873,87.1317 173.5,77C 172.582,74.9135 171.915,72.7468 171.5,70.5C 175.702,70.8168 179.702,70.4834 183.5,69.5 Z"/></g>
<g><path style="opacity:1" fill="#f6ebe7" d="M 247.5,124.5 C 246.671,123.668 245.838,124.001 245,125.5C 244.536,124.906 244.369,124.239 244.5,123.5C 252.134,117.586 257.301,109.919 260,100.5C 261.76,91.2234 259.927,82.89 254.5,75.5C 254.369,74.7611 254.536,74.0944 255,73.5C 257.333,76.8333 259.667,80.1667 262,83.5C 267.365,100.771 262.531,114.438 247.5,124.5 Z"/></g>
<g><path style="opacity:1" fill="#e62428" d="M 163.5,69.5 C 164.833,69.5 166.167,69.5 167.5,69.5C 166.123,82.681 163.623,95.681 160,108.5C 159.502,111.817 159.335,115.15 159.5,118.5C 156.482,118.704 153.482,119.037 150.5,119.5C 150.66,117.801 150.494,116.134 150,114.5C 147.78,118.692 144.28,120.359 139.5,119.5C 137.004,116.964 136.004,113.797 136.5,110C 136.512,104.468 137.846,99.3011 140.5,94.5C 142.915,90.5781 145.915,87.0781 149.5,84C 151.754,82.349 154.088,82.1823 156.5,83.5C 159.162,79.1585 159.162,74.8252 156.5,70.5C 158.95,70.702 161.283,70.3686 163.5,69.5 Z"/></g>
<g><path style="opacity:1" fill="#f6e6e2" d="M 151.5,87.5 C 153.201,88.5245 154.535,90.0245 155.5,92C 153.85,98.4378 151.517,104.604 148.5,110.5C 147.672,111.415 146.672,112.081 145.5,112.5C 144.353,110.235 144.186,107.902 145,105.5C 146.875,99.373 149.042,93.373 151.5,87.5 Z"/></g>
<g><path style="opacity:1" fill="#ea2025" d="M 79.5,118.5 C 79.1667,118.5 78.8333,118.5 78.5,118.5C 76.5648,119.15 74.5648,119.483 72.5,119.5C 72.4246,115.103 72.9246,110.77 74,106.5C 75.813,101.564 77.313,96.5638 78.5,91.5C 77.9789,89.0759 77.3123,86.7426 76.5,84.5C 80.1545,84.0578 83.8212,83.7244 87.5,83.5C 87.6224,88.2318 87.1224,92.8984 86,97.5C 83.0836,104.407 80.9169,111.407 79.5,118.5 Z"/></g>
<g><path style="opacity:1" fill="#31318e" d="M 247.5,116.5 C 247.5,117.167 247.167,117.5 246.5,117.5C 243.167,118.167 239.833,118.833 236.5,119.5C 235.949,114.629 234.782,109.962 233,105.5C 229.39,108.89 228.89,112.557 231.5,116.5C 229.255,118.623 226.588,119.623 223.5,119.5C 223.547,116.432 224.047,113.432 225,110.5C 227.903,106.52 230.403,102.353 232.5,98C 232.237,94.359 231.237,91.0256 229.5,88C 228.5,93.9593 225.5,99.2927 220.5,104C 217.472,105.14 215.305,104.306 214,101.5C 212.646,105.363 212.146,109.363 212.5,113.5C 215.959,112.564 218.793,110.564 221,107.5C 222.365,108.593 222.699,109.926 222,111.5C 218.979,117.589 214.146,120.422 207.5,120C 205.561,118.568 204.228,116.735 203.5,114.5C 202.946,102.779 206.946,92.9458 215.5,85C 218.998,81.8709 222.665,81.7042 226.5,84.5C 230.469,83.6704 234.469,83.0037 238.5,82.5C 238.805,86.0199 239.638,89.3533 241,92.5C 243.589,89.9635 244.089,86.9635 242.5,83.5C 245.206,83.4249 247.873,83.0916 250.5,82.5C 249.989,88.5128 247.156,93.1795 242,96.5C 241.696,103.756 243.53,110.422 247.5,116.5 Z"/></g>
<g><path style="opacity:1" fill="#f5f3f2" d="M 183.5,69.5 C 179.702,70.4834 175.702,70.8168 171.5,70.5C 171.915,72.7468 172.582,74.9135 173.5,77C 170.873,87.1317 168.373,97.2984 166,107.5C 165.501,111.486 165.334,115.486 165.5,119.5C 169.167,118.833 172.833,118.167 176.5,117.5C 175.519,112.871 175.352,108.204 176,103.5C 177.078,95.9962 181.245,93.6628 188.5,96.5C 190.252,96.4176 191.252,97.2509 191.5,99C 190.41,101.06 188.743,102.393 186.5,103C 187.717,104.648 188.55,106.481 189,108.5C 189.177,112.356 189.677,116.023 190.5,119.5C 193.313,119.452 195.979,118.785 198.5,117.5C 199.167,112.683 199.834,108.017 200.5,103.5C 202.125,106.891 203.125,110.558 203.5,114.5C 204.228,116.735 205.561,118.568 207.5,120C 214.146,120.422 218.979,117.589 222,111.5C 222.699,109.926 222.365,108.593 221,107.5C 218.793,110.564 215.959,112.564 212.5,113.5C 212.146,109.363 212.646,105.363 214,101.5C 215.305,104.306 217.472,105.14 220.5,104C 225.5,99.2927 228.5,93.9593 229.5,88C 231.237,91.0256 232.237,94.359 232.5,98C 230.403,102.353 227.903,106.52 225,110.5C 224.047,113.432 223.547,116.432 223.5,119.5C 226.588,119.623 229.255,118.623 231.5,116.5C 228.89,112.557 229.39,108.89 233,105.5C 234.782,109.962 235.949,114.629 236.5,119.5C 239.833,118.833 243.167,118.167 246.5,117.5C 239.753,123.72 232.086,128.72 223.5,132.5C 222.614,133.325 222.281,134.325 222.5,135.5C 222.167,139.5 221.833,139.5 221.5,135.5C 221.892,132.278 221.392,129.278 220,126.5C 217.602,128.18 216.435,130.514 216.5,133.5C 215.599,134.29 214.932,135.29 214.5,136.5C 213.5,136.5 212.5,136.5 211.5,136.5C 210.849,135.909 210.182,135.243 209.5,134.5C 208.893,134.624 208.56,134.957 208.5,135.5C 207.21,136.058 206.377,137.058 206,138.5C 205.71,140.952 205.044,143.285 204,145.5C 203.333,146.833 203.333,148.167 204,149.5C 204.763,146.937 205.263,146.937 205.5,149.5C 205.457,150.416 205.124,151.083 204.5,151.5C 203.778,152.551 202.778,153.218 201.5,153.5C 201.318,151.409 201.652,149.409 202.5,147.5C 201.667,147.167 200.833,146.833 200,146.5C 189.356,149.395 178.523,151.062 167.5,151.5C 155.495,151.667 143.495,151.5 131.5,151C 127.442,150.66 123.442,149.993 119.5,149C 121.134,148.506 122.801,148.34 124.5,148.5C 125.5,148.5 126.5,148.5 127.5,148.5C 133.324,149.166 139.324,149.5 145.5,149.5C 154.059,149.706 162.392,149.039 170.5,147.5C 181.613,146.377 192.613,144.544 203.5,142C 204.711,141.107 204.711,140.274 203.5,139.5C 190.352,142.712 177.019,144.712 163.5,145.5C 165.948,144.527 168.615,144.194 171.5,144.5C 171.259,141.001 172.092,140.668 174,143.5C 174.47,142.423 174.303,141.423 173.5,140.5C 171.876,140.64 170.71,139.973 170,138.5C 169.047,140.373 167.88,140.706 166.5,139.5C 166.657,140.873 166.49,142.207 166,143.5C 164.542,142.253 163.042,142.253 161.5,143.5C 160.824,142.398 160.158,141.398 159.5,140.5C 159.665,137.482 159.498,134.482 159,131.5C 157.663,133.004 155.996,134.004 154,134.5C 153.51,136.545 153.677,138.545 154.5,140.5C 153.233,141.087 152.233,141.087 151.5,140.5C 151.472,134.751 153.472,129.918 157.5,126C 157,125.5 156.5,125 156,124.5C 154.004,124.996 152.337,125.996 151,127.5C 150.248,130.894 150.415,134.227 151.5,137.5C 150.452,138.548 149.452,139.548 148.5,140.5C 148.81,137.287 148.477,134.287 147.5,131.5C 146.957,127.985 145.957,124.652 144.5,121.5C 142.219,121.923 140.552,121.256 139.5,119.5C 144.28,120.359 147.78,118.692 150,114.5C 150.494,116.134 150.66,117.801 150.5,119.5C 153.482,119.037 156.482,118.704 159.5,118.5C 159.335,115.15 159.502,111.817 160,108.5C 163.623,95.681 166.123,82.681 167.5,69.5C 166.167,69.5 164.833,69.5 163.5,69.5C 165.283,68.545 167.283,67.8783 169.5,67.5C 173.922,69.3001 178.589,69.9668 183.5,69.5 Z"/></g>
<g><path style="opacity:1" fill="#ecedef" d="M 219.5,87.5 C 220.693,87.9704 221.36,88.9704 221.5,90.5C 220.882,93.7324 219.715,96.7324 218,99.5C 217.15,97.99 216.317,96.49 215.5,95C 216.966,92.5682 218.299,90.0682 219.5,87.5 Z"/></g>
<g><path style="opacity:1" fill="#f5efee" d="M 116.5,61.5 C 116.833,61.5 117.167,61.5 117.5,61.5C 118.492,61.3284 119.158,61.6618 119.5,62.5C 119.389,63.3366 119.056,64.3366 118.5,65.5C 117.675,66.3857 116.675,66.719 115.5,66.5C 115.656,70.1351 116.822,70.4685 119,67.5C 120.699,68.4061 122.533,68.7394 124.5,68.5C 124.5,69.5 124.5,70.5 124.5,71.5C 125.5,71.5 126.5,71.5 127.5,71.5C 127.5,74.5 127.5,77.5 127.5,80.5C 130.214,80.25 132.881,80.0833 135.5,80C 133.729,80.5354 133.396,81.3687 134.5,82.5C 135.736,81.7542 137.07,81.4208 138.5,81.5C 138.926,83.1388 138.926,84.4721 138.5,85.5C 135.069,83.6122 131.402,83.1122 127.5,84C 116.923,92.9605 113.09,104.127 116,117.5C 116.903,118.701 118.069,119.535 119.5,120C 126.304,119.792 130.971,116.459 133.5,110C 133.37,108.941 132.87,108.108 132,107.5C 129.793,110.564 126.959,112.564 123.5,113.5C 123.085,109.625 123.585,105.958 125,102.5C 128.534,105.201 131.867,104.867 135,101.5C 137.944,97.2851 139.111,92.6184 138.5,87.5C 139.167,89.8333 139.833,92.1667 140.5,94.5C 137.846,99.3011 136.512,104.468 136.5,110C 136.004,113.797 137.004,116.964 139.5,119.5C 140.552,121.256 142.219,121.923 144.5,121.5C 145.957,124.652 146.957,127.985 147.5,131.5C 146.77,133.045 145.437,133.878 143.5,134C 141.635,138.752 143.302,140.919 148.5,140.5C 149.452,139.548 150.452,138.548 151.5,137.5C 150.415,134.227 150.248,130.894 151,127.5C 152.337,125.996 154.004,124.996 156,124.5C 156.5,125 157,125.5 157.5,126C 153.472,129.918 151.472,134.751 151.5,140.5C 152.233,141.087 153.233,141.087 154.5,140.5C 156.167,140.5 157.833,140.5 159.5,140.5C 160.158,141.398 160.824,142.398 161.5,143.5C 163.042,142.253 164.542,142.253 166,143.5C 166.49,142.207 166.657,140.873 166.5,139.5C 167.88,140.706 169.047,140.373 170,138.5C 170.71,139.973 171.876,140.64 173.5,140.5C 174.303,141.423 174.47,142.423 174,143.5C 172.092,140.668 171.259,141.001 171.5,144.5C 168.615,144.194 165.948,144.527 163.5,145.5C 148.896,146.629 134.23,146.629 119.5,145.5C 110.431,144.241 101.431,142.574 92.5,140.5C 96.8461,140.666 101.179,140.499 105.5,140C 105.643,137.959 105.309,135.792 104.5,133.5C 105.425,132.438 106.425,132.438 107.5,133.5C 105.323,140.172 106.99,141.672 112.5,138C 111.167,138 109.833,138 108.5,138C 107.549,137.282 107.383,136.449 108,135.5C 109.425,134.788 110.925,134.621 112.5,135C 111.437,133.812 110.103,133.312 108.5,133.5C 109.007,132.141 110.007,131.141 111.5,130.5C 111.291,129.914 110.957,129.414 110.5,129C 106.304,128.806 101.971,128.14 97.5,127C 96.3147,125.647 94.9814,124.48 93.5,123.5C 94.7213,119.661 95.3879,119.661 95.5,123.5C 97.5273,123.662 99.5273,123.495 101.5,123C 100.5,122.167 99.5,121.333 98.5,120.5C 98.9569,119.702 99.6236,119.369 100.5,119.5C 104.509,119.142 108.509,118.642 112.5,118C 113.337,116.989 113.67,115.822 113.5,114.5C 112.5,114.5 111.5,114.5 110.5,114.5C 110.413,105.605 111.746,96.9384 114.5,88.5C 118.512,89.1126 120.512,87.4459 120.5,83.5C 119.167,83.5 117.833,83.5 116.5,83.5C 117.54,79.1515 117.54,74.8182 116.5,70.5C 115.817,70.8627 115.15,71.1961 114.5,71.5C 113.554,69.8679 112.554,68.2012 111.5,66.5C 113.5,65.6667 115.5,64.8333 117.5,64C 116.584,63.7216 115.918,63.2216 115.5,62.5C 116.167,62.5 116.5,62.1667 116.5,61.5 Z"/></g>
<g><path style="opacity:1" fill="#f5eee8" d="M 131.5,87.5 C 132.922,91.7926 132.088,95.7926 129,99.5C 126.668,94.83 127.501,90.83 131.5,87.5 Z"/></g>
<g><path style="opacity:1" fill="#f8fafa" d="M 293.5,107.5 C 293.5,122.167 293.5,136.833 293.5,151.5C 286.167,151.5 278.833,151.5 271.5,151.5C 271.5,148.833 271.5,146.167 271.5,143.5C 270.167,143.5 268.833,143.5 267.5,143.5C 267.5,140.833 267.5,138.167 267.5,135.5C 264.327,135.599 261.327,134.932 258.5,133.5C 259.127,132.583 259.461,131.583 259.5,130.5C 262.833,126.833 266.167,123.167 269.5,119.5C 270.482,118.859 271.482,118.193 272.5,117.5C 273.428,119.335 274.594,119.668 276,118.5C 275.849,114.627 277.016,111.294 279.5,108.5C 284.12,107.507 288.786,107.173 293.5,107.5 Z"/></g>
<g><path style="opacity:1" fill="#faf8f3" d="M 101.5,105.5 C 101.002,110.152 100.669,114.819 100.5,119.5C 99.6236,119.369 98.9569,119.702 98.5,120.5C 99.5,121.333 100.5,122.167 101.5,123C 99.5273,123.495 97.5273,123.662 95.5,123.5C 95.3879,119.661 94.7213,119.661 93.5,123.5C 94.9814,124.48 96.3147,125.647 97.5,127C 101.971,128.14 106.304,128.806 110.5,129C 110.957,129.414 111.291,129.914 111.5,130.5C 110.007,131.141 109.007,132.141 108.5,133.5C 108.167,133.5 107.833,133.5 107.5,133.5C 106.425,132.438 105.425,132.438 104.5,133.5C 105.309,135.792 105.643,137.959 105.5,140C 101.179,140.499 96.8461,140.666 92.5,140.5C 88.8631,139.503 85.1964,139.003 81.5,139C 82.4158,139.278 83.0825,139.778 83.5,140.5C 81.0731,141.974 78.7398,141.807 76.5,140C 79.1667,139 79.1667,138 76.5,137C 80.2259,135.957 79.8926,135.457 75.5,135.5C 75.012,132.289 75.6787,129.456 77.5,127C 76.3279,126.581 75.3279,125.915 74.5,125C 69.519,124.744 64.6856,124.578 60,124.5C 57.6669,124.583 55.8335,125.583 54.5,127.5C 52.1772,126.328 49.8439,126.328 47.5,127.5C 47.3713,125.784 47.038,124.117 46.5,122.5C 47.1174,122.611 47.6174,122.944 48,123.5C 47.8915,122.231 48.0582,121.231 48.5,120.5C 51.0786,120.606 53.412,119.939 55.5,118.5C 57.2438,119.886 59.2438,120.886 61.5,121.5C 65.9071,120.616 70.2404,120.282 74.5,120.5C 77.165,123.208 78.4983,122.541 78.5,118.5C 78.8333,118.5 79.1667,118.5 79.5,118.5C 79.9258,119.528 79.9258,120.861 79.5,122.5C 82.8499,122.665 86.1832,122.498 89.5,122C 90.756,121.583 91.4226,120.75 91.5,119.5C 92.8775,118.766 94.3775,118.099 96,117.5C 96.3694,113.137 96.8694,108.804 97.5,104.5C 100.621,97.7117 101.954,98.045 101.5,105.5 Z"/></g>
<g><path style="opacity:1" fill="#d93136" d="M 252.5,75.5 C 253.167,75.5 253.833,75.5 254.5,75.5C 259.927,82.89 261.76,91.2234 260,100.5C 257.301,109.919 252.134,117.586 244.5,123.5C 237.216,127.696 229.883,131.696 222.5,135.5C 222.281,134.325 222.614,133.325 223.5,132.5C 232.086,128.72 239.753,123.72 246.5,117.5C 247.167,117.5 247.5,117.167 247.5,116.5C 250.215,114.098 252.715,111.432 255,108.5C 260.254,96.9723 259.421,85.9723 252.5,75.5 Z"/></g>
<g><path style="opacity:1" fill="#e72428" d="M 34.5,69.5 C 39.3671,68.5889 43.3671,69.9222 46.5,73.5C 48.0972,83.9055 46.5972,93.9055 42,103.5C 38.7728,111.223 33.6061,117.223 26.5,121.5C 29.7981,123.16 33.1315,124.827 36.5,126.5C 38.05,124.667 39.05,122.501 39.5,120C 42.6589,118.916 44.9922,119.75 46.5,122.5C 47.038,124.117 47.3713,125.784 47.5,127.5C 47.0048,134.265 43.3381,136.932 36.5,135.5C 35.5637,134.026 34.2303,133.026 32.5,132.5C 28.0026,126.334 22.0026,124.334 14.5,126.5C 14.3433,125.127 14.51,123.793 15,122.5C 16.7803,121.406 18.6136,120.406 20.5,119.5C 16.8573,115.574 15.1906,110.907 15.5,105.5C 16.1956,90.3346 22.529,78.3346 34.5,69.5 Z"/></g>
<g><path style="opacity:1" fill="#f6f3ef" d="M 36.5,73.5 C 38.0174,73.5106 39.1841,74.1772 40,75.5C 40.2804,85.7731 38.6137,95.7731 35,105.5C 33.6849,108.492 31.6849,110.825 29,112.5C 27.3468,112.18 26.3468,111.18 26,109.5C 25.1741,96.1535 28.6741,84.1535 36.5,73.5 Z"/></g>
<g><path style="opacity:1" fill="#fafaee" d="M 83.5,140.5 C 93.9229,143.864 104.256,147.197 114.5,150.5C 114.062,150.435 113.728,150.601 113.5,151C 116.564,153.949 119.731,156.782 123,159.5C 127.111,158.596 131.278,158.263 135.5,158.5C 135.5,159.833 135.5,161.167 135.5,162.5C 138.167,162.5 140.833,162.5 143.5,162.5C 143.5,164.833 143.5,167.167 143.5,169.5C 146.698,168.964 149.365,169.631 151.5,171.5C 133.833,171.5 116.167,171.5 98.5,171.5C 98.5,170.167 98.5,168.833 98.5,167.5C 97.5,167.5 96.5,167.5 95.5,167.5C 94.2521,166.666 93.5854,165.333 93.5,163.5C 94.1914,160.802 94.8581,158.135 95.5,155.5C 89.8453,155.332 84.512,153.999 79.5,151.5C 79.5,150.167 79.5,148.833 79.5,147.5C 74.1667,147.5 68.8333,147.5 63.5,147.5C 63.5,145.5 63.5,143.5 63.5,141.5C 54.1191,141.876 44.7858,141.876 35.5,141.5C 34.8333,139.5 34.1667,137.5 33.5,135.5C 34.5,135.5 35.5,135.5 36.5,135.5C 43.3381,136.932 47.0048,134.265 47.5,127.5C 49.8439,126.328 52.1772,126.328 54.5,127.5C 55.8335,125.583 57.6669,124.583 60,124.5C 64.6856,124.578 69.519,124.744 74.5,125C 75.3279,125.915 76.3279,126.581 77.5,127C 75.6787,129.456 75.012,132.289 75.5,135.5C 79.8926,135.457 80.2259,135.957 76.5,137C 79.1667,138 79.1667,139 76.5,140C 78.7398,141.807 81.0731,141.974 83.5,140.5 Z"/></g>
<g><path style="opacity:1" fill="#e0cbd8" d="M 244.5,123.5 C 244.369,124.239 244.536,124.906 245,125.5C 245.838,124.001 246.671,123.668 247.5,124.5C 243.896,128.081 243.896,131.747 247.5,135.5C 246.115,136.574 244.949,137.907 244,139.5C 245.213,135.125 244.38,131.125 241.5,127.5C 239.096,132.544 236.596,137.544 234,142.5C 233.909,138.747 233.742,135.08 233.5,131.5C 231.167,135.5 228.833,139.5 226.5,143.5C 226.167,143.167 225.833,142.833 225.5,142.5C 227.287,140.142 228.287,137.475 228.5,134.5C 227.325,134.281 226.325,134.614 225.5,135.5C 224.219,139.375 222.886,143.209 221.5,147C 220.551,147.617 219.718,147.451 219,146.5C 218.51,145.207 218.343,143.873 218.5,142.5C 219.434,141.432 219.768,140.099 219.5,138.5C 220.167,137.5 220.833,136.5 221.5,135.5C 221.833,139.5 222.167,139.5 222.5,135.5C 229.883,131.696 237.216,127.696 244.5,123.5 Z"/></g>
<g><path style="opacity:1" fill="#3e3980" d="M 135.5,133.5 C 137.167,133.5 138.833,133.5 140.5,133.5C 140.5,135.833 140.5,138.167 140.5,140.5C 135.135,140.764 133.468,138.431 135.5,133.5 Z"/></g>
<g><path style="opacity:1" fill="#3b3578" d="M 159.5,140.5 C 157.833,140.5 156.167,140.5 154.5,140.5C 153.677,138.545 153.51,136.545 154,134.5C 155.996,134.004 157.663,133.004 159,131.5C 159.498,134.482 159.665,137.482 159.5,140.5 Z"/></g>
<g><path style="opacity:1" fill="#fafaf9" d="M 259.5,130.5 C 259.461,131.583 259.127,132.583 258.5,133.5C 261.327,134.932 264.327,135.599 267.5,135.5C 267.5,138.167 267.5,140.833 267.5,143.5C 268.833,143.5 270.167,143.5 271.5,143.5C 271.5,146.167 271.5,148.833 271.5,151.5C 269.5,151.5 267.5,151.5 265.5,151.5C 264.833,162.167 264.167,162.167 263.5,151.5C 259.833,151.5 256.167,151.5 252.5,151.5C 252.5,154.167 252.5,156.833 252.5,159.5C 250.833,159.5 249.167,159.5 247.5,159.5C 247.5,162.167 247.5,164.833 247.5,167.5C 244.833,167.5 242.167,167.5 239.5,167.5C 239.5,168.833 239.5,170.167 239.5,171.5C 231.5,171.5 223.5,171.5 215.5,171.5C 215.5,170.167 215.5,168.833 215.5,167.5C 211.5,167.5 207.5,167.5 203.5,167.5C 203.5,166.5 203.5,165.5 203.5,164.5C 204.75,164.423 205.583,163.756 206,162.5C 206.497,159.854 206.664,157.187 206.5,154.5C 208.527,154.662 210.527,154.495 212.5,154C 213.726,152.365 215.059,150.865 216.5,149.5C 220.453,152.545 222.953,151.545 224,146.5C 227.45,149.226 229.45,148.226 230,143.5C 230.196,145.286 231.029,146.619 232.5,147.5C 233.99,145.874 235.49,144.208 237,142.5C 240.716,145.377 243.716,144.711 246,140.5C 247.009,138.975 247.509,137.308 247.5,135.5C 248.151,136.091 248.818,136.757 249.5,137.5C 252.851,135.141 256.185,132.808 259.5,130.5 Z"/></g>
<g><path style="opacity:1" fill="#daddeb" d="M 136.5,134.5 C 139.861,135.203 140.194,136.537 137.5,138.5C 135.358,137.563 135.024,136.23 136.5,134.5 Z"/></g>
<g><path style="opacity:1" fill="#53518c" d="M 132.5,131.5 C 133.477,134.287 133.81,137.287 133.5,140.5C 129.855,141.32 127.522,139.987 126.5,136.5C 128.417,134.568 130.417,132.901 132.5,131.5 Z"/></g>
<g><path style="opacity:1" fill="#eff2e8" d="M 128.5,135.5 C 129.5,135.5 130.5,135.5 131.5,135.5C 131.5,136.5 131.5,137.5 131.5,138.5C 130.5,138.5 129.5,138.5 128.5,138.5C 128.5,137.5 128.5,136.5 128.5,135.5 Z"/></g>
<g><path style="opacity:1" fill="#dadee8" d="M 155.5,134.5 C 157.912,134.694 158.912,136.027 158.5,138.5C 155.046,138.733 154.046,137.4 155.5,134.5 Z"/></g>
<g><path style="opacity:1" fill="#8c87b4" d="M 177.5,131.5 C 178.765,132.514 179.431,134.014 179.5,136C 179.167,137.5 178.833,139 178.5,140.5C 177.516,137.572 177.183,134.572 177.5,131.5 Z"/></g>
<g><path style="opacity:1" fill="#36287a" d="M 181.5,138.5 C 180.402,137.399 180.235,136.066 181,134.5C 182.996,134.004 184.663,133.004 186,131.5C 186.498,134.482 186.665,137.482 186.5,140.5C 184.219,140.923 182.552,140.256 181.5,138.5 Z"/></g>
<g><path style="opacity:1" fill="#6c6c96" d="M 166.5,139.5 C 162.598,141.104 160.765,139.771 161,135.5C 163.574,132.741 165.74,133.074 167.5,136.5C 166.873,137.417 166.539,138.417 166.5,139.5 Z"/></g>
<g><path style="opacity:1" fill="#d2d7e4" d="M 181.5,138.5 C 181.222,136.654 181.889,135.32 183.5,134.5C 185.111,135.32 185.778,136.654 185.5,138.5C 184.167,138.5 182.833,138.5 181.5,138.5 Z"/></g>
<g><path style="opacity:1" fill="#4f4b8f" d="M 189.5,133.5 C 191.167,133.5 192.833,133.5 194.5,133.5C 194.5,135.833 194.5,138.167 194.5,140.5C 188.753,141.129 187.086,138.795 189.5,133.5 Z"/></g>
<g><path style="opacity:1" fill="#efebf0" d="M 190.5,134.5 C 192.104,135.287 192.771,136.62 192.5,138.5C 191.5,138.5 190.5,138.5 189.5,138.5C 189.433,137.041 189.766,135.708 190.5,134.5 Z"/></g>
<g><path style="opacity:1" fill="#fbf8e7" d="M 32.5,132.5 C 34.2303,133.026 35.5637,134.026 36.5,135.5C 35.5,135.5 34.5,135.5 33.5,135.5C 34.1667,137.5 34.8333,139.5 35.5,141.5C 44.7858,141.876 54.1191,141.876 63.5,141.5C 63.5,143.5 63.5,145.5 63.5,147.5C 68.8333,147.5 74.1667,147.5 79.5,147.5C 79.5,148.833 79.5,150.167 79.5,151.5C 84.512,153.999 89.8453,155.332 95.5,155.5C 94.8581,158.135 94.1914,160.802 93.5,163.5C 93.5854,165.333 94.2521,166.666 95.5,167.5C 94.3281,168.705 92.9948,168.705 91.5,167.5C 90.52,164.914 90.1866,162.247 90.5,159.5C 89.5,159.5 88.5,159.5 87.5,159.5C 87.5,158.5 87.5,157.5 87.5,156.5C 81.8787,155.944 76.5454,154.444 71.5,152C 62.1515,151.722 52.8182,151.222 43.5,150.5C 39.2951,148.58 34.9617,147.08 30.5,146C 25.312,145.707 20.312,144.873 15.5,143.5C 15.5,142.167 15.5,140.833 15.5,139.5C 10.1667,139.167 4.83333,138.833 -0.5,138.5C -0.5,134.833 -0.5,131.167 -0.5,127.5C 2.1873,127.664 4.85397,127.497 7.5,127C 7.54858,124.614 8.21525,122.114 9.5,119.5C 10.5472,120.922 10.5472,122.422 9.5,124C 9.75908,125.261 10.4258,126.261 11.5,127C 10.7865,128.343 11.1198,129.676 12.5,131C 14.4623,130.859 16.2957,131.026 18,131.5C 20.3997,130.956 22.733,130.289 25,129.5C 26.3725,133.302 28.8725,134.302 32.5,132.5 Z"/></g>
<g><path style="opacity:1" fill="#4c4b82" d="M 107.5,133.5 C 107.833,133.5 108.167,133.5 108.5,133.5C 110.103,133.312 111.437,133.812 112.5,135C 110.925,134.621 109.425,134.788 108,135.5C 107.383,136.449 107.549,137.282 108.5,138C 109.833,138 111.167,138 112.5,138C 106.99,141.672 105.323,140.172 107.5,133.5 Z"/></g>
<g><path style="opacity:1" fill="#3d327a" d="M 147.5,131.5 C 148.477,134.287 148.81,137.287 148.5,140.5C 143.302,140.919 141.635,138.752 143.5,134C 145.437,133.878 146.77,133.045 147.5,131.5 Z"/></g>
<g><path style="opacity:1" fill="#edecf5" d="M 143.5,135.5 C 144.978,135.238 146.311,135.571 147.5,136.5C 145.537,139.194 144.203,138.861 143.5,135.5 Z"/></g>
<g><path style="opacity:1" fill="#322976" d="M 173.5,140.5 C 172.782,138.863 172.616,137.197 173,135.5C 173.667,138.167 174.333,138.167 175,135.5C 175.599,137.535 175.099,139.201 173.5,140.5 Z"/></g>
<g><path style="opacity:1" fill="#cccadc" d="M 216.5,133.5 C 215.935,138.149 215.435,142.816 215,147.5C 214.632,148.91 213.799,149.91 212.5,150.5C 213.374,147.115 213.374,143.449 212.5,139.5C 210.541,140.748 209.041,142.415 208,144.5C 207.852,142.095 208.352,139.761 209.5,137.5C 209.457,136.584 209.124,135.917 208.5,135.5C 208.56,134.957 208.893,134.624 209.5,134.5C 210.182,135.243 210.849,135.909 211.5,136.5C 209.946,137.895 210.279,138.561 212.5,138.5C 213.713,138.253 214.38,137.586 214.5,136.5C 214.932,135.29 215.599,134.29 216.5,133.5 Z"/></g>
<g><path style="opacity:1" fill="#473f85" d="M 114.5,133.5 C 116.167,133.5 117.833,133.5 119.5,133.5C 119.5,135.833 119.5,138.167 119.5,140.5C 114.26,140.604 112.594,138.271 114.5,133.5 Z"/></g>
<g><path style="opacity:1" fill="#e2e8ef" d="M 114.5,135.5 C 115.978,135.238 117.311,135.571 118.5,136.5C 116.537,139.194 115.203,138.861 114.5,135.5 Z"/></g>
<g><path style="opacity:1" fill="#df3734" d="M 92.5,140.5 C 101.431,142.574 110.431,144.241 119.5,145.5C 120.802,147.028 122.469,148.028 124.5,148.5C 122.801,148.34 121.134,148.506 119.5,149C 123.442,149.993 127.442,150.66 131.5,151C 143.495,151.5 155.495,151.667 167.5,151.5C 159.01,152.33 150.343,152.83 141.5,153C 143.382,153.198 145.048,153.698 146.5,154.5C 135.899,153.008 125.232,151.675 114.5,150.5C 104.256,147.197 93.9229,143.864 83.5,140.5C 83.0825,139.778 82.4158,139.278 81.5,139C 85.1964,139.003 88.8631,139.503 92.5,140.5 Z"/></g>
<g><path style="opacity:1" fill="#de2022" d="M 170.5,147.5 C 156.184,148.347 141.851,148.68 127.5,148.5C 126.5,148.5 125.5,148.5 124.5,148.5C 122.469,148.028 120.802,147.028 119.5,145.5C 134.23,146.629 148.896,146.629 163.5,145.5C 177.019,144.712 190.352,142.712 203.5,139.5C 204.711,140.274 204.711,141.107 203.5,142C 192.613,144.544 181.613,146.377 170.5,147.5 Z"/></g>
<g><path style="opacity:1" fill="#dd6a72" d="M 170.5,147.5 C 162.392,149.039 154.059,149.706 145.5,149.5C 139.324,149.5 133.324,149.166 127.5,148.5C 141.851,148.68 156.184,148.347 170.5,147.5 Z"/></g>
<g><path style="opacity:1" fill="#f9f7e2" d="M -0.5,138.5 C 4.83333,138.833 10.1667,139.167 15.5,139.5C 15.5,140.833 15.5,142.167 15.5,143.5C 20.312,144.873 25.312,145.707 30.5,146C 34.9617,147.08 39.2951,148.58 43.5,150.5C 52.8182,151.222 62.1515,151.722 71.5,152C 76.5454,154.444 81.8787,155.944 87.5,156.5C 87.5,157.5 87.5,158.5 87.5,159.5C 88.5,159.5 89.5,159.5 90.5,159.5C 90.1866,162.247 90.52,164.914 91.5,167.5C 92.9948,168.705 94.3281,168.705 95.5,167.5C 96.5,167.5 97.5,167.5 98.5,167.5C 98.5,168.833 98.5,170.167 98.5,171.5C 82.5,171.5 66.5,171.5 50.5,171.5C 50.5,167.5 50.5,163.5 50.5,159.5C 49.5,159.5 48.5,159.5 47.5,159.5C 47.5,158.5 47.5,157.5 47.5,156.5C 44.8333,156.167 42.1667,155.833 39.5,155.5C 39.5,154.5 39.5,153.5 39.5,152.5C 36.8127,152.664 34.146,152.497 31.5,152C 25.0203,149.049 18.3536,146.716 11.5,145C 7.58174,143.844 3.58174,143.344 -0.5,143.5C -0.5,141.833 -0.5,140.167 -0.5,138.5 Z"/></g>
<g><path style="opacity:1" fill="#fafaf8" d="M 271.5,151.5 C 278.833,151.5 286.167,151.5 293.5,151.5C 293.5,158.167 293.5,164.833 293.5,171.5C 275.5,171.5 257.5,171.5 239.5,171.5C 239.5,170.167 239.5,168.833 239.5,167.5C 242.167,167.5 244.833,167.5 247.5,167.5C 247.5,164.833 247.5,162.167 247.5,159.5C 249.167,159.5 250.833,159.5 252.5,159.5C 252.5,156.833 252.5,154.167 252.5,151.5C 256.167,151.5 259.833,151.5 263.5,151.5C 264.167,162.167 264.833,162.167 265.5,151.5C 267.5,151.5 269.5,151.5 271.5,151.5 Z"/></g>
<g><path style="opacity:1" fill="#e71f25" d="M 201.5,153.5 C 183.351,155.744 165.017,156.078 146.5,154.5C 145.048,153.698 143.382,153.198 141.5,153C 150.343,152.83 159.01,152.33 167.5,151.5C 178.523,151.062 189.356,149.395 200,146.5C 200.833,146.833 201.667,147.167 202.5,147.5C 201.652,149.409 201.318,151.409 201.5,153.5 Z"/></g>
<g><path style="opacity:1" fill="#343286" d="M 221.5,135.5 C 220.833,136.5 220.167,137.5 219.5,138.5C 219.663,136.143 219.497,133.81 219,131.5C 218.578,133.355 218.078,135.189 217.5,137C 218.233,138.766 218.567,140.599 218.5,142.5C 218.343,143.873 218.51,145.207 219,146.5C 219.718,147.451 220.551,147.617 221.5,147C 222.886,143.209 224.219,139.375 225.5,135.5C 226.325,134.614 227.325,134.281 228.5,134.5C 228.287,137.475 227.287,140.142 225.5,142.5C 225.833,142.833 226.167,143.167 226.5,143.5C 228.833,139.5 231.167,135.5 233.5,131.5C 233.742,135.08 233.909,138.747 234,142.5C 236.596,137.544 239.096,132.544 241.5,127.5C 244.38,131.125 245.213,135.125 244,139.5C 244.949,137.907 246.115,136.574 247.5,135.5C 247.509,137.308 247.009,138.975 246,140.5C 243.716,144.711 240.716,145.377 237,142.5C 235.49,144.208 233.99,145.874 232.5,147.5C 231.029,146.619 230.196,145.286 230,143.5C 229.45,148.226 227.45,149.226 224,146.5C 222.953,151.545 220.453,152.545 216.5,149.5C 215.059,150.865 213.726,152.365 212.5,154C 210.527,154.495 208.527,154.662 206.5,154.5C 206.664,157.187 206.497,159.854 206,162.5C 205.583,163.756 204.75,164.423 203.5,164.5C 203.372,160.119 203.705,155.785 204.5,151.5C 205.124,151.083 205.457,150.416 205.5,149.5C 205.263,146.937 204.763,146.937 204,149.5C 203.333,148.167 203.333,146.833 204,145.5C 205.044,143.285 205.71,140.952 206,138.5C 206.377,137.058 207.21,136.058 208.5,135.5C 209.124,135.917 209.457,136.584 209.5,137.5C 208.352,139.761 207.852,142.095 208,144.5C 209.041,142.415 210.541,140.748 212.5,139.5C 213.374,143.449 213.374,147.115 212.5,150.5C 213.799,149.91 214.632,148.91 215,147.5C 215.435,142.816 215.935,138.149 216.5,133.5C 216.435,130.514 217.602,128.18 220,126.5C 221.392,129.278 221.892,132.278 221.5,135.5 Z"/></g>
<g><path style="opacity:1" fill="#d1d3e7" d="M 209.5,144.5 C 210.376,144.369 211.043,144.702 211.5,145.5C 210.691,147.071 210.357,148.738 210.5,150.5C 209.5,150.5 208.5,150.5 207.5,150.5C 207.704,148.315 208.37,146.315 209.5,144.5 Z"/></g>
<g><path style="opacity:1" fill="#c84743" d="M 221.5,139.5 C 222.819,141.605 222.486,143.605 220.5,145.5C 219.911,143.519 220.245,141.519 221.5,139.5 Z"/></g>
<g><path style="opacity:1" fill="#d24d52" d="M 211.5,136.5 C 212.5,136.5 213.5,136.5 214.5,136.5C 214.38,137.586 213.713,138.253 212.5,138.5C 210.279,138.561 209.946,137.895 211.5,136.5 Z"/></g>
<g><path style="opacity:1" fill="#7477a6" d="M 219.5,138.5 C 219.768,140.099 219.434,141.432 218.5,142.5C 218.567,140.599 218.233,138.766 217.5,137C 218.078,135.189 218.578,133.355 219,131.5C 219.497,133.81 219.663,136.143 219.5,138.5 Z"/></g>
<g><path style="opacity:1" fill="#c6c1d7" d="M 240.5,133.5 C 242.975,135.558 242.975,137.558 240.5,139.5C 239.5,139.167 238.833,138.5 238.5,137.5C 239.63,136.378 240.297,135.044 240.5,133.5 Z"/></g>
<g><path style="opacity:1" fill="#f6f3d2" d="M -0.5,143.5 C 3.58174,143.344 7.58174,143.844 11.5,145C 18.3536,146.716 25.0203,149.049 31.5,152C 34.146,152.497 36.8127,152.664 39.5,152.5C 39.5,153.5 39.5,154.5 39.5,155.5C 42.1667,155.833 44.8333,156.167 47.5,156.5C 47.5,157.5 47.5,158.5 47.5,159.5C 48.5,159.5 49.5,159.5 50.5,159.5C 50.5,163.5 50.5,167.5 50.5,171.5C 33.5,171.5 16.5,171.5 -0.5,171.5C -0.5,162.167 -0.5,152.833 -0.5,143.5 Z"/></g>
<g><path style="opacity:1" fill="#fcfbf6" d="M 114.5,150.5 C 125.232,151.675 135.899,153.008 146.5,154.5C 165.017,156.078 183.351,155.744 201.5,153.5C 202.778,153.218 203.778,152.551 204.5,151.5C 203.705,155.785 203.372,160.119 203.5,164.5C 203.5,165.5 203.5,166.5 203.5,167.5C 207.5,167.5 211.5,167.5 215.5,167.5C 215.5,168.833 215.5,170.167 215.5,171.5C 194.167,171.5 172.833,171.5 151.5,171.5C 149.365,169.631 146.698,168.964 143.5,169.5C 143.5,167.167 143.5,164.833 143.5,162.5C 140.833,162.5 138.167,162.5 135.5,162.5C 135.5,161.167 135.5,159.833 135.5,158.5C 131.278,158.263 127.111,158.596 123,159.5C 119.731,156.782 116.564,153.949 113.5,151C 113.728,150.601 114.062,150.435 114.5,150.5 Z"/></g>
</svg>
