<?xml version="1.0" standalone="no"?>
<!DOCTYPE svg PUBLIC "-//W3C//DTD SVG 20010904//EN"
 "http://www.w3.org/TR/2001/REC-SVG-20010904/DTD/svg10.dtd">
<svg version="1.0" xmlns="http://www.w3.org/2000/svg"
 width="204.000000pt" height="192.000000pt" viewBox="0 0 204.000000 192.000000"
 preserveAspectRatio="xMidYMid meet">

<g transform="translate(0.000000,192.000000) scale(0.100000,-0.100000)"
fill="#000000" stroke="none">
<path d="M0 960 l0 -960 1020 0 1020 0 0 960 0 960 -1020 0 -1020 0 0 -960z
m395 159 c110 -28 138 -142 52 -215 l-29 -25 46 -70 c52 -78 50 -82 -30 -77
-48 3 -50 4 -94 70 l-45 67 -52 1 -52 0 -3 -67 -3 -68 -55 0 -55 0 0 105 0
105 143 5 c112 4 145 8 152 20 13 21 12 33 -4 56 -13 17 -29 19 -155 22 l-141
4 0 32 c0 18 3 36 7 39 11 11 271 8 318 -4z m938 -4 c72 -19 101 -37 129 -83
55 -89 13 -220 -87 -271 -47 -25 -57 -26 -210 -26 l-160 0 0 115 0 115 58 3
57 3 0 -81 0 -80 68 1 c124 1 175 37 175 125 0 40 -4 51 -31 76 l-32 28 -315
0 -315 0 0 -35 0 -34 133 -3 132 -3 0 -35 0 -35 -132 -3 -133 -3 0 -34 0 -34
138 -3 137 -3 0 -40 0 -40 -195 0 -195 0 -3 185 c-1 101 0 190 2 197 8 20 701
18 779 -2z m557 -11 c84 -38 118 -103 107 -200 -6 -59 -48 -111 -113 -144 -46
-23 -59 -25 -204 -25 l-155 0 0 120 0 120 52 3 52 3 3 -83 3 -83 60 -3 c110
-6 172 30 182 105 6 46 -15 96 -50 115 -13 7 -82 14 -173 18 l-151 5 -36 32
c-21 18 -37 35 -37 39 0 3 93 4 208 2 183 -3 212 -6 252 -24z"/>
</g>
</svg>
