<?xml version="1.0" encoding="UTF-8"?>
<!DOCTYPE svg PUBLIC "-//W3C//DTD SVG 1.1//EN" "http://www.w3.org/Graphics/SVG/1.1/DTD/svg11.dtd">
<svg xmlns="http://www.w3.org/2000/svg" version="1.1" width="950px" height="250px" style="shape-rendering:geometricPrecision; text-rendering:geometricPrecision; image-rendering:optimizeQuality; fill-rule:evenodd; clip-rule:evenodd" xmlns:xlink="http://www.w3.org/1999/xlink">
<g><path style="opacity:0.958" fill="#fcfbfb" d="M -0.5,152.5 C -0.5,142.167 -0.5,131.833 -0.5,121.5C 11.1083,62.3946 46.775,28.228 106.5,19C 162.073,16.8578 201.906,40.6911 226,90.5C 232.707,107.535 235.874,125.202 235.5,143.5C 237.144,143.714 238.644,143.38 240,142.5C 249.56,144.677 259.06,146.844 268.5,149C 259.552,141.058 251.719,132.225 245,122.5C 238.677,101.14 244.843,84.3062 263.5,72C 274.427,66.185 286.094,63.3516 298.5,63.5C 313.958,62.7371 328.292,66.2371 341.5,74C 346.282,76.7259 348.616,80.8926 348.5,86.5C 347.757,94.1764 346.923,101.843 346,109.5C 344.712,115.321 341.046,118.321 335,118.5C 331.109,117.536 327.275,116.37 323.5,115C 320.5,114.333 317.5,114.333 314.5,115C 320.682,121.014 326.682,127.181 332.5,133.5C 348.338,111.17 364.338,89.0035 380.5,67C 388.594,65.8802 396.76,65.3802 405,65.5C 413.559,65.3959 422.059,65.8959 430.5,67C 435.382,70.2144 439.215,74.3811 442,79.5C 445.364,99.032 449.364,118.365 454,137.5C 458.717,116.246 463.051,94.9129 467,73.5C 468.27,69.2297 471.104,66.7297 475.5,66C 498.833,65.3333 522.167,65.3333 545.5,66C 562.278,68.1185 572.778,77.2852 577,93.5C 598.587,70.8552 625.087,61.0219 656.5,64C 664.322,64.4981 671.989,65.8314 679.5,68C 682.789,70.581 684.789,73.9143 685.5,78C 684.158,82.3936 683.658,86.8936 684,91.5C 712.688,64.7954 745.854,57.2954 783.5,69C 792.616,72.802 800.116,78.6354 806,86.5C 808.127,82.4106 810.627,78.5772 813.5,75C 819.449,71.1919 825.783,68.1919 832.5,66C 841.167,65.3333 849.833,65.3333 858.5,66C 862.573,67.0721 865.407,69.5721 867,73.5C 890.865,61.9482 915.365,60.4482 940.5,69C 942.969,72.0208 944.302,75.5208 944.5,79.5C 943.535,87.1507 942.702,94.8174 942,102.5C 941.385,107.783 938.551,111.283 933.5,113C 927.833,114.667 922.167,116.333 916.5,118C 940.229,139.105 940.229,160.438 916.5,182C 903.819,190.341 889.819,194.674 874.5,195C 864.833,195.667 855.167,195.667 845.5,195C 838.244,194.349 831.244,192.683 824.5,190C 821.181,186.689 819.848,182.689 820.5,178C 820.703,169.015 821.869,160.181 824,151.5C 825.543,149.622 827.376,148.122 829.5,147C 836.617,145.125 843.617,143.791 850.5,143C 842.302,136.475 836.968,128.141 834.5,118C 828.536,120.573 822.203,122.073 815.5,122.5C 811.415,152.527 795.748,174.027 768.5,187C 743.211,196.581 717.545,197.914 691.5,191C 680.878,186.702 672.378,179.868 666,170.5C 663.934,175.363 662.268,180.363 661,185.5C 659.019,188.745 656.186,190.911 652.5,192C 633.899,196.206 615.232,196.54 596.5,193C 569.875,185.045 557.375,167.212 559,139.5C 555.884,141.967 552.718,144.301 549.5,146.5C 553.066,158.263 556.399,170.097 559.5,182C 559.204,188.617 555.871,192.617 549.5,194C 536.776,194.92 524.11,194.586 511.5,193C 505.808,190.794 502.641,186.627 502,180.5C 500.914,187.918 496.747,192.418 489.5,194C 465.511,193.616 441.511,193.616 417.5,194C 413.5,193 409.5,192 405.5,191C 403.667,189.833 402.167,188.333 401,186.5C 399.098,179.619 397.932,172.619 397.5,165.5C 392.489,165.334 387.489,165.501 382.5,166C 377.542,173.415 372.709,180.915 368,188.5C 365.658,191.754 362.491,193.588 358.5,194C 346.833,194.667 335.167,194.667 323.5,194C 318.585,193.615 313.752,192.782 309,191.5C 295.427,195.338 281.594,196.504 267.5,195C 256.385,194.069 245.385,192.402 234.5,190C 230.23,188.73 227.73,185.896 227,181.5C 221.827,193.669 214.661,204.502 205.5,214C 200.973,216.226 196.807,215.726 193,212.5C 155.213,246.747 113.046,253.247 66.5,232C 60.7239,228.556 55.2239,224.723 50,220.5C 45.397,224.542 40.5637,225.042 35.5,222C 15.9484,202.73 3.94843,179.563 -0.5,152.5 Z M 636.5,114.5 C 645.956,114.41 655.29,115.41 664.5,117.5C 661.878,126.658 660.211,135.991 659.5,145.5C 646.655,149.218 633.655,150.052 620.5,148C 618.714,147.215 617.214,146.049 616,144.5C 612.248,133.424 615.414,124.924 625.5,119C 629.157,117.178 632.824,115.678 636.5,114.5 Z M 730.5,114.5 C 749.469,112.714 754.969,120.714 747,138.5C 744.502,144.171 740.335,147.837 734.5,149.5C 725.461,149.676 720.794,145.343 720.5,136.5C 720.975,127.694 724.308,120.36 730.5,114.5 Z"/></g>
<g><path style="opacity:1" fill="#19c7ca" d="M 109.5,28.5 C 163.821,28.7212 200.654,54.0546 220,104.5C 230.112,141.606 223.445,175.273 200,205.5C 197.317,202.984 194.817,200.317 192.5,197.5C 219.392,158.721 220.225,119.387 195,79.5C 161.74,40.4433 121.24,30.6099 73.5,50C 34.3098,71.9306 16.8098,105.431 21,150.5C 24.5748,171.982 33.7415,190.649 48.5,206.5C 46.4519,209.743 43.7852,211.91 40.5,213C 7.35916,175.444 0.859157,133.611 21,87.5C 40.4898,52.8476 69.9898,33.1809 109.5,28.5 Z"/></g>
<g><path style="opacity:1" fill="#111010" d="M 104.5,52.5 C 148.605,50.2888 179.438,69.2888 197,109.5C 207.288,145.854 198.788,177.02 171.5,203C 148.347,221.263 122.347,226.93 93.5,220C 49.2887,204.091 28.7887,172.591 32,125.5C 40.3527,85.3143 64.5194,60.981 104.5,52.5 Z"/></g>
<g><path style="opacity:1" fill="#dfdede" d="M 109.5,55.5 C 149.366,55.2452 177.199,73.2452 193,109.5C 203.152,144.433 194.985,174.266 168.5,199C 139.482,220.509 108.816,223.176 76.5,207C 42.682,184.573 30.182,153.407 39,113.5C 51.0679,80.0756 74.5679,60.7422 109.5,55.5 Z"/></g>
<g><path style="opacity:1" fill="#010101" d="M 176.5,186.5 C 175.987,179.359 174.653,172.359 172.5,165.5C 160.182,128.809 134.516,109.809 95.5,108.5C 89.1961,108.439 83.1961,109.439 77.5,111.5C 65.5164,114.322 55.1831,119.989 46.5,128.5C 43.2099,130.124 40.5433,132.457 38.5,135.5C 41.799,93.3656 64.1324,67.8656 105.5,59C 138.533,56.2704 164.367,68.437 183,95.5C 200.023,127.281 197.857,157.615 176.5,186.5 Z"/></g>
<g><path style="opacity:1" fill="#f52f21" d="M 803.5,106.5 C 803.666,112.176 803.499,117.843 803,123.5C 801.761,128.958 800.261,134.291 798.5,139.5C 798.5,139.833 798.5,140.167 798.5,140.5C 794.46,145.537 790.627,150.871 787,156.5C 768.365,174.949 745.865,182.615 719.5,179.5C 700.105,177.422 686.772,167.422 679.5,149.5C 678.662,149.158 678.328,148.492 678.5,147.5C 677.794,136.808 679.294,126.474 683,116.5C 685.412,111.341 688.079,106.341 691,101.5C 696.362,96.9676 701.528,92.301 706.5,87.5C 719.882,78.6551 734.716,74.3217 751,74.5C 765.268,74.0833 778.434,77.5833 790.5,85C 797.533,90.5717 801.866,97.7383 803.5,106.5 Z M 730.5,114.5 C 724.308,120.36 720.975,127.694 720.5,136.5C 720.794,145.343 725.461,149.676 734.5,149.5C 740.335,147.837 744.502,144.171 747,138.5C 754.969,120.714 749.469,112.714 730.5,114.5 Z"/></g>
<g><path style="opacity:1" fill="#231616" d="M 854.5,76.5 C 855.239,76.369 855.906,76.5357 856.5,77C 853.933,80.003 851.266,82.8363 848.5,85.5C 849.075,83.5887 850.075,81.922 851.5,80.5C 852.5,79.1667 853.5,77.8333 854.5,76.5 Z"/></g>
<g><path style="opacity:1" fill="#f42e20" d="M 933.5,78.5 C 932.883,78.6107 932.383,78.944 932,79.5C 931.216,85.9884 930.383,92.3217 929.5,98.5C 929.175,96.8684 928.175,95.8684 926.5,95.5C 918.259,93.5977 909.925,93.0977 901.5,94C 898.241,95.2106 895.408,97.0439 893,99.5C 892.195,102.696 892.362,105.696 893.5,108.5C 899.46,116.294 906.293,123.294 914,129.5C 917.553,133.279 920.053,137.612 921.5,142.5C 921.608,147.87 921.275,153.203 920.5,158.5C 920.672,159.492 920.338,160.158 919.5,160.5C 918.5,160.5 917.5,160.5 916.5,160.5C 916.946,163.01 916.28,165.01 914.5,166.5C 907.005,172.248 898.672,176.414 889.5,179C 879.172,179.5 868.839,179.666 858.5,179.5C 855.373,178.419 852.04,177.753 848.5,177.5C 848.833,170.167 849.167,162.833 849.5,155.5C 856.225,158.264 863.225,159.931 870.5,160.5C 874.962,160.577 879.295,159.91 883.5,158.5C 885.872,157.277 888.372,156.277 891,155.5C 892.636,152.773 892.802,150.107 891.5,147.5C 891.5,147.167 891.5,146.833 891.5,146.5C 891.657,145.127 891.49,143.793 891,142.5C 881.095,132.786 872.261,122.453 864.5,111.5C 863.833,111.5 863.167,111.5 862.5,111.5C 862.5,111.167 862.5,110.833 862.5,110.5C 863.585,98.3348 868.918,88.3348 878.5,80.5C 886.949,75.8781 896.116,73.8781 906,74.5C 914.559,74.7156 923.059,75.549 931.5,77C 932.416,77.2784 933.082,77.7784 933.5,78.5 Z"/></g>
<g><path style="opacity:1" fill="#f32d1f" d="M 424.5,76.5 C 424.196,77.1499 423.863,77.8165 423.5,78.5C 429.261,111.805 435.595,144.972 442.5,178C 432.172,178.5 421.839,178.666 411.5,178.5C 410.595,172.21 409.928,165.877 409.5,159.5C 409.759,155.76 409.426,152.094 408.5,148.5C 393.5,147.167 378.5,147.167 363.5,148.5C 357.106,157.565 351.106,166.898 345.5,176.5C 336.184,177.332 326.851,177.832 317.5,178C 316.944,178.383 316.611,178.883 316.5,179.5C 315.5,179.5 314.5,179.5 313.5,179.5C 314.6,178.395 315.267,177.062 315.5,175.5C 319.399,170.716 323.066,165.716 326.5,160.5C 346.022,132.646 365.688,104.812 385.5,77C 398.496,76.5001 411.496,76.3334 424.5,76.5 Z"/></g>
<g><path style="opacity:1" fill="#f32e20" d="M 558.5,82.5 C 560.912,85.438 562.745,88.7713 564,92.5C 564.499,96.1516 564.665,99.8183 564.5,103.5C 560.962,110.716 556.295,117.216 550.5,123C 545.112,126.361 539.446,129.194 533.5,131.5C 532.227,132.257 532.227,132.923 533.5,133.5C 535.262,134.262 536.262,135.596 536.5,137.5C 536.551,142.187 537.551,146.521 539.5,150.5C 539.5,150.833 539.5,151.167 539.5,151.5C 539.995,159.002 541.995,166.002 545.5,172.5C 545.5,172.833 545.5,173.167 545.5,173.5C 545.758,175.81 545.758,177.81 545.5,179.5C 545.167,179.5 544.833,179.5 544.5,179.5C 544.5,178.833 544.167,178.5 543.5,178.5C 534.348,177.506 525.015,177.173 515.5,177.5C 515.091,171.498 514.591,165.498 514,159.5C 513.495,156.135 512.328,153.135 510.5,150.5C 508.791,142.248 507.291,133.915 506,125.5C 505.617,124.944 505.117,124.611 504.5,124.5C 503.537,123.637 503.537,122.97 504.5,122.5C 512.619,124.461 520.285,123.294 527.5,119C 529.539,117.074 531.206,114.907 532.5,112.5C 533.906,112.027 534.573,111.027 534.5,109.5C 535.765,108.486 536.431,106.986 536.5,105C 536.203,100.351 533.87,97.0175 529.5,95C 520.173,94.5002 510.839,94.3335 501.5,94.5C 500.794,104.813 498.627,114.813 495,124.5C 491.363,142.123 487.863,159.789 484.5,177.5C 475.19,178.498 465.857,178.832 456.5,178.5C 457.96,170.786 459.627,163.119 461.5,155.5C 461.5,155.167 461.5,154.833 461.5,154.5C 464.151,147.849 465.818,140.849 466.5,133.5C 466.5,133.167 466.5,132.833 466.5,132.5C 470.001,124.014 472.001,115.014 472.5,105.5C 474.966,98.4917 476.3,91.1583 476.5,83.5C 476.5,81.1667 476.5,78.8333 476.5,76.5C 499.169,76.3334 521.836,76.5 544.5,77C 549.754,77.58 554.421,79.4133 558.5,82.5 Z"/></g>
<g><path style="opacity:1" fill="#f42f21" d="M 673.5,78.5 C 672.275,79.1522 671.608,80.3189 671.5,82C 671.006,87.6694 670.34,93.1694 669.5,98.5C 669.167,98.5 668.833,98.5 668.5,98.5C 665.607,96.7348 662.274,95.5681 658.5,95C 648.168,93.7958 638.168,94.6291 628.5,97.5C 613.484,103.167 604.818,113.834 602.5,129.5C 602.187,133.042 602.521,136.375 603.5,139.5C 604.6,149.437 609.934,155.937 619.5,159C 632.506,161.294 645.339,160.46 658,156.5C 659.579,156.697 659.745,157.031 658.5,157.5C 655.079,164.079 652.412,171.079 650.5,178.5C 637.509,179.126 624.509,179.46 611.5,179.5C 608.833,179.5 606.167,179.5 603.5,179.5C 576.518,168.96 567.018,149.626 575,121.5C 579.289,109.72 586.122,99.7197 595.5,91.5C 604.68,83.588 615.346,78.4214 627.5,76C 641.343,74.0606 655.177,74.2272 669,76.5C 670.986,76.5687 672.486,77.2353 673.5,78.5 Z"/></g>
<g><path style="opacity:1" fill="#230000" d="M 322.5,101.5 C 323.321,95.1428 324.321,88.8095 325.5,82.5C 325.336,85.1873 325.503,87.854 326,90.5C 326.145,86.9627 326.978,83.6294 328.5,80.5C 330.799,81.6351 332.966,82.9684 335,84.5C 335.165,91.5236 334.665,98.5236 333.5,105.5C 329.724,104.133 326.057,102.8 322.5,101.5 Z"/></g>
<g><path style="opacity:1" fill="#f73021" d="M 834.5,77.5 C 834.5,77.1667 834.5,76.8333 834.5,76.5C 841.167,76.5 847.833,76.5 854.5,76.5C 853.5,77.8333 852.5,79.1667 851.5,80.5C 849.167,81.1667 846.833,81.8333 844.5,82.5C 844.628,84.6547 844.128,86.6547 843,88.5C 839.5,92.6667 836,96.8333 832.5,101C 830.167,101.333 827.833,101.667 825.5,102C 824.944,102.383 824.611,102.883 824.5,103.5C 823.833,103.5 823.167,103.5 822.5,103.5C 827.735,95.0523 831.735,86.3856 834.5,77.5 Z"/></g>
<g><path style="opacity:1" fill="#4b0000" d="M 831.5,79.5 C 827.768,87.9641 823.768,96.2975 819.5,104.5C 819.624,105.107 819.957,105.44 820.5,105.5C 816.618,107.906 812.618,109.239 808.5,109.5C 812.667,101.167 816.833,92.8333 821,84.5C 824.324,82.4207 827.824,80.7541 831.5,79.5 Z"/></g>
<g><path style="opacity:1" fill="#a70b07" d="M 558.5,82.5 C 562.307,84.7747 564.641,88.1081 565.5,92.5C 565.815,96.3714 565.482,100.038 564.5,103.5C 564.665,99.8183 564.499,96.1516 564,92.5C 562.745,88.7713 560.912,85.438 558.5,82.5 Z"/></g>
<g><path style="opacity:1" fill="#b81107" d="M 851.5,80.5 C 850.075,81.922 849.075,83.5887 848.5,85.5C 843.613,90.9121 838.946,96.5788 834.5,102.5C 831.232,103.487 827.898,103.82 824.5,103.5C 824.611,102.883 824.944,102.383 825.5,102C 827.833,101.667 830.167,101.333 832.5,101C 836,96.8333 839.5,92.6667 843,88.5C 844.128,86.6547 844.628,84.6547 844.5,82.5C 846.833,81.8333 849.167,81.1667 851.5,80.5 Z"/></g>
<g><path style="opacity:1" fill="#b30e04" d="M 878.5,80.5 C 868.918,88.3348 863.585,98.3348 862.5,110.5C 862.334,105.821 862.501,101.155 863,96.5C 865.563,91.1075 869.063,86.4409 873.5,82.5C 874.93,81.4625 876.597,80.7959 878.5,80.5 Z"/></g>
<g><path style="opacity:1" fill="#860401" d="M 324.5,77.5 C 324.833,77.5 325.167,77.5 325.5,77.5C 325.5,79.1667 325.5,80.8333 325.5,82.5C 324.321,88.8095 323.321,95.1428 322.5,101.5C 321.833,100.5 321.167,99.5 320.5,98.5C 321.305,92.9975 321.971,87.3308 322.5,81.5C 322.803,79.8857 323.47,78.5523 324.5,77.5 Z"/></g>
<g><path style="opacity:1" fill="#6d0606" d="M 673.5,78.5 C 672.669,85.8173 672.002,93.1506 671.5,100.5C 670.5,100.167 669.833,99.5 669.5,98.5C 670.34,93.1694 671.006,87.6694 671.5,82C 671.608,80.3189 672.275,79.1522 673.5,78.5 Z"/></g>
<g><path style="opacity:1" fill="#9a0904" d="M 756.5,152.5 C 761.999,147.504 765.999,141.504 768.5,134.5C 777.645,104.472 766.645,91.9722 735.5,97C 731.445,98.5644 727.779,100.731 724.5,103.5C 724.5,102.833 724.5,102.167 724.5,101.5C 730.253,95.7987 737.253,93.132 745.5,93.5C 770.775,94.3296 779.609,106.996 772,131.5C 769.491,139.352 765.325,146.185 759.5,152C 758.552,152.483 757.552,152.649 756.5,152.5 Z"/></g>
<g><path style="opacity:1" fill="#a30501" d="M 834.5,77.5 C 831.735,86.3856 827.735,95.0523 822.5,103.5C 822.167,104.5 821.5,105.167 820.5,105.5C 819.957,105.44 819.624,105.107 819.5,104.5C 823.768,96.2975 827.768,87.9641 831.5,79.5C 832.5,78.8333 833.5,78.1667 834.5,77.5 Z"/></g>
<g><path style="opacity:1" fill="#950a05" d="M 929.5,98.5 C 920.701,95.8792 911.701,95.0458 902.5,96C 898.243,97.1107 895.243,99.6107 893.5,103.5C 893.5,105.167 893.5,106.833 893.5,108.5C 892.362,105.696 892.195,102.696 893,99.5C 895.408,97.0439 898.241,95.2106 901.5,94C 909.925,93.0977 918.259,93.5977 926.5,95.5C 928.175,95.8684 929.175,96.8684 929.5,98.5 Z"/></g>
<g><path style="opacity:1" fill="#8e0504" d="M 933.5,78.5 C 932.438,85.7877 931.771,93.121 931.5,100.5C 930.5,100.167 929.833,99.5 929.5,98.5C 930.383,92.3217 931.216,85.9884 932,79.5C 932.383,78.944 932.883,78.6107 933.5,78.5 Z"/></g>
<g><path style="opacity:1" fill="#8d0702" d="M 668.5,98.5 C 661.788,96.7305 654.955,95.7305 648,95.5C 641.101,95.082 634.601,96.4154 628.5,99.5C 628.5,98.8333 628.5,98.1667 628.5,97.5C 638.168,94.6291 648.168,93.7958 658.5,95C 662.274,95.5681 665.607,96.7348 668.5,98.5 Z"/></g>
<g><path style="opacity:1" fill="#a20c06" d="M 706.5,87.5 C 701.528,92.301 696.362,96.9676 691,101.5C 688.079,106.341 685.412,111.341 683,116.5C 679.294,126.474 677.794,136.808 678.5,147.5C 677.511,142.025 677.178,136.358 677.5,130.5C 679.084,119.686 683.084,110.019 689.5,101.5C 693.234,97.4521 697.234,93.6187 701.5,90C 703.078,88.9055 704.745,88.0722 706.5,87.5 Z"/></g>
<g><path style="opacity:1" fill="#930905" d="M 319.5,98.5 C 311.341,95.962 303.008,95.1287 294.5,96C 290.41,96.5435 287.076,98.3768 284.5,101.5C 285.17,97.6557 287.504,95.1557 291.5,94C 300.631,93.0071 309.631,93.6738 318.5,96C 319.252,96.6708 319.586,97.5041 319.5,98.5 Z"/></g>
<g><path style="opacity:1" fill="#1e0200" d="M 534.5,109.5 C 534.573,111.027 533.906,112.027 532.5,112.5C 534.353,107.713 532.686,104.88 527.5,104C 519.895,102.927 512.562,103.427 505.5,105.5C 501.781,118.232 498.615,131.232 496,144.5C 495.768,143.263 495.268,142.263 494.5,141.5C 497.029,127.053 500.029,112.72 503.5,98.5C 503.167,97.8333 502.833,97.1667 502.5,96.5C 510.145,95.3352 517.812,95.1685 525.5,96C 532.728,97.7216 535.728,102.222 534.5,109.5 Z"/></g>
<g><path style="opacity:1" fill="#1e0301" d="M 668.5,98.5 C 668.833,98.5 669.167,98.5 669.5,98.5C 669.833,99.5 670.5,100.167 671.5,100.5C 669.523,102.814 667.523,105.147 665.5,107.5C 642.06,98.6088 622.394,103.609 606.5,122.5C 606.5,122.167 606.5,121.833 606.5,121.5C 610.795,111.204 618.129,103.871 628.5,99.5C 634.601,96.4154 641.101,95.082 648,95.5C 654.955,95.7305 661.788,96.7305 668.5,98.5 Z"/></g>
<g><path style="opacity:1" fill="#1e0302" d="M 768.5,134.5 C 767.883,134.389 767.383,134.056 767,133.5C 762.525,140.131 757.358,146.131 751.5,151.5C 754.229,147.046 756.729,142.38 759,137.5C 764.691,112.529 754.858,101.362 729.5,104C 727.051,104.725 724.717,105.725 722.5,107C 719.255,110.733 716.255,114.566 713.5,118.5C 715.948,112.603 719.615,107.603 724.5,103.5C 727.779,100.731 731.445,98.5644 735.5,97C 766.645,91.9722 777.645,104.472 768.5,134.5 Z"/></g>
<g><path style="opacity:1" fill="#1c0303" d="M 929.5,98.5 C 929.833,99.5 930.5,100.167 931.5,100.5C 930.426,102.284 928.76,103.451 926.5,104C 921.946,104.962 917.446,106.129 913,107.5C 906.684,105.253 900.184,103.92 893.5,103.5C 895.243,99.6107 898.243,97.1107 902.5,96C 911.701,95.0458 920.701,95.8792 929.5,98.5 Z"/></g>
<g><path style="opacity:1" fill="#7f1e17" d="M 476.5,83.5 C 476.3,91.1583 474.966,98.4917 472.5,105.5C 472.443,97.796 473.776,90.4627 476.5,83.5 Z"/></g>
<g><path style="opacity:1" fill="#6b3836" d="M 565.5,92.5 C 566.833,97.8333 566.833,103.167 565.5,108.5C 565.565,108.062 565.399,107.728 565,107.5C 564.768,108.737 564.268,109.737 563.5,110.5C 563.674,108.139 564.007,105.806 564.5,103.5C 565.482,100.038 565.815,96.3714 565.5,92.5 Z"/></g>
<g><path style="opacity:1" fill="#530504" d="M 873.5,82.5 C 869.063,86.4409 865.563,91.1075 863,96.5C 862.501,101.155 862.334,105.821 862.5,110.5C 862.5,110.833 862.5,111.167 862.5,111.5C 861.235,110.486 860.569,108.986 860.5,107C 860.968,104.143 861.134,101.309 861,98.5C 857.859,101.438 854.193,103.438 850,104.5C 849.768,103.263 849.268,102.263 848.5,101.5C 854.195,91.8177 862.529,85.4844 873.5,82.5 Z"/></g>
<g><path style="opacity:1" fill="#470000" d="M 426.5,80.5 C 428.752,80.9156 430.252,82.249 431,84.5C 433.393,100.803 436.559,116.803 440.5,132.5C 442.91,148.798 445.91,164.964 449.5,181C 448.906,181.464 448.239,181.631 447.5,181.5C 446.833,181.5 446.167,181.5 445.5,181.5C 438.691,147.928 432.357,114.261 426.5,80.5 Z"/></g>
<g><path style="opacity:1" fill="#c2170b" d="M 404.5,114.5 C 403.778,114.082 403.278,113.416 403,112.5C 402.243,106.851 401.743,101.184 401.5,95.5C 400.167,95.5 398.833,95.5 397.5,95.5C 397.509,97.3084 397.009,98.9751 396,100.5C 390.156,109.528 384.323,118.528 378.5,127.5C 377.494,128.396 377.494,129.062 378.5,129.5C 377.201,131.099 375.535,131.599 373.5,131C 381.291,119.252 388.958,107.418 396.5,95.5C 398.998,94.0623 401.164,94.3956 403,96.5C 403.831,102.477 404.331,108.477 404.5,114.5 Z"/></g>
<g><path style="opacity:0.955" fill="#faf9f9" d="M 751.5,151.5 C 748.808,153.862 746.141,156.196 743.5,158.5C 731.078,162.421 720.744,159.421 712.5,149.5C 711.696,146.421 710.696,143.421 709.5,140.5C 709.56,132.929 710.893,125.596 713.5,118.5C 716.255,114.566 719.255,110.733 722.5,107C 724.717,105.725 727.051,104.725 729.5,104C 754.858,101.362 764.691,112.529 759,137.5C 756.729,142.38 754.229,147.046 751.5,151.5 Z M 730.5,114.5 C 724.308,120.36 720.975,127.694 720.5,136.5C 720.794,145.343 725.461,149.676 734.5,149.5C 740.335,147.837 744.502,144.171 747,138.5C 754.969,120.714 749.469,112.714 730.5,114.5 Z"/></g>
<g><path style="opacity:1" fill="#1e100f" d="M 834.5,76.5 C 834.5,76.8333 834.5,77.1667 834.5,77.5C 833.5,78.1667 832.5,78.8333 831.5,79.5C 827.824,80.7541 824.324,82.4207 821,84.5C 816.833,92.8333 812.667,101.167 808.5,109.5C 812.618,109.239 816.618,107.906 820.5,105.5C 821.5,105.167 822.167,104.5 822.5,103.5C 823.167,103.5 823.833,103.5 824.5,103.5C 827.898,103.82 831.232,103.487 834.5,102.5C 838.946,96.5788 843.613,90.9121 848.5,85.5C 844.129,92.7176 839.129,99.5509 833.5,106C 829.167,107.667 824.833,109.333 820.5,111C 815.798,111.828 811.131,111.662 806.5,110.5C 811,101.5 815.5,92.5 820,83.5C 824.657,80.7547 829.49,78.4213 834.5,76.5 Z"/></g>
<g><path style="opacity:1" fill="#1e0201" d="M 402.5,115.5 C 398.21,119.386 394.877,124.053 392.5,129.5C 387.833,129.5 383.167,129.5 378.5,129.5C 377.494,129.062 377.494,128.396 378.5,127.5C 379.822,127.67 380.989,127.337 382,126.5C 388.622,116.917 394.456,106.917 399.5,96.5C 400.583,102.839 401.583,109.172 402.5,115.5 Z"/></g>
<g><path style="opacity:1" fill="#1f0201" d="M 862.5,111.5 C 863.167,111.5 863.833,111.5 864.5,111.5C 864.676,116.52 866.509,120.854 870,124.5C 877.397,131.729 884.563,139.062 891.5,146.5C 891.5,146.833 891.5,147.167 891.5,147.5C 891.245,150.016 890.411,152.35 889,154.5C 886.537,155.032 884.703,156.366 883.5,158.5C 879.295,159.91 874.962,160.577 870.5,160.5C 873.575,157.539 874.075,154.206 872,150.5C 865.365,142.864 858.365,135.53 851,128.5C 844.808,119.971 843.975,110.971 848.5,101.5C 849.268,102.263 849.768,103.263 850,104.5C 854.193,103.438 857.859,101.438 861,98.5C 861.134,101.309 860.968,104.143 860.5,107C 860.569,108.986 861.235,110.486 862.5,111.5 Z"/></g>
<g><path style="opacity:1" fill="#b41006" d="M 628.5,97.5 C 628.5,98.1667 628.5,98.8333 628.5,99.5C 618.129,103.871 610.795,111.204 606.5,121.5C 604.619,123.93 603.285,126.596 602.5,129.5C 604.818,113.834 613.484,103.167 628.5,97.5 Z"/></g>
<g><path style="opacity:1" fill="#f0f1a6" d="M 80.5,112.5 C 90.0157,114.846 97.8491,119.846 104,127.5C 104.688,128.332 104.521,128.998 103.5,129.5C 98.1552,124.161 91.8219,120.994 84.5,120C 83.9415,120.725 83.6082,121.558 83.5,122.5C 90.0752,136.316 99.0752,148.316 110.5,158.5C 110.932,159.71 111.599,160.71 112.5,161.5C 115.798,163.996 119.464,165.163 123.5,165C 124.977,163.188 126.31,161.355 127.5,159.5C 127.909,168.515 123.909,171.015 115.5,167C 97.1393,155.105 83.306,139.272 74,119.5C 72.1594,113.506 74.3261,111.173 80.5,112.5 Z"/></g>
<g><path style="opacity:1" fill="#2c1112" d="M 425.5,77.5 C 428.449,78.6141 430.615,80.6141 432,83.5C 434.899,99.8296 437.733,116.163 440.5,132.5C 436.559,116.803 433.393,100.803 431,84.5C 430.252,82.249 428.752,80.9156 426.5,80.5C 425.89,79.609 425.557,78.609 425.5,77.5 Z"/></g>
<g><path style="opacity:1" fill="#4a1c1b" d="M 253.5,103.5 C 253.548,109.022 254.548,114.355 256.5,119.5C 252.741,114.654 251.741,109.32 253.5,103.5 Z"/></g>
<g><path style="opacity:1" fill="#4d0202" d="M 404.5,114.5 C 404.873,119.699 404.873,124.699 404.5,129.5C 403.74,124.85 403.074,120.183 402.5,115.5C 401.583,109.172 400.583,102.839 399.5,96.5C 394.456,106.917 388.622,116.917 382,126.5C 380.989,127.337 379.822,127.67 378.5,127.5C 384.323,118.528 390.156,109.528 396,100.5C 397.009,98.9751 397.509,97.3084 397.5,95.5C 398.833,95.5 400.167,95.5 401.5,95.5C 401.743,101.184 402.243,106.851 403,112.5C 403.278,113.416 403.778,114.082 404.5,114.5 Z"/></g>
<g><path style="opacity:1" fill="#f1edec" d="M 402.5,115.5 C 403.074,120.183 403.74,124.85 404.5,129.5C 400.5,129.5 396.5,129.5 392.5,129.5C 394.877,124.053 398.21,119.386 402.5,115.5 Z"/></g>
<g><path style="opacity:1" fill="#02273a" d="M 77.5,111.5 C 78.791,111.263 79.791,111.596 80.5,112.5C 74.3261,111.173 72.1594,113.506 74,119.5C 83.306,139.272 97.1393,155.105 115.5,167C 123.909,171.015 127.909,168.515 127.5,159.5C 127.5,158.833 127.5,158.167 127.5,157.5C 128.167,157.5 128.833,157.5 129.5,157.5C 133.293,161.967 133.46,166.634 130,171.5C 124.316,180.854 116.482,187.688 106.5,192C 96.4123,195.212 91.5789,191.712 92,181.5C 93.497,177.835 95.497,174.502 98,171.5C 98.7494,170.365 98.5827,169.365 97.5,168.5C 94.0899,171.665 91.4232,175.332 89.5,179.5C 74.3932,163.561 58.7266,148.061 42.5,133C 44.0414,131.629 45.3747,130.129 46.5,128.5C 55.1831,119.989 65.5164,114.322 77.5,111.5 Z"/></g>
<g><path style="opacity:1" fill="#191212" d="M 256.5,119.5 C 257.906,119.973 258.573,120.973 258.5,122.5C 257.094,122.027 256.427,121.027 256.5,119.5 Z"/></g>
<g><path style="opacity:1" fill="#aa1108" d="M 864.5,111.5 C 872.261,122.453 881.095,132.786 891,142.5C 891.49,143.793 891.657,145.127 891.5,146.5C 884.563,139.062 877.397,131.729 870,124.5C 866.509,120.854 864.676,116.52 864.5,111.5 Z"/></g>
<g><path style="opacity:1" fill="#b21106" d="M 564.5,103.5 C 564.007,105.806 563.674,108.139 563.5,110.5C 559.877,115.539 555.877,120.373 551.5,125C 545.792,128.69 539.792,131.523 533.5,133.5C 532.227,132.923 532.227,132.257 533.5,131.5C 539.446,129.194 545.112,126.361 550.5,123C 556.295,117.216 560.962,110.716 564.5,103.5 Z"/></g>
<g><path style="opacity:1" fill="#093952" d="M 95.5,108.5 C 94.0484,109.302 92.3817,109.802 90.5,110C 98.7279,117.806 106.728,125.806 114.5,134C 115.094,134.464 115.761,134.631 116.5,134.5C 114.774,136.228 113.441,138.228 112.5,140.5C 111.527,142.948 111.194,145.615 111.5,148.5C 111.167,149.833 110.833,151.167 110.5,152.5C 109.662,152.842 109.328,153.508 109.5,154.5C 109.833,155.833 110.167,157.167 110.5,158.5C 99.0752,148.316 90.0752,136.316 83.5,122.5C 83.6082,121.558 83.9415,120.725 84.5,120C 91.8219,120.994 98.1552,124.161 103.5,129.5C 104.521,128.998 104.688,128.332 104,127.5C 97.8491,119.846 90.0157,114.846 80.5,112.5C 79.791,111.596 78.791,111.263 77.5,111.5C 83.1961,109.439 89.1961,108.439 95.5,108.5 Z"/></g>
<g><path style="opacity:1" fill="#b31207" d="M 260.5,89.5 C 259.309,93.2664 257.809,96.9331 256,100.5C 254.231,108.39 255.898,115.39 261,121.5C 268.698,128.864 276.031,136.53 283,144.5C 285.167,149.156 284.334,153.156 280.5,156.5C 281.299,153.57 281.632,150.57 281.5,147.5C 274.932,138.261 267.265,129.927 258.5,122.5C 258.573,120.973 257.906,119.973 256.5,119.5C 254.548,114.355 253.548,109.022 253.5,103.5C 253.735,97.6972 256.068,93.0306 260.5,89.5 Z"/></g>
<g><path style="opacity:1" fill="#c3170b" d="M 724.5,101.5 C 724.5,102.167 724.5,102.833 724.5,103.5C 719.615,107.603 715.948,112.603 713.5,118.5C 711.36,120.7 709.86,123.367 709,126.5C 708.185,131.352 708.352,136.019 709.5,140.5C 710.696,143.421 711.696,146.421 712.5,149.5C 710.526,147.572 709.026,145.239 708,142.5C 704.718,125.092 710.218,111.425 724.5,101.5 Z"/></g>
<g><path style="opacity:1" fill="#231211" d="M 258.5,122.5 C 267.265,129.927 274.932,138.261 281.5,147.5C 273.471,139.473 265.805,131.139 258.5,122.5 Z"/></g>
<g><path style="opacity:1" fill="#5b1311" d="M 713.5,118.5 C 710.893,125.596 709.56,132.929 709.5,140.5C 708.352,136.019 708.185,131.352 709,126.5C 709.86,123.367 711.36,120.7 713.5,118.5 Z"/></g>
<g><path style="opacity:1" fill="#801c15" d="M 472.5,105.5 C 472.001,115.014 470.001,124.014 466.5,132.5C 467.716,123.219 469.716,114.219 472.5,105.5 Z"/></g>
<g><path style="opacity:1" fill="#7e1812" d="M 803.5,106.5 C 804.654,112.987 804.821,119.654 804,126.5C 803.365,131.243 801.865,135.576 799.5,139.5C 799.167,139.5 798.833,139.5 798.5,139.5C 800.261,134.291 801.761,128.958 803,123.5C 803.499,117.843 803.666,112.176 803.5,106.5 Z"/></g>
<g><path style="opacity:1" fill="#200806" d="M 565.5,108.5 C 562.78,124.557 553.447,134.557 537.5,138.5C 537.5,137.833 537.167,137.5 536.5,137.5C 536.262,135.596 535.262,134.262 533.5,133.5C 539.792,131.523 545.792,128.69 551.5,125C 555.877,120.373 559.877,115.539 563.5,110.5C 564.268,109.737 564.768,108.737 565,107.5C 565.399,107.728 565.565,108.062 565.5,108.5 Z"/></g>
<g><path style="opacity:1" fill="#760200" d="M 286.5,109.5 C 294.364,116.784 302.698,123.618 311.5,130C 316.88,134.632 320.88,140.132 323.5,146.5C 320.305,147.039 317.805,146.039 316,143.5C 315.817,146.365 315.317,149.031 314.5,151.5C 314.665,148.15 314.498,144.817 314,141.5C 313.722,140.584 313.222,139.918 312.5,139.5C 311.277,136.726 309.777,134.059 308,131.5C 299.96,124.961 292.794,117.628 286.5,109.5 Z"/></g>
<g><path style="opacity:1" fill="#edefa5" d="M 145.5,135.5 C 145.437,140.754 144.27,145.754 142,150.5C 142.418,145.535 142.418,140.535 142,135.5C 137.573,132.013 132.74,131.513 127.5,134C 123.042,135.886 119.375,138.719 116.5,142.5C 114.517,142.843 113.183,142.176 112.5,140.5C 113.441,138.228 114.774,136.228 116.5,134.5C 121.562,130.81 127.228,128.476 133.5,127.5C 139.312,127.721 143.312,130.388 145.5,135.5 Z"/></g>
<g><path style="opacity:1" fill="#024b6c" d="M 95.5,108.5 C 134.516,109.809 160.182,128.809 172.5,165.5C 172.318,167.591 172.652,169.591 173.5,171.5C 172.998,172.521 172.332,172.688 171.5,172C 163.64,162.806 155.14,154.306 146,146.5C 146.709,142.721 146.542,139.054 145.5,135.5C 143.312,130.388 139.312,127.721 133.5,127.5C 127.228,128.476 121.562,130.81 116.5,134.5C 115.761,134.631 115.094,134.464 114.5,134C 106.728,125.806 98.7279,117.806 90.5,110C 92.3817,109.802 94.0484,109.302 95.5,108.5 Z"/></g>
<g><path style="opacity:1" fill="#f32c1e" d="M 324.5,77.5 C 323.47,78.5523 322.803,79.8857 322.5,81.5C 321.971,87.3308 321.305,92.9975 320.5,98.5C 320.167,98.5 319.833,98.5 319.5,98.5C 319.586,97.5041 319.252,96.6708 318.5,96C 309.631,93.6738 300.631,93.0071 291.5,94C 287.504,95.1557 285.17,97.6557 284.5,101.5C 284.963,104.221 285.629,106.888 286.5,109.5C 292.794,117.628 299.96,124.961 308,131.5C 309.777,134.059 311.277,136.726 312.5,139.5C 312.012,160.328 301.679,173.162 281.5,178C 272.875,179.201 264.208,179.701 255.5,179.5C 249.853,178.622 244.187,177.789 238.5,177C 239.984,172.838 240.651,168.504 240.5,164C 240.498,160.979 240.164,158.146 239.5,155.5C 240.209,154.596 241.209,154.263 242.5,154.5C 245.548,156.288 248.882,157.788 252.5,159C 255.146,159.497 257.813,159.664 260.5,159.5C 267.516,161.355 274.182,160.355 280.5,156.5C 284.334,153.156 285.167,149.156 283,144.5C 276.031,136.53 268.698,128.864 261,121.5C 255.898,115.39 254.231,108.39 256,100.5C 257.809,96.9331 259.309,93.2664 260.5,89.5C 261.927,86.2364 264.261,83.7364 267.5,82C 280.001,75.2116 293.335,72.8783 307.5,75C 313.367,75.4431 319.034,76.2764 324.5,77.5 Z"/></g>
<g><path style="opacity:1" fill="#580909" d="M 606.5,121.5 C 606.5,121.833 606.5,122.167 606.5,122.5C 604.121,127.893 603.121,133.56 603.5,139.5C 602.521,136.375 602.187,133.042 602.5,129.5C 603.285,126.596 604.619,123.93 606.5,121.5 Z"/></g>
<g><path style="opacity:1" fill="#5c0000" d="M 677.5,130.5 C 677.178,136.358 677.511,142.025 678.5,147.5C 678.328,148.492 678.662,149.158 679.5,149.5C 679.21,152.785 679.877,155.785 681.5,158.5C 678.516,157.216 677.016,154.882 677,151.5C 676.179,144.321 676.345,137.321 677.5,130.5 Z"/></g>
<g><path style="opacity:1" fill="#751a15" d="M 466.5,133.5 C 465.818,140.849 464.151,147.849 461.5,154.5C 462.178,147.161 463.844,140.161 466.5,133.5 Z"/></g>
<g><path style="opacity:1" fill="#021a29" d="M 46.5,128.5 C 45.3747,130.129 44.0414,131.629 42.5,133C 58.7266,148.061 74.3932,163.561 89.5,179.5C 81.782,198.79 88.1153,205.457 108.5,199.5C 109.239,199.369 109.906,199.536 110.5,200C 109.044,200.423 108.544,201.256 109,202.5C 112.748,205.649 116.248,209.149 119.5,213C 121.058,213.21 122.391,213.71 123.5,214.5C 86.733,215.967 60.233,199.967 44,166.5C 40.224,156.511 38.3907,146.177 38.5,135.5C 40.5433,132.457 43.2099,130.124 46.5,128.5 Z"/></g>
<g><path style="opacity:1" fill="#9dc183" d="M 112.5,140.5 C 113.183,142.176 114.517,142.843 116.5,142.5C 119.246,143.251 121.913,144.251 124.5,145.5C 125.848,146.601 127.348,147.601 129,148.5C 129.483,149.448 129.649,150.448 129.5,151.5C 128.833,151.5 128.167,151.5 127.5,151.5C 124.895,147.275 121.061,144.942 116,144.5C 114.629,146.041 113.129,147.375 111.5,148.5C 111.194,145.615 111.527,142.948 112.5,140.5 Z"/></g>
<g><path style="opacity:1" fill="#180d0d" d="M 505.5,105.5 C 500.271,131.143 495.105,156.81 490,182.5C 478.184,183.926 466.351,183.759 454.5,182C 453.226,181.023 453.226,180.189 454.5,179.5C 464.198,179.382 474.198,179.549 484.5,180C 485,180.5 485.5,181 486,181.5C 488.555,167.968 491.388,154.635 494.5,141.5C 495.268,142.263 495.768,143.263 496,144.5C 498.615,131.232 501.781,118.232 505.5,105.5 Z"/></g>
<g><path style="opacity:1" fill="#401011" d="M 504.5,124.5 C 505.117,124.611 505.617,124.944 506,125.5C 507.291,133.915 508.791,142.248 510.5,150.5C 511.827,157.785 512.827,165.118 513.5,172.5C 513.5,174.833 513.5,177.167 513.5,179.5C 513.5,180.167 513.5,180.833 513.5,181.5C 510.918,162.563 507.918,143.563 504.5,124.5 Z"/></g>
<g><path style="opacity:1" fill="#6a1e19" d="M 536.5,137.5 C 537.167,137.5 537.5,137.833 537.5,138.5C 538.167,142.5 538.833,146.5 539.5,150.5C 537.551,146.521 536.551,142.187 536.5,137.5 Z"/></g>
<g><path style="opacity:1" fill="#361919" d="M 798.5,139.5 C 798.833,139.5 799.167,139.5 799.5,139.5C 799.308,143.102 797.974,146.102 795.5,148.5C 796.501,145.828 797.501,143.162 798.5,140.5C 798.5,140.167 798.5,139.833 798.5,139.5 Z"/></g>
<g><path style="opacity:1" fill="#8e120e" d="M 921.5,142.5 C 923.827,147.917 923.494,153.25 920.5,158.5C 921.275,153.203 921.608,147.87 921.5,142.5 Z"/></g>
<g><path style="opacity:1" fill="#249161" d="M 124.5,145.5 C 128.42,146.127 131.753,147.793 134.5,150.5C 133.549,151.919 133.216,153.585 133.5,155.5C 132.833,155.5 132.5,155.833 132.5,156.5C 131.391,156.557 130.391,156.89 129.5,157.5C 128.833,157.5 128.167,157.5 127.5,157.5C 126.833,157.5 126.5,157.167 126.5,156.5C 127.167,156.5 127.5,156.167 127.5,155.5C 128.674,154.486 129.34,153.153 129.5,151.5C 129.649,150.448 129.483,149.448 129,148.5C 127.348,147.601 125.848,146.601 124.5,145.5 Z"/></g>
<g><path style="opacity:1" fill="#1f0908" d="M 689.5,101.5 C 683.084,110.019 679.084,119.686 677.5,130.5C 676.345,137.321 676.179,144.321 677,151.5C 677.016,154.882 678.516,157.216 681.5,158.5C 688.185,170.178 698.185,177.178 711.5,179.5C 716.916,181.029 722.583,181.695 728.5,181.5C 732.681,181.499 736.681,181.166 740.5,180.5C 764.276,178.792 782.609,168.125 795.5,148.5C 790.458,159.045 782.791,167.212 772.5,173C 746.631,185.606 719.964,187.939 692.5,180C 678.213,172.925 670.88,161.425 670.5,145.5C 670.575,131.442 674.742,118.775 683,107.5C 685.037,105.294 687.203,103.294 689.5,101.5 Z"/></g>
<g><path style="opacity:1" fill="#39aed9" d="M 127.5,151.5 C 127.53,152.497 127.03,153.164 126,153.5C 120.504,153.139 115.338,152.806 110.5,152.5C 110.833,151.167 111.167,149.833 111.5,148.5C 113.129,147.375 114.629,146.041 116,144.5C 121.061,144.942 124.895,147.275 127.5,151.5 Z"/></g>
<g><path style="opacity:1" fill="#1e0201" d="M 325.5,77.5 C 330.734,79.0934 334.734,82.0934 337.5,86.5C 336.918,93.5691 335.918,100.569 334.5,107.5C 324.289,103.103 313.956,102.603 303.5,106C 298.838,109.307 298.338,113.14 302,117.5C 309.698,124.864 317.031,132.53 324,140.5C 327.572,146.811 328.405,153.478 326.5,160.5C 323.066,165.716 319.399,170.716 315.5,175.5C 314.833,175.833 314.167,176.167 313.5,176.5C 297.315,183.766 280.648,185.433 263.5,181.5C 268.844,181.666 274.177,181.499 279.5,181C 281.382,180.802 283.048,180.302 284.5,179.5C 293.452,177.358 300.786,172.692 306.5,165.5C 309.292,165.548 311.125,164.215 312,161.5C 313.727,158.382 314.561,155.049 314.5,151.5C 315.317,149.031 315.817,146.365 316,143.5C 317.805,146.039 320.305,147.039 323.5,146.5C 320.88,140.132 316.88,134.632 311.5,130C 302.698,123.618 294.364,116.784 286.5,109.5C 285.629,106.888 284.963,104.221 284.5,101.5C 287.076,98.3768 290.41,96.5435 294.5,96C 303.008,95.1287 311.341,95.962 319.5,98.5C 319.833,98.5 320.167,98.5 320.5,98.5C 321.167,99.5 321.833,100.5 322.5,101.5C 326.057,102.8 329.724,104.133 333.5,105.5C 334.665,98.5236 335.165,91.5236 335,84.5C 332.966,82.9684 330.799,81.6351 328.5,80.5C 326.978,83.6294 326.145,86.9627 326,90.5C 325.503,87.854 325.336,85.1873 325.5,82.5C 325.5,80.8333 325.5,79.1667 325.5,77.5 Z"/></g>
<g><path style="opacity:1" fill="#1c0404" d="M 365.5,150.5 C 378.99,149.504 392.656,149.171 406.5,149.5C 406.5,151.167 406.5,152.833 406.5,154.5C 396.494,154.334 386.494,154.5 376.5,155C 370.5,164.333 364.5,173.667 358.5,183C 342.741,184.102 327.074,183.436 311.5,181C 312.044,180.283 312.711,179.783 313.5,179.5C 314.5,179.5 315.5,179.5 316.5,179.5C 326.5,179.5 336.5,179.5 346.5,179.5C 346.639,181.337 347.306,181.67 348.5,180.5C 354.249,170.666 360.249,160.999 366.5,151.5C 366.376,150.893 366.043,150.56 365.5,150.5 Z"/></g>
<g><path style="opacity:1" fill="#670301" d="M 768.5,134.5 C 765.999,141.504 761.999,147.504 756.5,152.5C 752.58,155.426 748.247,157.426 743.5,158.5C 746.141,156.196 748.808,153.862 751.5,151.5C 757.358,146.131 762.525,140.131 767,133.5C 767.383,134.056 767.883,134.389 768.5,134.5 Z"/></g>
<g><path style="opacity:1" fill="#990401" d="M 424.5,76.5 C 425.167,76.5 425.5,76.8333 425.5,77.5C 425.557,78.609 425.89,79.609 426.5,80.5C 432.357,114.261 438.691,147.928 445.5,181.5C 444.833,181.167 444.167,180.833 443.5,180.5C 432.833,179.833 422.167,179.167 411.5,178.5C 421.839,178.666 432.172,178.5 442.5,178C 435.595,144.972 429.261,111.805 423.5,78.5C 423.863,77.8165 424.196,77.1499 424.5,76.5 Z"/></g>
<g><path style="opacity:1" fill="#326667" d="M 127.5,151.5 C 128.167,151.5 128.833,151.5 129.5,151.5C 129.34,153.153 128.674,154.486 127.5,155.5C 121.455,155.697 115.455,155.363 109.5,154.5C 109.328,153.508 109.662,152.842 110.5,152.5C 115.338,152.806 120.504,153.139 126,153.5C 127.03,153.164 127.53,152.497 127.5,151.5 Z"/></g>
<g><path style="opacity:1" fill="#8d0301" d="M 891.5,147.5 C 892.802,150.107 892.636,152.773 891,155.5C 888.372,156.277 885.872,157.277 883.5,158.5C 884.703,156.366 886.537,155.032 889,154.5C 890.411,152.35 891.245,150.016 891.5,147.5 Z"/></g>
<g><path style="opacity:1" fill="#8a0d0b" d="M 242.5,154.5 C 248.813,155.422 254.813,157.088 260.5,159.5C 257.813,159.664 255.146,159.497 252.5,159C 248.882,157.788 245.548,156.288 242.5,154.5 Z"/></g>
<g><path style="opacity:1" fill="#1b0303" d="M 847.5,154.5 C 846.076,162.776 845.743,171.11 846.5,179.5C 850.407,179.143 854.407,179.143 858.5,179.5C 877.211,184.104 894.878,181.438 911.5,171.5C 903.334,178.73 893.668,182.563 882.5,183C 866.098,185.285 849.765,184.951 833.5,182C 832.248,179.959 831.581,177.625 831.5,175C 831.94,169.162 832.44,163.328 833,157.5C 837.698,155.951 842.531,154.951 847.5,154.5 Z"/></g>
<g><path style="opacity:1" fill="#981a11" d="M 539.5,151.5 C 542.272,158.166 544.272,165.166 545.5,172.5C 541.995,166.002 539.995,159.002 539.5,151.5 Z"/></g>
<g><path style="opacity:1" fill="#696335" d="M 109.5,154.5 C 115.455,155.363 121.455,155.697 127.5,155.5C 127.5,156.167 127.167,156.5 126.5,156.5C 121.604,158.428 116.938,160.095 112.5,161.5C 111.599,160.71 110.932,159.71 110.5,158.5C 110.167,157.167 109.833,155.833 109.5,154.5 Z"/></g>
<g><path style="opacity:1" fill="#42503b" d="M 126.5,156.5 C 126.5,157.167 126.833,157.5 127.5,157.5C 127.5,158.167 127.5,158.833 127.5,159.5C 126.31,161.355 124.977,163.188 123.5,165C 119.464,165.163 115.798,163.996 112.5,161.5C 116.938,160.095 121.604,158.428 126.5,156.5 Z"/></g>
<g><path style="opacity:1" fill="#590100" d="M 314.5,151.5 C 314.561,155.049 313.727,158.382 312,161.5C 311.125,164.215 309.292,165.548 306.5,165.5C 309.678,161.022 312.345,156.355 314.5,151.5 Z"/></g>
<g><path style="opacity:1" fill="#084460" d="M 145.5,135.5 C 146.542,139.054 146.709,142.721 146,146.5C 155.14,154.306 163.64,162.806 171.5,172C 172.332,172.688 172.998,172.521 173.5,171.5C 172.652,169.591 172.318,167.591 172.5,165.5C 174.653,172.359 175.987,179.359 176.5,186.5C 173.5,190.167 170.167,193.5 166.5,196.5C 166.5,195.833 166.167,195.5 165.5,195.5C 166.537,193.262 166.703,190.929 166,188.5C 158.216,173.552 147.716,160.885 134.5,150.5C 131.753,147.793 128.42,146.127 124.5,145.5C 121.913,144.251 119.246,143.251 116.5,142.5C 119.375,138.719 123.042,135.886 127.5,134C 132.74,131.513 137.573,132.013 142,135.5C 142.418,140.535 142.418,145.535 142,150.5C 144.27,145.754 145.437,140.754 145.5,135.5 Z"/></g>
<g><path style="opacity:1" fill="#651b10" d="M 919.5,160.5 C 918.831,163.849 917.164,166.516 914.5,168.5C 914.5,167.833 914.5,167.167 914.5,166.5C 916.28,165.01 916.946,163.01 916.5,160.5C 917.5,160.5 918.5,160.5 919.5,160.5 Z"/></g>
<g><path style="opacity:1" fill="#440000" d="M 364.5,150.5 C 364.833,150.5 365.167,150.5 365.5,150.5C 366.043,150.56 366.376,150.893 366.5,151.5C 360.249,160.999 354.249,170.666 348.5,180.5C 347.306,181.67 346.639,181.337 346.5,179.5C 352.239,169.694 358.239,160.027 364.5,150.5 Z"/></g>
<g><path style="opacity:1" fill="#461010" d="M 658.5,157.5 C 656.208,165.38 653.541,173.047 650.5,180.5C 650.5,180.167 650.5,179.833 650.5,179.5C 650.5,179.167 650.5,178.833 650.5,178.5C 652.412,171.079 655.079,164.079 658.5,157.5 Z"/></g>
<g><path style="opacity:1" fill="#991008" d="M 595.5,91.5 C 586.122,99.7197 579.289,109.72 575,121.5C 567.018,149.626 576.518,168.96 603.5,179.5C 578.869,172.924 568.203,156.924 571.5,131.5C 573.917,114.642 581.917,101.309 595.5,91.5 Z"/></g>
<g><path style="opacity:1" fill="#b21208" d="M 409.5,159.5 C 408.833,158.167 408.167,156.833 407.5,155.5C 407.5,153.167 407.5,150.833 407.5,148.5C 392.794,147.85 378.461,148.517 364.5,150.5C 358.239,160.027 352.239,169.694 346.5,179.5C 336.5,179.5 326.5,179.5 316.5,179.5C 316.611,178.883 316.944,178.383 317.5,178C 326.851,177.832 336.184,177.332 345.5,176.5C 351.106,166.898 357.106,157.565 363.5,148.5C 378.5,147.167 393.5,147.167 408.5,148.5C 409.426,152.094 409.759,155.76 409.5,159.5 Z"/></g>
<g><path style="opacity:1" fill="#7c0400" d="M 407.5,155.5 C 406.833,155.5 406.5,155.167 406.5,154.5C 406.5,152.833 406.5,151.167 406.5,149.5C 392.656,149.171 378.99,149.504 365.5,150.5C 365.167,150.5 364.833,150.5 364.5,150.5C 378.461,148.517 392.794,147.85 407.5,148.5C 407.5,150.833 407.5,153.167 407.5,155.5 Z"/></g>
<g><path style="opacity:1" fill="#9f0c05" d="M 679.5,149.5 C 686.772,167.422 700.105,177.422 719.5,179.5C 716.833,179.5 714.167,179.5 711.5,179.5C 698.185,177.178 688.185,170.178 681.5,158.5C 679.877,155.785 679.21,152.785 679.5,149.5 Z"/></g>
<g><path style="opacity:1" fill="#eef0a4" d="M 132.5,156.5 C 136.157,160.854 137.324,165.854 136,171.5C 134.426,175.646 132.593,179.646 130.5,183.5C 124.569,190.765 117.236,196.098 108.5,199.5C 88.1153,205.457 81.782,198.79 89.5,179.5C 91.4232,175.332 94.0899,171.665 97.5,168.5C 98.5827,169.365 98.7494,170.365 98,171.5C 95.497,174.502 93.497,177.835 92,181.5C 91.5789,191.712 96.4123,195.212 106.5,192C 116.482,187.688 124.316,180.854 130,171.5C 133.46,166.634 133.293,161.967 129.5,157.5C 130.391,156.89 131.391,156.557 132.5,156.5 Z"/></g>
<g><path style="opacity:1" fill="#2e0e0f" d="M 440.5,132.5 C 444.803,148.18 448.136,164.18 450.5,180.5C 450.179,182.048 449.179,182.715 447.5,182.5C 447.5,182.167 447.5,181.833 447.5,181.5C 448.239,181.631 448.906,181.464 449.5,181C 445.91,164.964 442.91,148.798 440.5,132.5 Z"/></g>
<g><path style="opacity:1" fill="#770301" d="M 847.5,154.5 C 848.492,154.328 849.158,154.662 849.5,155.5C 849.167,162.833 848.833,170.167 848.5,177.5C 852.04,177.753 855.373,178.419 858.5,179.5C 854.407,179.143 850.407,179.143 846.5,179.5C 845.743,171.11 846.076,162.776 847.5,154.5 Z"/></g>
<g><path style="opacity:1" fill="#5a5d5d" d="M 914.5,168.5 C 914.5,170.5 913.5,171.5 911.5,171.5C 912.167,170.167 913.167,169.167 914.5,168.5 Z"/></g>
<g><path style="opacity:1" fill="#eceda5" d="M 134.5,150.5 C 147.716,160.885 158.216,173.552 166,188.5C 166.703,190.929 166.537,193.262 165.5,195.5C 163.262,196.537 160.929,196.703 158.5,196C 152.116,193.086 147.449,188.919 144.5,183.5C 148.69,186.928 153.357,189.262 158.5,190.5C 158.71,185.584 157.21,181.251 154,177.5C 148.034,169.367 141.201,162.034 133.5,155.5C 133.216,153.585 133.549,151.919 134.5,150.5 Z"/></g>
<g><path style="opacity:1" fill="#c41407" d="M 510.5,150.5 C 512.328,153.135 513.495,156.135 514,159.5C 514.591,165.498 515.091,171.498 515.5,177.5C 525.015,177.173 534.348,177.506 543.5,178.5C 533.833,178.5 524.167,178.5 514.5,178.5C 514.795,176.265 514.461,174.265 513.5,172.5C 512.827,165.118 511.827,157.785 510.5,150.5 Z"/></g>
<g><path style="opacity:1" fill="#81140f" d="M 545.5,173.5 C 546.871,175.936 547.871,178.603 548.5,181.5C 547.29,181.068 546.29,180.401 545.5,179.5C 545.758,177.81 545.758,175.81 545.5,173.5 Z"/></g>
<g><path style="opacity:1" fill="#7a0704" d="M 534.5,109.5 C 535.728,102.222 532.728,97.7216 525.5,96C 517.812,95.1685 510.145,95.3352 502.5,96.5C 502.833,97.1667 503.167,97.8333 503.5,98.5C 500.029,112.72 497.029,127.053 494.5,141.5C 491.388,154.635 488.555,167.968 486,181.5C 485.5,181 485,180.5 484.5,180C 474.198,179.549 464.198,179.382 454.5,179.5C 456.057,171.173 458.39,163.173 461.5,155.5C 459.627,163.119 457.96,170.786 456.5,178.5C 465.857,178.832 475.19,178.498 484.5,177.5C 487.863,159.789 491.363,142.123 495,124.5C 498.627,114.813 500.794,104.813 501.5,94.5C 510.839,94.3335 520.173,94.5002 529.5,95C 533.87,97.0175 536.203,100.351 536.5,105C 536.431,106.986 535.765,108.486 534.5,109.5 Z"/></g>
<g><path style="opacity:1" fill="#730200" d="M 513.5,172.5 C 514.461,174.265 514.795,176.265 514.5,178.5C 524.167,178.5 533.833,178.5 543.5,178.5C 544.167,178.5 544.5,178.833 544.5,179.5C 534.167,179.5 523.833,179.5 513.5,179.5C 513.5,177.167 513.5,174.833 513.5,172.5 Z"/></g>
<g><path style="opacity:1" fill="#06354c" d="M 133.5,155.5 C 141.201,162.034 148.034,169.367 154,177.5C 157.21,181.251 158.71,185.584 158.5,190.5C 153.357,189.262 148.69,186.928 144.5,183.5C 147.449,188.919 152.116,193.086 158.5,196C 160.929,196.703 163.262,196.537 165.5,195.5C 166.167,195.5 166.5,195.833 166.5,196.5C 162.844,199.663 158.844,202.329 154.5,204.5C 146.847,197.185 138.847,190.185 130.5,183.5C 132.593,179.646 134.426,175.646 136,171.5C 137.324,165.854 136.157,160.854 132.5,156.5C 132.5,155.833 132.833,155.5 133.5,155.5 Z"/></g>
<g><path style="opacity:1" fill="#800c07" d="M 239.5,155.5 C 240.164,158.146 240.498,160.979 240.5,164C 240.651,168.504 239.984,172.838 238.5,177C 244.187,177.789 249.853,178.622 255.5,179.5C 265.009,180.636 274.676,180.636 284.5,179.5C 283.048,180.302 281.382,180.802 279.5,181C 274.177,181.499 268.844,181.666 263.5,181.5C 254.763,181.061 246.097,180.061 237.5,178.5C 238.208,170.842 238.875,163.176 239.5,155.5 Z"/></g>
<g><path style="opacity:1" fill="#b21107" d="M 312.5,139.5 C 313.222,139.918 313.722,140.584 314,141.5C 314.498,144.817 314.665,148.15 314.5,151.5C 312.345,156.355 309.678,161.022 306.5,165.5C 300.786,172.692 293.452,177.358 284.5,179.5C 274.676,180.636 265.009,180.636 255.5,179.5C 264.208,179.701 272.875,179.201 281.5,178C 301.679,173.162 312.012,160.328 312.5,139.5 Z"/></g>
<g><path style="opacity:1" fill="#2c0a07" d="M 407.5,155.5 C 408.167,156.833 408.833,158.167 409.5,159.5C 409.928,165.877 410.595,172.21 411.5,178.5C 422.167,179.167 432.833,179.833 443.5,180.5C 432.65,180.577 421.65,180.577 410.5,180.5C 409.174,172.21 408.174,163.876 407.5,155.5 Z"/></g>
<g><path style="opacity:1" fill="#a80d04" d="M 650.5,178.5 C 650.5,178.833 650.5,179.167 650.5,179.5C 645.507,179.916 640.507,180.249 635.5,180.5C 627.316,180.826 619.316,180.492 611.5,179.5C 624.509,179.46 637.509,179.126 650.5,178.5 Z"/></g>
<g><path style="opacity:1" fill="#a90c04" d="M 798.5,140.5 C 797.501,143.162 796.501,145.828 795.5,148.5C 782.609,168.125 764.276,178.792 740.5,180.5C 733.313,180.825 726.313,180.491 719.5,179.5C 745.865,182.615 768.365,174.949 787,156.5C 790.627,150.871 794.46,145.537 798.5,140.5 Z"/></g>
<g><path style="opacity:1" fill="#980804" d="M 914.5,166.5 C 914.5,167.167 914.5,167.833 914.5,168.5C 913.167,169.167 912.167,170.167 911.5,171.5C 894.878,181.438 877.211,184.104 858.5,179.5C 868.839,179.666 879.172,179.5 889.5,179C 898.672,176.414 907.005,172.248 914.5,166.5 Z"/></g>
<g><path style="opacity:1" fill="#0a0101" d="M 410.5,180.5 C 421.65,180.577 432.65,180.577 443.5,180.5C 444.167,180.833 444.833,181.167 445.5,181.5C 446.167,181.5 446.833,181.5 447.5,181.5C 447.5,181.833 447.5,182.167 447.5,182.5C 437.5,182.5 427.5,182.5 417.5,182.5C 414.848,182.59 412.515,181.924 410.5,180.5 Z"/></g>
<g><path style="opacity:1" fill="#1a0f0f" d="M 513.5,179.5 C 523.833,179.5 534.167,179.5 544.5,179.5C 544.833,179.5 545.167,179.5 545.5,179.5C 546.29,180.401 547.29,181.068 548.5,181.5C 543.376,182.829 537.876,183.495 532,183.5C 526.5,183.333 521,183.167 515.5,183C 514.584,182.722 513.918,182.222 513.5,181.5C 513.5,180.833 513.5,180.167 513.5,179.5 Z"/></g>
<g><path style="opacity:1" fill="#6f0200" d="M 711.5,179.5 C 714.167,179.5 716.833,179.5 719.5,179.5C 726.313,180.491 733.313,180.825 740.5,180.5C 736.681,181.166 732.681,181.499 728.5,181.5C 722.583,181.695 716.916,181.029 711.5,179.5 Z"/></g>
<g><path style="opacity:1" fill="#1a1717" d="M 313.5,176.5 C 309.439,179.7 304.772,181.867 299.5,183C 293.735,184.322 287.901,185.155 282,185.5C 269.132,184.3 256.298,182.8 243.5,181C 240.949,180.998 238.949,180.164 237.5,178.5C 246.097,180.061 254.763,181.061 263.5,181.5C 280.648,185.433 297.315,183.766 313.5,176.5 Z"/></g>
<g><path style="opacity:1" fill="#393737" d="M 450.5,180.5 C 451.404,181.209 451.737,182.209 451.5,183.5C 439.988,183.828 428.654,183.495 417.5,182.5C 427.5,182.5 437.5,182.5 447.5,182.5C 449.179,182.715 450.179,182.048 450.5,180.5 Z"/></g>
<g><path style="opacity:1" fill="#190909" d="M 571.5,131.5 C 568.203,156.924 578.869,172.924 603.5,179.5C 609.419,181.045 615.586,181.711 622,181.5C 626.68,181.499 631.18,181.166 635.5,180.5C 640.507,180.249 645.507,179.916 650.5,179.5C 650.5,179.833 650.5,180.167 650.5,180.5C 646.205,182.599 641.538,183.766 636.5,184C 625.833,184.667 615.167,184.667 604.5,184C 575.853,177.531 564.853,160.031 571.5,131.5 Z"/></g>
<g><path style="opacity:1" fill="#6c0200" d="M 603.5,179.5 C 606.167,179.5 608.833,179.5 611.5,179.5C 619.316,180.492 627.316,180.826 635.5,180.5C 631.18,181.166 626.68,181.499 622,181.5C 615.586,181.711 609.419,181.045 603.5,179.5 Z"/></g>
<g><path style="opacity:1" fill="#02273b" d="M 130.5,183.5 C 138.847,190.185 146.847,197.185 154.5,204.5C 145.009,210.129 134.676,213.463 123.5,214.5C 122.391,213.71 121.058,213.21 119.5,213C 116.248,209.149 112.748,205.649 109,202.5C 108.544,201.256 109.044,200.423 110.5,200C 109.906,199.536 109.239,199.369 108.5,199.5C 117.236,196.098 124.569,190.765 130.5,183.5 Z"/></g>
<g><path style="opacity:0.951" fill="#fcfcfa" d="M 710.5,196.5 C 714.516,196.287 718.35,196.954 722,198.5C 738.155,197.797 754.321,197.63 770.5,198C 772.676,198.163 774.509,198.996 776,200.5C 783.084,196.438 790.417,195.771 798,198.5C 828.441,197.807 858.941,197.14 889.5,196.5C 898.847,196.146 904.181,200.479 905.5,209.5C 905.041,230.591 894.375,238.591 873.5,233.5C 846.951,234.822 820.451,234.822 794,233.5C 786.681,236.69 779.681,236.024 773,231.5C 771.055,232.863 768.888,233.697 766.5,234C 750.259,234.824 734.093,234.658 718,233.5C 711.948,235.437 705.948,235.437 700,233.5C 691.858,234.59 683.692,234.756 675.5,234C 670.667,233.167 667.833,230.333 667,225.5C 666.693,220.643 666.193,215.81 665.5,211C 665.558,204.53 668.558,200.196 674.5,198C 685.077,197.181 695.577,197.348 706,198.5C 707.622,197.901 709.122,197.234 710.5,196.5 Z"/></g>
<g><path style="opacity:1" fill="#14140d" d="M 757.5,208.5 C 755.714,213.317 754.714,218.317 754.5,223.5C 753.833,223.5 753.167,223.5 752.5,223.5C 752.5,222.5 752.5,221.5 752.5,220.5C 753.486,216.557 754.152,212.557 754.5,208.5C 755.5,208.5 756.5,208.5 757.5,208.5 Z"/></g>
<g><path style="opacity:1" fill="#10100a" d="M 802.5,208.5 C 801.833,212.5 801.167,216.5 800.5,220.5C 799.596,221.209 799.263,222.209 799.5,223.5C 797.821,223.715 796.821,223.048 796.5,221.5C 798.978,218.671 799.978,215.338 799.5,211.5C 799.5,210.5 799.5,209.5 799.5,208.5C 800.5,208.5 801.5,208.5 802.5,208.5 Z"/></g>
<g><path style="opacity:1" fill="#131202" d="M 824.5,208.5 C 825.5,208.5 826.5,208.5 827.5,208.5C 826.833,212.5 826.167,216.5 825.5,220.5C 824.842,221.398 824.176,222.398 823.5,223.5C 822.893,223.376 822.56,223.043 822.5,222.5C 823.445,217.886 824.112,213.219 824.5,208.5 Z"/></g>
<g><path style="opacity:1" fill="#becb08" d="M 862.5,208.5 C 867.5,208.5 872.5,208.5 877.5,208.5C 877.306,210.912 875.973,211.912 873.5,211.5C 872.25,211.577 871.417,212.244 871,213.5C 870.174,216.793 869.674,220.126 869.5,223.5C 867.833,223.5 866.167,223.5 864.5,223.5C 864.652,219.738 865.319,216.072 866.5,212.5C 865.311,211.571 863.978,211.238 862.5,211.5C 862.5,210.5 862.5,209.5 862.5,208.5 Z"/></g>
<g><path style="opacity:1" fill="#c3d00d" d="M 802.5,208.5 C 807.167,208.5 811.833,208.5 816.5,208.5C 816.893,211.513 816.226,214.18 814.5,216.5C 813.414,216.62 812.747,217.287 812.5,218.5C 812.543,219.416 812.876,220.083 813.5,220.5C 813.5,221.5 813.5,222.5 813.5,223.5C 811.833,223.5 810.167,223.5 808.5,223.5C 807.565,220.887 807.398,218.221 808,215.5C 812.057,213.857 812.223,212.524 808.5,211.5C 806.952,211.821 806.285,212.821 806.5,214.5C 805.597,217.391 805.264,220.391 805.5,223.5C 803.833,223.5 802.167,223.5 800.5,223.5C 800.5,222.5 800.5,221.5 800.5,220.5C 801.167,216.5 801.833,212.5 802.5,208.5 Z"/></g>
<g><path style="opacity:1" fill="#282b0f" d="M 860.5,208.5 C 861.167,208.5 861.833,208.5 862.5,208.5C 862.5,209.5 862.5,210.5 862.5,211.5C 861.833,211.5 861.167,211.5 860.5,211.5C 860.5,210.5 860.5,209.5 860.5,208.5 Z"/></g>
<g><path style="opacity:1" fill="#4a500d" d="M 886.5,207.5 C 885.067,209.558 884.4,211.892 884.5,214.5C 883.978,212.781 882.978,211.448 881.5,210.5C 881.833,209.833 882.167,209.167 882.5,208.5C 883.833,208.167 885.167,207.833 886.5,207.5 Z"/></g>
<g><path style="opacity:1" fill="#c0cc19" d="M 799.5,211.5 C 799.978,215.338 798.978,218.671 796.5,221.5C 792.569,224.038 788.235,225.038 783.5,224.5C 777.969,218.862 778.302,213.528 784.5,208.5C 789.996,206.671 794.996,207.671 799.5,211.5 Z"/></g>
<g><path style="opacity:1" fill="#f3f4ea" d="M 839.5,211.5 C 839.737,212.791 839.404,213.791 838.5,214.5C 836.5,214.5 834.5,214.5 832.5,214.5C 832.5,213.5 832.5,212.5 832.5,211.5C 834.833,211.5 837.167,211.5 839.5,211.5 Z"/></g>
<g><path style="opacity:1" fill="#27291d" d="M 877.5,208.5 C 878.167,208.5 878.833,208.5 879.5,208.5C 878.833,209.833 878.167,211.167 877.5,212.5C 875.901,212.768 874.568,212.434 873.5,211.5C 875.973,211.912 877.306,210.912 877.5,208.5 Z"/></g>
<g><path style="opacity:1" fill="#c7ce1a" d="M 879.5,208.5 C 880.5,208.5 881.5,208.5 882.5,208.5C 882.167,209.167 881.833,209.833 881.5,210.5C 881.167,211.5 880.5,212.167 879.5,212.5C 878.833,212.5 878.167,212.5 877.5,212.5C 878.167,211.167 878.833,209.833 879.5,208.5 Z"/></g>
<g><path style="opacity:1" fill="#25251c" d="M 784.5,208.5 C 778.302,213.528 777.969,218.862 783.5,224.5C 776.122,222.26 774.622,217.927 779,211.5C 780.741,210.242 782.574,209.242 784.5,208.5 Z"/></g>
<g><path style="opacity:1" fill="#f0f1ed" d="M 789.5,211.5 C 792.019,214.677 791.685,217.677 788.5,220.5C 784.775,220.22 783.608,218.22 785,214.5C 786.129,212.859 787.629,211.859 789.5,211.5 Z"/></g>
<g><path style="opacity:1" fill="#1e1d11" d="M 789.5,211.5 C 792.127,211.293 793.793,212.46 794.5,215C 793.272,217.73 791.272,219.564 788.5,220.5C 791.685,217.677 792.019,214.677 789.5,211.5 Z"/></g>
<g><path style="opacity:1" fill="#b2b0ae" d="M 808.5,211.5 C 808.573,213.027 807.906,214.027 806.5,214.5C 806.285,212.821 806.952,211.821 808.5,211.5 Z"/></g>
<g><path style="opacity:1" fill="#c1ce13" d="M 678.5,208.5 C 680.167,208.5 681.833,208.5 683.5,208.5C 683.5,209.833 683.5,211.167 683.5,212.5C 683.34,214.199 683.506,215.866 684,217.5C 685.18,214.479 686.346,211.479 687.5,208.5C 689.5,208.5 691.5,208.5 693.5,208.5C 693.5,210.167 693.5,211.833 693.5,213.5C 693.343,214.873 693.51,216.207 694,217.5C 695.513,214.473 697.013,211.473 698.5,208.5C 699.978,208.238 701.311,208.571 702.5,209.5C 700.333,213.833 698.167,218.167 696,222.5C 693.959,223.423 691.792,223.756 689.5,223.5C 689.664,220.813 689.497,218.146 689,215.5C 687.812,216.563 687.312,217.897 687.5,219.5C 685.591,222.83 682.591,224.164 678.5,223.5C 678.5,218.5 678.5,213.5 678.5,208.5 Z"/></g>
<g><path style="opacity:1" fill="#232415" d="M 698.5,208.5 C 697.013,211.473 695.513,214.473 694,217.5C 693.51,216.207 693.343,214.873 693.5,213.5C 694.558,212.4 695.392,211.066 696,209.5C 696.671,208.748 697.504,208.414 698.5,208.5 Z"/></g>
<g><path style="opacity:1" fill="#27261d" d="M 687.5,208.5 C 686.346,211.479 685.18,214.479 684,217.5C 683.506,215.866 683.34,214.199 683.5,212.5C 684.667,210.959 686,209.625 687.5,208.5 Z"/></g>
<g><path style="opacity:1" fill="#10110b" d="M 881.5,210.5 C 882.978,211.448 883.978,212.781 884.5,214.5C 885.625,216.129 886.959,217.629 888.5,219C 887.437,220.188 886.103,220.688 884.5,220.5C 882.833,217.833 881.167,215.167 879.5,212.5C 880.5,212.167 881.167,211.5 881.5,210.5 Z"/></g>
<g><path style="opacity:1" fill="#bfcb1b" d="M 886.5,207.5 C 889.167,207.5 891.833,207.5 894.5,207.5C 894.5,208.833 894.5,210.167 894.5,211.5C 892.396,211.201 890.396,211.534 888.5,212.5C 895.683,218.614 894.683,222.614 885.5,224.5C 883.955,224.489 882.622,224.156 881.5,223.5C 881.5,222.5 881.5,221.5 881.5,220.5C 882.5,220.5 883.5,220.5 884.5,220.5C 886.103,220.688 887.437,220.188 888.5,219C 886.959,217.629 885.625,216.129 884.5,214.5C 884.4,211.892 885.067,209.558 886.5,207.5 Z"/></g>
<g><path style="opacity:1" fill="#333325" d="M 704.5,211.5 C 702.868,215.754 703.201,219.754 705.5,223.5C 700.317,221.11 699.317,217.443 702.5,212.5C 702.957,211.702 703.624,211.369 704.5,211.5 Z"/></g>
<g><path style="opacity:1" fill="#c0cc16" d="M 722.5,213.5 C 722.675,215.621 722.341,217.621 721.5,219.5C 717.036,224.235 711.702,225.568 705.5,223.5C 703.201,219.754 702.868,215.754 704.5,211.5C 706.701,208.645 709.701,207.311 713.5,207.5C 718.121,207.296 721.121,209.296 722.5,213.5 Z"/></g>
<g><path style="opacity:1" fill="#edede8" d="M 716.5,212.5 C 716.014,215.527 714.68,218.193 712.5,220.5C 706.658,219.119 705.991,216.286 710.5,212C 712.712,211.211 714.712,211.378 716.5,212.5 Z"/></g>
<g><path style="opacity:1" fill="#17160d" d="M 816.5,208.5 C 817.5,208.5 818.5,208.5 819.5,208.5C 818.392,213.484 817.392,218.484 816.5,223.5C 815.5,223.5 814.5,223.5 813.5,223.5C 813.5,222.5 813.5,221.5 813.5,220.5C 814.234,219.292 814.567,217.959 814.5,216.5C 816.226,214.18 816.893,211.513 816.5,208.5 Z"/></g>
<g><path style="opacity:1" fill="#0e0f07" d="M 678.5,208.5 C 678.5,213.5 678.5,218.5 678.5,223.5C 677.718,219.326 677.051,214.992 676.5,210.5C 676.747,209.287 677.414,208.62 678.5,208.5 Z"/></g>
<g><path style="opacity:1" fill="#becb03" d="M 819.5,208.5 C 821.167,208.5 822.833,208.5 824.5,208.5C 824.112,213.219 823.445,217.886 822.5,222.5C 820.621,223.341 818.621,223.675 816.5,223.5C 817.392,218.484 818.392,213.484 819.5,208.5 Z"/></g>
<g><path style="opacity:1" fill="#161609" d="M 808.5,211.5 C 812.223,212.524 812.057,213.857 808,215.5C 807.398,218.221 807.565,220.887 808.5,223.5C 807.5,223.5 806.5,223.5 805.5,223.5C 805.264,220.391 805.597,217.391 806.5,214.5C 807.906,214.027 808.573,213.027 808.5,211.5 Z"/></g>
<g><path style="opacity:1" fill="#282a09" d="M 689.5,223.5 C 687.824,222.817 687.157,221.483 687.5,219.5C 687.312,217.897 687.812,216.563 689,215.5C 689.497,218.146 689.664,220.813 689.5,223.5 Z"/></g>
<g><path style="opacity:1" fill="#2b2c14" d="M 716.5,212.5 C 718.432,216.613 717.098,219.28 712.5,220.5C 714.68,218.193 716.014,215.527 716.5,212.5 Z"/></g>
<g><path style="opacity:1" fill="#d7d6c4" d="M 739.5,214.5 C 738.833,217.167 738.167,219.833 737.5,222.5C 734.288,218.958 734.954,216.291 739.5,214.5 Z"/></g>
<g><path style="opacity:1" fill="#bdca15" d="M 757.5,208.5 C 761.846,208.334 766.179,208.501 770.5,209C 773.072,212.819 772.905,216.652 770,220.5C 768.512,222.16 766.679,223.16 764.5,223.5C 761.167,223.5 757.833,223.5 754.5,223.5C 754.714,218.317 755.714,213.317 757.5,208.5 Z"/></g>
<g><path style="opacity:1" fill="#1c1c0d" d="M 763.5,211.5 C 767.071,211.408 768.238,213.074 767,216.5C 765.549,218.464 763.716,219.797 761.5,220.5C 764.464,218.013 765.131,215.013 763.5,211.5 Z"/></g>
<g><path style="opacity:1" fill="#d6d6d3" d="M 763.5,211.5 C 765.131,215.013 764.464,218.013 761.5,220.5C 760.378,218.712 760.211,216.712 761,214.5C 761.236,212.881 762.069,211.881 763.5,211.5 Z"/></g>
<g><path style="opacity:1" fill="#f5f5ef" d="M 838.5,217.5 C 837.89,218.391 837.557,219.391 837.5,220.5C 835.076,220.808 832.743,220.474 830.5,219.5C 830.709,218.914 831.043,218.414 831.5,218C 833.81,217.503 836.143,217.337 838.5,217.5 Z"/></g>
<g><path style="opacity:1" fill="#191816" d="M 742.5,208.5 C 741.941,212.853 741.275,217.186 740.5,221.5C 739.778,222.551 738.778,223.218 737.5,223.5C 737.5,223.167 737.5,222.833 737.5,222.5C 738.167,219.833 738.833,217.167 739.5,214.5C 740.301,212.958 740.634,211.292 740.5,209.5C 740.842,208.662 741.508,208.328 742.5,208.5 Z"/></g>
<g><path style="opacity:1" fill="#d2d1bf" d="M 814.5,216.5 C 814.567,217.959 814.234,219.292 813.5,220.5C 812.876,220.083 812.543,219.416 812.5,218.5C 812.747,217.287 813.414,216.62 814.5,216.5 Z"/></g>
<g><path style="opacity:1" fill="#bfcc0b" d="M 827.5,208.5 C 832.167,208.5 836.833,208.5 841.5,208.5C 841.715,210.179 841.048,211.179 839.5,211.5C 837.167,211.5 834.833,211.5 832.5,211.5C 832.5,212.5 832.5,213.5 832.5,214.5C 834.5,214.5 836.5,214.5 838.5,214.5C 838.5,215.5 838.5,216.5 838.5,217.5C 836.143,217.337 833.81,217.503 831.5,218C 831.043,218.414 830.709,218.914 830.5,219.5C 832.743,220.474 835.076,220.808 837.5,220.5C 838.338,220.842 838.672,221.508 838.5,222.5C 834.265,223.436 829.931,223.769 825.5,223.5C 825.5,222.5 825.5,221.5 825.5,220.5C 826.167,216.5 826.833,212.5 827.5,208.5 Z"/></g>
<g><path style="opacity:1" fill="#17180e" d="M 841.5,208.5 C 842.167,208.5 842.833,208.5 843.5,208.5C 842.833,212.833 842.167,217.167 841.5,221.5C 840.849,222.091 840.182,222.757 839.5,223.5C 838.893,223.376 838.56,223.043 838.5,222.5C 838.672,221.508 838.338,220.842 837.5,220.5C 837.557,219.391 837.89,218.391 838.5,217.5C 838.5,216.5 838.5,215.5 838.5,214.5C 839.404,213.791 839.737,212.791 839.5,211.5C 841.048,211.179 841.715,210.179 841.5,208.5 Z"/></g>
<g><path style="opacity:1" fill="#0f0f06" d="M 862.5,211.5 C 863.978,211.238 865.311,211.571 866.5,212.5C 865.319,216.072 864.652,219.738 864.5,223.5C 863.167,223.5 861.833,223.5 860.5,223.5C 861.486,219.557 862.152,215.557 862.5,211.5 Z"/></g>
<g><path style="opacity:1" fill="#1e1e1d" d="M 881.5,220.5 C 881.5,221.5 881.5,222.5 881.5,223.5C 880.167,223.5 878.833,223.5 877.5,223.5C 877.5,222.167 877.5,220.833 877.5,219.5C 879.099,219.232 880.432,219.566 881.5,220.5 Z"/></g>
<g><path style="opacity:1" fill="#2b2a22" d="M 726.5,208.5 C 725.35,213.44 724.35,218.44 723.5,223.5C 722.176,224.85 721.176,224.683 720.5,223C 720.989,221.862 721.322,220.695 721.5,219.5C 722.341,217.621 722.675,215.621 722.5,213.5C 723.451,212.081 723.784,210.415 723.5,208.5C 724.5,208.5 725.5,208.5 726.5,208.5 Z"/></g>
<g><path style="opacity:1" fill="#c0cd0f" d="M 726.5,208.5 C 731.23,208.283 735.897,208.617 740.5,209.5C 740.634,211.292 740.301,212.958 739.5,214.5C 734.954,216.291 734.288,218.958 737.5,222.5C 737.5,222.833 737.5,223.167 737.5,223.5C 735.379,223.675 733.379,223.341 731.5,222.5C 731.477,220.073 730.977,217.74 730,215.5C 729.506,217.134 729.34,218.801 729.5,220.5C 728.596,221.209 728.263,222.209 728.5,223.5C 726.833,223.5 725.167,223.5 723.5,223.5C 724.35,218.44 725.35,213.44 726.5,208.5 Z"/></g>
<g><path style="opacity:1" fill="#101107" d="M 731.5,222.5 C 731.158,223.338 730.492,223.672 729.5,223.5C 729.5,222.5 729.5,221.5 729.5,220.5C 729.34,218.801 729.506,217.134 730,215.5C 730.977,217.74 731.477,220.073 731.5,222.5 Z"/></g>
<g><path style="opacity:1" fill="#d7d5e1" d="M 732.5,211.5 C 732.443,212.609 732.11,213.609 731.5,214.5C 730.115,213.053 730.448,212.053 732.5,211.5 Z"/></g>
<g><path style="opacity:1" fill="#2a291b" d="M 732.5,211.5 C 733.675,211.281 734.675,211.614 735.5,212.5C 734.68,214.111 733.346,214.778 731.5,214.5C 732.11,213.609 732.443,212.609 732.5,211.5 Z"/></g>
<g><path style="opacity:1" fill="#c0cd0d" d="M 742.5,208.5 C 744.604,208.201 746.604,208.534 748.5,209.5C 747.5,212.833 746.5,216.167 745.5,219.5C 747.743,220.474 750.076,220.808 752.5,220.5C 752.5,221.5 752.5,222.5 752.5,223.5C 748.029,224.089 744.029,223.423 740.5,221.5C 741.275,217.186 741.941,212.853 742.5,208.5 Z"/></g>
<g><path style="opacity:1" fill="#c0cd0b" d="M 843.5,208.5 C 846.533,208.132 849.2,208.798 851.5,210.5C 853.854,219.392 855.188,218.725 855.5,208.5C 857.167,208.5 858.833,208.5 860.5,208.5C 860.5,209.5 860.5,210.5 860.5,211.5C 859.51,215.386 858.51,219.386 857.5,223.5C 855.5,223.5 853.5,223.5 851.5,223.5C 850.171,220.52 848.838,217.52 847.5,214.5C 846.526,216.743 846.192,219.076 846.5,221.5C 845.833,222.167 845.167,222.833 844.5,223.5C 842.821,223.715 841.821,223.048 841.5,221.5C 842.167,217.167 842.833,212.833 843.5,208.5 Z"/></g>
<g><path style="opacity:1" fill="#1e1e0e" d="M 851.5,223.5 C 849.302,223.88 847.635,223.213 846.5,221.5C 846.192,219.076 846.526,216.743 847.5,214.5C 848.838,217.52 850.171,220.52 851.5,223.5 Z"/></g>
<g><path style="opacity:1" fill="#16160f" d="M 855.5,208.5 C 855.188,218.725 853.854,219.392 851.5,210.5C 852.287,208.896 853.62,208.229 855.5,208.5 Z"/></g>
<g><path style="opacity:1" fill="#c7ca92" d="M 740.5,221.5 C 744.029,223.423 748.029,224.089 752.5,223.5C 753.167,223.5 753.833,223.5 754.5,223.5C 757.833,223.5 761.167,223.5 764.5,223.5C 752.833,224.833 741.167,224.833 729.5,223.5C 730.492,223.672 731.158,223.338 731.5,222.5C 733.379,223.341 735.379,223.675 737.5,223.5C 738.778,223.218 739.778,222.551 740.5,221.5 Z"/></g>
<g><path style="opacity:1" fill="#bcbf88" d="M 825.5,220.5 C 825.5,221.5 825.5,222.5 825.5,223.5C 829.931,223.769 834.265,223.436 838.5,222.5C 838.56,223.043 838.893,223.376 839.5,223.5C 840.182,222.757 840.849,222.091 841.5,221.5C 841.821,223.048 842.821,223.715 844.5,223.5C 832.5,224.833 820.5,224.833 808.5,223.5C 810.167,223.5 811.833,223.5 813.5,223.5C 814.5,223.5 815.5,223.5 816.5,223.5C 818.621,223.675 820.621,223.341 822.5,222.5C 822.56,223.043 822.893,223.376 823.5,223.5C 824.176,222.398 824.842,221.398 825.5,220.5 Z"/></g>
</svg>
