<?xml version="1.0" encoding="UTF-8"?>
<!DOCTYPE svg PUBLIC "-//W3C//DTD SVG 1.1//EN" "http://www.w3.org/Graphics/SVG/1.1/DTD/svg11.dtd">
<svg xmlns="http://www.w3.org/2000/svg" version="1.1" width="225px" height="225px" style="shape-rendering:geometricPrecision; text-rendering:geometricPrecision; image-rendering:optimizeQuality; fill-rule:evenodd; clip-rule:evenodd" xmlns:xlink="http://www.w3.org/1999/xlink">
<g><path style="opacity:1" fill="#fe4e13" d="M -0.5,-0.5 C 26.1667,-0.5 52.8333,-0.5 79.5,-0.5C 39.8333,13.1667 13.1667,39.8333 -0.5,79.5C -0.5,52.8333 -0.5,26.1667 -0.5,-0.5 Z"/></g>
<g><path style="opacity:1" fill="#fe5417" d="M 79.5,-0.5 C 101.167,-0.5 122.833,-0.5 144.5,-0.5C 184.149,13.1492 210.816,39.8159 224.5,79.5C 224.5,101.167 224.5,122.833 224.5,144.5C 210.844,184.156 184.178,210.822 144.5,224.5C 122.833,224.5 101.167,224.5 79.5,224.5C 39.8333,210.833 13.1667,184.167 -0.5,144.5C -0.5,122.833 -0.5,101.167 -0.5,79.5C 13.1667,39.8333 39.8333,13.1667 79.5,-0.5 Z"/></g>
<g><path style="opacity:1" fill="#fe4e13" d="M 144.5,-0.5 C 171.167,-0.5 197.833,-0.5 224.5,-0.5C 224.5,26.1667 224.5,52.8333 224.5,79.5C 210.816,39.8159 184.149,13.1492 144.5,-0.5 Z"/></g>
<g><path style="opacity:1" fill="#fe5a1d" d="M 94.5,20.5 C 105.834,20.523 117.167,20.523 128.5,20.5C 146.57,25.2053 162.903,33.7053 177.5,46C 203.827,75.7073 210.493,109.541 197.5,147.5C 193.894,153.865 190.394,160.198 187,166.5C 183.917,170.37 180.75,174.203 177.5,178C 163.182,190.143 146.849,198.643 128.5,203.5C 117.5,203.5 106.5,203.5 95.5,203.5C 89.5869,200.506 83.2535,198.506 76.5,197.5C 65.8581,192.032 55.8581,185.532 46.5,178C 38.8248,168.492 32.1581,158.325 26.5,147.5C 25.8672,144.505 24.8672,141.672 23.5,139C 23.9574,138.586 24.2907,138.086 24.5,137.5C 22.3905,135.38 21.7238,133.046 22.5,130.5C 20.6652,129.572 20.3318,128.406 21.5,127C 20.7998,121.987 19.7998,116.987 18.5,112C 19.7998,107.013 20.7998,102.013 21.5,97C 20.3318,95.5944 20.6652,94.4277 22.5,93.5C 21.7238,90.9536 22.3905,88.6202 24.5,86.5C 24.2907,85.914 23.9574,85.414 23.5,85C 26.63,77.4582 29.9633,69.9582 33.5,62.5C 37.8296,57.3319 41.9963,51.9986 46,46.5C 55.5059,38.8278 65.6725,32.1612 76.5,26.5C 79.4946,25.8672 82.328,24.8672 85,23.5C 85.414,23.9574 85.914,24.2907 86.5,24.5C 89.4412,23.3869 92.1079,22.0536 94.5,20.5 Z"/></g>
<g><path style="opacity:1" fill="#fe5f21" d="M 139.5,95.5 C 139.5,95.8333 139.5,96.1667 139.5,96.5C 139.666,102.842 139.5,109.175 139,115.5C 138.64,113.579 137.806,111.912 136.5,110.5C 140.449,103.23 138.449,98.3968 130.5,96C 112.17,95.5001 93.8364,95.3334 75.5,95.5C 75.5,98.5 75.5,101.5 75.5,104.5C 73.6122,102.012 72.9455,99.0122 73.5,95.5C 68.0557,94.8917 63.0557,95.5583 58.5,97.5C 57.8333,97.5 57.5,97.1667 57.5,96.5C 55.7867,95.7767 54.7867,94.4433 54.5,92.5C 64.4393,66.0836 83.6059,52.0836 112,50.5C 140.939,52.4542 160.439,66.9542 170.5,94C 159.992,94.1697 149.659,94.6697 139.5,95.5 Z"/></g>
<g><path style="opacity:1" fill="#faab91" d="M 139.5,96.5 C 139.5,96.1667 139.5,95.8333 139.5,95.5C 158.833,95.5 178.167,95.5 197.5,95.5C 197.813,99.0419 197.479,102.375 196.5,105.5C 196.5,102.5 196.5,99.5 196.5,96.5C 177.5,96.5 158.5,96.5 139.5,96.5 Z"/></g>
<g><path style="opacity:1" fill="#e2dcda" d="M 57.5,96.5 C 57.5,97.1667 57.8333,97.5 58.5,97.5C 63.0704,96.559 67.737,96.2256 72.5,96.5C 72.5,99.5 72.5,102.5 72.5,105.5C 73.791,105.737 74.791,105.404 75.5,104.5C 75.5,101.5 75.5,98.5 75.5,95.5C 93.8364,95.3334 112.17,95.5001 130.5,96C 138.449,98.3968 140.449,103.23 136.5,110.5C 137.806,111.912 138.64,113.579 139,115.5C 139.5,109.175 139.666,102.842 139.5,96.5C 158.5,96.5 177.5,96.5 196.5,96.5C 196.5,99.5 196.5,102.5 196.5,105.5C 193.482,105.335 190.482,105.502 187.5,106C 189.81,106.497 192.143,106.663 194.5,106.5C 194.5,109.5 194.5,112.5 194.5,115.5C 192.167,115.5 189.833,115.5 187.5,115.5C 187.5,118.167 187.5,120.833 187.5,123.5C 183.167,123.5 178.833,123.5 174.5,123.5C 174.5,121.5 174.5,119.5 174.5,117.5C 178.5,117.5 182.5,117.5 186.5,117.5C 186.5,116.5 186.5,115.5 186.5,114.5C 189.388,115.01 191.721,114.344 193.5,112.5C 193.5,110.833 193.5,109.167 193.5,107.5C 191.167,107.5 188.833,107.5 186.5,107.5C 186.5,106.167 186.5,104.833 186.5,103.5C 189.5,103.5 192.5,103.5 195.5,103.5C 195.5,101.5 195.5,99.5 195.5,97.5C 188.833,97.5 182.167,97.5 175.5,97.5C 174.527,99.9479 174.194,102.615 174.5,105.5C 171.813,105.336 169.146,105.503 166.5,106C 168.473,106.495 170.473,106.662 172.5,106.5C 172.5,109.5 172.5,112.5 172.5,115.5C 170.5,115.5 168.5,115.5 166.5,115.5C 166.5,118.167 166.5,120.833 166.5,123.5C 168.167,123.5 169.833,123.5 171.5,123.5C 171.663,125.857 171.497,128.19 171,130.5C 170.617,131.056 170.117,131.389 169.5,131.5C 145.5,131.5 121.5,131.5 97.5,131.5C 95.3179,122.535 94.3179,122.535 94.5,131.5C 74.1667,131.5 53.8333,131.5 33.5,131.5C 34.4202,128.492 35.7535,125.659 37.5,123C 35.7139,122.804 34.3805,121.971 33.5,120.5C 34.5451,117.194 35.8784,114.027 37.5,111C 33.5949,104.115 35.2616,99.1151 42.5,96C 47.5276,95.4117 52.5276,95.5784 57.5,96.5 Z"/></g>
<g><path style="opacity:1" fill="#fbad91" d="M 75.5,104.5 C 74.791,105.404 73.791,105.737 72.5,105.5C 72.5,102.5 72.5,99.5 72.5,96.5C 67.737,96.2256 63.0704,96.559 58.5,97.5C 63.0557,95.5583 68.0557,94.8917 73.5,95.5C 72.9455,99.0122 73.6122,102.012 75.5,104.5 Z"/></g>
<g><path style="opacity:1" fill="#040404" d="M 42.5,97.5 C 47.547,97.3375 52.547,97.6708 57.5,98.5C 57.3568,101.097 56.5234,103.431 55,105.5C 53.005,103.253 50.505,102.253 47.5,102.5C 47.33,103.822 47.6634,104.989 48.5,106C 51.6612,107.413 54.6612,109.08 57.5,111C 51.0559,111.915 44.7226,111.581 38.5,110C 35.1534,104.216 36.4867,100.05 42.5,97.5 Z"/></g>
<g><path style="opacity:1" fill="#040404" d="M 60.5,97.5 C 64.1667,97.5 67.8333,97.5 71.5,97.5C 71.5,100.5 71.5,103.5 71.5,106.5C 73.1667,106.5 74.8333,106.5 76.5,106.5C 76.5,103.5 76.5,100.5 76.5,97.5C 80.1667,97.5 83.8333,97.5 87.5,97.5C 87.5,102.167 87.5,106.833 87.5,111.5C 78.5,111.5 69.5,111.5 60.5,111.5C 60.5,106.833 60.5,102.167 60.5,97.5 Z"/></g>
<g><path style="opacity:1" fill="#070707" d="M 100.5,106.5 C 102.265,107.461 104.265,107.795 106.5,107.5C 106.5,108.833 106.5,110.167 106.5,111.5C 100.833,111.5 95.1667,111.5 89.5,111.5C 89.5,106.833 89.5,102.167 89.5,97.5C 96.5,97.5 103.5,97.5 110.5,97.5C 110.5,99.5 110.5,101.5 110.5,103.5C 107.167,103.5 103.833,103.5 100.5,103.5C 100.5,104.5 100.5,105.5 100.5,106.5 Z"/></g>
<g><path style="opacity:1" fill="#010101" d="M 112.5,97.5 C 118.842,97.3338 125.175,97.5005 131.5,98C 135.274,98.6015 136.94,100.768 136.5,104.5C 136.635,106.808 135.969,108.808 134.5,110.5C 127.197,111.497 119.863,111.831 112.5,111.5C 112.5,106.833 112.5,102.167 112.5,97.5 Z"/></g>
<g><path style="opacity:1" fill="#000000" d="M 141.5,97.5 C 144.833,97.5 148.167,97.5 151.5,97.5C 151.5,102.167 151.5,106.833 151.5,111.5C 148.167,111.5 144.833,111.5 141.5,111.5C 141.5,106.833 141.5,102.167 141.5,97.5 Z"/></g>
<g><path style="opacity:1" fill="#070707" d="M 153.5,97.5 C 160.167,97.5 166.833,97.5 173.5,97.5C 173.5,99.5 173.5,101.5 173.5,103.5C 170.5,103.5 167.5,103.5 164.5,103.5C 164.5,105.167 164.5,106.833 164.5,108.5C 166.833,108.5 169.167,108.5 171.5,108.5C 171.5,109.5 171.5,110.5 171.5,111.5C 165.5,111.5 159.5,111.5 153.5,111.5C 153.5,106.833 153.5,102.167 153.5,97.5 Z"/></g>
<g><path style="opacity:1" fill="#000000" d="M 175.5,97.5 C 182.167,97.5 188.833,97.5 195.5,97.5C 195.5,99.5 195.5,101.5 195.5,103.5C 192.5,103.5 189.5,103.5 186.5,103.5C 185.549,104.919 185.216,106.585 185.5,108.5C 187.833,108.5 190.167,108.5 192.5,108.5C 192.5,109.5 192.5,110.5 192.5,111.5C 186.833,111.5 181.167,111.5 175.5,111.5C 175.5,106.833 175.5,102.167 175.5,97.5 Z"/></g>
<g><path style="opacity:1" fill="#d1cdcc" d="M 122.5,102.5 C 126.161,102.35 127.161,103.85 125.5,107C 124.552,107.483 123.552,107.649 122.5,107.5C 122.5,105.833 122.5,104.167 122.5,102.5 Z"/></g>
<g><path style="opacity:1" fill="#ffb399" d="M 174.5,105.5 C 174.5,109.5 174.5,113.5 174.5,117.5C 174.5,119.5 174.5,121.5 174.5,123.5C 178.833,123.5 183.167,123.5 187.5,123.5C 183.03,124.486 178.363,124.819 173.5,124.5C 173.81,121.287 173.477,118.287 172.5,115.5C 172.5,112.5 172.5,109.5 172.5,106.5C 170.473,106.662 168.473,106.495 166.5,106C 169.146,105.503 171.813,105.336 174.5,105.5 Z"/></g>
<g><path style="opacity:1" fill="#fe5a12" d="M 57.5,104.5 C 58.6129,105.946 58.7796,107.613 58,109.5C 56.3721,108.038 56.2054,106.372 57.5,104.5 Z"/></g>
<g><path style="opacity:1" fill="#fb5e15" d="M 108.5,105.5 C 110.388,107.988 111.055,110.988 110.5,114.5C 107.813,114.664 105.146,114.497 102.5,114C 104.473,113.505 106.473,113.338 108.5,113.5C 108.5,110.833 108.5,108.167 108.5,105.5 Z"/></g>
<g><path style="opacity:1" fill="#6b6b6b" d="M 100.5,106.5 C 102.833,106.5 105.167,106.5 107.5,106.5C 107.784,108.415 107.451,110.081 106.5,111.5C 106.5,110.167 106.5,108.833 106.5,107.5C 104.265,107.795 102.265,107.461 100.5,106.5 Z"/></g>
<g><path style="opacity:1" fill="#aeaeae" d="M 175.5,97.5 C 175.5,102.167 175.5,106.833 175.5,111.5C 181.167,111.5 186.833,111.5 192.5,111.5C 192.5,110.5 192.5,109.5 192.5,108.5C 190.167,108.5 187.833,108.5 185.5,108.5C 185.216,106.585 185.549,104.919 186.5,103.5C 186.5,104.833 186.5,106.167 186.5,107.5C 188.833,107.5 191.167,107.5 193.5,107.5C 193.5,109.167 193.5,110.833 193.5,112.5C 187.463,112.171 181.463,112.504 175.5,113.5C 179.107,114.489 182.774,114.823 186.5,114.5C 186.5,115.5 186.5,116.5 186.5,117.5C 182.5,117.5 178.5,117.5 174.5,117.5C 174.5,113.5 174.5,109.5 174.5,105.5C 174.194,102.615 174.527,99.9479 175.5,97.5 Z"/></g>
<g><path style="opacity:1" fill="#3b3b3b" d="M 76.5,112.5 C 80.5546,112.176 84.5546,112.509 88.5,113.5C 86.5,113.833 84.5,114.167 82.5,114.5C 80.0478,114.461 78.0478,113.794 76.5,112.5 Z"/></g>
<g><path style="opacity:1" fill="#3f3f3f" d="M 153.5,112.5 C 159.537,112.171 165.537,112.504 171.5,113.5C 168.5,113.833 165.5,114.167 162.5,114.5C 159.087,114.483 156.087,113.816 153.5,112.5 Z"/></g>
<g><path style="opacity:1" fill="#3f3f3f" d="M 193.5,112.5 C 191.721,114.344 189.388,115.01 186.5,114.5C 182.774,114.823 179.107,114.489 175.5,113.5C 181.463,112.504 187.463,112.171 193.5,112.5 Z"/></g>
<g><path style="opacity:1" fill="#1d1d1d" d="M 44.5,113.5 C 49.0152,112.188 53.6819,112.188 58.5,113.5C 53.7836,114.775 49.117,114.775 44.5,113.5 Z"/></g>
<g><path style="opacity:1" fill="#1a1a1a" d="M 60.5,112.5 C 64.226,112.177 67.8927,112.511 71.5,113.5C 69.6667,113.833 67.8333,114.167 66,114.5C 63.7047,114.453 61.8714,113.787 60.5,112.5 Z"/></g>
<g><path style="opacity:1" fill="#1c1c1c" d="M 89.5,112.5 C 93.226,112.177 96.8927,112.511 100.5,113.5C 98.6667,113.833 96.8333,114.167 95,114.5C 92.7047,114.453 90.8714,113.787 89.5,112.5 Z"/></g>
<g><path style="opacity:1" fill="#1b1b1b" d="M 112.5,112.5 C 115.898,112.18 119.232,112.513 122.5,113.5C 120.833,113.833 119.167,114.167 117.5,114.5C 115.36,114.444 113.694,113.777 112.5,112.5 Z"/></g>
<g><path style="opacity:1" fill="#1e1e1e" d="M 124.5,113.5 C 128.351,112.191 132.351,112.191 136.5,113.5C 132.454,114.765 128.454,114.765 124.5,113.5 Z"/></g>
<g><path style="opacity:1" fill="#1b1b1b" d="M 141.5,112.5 C 144.898,112.18 148.232,112.513 151.5,113.5C 149.833,113.833 148.167,114.167 146.5,114.5C 144.36,114.444 142.694,113.777 141.5,112.5 Z"/></g>
<g><path style="opacity:1" fill="#fd6e35" d="M 73.5,113.5 C 74.7773,114.694 75.4439,116.36 75.5,118.5C 75.1667,120.167 74.8333,121.833 74.5,123.5C 73.513,120.232 73.1796,116.898 73.5,113.5 Z"/></g>
<g><path style="opacity:1" fill="#535353" d="M 36.5,115.5 C 43.8635,115.169 51.1968,115.503 58.5,116.5C 54.8333,116.833 51.1667,117.167 47.5,117.5C 43.4348,117.489 39.7681,116.822 36.5,115.5 Z"/></g>
<g><path style="opacity:1" fill="#575757" d="M 76.5,115.5 C 80.5546,115.176 84.5546,115.509 88.5,116.5C 86.5,116.833 84.5,117.167 82.5,117.5C 80.0478,117.461 78.0478,116.794 76.5,115.5 Z"/></g>
<g><path style="opacity:1" fill="#4e4f4f" d="M 89.5,115.5 C 96.5316,115.17 103.532,115.503 110.5,116.5C 107,116.833 103.5,117.167 100,117.5C 96.0982,117.488 92.5982,116.821 89.5,115.5 Z"/></g>
<g><path style="opacity:1" fill="#505050" d="M 153.5,115.5 C 157.226,115.177 160.893,115.511 164.5,116.5C 162.667,116.833 160.833,117.167 159,117.5C 156.705,117.453 154.871,116.787 153.5,115.5 Z"/></g>
<g><path style="opacity:1" fill="#fe672c" d="M 36.5,118.5 C 43.175,118.334 49.8417,118.5 56.5,119C 49.7678,123.151 42.7678,123.484 35.5,120C 36.056,119.617 36.3893,119.117 36.5,118.5 Z"/></g>
<g><path style="opacity:1" fill="#fd6324" d="M 60.5,118.5 C 64.1667,118.5 67.8333,118.5 71.5,118.5C 71.5,119.833 71.5,121.167 71.5,122.5C 67.8333,122.5 64.1667,122.5 60.5,122.5C 60.5,121.167 60.5,119.833 60.5,118.5 Z"/></g>
<g><path style="opacity:1" fill="#fd6528" d="M 76.5,118.5 C 80.1667,118.5 83.8333,118.5 87.5,118.5C 87.5,119.833 87.5,121.167 87.5,122.5C 83.8333,122.5 80.1667,122.5 76.5,122.5C 76.5,121.167 76.5,119.833 76.5,118.5 Z"/></g>
<g><path style="opacity:1" fill="#fd6528" d="M 89.5,118.5 C 96.5,118.5 103.5,118.5 110.5,118.5C 110.5,119.833 110.5,121.167 110.5,122.5C 103.5,122.5 96.5,122.5 89.5,122.5C 89.5,121.167 89.5,119.833 89.5,118.5 Z"/></g>
<g><path style="opacity:1" fill="#fd6323" d="M 112.5,118.5 C 115.833,118.5 119.167,118.5 122.5,118.5C 122.5,119.833 122.5,121.167 122.5,122.5C 119.167,122.5 115.833,122.5 112.5,122.5C 112.5,121.167 112.5,119.833 112.5,118.5 Z"/></g>
<g><path style="opacity:1" fill="#fd6223" d="M 141.5,118.5 C 144.833,118.5 148.167,118.5 151.5,118.5C 151.5,119.833 151.5,121.167 151.5,122.5C 148.167,122.5 144.833,122.5 141.5,122.5C 141.5,121.167 141.5,119.833 141.5,118.5 Z"/></g>
<g><path style="opacity:1" fill="#fd6529" d="M 153.5,118.5 C 157.167,118.5 160.833,118.5 164.5,118.5C 164.5,119.833 164.5,121.167 164.5,122.5C 160.833,122.5 157.167,122.5 153.5,122.5C 153.5,121.167 153.5,119.833 153.5,118.5 Z"/></g>
<g><path style="opacity:1" fill="#fe6629" d="M 175.5,118.5 C 179.167,118.5 182.833,118.5 186.5,118.5C 186.5,119.833 186.5,121.167 186.5,122.5C 182.833,122.5 179.167,122.5 175.5,122.5C 175.5,121.167 175.5,119.833 175.5,118.5 Z"/></g>
<g><path style="opacity:1" fill="#fb7640" d="M 127.5,122.5 C 126.791,123.404 125.791,123.737 124.5,123.5C 124.112,113.305 125.112,112.972 127.5,122.5 Z"/></g>
<g><path style="opacity:1" fill="#fd6a2d" d="M 127.5,122.5 C 127.5,121.167 127.5,119.833 127.5,118.5C 131.182,118.335 134.848,118.501 138.5,119C 139.337,120.011 139.67,121.178 139.5,122.5C 135.5,122.5 131.5,122.5 127.5,122.5 Z"/></g>
<g><path style="opacity:1" fill="#fd743f" d="M 57.5,120.5 C 58.404,121.209 58.7373,122.209 58.5,123.5C 53.5475,123.81 53.2142,122.81 57.5,120.5 Z"/></g>
<g><path style="opacity:1" fill="#323232" d="M 147.5,124.5 C 149.833,124.5 152.167,124.5 154.5,124.5C 154.5,126.5 154.5,128.5 154.5,130.5C 152.167,130.5 149.833,130.5 147.5,130.5C 147.5,128.5 147.5,126.5 147.5,124.5 Z"/></g>
<g><path style="opacity:1" fill="#8d8d8d" d="M 161.5,124.5 C 162.167,124.5 162.833,124.5 163.5,124.5C 163.5,126.5 163.5,128.5 163.5,130.5C 162.833,130.5 162.167,130.5 161.5,130.5C 161.714,126.743 160.714,126.076 158.5,128.5C 158.167,128.167 157.833,127.833 157.5,127.5C 158.624,126.141 159.958,125.141 161.5,124.5 Z"/></g>
<g><path style="opacity:1" fill="#262626" d="M 38.5,124.5 C 40.1667,124.5 41.8333,124.5 43.5,124.5C 43.7852,126.288 43.4519,127.955 42.5,129.5C 40.4435,128.178 38.6101,128.511 37,130.5C 36.5,130.333 36,130.167 35.5,130C 36.6394,128.22 37.6394,126.386 38.5,124.5 Z"/></g>
<g><path style="opacity:1" fill="#171717" d="M 44.5,124.5 C 46.0443,124.703 47.3777,125.37 48.5,126.5C 49.5237,125.147 50.857,124.48 52.5,124.5C 52.7989,126.604 52.4656,128.604 51.5,130.5C 50.8076,129.975 50.3076,129.308 50,128.5C 49,129.833 48,129.833 47,128.5C 46.6924,129.308 46.1924,129.975 45.5,130.5C 44.5344,128.604 44.2011,126.604 44.5,124.5 Z"/></g>
<g><path style="opacity:1" fill="#2d2d2d" d="M 53.5,124.5 C 55.604,124.201 57.604,124.534 59.5,125.5C 58.1667,126.833 58.1667,128.167 59.5,129.5C 57.604,130.466 55.604,130.799 53.5,130.5C 53.5,128.5 53.5,126.5 53.5,124.5 Z"/></g>
<g><path style="opacity:1" fill="#222222" d="M 60.5,124.5 C 62.5,124.5 64.5,124.5 66.5,124.5C 66.7989,126.604 66.4656,128.604 65.5,130.5C 64.5224,130.023 63.6891,129.357 63,128.5C 62.6924,129.308 62.1924,129.975 61.5,130.5C 60.5344,128.604 60.2011,126.604 60.5,124.5 Z"/></g>
<g><path style="opacity:1" fill="#696969" d="M 71.5,124.5 C 71.5,126.167 71.5,127.833 71.5,129.5C 73.5,129.5 75.5,129.5 77.5,129.5C 74.3752,130.479 71.0419,130.813 67.5,130.5C 67.5,128.5 67.5,126.5 67.5,124.5C 68.8333,124.5 70.1667,124.5 71.5,124.5 Z"/></g>
<g><path style="opacity:1" fill="#1b1b1b" d="M 71.5,124.5 C 77.6966,124.325 78.3633,125.325 73.5,127.5C 74.9492,128.172 76.2825,128.839 77.5,129.5C 75.5,129.5 73.5,129.5 71.5,129.5C 71.5,127.833 71.5,126.167 71.5,124.5 Z"/></g>
<g><path style="opacity:1" fill="#161616" d="M 78.5,125.5 C 79.7564,125.904 80.9231,126.571 82,127.5C 82.9503,126.978 83.7836,126.311 84.5,125.5C 85.8333,126.833 85.8333,128.167 84.5,129.5C 83.8165,129.137 83.1499,128.804 82.5,128.5C 81.2652,128.721 80.2652,129.388 79.5,130.5C 78.5481,128.955 78.2148,127.288 78.5,125.5 Z"/></g>
<g><path style="opacity:1" fill="#111111" d="M 86.5,124.5 C 88.0174,124.511 89.1841,125.177 90,126.5C 90.3076,125.692 90.8076,125.025 91.5,124.5C 92.4519,126.045 92.7852,127.712 92.5,129.5C 91.209,129.737 90.209,129.404 89.5,128.5C 88.4341,127.308 87.6008,127.641 87,129.5C 86.5065,127.866 86.3398,126.199 86.5,124.5 Z"/></g>
<g><path style="opacity:1" fill="#181818" d="M 104.5,124.5 C 106.199,124.34 107.866,124.506 109.5,125C 108.5,125.333 107.5,125.667 106.5,126C 107.737,126.232 108.737,126.732 109.5,127.5C 107.857,127.48 106.524,128.147 105.5,129.5C 104.548,127.955 104.215,126.288 104.5,124.5 Z"/></g>
<g><path style="opacity:1" fill="#262626" d="M 111.5,124.5 C 117.697,124.325 118.363,125.325 113.5,127.5C 118.363,129.675 117.697,130.675 111.5,130.5C 111.5,128.5 111.5,126.5 111.5,124.5 Z"/></g>
<g><path style="opacity:1" fill="#333333" d="M 118.5,124.5 C 119.756,124.904 120.923,125.571 122,126.5C 122.95,125.978 123.784,125.311 124.5,124.5C 125.833,126.5 125.833,128.5 124.5,130.5C 122.833,127.833 121.167,127.833 119.5,130.5C 118.534,128.604 118.201,126.604 118.5,124.5 Z"/></g>
<g><path style="opacity:1" fill="#1b1b1b" d="M 132.5,124.5 C 132.5,126.5 132.5,128.5 132.5,130.5C 130.983,130.489 129.816,129.823 129,128.5C 127.513,129.741 126.68,129.241 126.5,127C 127.045,123.987 128.211,123.821 130,126.5C 130.417,125.244 131.25,124.577 132.5,124.5 Z"/></g>
<g><path style="opacity:1" fill="#8a8a8a" d="M 132.5,124.5 C 133.167,124.5 133.833,124.5 134.5,124.5C 133.699,126.042 133.366,127.708 133.5,129.5C 135.833,129.5 138.167,129.5 140.5,129.5C 138.052,130.473 135.385,130.806 132.5,130.5C 132.5,128.5 132.5,126.5 132.5,124.5 Z"/></g>
<g><path style="opacity:1" fill="#1e1e1e" d="M 134.5,124.5 C 136.5,124.5 138.5,124.5 140.5,124.5C 140.5,126.167 140.5,127.833 140.5,129.5C 138.167,129.5 135.833,129.5 133.5,129.5C 133.366,127.708 133.699,126.042 134.5,124.5 Z"/></g>
<g><path style="opacity:1" fill="#1f1f1f" d="M 141.5,124.5 C 143.176,125.183 143.843,126.517 143.5,128.5C 144.675,128.281 145.675,128.614 146.5,129.5C 144.955,130.452 143.288,130.785 141.5,130.5C 141.5,128.5 141.5,126.5 141.5,124.5 Z"/></g>
<g><path style="opacity:1" fill="#222222" d="M 161.5,124.5 C 159.958,125.141 158.624,126.141 157.5,127.5C 157.833,127.833 158.167,128.167 158.5,128.5C 160.714,126.076 161.714,126.743 161.5,130.5C 159.5,130.5 157.5,130.5 155.5,130.5C 155.5,128.5 155.5,126.5 155.5,124.5C 157.5,124.5 159.5,124.5 161.5,124.5 Z"/></g>
<g><path style="opacity:1" fill="#fafbfb" d="M 136.5,126.5 C 138.337,126.639 138.67,127.306 137.5,128.5C 136.702,128.043 136.369,127.376 136.5,126.5 Z"/></g>
<g><path style="opacity:1" fill="#d5d5d5" d="M 149.5,126.5 C 150.675,126.281 151.675,126.614 152.5,127.5C 150.948,128.798 149.948,128.465 149.5,126.5 Z"/></g>
<g><path style="opacity:1" fill="#323232" d="M 163.5,124.5 C 165.089,127.092 166.755,127.092 168.5,124.5C 169.466,126.396 169.799,128.396 169.5,130.5C 167.5,130.5 165.5,130.5 163.5,130.5C 163.5,128.5 163.5,126.5 163.5,124.5 Z"/></g>
<g><path style="opacity:1" fill="#717272" d="M 78.5,125.5 C 80.9479,124.527 83.6146,124.194 86.5,124.5C 86.3398,126.199 86.5065,127.866 87,129.5C 87.6008,127.641 88.4341,127.308 89.5,128.5C 88.4477,129.53 87.1143,130.197 85.5,130.5C 83.9704,130.36 82.9704,129.693 82.5,128.5C 83.1499,128.804 83.8165,129.137 84.5,129.5C 85.8333,128.167 85.8333,126.833 84.5,125.5C 83.7836,126.311 82.9503,126.978 82,127.5C 80.9231,126.571 79.7564,125.904 78.5,125.5 Z"/></g>
<g><path style="opacity:1" fill="#fe6125" d="M 169.5,131.5 C 165.353,132.325 161.019,132.825 156.5,133C 160.486,133.499 164.486,133.666 168.5,133.5C 158.315,158.704 139.482,172.037 112,173.5C 85.089,171.978 66.2557,158.978 55.5,134.5C 57.0777,133.702 58.7444,133.202 60.5,133C 51.324,132.83 42.324,132.33 33.5,131.5C 53.8333,131.5 74.1667,131.5 94.5,131.5C 94.3179,122.535 95.3179,122.535 97.5,131.5C 121.5,131.5 145.5,131.5 169.5,131.5 Z"/></g>
<g><path style="opacity:1" fill="#4e4e4e" d="M 104.5,124.5 C 104.215,126.288 104.548,127.955 105.5,129.5C 106.524,128.147 107.857,127.48 109.5,127.5C 109.804,128.15 110.137,128.817 110.5,129.5C 108.257,130.474 105.924,130.808 103.5,130.5C 103.404,125.89 102.404,125.556 100.5,129.5C 99.6461,128.052 98.6461,126.719 97.5,125.5C 99.7427,124.526 102.076,124.192 104.5,124.5 Z"/></g>
<g><path style="opacity:1" fill="#fe4e13" d="M -0.5,144.5 C 13.1667,184.167 39.8333,210.833 79.5,224.5C 52.8333,224.5 26.1667,224.5 -0.5,224.5C -0.5,197.833 -0.5,171.167 -0.5,144.5 Z"/></g>
<g><path style="opacity:1" fill="#fe4e13" d="M 224.5,144.5 C 224.5,171.167 224.5,197.833 224.5,224.5C 197.833,224.5 171.167,224.5 144.5,224.5C 184.178,210.822 210.844,184.156 224.5,144.5 Z"/></g>
</svg>
