<?xml version="1.0" standalone="no"?>
<!DOCTYPE svg PUBLIC "-//W3C//DTD SVG 20010904//EN"
 "http://www.w3.org/TR/2001/REC-SVG-20010904/DTD/svg10.dtd">
<svg version="1.0" xmlns="http://www.w3.org/2000/svg"
 width="148.000000pt" height="148.000000pt" viewBox="0 0 148.000000 148.000000"
 preserveAspectRatio="xMidYMid meet">

<g transform="translate(0.000000,148.000000) scale(0.100000,-0.100000)"
fill="#000000" stroke="none">
<path d="M666 974 c-49 -18 -76 -41 -69 -61 4 -10 0 -13 -12 -11 -12 2 -25 -9
-39 -32 -31 -51 -29 -141 4 -200 14 -25 31 -45 38 -45 6 0 12 -4 12 -10 1 -5
20 -20 43 -32 50 -26 130 -30 184 -8 78 31 142 123 143 205 0 43 -39 125 -60
125 -8 0 -14 8 -12 17 4 23 -78 60 -141 63 -29 1 -70 -4 -91 -11z m168 -65
c-3 -5 -10 -7 -15 -3 -5 3 -7 10 -3 15 3 5 10 7 15 3 5 -3 7 -10 3 -15z m-154
1 c0 -5 -4 -10 -10 -10 -5 0 -10 5 -10 10 0 6 5 10 10 10 6 0 10 -4 10 -10z
m80 6 c0 -3 -4 -8 -10 -11 -5 -3 -10 -1 -10 4 0 6 5 11 10 11 6 0 10 -2 10 -4z
m154 -77 c-3 -5 -10 -7 -15 -3 -5 3 -7 10 -3 15 3 5 10 7 15 3 5 -3 7 -10 3
-15z m-310 -10 c-3 -5 -10 -7 -15 -3 -5 3 -7 10 -3 15 3 5 10 7 15 3 5 -3 7
-10 3 -15z m76 11 c0 -5 -4 -10 -10 -10 -5 0 -10 5 -10 10 0 6 5 10 10 10 6 0
10 -4 10 -10z m80 0 c0 -5 -4 -10 -10 -10 -5 0 -10 5 -10 10 0 6 5 10 10 10 6
0 10 -4 10 -10z m80 0 c0 -5 -4 -10 -10 -10 -5 0 -10 5 -10 10 0 6 5 10 10 10
6 0 10 -4 10 -10z m-244 -87 c-10 -10 -19 5 -10 18 6 11 8 11 12 0 2 -7 1 -15
-2 -18z m239 17 c3 -5 1 -10 -4 -10 -6 0 -11 5 -11 10 0 6 2 10 4 10 3 0 8 -4
11 -10z m-155 -10 c0 -5 -2 -10 -4 -10 -3 0 -8 5 -11 10 -3 6 -1 10 4 10 6 0
11 -4 11 -10z m234 -71 c-3 -5 -10 -7 -15 -3 -5 3 -7 10 -3 15 3 5 10 7 15 3
5 -3 7 -10 3 -15z m-310 -10 c-3 -5 -10 -7 -15 -3 -5 3 -7 10 -3 15 3 5 10 7
15 3 5 -3 7 -10 3 -15z m76 11 c0 -5 -5 -10 -11 -10 -5 0 -7 5 -4 10 3 6 8 10
11 10 2 0 4 -4 4 -10z m80 0 c0 -5 -4 -10 -10 -10 -5 0 -10 5 -10 10 0 6 5 10
10 10 6 0 10 -4 10 -10z m80 0 c0 -5 -2 -10 -4 -10 -3 0 -8 5 -11 10 -3 6 -1
10 4 10 6 0 11 -4 11 -10z m-156 -82 c-9 -14 -23 2 -17 18 4 12 8 13 14 3 4
-7 5 -17 3 -21z m76 12 c0 -5 -5 -10 -11 -10 -5 0 -7 5 -4 10 3 6 8 10 11 10
2 0 4 -4 4 -10z m80 0 c0 -5 -4 -10 -10 -10 -5 0 -10 5 -10 10 0 6 5 10 10 10
6 0 10 -4 10 -10z"/>
<path d="M1160 445 c0 -43 4 -75 10 -76 6 -1 19 -1 30 -1 40 0 50 2 50 12 0 6
-13 10 -30 10 -23 0 -30 4 -30 20 0 13 7 20 20 20 11 0 20 6 20 14 0 9 -7 12
-20 9 -15 -4 -20 0 -20 16 0 17 6 21 30 21 20 0 30 5 30 15 0 11 -12 15 -45
15 l-45 0 0 -75z"/>
<path d="M310 435 l0 -75 46 0 c32 0 44 4 41 13 -2 7 -15 11 -30 9 -27 -3 -27
-3 -27 62 0 52 -3 66 -15 66 -12 0 -15 -15 -15 -75z"/>
<path d="M560 435 c0 -60 3 -75 15 -75 10 0 15 10 15 28 l1 27 17 -27 c9 -16
25 -28 35 -28 18 0 18 2 4 24 -14 21 -14 26 -2 36 8 7 15 25 15 41 0 33 -23
49 -69 49 l-31 0 0 -75z m70 25 c0 -13 -7 -20 -20 -20 -13 0 -20 7 -20 20 0
13 7 20 20 20 13 0 20 -7 20 -20z"/>
<path d="M680 435 l0 -75 45 0 c33 0 45 4 45 15 0 10 -10 15 -30 15 -20 0 -30
5 -30 15 0 9 9 15 25 15 16 0 25 6 25 15 0 9 -9 15 -25 15 -16 0 -25 6 -25 15
0 10 10 15 30 15 20 0 30 5 30 15 0 11 -12 15 -45 15 l-45 0 0 -75z"/>
<path d="M790 504 c0 -3 8 -19 17 -35 16 -27 16 -31 0 -64 -9 -20 -17 -38 -17
-40 0 -13 24 -3 40 17 l17 22 12 -22 c6 -12 18 -22 26 -22 19 0 19 3 -5 42
-19 32 -19 32 0 66 24 40 24 42 5 42 -8 0 -20 -10 -26 -22 l-12 -22 -15 22
c-13 20 -42 31 -42 16z"/>
<path d="M920 495 c0 -8 7 -15 15 -15 12 0 15 -13 15 -60 0 -47 3 -60 15 -60
12 0 15 13 15 60 0 57 5 66 33 61 4 0 7 6 7 14 0 11 -12 15 -50 15 -38 0 -50
-4 -50 -15z"/>
<path d="M1040 466 c0 -24 -3 -58 -6 -75 -5 -24 -3 -31 10 -31 11 0 16 9 16
32 l0 32 29 -34 c30 -36 55 -35 32 1 -10 18 -10 24 3 38 19 21 21 52 4 69 -7
7 -29 12 -50 12 l-38 0 0 -44z m68 -5 c-4 -20 -43 -21 -44 -1 -1 24 5 28 26
23 13 -3 20 -12 18 -22z"/>
<path d="M1371 464 l-32 -46 -30 41 c-17 22 -34 41 -38 41 -4 0 -9 -29 -10
-65 -2 -53 1 -65 13 -65 11 0 16 10 16 32 l0 32 24 -32 24 -33 21 28 20 28 1
-27 c0 -18 5 -28 15 -28 12 0 15 14 15 70 0 39 -1 70 -3 70 -2 0 -18 -21 -36
-46z"/>
<path d="M52 488 c-21 -21 -13 -48 18 -66 16 -9 30 -20 30 -24 0 -12 -22 -21
-29 -12 -11 15 -31 15 -31 -1 0 -19 36 -38 60 -30 11 4 23 18 26 32 7 26 3 32
-42 59 -10 6 -14 15 -10 22 5 9 11 9 26 0 24 -15 37 -4 20 17 -15 18 -51 20
-68 3z"/>
<path d="M167 482 c-39 -42 -6 -122 51 -122 34 0 65 19 58 36 -3 8 -2 12 3 9
20 -12 23 38 4 64 -26 34 -90 41 -116 13z"/>
<path d="M442 433 c-19 -41 -27 -69 -21 -72 6 -2 16 2 22 8 14 14 42 14 67 -1
10 -7 22 -10 25 -7 6 7 -47 139 -56 139 -3 0 -20 -30 -37 -67z m48 -24 c0 -6
-4 -7 -10 -4 -5 3 -10 11 -10 16 0 6 5 7 10 4 6 -3 10 -11 10 -16z"/>
</g>
</svg>
