<?xml version="1.0" encoding="UTF-8"?>
<!DOCTYPE svg PUBLIC "-//W3C//DTD SVG 1.1//EN" "http://www.w3.org/Graphics/SVG/1.1/DTD/svg11.dtd">
<svg xmlns="http://www.w3.org/2000/svg" version="1.1" width="344px" height="147px" style="shape-rendering:geometricPrecision; text-rendering:geometricPrecision; image-rendering:optimizeQuality; fill-rule:evenodd; clip-rule:evenodd" xmlns:xlink="http://www.w3.org/1999/xlink">
<g><path style="opacity:1" fill="#fdfcfc" d="M -0.5,-0.5 C 114.167,-0.5 228.833,-0.5 343.5,-0.5C 343.5,48.5 343.5,97.5 343.5,146.5C 228.833,146.5 114.167,146.5 -0.5,146.5C -0.5,97.5 -0.5,48.5 -0.5,-0.5 Z"/></g>
<g><path style="opacity:1" fill="#ed4f4d" d="M 85.5,16.5 C 83.5363,18.1274 82.203,20.1274 81.5,22.5C 77.9202,21.9228 74.9202,22.9228 72.5,25.5C 70.5184,24.3775 68.5184,24.3775 66.5,25.5C 68.7094,24.0438 71.0427,22.5438 73.5,21C 77.6624,19.7813 81.6624,18.2813 85.5,16.5 Z"/></g>
<g><path style="opacity:1" fill="#ef444c" d="M 92.5,18.5 C 94.1494,19.6485 95.6494,20.9818 97,22.5C 102.172,23.5182 107.005,25.1849 111.5,27.5C 109.533,27.7394 107.699,27.4061 106,26.5C 105.692,27.3081 105.192,27.9747 104.5,28.5C 101.222,25.7664 97.5554,23.7664 93.5,22.5C 92.5713,21.3112 92.238,19.9778 92.5,18.5 Z"/></g>
<g><path style="opacity:1" fill="#ed5b6d" d="M 111.5,27.5 C 116.654,27.947 121.32,29.2804 125.5,31.5C 121.32,29.2804 116.654,27.947 111.5,27.5 Z"/></g>
<g><path style="opacity:1" fill="#fa2221" d="M 152.5,36.5 C 159.086,35.3742 165.753,35.2075 172.5,36C 176.044,36.1808 179.21,37.3475 182,39.5C 185.962,38.8823 189.962,38.5489 194,38.5C 203.174,39.1204 212.341,39.7871 221.5,40.5C 222.833,40.5 224.167,40.5 225.5,40.5C 225.5,41.5 225.5,42.5 225.5,43.5C 167.167,43.5 108.833,43.5 50.5,43.5C 49.5655,42.4324 49.2322,41.099 49.5,39.5C 51.5,40.1667 53.5,40.8333 55.5,41.5C 55.5334,37.0796 55.3667,32.7462 55,28.5C 56.0674,29.1905 57.2341,29.6905 58.5,30C 55.9365,30.763 55.9365,31.263 58.5,31.5C 62.0549,29.8906 65.7215,28.5573 69.5,27.5C 71.087,28.3624 72.7536,29.0291 74.5,29.5C 78.9385,28.3103 83.2718,26.9769 87.5,25.5C 87.5,27.5 87.5,29.5 87.5,31.5C 92.3842,30.9457 97.2175,30.9457 102,31.5C 104.484,31.1742 106.651,30.1742 108.5,28.5C 110.666,28.4296 110.999,29.0962 109.5,30.5C 111.005,31.8415 111.672,33.5082 111.5,35.5C 117.378,35.6786 122.878,37.0119 128,39.5C 129,36.8333 130,36.8333 131,39.5C 134.221,39.0547 137.721,39.0547 141.5,39.5C 144.777,38.7463 148.11,38.2463 151.5,38C 152.056,37.6174 152.389,37.1174 152.5,36.5 Z"/></g>
<g><path style="opacity:1" fill="#e79fab" d="M 181.5,35.5 C 188.424,35.0678 195.091,35.7345 201.5,37.5C 194.661,37.1109 187.994,36.4442 181.5,35.5 Z"/></g>
<g><path style="opacity:1" fill="#ea3e47" d="M 127.5,31.5 C 145.383,33.9863 163.383,35.3196 181.5,35.5C 187.994,36.4442 194.661,37.1109 201.5,37.5C 208.344,38.1366 215.011,39.1366 221.5,40.5C 212.341,39.7871 203.174,39.1204 194,38.5C 189.962,38.5489 185.962,38.8823 182,39.5C 179.21,37.3475 176.044,36.1808 172.5,36C 165.753,35.2075 159.086,35.3742 152.5,36.5C 146.129,36.5118 139.796,36.0118 133.5,35C 131.111,34.2612 129.111,33.0946 127.5,31.5 Z"/></g>
<g><path style="opacity:1" fill="#c23d42" d="M 50.5,43.5 C 108.833,43.5 167.167,43.5 225.5,43.5C 167.668,44.3328 109.668,44.8328 51.5,45C 50.6634,46.0113 50.33,47.1779 50.5,48.5C 49.2801,46.9504 49.2801,45.2837 50.5,43.5 Z"/></g>
<g><path style="opacity:1" fill="#f82b29" d="M 85.5,16.5 C 87.921,16.8782 90.2543,17.5448 92.5,18.5C 92.238,19.9778 92.5713,21.3112 93.5,22.5C 97.5554,23.7664 101.222,25.7664 104.5,28.5C 105.192,27.9747 105.692,27.3081 106,26.5C 107.699,27.4061 109.533,27.7394 111.5,27.5C 113.831,29.0848 116.497,30.2514 119.5,31C 121.473,31.4955 123.473,31.6621 125.5,31.5C 126.167,31.5 126.833,31.5 127.5,31.5C 129.111,33.0946 131.111,34.2612 133.5,35C 139.796,36.0118 146.129,36.5118 152.5,36.5C 152.389,37.1174 152.056,37.6174 151.5,38C 148.11,38.2463 144.777,38.7463 141.5,39.5C 137.721,39.0547 134.221,39.0547 131,39.5C 130,36.8333 129,36.8333 128,39.5C 122.878,37.0119 117.378,35.6786 111.5,35.5C 111.672,33.5082 111.005,31.8415 109.5,30.5C 110.999,29.0962 110.666,28.4296 108.5,28.5C 106.651,30.1742 104.484,31.1742 102,31.5C 97.2175,30.9457 92.3842,30.9457 87.5,31.5C 87.5,29.5 87.5,27.5 87.5,25.5C 83.2718,26.9769 78.9385,28.3103 74.5,29.5C 72.7536,29.0291 71.087,28.3624 69.5,27.5C 65.7215,28.5573 62.0549,29.8906 58.5,31.5C 55.9365,31.263 55.9365,30.763 58.5,30C 57.2341,29.6905 56.0674,29.1905 55,28.5C 55.3667,32.7462 55.5334,37.0796 55.5,41.5C 53.5,40.8333 51.5,40.1667 49.5,39.5C 49.2322,41.099 49.5655,42.4324 50.5,43.5C 49.2801,45.2837 49.2801,46.9504 50.5,48.5C 61.6084,54.0552 72.9418,59.0552 84.5,63.5C 84.3691,64.3764 84.7025,65.0431 85.5,65.5C 88.9453,67.5457 92.2786,69.5457 95.5,71.5C 95.2407,73.9893 96.2407,75.656 98.5,76.5C 98.5,76.8333 98.5,77.1667 98.5,77.5C 98.5,79.1667 98.5,80.8333 98.5,82.5C 96.6349,78.9983 94.3015,75.6649 91.5,72.5C 90.3112,71.5713 88.9778,71.238 87.5,71.5C 87.6567,70.1266 87.49,68.7932 87,67.5C 85.9887,68.3366 84.8221,68.67 83.5,68.5C 83.5086,66.6916 83.0086,65.0249 82,63.5C 81.6667,63.8333 81.3333,64.1667 81,64.5C 78.2619,63.0897 75.4285,61.7564 72.5,60.5C 71.7836,61.311 70.9503,61.9777 70,62.5C 68.1444,61.2643 66.3111,61.2643 64.5,62.5C 64.1667,62.1667 63.8333,61.8333 63.5,61.5C 64.9079,60.7568 66.2412,59.9234 67.5,59C 66.5838,58.6258 65.7504,58.1258 65,57.5C 63.5604,59.0456 61.7271,59.879 59.5,60C 58.6634,61.0113 58.33,62.1779 58.5,63.5C 56.2574,64.3123 53.9241,64.9789 51.5,65.5C 48.2333,63.8939 45.9,64.5606 44.5,67.5C 46.7427,68.4742 49.076,68.8076 51.5,68.5C 51.1367,70.9115 52.1367,72.4115 54.5,73C 56.8333,73.6667 59.1667,73.6667 61.5,73C 59.0649,71.9966 59.3982,71.4966 62.5,71.5C 65.2482,72.039 67.9149,72.8723 70.5,74C 70.0426,74.414 69.7093,74.914 69.5,75.5C 70.8532,76.5237 71.5198,77.857 71.5,79.5C 63.2287,77.3495 55.2287,74.6829 47.5,71.5C 46.1048,69.6206 44.1048,68.6206 41.5,68.5C 38.7836,65.4535 35.6169,62.7868 32,60.5C 28.4755,48.047 32.3088,38.547 43.5,32C 46.8742,31.479 49.8742,30.1457 52.5,28C 57.1603,27.0568 61.8269,26.2234 66.5,25.5C 68.5184,24.3775 70.5184,24.3775 72.5,25.5C 74.9202,22.9228 77.9202,21.9228 81.5,22.5C 82.203,20.1274 83.5363,18.1274 85.5,16.5 Z"/></g>
<g><path style="opacity:1" fill="#e17a81" d="M 191.5,53.5 C 184.591,52.9603 177.924,53.6269 171.5,55.5C 171.953,54.5416 172.619,53.7083 173.5,53C 179.681,52.1808 185.681,52.3475 191.5,53.5 Z"/></g>
<g><path style="opacity:1" fill="#e97880" d="M 305.5,53.5 C 300.303,53.0915 295.303,53.7581 290.5,55.5C 290.577,54.2502 291.244,53.4169 292.5,53C 297.02,52.1864 301.354,52.353 305.5,53.5 Z"/></g>
<g><path style="opacity:1" fill="#e7454b" d="M 129.5,95.5 C 128.34,82.6732 128.173,69.6732 129,56.5C 130.516,59.0515 131.349,58.7181 131.5,55.5C 125.459,55.7474 119.459,55.4141 113.5,54.5C 111.912,55.0096 110.745,56.0096 110,57.5C 110.138,59.4896 110.638,61.4896 111.5,63.5C 110.555,72.4653 110.221,81.4653 110.5,90.5C 109.888,78.8603 109.055,67.1937 108,55.5C 108.5,55 109,54.5 109.5,54C 117.493,53.5003 125.493,53.3336 133.5,53.5C 133.66,55.1992 133.494,56.8659 133,58.5C 131.26,59.7158 130.26,61.3825 130,63.5C 129.5,74.1615 129.333,84.8281 129.5,95.5 Z"/></g>
<g><path style="opacity:1" fill="#f43536" d="M 253.5,54.5 C 247.537,53.4696 241.537,53.3029 235.5,54C 233.048,55.8064 233.381,57.3064 236.5,58.5C 237.167,58.1667 237.833,57.8333 238.5,57.5C 242.786,59.073 247.12,60.4063 251.5,61.5C 251.5,62.8333 251.5,64.1667 251.5,65.5C 249.46,62.3183 246.46,60.985 242.5,61.5C 238.782,60.7262 236.449,62.0596 235.5,65.5C 234.542,65.9528 233.708,66.6195 233,67.5C 232.18,74.0137 232.347,80.3471 233.5,86.5C 233.054,89.0101 233.72,91.0101 235.5,92.5C 236.833,93.5 238.167,94.5 239.5,95.5C 237.194,95.0074 234.861,94.6741 232.5,94.5C 231.582,85.2067 231.248,75.8734 231.5,66.5C 230.5,66.5 229.5,66.5 228.5,66.5C 228.649,67.552 228.483,68.552 228,69.5C 226.229,68.6959 224.729,67.5292 223.5,66C 226.113,64.9288 226.113,64.0955 223.5,63.5C 226.263,54.1739 232.596,50.5072 242.5,52.5C 245.5,52.6667 248.5,52.8333 251.5,53C 252.416,53.2784 253.082,53.7784 253.5,54.5 Z"/></g>
<g><path style="opacity:1" fill="#e96375" d="M 84.5,63.5 C 88.7858,65.4579 92.4525,68.1246 95.5,71.5C 92.2786,69.5457 88.9453,67.5457 85.5,65.5C 84.7025,65.0431 84.3691,64.3764 84.5,63.5 Z"/></g>
<g><path style="opacity:1" fill="#f62e2c" d="M 305.5,53.5 C 314.946,54.9457 320.946,60.279 323.5,69.5C 324.08,73.81 324.414,78.1434 324.5,82.5C 324.167,82.5 323.833,82.5 323.5,82.5C 319.5,82.5 315.5,82.5 311.5,82.5C 314.977,81.6773 318.644,81.1773 322.5,81C 321.5,80.6667 320.5,80.3333 319.5,80C 319.833,79.6667 320.167,79.3333 320.5,79C 319.88,76.5272 319.214,74.0272 318.5,71.5C 317.316,73.0461 316.316,74.7127 315.5,76.5C 314.684,74.7127 313.684,73.0461 312.5,71.5C 311.5,71.8333 310.833,72.5 310.5,73.5C 311.326,74.451 311.492,75.451 311,76.5C 304.929,76.3672 298.763,76.2005 292.5,76C 291.183,73.0635 291.183,70.2301 292.5,67.5C 292.232,70.1194 292.565,72.6194 293.5,75C 297.027,75.8075 300.36,75.6408 303.5,74.5C 305.167,74.5 306.833,74.5 308.5,74.5C 308.806,71.6146 308.473,68.9479 307.5,66.5C 306.182,65.2426 304.849,63.9093 303.5,62.5C 302.167,62.1667 300.833,61.8333 299.5,61.5C 297.667,61.5854 296.334,62.2521 295.5,63.5C 294.222,63.7822 293.222,64.4489 292.5,65.5C 291.721,63.0728 290.554,63.0728 289,65.5C 288.692,64.6919 288.192,64.0253 287.5,63.5C 286.158,65.0049 284.492,65.6715 282.5,65.5C 282.66,67.1992 282.494,68.8659 282,70.5C 281.329,71.2524 280.496,71.5858 279.5,71.5C 280.627,66.6038 282.793,62.2704 286,58.5C 287.271,57.1175 288.771,56.1175 290.5,55.5C 295.303,53.7581 300.303,53.0915 305.5,53.5 Z"/></g>
<g><path style="opacity:1" fill="#f7f4f2" d="M 307.5,66.5 C 307.662,68.5273 307.495,70.5273 307,72.5C 305.698,73.0848 304.531,73.7515 303.5,74.5C 300.5,74.5 297.5,74.5 294.5,74.5C 292.897,70.6473 293.231,66.9807 295.5,63.5C 296.334,62.2521 297.667,61.5854 299.5,61.5C 300.833,61.8333 302.167,62.1667 303.5,62.5C 304.849,63.9093 306.182,65.2426 307.5,66.5 Z"/></g>
<g><path style="opacity:1" fill="#df666a" d="M 41.5,68.5 C 44.1048,68.6206 46.1048,69.6206 47.5,71.5C 45.0326,71.2451 43.0326,70.2451 41.5,68.5 Z"/></g>
<g><path style="opacity:1" fill="#f5a39f" d="M 307.5,66.5 C 308.473,68.9479 308.806,71.6146 308.5,74.5C 306.833,74.5 305.167,74.5 303.5,74.5C 304.531,73.7515 305.698,73.0848 307,72.5C 307.495,70.5273 307.662,68.5273 307.5,66.5 Z"/></g>
<g><path style="opacity:1" fill="#fa2725" d="M 129.5,95.5 C 130.995,95.4148 131.995,96.0815 132.5,97.5C 135.086,98.48 137.753,98.8134 140.5,98.5C 140.285,96.8212 140.952,95.8212 142.5,95.5C 143.659,84.0073 143.826,72.3407 143,60.5C 142.617,59.944 142.117,59.6107 141.5,59.5C 140.199,58.1155 140.199,56.6155 141.5,55C 145.027,54.1925 148.36,54.3592 151.5,55.5C 154.962,56.4816 158.629,56.815 162.5,56.5C 160.651,67.3812 159.985,78.3812 160.5,89.5C 159.5,92.1667 158.5,94.8333 157.5,97.5C 155.086,98.9108 153.419,100.911 152.5,103.5C 149.357,105.242 146.357,107.242 143.5,109.5C 132.695,112.961 123.862,110.294 117,101.5C 115.71,99.208 114.043,97.208 112,95.5C 111.802,93.6183 111.302,91.9516 110.5,90.5C 110.221,81.4653 110.555,72.4653 111.5,63.5C 110.638,61.4896 110.138,59.4896 110,57.5C 110.745,56.0096 111.912,55.0096 113.5,54.5C 119.459,55.4141 125.459,55.7474 131.5,55.5C 131.349,58.7181 130.516,59.0515 129,56.5C 128.173,69.6732 128.34,82.6732 129.5,95.5 Z"/></g>
<g><path style="opacity:1" fill="#fbc5c8" d="M 141.5,59.5 C 142.117,59.6107 142.617,59.944 143,60.5C 143.826,72.3407 143.659,84.0073 142.5,95.5C 142.793,83.4498 142.459,71.4498 141.5,59.5 Z"/></g>
<g><path style="opacity:1" fill="#d6424b" d="M 151.5,55.5 C 155.833,55.5 160.167,55.5 164.5,55.5C 164.54,58.4245 163.707,61.0912 162,63.5C 161.83,72.343 161.33,81.0097 160.5,89.5C 159.985,78.3812 160.651,67.3812 162.5,56.5C 158.629,56.815 154.962,56.4816 151.5,55.5 Z"/></g>
<g><path style="opacity:1" fill="#f92623" d="M 292.5,65.5 C 292.5,66.1667 292.5,66.8333 292.5,67.5C 291.183,70.2301 291.183,73.0635 292.5,76C 298.763,76.2005 304.929,76.3672 311,76.5C 311.492,75.451 311.326,74.451 310.5,73.5C 310.833,72.5 311.5,71.8333 312.5,71.5C 313.684,73.0461 314.684,74.7127 315.5,76.5C 316.316,74.7127 317.316,73.0461 318.5,71.5C 319.214,74.0272 319.88,76.5272 320.5,79C 320.167,79.3333 319.833,79.6667 319.5,80C 320.5,80.3333 321.5,80.6667 322.5,81C 318.644,81.1773 314.977,81.6773 311.5,82.5C 305.167,82.5 298.833,82.5 292.5,82.5C 292.335,86.1817 292.501,89.8484 293,93.5C 294.401,95.1922 296.234,95.8588 298.5,95.5C 300.857,95.6633 303.19,95.4966 305.5,95C 307.37,92.9604 309.37,91.1271 311.5,89.5C 314.505,88.2763 317.505,88.2763 320.5,89.5C 321.466,91.396 321.799,93.396 321.5,95.5C 320.797,97.7157 319.464,99.549 317.5,101C 315.005,102.827 312.505,104.66 310,106.5C 307.709,107.072 305.375,107.406 303,107.5C 297.815,106.58 292.649,105.413 287.5,104C 285.255,101.269 283.255,98.4358 281.5,95.5C 280.87,91.4207 279.87,87.4207 278.5,83.5C 279.164,79.524 279.497,75.524 279.5,71.5C 280.496,71.5858 281.329,71.2524 282,70.5C 282.494,68.8659 282.66,67.1992 282.5,65.5C 284.492,65.6715 286.158,65.0049 287.5,63.5C 288.192,64.0253 288.692,64.6919 289,65.5C 290.554,63.0728 291.721,63.0728 292.5,65.5 Z"/></g>
<g><path style="opacity:1" fill="#e4707c" d="M 95.5,71.5 C 96.8897,72.8993 97.8897,74.5659 98.5,76.5C 96.2407,75.656 95.2407,73.9893 95.5,71.5 Z"/></g>
<g><path style="opacity:1" fill="#f82624" d="M 191.5,68.5 C 190.172,73.1194 189.506,78.1194 189.5,83.5C 189.501,88.6782 189.834,93.6782 190.5,98.5C 191.415,101.086 193.082,103.086 195.5,104.5C 195.5,105.5 195.5,106.5 195.5,107.5C 186.167,107.5 176.833,107.5 167.5,107.5C 167.5,106.167 167.5,104.833 167.5,103.5C 168.75,100.707 170.25,98.0406 172,95.5C 172.667,84.8333 172.667,74.1667 172,63.5C 171.5,61.5 171,59.5 170.5,57.5C 170.543,56.5836 170.876,55.9169 171.5,55.5C 177.924,53.6269 184.591,52.9603 191.5,53.5C 194.178,54.9095 196.844,54.7428 199.5,53C 207.896,50.1796 213.229,52.8462 215.5,61C 214.112,67.3893 210.278,71.5559 204,73.5C 200.609,72.1144 197.775,69.9478 195.5,67C 193.537,66.1558 192.204,66.6558 191.5,68.5 Z"/></g>
<g><path style="opacity:1" fill="#e17d7d" d="M 295.5,63.5 C 293.231,66.9807 292.897,70.6473 294.5,74.5C 297.5,74.5 300.5,74.5 303.5,74.5C 300.36,75.6408 297.027,75.8075 293.5,75C 292.565,72.6194 292.232,70.1194 292.5,67.5C 292.5,66.8333 292.5,66.1667 292.5,65.5C 293.222,64.4489 294.222,63.7822 295.5,63.5 Z"/></g>
<g><path style="opacity:1" fill="#e5a2a6" d="M 273.5,61.5 C 272.86,78.9614 272.193,96.2947 271.5,113.5C 271.333,96.4967 271.5,79.4967 272,62.5C 272.383,61.944 272.883,61.6107 273.5,61.5 Z"/></g>
<g><path style="opacity:1" fill="#e9808d" d="M 323.5,69.5 C 325.527,73.7368 325.861,78.0702 324.5,82.5C 324.414,78.1434 324.08,73.81 323.5,69.5 Z"/></g>
<g><path style="opacity:1" fill="#fb2321" d="M 98.5,82.5 C 99.5111,87.6932 99.3445,93.0265 98,98.5C 96.5187,99.4709 95.6854,100.804 95.5,102.5C 92.8333,104.833 90.1667,107.167 87.5,109.5C 86.8333,109.5 86.1667,109.5 85.5,109.5C 78.6611,110.04 77.6611,107.706 82.5,102.5C 80.0087,101.459 80.0087,100.626 82.5,100C 81.5,99.3333 80.5,99.3333 79.5,100C 78.4804,101.556 77.147,102.722 75.5,103.5C 74.8333,103.167 74.1667,102.833 73.5,102.5C 76.6667,101.167 78.6667,98.8332 79.5,95.5C 80.2631,92.8589 80.4298,90.1922 80,87.5C 77.4623,84.488 74.629,81.8213 71.5,79.5C 71.5198,77.857 70.8532,76.5237 69.5,75.5C 69.7093,74.914 70.0426,74.414 70.5,74C 67.9149,72.8723 65.2482,72.039 62.5,71.5C 59.3982,71.4966 59.0649,71.9966 61.5,73C 59.1667,73.6667 56.8333,73.6667 54.5,73C 52.1367,72.4115 51.1367,70.9115 51.5,68.5C 49.076,68.8076 46.7427,68.4742 44.5,67.5C 45.9,64.5606 48.2333,63.8939 51.5,65.5C 53.9241,64.9789 56.2574,64.3123 58.5,63.5C 58.33,62.1779 58.6634,61.0113 59.5,60C 61.7271,59.879 63.5604,59.0456 65,57.5C 65.7504,58.1258 66.5838,58.6258 67.5,59C 66.2412,59.9234 64.9079,60.7568 63.5,61.5C 63.8333,61.8333 64.1667,62.1667 64.5,62.5C 66.3111,61.2643 68.1444,61.2643 70,62.5C 70.9503,61.9777 71.7836,61.311 72.5,60.5C 75.4285,61.7564 78.2619,63.0897 81,64.5C 81.3333,64.1667 81.6667,63.8333 82,63.5C 83.0086,65.0249 83.5086,66.6916 83.5,68.5C 84.8221,68.67 85.9887,68.3366 87,67.5C 87.49,68.7932 87.6567,70.1266 87.5,71.5C 88.9778,71.238 90.3112,71.5713 91.5,72.5C 94.3015,75.6649 96.6349,78.9983 98.5,82.5 Z"/></g>
<g><path style="opacity:1" fill="#dd576c" d="M 191.5,68.5 C 190.526,78.4176 190.193,88.4176 190.5,98.5C 189.834,93.6782 189.501,88.6782 189.5,83.5C 189.506,78.1194 190.172,73.1194 191.5,68.5 Z"/></g>
<g><path style="opacity:1" fill="#de6163" d="M 311.5,82.5 C 315.5,82.5 319.5,82.5 323.5,82.5C 313.681,83.494 303.681,83.8274 293.5,83.5C 293.381,87.347 294.047,91.0137 295.5,94.5C 296.791,94.2627 297.791,94.596 298.5,95.5C 296.234,95.8588 294.401,95.1922 293,93.5C 292.501,89.8484 292.335,86.1817 292.5,82.5C 298.833,82.5 305.167,82.5 311.5,82.5 Z"/></g>
<g><path style="opacity:1" fill="#eb6477" d="M 98.5,77.5 C 99.2216,77.9175 99.7216,78.5842 100,79.5C 100.638,86.2076 100.305,92.8743 99,99.5C 97.9609,100.71 96.7942,101.71 95.5,102.5C 95.6854,100.804 96.5187,99.4709 98,98.5C 99.3445,93.0265 99.5111,87.6932 98.5,82.5C 98.5,80.8333 98.5,79.1667 98.5,77.5 Z"/></g>
<g><path style="opacity:1" fill="#f8f6f5" d="M 251.5,65.5 C 254.942,73.1725 255.442,81.1725 253,89.5C 250.491,96.0046 245.991,98.0046 239.5,95.5C 238.167,94.5 236.833,93.5 235.5,92.5C 235.405,90.2143 234.738,88.2143 233.5,86.5C 232.953,79.2605 233.62,72.2605 235.5,65.5C 236.449,62.0596 238.782,60.7262 242.5,61.5C 246.46,60.985 249.46,62.3183 251.5,65.5 Z"/></g>
<g><path style="opacity:1" fill="#e8808b" d="M 321.5,95.5 C 321.799,93.396 321.466,91.396 320.5,89.5C 317.505,88.2763 314.505,88.2763 311.5,89.5C 311.611,88.8826 311.944,88.3826 312.5,88C 315.562,87.2585 318.562,87.4252 321.5,88.5C 322.797,90.9732 322.797,93.3066 321.5,95.5 Z"/></g>
<g><path style="opacity:1" fill="#e74e4c" d="M 279.5,71.5 C 279.497,75.524 279.164,79.524 278.5,83.5C 279.87,87.4207 280.87,91.4207 281.5,95.5C 279.603,93.7312 278.436,91.3979 278,88.5C 277.057,82.5637 277.557,76.897 279.5,71.5 Z"/></g>
<g><path style="opacity:1" fill="#ea6776" d="M 55.5,91.5 C 59.2045,101.118 65.8711,103.451 75.5,98.5C 74.653,99.9663 73.3197,100.8 71.5,101C 62.1329,104.078 56.7996,100.911 55.5,91.5 Z"/></g>
<g><path style="opacity:1" fill="#f72825" d="M 55.5,91.5 C 56.7996,100.911 62.1329,104.078 71.5,101C 73.3197,100.8 74.653,99.9663 75.5,98.5C 76.795,97.5116 78.1283,96.5116 79.5,95.5C 78.6667,98.8332 76.6667,101.167 73.5,102.5C 74.1667,102.833 74.8333,103.167 75.5,103.5C 77.147,102.722 78.4804,101.556 79.5,100C 80.5,99.3333 81.5,99.3333 82.5,100C 80.0087,100.626 80.0087,101.459 82.5,102.5C 77.6611,107.706 78.6611,110.04 85.5,109.5C 81.6763,111.441 77.6763,112.775 73.5,113.5C 52.4805,117.799 34.6472,112.466 20,97.5C 18.872,95.6547 18.372,93.6547 18.5,91.5C 30.8333,91.5 43.1667,91.5 55.5,91.5 Z"/></g>
<g><path style="opacity:1" fill="#ef8592" d="M 157.5,97.5 C 156.581,100.089 154.914,102.089 152.5,103.5C 153.419,100.911 155.086,98.9108 157.5,97.5 Z"/></g>
<g><path style="opacity:1" fill="#bf5350" d="M 167.5,103.5 C 167.5,104.833 167.5,106.167 167.5,107.5C 176.833,107.5 186.167,107.5 195.5,107.5C 195.5,106.5 195.5,105.5 195.5,104.5C 196.434,105.568 196.768,106.901 196.5,108.5C 186.494,108.666 176.494,108.5 166.5,108C 164.957,105.955 165.29,104.455 167.5,103.5 Z"/></g>
<g><path style="opacity:1" fill="#f6bfc1" d="M 85.5,109.5 C 86.1667,109.5 86.8333,109.5 87.5,109.5C 86.7101,110.794 85.7101,111.961 84.5,113C 80.8484,113.499 77.1817,113.665 73.5,113.5C 77.6763,112.775 81.6763,111.441 85.5,109.5 Z"/></g>
<g><path style="opacity:1" fill="#f72724" d="M 273.5,61.5 C 272.883,61.6107 272.383,61.944 272,62.5C 271.5,79.4967 271.333,96.4967 271.5,113.5C 271.741,116.794 270.908,119.794 269,122.5C 250.159,143.292 232.492,142.292 216,119.5C 215.161,116.86 215.661,114.527 217.5,112.5C 223.128,111.505 228.794,111.171 234.5,111.5C 234.056,116.169 235.39,120.169 238.5,123.5C 239.874,125.959 242.04,126.959 245,126.5C 247.197,126.349 249.364,126.015 251.5,125.5C 252.713,125.253 253.38,124.586 253.5,123.5C 253.685,121.804 254.519,120.471 256,119.5C 256.799,114.913 256.632,110.413 255.5,106C 237.053,112.005 224.219,105.838 217,87.5C 215.989,79.9836 216.656,72.6503 219,65.5C 220.11,63.9632 221.61,63.2965 223.5,63.5C 226.113,64.0955 226.113,64.9288 223.5,66C 224.729,67.5292 226.229,68.6959 228,69.5C 228.483,68.552 228.649,67.552 228.5,66.5C 229.5,66.5 230.5,66.5 231.5,66.5C 231.248,75.8734 231.582,85.2067 232.5,94.5C 234.861,94.6741 237.194,95.0074 239.5,95.5C 245.991,98.0046 250.491,96.0046 253,89.5C 255.442,81.1725 254.942,73.1725 251.5,65.5C 251.5,64.1667 251.5,62.8333 251.5,61.5C 247.12,60.4063 242.786,59.073 238.5,57.5C 237.833,57.8333 237.167,58.1667 236.5,58.5C 233.381,57.3064 233.048,55.8064 235.5,54C 241.537,53.3029 247.537,53.4696 253.5,54.5C 260.759,52.895 268.093,52.395 275.5,53C 275.957,53.414 276.291,53.914 276.5,54.5C 275.212,56.7388 274.212,59.0721 273.5,61.5 Z"/></g>
<g><path style="opacity:1" fill="#e78a86" d="M 238.5,123.5 C 243.517,126.16 248.517,126.16 253.5,123.5C 253.38,124.586 252.713,125.253 251.5,125.5C 249.364,126.015 247.197,126.349 245,126.5C 242.04,126.959 239.874,125.959 238.5,123.5 Z"/></g>
<g><path style="opacity:1" fill="#f496b6" d="M 233.5,86.5 C 234.738,88.2143 235.405,90.2143 235.5,92.5C 233.72,91.0101 233.054,89.0101 233.5,86.5 Z"/></g>
<g><path style="opacity:1" fill="#e97e86" d="M 235.5,65.5 C 233.62,72.2605 232.953,79.2605 233.5,86.5C 232.347,80.3471 232.18,74.0137 233,67.5C 233.708,66.6195 234.542,65.9528 235.5,65.5 Z"/></g>
</svg>
