<?xml version="1.0" encoding="UTF-8"?>
<!DOCTYPE svg PUBLIC "-//W3C//DTD SVG 1.1//EN" "http://www.w3.org/Graphics/SVG/1.1/DTD/svg11.dtd">
<svg xmlns="http://www.w3.org/2000/svg" version="1.1" width="194px" height="182px" style="shape-rendering:geometricPrecision; text-rendering:geometricPrecision; image-rendering:optimizeQuality; fill-rule:evenodd; clip-rule:evenodd" xmlns:xlink="http://www.w3.org/1999/xlink">
<g><path style="opacity:1" fill="#fefdfd" d="M -0.5,-0.5 C 64.1667,-0.5 128.833,-0.5 193.5,-0.5C 193.5,24.8333 193.5,50.1667 193.5,75.5C 189.5,79.8333 189.5,84.1667 193.5,88.5C 193.5,94.1667 193.5,99.8333 193.5,105.5C 192.5,105.5 191.5,105.5 190.5,105.5C 190.205,107.735 190.539,109.735 191.5,111.5C 192.167,111.5 192.833,111.5 193.5,111.5C 193.5,134.833 193.5,158.167 193.5,181.5C 128.833,181.5 64.1667,181.5 -0.5,181.5C -0.5,161.833 -0.5,142.167 -0.5,122.5C 0.166667,122.5 0.833333,122.5 1.5,122.5C 1.98672,123.473 2.48672,124.473 3,125.5C 4.75467,124.33 5.75467,122.663 6,120.5C 6.49958,113.842 6.66625,107.175 6.5,100.5C 6.46716,96.1311 6.80049,91.7978 7.5,87.5C 4.83333,87.5 2.16667,87.5 -0.5,87.5C -0.5,84.1667 -0.5,80.8333 -0.5,77.5C 8.65325,74.2599 17.9866,71.5933 27.5,69.5C 30.3699,69.752 32.7033,68.752 34.5,66.5C 33.9953,65.0815 32.9953,64.4148 31.5,64.5C 27.9897,60.8545 23.6564,58.6878 18.5,58C 12.1163,57.2489 5.78299,57.4156 -0.5,58.5C -0.5,38.8333 -0.5,19.1667 -0.5,-0.5 Z"/></g>
<g><path style="opacity:1" fill="#f53036" d="M 31.5,64.5 C 31.719,65.675 31.3857,66.675 30.5,67.5C 29.2613,67.9424 28.2613,68.6091 27.5,69.5C 17.9866,71.5933 8.65325,74.2599 -0.5,77.5C -0.5,71.1667 -0.5,64.8333 -0.5,58.5C 5.78299,57.4156 12.1163,57.2489 18.5,58C 23.6564,58.6878 27.9897,60.8545 31.5,64.5 Z"/></g>
<g><path style="opacity:1" fill="#ebaeab" d="M 31.5,64.5 C 32.9953,64.4148 33.9953,65.0815 34.5,66.5C 32.7033,68.752 30.3699,69.752 27.5,69.5C 28.2613,68.6091 29.2613,67.9424 30.5,67.5C 31.3857,66.675 31.719,65.675 31.5,64.5 Z"/></g>
<g><path style="opacity:1" fill="#dd7576" d="M 84.5,78.5 C 84.5,76.8333 84.5,75.1667 84.5,73.5C 77.5,73.5 70.5,73.5 63.5,73.5C 63.5,75.1667 63.5,76.8333 63.5,78.5C 62.5386,76.7354 62.2053,74.7354 62.5,72.5C 70.1667,72.5 77.8333,72.5 85.5,72.5C 85.7947,74.7354 85.4614,76.7354 84.5,78.5 Z"/></g>
<g><path style="opacity:1" fill="#f7999e" d="M 112.5,78.5 C 112.5,76.8333 112.5,75.1667 112.5,73.5C 105.167,73.5 97.8333,73.5 90.5,73.5C 90.5,86.1667 90.5,98.8333 90.5,111.5C 89.5045,98.6774 89.1712,85.6774 89.5,72.5C 97.5,72.5 105.5,72.5 113.5,72.5C 113.795,74.7354 113.461,76.7354 112.5,78.5 Z"/></g>
<g><path style="opacity:1" fill="#e26063" d="M 43.5,83.5 C 39.6002,82.5701 35.6002,82.2367 31.5,82.5C 35.3164,81.5176 39.3164,80.8509 43.5,80.5C 43.5,81.5 43.5,82.5 43.5,83.5 Z"/></g>
<g><path style="opacity:1" fill="#f03539" d="M 193.5,75.5 C 193.5,79.8333 193.5,84.1667 193.5,88.5C 189.5,84.1667 189.5,79.8333 193.5,75.5 Z"/></g>
<g><path style="opacity:1" fill="#ee3947" d="M 84.5,78.5 C 82.1667,78.5 79.8333,78.5 77.5,78.5C 77.8279,89.6794 77.4946,100.679 76.5,111.5C 76.5,100.833 76.5,90.1667 76.5,79.5C 74.8333,79.5 73.1667,79.5 71.5,79.5C 71.5,90.1667 71.5,100.833 71.5,111.5C 70.5054,100.679 70.1721,89.6794 70.5,78.5C 68.1667,78.5 65.8333,78.5 63.5,78.5C 63.5,76.8333 63.5,75.1667 63.5,73.5C 70.5,73.5 77.5,73.5 84.5,73.5C 84.5,75.1667 84.5,76.8333 84.5,78.5 Z"/></g>
<g><path style="opacity:1" fill="#fb2c2b" d="M 76.5,111.5 C 74.8333,111.5 73.1667,111.5 71.5,111.5C 71.5,100.833 71.5,90.1667 71.5,79.5C 73.1667,79.5 74.8333,79.5 76.5,79.5C 76.5,90.1667 76.5,100.833 76.5,111.5 Z"/></g>
<g><path style="opacity:1" fill="#d42a37" d="M 112.5,78.5 C 107.167,78.5 101.833,78.5 96.5,78.5C 96.1667,78.5 95.8333,78.5 95.5,78.5C 100.64,77.5119 105.974,77.1786 111.5,77.5C 111.5,76.5 111.5,75.5 111.5,74.5C 104.833,74.5 98.1667,74.5 91.5,74.5C 91.5,86.8333 91.5,99.1667 91.5,111.5C 91.1667,111.5 90.8333,111.5 90.5,111.5C 90.5,98.8333 90.5,86.1667 90.5,73.5C 97.8333,73.5 105.167,73.5 112.5,73.5C 112.5,75.1667 112.5,76.8333 112.5,78.5 Z"/></g>
<g><path style="opacity:1" fill="#f82a2e" d="M 95.5,78.5 C 95.5,83.5 95.5,88.5 95.5,93.5C 99.5,93.5 103.5,93.5 107.5,93.5C 107.5,95.1667 107.5,96.8333 107.5,98.5C 103.5,98.5 99.5,98.5 95.5,98.5C 95.5,101.167 95.5,103.833 95.5,106.5C 101.026,106.821 106.36,106.488 111.5,105.5C 112.461,107.265 112.795,109.265 112.5,111.5C 105.5,111.5 98.5,111.5 91.5,111.5C 91.5,99.1667 91.5,86.8333 91.5,74.5C 98.1667,74.5 104.833,74.5 111.5,74.5C 111.5,75.5 111.5,76.5 111.5,77.5C 105.974,77.1786 100.64,77.5119 95.5,78.5 Z"/></g>
<g><path style="opacity:1" fill="#ee575d" d="M 142.5,90.5 C 142.85,86.9457 142.184,83.6124 140.5,80.5C 137.877,78.6114 135.377,76.6114 133,74.5C 127.55,73.5701 122.05,73.2367 116.5,73.5C 116.5,86.1667 116.5,98.8333 116.5,111.5C 115.505,98.6774 115.171,85.6774 115.5,72.5C 122.558,72.203 129.558,72.5363 136.5,73.5C 142.518,77.8933 144.518,83.5599 142.5,90.5 Z"/></g>
<g><path style="opacity:1" fill="#f33239" d="M 142.5,90.5 C 141.653,94.8566 139.32,98.1899 135.5,100.5C 137.957,103.914 140.291,107.414 142.5,111C 139.446,111.821 136.446,111.655 133.5,110.5C 131.957,107.914 130.291,105.414 128.5,103C 126.527,102.505 124.527,102.338 122.5,102.5C 122.5,105.5 122.5,108.5 122.5,111.5C 120.5,111.5 118.5,111.5 116.5,111.5C 116.5,98.8333 116.5,86.1667 116.5,73.5C 122.05,73.2367 127.55,73.5701 133,74.5C 135.377,76.6114 137.877,78.6114 140.5,80.5C 142.184,83.6124 142.85,86.9457 142.5,90.5 Z"/></g>
<g><path style="opacity:1" fill="#fcf8f6" d="M 122.5,78.5 C 126.637,78.1463 130.637,78.6463 134.5,80C 138.971,91.9196 134.971,97.0863 122.5,95.5C 122.5,89.8333 122.5,84.1667 122.5,78.5 Z"/></g>
<g><path style="opacity:1" fill="#ef8e92" d="M 95.5,78.5 C 95.8333,78.5 96.1667,78.5 96.5,78.5C 96.5,83.1667 96.5,87.8333 96.5,92.5C 100.371,92.185 104.038,92.5184 107.5,93.5C 103.5,93.5 99.5,93.5 95.5,93.5C 95.5,88.5 95.5,83.5 95.5,78.5 Z"/></g>
<g><path style="opacity:1" fill="#f92f34" d="M 31.5,82.5 C 35.6002,82.2367 39.6002,82.5701 43.5,83.5C 45.7804,104.252 36.7804,117.585 16.5,123.5C 15.1667,110.833 15.1667,98.1667 16.5,85.5C 21.6107,84.4121 26.6107,83.4121 31.5,82.5 Z"/></g>
<g><path style="opacity:1" fill="#f88a93" d="M 107.5,98.5 C 104.038,99.4816 100.371,99.815 96.5,99.5C 96.5,101.5 96.5,103.5 96.5,105.5C 101.5,105.5 106.5,105.5 111.5,105.5C 106.36,106.488 101.026,106.821 95.5,106.5C 95.5,103.833 95.5,101.167 95.5,98.5C 99.5,98.5 103.5,98.5 107.5,98.5 Z"/></g>
<g><path style="opacity:1" fill="#f23339" d="M 160.5,70.5 C 178.817,68.9896 187.984,77.323 188,95.5C 183.16,110.004 173.327,115.171 158.5,111C 148.011,105.178 144.178,96.345 147,84.5C 149.687,77.981 154.187,73.3143 160.5,70.5 Z"/></g>
<g><path style="opacity:1" fill="#fbf9f7" d="M 162.5,77.5 C 177.589,77.0812 183.089,84.0812 179,98.5C 175.054,104.412 169.554,106.579 162.5,105C 153.172,99.6244 151.006,92.1244 156,82.5C 157.965,80.4497 160.132,78.783 162.5,77.5 Z"/></g>
<g><path style="opacity:1" fill="#cd6f74" d="M 193.5,105.5 C 193.5,105.833 193.5,106.167 193.5,106.5C 191.744,107.552 191.077,109.219 191.5,111.5C 190.539,109.735 190.205,107.735 190.5,105.5C 191.5,105.5 192.5,105.5 193.5,105.5 Z"/></g>
<g><path style="opacity:1" fill="#f9272b" d="M 193.5,106.5 C 193.5,108.167 193.5,109.833 193.5,111.5C 192.833,111.5 192.167,111.5 191.5,111.5C 191.077,109.219 191.744,107.552 193.5,106.5 Z"/></g>
<g><path style="opacity:1" fill="#f33039" d="M -0.5,87.5 C 2.16667,87.5 4.83333,87.5 7.5,87.5C 6.80049,91.7978 6.46716,96.1311 6.5,100.5C 5.18514,107.629 4.51847,114.963 4.5,122.5C 3.5,122.5 2.5,122.5 1.5,122.5C 0.833333,122.5 0.166667,122.5 -0.5,122.5C -0.5,110.833 -0.5,99.1667 -0.5,87.5 Z"/></g>
<g><path style="opacity:1" fill="#fed3d2" d="M 6.5,100.5 C 6.66625,107.175 6.49958,113.842 6,120.5C 5.75467,122.663 4.75467,124.33 3,125.5C 2.48672,124.473 1.98672,123.473 1.5,122.5C 2.5,122.5 3.5,122.5 4.5,122.5C 4.51847,114.963 5.18514,107.629 6.5,100.5 Z"/></g>
</svg>
