<?xml version="1.0" encoding="UTF-8"?>
<svg version="1.1" xmlns="http://www.w3.org/2000/svg" width="225" height="225">
<path d="M0 0 C74.25 0 148.5 0 225 0 C225 74.25 225 148.5 225 225 C150.75 225 76.5 225 0 225 C0 150.75 0 76.5 0 0 Z " fill="#FFFEFE" transform="translate(0,0)"/>
<path d="M0 0 C0.99773438 -0.01546875 1.99546875 -0.0309375 3.0234375 -0.046875 C10.28571617 -0.00793517 10.28571617 -0.00793517 13.63671875 2.375 C15.61642604 5.46084746 16.14316568 7.92517748 15.8125 11.5625 C14.5875217 14.48360209 13.61254989 15.59679229 11 17.5 C7.35084709 18.16253522 3.76303604 18.14901386 0.0625 18.125 C-0.92685547 18.15722656 -1.91621094 18.18945312 -2.93554688 18.22265625 C-9.946111 18.23208539 -9.946111 18.23208539 -12.80297852 16.24755859 C-15.34012036 13.38874421 -15.99635569 11.71137024 -16.0625 7.875 C-13.37273013 -0.66897487 -7.90961944 -0.12262976 0 0 Z " fill="#FFEBEB" transform="translate(63,103.5)"/>
<path d="M0 0 C3.76769492 1.06478335 5.49043461 2.86915362 7.875 5.8125 C8.56464844 6.63363281 9.25429687 7.45476562 9.96484375 8.30078125 C15.875 15.47814148 15.875 15.47814148 15.875 17.8125 C15.1540918 17.65023926 14.43318359 17.48797852 13.69042969 17.32080078 C10.99789333 16.8346873 8.55926957 16.68332349 5.828125 16.6796875 C4.90128906 16.67839844 3.97445312 16.67710938 3.01953125 16.67578125 C2.06433594 16.67964844 1.10914063 16.68351562 0.125 16.6875 C-1.33099609 16.68169922 -1.33099609 16.68169922 -2.81640625 16.67578125 C-3.73808594 16.67707031 -4.65976563 16.67835937 -5.609375 16.6796875 C-6.87346191 16.68137939 -6.87346191 16.68137939 -8.16308594 16.68310547 C-10.12847518 16.59629551 -10.12847518 16.59629551 -11.125 17.8125 C-12.79117115 17.85313832 -14.45888095 17.855221 -16.125 17.8125 C-5.8256814 1.51467716 -5.8256814 1.51467716 0 0 Z " fill="#FF0E0B" transform="translate(133.125,103.1875)"/>
<path d="M0 0 C5.30197044 1.06039409 6.53194489 1.9835745 10.3125 5.5625 C11.19550781 6.38878906 12.07851562 7.21507813 12.98828125 8.06640625 C13.65214844 8.70449219 14.31601563 9.34257813 15 10 C19.06453829 8.20762009 21.75201229 5.52984887 24.90234375 2.4609375 C27 1 27 1 32 1 C32 6.61 32 12.22 32 18 C30.68 18 29.36 18 28 18 C27.67 14.37 27.34 10.74 27 7 C25.33984375 8.7578125 23.6796875 10.515625 22.01953125 12.2734375 C20 14 20 14 15 16 C11.7 13.03 8.4 10.06 5 7 C4.67 10.96 4.34 14.92 4 19 C2.68 19 1.36 19 0 19 C0 12.73 0 6.46 0 0 Z " fill="#FF0E0E" transform="translate(82,103)"/>
<path d="M0 0 C1.80791016 0.01933594 1.80791016 0.01933594 3.65234375 0.0390625 C4.90660156 0.07257813 6.16085938 0.10609375 7.453125 0.140625 C8.72285156 0.15867187 9.99257812 0.17671875 11.30078125 0.1953125 C14.43565577 0.24245347 17.5690106 0.30824836 20.703125 0.390625 C20.373125 1.710625 20.043125 3.030625 19.703125 4.390625 C18.9510376 4.41568115 18.1989502 4.4407373 17.42407227 4.46655273 C14.03773304 4.58213014 10.65169887 4.70502845 7.265625 4.828125 C6.08162109 4.86744141 4.89761719 4.90675781 3.67773438 4.94726562 C1.99067383 5.01010742 1.99067383 5.01010742 0.26953125 5.07421875 C-0.77259521 5.11087646 -1.81472168 5.14753418 -2.88842773 5.18530273 C-5.2468576 5.12577841 -5.2468576 5.12577841 -6.296875 6.390625 C-6.5469523 8.84872498 -6.5469523 8.84872498 -6.296875 11.390625 C-3.69598878 13.99151122 -2.47550387 13.69024725 1.1484375 13.8046875 C2.76298828 13.86269531 2.76298828 13.86269531 4.41015625 13.921875 C6.10205078 13.96828125 6.10205078 13.96828125 7.828125 14.015625 C9.53162109 14.07363281 9.53162109 14.07363281 11.26953125 14.1328125 C14.08056456 14.22730101 16.89158733 14.31286041 19.703125 14.390625 C19.703125 15.380625 19.703125 16.370625 19.703125 17.390625 C15.47432089 17.53604467 11.24616087 17.62474027 7.015625 17.703125 C5.81744141 17.74501953 4.61925781 17.78691406 3.38476562 17.83007812 C-6.53747497 17.96827089 -6.53747497 17.96827089 -9.625 15.125 C-11.90283212 11.39957364 -11.90283212 11.39957364 -11.359375 8.328125 C-11.26785156 7.67714844 -11.17632812 7.02617188 -11.08203125 6.35546875 C-8.89863963 0.89155837 -5.55229084 -0.1047602 0 0 Z " fill="#FF0F0F" transform="translate(190.296875,103.609375)"/>
<path d="M0 0 C10.23 0 20.46 0 31 0 C31 0.99 31 1.98 31 3 C26.71 3 22.42 3 18 3 C18 7.95 18 12.9 18 18 C16.68 18 15.36 18 14 18 C14 13.05 14 8.1 14 3 C9.38 3 4.76 3 0 3 C0 2.01 0 1.02 0 0 Z " fill="#FF0D0D" transform="translate(146,104)"/>
<path d="M0 0 C10.23 0 20.46 0 31 0 C31 0.99 31 1.98 31 3 C26.38 3 21.76 3 17 3 C17 7.62 17 12.24 17 17 C15.68 17 14.36 17 13 17 C13 12.38 13 7.76 13 3 C8.71 3 4.42 3 0 3 C0 2.01 0 1.02 0 0 Z " fill="#FF0100" transform="translate(15,104)"/>
<path d="M0 0 C1.50336914 -0.0299707 1.50336914 -0.0299707 3.03710938 -0.06054688 C10.3410624 -0.05567432 10.3410624 -0.05567432 13.75390625 2.27734375 C15.0625 4.4375 15.0625 4.4375 15.0625 7.4375 C11.1875 6.5625 11.1875 6.5625 10.0625 5.4375 C8.5737814 5.35080568 7.081055 5.33046506 5.58984375 5.33984375 C4.24116211 5.34467773 4.24116211 5.34467773 2.86523438 5.34960938 C1.91970703 5.35798828 0.97417969 5.36636719 0 5.375 C-0.94939453 5.37951172 -1.89878906 5.38402344 -2.87695312 5.38867188 C-5.23053065 5.4004989 -7.58398477 5.41697975 -9.9375 5.4375 C-10.2675 6.0975 -10.5975 6.7575 -10.9375 7.4375 C-12.2575 7.4375 -13.5775 7.4375 -14.9375 7.4375 C-13.46672655 -1.09298601 -7.21126243 -0.05081607 0 0 Z " fill="#FF1313" transform="translate(62.9375,103.5625)"/>
<path d="M0 0 C1.32 0 2.64 0 4 0 C4.41378906 0.48726563 4.82757813 0.97453125 5.25390625 1.4765625 C8.07748261 3.94008549 11.3740242 3.43242396 14.9375 3.375 C16.01161133 3.39240234 16.01161133 3.39240234 17.10742188 3.41015625 C21.46103721 3.38594708 23.74326779 2.85625238 27 0 C27.99 0 28.98 0 30 0 C29.6875 2.375 29.6875 2.375 29 5 C24.540744 7.97283733 20.30911565 7.36827788 15.0625 7.375 C14.06025391 7.39949219 13.05800781 7.42398438 12.02539062 7.44921875 C4.70151021 7.47853382 4.70151021 7.47853382 1.30859375 5.1640625 C0 3 0 3 0 0 Z " fill="#FF0505" transform="translate(48,114)"/>
<path d="M0 0 C3.01376129 0.07601475 5.22239734 0.30572968 7.52636719 2.36279297 C9.05991753 4.16964425 10.47842706 6.02290475 11.875 7.9375 C12.37257812 8.58396484 12.87015625 9.23042969 13.3828125 9.89648438 C17 14.68130795 17 14.68130795 17 17 C12.125 16.125 12.125 16.125 11 15 C9.51361008 14.84344973 8.02050873 14.74933057 6.52734375 14.68359375 C5.17866211 14.62075195 5.17866211 14.62075195 3.80273438 14.55664062 C2.85720703 14.51732422 1.91167969 14.47800781 0.9375 14.4375 C-0.01189453 14.39431641 -0.96128906 14.35113281 -1.93945312 14.30664062 C-4.29281353 14.20020724 -6.64628354 14.09818992 -9 14 C-9 13.67 -9 13.34 -9 13 C-1.08 12.505 -1.08 12.505 7 12 C5.06926508 7.1731627 3.58407282 5.48975511 0 2 C0 1.34 0 0.68 0 0 Z " fill="#FF0D0B" transform="translate(132,104)"/>
<path d="M0 0 C7.92 0 15.84 0 24 0 C24 1.32 24 2.64 24 4 C15.75 4 7.5 4 -1 4 C-0.67 2.68 -0.34 1.36 0 0 Z " fill="#FF2020" transform="translate(187,110)"/>
<path d="M0 0 C3.099847 1.59689088 4.31268808 4.12531571 6.0625 7.0625 C1.7725 7.0625 -2.5175 7.0625 -6.9375 7.0625 C-3.46209016 0.11168033 -3.46209016 0.11168033 0 0 Z " fill="#FFEDED" transform="translate(133.9375,107.9375)"/>
<path d="M0 0 C3.41664873 -0.02908357 6.8332655 -0.04682691 10.25 -0.0625 C11.70212891 -0.07506836 11.70212891 -0.07506836 13.18359375 -0.08789062 C14.11816406 -0.09111328 15.05273438 -0.09433594 16.015625 -0.09765625 C16.87446289 -0.10289307 17.73330078 -0.10812988 18.61816406 -0.11352539 C20.94109606 -0.00280754 22.83002839 0.15555064 25 1 C25.33 1.99 25.66 2.98 26 4 C21.125 3.125 21.125 3.125 20 2 C18.51361008 1.84344973 17.02050873 1.74933057 15.52734375 1.68359375 C14.17866211 1.62075195 14.17866211 1.62075195 12.80273438 1.55664062 C11.85720703 1.51732422 10.91167969 1.47800781 9.9375 1.4375 C8.98810547 1.39431641 8.03871094 1.35113281 7.06054688 1.30664062 C4.70718647 1.20020724 2.35371646 1.09818992 0 1 C0 0.67 0 0.34 0 0 Z " fill="#FF0101" transform="translate(123,117)"/>
<path d="M0 0 C2.625 0.375 2.625 0.375 5 1 C4 4 4 4 2.125 5.1875 C0 6 0 6 -3 6 C-2.42655063 3.13275314 -2.1385485 2.1385485 0 0 Z " fill="#FF1916" transform="translate(130,104)"/>
</svg>
