<?xml version="1.0" standalone="no"?>
<!DOCTYPE svg PUBLIC "-//W3C//DTD SVG 20010904//EN"
 "http://www.w3.org/TR/2001/REC-SVG-20010904/DTD/svg10.dtd">
<svg version="1.0" xmlns="http://www.w3.org/2000/svg"
 width="190.000000pt" height="103.000000pt" viewBox="0 0 190.000000 103.000000"
 preserveAspectRatio="xMidYMid meet">

<g transform="translate(0.000000,103.000000) scale(0.100000,-0.100000)"
fill="#000000" stroke="none">
<path d="M18 904 c-11 -3 -18 -15 -18 -29 0 -24 2 -24 98 -28 l97 -3 -97 -2
c-97 -2 -98 -2 -98 -27 l0 -24 128 -4 127 -3 -127 -2 -128 -2 0 -25 0 -25 148
-1 147 -2 -103 -7 c-57 -4 -106 -10 -109 -14 -14 -14 13 -20 107 -26 55 -3
102 -9 105 -12 3 -3 -38 -7 -92 -10 -157 -6 -163 -33 -8 -38 82 -3 77 -4 -70
-21 -101 -12 -107 -14 -70 -22 22 -4 78 -11 125 -15 l85 -7 -100 -8 c-55 -5
-116 -11 -135 -14 l-35 -6 35 -13 c19 -7 71 -14 115 -15 56 -2 65 -4 30 -6
-148 -9 -175 -14 -175 -33 0 -17 10 -20 93 -23 l92 -3 -93 -2 -93 -2 2 -70 c1
-39 6 -70 12 -70 5 0 36 14 69 32 84 45 166 130 212 219 78 156 53 286 -67
339 -41 18 -176 34 -209 24z"/>
<path d="M680 894 c-8 -1 -46 -6 -85 -10 l-70 -8 55 -8 c30 -5 132 -13 225
-17 l170 -8 -167 -1 c-92 -1 -202 -7 -245 -14 l-78 -12 60 -8 c33 -4 143 -12
245 -16 l185 -9 -195 -2 c-111 -1 -221 -7 -255 -15 l-60 -12 55 -7 c30 -4 88
-7 128 -7 111 0 85 -17 -33 -22 -57 -2 -109 -8 -115 -14 -13 -13 10 -19 125
-31 70 -8 69 -8 -58 -14 -70 -4 -131 -9 -134 -13 -17 -17 26 -21 230 -26 l222
-5 -124 -7 c-68 -5 -163 -8 -210 -9 -47 0 -106 -4 -131 -7 -87 -14 -11 -26
205 -32 116 -3 176 -7 135 -8 -109 -3 -264 -12 -350 -19 l-75 -6 50 -13 c28
-7 86 -13 130 -15 l80 -2 -75 -7 c-41 -4 -109 -11 -150 -16 l-75 -8 50 -8 c28
-4 88 -12 135 -16 84 -9 84 -9 25 -11 -33 -1 -97 -7 -143 -14 l-84 -13 94 -12
c51 -7 107 -13 123 -14 17 0 -13 -5 -65 -9 -52 -5 -117 -12 -145 -17 l-50 -8
80 -7 c44 -4 103 -11 130 -15 47 -6 43 -7 -50 -14 -55 -4 -120 -11 -145 -16
l-45 -8 70 -7 c39 -4 105 -7 147 -7 68 0 77 2 83 20 3 11 27 57 52 103 25 45
46 87 46 93 0 8 37 13 111 16 124 4 163 19 237 85 50 45 78 99 86 164 5 42 2
55 -20 88 -22 33 -34 41 -77 50 -46 10 -222 14 -260 5z m213 -165 l122 -2 -86
-7 c-95 -8 -130 -20 -89 -31 14 -4 43 -7 64 -8 76 -2 28 -11 -88 -17 l-117 -6
22 41 c14 28 26 40 36 37 8 -3 69 -7 136 -7z"/>
<path d="M1255 886 l-90 -12 60 -7 c155 -20 158 -21 67 -28 -45 -3 -86 -9 -89
-13 -13 -13 10 -19 87 -24 100 -6 95 -22 -8 -23 -42 -1 -88 -4 -102 -8 -24 -7
-23 -8 15 -19 22 -7 69 -12 104 -12 80 0 76 -6 -9 -14 -36 -3 -84 -9 -108 -12
-69 -10 -35 -26 70 -34 52 -4 72 -8 46 -8 -69 -3 -198 -23 -198 -32 0 -8 69
-19 134 -21 45 -2 53 -1 -134 -25 l-65 -8 40 -9 c22 -5 78 -12 125 -16 l85 -6
-100 -8 c-55 -4 -125 -11 -155 -15 l-55 -8 60 -7 c33 -5 85 -11 115 -15 l55
-8 -75 -7 c-41 -4 -100 -11 -130 -15 l-55 -7 105 -15 105 -15 -145 -7 c-80 -4
-167 -11 -195 -16 l-50 -8 50 -8 c28 -5 97 -12 155 -16 l105 -7 -100 -2 c-55
-1 -131 -8 -170 -15 l-70 -12 70 -7 c39 -4 102 -7 140 -8 132 -2 126 -16 -10
-22 -71 -3 -152 -9 -180 -14 l-50 -9 70 -7 c39 -4 118 -7 176 -7 127 0 173 19
229 93 34 45 280 508 280 527 0 13 -89 11 -205 -4z m52 -272 c-3 -3 -12 -4
-19 -1 -8 3 -5 6 6 6 11 1 17 -2 13 -5z"/>
<path d="M1605 886 l-90 -12 55 -7 c30 -4 117 -10 193 -14 l137 -5 0 26 0 26
-102 -1 c-57 -1 -143 -7 -193 -13z"/>
<path d="M1540 826 l-65 -12 55 -7 c30 -4 126 -10 213 -14 l157 -6 0 26 0 27
-147 -1 c-82 -1 -177 -7 -213 -13z"/>
<path d="M1515 766 l-60 -11 73 -12 c40 -7 140 -13 222 -13 l150 0 0 25 0 25
-162 -1 c-90 -1 -190 -6 -223 -13z"/>
<path d="M1510 706 l-34 -13 33 -6 c18 -4 52 -7 75 -8 91 -1 79 -16 -19 -23
-55 -4 -111 -10 -125 -14 -40 -10 45 -20 180 -21 78 -1 110 -4 100 -11 -8 -5
-62 -10 -120 -10 -58 0 -130 -3 -160 -7 l-55 -7 35 -9 c19 -6 112 -13 205 -17
94 -3 141 -7 105 -8 -92 -4 -211 -11 -310 -19 -84 -7 -84 -7 -40 -16 25 -5 83
-12 130 -15 l85 -7 -150 -15 c-164 -16 -166 -13 25 -39 l65 -8 -60 -2 c-33 -1
-91 -8 -130 -15 -68 -12 -69 -12 -35 -20 19 -5 116 -12 215 -16 l180 -7 -157
-1 c-142 -2 -315 -18 -304 -29 2 -2 109 -10 237 -17 l234 -13 -190 -2 c-104
-1 -221 -8 -260 -15 l-70 -12 55 -7 c30 -4 152 -7 270 -7 l215 0 42 80 43 79
-118 3 -119 3 14 33 13 32 123 0 122 0 23 40 c14 25 22 56 22 84 l0 46 -95 0
c-52 0 -95 3 -95 6 0 3 5 14 10 25 10 18 7 19 -82 18 -51 0 -109 -6 -128 -13z"/>
</g>
</svg>
