<?xml version="1.0" encoding="UTF-8"?>
<svg version="1.1" xmlns="http://www.w3.org/2000/svg" width="269" height="148">
<path d="M0 0 C88.77 0 177.54 0 269 0 C269 48.84 269 97.68 269 148 C180.23 148 91.46 148 0 148 C0 99.16 0 50.32 0 0 Z " fill="#FDFDFD" transform="translate(0,0)"/>
<path d="M0 0 C1.71219727 -0.04930664 1.71219727 -0.04930664 3.45898438 -0.09960938 C11.8293777 -0.15342254 11.8293777 -0.15342254 15.94921875 2.68359375 C18.52386144 6.76252206 18.47521638 9.77049222 17.6875 14.4375 C16.06349816 18.07217079 15.02636956 19.21158696 11.6875 21.4375 C9.42578125 21.8515625 9.42578125 21.8515625 7 22.0625 C6.19175781 22.13726562 5.38351563 22.21203125 4.55078125 22.2890625 C3.62845703 22.36253906 3.62845703 22.36253906 2.6875 22.4375 C4.45313979 24.08922755 6.22454598 25.73388045 8 27.375 C8.49951172 27.84357422 8.99902344 28.31214844 9.51367188 28.79492188 C11.90311016 30.99447103 13.56830438 32.39776813 16.6875 33.4375 C16.77 32.65375 16.8525 31.87 16.9375 31.0625 C17.72390648 27.26153533 18.95119972 24.01525782 20.44140625 20.4453125 C21.39795387 18.13640444 22.31764373 15.8241269 23.21484375 13.4921875 C23.61086792 12.47209595 23.61086792 12.47209595 24.01489258 11.43139648 C24.54162563 10.07337001 25.06369615 8.71352478 25.58081055 7.35180664 C27.46267613 2.54991194 27.46267613 2.54991194 29.6875 1.4375 C31.96484375 1.1640625 31.96484375 1.1640625 34.625 1.0625 C35.50027344 1.01351562 36.37554687 0.96453125 37.27734375 0.9140625 C39.6875 1.4375 39.6875 1.4375 41.27734375 3.39453125 C43.12106056 7.37307805 44.75177889 11.40310708 46.3125 15.5 C46.62445313 16.30244141 46.93640625 17.10488281 47.2578125 17.93164062 C48.59856132 21.4135422 49.84110317 24.79819784 50.6875 28.4375 C50.6968457 27.73141602 50.70619141 27.02533203 50.71582031 26.29785156 C50.76955659 23.09369455 50.85319757 19.89099243 50.9375 16.6875 C50.95167969 15.57632813 50.96585937 14.46515625 50.98046875 13.3203125 C51.01269531 12.25039062 51.04492188 11.18046875 51.078125 10.078125 C51.09907227 9.09360352 51.12001953 8.10908203 51.14160156 7.09472656 C51.8334811 3.72691936 52.99297654 2.51924644 55.6875 0.4375 C59.83788487 -0.17737183 62.02447629 0.08648745 65.7421875 2.0546875 C69.23119284 4.8773576 70.06669976 6.82804173 71.4375 11.0625 C71.83839844 12.29484375 72.23929687 13.5271875 72.65234375 14.796875 C73.93520882 19.30868726 74.97191625 23.80222614 75.6875 28.4375 C77.3375 28.4375 78.9875 28.4375 80.6875 28.4375 C80.6875 20.1875 80.6875 11.9375 80.6875 3.4375 C87.06373762 9.81373762 87.06373762 9.81373762 87.0859375 15.28125 C87.08980469 16.19777344 87.09367187 17.11429688 87.09765625 18.05859375 C87.08605469 19.00863281 87.07445312 19.95867187 87.0625 20.9375 C87.07410156 21.88753906 87.08570313 22.83757812 87.09765625 23.81640625 C87.09378906 24.73292969 87.08992188 25.64945313 87.0859375 26.59375 C87.08255371 27.42712891 87.07916992 28.26050781 87.07568359 29.11914062 C86.60009134 31.95953309 85.63914672 33.34636587 83.6875 35.4375 C80.27850193 36.32730628 77.12363343 36.1620521 73.6875 35.4375 C68.22531272 30.65808613 67.01089947 25.23876725 65.75 18.375 C65.00902126 14.53117277 64.19579104 11.54778089 61.6875 8.4375 C60.6975 8.1075 59.7075 7.7775 58.6875 7.4375 C58.6875 16.6775 58.6875 25.9175 58.6875 35.4375 C54.3975 35.4375 50.1075 35.4375 45.6875 35.4375 C45.0275 34.1175 44.3675 32.7975 43.6875 31.4375 C37.4175 31.1075 31.1475 30.7775 24.6875 30.4375 C24.3575 32.0875 24.0275 33.7375 23.6875 35.4375 C7.87704143 36.81899638 7.87704143 36.81899638 2.734375 33.57421875 C0.5 31.1875 0.5 31.1875 -1.4765625 28.70703125 C-4.02509959 25.55660562 -6.71183919 24.1995255 -10.3125 22.4375 C-10.3125 26.7275 -10.3125 31.0175 -10.3125 35.4375 C-12.6225 35.4375 -14.9325 35.4375 -17.3125 35.4375 C-17.36691656 33.54198978 -17.40548035 31.6460208 -17.4375 29.75 C-17.46070313 28.69425781 -17.48390625 27.63851562 -17.5078125 26.55078125 C-17.22661704 22.06852569 -16.26996833 19.56573924 -13.36328125 16.140625 C-8.80374978 13.59522715 -4.62421247 14.00854832 0.5 14.1875 C1.47904297 14.20554687 2.45808594 14.22359375 3.46679688 14.2421875 C5.87470771 14.28917113 8.28059335 14.35484306 10.6875 14.4375 C10.3575 12.1275 10.0275 9.8175 9.6875 7.4375 C1.4375 7.4375 -6.8125 7.4375 -15.3125 7.4375 C-13.45375135 -1.85624326 -8.18805885 0.04119202 0 0 Z " fill="#1B1918" transform="translate(68.3125,55.5625)"/>
<path d="M0 0 C1.92606398 1.20636036 3.73600527 2.45349276 5.5078125 3.875 C4.8478125 5.525 4.1878125 7.175 3.5078125 8.875 C0.5078125 8.875 0.5078125 8.875 -2.4921875 6.875 C-7.45287748 6.07624483 -11.30824996 6.14095872 -15.6171875 8.8125 C-18.12497056 12.90854567 -18.57913788 16.18752649 -17.4921875 20.875 C-15.31059605 23.63069447 -13.62041256 25.31088747 -10.4921875 26.875 C-5.85664362 27.28704834 -3.18802652 26.74954146 0.5078125 23.875 C2.39291884 20.8117022 2.83711894 18.1033375 3.2578125 14.5625 C4.22680666 8.84772343 6.19934058 5.67468252 10.5078125 1.875 C11.2296875 1.235625 11.9515625 0.59625 12.6953125 -0.0625 C18.50281876 -2.25644681 24.5006539 -1.94147129 30.1953125 0.375 C30.9584375 0.87 31.7215625 1.365 32.5078125 1.875 C32.5078125 2.535 32.5078125 3.195 32.5078125 3.875 C33.4359375 4.2153125 33.4359375 4.2153125 34.3828125 4.5625 C37.32068117 6.37706594 37.6675584 7.5139836 38.5078125 10.875 C39.1134038 17.14340119 38.88485406 22.38730747 35.5078125 27.875 C32.31582256 31.48298863 29.32226764 33.56347494 24.52734375 34.38671875 C19.92211707 34.55262133 15.82214662 34.54074426 11.8203125 32.0625 C9.5078125 29.875 9.5078125 29.875 8.5078125 26.875 C9.9453125 24.6875 9.9453125 24.6875 11.5078125 22.875 C12.2915625 23.535 13.0753125 24.195 13.8828125 24.875 C18.11973482 27.76751428 22.57456666 27.22598192 27.5078125 26.875 C28.1678125 25.555 28.8278125 24.235 29.5078125 22.875 C30.1678125 22.875 30.8278125 22.875 31.5078125 22.875 C31.89108652 16.24010208 31.89108652 16.24010208 30.3203125 9.875 C28.09469855 7.41915012 26.74703387 6.61118667 23.5078125 5.875 C18.20401361 6.06442139 15.31723218 7.17762207 11.5078125 10.875 C10.38626359 13.11809781 10.37915118 14.51255711 10.2578125 17 C9.63447851 22.86500616 7.39711791 27.37937124 2.90234375 31.26171875 C-1.38055391 34.05491288 -5.54279816 34.64007736 -10.4921875 33.875 C-16.7193529 32.47965368 -19.8759667 30.08661233 -23.4921875 24.875 C-26.30715007 20.09657599 -26.47595214 15.27080002 -25.4921875 9.875 C-23.60995705 6.63925551 -21.3142182 4.30922522 -18.4921875 1.875 C-17.7496875 1.215 -17.0071875 0.555 -16.2421875 -0.125 C-10.94252846 -2.05214874 -5.20031369 -2.34747703 0 0 Z " fill="#252322" transform="translate(210.4921875,57.125)"/>
<path d="M0 0 C1.71219727 -0.04930664 1.71219727 -0.04930664 3.45898438 -0.09960938 C11.8293777 -0.15342254 11.8293777 -0.15342254 15.94921875 2.68359375 C18.52386144 6.76252206 18.47521638 9.77049222 17.6875 14.4375 C16.06349816 18.07217079 15.02636956 19.21158696 11.6875 21.4375 C9.42578125 21.8515625 9.42578125 21.8515625 7 22.0625 C6.19175781 22.13726562 5.38351563 22.21203125 4.55078125 22.2890625 C3.62845703 22.36253906 3.62845703 22.36253906 2.6875 22.4375 C4.45313979 24.08922755 6.22454598 25.73388045 8 27.375 C8.49951172 27.84357422 8.99902344 28.31214844 9.51367188 28.79492188 C11.90311016 30.99447103 13.56830438 32.39776813 16.6875 33.4375 C16.873125 32.1071875 16.873125 32.1071875 17.0625 30.75 C17.63162736 27.73362498 18.45364436 25.23423946 19.6875 22.4375 C20.0175 22.4375 20.3475 22.4375 20.6875 22.4375 C21.1825 25.4075 21.1825 25.4075 21.6875 28.4375 C22.0175 27.1175 22.3475 25.7975 22.6875 24.4375 C23.6775 24.4375 24.6675 24.4375 25.6875 24.4375 C28.40720716 19.18565169 30.69845551 14.00682457 32.6875 8.4375 C34.0075 8.4375 35.3275 8.4375 36.6875 8.4375 C36.88085938 9.08976562 37.07421875 9.74203125 37.2734375 10.4140625 C37.66402344 11.72503906 37.66402344 11.72503906 38.0625 13.0625 C38.33191406 13.97515625 38.60132813 14.8878125 38.87890625 15.828125 C39.50534447 17.84967444 40.23292404 19.84001896 41 21.8125 C41.6875 24.4375 41.6875 24.4375 40.8125 26.8125 C40.44125 27.34875 40.07 27.885 39.6875 28.4375 C41.0075 29.0975 42.3275 29.7575 43.6875 30.4375 C37.4175 30.4375 31.1475 30.4375 24.6875 30.4375 C24.3575 32.0875 24.0275 33.7375 23.6875 35.4375 C7.87704143 36.81899638 7.87704143 36.81899638 2.734375 33.57421875 C0.5 31.1875 0.5 31.1875 -1.4765625 28.70703125 C-4.02509959 25.55660562 -6.71183919 24.1995255 -10.3125 22.4375 C-10.3125 26.7275 -10.3125 31.0175 -10.3125 35.4375 C-12.6225 35.4375 -14.9325 35.4375 -17.3125 35.4375 C-17.36691656 33.54198978 -17.40548035 31.6460208 -17.4375 29.75 C-17.46070313 28.69425781 -17.48390625 27.63851562 -17.5078125 26.55078125 C-17.22661704 22.06852569 -16.26996833 19.56573924 -13.36328125 16.140625 C-8.80374978 13.59522715 -4.62421247 14.00854832 0.5 14.1875 C1.47904297 14.20554687 2.45808594 14.22359375 3.46679688 14.2421875 C5.87470771 14.28917113 8.28059335 14.35484306 10.6875 14.4375 C10.3575 12.1275 10.0275 9.8175 9.6875 7.4375 C1.4375 7.4375 -6.8125 7.4375 -15.3125 7.4375 C-13.45375135 -1.85624326 -8.18805885 0.04119202 0 0 Z " fill="#272322" transform="translate(68.3125,55.5625)"/>
<path d="M0 0 C0 0.33 0 0.66 0 1 C-1.98 1.33 -3.96 1.66 -6 2 C-5.7525 2.928125 -5.7525 2.928125 -5.5 3.875 C-5 6 -5 6 -5 8 C-6.32 8 -7.64 8 -9 8 C-9.02908357 11.41664873 -9.04682691 14.8332655 -9.0625 18.25 C-9.07506836 19.70212891 -9.07506836 19.70212891 -9.08789062 21.18359375 C-9.09111328 22.11816406 -9.09433594 23.05273438 -9.09765625 24.015625 C-9.10289307 24.87446289 -9.10812988 25.73330078 -9.11352539 26.61816406 C-9.00280754 28.94109606 -8.84444936 30.83002839 -8 33 C-7.01 33.33 -6.02 33.66 -5 34 C-5 26.08 -5 18.16 -5 10 C-4.67 10 -4.34 10 -4 10 C-4 18.25 -4 26.5 -4 35 C-8.29 35 -12.58 35 -17 35 C-17.66 33.02 -18.32 31.04 -19 29 C-24.61 29 -30.22 29 -36 29 C-36 28.67 -36 28.34 -36 28 C-29.565 27.505 -29.565 27.505 -23 27 C-21.70178385 23.10535156 -22.61193023 21.36760676 -23.875 17.5 C-24.24367188 16.3553125 -24.61234375 15.210625 -24.9921875 14.03125 C-25.66068479 12.02057598 -26.32994787 10.0101564 -27 8 C-27.66 8 -28.32 8 -29 8 C-29.79441072 9.87383903 -30.58539974 11.74912886 -31.375 13.625 C-31.81585938 14.66914062 -32.25671875 15.71328125 -32.7109375 16.7890625 C-33.93136322 19.82903202 -34.9981391 22.88205905 -36 26 C-37.32 25.67 -38.64 25.34 -40 25 C-40.33 26.65 -40.66 28.3 -41 30 C-41.66 29.67 -42.32 29.34 -43 29 C-42.67 28.34 -42.34 27.68 -42 27 C-42.04898438 25.99710938 -42.09796875 24.99421875 -42.1484375 23.9609375 C-41.96186418 18.98237582 -40.49171882 15.19549807 -38.625 10.625 C-38.30789062 9.80644531 -37.99078125 8.98789063 -37.6640625 8.14453125 C-35.27275815 2.13637908 -35.27275815 2.13637908 -33 1 C-30.72265625 0.7265625 -30.72265625 0.7265625 -28.0625 0.625 C-27.18722656 0.57601562 -26.31195313 0.52703125 -25.41015625 0.4765625 C-23 1 -23 1 -21.41015625 2.95703125 C-19.56643944 6.93557805 -17.93572111 10.96560708 -16.375 15.0625 C-16.06304687 15.86494141 -15.75109375 16.66738281 -15.4296875 17.49414062 C-14.08893868 20.9760422 -12.84639683 24.36069784 -12 28 C-11.9906543 27.29391602 -11.98130859 26.58783203 -11.97167969 25.86035156 C-11.91794341 22.65619455 -11.83430243 19.45349243 -11.75 16.25 C-11.73582031 15.13882813 -11.72164062 14.02765625 -11.70703125 12.8828125 C-11.67480469 11.81289062 -11.64257812 10.74296875 -11.609375 9.640625 C-11.58842773 8.65610352 -11.56748047 7.67158203 -11.54589844 6.65722656 C-10.19499057 0.0815194 -6.0107383 -0.46236448 0 0 Z " fill="#1F1B1A" transform="translate(131,56)"/>
<path d="M0 0 C2.50789131 1.79135094 3.49760366 3.43210823 4.75 6.25 C5.07426833 10.95189074 5.00523295 14.39443825 2.3125 18.375 C-1.57211153 21.21739868 -5.49627316 21.60129742 -10.25 21.25 C-12.73743132 20.19724856 -14.18103342 19.04673413 -16.25 17.25 C-17.57 18.9 -18.89 20.55 -20.25 22.25 C-21.25 19.25 -21.25 19.25 -20.33203125 17.3359375 C-19.97496094 16.64757812 -19.61789063 15.95921875 -19.25 15.25 C-18.98279147 13.09259394 -18.98279147 13.09259394 -18.9375 10.875 C-18.47214064 5.83083695 -16.8940358 3.72454576 -13.25 0.25 C-9.12957691 -2.90899104 -4.64476976 -1.54825659 0 0 Z " fill="#F5F4F4" transform="translate(238.25,63.75)"/>
<path d="M0 0 C3.19921875 -0.40625 3.19921875 -0.40625 7 0 C9.01176275 2.21567819 10.3384023 3.97222462 11.8125 6.5 C13.16646092 8.70390932 14.55262024 10.85398684 16 13 C16.66 13 17.32 13 18 13 C18.89436956 11.47159381 19.78082456 9.93768077 20.61523438 8.37573242 C24.90293504 0.4109345 24.90293504 0.4109345 28.3046875 -0.86328125 C30.5 -0.8125 30.5 -0.8125 34 0 C32.09897926 4.02933743 29.78850843 7.80838211 27.5 11.625 C26.89478516 12.6459375 26.89478516 12.6459375 26.27734375 13.6875 C24.67450039 16.36419551 23.21523066 18.78476934 21 21 C20.69940057 23.36509361 20.50484988 25.74441881 20.375 28.125 C20.30023438 29.40632813 20.22546875 30.68765625 20.1484375 32.0078125 C20.09945312 32.99523437 20.05046875 33.98265625 20 35 C18.02 35 16.04 35 14 35 C14.04382813 34.2471875 14.08765625 33.494375 14.1328125 32.71875 C14.10418211 20.92302843 8.22894124 12.72132147 1.1796875 3.66015625 C0 2 0 2 0 0 Z " fill="#1E1919" transform="translate(153,56)"/>
<path d="M0 0 C11.22 0 22.44 0 34 0 C33.34 1.98 32.68 3.96 32 6 C27.71 6 23.42 6 19 6 C19 15.57 19 25.14 19 35 C17.02 35 15.04 35 13 35 C13 25.43 13 15.86 13 6 C8.71 6 4.42 6 0 6 C0 4.02 0 2.04 0 0 Z " fill="#1C1617" transform="translate(19,56)"/>
<path d="M0 0 C0.99 0.33 1.98 0.66 3 1 C3.87890625 3.07421875 3.87890625 3.07421875 4.5625 5.6875 C5.36595457 8.68335987 6.18542867 11.47681657 7.3125 14.375 C8 17 8 17 7.125 19.375 C6.75375 19.91125 6.3825 20.4475 6 21 C7.32 21.66 8.64 22.32 10 23 C3.73 23 -2.54 23 -9 23 C-9.33 24.65 -9.66 26.3 -10 28 C-15.94 28 -21.88 28 -28 28 C-28 27.67 -28 27.34 -28 27 C-24.37 26.67 -20.74 26.34 -17 26 C-16.87625 25.113125 -16.7525 24.22625 -16.625 23.3125 C-16.05587264 20.29612498 -15.23385564 17.79673946 -14 15 C-13.67 15 -13.34 15 -13 15 C-12.67 16.98 -12.34 18.96 -12 21 C-11.67 19.68 -11.34 18.36 -11 17 C-10.01 17 -9.02 17 -8 17 C-5.88010933 12.90641801 -3.89487372 8.8944439 -2.3125 4.5625 C-1 1 -1 1 0 0 Z " fill="#373332" transform="translate(102,63)"/>
<path d="M0 0 C1.71219727 -0.04930664 1.71219727 -0.04930664 3.45898438 -0.09960938 C11.8293777 -0.15342254 11.8293777 -0.15342254 15.94921875 2.68359375 C18.51633638 6.75060033 18.49571429 9.78184895 17.6875 14.4375 C16.1875 17.5 16.1875 17.5 14.6875 19.4375 C14.13030273 18.9530542 13.57310547 18.4686084 12.99902344 17.96948242 C10.33082023 16.20110735 8.87123054 16.02236983 5.703125 15.92578125 C4.76855469 15.89033203 3.83398438 15.85488281 2.87109375 15.81835938 C1.41896484 15.78452148 1.41896484 15.78452148 -0.0625 15.75 C-1.04605469 15.71583984 -2.02960938 15.68167969 -3.04296875 15.64648438 C-5.46603199 15.56414727 -7.88873998 15.49495162 -10.3125 15.4375 C-10.3125 15.1075 -10.3125 14.7775 -10.3125 14.4375 C-3.3825 14.4375 3.5475 14.4375 10.6875 14.4375 C10.3575 12.1275 10.0275 9.8175 9.6875 7.4375 C1.4375 7.4375 -6.8125 7.4375 -15.3125 7.4375 C-13.45375135 -1.85624326 -8.18805885 0.04119202 0 0 Z " fill="#3B3737" transform="translate(68.3125,55.5625)"/>
<path d="M0 0 C6.37623762 6.37623762 6.37623762 6.37623762 6.3984375 11.84375 C6.40423828 13.21853516 6.40423828 13.21853516 6.41015625 14.62109375 C6.39855469 15.57113281 6.38695312 16.52117187 6.375 17.5 C6.38660156 18.45003906 6.39820313 19.40007812 6.41015625 20.37890625 C6.40628906 21.29542969 6.40242188 22.21195313 6.3984375 23.15625 C6.39336182 24.40631836 6.39336182 24.40631836 6.38818359 25.68164062 C5.91259134 28.52203309 4.95164672 29.90886587 3 32 C-0.40899807 32.88980628 -3.56386657 32.7245521 -7 32 C-10.91595276 28.57354133 -12.89643177 25.07641388 -14 20 C-13.625 17.625 -13.625 17.625 -13 16 C-12.67 17.98 -12.34 19.96 -12 22 C-11.01 22 -10.02 22 -9 22 C-9 21.34 -9 20.68 -9 20 C-8.01 20 -7.02 20 -6 20 C-5.67 21.65 -5.34 23.3 -5 25 C-3.35 25 -1.7 25 0 25 C0 16.75 0 8.5 0 0 Z " fill="#1C1414" transform="translate(149,59)"/>
<path d="M0 0 C0.33 0.66 0.66 1.32 1 2 C0.01028532 4.70003733 -1.0423412 7.30411556 -2.1875 9.9375 C-2.84031017 11.47581321 -3.49135104 13.01487843 -4.140625 14.5546875 C-4.61918945 15.68729004 -4.61918945 15.68729004 -5.10742188 16.84277344 C-6.89769433 21.16959166 -8.46242572 25.57828017 -10 30 C-14.26533233 29.51253345 -16.76471595 26.82074083 -19.75 24 C-20.50990234 23.30390625 -20.50990234 23.30390625 -21.28515625 22.59375 C-22.5485264 21.42232323 -23.77752572 20.21404342 -25 19 C-25 18.67 -25 18.34 -25 18 C-24.32453125 17.97421875 -23.6490625 17.9484375 -22.953125 17.921875 C-17.48839389 17.59936514 -17.48839389 17.59936514 -12.5 15.5625 C-10.2026123 11.63779601 -9.64709644 7.46155963 -9 3 C-7 5 -7 5 -7 8 C-6.34 8 -5.68 8 -5 8 C-4.67 7.01 -4.34 6.02 -4 5 C-3.34 4.67 -2.68 4.34 -2 4 C-0.86649466 1.98330173 -0.86649466 1.98330173 0 0 Z " fill="#EFEBEB" transform="translate(95,59)"/>
<path d="M0 0 C11.22 0 22.44 0 34 0 C33.34 1.98 32.68 3.96 32 6 C27.71 6 23.42 6 19 6 C19 15.24 19 24.48 19 34 C18.34 33.67 17.68 33.34 17 33 C17.11837128 29.06710455 17.24262793 25.13444334 17.37231445 21.2019043 C17.43687006 19.20696681 17.4967783 17.21188071 17.55664062 15.21679688 C17.59853516 13.96318359 17.64042969 12.70957031 17.68359375 11.41796875 C17.72025146 10.26063232 17.75690918 9.1032959 17.79467773 7.91088867 C18 5 18 5 19 2 C13.39 2 7.78 2 2 2 C2 2.99 2 3.98 2 5 C5.63 5 9.26 5 13 5 C13 5.33 13 5.66 13 6 C8.71 6 4.42 6 0 6 C0 4.02 0 2.04 0 0 Z " fill="#2C2728" transform="translate(19,56)"/>
<path d="M0 0 C0 0.33 0 0.66 0 1 C-1.98 1.33 -3.96 1.66 -6 2 C-5.835 2.61875 -5.67 3.2375 -5.5 3.875 C-5 6 -5 6 -5 8 C-6.32 8 -7.64 8 -9 8 C-9.02908357 11.41664873 -9.04682691 14.8332655 -9.0625 18.25 C-9.07087891 19.21808594 -9.07925781 20.18617187 -9.08789062 21.18359375 C-9.09111328 22.11816406 -9.09433594 23.05273438 -9.09765625 24.015625 C-9.10289307 24.87446289 -9.10812988 25.73330078 -9.11352539 26.61816406 C-9.00280754 28.94109606 -8.84444936 30.83002839 -8 33 C-7.01 33.33 -6.02 33.66 -5 34 C-5 26.08 -5 18.16 -5 10 C-4.67 10 -4.34 10 -4 10 C-4 18.25 -4 26.5 -4 35 C-8.29 35 -12.58 35 -17 35 C-17.66 33.35 -18.32 31.7 -19 30 C-18.34 29.67 -17.68 29.34 -17 29 C-16.34786708 26.97536745 -16.34786708 26.97536745 -16 25 C-13 26 -13 26 -12 28 C-11.9906543 27.29391602 -11.98130859 26.58783203 -11.97167969 25.86035156 C-11.91794341 22.65619455 -11.83430243 19.45349243 -11.75 16.25 C-11.72873047 14.58324219 -11.72873047 14.58324219 -11.70703125 12.8828125 C-11.67480469 11.81289062 -11.64257812 10.74296875 -11.609375 9.640625 C-11.58842773 8.65610352 -11.56748047 7.67158203 -11.54589844 6.65722656 C-10.19499057 0.0815194 -6.0107383 -0.46236448 0 0 Z " fill="#292323" transform="translate(131,56)"/>
<path d="M0 0 C3.3 0 6.6 0 10 0 C11.3125 2.625 11.3125 2.625 12 6 C10.79575036 7.46462794 9.5780837 8.92399758 8.25 10.27734375 C5.95892041 13.43473781 6.09272272 17.20679801 6 21 C5.67 20.01 5.34 19.02 5 18 C4.34 18 3.68 18 3 18 C2.67 18.99 2.34 19.98 2 21 C-1 23 -1 23 -5 23 C-5 27.29 -5 31.58 -5 36 C-5.33 36 -5.66 36 -6 36 C-6.96203396 25.40235611 -5.66567021 20.11976429 1 12 C2.33917311 9.97572867 3.6522919 7.93395584 4.9375 5.875 C5.81728516 4.47894531 5.81728516 4.47894531 6.71484375 3.0546875 C7.35099609 2.03761719 7.35099609 2.03761719 8 1 C5.36 1 2.72 1 0 1 C0 0.67 0 0.34 0 0 Z " fill="#DCD9D8" transform="translate(179,55)"/>
<path d="M0 0 C0.99 0.33 1.98 0.66 3 1 C3.9140625 3.25 3.9140625 3.25 4.625 6 C5.287116 9.28439007 5.287116 9.28439007 7 12 C7 13.65 7 15.3 7 17 C2.71 17 -1.58 17 -6 17 C-5.2709437 12.62566218 -4.63152126 9.64034012 -3 5.6875 C-2.649375 4.82511719 -2.29875 3.96273437 -1.9375 3.07421875 C-1 1 -1 1 0 0 Z " fill="#F3F3F1" transform="translate(102,63)"/>
<path d="M0 0 C0.598125 0.33 1.19625 0.66 1.8125 1 C4.05386471 2.20787988 4.05386471 2.20787988 7 2 C7.32374517 7.50366792 7.53286034 11.43672206 4 16 C3.1642041 15.2733313 3.1642041 15.2733313 2.31152344 14.53198242 C-0.35667977 12.76360735 -1.81626946 12.58486983 -4.984375 12.48828125 C-5.91894531 12.45283203 -6.85351562 12.41738281 -7.81640625 12.38085938 C-9.26853516 12.34702148 -9.26853516 12.34702148 -10.75 12.3125 C-11.73355469 12.27833984 -12.71710938 12.24417969 -13.73046875 12.20898438 C-16.15353199 12.12664727 -18.57623998 12.05745162 -21 12 C-21 11.67 -21 11.34 -21 11 C-14.07 11 -7.14 11 0 11 C-0.33 8.69 -0.66 6.38 -1 4 C-9.25 4 -17.5 4 -26 4 C-25.67 3.01 -25.34 2.02 -25 1 C-25 1.66 -25 2.32 -25 3 C-21.20771856 2.89047884 -17.4164616 2.75976759 -13.625 2.625 C-12.54476562 2.5940625 -11.46453125 2.563125 -10.3515625 2.53125 C-9.3203125 2.49257813 -8.2890625 2.45390625 -7.2265625 2.4140625 C-6.27346191 2.3826416 -5.32036133 2.3512207 -4.33837891 2.31884766 C-1.81104824 2.21444204 -1.81104824 2.21444204 0 0 Z " fill="#5A5656" transform="translate(79,59)"/>
<path d="M0 0 C2.96112284 1.33668241 5.46996204 2.97017012 8 5 C7.34 6.65 6.68 8.3 6 10 C3 10 3 10 0 8 C-2.97449608 7.75780685 -2.97449608 7.75780685 -6.1875 7.875 C-7.81751953 7.90207031 -7.81751953 7.90207031 -9.48046875 7.9296875 C-10.31191406 7.95289063 -11.14335937 7.97609375 -12 8 C-12 6.68 -12 5.36 -12 4 C-13.32 3.67 -14.64 3.34 -16 3 C-11.24360815 -0.93632429 -5.86522715 -0.91491008 0 0 Z M-12 2 C-11 4 -11 4 -11 4 Z " fill="#231E1E" transform="translate(208,56)"/>
<path d="M0 0 C1.02245821 3.31868591 1.04443871 6.18283589 0.87890625 9.640625 C0.83056641 10.71054688 0.78222656 11.78046875 0.73242188 12.8828125 C0.67634766 13.99398437 0.62027344 15.10515625 0.5625 16.25 C0.51029297 17.37664062 0.45808594 18.50328125 0.40429688 19.6640625 C0.27477014 22.44299972 0.13980947 25.22156424 0 28 C-2.64 28 -5.28 28 -8 28 C-8 27.67 -8 27.34 -8 27 C-6.35 27 -4.7 27 -3 27 C-3.66 26.67 -4.32 26.34 -5 26 C-5 17.75 -5 9.5 -5 1 C-3.35 1.33 -1.7 1.66 0 2 C0 1.34 0 0.68 0 0 Z " fill="#0F0909" transform="translate(126,62)"/>
<path d="M0 0 C2 3 2 3 2 6 C2.99 6 3.98 6 5 6 C5 5.34 5 4.68 5 4 C5.99 4 6.98 4 8 4 C8.33 5.65 8.66 7.3 9 9 C12.81489674 10.46726798 15.29011622 9.43336419 19 8 C19.6875 9.75 19.6875 9.75 20 12 C18.82421875 14.1015625 18.82421875 14.1015625 17 16 C13.59100193 16.88980628 10.43613343 16.7245521 7 16 C3.04930063 12.54313805 1.21369011 9.07543138 0 4 C0 2.68 0 1.36 0 0 Z " fill="#292625" transform="translate(135,75)"/>
<path d="M0 0 C2.37592692 3.63377058 1.82940382 5.85298088 1 10 C1.020625 10.99 1.04125 11.98 1.0625 13 C0.99284204 16.34358226 0.18467492 18.89022832 -1 22 C-2.32 21.67 -3.64 21.34 -5 21 C-5.33 22.65 -5.66 24.3 -6 26 C-6.66 25.67 -7.32 25.34 -8 25 C-7.67 24.34 -7.34 23.68 -7 23 C-7.03996094 21.96617188 -7.07992187 20.93234375 -7.12109375 19.8671875 C-6.97990465 15.35824521 -5.82747072 12.21230061 -4.0625 8.125 C-3.78470703 7.44953125 -3.50691406 6.7740625 -3.22070312 6.078125 C-1.1796875 1.1796875 -1.1796875 1.1796875 0 0 Z " fill="#181313" transform="translate(96,60)"/>
<path d="M0 0 C0.94875 0.66 1.8975 1.32 2.875 2 C7.46035076 4.67400332 11.83628477 4.37403169 17 4 C17.33 5.32 17.66 6.64 18 8 C17.34 8 16.68 8 16 8 C16 8.66 16 9.32 16 10 C13.93867858 10.10864945 11.87568679 10.18588321 9.8125 10.25 C8.08966797 10.31960937 8.08966797 10.31960937 6.33203125 10.390625 C2.39646601 9.92924572 0.82254213 8.70028512 -2 6 C-1.34 4.02 -0.68 2.04 0 0 Z M16 5 C15.67 5.66 15.34 6.32 15 7 C15.66 7 16.32 7 17 7 C16.67 6.34 16.34 5.68 16 5 Z " fill="#1F1E1C" transform="translate(221,80)"/>
<path d="M0 0 C0.33 0 0.66 0 1 0 C1 7.92 1 15.84 1 24 C-1 23 -1 23 -2.21875 19.8671875 C-2.65349693 18.53894227 -3.08023962 17.20805721 -3.5 15.875 C-3.71269531 15.22273438 -3.92539063 14.57046875 -4.14453125 13.8984375 C-5.52660419 9.62503405 -6.78698062 5.32418947 -8 1 C-7.34 1 -6.68 1 -6 1 C-5.67 1.66 -5.34 2.32 -5 3 C-4.01 3 -3.02 3 -2 3 C-1.34 2.01 -0.68 1.02 0 0 Z " fill="#FBF9F8" transform="translate(119,61)"/>
<path d="M0 0 C2.64 0 5.28 0 8 0 C8 0.33 8 0.66 8 1 C5.69 1 3.38 1 1 1 C2.10210905 2.75129657 3.20677432 4.50098464 4.3125 6.25 C4.92738281 7.22453125 5.54226562 8.1990625 6.17578125 9.203125 C7.90740203 11.95648484 7.90740203 11.95648484 9.75 14.1875 C11 16 11 16 10.6875 18.75 C10.460625 19.4925 10.23375 20.235 10 21 C9.3503125 20.0409375 9.3503125 20.0409375 8.6875 19.0625 C7.08760823 16.73253997 7.08760823 16.73253997 4 16 C4 21.28 4 26.56 4 32 C3.67 32 3.34 32 3 32 C2.9906543 31.39526855 2.98130859 30.79053711 2.97167969 30.16748047 C2.91768278 27.4025212 2.83409606 24.63920094 2.75 21.875 C2.73582031 20.92367187 2.72164062 19.97234375 2.70703125 18.9921875 C2.49649137 12.92863903 1.66081192 9.80106481 -2 5 C-1.25 2.125 -1.25 2.125 0 0 Z " fill="#D9D7D6" transform="translate(152,55)"/>
<path d="M0 0 C2.20703125 0.01171875 2.20703125 0.01171875 5.89453125 0.51171875 C4.12838017 4.24745193 1.99209145 7.74534168 -0.16796875 11.26171875 C-0.53212891 11.86371094 -0.89628906 12.46570313 -1.27148438 13.0859375 C-2.18742096 14.57920196 -3.14304296 16.04798545 -4.10546875 17.51171875 C-4.43546875 17.51171875 -4.76546875 17.51171875 -5.10546875 17.51171875 C-5.14818975 15.8455997 -5.14610707 14.1778899 -5.10546875 12.51171875 C-4.77546875 12.18171875 -4.44546875 11.85171875 -4.10546875 11.51171875 C-4.76546875 11.51171875 -5.42546875 11.51171875 -6.10546875 11.51171875 C-6.43546875 12.17171875 -6.76546875 12.83171875 -7.10546875 13.51171875 C-7.76546875 13.51171875 -8.42546875 13.51171875 -9.10546875 13.51171875 C-4.86747293 1.18300362 -4.86747293 1.18300362 0 0 Z " fill="#292726" transform="translate(181.10546875,55.48828125)"/>
<path d="M0 0 C2.95064148 -0.2208564 5.68368231 -0.28060989 8.625 -0.1875 C9.42679688 -0.17396484 10.22859375 -0.16042969 11.0546875 -0.14648438 C13.03674378 -0.11109051 15.01845551 -0.05728234 17 0 C17.5625 1.9375 17.5625 1.9375 18 4 C15.94077598 6.05922402 11.78291876 5.41427579 8.9375 5.5625 C7.79958008 5.62727539 7.79958008 5.62727539 6.63867188 5.69335938 C4.75934562 5.79973633 2.87969756 5.90039934 1 6 C0.67 5.34 0.34 4.68 0 4 C-0.33 4.99 -0.66 5.98 -1 7 C-1.625 5.1875 -1.625 5.1875 -2 3 C-1.34 2.01 -0.68 1.02 0 0 Z " fill="#191313" transform="translate(64,71)"/>
<path d="M0 0 C0.57356214 4.8752782 -1.29919845 7.07156138 -4 11 C-4.78215588 13.7282504 -4.78215588 13.7282504 -5 16 C-6.9375 15.375 -6.9375 15.375 -9 14 C-10.02673922 10.6997668 -10.18083935 8.64800766 -9.25 5.3125 C-6.79193352 0.76507701 -5.26743082 -0.42708899 0 0 Z " fill="#2B2827" transform="translate(196,60)"/>
<path d="M0 0 C2.475 0.495 2.475 0.495 5 1 C5.8125 2.625 5.8125 2.625 6 5 C3.13093096 9.13483479 0.57493311 11.76190323 -4 14 C-7.11328125 14.29296875 -7.11328125 14.29296875 -10.3125 14.1875 C-11.91544922 14.14689453 -11.91544922 14.14689453 -13.55078125 14.10546875 C-14.76314453 14.05326172 -14.76314453 14.05326172 -16 14 C-16 13.67 -16 13.34 -16 13 C-12.37 13 -8.74 13 -5 13 C-5 12.34 -5 11.68 -5 11 C-4.34 11 -3.68 11 -3 11 C-3.33 9.02 -3.66 7.04 -4 5 C-2.68 4.34 -1.36 3.68 0 3 C0 2.01 0 1.02 0 0 Z M-5 8 C-4.67 8.66 -4.34 9.32 -4 10 C-4.66 9.67 -5.32 9.34 -6 9 C-5.67 8.67 -5.34 8.34 -5 8 Z " fill="#241D1D" transform="translate(242,77)"/>
<path d="M0 0 C0.91007812 0.00902344 1.82015625 0.01804688 2.7578125 0.02734375 C3.45648438 0.03894531 4.15515625 0.05054688 4.875 0.0625 C5.9296875 1.921875 5.9296875 1.921875 6.875 4.0625 C6 6.3125 6 6.3125 4.875 8.0625 C4.215 7.7325 3.555 7.4025 2.875 7.0625 C3.205 5.0825 3.535 3.1025 3.875 1.0625 C3.215 1.0625 2.555 1.0625 1.875 1.0625 C1.606875 1.784375 1.33875 2.50625 1.0625 3.25 C-0.125 6.0625 -0.125 6.0625 -1.625 8.5 C-3.25032139 11.27659071 -4.19624743 13.99047226 -5.125 17.0625 C-7.60160152 13.56612139 -6.99119996 10.95532768 -6.3515625 6.96875 C-6.09214426 4.78605856 -6.35373716 3.1192009 -7.125 1.0625 C-4.60024538 -0.19987731 -2.81299534 -0.03606404 0 0 Z " fill="#282524" transform="translate(103.125,56.9375)"/>
<path d="M0 0 C-0.99 0.495 -0.99 0.495 -2 1 C-2 1.66 -2 2.32 -2 3 C-3.98 3.66 -5.96 4.32 -8 5 C-8 6.98 -8 8.96 -8 11 C-8.99 11 -9.98 11 -11 11 C-10.67 12.32 -10.34 13.64 -10 15 C-11.32 15.33 -12.64 15.66 -14 16 C-13.78955338 6.31945539 -13.78955338 6.31945539 -10.5625 2.4375 C-6.61912211 -1.31351799 -5.21989128 -1.02128308 0 0 Z " fill="#211819" transform="translate(229,59)"/>
<path d="M0 0 C1.35439668 2.70879335 1.06501451 5.00933268 1 8 C4.0745356 7.2236068 4.0745356 7.2236068 6 5 C6.33 8.3 6.66 11.6 7 15 C6.34 15 5.68 15 5 15 C4.67 16.32 4.34 17.64 4 19 C0.79218083 16.08380075 -0.86417191 13.62763488 -1.23046875 9.23828125 C-1.21628906 8.27277344 -1.20210937 7.30726562 -1.1875 6.3125 C-1.18105469 5.33925781 -1.17460937 4.36601563 -1.16796875 3.36328125 C-1 1 -1 1 0 0 Z " fill="#2C2929" transform="translate(186,66)"/>
<path d="M0 0 C3.3 0 6.6 0 10 0 C11.3125 2.625 11.3125 2.625 12 6 C10.79575036 7.46462794 9.5780837 8.92399758 8.25 10.27734375 C5.95892041 13.43473781 6.09272272 17.20679801 6 21 C5.67 20.01 5.34 19.02 5 18 C4.34 18 3.68 18 3 18 C3.165 17.236875 3.33 16.47375 3.5 15.6875 C4.09145396 12.96403764 4.09145396 12.96403764 4 10 C5.00943933 6.53906517 5.98910615 4.01634077 8 1 C5.36 1 2.72 1 0 1 C0 0.67 0 0.34 0 0 Z " fill="#F9F8F6" transform="translate(179,55)"/>
<path d="M0 0 C3.77068832 -0.086985 7.54111932 -0.14038579 11.3125 -0.1875 C12.38435547 -0.21263672 13.45621094 -0.23777344 14.56054688 -0.26367188 C15.58857422 -0.27333984 16.61660156 -0.28300781 17.67578125 -0.29296875 C19.0975769 -0.31653442 19.0975769 -0.31653442 20.5480957 -0.34057617 C23.39771408 0.05524357 24.24976105 0.77824719 26 3 C25.67 3.66 25.34 4.32 25 5 C23.68 4.34 22.36 3.68 21 3 C21 3.66 21 4.32 21 5 C12.75 5 4.5 5 -4 5 C-4 4.34 -4 3.68 -4 3 C1.94 3 7.88 3 14 3 C14 2.67 14 2.34 14 2 C7.07 1.505 7.07 1.505 0 1 C0 0.67 0 0.34 0 0 Z " fill="#0F0B0C" transform="translate(58,57)"/>
<path d="M0 0 C0.99 0.33 1.98 0.66 3 1 C3.9140625 3.25 3.9140625 3.25 4.625 6 C5.287116 9.28439007 5.287116 9.28439007 7 12 C7 13.65 7 15.3 7 17 C2.71 17 -1.58 17 -6 17 C-5.67 15.68 -5.34 14.36 -5 13 C-5 13.99 -5 14.98 -5 16 C-1.37 16 2.26 16 6 16 C5.01 14.35 4.02 12.7 3 11 C1.35 11.33 -0.3 11.66 -2 12 C-2 11.34 -2 10.68 -2 10 C-1.34 10 -0.68 10 0 10 C0.33 8.35 0.66 6.7 1 5 C0.34 5 -0.32 5 -1 5 C-0.67 3.35 -0.34 1.7 0 0 Z " fill="#D7D5D3" transform="translate(102,63)"/>
<path d="M0 0 C3.64452317 0.02621959 4.18789331 0.3258322 7.25 2.75 C9.25 5.375 9.25 5.375 9.25 7.375 C8.59 7.375 7.93 7.375 7.25 7.375 C6.59 6.715 5.93 6.055 5.25 5.375 C4.26 6.365 3.27 7.355 2.25 8.375 C-3.50731895 5.92507704 -3.50731895 5.92507704 -4.6875 3.25 C-4.708125 2.63125 -4.72875 2.0125 -4.75 1.375 C-3.75 0.375 -3.75 0.375 0 0 Z " fill="#2A2A28" transform="translate(128.75,56.625)"/>
<path d="M0 0 C0.66 0.33 1.32 0.66 2 1 C1.67 9.25 1.34 17.5 1 26 C-0.65 26 -2.3 26 -4 26 C-4.66 23.69 -5.32 21.38 -6 19 C-5.34 19 -4.68 19 -4 19 C-3.67 19.99 -3.34 20.98 -3 22 C-1.13905228 14.6802723 -0.44238385 7.53216715 0 0 Z " fill="#D3CFCF" transform="translate(148,58)"/>
<path d="M0 0 C0.66 0.33 1.32 0.66 2 1 C2 9.25 2 17.5 2 26 C1.67 26 1.34 26 1 26 C-1.21819172 20.64302317 -1.26935963 15.87889846 -1.1875 10.1875 C-1.18685547 9.31673828 -1.18621094 8.44597656 -1.18554688 7.54882812 C-1.14059434 1.14059434 -1.14059434 1.14059434 0 0 Z " fill="#201919" transform="translate(123,63)"/>
<path d="M0 0 C2 3 2 3 2 6 C2.99 6 3.98 6 5 6 C5 5.34 5 4.68 5 4 C5.99 4 6.98 4 8 4 C8.33 5.65 8.66 7.3 9 9 C10.32 9.33 11.64 9.66 13 10 C9.04 11.98 9.04 11.98 5 14 C1.34133706 9.67612562 0 5.65076098 0 0 Z " fill="#383433" transform="translate(135,75)"/>
<path d="M0 0 C0 0.33 0 0.66 0 1 C-1.98 1.33 -3.96 1.66 -6 2 C-5.835 2.61875 -5.67 3.2375 -5.5 3.875 C-5 6 -5 6 -5 8 C-6.32 8 -7.64 8 -9 8 C-9.33 15.59 -9.66 23.18 -10 31 C-12 29 -12 29 -12.19873047 26.54150391 C-12.11075422 23.23475592 -12.00750633 19.93029679 -11.875 16.625 C-11.85179688 15.47515625 -11.82859375 14.3253125 -11.8046875 13.140625 C-11.7634375 12.03460938 -11.7221875 10.92859375 -11.6796875 9.7890625 C-11.64601074 8.77537598 -11.61233398 7.76168945 -11.57763672 6.71728516 C-10.17402072 0.11447619 -6.08458261 -0.46804482 0 0 Z " fill="#4B4848" transform="translate(131,56)"/>
<path d="M0 0 C1.51400391 0.01740234 1.51400391 0.01740234 3.05859375 0.03515625 C4.07050781 0.04417969 5.08242187 0.05320313 6.125 0.0625 C7.29869141 0.07990234 7.29869141 0.07990234 8.49609375 0.09765625 C7.53703125 0.49984375 7.53703125 0.49984375 6.55859375 0.91015625 C4.16477689 1.98433377 4.16477689 1.98433377 3.49609375 5.09765625 C2.50609375 5.09765625 1.51609375 5.09765625 0.49609375 5.09765625 C0.49609375 5.75765625 0.49609375 6.41765625 0.49609375 7.09765625 C-2.09631444 8.95742735 -4.64801472 10.66971048 -7.50390625 12.09765625 C-7.83390625 10.44765625 -8.16390625 8.79765625 -8.50390625 7.09765625 C-5.03890625 6.60265625 -5.03890625 6.60265625 -1.50390625 6.09765625 C-1.50390625 5.10765625 -1.50390625 4.11765625 -1.50390625 3.09765625 C-2.16390625 2.43765625 -2.82390625 1.77765625 -3.50390625 1.09765625 C-2.50390625 0.09765625 -2.50390625 0.09765625 0 0 Z " fill="#3C3838" transform="translate(228.50390625,55.90234375)"/>
<path d="M0 0 C2.98539216 1.54084757 3.66175519 4.00199969 4.9375 7 C3.9375 8 3.9375 8 1.6875 8.4375 C-2.51108555 7.76954321 -3.60583585 5.3691394 -6.0625 2 C-3.9373967 0.70975871 -2.50904501 0 0 0 Z " fill="#1D1717" transform="translate(70.0625,78)"/>
<path d="M0 0 C2.97 0.495 2.97 0.495 6 1 C6.1953125 7.0546875 6.1953125 7.0546875 6 9 C5.34 9.66 4.68 10.32 4 11 C4 10.34 4 9.68 4 9 C2.68 9 1.36 9 0 9 C0 6.03 0 3.06 0 0 Z " fill="#1D1918" transform="translate(243,69)"/>
<path d="M0 0 C3.125 -0.5625 3.125 -0.5625 7 0 C9.46527449 2.74335318 11.2476366 5.76486756 13 9 C12.67 9.66 12.34 10.32 12 11 C11.34 10.01 10.68 9.02 10 8 C8.68 8 7.36 8 6 8 C5.67 6.68 5.34 5.36 5 4 C4.01 4.33 3.02 4.66 2 5 C1.34 3.35 0.68 1.7 0 0 Z " fill="#1C1C1B" transform="translate(153,56)"/>
<path d="M0 0 C0.66 0.33 1.32 0.66 2 1 C2 2.65 2 4.3 2 6 C2.99 6.33 3.98 6.66 5 7 C5.6875 9.0625 5.6875 9.0625 6 11 C5.01 11.495 5.01 11.495 4 12 C3.60578857 11.5155542 3.21157715 11.0311084 2.80541992 10.53198242 C0.47926837 8.55813509 -0.8642623 8.57987084 -3.88671875 8.48828125 C-4.82451172 8.45283203 -5.76230469 8.41738281 -6.72851562 8.38085938 C-7.70498047 8.35830078 -8.68144531 8.33574219 -9.6875 8.3125 C-10.67556641 8.27833984 -11.66363281 8.24417969 -12.68164062 8.20898438 C-15.12098053 8.12649462 -17.55996063 8.05734932 -20 8 C-20 7.67 -20 7.34 -20 7 C-13.07 7 -6.14 7 1 7 C0.67 4.69 0.34 2.38 0 0 Z " fill="#62605F" transform="translate(78,63)"/>
<path d="M0 0 C2.9719385 1.12451727 5.33440687 2.22293791 8 4 C7.34 5.65 6.68 7.3 6 9 C3 9 3 9 0 7 C-0.1875 3.375 -0.1875 3.375 0 0 Z " fill="#252021" transform="translate(208,57)"/>
<path d="M0 0 C2.64 0 5.28 0 8 0 C6.62845496 2.95409701 5.01136276 5.44008376 3 8 C0.9375 6.25 0.9375 6.25 -1 4 C-0.75 1.75 -0.75 1.75 0 0 Z " fill="#30302E" transform="translate(179,56)"/>
<path d="M0 0 C4.875 3.75 4.875 3.75 6 6 C5.34 6 4.68 6 4 6 C4.33 7.32 4.66 8.64 5 10 C2.15576074 9.10181918 0.40333211 8.52608536 -1.4375 6.125 C-2 4 -2 4 -1.125 1.75 C-0.75375 1.1725 -0.3825 0.595 0 0 Z " fill="#292726" transform="translate(221,80)"/>
<path d="M0 0 C4.07410238 1.0185256 5.26464981 1.82592899 8.25 4.5625 C8.95640625 5.20316406 9.6628125 5.84382813 10.390625 6.50390625 C10.92171875 6.99761719 11.4528125 7.49132812 12 8 C11.34 8.66 10.68 9.32 10 10 C7.36 7.69 4.72 5.38 2 3 C1.67 6.3 1.34 9.6 1 13 C0.67 13 0.34 13 0 13 C0 8.71 0 4.42 0 0 Z " fill="#E1DCDC" transform="translate(58,78)"/>
<path d="M0 0 C0.66 0 1.32 0 2 0 C3 3.875 3 3.875 3 5 C3.66 4.34 4.32 3.68 5 3 C5 6.11257569 4.82638376 8.10765685 4 11 C3.01 11 2.02 11 1 11 C-0.625 7.75 -0.625 7.75 -2 4 C-1.1875 1.5625 -1.1875 1.5625 0 0 Z " fill="#1A1515" transform="translate(105,58)"/>
<path d="M0 0 C3.76687864 0 4.91190305 0.23537317 8 2 C8.33 1.34 8.66 0.68 9 0 C9.33 0.99 9.66 1.98 10 3 C8.5625 5.6875 8.5625 5.6875 7 8 C3.70851757 6.86500606 3.0040131 6.00716624 1.25 2.875 C0.8375 1.92625 0.425 0.9775 0 0 Z " fill="#ECE9E8" transform="translate(164,62)"/>
<path d="M0 0 C0.66 0 1.32 0 2 0 C2 2.31 2 4.62 2 7 C-4.27 6.67 -10.54 6.34 -17 6 C-17 5.67 -17 5.34 -17 5 C-15.66195312 4.96132812 -15.66195312 4.96132812 -14.296875 4.921875 C-13.12640625 4.86515625 -11.9559375 4.8084375 -10.75 4.75 C-9.00976562 4.68039063 -9.00976562 4.68039063 -7.234375 4.609375 C-3.49648041 3.90513399 -2.44405395 2.80281416 0 0 Z " fill="#140F0F" transform="translate(112,79)"/>
<path d="M0 0 C0.33 0.66 0.66 1.32 1 2 C0.00390625 4.3828125 0.00390625 4.3828125 -1.4375 7.125 C-1.91058594 8.03507812 -2.38367188 8.94515625 -2.87109375 9.8828125 C-3.24363281 10.58148438 -3.61617188 11.28015625 -4 12 C-5.65 11.67 -7.3 11.34 -9 11 C-9 8.36 -9 5.72 -9 3 C-7 5 -7 5 -7 8 C-6.34 8 -5.68 8 -5 8 C-4.67 7.01 -4.34 6.02 -4 5 C-3.34 4.67 -2.68 4.34 -2 4 C-0.86649466 1.98330173 -0.86649466 1.98330173 0 0 Z " fill="#DFDDDC" transform="translate(95,59)"/>
<path d="M0 0 C2.97 0.495 2.97 0.495 6 1 C5.38511719 1.68835937 5.38511719 1.68835937 4.7578125 2.390625 C4.21898437 3.00421875 3.68015625 3.6178125 3.125 4.25 C2.59132812 4.85328125 2.05765625 5.4565625 1.5078125 6.078125 C0.0202513 7.97418746 -1.00322436 9.81290005 -2 12 C-3.32 11.67 -4.64 11.34 -6 11 C-5 9 -5 9 -3.5625 7.75 C-1.47073658 5.40722497 -0.86245323 2.98541502 0 0 Z " fill="#EFECED" transform="translate(217,57)"/>
<path d="M0 0 C0.70511719 0.16371094 1.41023438 0.32742187 2.13671875 0.49609375 C5.09658688 1.01699824 7.81061273 1.09866732 10.8125 1.0625 C11.78832031 1.05347656 12.76414062 1.04445313 13.76953125 1.03515625 C14.50558594 1.02355469 15.24164063 1.01195313 16 1 C16 1.33 16 1.66 16 2 C15.35933594 2.03738281 14.71867187 2.07476562 14.05859375 2.11328125 C8.39993859 2.54337277 4.07826187 3.46086906 -1 6 C-2.65 4.68 -4.3 3.36 -6 2 C-4.35 2 -2.7 2 -1 2 C-0.67 1.34 -0.34 0.68 0 0 Z " fill="#3D3535" transform="translate(64,75)"/>
<path d="M0 0 C-1 3 -1 3 -2 4 C-3.85287502 4.07226502 -5.70833878 4.0838122 -7.5625 4.0625 C-8.57441406 4.05347656 -9.58632813 4.04445313 -10.62890625 4.03515625 C-11.41136719 4.02355469 -12.19382813 4.01195312 -13 4 C-13 3.01 -13 2.02 -13 1 C-11.39602723 0.83147753 -9.7918131 0.66525114 -8.1875 0.5 C-7.29417969 0.4071875 -6.40085937 0.314375 -5.48046875 0.21875 C-3 0 -3 0 0 0 Z " fill="#1F191B" transform="translate(52,57)"/>
<path d="M0 0 C0 0.33 0 0.66 0 1 C-2.64 1.33 -5.28 1.66 -8 2 C-7.34 2.66 -6.68 3.32 -6 4 C-7.96382007 5.50559539 -9.78263366 6.89131683 -12 8 C-12 6.68 -12 5.36 -12 4 C-13.32 3.67 -14.64 3.34 -16 3 C-11.14640505 -1.01676824 -5.95027665 -0.28136159 0 0 Z M-12 2 C-11 4 -11 4 -11 4 Z " fill="#4C4847" transform="translate(208,56)"/>
<path d="M0 0 C2.02907167 3.3146667 2.12742133 5.4315979 1.625 9.25 C1.51414062 10.14203125 1.40328125 11.0340625 1.2890625 11.953125 C1.19367188 12.62859375 1.09828125 13.3040625 1 14 C-0.32 13.34 -1.64 12.68 -3 12 C-3 7.48763697 -2.19470368 3.95046662 0 0 Z " fill="#161312" transform="translate(96,60)"/>
<path d="M0 0 C0.95904856 3.83619425 0.91892116 5.32431536 0 9 C1.32 8.67 2.64 8.34 4 8 C3.67 6.68 3.34 5.36 3 4 C3.66 4 4.32 4 5 4 C5 6.97 5 9.94 5 13 C4.34 12.67 3.68 12.34 3 12 C3 11.34 3 10.68 3 10 C2.54625 10.495 2.0925 10.99 1.625 11.5 C0 13 0 13 -2 13 C-1.34 8.71 -0.68 4.42 0 0 Z " fill="#362E2E" transform="translate(215,66)"/>
<path d="M0 0 C0.99 0 1.98 0 3 0 C3.33 2.31 3.66 4.62 4 7 C-0.95 7 -5.9 7 -11 7 C-11 6.67 -11 6.34 -11 6 C-5.555 5.505 -5.555 5.505 0 5 C0 3.35 0 1.7 0 0 Z " fill="#F2F0EF" transform="translate(75,63)"/>
<path d="M0 0 C0.91004613 3.07140568 1.33694826 5.79899154 1 9 C-2.52679099 11.35119399 -4.02879485 11.21443452 -8.1875 11.125 C-9.27417969 11.10695313 -10.36085937 11.08890625 -11.48046875 11.0703125 C-12.72763672 11.03550781 -12.72763672 11.03550781 -14 11 C-14 10.67 -14 10.34 -14 10 C-10.37 10 -6.74 10 -3 10 C-3 9.34 -3 8.68 -3 8 C-2.34 8 -1.68 8 -1 8 C-1.20625 7.05125 -1.4125 6.1025 -1.625 5.125 C-1.74875 4.09375 -1.8725 3.0625 -2 2 C-1.34 1.34 -0.68 0.68 0 0 Z M-3 5 C-2.67 5.66 -2.34 6.32 -2 7 C-2.66 6.67 -3.32 6.34 -4 6 C-3.67 5.67 -3.34 5.34 -3 5 Z " fill="#4C4A48" transform="translate(240,80)"/>
<path d="M0 0 C0 2.97 0 5.94 0 9 C-2 9 -2 9 -3.625 7.8125 C-5.42149467 5.44439338 -5.23521845 3.90102749 -5 1 C-3 0 -3 0 0 0 Z " fill="#131311" transform="translate(85,63)"/>
<path d="M0 0 C3.3 0 6.6 0 10 0 C10.66 1.98 11.32 3.96 12 6 C10.1875 7.0625 10.1875 7.0625 8 8 C7.01 7.67 6.02 7.34 5 7 C6 5 7 3 8 1 C5.36 1 2.72 1 0 1 C0 0.67 0 0.34 0 0 Z " fill="#E2E2E0" transform="translate(179,55)"/>
<path d="M0 0 C-0.66 1.98 -1.32 3.96 -2 6 C-5.0831351 4.80100302 -8.06279492 3.52299523 -11 2 C-7.36576791 -0.32590854 -4.22911669 -0.16265833 0 0 Z " fill="#F9F9F7" transform="translate(92,56)"/>
<path d="M0 0 C0.99 0 1.98 0 3 0 C3 3.63 3 7.26 3 11 C2.01 11.495 2.01 11.495 1 12 C-0.26237731 9.47524538 -0.09856404 7.68799534 -0.0625 4.875 C-0.05347656 3.96492188 -0.04445312 3.05484375 -0.03515625 2.1171875 C-0.02355469 1.41851562 -0.01195312 0.71984375 0 0 Z " fill="#22191A" transform="translate(150,71)"/>
<path d="M0 0 C4.29 0 8.58 0 13 0 C13 1.32 13 2.64 13 4 C11.68 4 10.36 4 9 4 C8.67 3.34 8.34 2.68 8 2 C6.68 2.33 5.36 2.66 4 3 C4 2.34 4 1.68 4 1 C3.34 1 2.68 1 2 1 C2 1.66 2 2.32 2 3 C1.01 3 0.02 3 -1 3 C-0.67 2.01 -0.34 1.02 0 0 Z " fill="#1F1A1A" transform="translate(64,71)"/>
<path d="M0 0 C0.33 0 0.66 0 1 0 C1.33 1.98 1.66 3.96 2 6 C2.66 6 3.32 6 4 6 C3.34 7.65 2.68 9.3 2 11 C0.68 11 -0.64 11 -2 11 C-2.19622241 6.78121808 -1.80230168 3.82989106 0 0 Z " fill="#2D2928" transform="translate(88,78)"/>
<path d="M0 0 C1.35439668 2.70879335 1.06501451 5.00933268 1 8 C1.99 7.67 2.98 7.34 4 7 C4 7.99 4 8.98 4 10 C3.01 10.495 3.01 10.495 2 11 C2.33 12.32 2.66 13.64 3 15 C2.34 15 1.68 15 1 15 C-1.26166232 11.60750652 -1.24515545 10.34798499 -1.1875 6.375 C-1.18105469 5.39273438 -1.17460937 4.41046875 -1.16796875 3.3984375 C-1 1 -1 1 0 0 Z " fill="#454140" transform="translate(186,66)"/>
<path d="M0 0 C2.475 0.495 2.475 0.495 5 1 C5 1.66 5 2.32 5 3 C4.67 3.33 4.34 3.66 4 4 C6.64 4.33 9.28 4.66 12 5 C12 5.33 12 5.66 12 6 C8.37 6 4.74 6 1 6 C0.67 4.02 0.34 2.04 0 0 Z " fill="#141311" transform="translate(225,84)"/>
<path d="M0 0 C0.33 0 0.66 0 1 0 C1.50423019 5.29441695 0.18923033 7.81413519 -3 12 C-3.95808288 8.4071892 -4.20508082 6.61524247 -3 3 C-2.67 3.33 -2.34 3.66 -2 4 C-1.34 2.68 -0.68 1.36 0 0 Z " fill="#E8E3E3" transform="translate(213,71)"/>
<path d="M0 0 C0.99 0 1.98 0 3 0 C3.66 2.31 4.32 4.62 5 7 C3.35 7 1.7 7 0 7 C-0.66 5.68 -1.32 4.36 -2 3 C-1.34 2.01 -0.68 1.02 0 0 Z " fill="#FCFAF9" transform="translate(103,72)"/>
<path d="M0 0 C0.33 0 0.66 0 1 0 C1 7.26 1 14.52 1 22 C0.34 21.67 -0.32 21.34 -1 21 C-1.625 17.9375 -1.625 17.9375 -2 15 C-1.34 15 -0.68 15 0 15 C0 10.05 0 5.1 0 0 Z " fill="#DBD6D6" transform="translate(119,63)"/>
<path d="M0 0 C0 0.99 0 1.98 0 3 C0.33 3.99 0.66 4.98 1 6 C1.66 5.34 2.32 4.68 3 4 C2.67 6.64 2.34 9.28 2 12 C0.0625 11.375 0.0625 11.375 -2 10 C-2.9375 7.125 -2.9375 7.125 -3 4 C-1.5625 1.625 -1.5625 1.625 0 0 Z " fill="#140F0F" transform="translate(189,64)"/>
<path d="M0 0 C1.41377341 2.63904371 2.37240135 5.07120629 3 8 C2.01 7.67 1.02 7.34 0 7 C-0.33 8.32 -0.66 9.64 -1 11 C-1 9.02 -1 7.04 -1 5 C-2.98 5.99 -2.98 5.99 -5 7 C-5.33 6.34 -5.66 5.68 -6 5 C-5.195625 4.54625 -4.39125 4.0925 -3.5625 3.625 C-0.91143428 2.25274335 -0.91143428 2.25274335 0 0 Z " fill="#2B2626" transform="translate(115,74)"/>
<path d="M0 0 C0.99 0.99 1.98 1.98 3 3 C2.67 3.66 2.34 4.32 2 5 C1.84932786 6.4465242 1.75138964 7.8987934 1.68359375 9.3515625 C1.64169922 10.20234375 1.59980469 11.053125 1.55664062 11.9296875 C1.51732422 12.81914063 1.47800781 13.70859375 1.4375 14.625 C1.39431641 15.5221875 1.35113281 16.419375 1.30664062 17.34375 C1.20043139 19.56234283 1.09838806 21.7810488 1 24 C0.67 24 0.34 24 0 24 C0 16.08 0 8.16 0 0 Z " fill="#2C2828" transform="translate(149,59)"/>
<path d="M0 0 C0.33 0 0.66 0 1 0 C1 2.64 1 5.28 1 8 C1.66 8 2.32 8 3 8 C1.88213958 11.35358125 0.25245881 13.31158141 -2 16 C-3 13 -3 13 -2.1015625 11.109375 C-1.55628906 10.06523438 -1.55628906 10.06523438 -1 9 C-0.55188863 6.64435404 -0.55188863 6.64435404 -0.375 4.25 C-0.30023438 3.45078125 -0.22546875 2.6515625 -0.1484375 1.828125 C-0.09945312 1.22484375 -0.05046875 0.6215625 0 0 Z " fill="#AFAAA9" transform="translate(220,70)"/>
<path d="M0 0 C0.66 0 1.32 0 2 0 C2.6875 2.3125 2.6875 2.3125 3 5 C1.5625 6.8125 1.5625 6.8125 0 8 C-1.5 6.625 -1.5 6.625 -3 5 C-3 4.34 -3 3.68 -3 3 C-2.34 3 -1.68 3 -1 3 C-0.67 2.01 -0.34 1.02 0 0 Z " fill="#1A1313" transform="translate(216,76)"/>
<path d="M0 0 C0.66 0.66 1.32 1.32 2 2 C1.75558954 4.52557477 1.17639341 5.7852602 -0.4375 7.75 C-2 9 -2 9 -4 9 C-4.33 8.01 -4.66 7.02 -5 6 C-4.360625 5.38125 -3.72125 4.7625 -3.0625 4.125 C-0.96116416 2.17402388 -0.96116416 2.17402388 0 0 Z " fill="#E2E2E0" transform="translate(85,70)"/>
<path d="M0 0 C0.99 0 1.98 0 3 0 C2.67 1.32 2.34 2.64 2 4 C2.66 4 3.32 4 4 4 C4.33 5.32 4.66 6.64 5 8 C2.69 7.67 0.38 7.34 -2 7 C-1.34 4.69 -0.68 2.38 0 0 Z " fill="#2A2525" transform="translate(92,68)"/>
<path d="M0 0 C0.33 0 0.66 0 1 0 C1.03738281 1.12019531 1.07476562 2.24039063 1.11328125 3.39453125 C1.17894257 4.8672209 1.24538986 6.33987566 1.3125 7.8125 C1.33505859 8.55048828 1.35761719 9.28847656 1.38085938 10.04882812 C1.55557955 14.33107039 1.55557955 14.33107039 3.54296875 18.01171875 C4.26419922 18.50091797 4.26419922 18.50091797 5 19 C3.02 19 1.04 19 -1 19 C-0.67 12.73 -0.34 6.46 0 0 Z " fill="#231D1D" transform="translate(33,72)"/>
<path d="M0 0 C0 0.66 0 1.32 0 2 C-1.134375 2.12375 -2.26875 2.2475 -3.4375 2.375 C-5.2009375 2.684375 -5.2009375 2.684375 -7 3 C-7.33 3.66 -7.66 4.32 -8 5 C-8 4.01 -8 3.02 -8 2 C-8.66 1.34 -9.32 0.68 -10 0 C-2.25 -1.125 -2.25 -1.125 0 0 Z " fill="#EEEDEB" transform="translate(240,91)"/>
<path d="M0 0 C2.62187494 1.04874998 3.79371361 1.64931313 5.25 4.125 C5.4975 4.74375 5.745 5.3625 6 6 C3.69 5.67 1.38 5.34 -1 5 C-0.67 3.35 -0.34 1.7 0 0 Z " fill="#1D1A19" transform="translate(76,84)"/>
<path d="M0 0 C1.36125 0.37125 1.36125 0.37125 2.75 0.75 C1.76 1.245 1.76 1.245 0.75 1.75 C0.75 2.41 0.75 3.07 0.75 3.75 C-1.89 3.75 -4.53 3.75 -7.25 3.75 C-4.05 -0.31153846 -4.05 -0.31153846 0 0 Z " fill="#262121" transform="translate(226.25,58.25)"/>
<path d="M0 0 C3.3 0.33 6.6 0.66 10 1 C6.7895201 3.40785992 4.64991166 4.68197635 1 6 C0.67 4.02 0.34 2.04 0 0 Z " fill="#DADAD8" transform="translate(196,90)"/>
<path d="M0 0 C0.33 0 0.66 0 1 0 C1.3125 3.25 1.3125 3.25 1 7 C-1.80595909 9.96184571 -4.0875812 11.14729334 -8 12 C-7.59007812 11.55269531 -7.18015625 11.10539062 -6.7578125 10.64453125 C-3.74359926 7.26255515 -1.33949455 4.420332 0 0 Z " fill="#E0DCDB" transform="translate(248,78)"/>
<path d="M0 0 C0.33 0.66 0.66 1.32 1 2 C1.99 2.33 2.98 2.66 4 3 C4.33 3.99 4.66 4.98 5 6 C1.79937313 7.60031344 -0.72271806 6.03173691 -4 5 C-2.68 3.35 -1.36 1.7 0 0 Z " fill="#2F2929" transform="translate(212,79)"/>
<path d="M0 0 C0.598125 0.350625 1.19625 0.70125 1.8125 1.0625 C0.4925 1.3925 -0.8275 1.7225 -2.1875 2.0625 C-2.1875 3.7125 -2.1875 5.3625 -2.1875 7.0625 C-3.5075 6.7325 -4.8275 6.4025 -6.1875 6.0625 C-5.8575 4.0825 -5.5275 2.1025 -5.1875 0.0625 C-2.1875 -0.9375 -2.1875 -0.9375 0 0 Z " fill="#191213" transform="translate(223.1875,61.9375)"/>
<path d="M0 0 C1.134375 0.020625 2.26875 0.04125 3.4375 0.0625 C2.7775 1.7125 2.1175 3.3625 1.4375 5.0625 C-0.2125 5.0625 -1.8625 5.0625 -3.5625 5.0625 C-4.125 3.125 -4.125 3.125 -4.5625 1.0625 C-3.5625 0.0625 -3.5625 0.0625 0 0 Z " fill="#141413" transform="translate(128.5625,56.9375)"/>
<path d="M0 0 C0.66 0.66 1.32 1.32 2 2 C1.34 2.66 0.68 3.32 0 4 C0 4.99 0 5.98 0 7 C-0.31421071 9.00309329 -0.6451046 11.00371336 -1 13 C-2 11 -3 9 -4 7 C-3.22265625 5.2734375 -3.22265625 5.2734375 -2.0625 3.375 C-1.381875 2.26125 -0.70125 1.1475 0 0 Z " fill="#E6E6E4" transform="translate(183,62)"/>
<path d="M0 0 C0.33 0 0.66 0 1 0 C1.1953125 6.0546875 1.1953125 6.0546875 1 8 C0.34 8.66 -0.32 9.32 -1 10 C-1 9.34 -1 8.68 -1 8 C-2.32 8 -3.64 8 -5 8 C-4.67 6.35 -4.34 4.7 -4 3 C-3.67 3.99 -3.34 4.98 -3 6 C-2.34 6 -1.68 6 -1 6 C-0.67 4.02 -0.34 2.04 0 0 Z " fill="#0D0A09" transform="translate(248,70)"/>
<path d="M0 0 C1.65 0.33 3.3 0.66 5 1 C4.21625 1.7425 3.4325 2.485 2.625 3.25 C0.43495469 5.54433318 -0.82731386 7.12158858 -2 10 C-3.06351675 6.61608307 -3.21442982 5.4195366 -1.5625 2.1875 C-1.046875 1.465625 -0.53125 0.74375 0 0 Z " fill="#DFDEDC" transform="translate(53,69)"/>
<path d="M0 0 C0.33 0.66 0.66 1.32 1 2 C1.66 2 2.32 2 3 2 C2.67 3.65 2.34 5.3 2 7 C0.68 7.33 -0.64 7.66 -2 8 C-1.34 5.36 -0.68 2.72 0 0 Z " fill="#E7E7E5" transform="translate(100,66)"/>
<path d="M0 0 C0.66 0 1.32 0 2 0 C4.29633824 3.44450737 4.54016485 5.93812283 5 10 C4.34 10 3.68 10 3 10 C2.49596232 8.70990357 1.99690074 7.41786211 1.5 6.125 C1.2215625 5.40570313 0.943125 4.68640625 0.65625 3.9453125 C0 2 0 2 0 0 Z " fill="#E2E0DF" transform="translate(111,62)"/>
<path d="M0 0 C0.99 0.99 1.98 1.98 3 3 C2.34 4.32 1.68 5.64 1 7 C0.01 6.67 -0.98 6.34 -2 6 C-1.125 1.125 -1.125 1.125 0 0 Z " fill="#1C1B19" transform="translate(134,61)"/>
<path d="M0 0 C2.64 0 5.28 0 8 0 C8 0.33 8 0.66 8 1 C5.69 1 3.38 1 1 1 C1.33 2.65 1.66 4.3 2 6 C1.01 6.33 0.02 6.66 -1 7 C-2 4 -2 4 -1.0625 1.8125 C-0.5365625 0.9153125 -0.5365625 0.9153125 0 0 Z " fill="#E4E4E4" transform="translate(152,55)"/>
<path d="M0 0 C0.99 0.66 1.98 1.32 3 2 C2.67 2.66 2.34 3.32 2 4 C2.33 4.33 2.66 4.66 3 5 C2.01 5.495 2.01 5.495 1 6 C0.67 6.66 0.34 7.32 0 8 C-1.125 6.25 -1.125 6.25 -2 4 C-1.125 1.75 -1.125 1.75 0 0 Z " fill="#1D1817" transform="translate(221,80)"/>
<path d="M0 0 C2.64 0 5.28 0 8 0 C8 0.99 8 1.98 8 3 C7.34 3 6.68 3 6 3 C6 3.66 6 4.32 6 5 C4.35 5 2.7 5 1 5 C2.32 3.68 3.64 2.36 5 1 C3.35 1 1.7 1 0 1 C0 0.67 0 0.34 0 0 Z " fill="#120D0D" transform="translate(228,57)"/>
<path d="M0 0 C0 2.83967231 -0.40267181 5.23735711 -1 8 C-1.66 8 -2.32 8 -3 8 C-3.33 8.66 -3.66 9.32 -4 10 C-4.25 7.25 -4.25 7.25 -4 4 C-2 1.625 -2 1.625 0 0 Z " fill="#D6D6D4" transform="translate(225,64)"/>
<path d="M0 0 C0.66 0 1.32 0 2 0 C2 0.66 2 1.32 2 2 C1.34 2 0.68 2 0 2 C0.061875 2.94875 0.12375 3.8975 0.1875 4.875 C0.125625 5.90625 0.06375 6.9375 0 8 C-0.99 8.66 -1.98 9.32 -3 10 C-3.33 8.35 -3.66 6.7 -4 5 C-3.01 5 -2.02 5 -1 5 C-0.67 3.35 -0.34 1.7 0 0 Z " fill="#352F2F" transform="translate(110,64)"/>
<path d="M0 0 C0.66 0.99 1.32 1.98 2 3 C0.625 5.5 0.625 5.5 -1 8 C-1.66 8 -2.32 8 -3 8 C-3.36923077 3.44615385 -3.36923077 3.44615385 -1.5 1.1875 C-1.005 0.795625 -0.51 0.40375 0 0 Z " fill="#F5F0F0" transform="translate(172,62)"/>
<path d="M0 0 C0.66 0.33 1.32 0.66 2 1 C1.67 2.65 1.34 4.3 1 6 C1.99 5.67 2.98 5.34 4 5 C4 5.99 4 6.98 4 8 C2.125 7.75 2.125 7.75 0 7 C-1.25 4.9375 -1.25 4.9375 -2 3 C-1.34 2.01 -0.68 1.02 0 0 Z " fill="#121211" transform="translate(158,58)"/>
<path d="M0 0 C2.31 0.33 4.62 0.66 7 1 C7 1.66 7 2.32 7 3 C5.35 3.66 3.7 4.32 2 5 C2 3.68 2 2.36 2 1 C1.34 0.67 0.68 0.34 0 0 Z " fill="#1D1918" transform="translate(208,84)"/>
<path d="M0 0 C0.99 0.33 1.98 0.66 3 1 C3 1.66 3 2.32 3 3 C2.01 3 1.02 3 0 3 C0 2.01 0 1.02 0 0 Z M-5 2 C-2.525 2.495 -2.525 2.495 0 3 C-0.99 3.99 -1.98 4.98 -3 6 C-3.66 5.67 -4.32 5.34 -5 5 C-5 4.01 -5 3.02 -5 2 Z " fill="#3B3736" transform="translate(168,69)"/>
<path d="M0 0 C0.99 0.33 1.98 0.66 3 1 C3 1.66 3 2.32 3 3 C2.34 3 1.68 3 1 3 C0.67 4.65 0.34 6.3 0 8 C-0.99 7.34 -1.98 6.68 -3 6 C-3 4 -3 4 -1 2 C-0.67 1.34 -0.34 0.68 0 0 Z " fill="#1C1515" transform="translate(175,65)"/>
<path d="M0 0 C2.31 0 4.62 0 7 0 C6.01 0.33 5.02 0.66 4 1 C4 2.32 4 3.64 4 5 C3.01 4.67 2.02 4.34 1 4 C0.3125 1.9375 0.3125 1.9375 0 0 Z " fill="#3E3E3E" transform="translate(153,56)"/>
<path d="M0 0 C-0.66 0 -1.32 0 -2 0 C-2.33 1.65 -2.66 3.3 -3 5 C-3.66 5 -4.32 5 -5 5 C-5.33 3.35 -5.66 1.7 -6 0 C-3 -1 -3 -1 0 0 Z " fill="#1B1616" transform="translate(171,73)"/>
<path d="M0 0 C0.99 0 1.98 0 3 0 C3.33 2.31 3.66 4.62 4 7 C3.34 7 2.68 7 2 7 C0 4 0 4 0 0 Z " fill="#171614" transform="translate(138,72)"/>
<path d="M0 0 C2 2 2 2 2.125 4.625 C2.08375 5.40875 2.0425 6.1925 2 7 C1.01 7 0.02 7 -1 7 C-1.33 5.35 -1.66 3.7 -2 2 C-1.34 2 -0.68 2 0 2 C0 1.34 0 0.68 0 0 Z " fill="#F1EEED" transform="translate(117,71)"/>
<path d="M0 0 C0.99 0.33 1.98 0.66 3 1 C1.515 3.475 1.515 3.475 0 6 C-1.32 5.67 -2.64 5.34 -4 5 C-2.93453047 2.86906094 -1.70840281 1.63412443 0 0 Z " fill="#C1BABB" transform="translate(215,63)"/>
<path d="M0 0 C0.33 0 0.66 0 1 0 C1 2.97 1 5.94 1 9 C0.67 8.01 0.34 7.02 0 6 C-0.66 6 -1.32 6 -2 6 C-1.125 1.125 -1.125 1.125 0 0 Z " fill="#F3F1EF" transform="translate(184,67)"/>
<path d="M0 0 C0.99 0.33 1.98 0.66 3 1 C3 1.66 3 2.32 3 3 C3.66 3.33 4.32 3.66 5 4 C4.01 5.485 4.01 5.485 3 7 C2.34 6.67 1.68 6.34 1 6 C1 4.68 1 3.36 1 2 C0.34 1.67 -0.32 1.34 -1 1 C-0.67 0.67 -0.34 0.34 0 0 Z " fill="#363535" transform="translate(240,58)"/>
<path d="M0 0 C1.32 0 2.64 0 4 0 C4 1.32 4 2.64 4 4 C2.68 4 1.36 4 0 4 C0 2.68 0 1.36 0 0 Z " fill="#1A1514" transform="translate(192,60)"/>
<path d="M0 0 C0.99 0.33 1.98 0.66 3 1 C2.01 2.98 1.02 4.96 0 7 C-0.33 6.34 -0.66 5.68 -1 5 C-1.66 4.67 -2.32 4.34 -3 4 C-2.01 2.68 -1.02 1.36 0 0 Z " fill="#EAEAE8" transform="translate(176,56)"/>
<path d="M0 0 C-1.32 1.32 -2.64 2.64 -4 4 C-4 3.34 -4 2.68 -4 2 C-4.99 2 -5.98 2 -7 2 C-7 1.34 -7 0.68 -7 0 C-3.98968256 -0.93423645 -3.13349732 -1.04449911 0 0 Z " fill="#FEFAFA" transform="translate(81,78)"/>
<path d="M0 0 C0 1.32 0 2.64 0 4 C-2.97 3.505 -2.97 3.505 -6 3 C-6 2.34 -6 1.68 -6 1 C-4 0 -4 0 0 0 Z " fill="#181514" transform="translate(168,68)"/>
<path d="M0 0 C1.32 0.66 2.64 1.32 4 2 C4 2.66 4 3.32 4 4 C3.34 4 2.68 4 2 4 C1.67 4.66 1.34 5.32 1 6 C0.34 4.35 -0.32 2.7 -1 1 C-0.67 0.67 -0.34 0.34 0 0 Z " fill="#F9F7F5" transform="translate(87,69)"/>
<path d="M0 0 C-0.66 1.32 -1.32 2.64 -2 4 C-3.9375 3.625 -3.9375 3.625 -6 3 C-6.33 2.34 -6.66 1.68 -7 1 C-4.50935112 0.31292445 -2.62113708 0 0 0 Z " fill="#D6D6D4" transform="translate(88,56)"/>
</svg>
