<?xml version="1.0" encoding="UTF-8"?>
<!DOCTYPE svg PUBLIC "-//W3C//DTD SVG 1.1//EN" "http://www.w3.org/Graphics/SVG/1.1/DTD/svg11.dtd">
<svg xmlns="http://www.w3.org/2000/svg" version="1.1" width="173px" height="148px" style="shape-rendering:geometricPrecision; text-rendering:geometricPrecision; image-rendering:optimizeQuality; fill-rule:evenodd; clip-rule:evenodd" xmlns:xlink="http://www.w3.org/1999/xlink">
<g><path style="opacity:1" fill="#fefefe" d="M -0.5,-0.5 C 57.1667,-0.5 114.833,-0.5 172.5,-0.5C 172.5,48.8333 172.5,98.1667 172.5,147.5C 114.833,147.5 57.1667,147.5 -0.5,147.5C -0.5,98.1667 -0.5,48.8333 -0.5,-0.5 Z"/></g>
<g><path style="opacity:1" fill="#868686" d="M 113.5,61.5 C 117.95,61.1416 121.45,62.8083 124,66.5C 124.499,72.4908 124.666,78.4908 124.5,84.5C 123.5,84.5 122.5,84.5 121.5,84.5C 121.666,78.4908 121.499,72.4908 121,66.5C 117.667,63.8333 114.333,63.8333 111,66.5C 110.501,72.4908 110.334,78.4908 110.5,84.5C 109.5,84.5 108.5,84.5 107.5,84.5C 107.334,78.8236 107.501,73.1569 108,67.5C 109.36,64.9774 111.193,62.9774 113.5,61.5 Z"/></g>
<g><path style="opacity:1" fill="#757575" d="M 82.5,61.5 C 92.7461,61.575 97.5795,66.575 97,76.5C 94.1049,83.3684 88.9382,85.8684 81.5,84C 75.4562,80.5514 73.2895,75.3848 75,68.5C 77.3959,65.9334 79.8959,63.6 82.5,61.5 Z"/></g>
<g><path style="opacity:1" fill="#fafafa" d="M 81.5,64.5 C 87.1656,63.278 91.6656,64.9446 95,69.5C 96.1478,79.0189 91.9811,83.1856 82.5,82C 77.5814,79.2588 75.7481,75.0921 77,69.5C 78.3657,67.6383 79.8657,65.9717 81.5,64.5 Z"/></g>
<g><path style="opacity:1" fill="#858585" d="M 53.5,61.5 C 58.0926,61.5473 61.5926,63.5473 64,67.5C 64.4994,73.1569 64.6661,78.8236 64.5,84.5C 63.5,84.5 62.5,84.5 61.5,84.5C 61.6662,78.4908 61.4995,72.4908 61,66.5C 57.6667,63.8333 54.3333,63.8333 51,66.5C 50.5005,72.4908 50.3338,78.4908 50.5,84.5C 49.5,84.5 48.5,84.5 47.5,84.5C 47.3338,78.4908 47.5005,72.4908 48,66.5C 49.7297,64.5981 51.563,62.9314 53.5,61.5 Z"/></g>
<g><path style="opacity:1" fill="#757575" d="M 134.5,61.5 C 136.292,66.7455 137.126,72.4121 137,78.5C 138.691,82.2127 141.525,83.3794 145.5,82C 146.701,81.0975 147.535,79.9308 148,78.5C 148.17,72.8042 148.67,67.1376 149.5,61.5C 150.664,67.8072 150.831,74.1405 150,80.5C 144.924,85.756 139.924,85.756 135,80.5C 134.5,74.1754 134.334,67.8421 134.5,61.5 Z"/></g>
<g><path style="opacity:1" fill="#757575" d="M 21.5,61.5 C 23.2923,66.7455 24.1256,72.4121 24,78.5C 25.6912,82.2127 28.5245,83.3794 32.5,82C 33.7014,81.0975 34.5348,79.9308 35,78.5C 35.1701,72.8042 35.6701,67.1376 36.5,61.5C 37.6639,67.8072 37.8306,74.1405 37,80.5C 31.9244,85.756 26.9244,85.756 22,80.5C 21.5005,74.1754 21.3338,67.8421 21.5,61.5 Z"/></g>
</svg>
