<?xml version="1.0" encoding="UTF-8"?>
<!DOCTYPE svg PUBLIC "-//W3C//DTD SVG 1.1//EN" "http://www.w3.org/Graphics/SVG/1.1/DTD/svg11.dtd">
<svg xmlns="http://www.w3.org/2000/svg" version="1.1" width="225px" height="225px" style="shape-rendering:geometricPrecision; text-rendering:geometricPrecision; image-rendering:optimizeQuality; fill-rule:evenodd; clip-rule:evenodd" xmlns:xlink="http://www.w3.org/1999/xlink">
<g><path style="opacity:1" fill="#fefefe" d="M -0.5,-0.5 C 74.5,-0.5 149.5,-0.5 224.5,-0.5C 224.5,74.5 224.5,149.5 224.5,224.5C 149.5,224.5 74.5,224.5 -0.5,224.5C -0.5,149.5 -0.5,74.5 -0.5,-0.5 Z"/></g>
<g><path style="opacity:1" fill="#9a999a" d="M 92.5,111.5 C 92.5,112.167 92.8333,112.5 93.5,112.5C 93.9926,114.806 94.3259,117.139 94.5,119.5C 106.057,121.007 117.557,120.674 129,118.5C 131,119.167 133,119.833 135,120.5C 139.879,117.53 144.212,118.197 148,122.5C 150.049,120.392 152.549,119.226 155.5,119C 165.838,118.299 176.171,117.966 186.5,118C 192.841,122.777 193.174,128.11 187.5,134C 185.782,134.346 184.115,134.846 182.5,135.5C 181.167,136.833 181.167,138.167 182.5,139.5C 189.938,136.37 196.771,132.37 203,127.5C 208.089,127.927 209.756,130.594 208,135.5C 200.435,146.359 190.269,153.359 177.5,156.5C 175.833,156.5 174.167,156.5 172.5,156.5C 186.3,153.898 197.467,146.898 206,135.5C 207.316,131.872 206.149,129.539 202.5,128.5C 195.869,134.783 188.202,139.45 179.5,142.5C 178.702,142.043 178.369,141.376 178.5,140.5C 179.455,138.254 180.122,135.921 180.5,133.5C 188.322,133.834 191.156,130.167 189,122.5C 188.097,121.299 186.931,120.465 185.5,120C 174.259,119.797 162.925,120.463 151.5,122C 149.649,123.684 147.982,125.517 146.5,127.5C 145.232,125.696 144.565,123.696 144.5,121.5C 129.527,121.258 114.193,121.258 98.5,121.5C 96.8333,121.833 95.1667,122.167 93.5,122.5C 92.8244,124.354 91.8244,124.687 90.5,123.5C 94.0138,114.989 91.0138,111.323 81.5,112.5C 83.5956,104.716 86.7623,97.3826 91,90.5C 96.9626,84.3455 104.129,80.3455 112.5,78.5C 112.833,78 113.167,77.5 113.5,77C 112.556,75.5232 111.223,74.5232 109.5,74C 99.1824,72.5794 89.849,74.9127 81.5,81C 77.9636,84.2012 74.7969,87.7012 72,91.5C 67.8659,101.405 64.0326,111.405 60.5,121.5C 53.4554,112.565 46.7888,103.398 40.5,94C 37.6619,91.2424 34.3286,90.2424 30.5,91C 29.0096,91.7455 28.0096,92.9121 27.5,94.5C 28.4295,96.6061 29.5962,98.6061 31,100.5C 40.8237,107.142 47.4904,116.142 51,127.5C 52.8732,134.119 54.5399,140.785 56,147.5C 59.4494,151.153 63.2827,151.486 67.5,148.5C 69.5371,145.965 71.3704,143.298 73,140.5C 73.7851,146.123 76.9518,148.457 82.5,147.5C 83.9518,153.997 88.1185,156.997 95,156.5C 102.949,156.792 108.449,153.459 111.5,146.5C 112.22,149.06 113.887,150.893 116.5,152C 122.014,152.757 127.348,153.924 132.5,155.5C 131.791,156.404 130.791,156.737 129.5,156.5C 123.167,155.788 117.167,154.121 111.5,151.5C 104.047,158.478 95.3806,160.311 85.5,157C 83.4565,155.292 81.7899,153.292 80.5,151C 77.2405,150.578 74.5738,149.078 72.5,146.5C 68.0934,151.054 62.7601,152.554 56.5,151C 55.6667,150.167 54.8333,149.333 54,148.5C 52.1264,135.713 47.9597,123.713 41.5,112.5C 36.1814,107.682 31.0147,102.682 26,97.5C 24.7458,91.752 27.0791,89.0853 33,89.5C 40.7307,91.2191 46.064,95.8857 49,103.5C 52.6896,107.689 56.1896,112.022 59.5,116.5C 63.1065,108.172 66.6065,99.8384 70,91.5C 80.4051,74.3801 95.2384,68.5467 114.5,74C 115.554,75.3876 115.72,76.8876 115,78.5C 108.812,82.2337 102.312,85.4003 95.5,88C 90.8599,93.6415 87.5266,99.9749 85.5,107C 85.8333,107.833 86.1667,108.667 86.5,109.5C 88.2581,110.128 89.7581,111.128 91,112.5C 91.3826,111.944 91.8826,111.611 92.5,111.5 Z"/></g>
<g><path style="opacity:1" fill="#343435" d="M 93.5,112.5 C 92.8333,112.5 92.5,112.167 92.5,111.5C 106.189,101.739 121.522,96.9059 138.5,97C 147.054,98.6277 155.054,101.628 162.5,106C 156.323,104.204 149.99,102.538 143.5,101C 131.093,98.5506 119.093,99.884 107.5,105C 102.942,107.73 98.2754,110.23 93.5,112.5 Z"/></g>
<g><path style="opacity:1" fill="#e6e3e8" d="M 178.5,140.5 C 177.167,141.167 175.833,141.833 174.5,142.5C 172.393,143.468 170.059,143.802 167.5,143.5C 167.768,141.901 167.434,140.568 166.5,139.5C 166.631,138.624 166.298,137.957 165.5,137.5C 164.313,138.653 163.313,138.653 162.5,137.5C 163.642,133.004 165.308,128.671 167.5,124.5C 166.5,124.167 165.5,123.833 164.5,123.5C 161.23,124.055 157.896,124.222 154.5,124C 150.66,126.891 147.66,130.391 145.5,134.5C 141.877,134.649 141.543,135.816 144.5,138C 144.43,138.765 144.097,139.265 143.5,139.5C 143.631,138.624 143.298,137.957 142.5,137.5C 141.549,138.326 140.549,138.492 139.5,138C 141.206,133.675 142.206,129.175 142.5,124.5C 138.406,123.705 135.239,125.038 133,128.5C 132.758,125.928 131.425,124.261 129,123.5C 127.263,124.62 125.429,125.62 123.5,126.5C 120.36,124.175 117.026,124.008 113.5,126C 114.357,126.689 115.023,127.522 115.5,128.5C 113.607,133.511 111.941,138.511 110.5,143.5C 112.5,143.5 114.5,143.5 116.5,143.5C 118.52,137.797 121.353,132.464 125,127.5C 124.087,132.766 123.254,138.1 122.5,143.5C 124.167,143.5 125.833,143.5 127.5,143.5C 122.089,144.062 116.756,145.062 111.5,146.5C 108.449,153.459 102.949,156.792 95,156.5C 88.1185,156.997 83.9518,153.997 82.5,147.5C 76.9518,148.457 73.7851,146.123 73,140.5C 71.3704,143.298 69.5371,145.965 67.5,148.5C 63.2827,151.486 59.4494,151.153 56,147.5C 54.5399,140.785 52.8732,134.119 51,127.5C 47.4904,116.142 40.8237,107.142 31,100.5C 29.5962,98.6061 28.4295,96.6061 27.5,94.5C 28.0096,92.9121 29.0096,91.7455 30.5,91C 34.3286,90.2424 37.6619,91.2424 40.5,94C 46.7888,103.398 53.4554,112.565 60.5,121.5C 64.0326,111.405 67.8659,101.405 72,91.5C 74.7969,87.7012 77.9636,84.2012 81.5,81C 89.849,74.9127 99.1824,72.5794 109.5,74C 111.223,74.5232 112.556,75.5232 113.5,77C 113.167,77.5 112.833,78 112.5,78.5C 104.129,80.3455 96.9626,84.3455 91,90.5C 86.7623,97.3826 83.5956,104.716 81.5,112.5C 91.0138,111.323 94.0138,114.989 90.5,123.5C 91.8244,124.687 92.8244,124.354 93.5,122.5C 95.1667,122.167 96.8333,121.833 98.5,121.5C 114.193,121.258 129.527,121.258 144.5,121.5C 144.565,123.696 145.232,125.696 146.5,127.5C 147.982,125.517 149.649,123.684 151.5,122C 162.925,120.463 174.259,119.797 185.5,120C 186.931,120.465 188.097,121.299 189,122.5C 191.156,130.167 188.322,133.834 180.5,133.5C 180.122,135.921 179.455,138.254 178.5,140.5 Z"/></g>
<g><path style="opacity:1" fill="#131116" d="M 82.5,114.5 C 89.0844,114.004 90.751,116.504 87.5,122C 81.5933,122.746 79.9267,120.246 82.5,114.5 Z"/></g>
<g><path style="opacity:1" fill="#0f0e12" d="M 97.5,76.5 C 99.604,76.2011 101.604,76.5344 103.5,77.5C 98.9504,79.4473 94.6171,81.9473 90.5,85C 88,88.8333 85.5,92.6667 83,96.5C 77.5771,110.973 72.9104,125.64 69,140.5C 66.5926,144.453 63.0926,146.453 58.5,146.5C 57.4554,135.532 54.2888,125.199 49,115.5C 46.6882,111.53 44.0216,107.863 41,104.5C 37.0195,101.687 33.5195,98.3532 30.5,94.5C 31.723,93.3861 33.0563,93.2195 34.5,94C 36.3884,96.1896 38.5551,98.0229 41,99.5C 48.8523,109.217 55.6856,119.551 61.5,130.5C 64.9829,116.545 69.9829,103.212 76.5,90.5C 82.1395,83.5325 89.1395,78.8658 97.5,76.5 Z"/></g>
<g><path style="opacity:1" fill="#8f8b95" d="M 174.5,123.5 C 173.391,124.29 172.058,124.79 170.5,125C 172.359,125.601 172.692,126.434 171.5,127.5C 170.194,126.533 169.527,125.199 169.5,123.5C 171.167,123.5 172.833,123.5 174.5,123.5 Z"/></g>
<g><path style="opacity:1" fill="#17141a" d="M 143.5,139.5 C 141.456,140.031 139.789,141.198 138.5,143C 137.207,143.49 135.873,143.657 134.5,143.5C 133.459,138.68 134.126,134.013 136.5,129.5C 136.167,129.167 135.833,128.833 135.5,128.5C 131.083,132.579 128.416,137.579 127.5,143.5C 125.833,143.5 124.167,143.5 122.5,143.5C 123.254,138.1 124.087,132.766 125,127.5C 121.353,132.464 118.52,137.797 116.5,143.5C 114.5,143.5 112.5,143.5 110.5,143.5C 111.941,138.511 113.607,133.511 115.5,128.5C 115.023,127.522 114.357,126.689 113.5,126C 117.026,124.008 120.36,124.175 123.5,126.5C 125.429,125.62 127.263,124.62 129,123.5C 131.425,124.261 132.758,125.928 133,128.5C 135.239,125.038 138.406,123.705 142.5,124.5C 142.206,129.175 141.206,133.675 139.5,138C 140.549,138.492 141.549,138.326 142.5,137.5C 143.298,137.957 143.631,138.624 143.5,139.5 Z"/></g>
<g><path style="opacity:1" fill="#151419" d="M 162.5,137.5 C 161.957,137.56 161.624,137.893 161.5,138.5C 162.602,139.176 163.602,139.842 164.5,140.5C 162.787,142.85 160.453,143.85 157.5,143.5C 157.483,141.435 157.15,139.435 156.5,137.5C 157.167,135.167 157.833,132.833 158.5,130.5C 159.451,129.081 159.784,127.415 159.5,125.5C 157.821,125.285 156.821,125.952 156.5,127.5C 153.222,130.322 151.889,133.988 152.5,138.5C 153.167,139.167 153.833,139.833 154.5,140.5C 147.612,145.329 144.612,143.329 145.5,134.5C 147.66,130.391 150.66,126.891 154.5,124C 157.896,124.222 161.23,124.055 164.5,123.5C 165.5,123.833 166.5,124.167 167.5,124.5C 165.308,128.671 163.642,133.004 162.5,137.5 Z"/></g>
<g><path style="opacity:1" fill="#a2a0a7" d="M 158.5,130.5 C 158.657,129.127 158.49,127.793 158,126.5C 157.617,127.056 157.117,127.389 156.5,127.5C 156.821,125.952 157.821,125.285 159.5,125.5C 159.784,127.415 159.451,129.081 158.5,130.5 Z"/></g>
<g><path style="opacity:1" fill="#151318" d="M 174.5,142.5 C 172.5,142.5 170.5,142.5 168.5,142.5C 168.517,140.435 168.85,138.435 169.5,136.5C 170.924,134.485 171.59,132.152 171.5,129.5C 171.5,128.833 171.5,128.167 171.5,127.5C 172.692,126.434 172.359,125.601 170.5,125C 172.058,124.79 173.391,124.29 174.5,123.5C 175.708,122.766 177.041,122.433 178.5,122.5C 177.477,128.945 178.477,129.112 181.5,123C 184.237,121.92 185.904,122.754 186.5,125.5C 185.972,128.729 184.305,129.729 181.5,128.5C 177.051,132.065 174.718,136.731 174.5,142.5 Z"/></g>
<g><path style="opacity:1" fill="#e6e4ea" d="M 158.5,130.5 C 157.833,132.833 157.167,135.167 156.5,137.5C 155.292,138.234 153.959,138.567 152.5,138.5C 151.889,133.988 153.222,130.322 156.5,127.5C 157.117,127.389 157.617,127.056 158,126.5C 158.49,127.793 158.657,129.127 158.5,130.5 Z"/></g>
<g><path style="opacity:1" fill="#504d54" d="M 171.5,129.5 C 171.59,132.152 170.924,134.485 169.5,136.5C 169.41,133.848 170.076,131.515 171.5,129.5 Z"/></g>
<g><path style="opacity:1" fill="#e3dce5" d="M 134.5,143.5 C 132.167,143.5 129.833,143.5 127.5,143.5C 128.416,137.579 131.083,132.579 135.5,128.5C 135.833,128.833 136.167,129.167 136.5,129.5C 134.126,134.013 133.459,138.68 134.5,143.5 Z"/></g>
<g><path style="opacity:1" fill="#141218" d="M 77.5,125.5 C 80.5719,125.183 83.5719,125.516 86.5,126.5C 85.3047,130.389 83.9714,134.222 82.5,138C 82.8333,138.833 83.1667,139.667 83.5,140.5C 84.451,139.674 85.451,139.508 86.5,140C 84.1966,143.766 81.0299,144.933 77,143.5C 77.1762,138.611 78.0096,133.778 79.5,129C 78.5705,127.923 77.9038,126.756 77.5,125.5 Z"/></g>
<g><path style="opacity:1" fill="#939099" d="M 102.5,137.5 C 100.167,138.167 97.8333,138.833 95.5,139.5C 94.9569,139.44 94.6236,139.107 94.5,138.5C 97.0865,137.52 99.7531,137.187 102.5,137.5 Z"/></g>
<g><path style="opacity:1" fill="#151318" d="M 102.5,137.5 C 99.7531,137.187 97.0865,137.52 94.5,138.5C 94.6236,139.107 94.9569,139.44 95.5,139.5C 98.5424,140.91 101.709,142.243 105,143.5C 106.379,147.475 105.213,150.309 101.5,152C 97.5,152.667 93.5,152.667 89.5,152C 85.2354,150.8 84.5688,148.633 87.5,145.5C 88.325,144.614 89.325,144.281 90.5,144.5C 90.2436,146.792 90.5769,148.959 91.5,151C 94.1667,151.667 96.8333,151.667 99.5,151C 100.833,149.333 100.833,147.667 99.5,146C 96.9556,144.908 94.2889,144.241 91.5,144C 90.4258,143.261 89.7591,142.261 89.5,141C 90.2887,139.374 91.2887,137.874 92.5,136.5C 88.8023,129.169 91.1356,125.169 99.5,124.5C 103.191,125.021 106.857,125.688 110.5,126.5C 107.705,127.248 107.038,128.748 108.5,131C 107.647,134.253 105.647,136.42 102.5,137.5 Z"/></g>
<g><path style="opacity:1" fill="#d9d6dd" d="M 98.5,126.5 C 99.8333,126.5 101.167,126.5 102.5,126.5C 103.518,131.749 101.518,134.749 96.5,135.5C 96.2069,132.246 96.8736,129.246 98.5,126.5 Z"/></g>
<g><path style="opacity:1" fill="#f3ecea" d="M 172.5,156.5 C 159.144,156.715 145.811,156.382 132.5,155.5C 127.348,153.924 122.014,152.757 116.5,152C 113.887,150.893 112.22,149.06 111.5,146.5C 116.756,145.062 122.089,144.062 127.5,143.5C 129.833,143.5 132.167,143.5 134.5,143.5C 135.873,143.657 137.207,143.49 138.5,143C 139.789,141.198 141.456,140.031 143.5,139.5C 144.097,139.265 144.43,138.765 144.5,138C 141.543,135.816 141.877,134.649 145.5,134.5C 144.612,143.329 147.612,145.329 154.5,140.5C 155.9,141.1 156.9,142.1 157.5,143.5C 160.453,143.85 162.787,142.85 164.5,140.5C 165.167,140.167 165.833,139.833 166.5,139.5C 167.434,140.568 167.768,141.901 167.5,143.5C 170.059,143.802 172.393,143.468 174.5,142.5C 175.833,141.833 177.167,141.167 178.5,140.5C 178.369,141.376 178.702,142.043 179.5,142.5C 188.202,139.45 195.869,134.783 202.5,128.5C 206.149,129.539 207.316,131.872 206,135.5C 197.467,146.898 186.3,153.898 172.5,156.5 Z"/></g>
<g><path style="opacity:1" fill="#e42c31" d="M 195.5,138.5 C 196.833,138.5 197.5,139.167 197.5,140.5C 195.178,142.664 192.511,144.331 189.5,145.5C 186.918,145.975 184.918,145.308 183.5,143.5C 184.167,143.5 184.833,143.5 185.5,143.5C 189.684,143.408 193.017,141.741 195.5,138.5 Z"/></g>
<g><path style="opacity:1" fill="#c74947" d="M 195.5,138.5 C 193.017,141.741 189.684,143.408 185.5,143.5C 188.48,141.243 191.813,139.577 195.5,138.5 Z"/></g>
<g><path style="opacity:1" fill="#615e67" d="M 156.5,137.5 C 157.15,139.435 157.483,141.435 157.5,143.5C 156.9,142.1 155.9,141.1 154.5,140.5C 153.833,139.833 153.167,139.167 152.5,138.5C 153.959,138.567 155.292,138.234 156.5,137.5 Z"/></g>
<g><path style="opacity:1" fill="#4d4a51" d="M 162.5,137.5 C 163.313,138.653 164.313,138.653 165.5,137.5C 166.298,137.957 166.631,138.624 166.5,139.5C 165.833,139.833 165.167,140.167 164.5,140.5C 163.602,139.842 162.602,139.176 161.5,138.5C 161.624,137.893 161.957,137.56 162.5,137.5 Z"/></g>
<g><path style="opacity:1" fill="#df4956" d="M 197.5,140.5 C 197.5,139.167 196.833,138.5 195.5,138.5C 196.96,136.537 198.627,134.704 200.5,133C 201.635,132.251 202.635,132.417 203.5,133.5C 202.192,136.464 200.192,138.797 197.5,140.5 Z"/></g>
<g><path style="opacity:1" fill="#d5504c" d="M 183.5,143.5 C 184.918,145.308 186.918,145.975 189.5,145.5C 187.777,147.218 185.777,148.551 183.5,149.5C 183.414,148.504 183.748,147.671 184.5,147C 180.37,146.305 176.37,146.805 172.5,148.5C 170.793,148.272 169.126,147.938 167.5,147.5C 172.581,145.593 177.914,144.259 183.5,143.5 Z"/></g>
<g><path style="opacity:1" fill="#e23031" d="M 183.5,149.5 C 181.784,149.629 180.117,149.962 178.5,150.5C 166.892,151.962 155.225,152.628 143.5,152.5C 141.5,152.5 139.5,152.5 137.5,152.5C 134.423,151.144 131.09,150.311 127.5,150C 138.341,149.83 149.008,149.33 159.5,148.5C 161.948,147.527 164.615,147.194 167.5,147.5C 169.126,147.938 170.793,148.272 172.5,148.5C 176.37,146.805 180.37,146.305 184.5,147C 183.748,147.671 183.414,148.504 183.5,149.5 Z"/></g>
<g><path style="opacity:1" fill="#e26d6f" d="M 159.5,148.5 C 149.008,149.33 138.341,149.83 127.5,150C 131.09,150.311 134.423,151.144 137.5,152.5C 129.973,152.143 122.64,150.81 115.5,148.5C 117.167,148.167 118.833,147.833 120.5,147.5C 133.483,148.401 146.483,148.735 159.5,148.5 Z"/></g>
<g><path style="opacity:1" fill="#ce4141" d="M 178.5,150.5 C 175.678,151.507 172.678,152.34 169.5,153C 160.657,153.824 151.99,153.657 143.5,152.5C 155.225,152.628 166.892,151.962 178.5,150.5 Z"/></g>
<g><path style="opacity:1" fill="#b8b2b8" d="M 132.5,155.5 C 145.811,156.382 159.144,156.715 172.5,156.5C 174.167,156.5 175.833,156.5 177.5,156.5C 161.506,159.056 145.506,159.056 129.5,156.5C 130.791,156.737 131.791,156.404 132.5,155.5 Z"/></g>
</svg>
