<?xml version="1.0" encoding="UTF-8"?>
<!DOCTYPE svg PUBLIC "-//W3C//DTD SVG 1.1//EN" "http://www.w3.org/Graphics/SVG/1.1/DTD/svg11.dtd">
<svg xmlns="http://www.w3.org/2000/svg" version="1.1" width="530px" height="95px" style="shape-rendering:geometricPrecision; text-rendering:geometricPrecision; image-rendering:optimizeQuality; fill-rule:evenodd; clip-rule:evenodd" xmlns:xlink="http://www.w3.org/1999/xlink">
<g><path style="opacity:1" fill="#da161e" d="M -0.5,-0.5 C 176.167,-0.5 352.833,-0.5 529.5,-0.5C 529.5,0.166667 529.5,0.833333 529.5,1.5C 352.833,1.5 176.167,1.5 -0.5,1.5C -0.5,0.833333 -0.5,0.166667 -0.5,-0.5 Z"/></g>
<g><path style="opacity:1" fill="#d02427" d="M -0.5,1.5 C 176.167,1.5 352.833,1.5 529.5,1.5C 529.5,2.83333 529.5,4.16667 529.5,5.5C 352.833,5.5 176.167,5.5 -0.5,5.5C -0.5,4.16667 -0.5,2.83333 -0.5,1.5 Z"/></g>
<g><path style="opacity:1" fill="#fafafa" d="M -0.5,5.5 C 176.167,5.5 352.833,5.5 529.5,5.5C 529.5,12.8333 529.5,20.1667 529.5,27.5C 517.913,27.0427 509.079,31.7094 503,41.5C 500.213,46.739 497.713,52.0724 495.5,57.5C 477.91,56.5143 460.243,56.181 442.5,56.5C 442.665,59.5184 442.498,62.5184 442,65.5C 441.5,58.8417 441.334,52.175 441.5,45.5C 442.711,40.3757 446.044,38.0424 451.5,38.5C 456.291,30.4961 453.958,27.6628 444.5,30C 442.622,31.5429 441.122,33.3762 440,35.5C 439.506,33.8659 439.34,32.1992 439.5,30.5C 435.366,29.5151 431.032,29.1818 426.5,29.5C 426.5,41.1667 426.5,52.8333 426.5,64.5C 425.695,58.9975 425.029,53.3308 424.5,47.5C 425.54,41.19 425.707,34.8566 425,28.5C 422,28.1667 419,27.8333 416,27.5C 415.544,28.7441 416.044,29.5774 417.5,30C 416.906,30.4643 416.239,30.631 415.5,30.5C 408.261,28.3065 400.928,27.9731 393.5,29.5C 391.983,29.4894 390.816,28.8228 390,27.5C 384.473,27.8875 378.806,27.8875 373,27.5C 372.333,28.1667 371.667,28.8333 371,29.5C 369.644,28.6198 368.144,28.2865 366.5,28.5C 360.773,28.2598 355.106,28.5931 349.5,29.5C 348.761,29.631 348.094,29.4643 347.5,29C 348.696,28.3457 348.696,27.8457 347.5,27.5C 341.833,27.5 336.167,27.5 330.5,27.5C 329.304,27.8457 329.304,28.3457 330.5,29C 329.906,29.4643 329.239,29.631 328.5,29.5C 321.503,27.1035 315.67,28.7701 311,34.5C 310.506,32.8659 310.34,31.1992 310.5,29.5C 306.167,29.5 301.833,29.5 297.5,29.5C 297.5,41.1667 297.5,52.8333 297.5,64.5C 297.5,64.8333 297.5,65.1667 297.5,65.5C 296.669,53.0066 296.169,40.34 296,27.5C 292,27.5 288,27.5 284,27.5C 283.544,28.7441 284.044,29.5774 285.5,30C 285.272,30.3988 284.938,30.5654 284.5,30.5C 277.563,28.4491 270.563,28.1158 263.5,29.5C 261.983,29.4894 260.816,28.8228 260,27.5C 256.667,28.8333 253.333,28.8333 250,27.5C 249.667,40.1667 249.333,52.8333 249,65.5C 248.5,53.1712 248.333,40.8378 248.5,28.5C 240.157,28.4263 232.657,28.0929 226,27.5C 225.583,28.756 224.75,29.4226 223.5,29.5C 217.537,28.4696 211.537,28.3029 205.5,29C 203.253,30.2775 201.253,31.7775 199.5,33.5C 198.957,33.44 198.624,33.1067 198.5,32.5C 200.139,31.084 200.973,29.4174 201,27.5C 198.889,27.5773 196.889,27.9106 195,28.5C 194.667,36.5 194.333,44.5 194,52.5C 193.829,44.6557 193.329,36.989 192.5,29.5C 188.167,29.5 183.833,29.5 179.5,29.5C 178.674,33.9819 178.174,38.6486 178,43.5C 177.696,39.4517 177.196,35.4517 176.5,31.5C 174.777,30.1999 172.61,29.5332 170,29.5C 167.639,29.5039 165.473,29.8373 163.5,30.5C 162.883,30.6107 162.383,30.944 162,31.5C 162,30.1667 162,28.8333 162,27.5C 154.615,27.9373 145.782,28.2707 135.5,28.5C 135.318,33.7937 134.818,33.7937 134,28.5C 133.282,27.5494 132.449,27.3828 131.5,28C 131.79,29.478 131.79,30.978 131.5,32.5C 124.938,22.5523 115.605,17.8857 103.5,18.5C 83.2359,24.024 75.5692,37.024 80.5,57.5C 79.8897,59.8503 79.5563,59.517 79.5,56.5C 67.4197,56.1881 55.4197,56.5214 43.5,57.5C 34.5424,39.221 19.8757,29.221 -0.5,27.5C -0.5,20.1667 -0.5,12.8333 -0.5,5.5 Z"/></g>
<g><path style="opacity:1" fill="#d65151" d="M 103.5,18.5 C 105.167,19.1667 106.833,19.8333 108.5,20.5C 88.7211,21.3799 79.5544,31.7133 81,51.5C 83.2642,62.9311 90.0975,69.9311 101.5,72.5C 101.158,73.3382 100.492,73.6716 99.5,73.5C 90.6903,71.0174 84.357,65.684 80.5,57.5C 75.5692,37.024 83.2359,24.024 103.5,18.5 Z"/></g>
<g><path style="opacity:1" fill="#010101" d="M 441.5,45.5 C 440.51,51.6446 440.177,57.9779 440.5,64.5C 436.167,64.5 431.833,64.5 427.5,64.5C 427.5,53.1667 427.5,41.8333 427.5,30.5C 431.5,30.5 435.5,30.5 439.5,30.5C 439.34,32.1992 439.506,33.8659 440,35.5C 441.122,33.3762 442.622,31.5429 444.5,30C 453.958,27.6628 456.291,30.4961 451.5,38.5C 446.044,38.0424 442.711,40.3757 441.5,45.5 Z"/></g>
<g><path style="opacity:1" fill="#636363" d="M 439.5,30.5 C 435.5,30.5 431.5,30.5 427.5,30.5C 427.5,41.8333 427.5,53.1667 427.5,64.5C 427.167,64.5 426.833,64.5 426.5,64.5C 426.5,52.8333 426.5,41.1667 426.5,29.5C 431.032,29.1818 435.366,29.5151 439.5,30.5 Z"/></g>
<g><path style="opacity:1" fill="#f5e9e9" d="M 108.5,20.5 C 126.746,23.7072 134.746,34.3739 132.5,52.5C 131.833,49.5 131.167,46.5 130.5,43.5C 129.571,34.3918 124.904,27.8918 116.5,24C 108.529,21.5252 100.862,22.1919 93.5,26C 92.2899,27.0391 91.2899,28.2058 90.5,29.5C 92.6089,28.6091 94.6089,27.4424 96.5,26C 98.74,25.023 101.073,24.523 103.5,24.5C 100.581,26.2006 97.2478,28.3673 93.5,31C 94.7932,31.49 96.1266,31.6567 97.5,31.5C 98.1667,31.8333 98.8333,32.1667 99.5,32.5C 101.72,37.2717 104.22,41.9384 107,46.5C 110.191,41.4356 113.358,36.4356 116.5,31.5C 118.833,31.5 121.167,31.5 123.5,31.5C 123.5,32.1667 123.5,32.8333 123.5,33.5C 119.734,39.5208 116.067,45.6874 112.5,52C 115.824,52.9428 119.157,53.7761 122.5,54.5C 123.514,55.6737 124.847,56.3404 126.5,56.5C 126.5,57.1667 126.833,57.5 127.5,57.5C 128.906,57.0269 129.573,56.0269 129.5,54.5C 130.925,52.9689 131.591,53.3023 131.5,55.5C 128.328,64.6027 121.994,70.2694 112.5,72.5C 108.833,72.5 105.167,72.5 101.5,72.5C 90.0975,69.9311 83.2642,62.9311 81,51.5C 79.5544,31.7133 88.7211,21.3799 108.5,20.5 Z"/></g>
<g><path style="opacity:1" fill="#db444e" d="M 116.5,31.5 C 113.358,36.4356 110.191,41.4356 107,46.5C 104.22,41.9384 101.72,37.2717 99.5,32.5C 103.706,30.6509 108.04,28.9842 112.5,27.5C 115.006,27.2207 117.006,28.0541 118.5,30C 117.584,30.2784 116.918,30.7784 116.5,31.5 Z"/></g>
<g><path style="opacity:1" fill="#e76481" d="M 110.5,24.5 C 115.884,25.0233 120.218,27.3566 123.5,31.5C 121.167,31.5 118.833,31.5 116.5,31.5C 116.918,30.7784 117.584,30.2784 118.5,30C 117.006,28.0541 115.006,27.2207 112.5,27.5C 108.04,28.9842 103.706,30.6509 99.5,32.5C 98.8333,32.1667 98.1667,31.8333 97.5,31.5C 97.9528,30.5416 98.6195,29.7083 99.5,29C 103.157,27.1776 106.824,25.6776 110.5,24.5 Z"/></g>
<g><path style="opacity:1" fill="#d23c40" d="M 130.5,43.5 C 130.665,46.5184 130.498,49.5184 130,52.5C 129.502,49.1832 129.335,45.8499 129.5,42.5C 128.787,38.0707 126.787,34.404 123.5,31.5C 120.218,27.3566 115.884,25.0233 110.5,24.5C 108.059,23.2437 105.726,23.2437 103.5,24.5C 101.073,24.523 98.74,25.023 96.5,26C 94.6089,27.4424 92.6089,28.6091 90.5,29.5C 91.2899,28.2058 92.2899,27.0391 93.5,26C 100.862,22.1919 108.529,21.5252 116.5,24C 124.904,27.8918 129.571,34.3918 130.5,43.5 Z"/></g>
<g><path style="opacity:1" fill="#ed95ad" d="M 103.5,24.5 C 105.726,23.2437 108.059,23.2437 110.5,24.5C 106.824,25.6776 103.157,27.1776 99.5,29C 98.6195,29.7083 97.9528,30.5416 97.5,31.5C 96.1266,31.6567 94.7932,31.49 93.5,31C 97.2478,28.3673 100.581,26.2006 103.5,24.5 Z"/></g>
<g><path style="opacity:1" fill="#b6b6b5" d="M -0.5,27.5 C 19.8757,29.221 34.5424,39.221 43.5,57.5C 47.2363,65.3067 51.7363,72.64 57,79.5C 60.6299,83.0615 64.7965,85.7281 69.5,87.5C 66.7473,88.6586 64.0806,88.1586 61.5,86C 58.3699,83.872 55.5366,81.372 53,78.5C 46.3333,67.8333 39.6667,57.1667 33,46.5C 23.9869,36.7441 12.8202,31.4108 -0.5,30.5C -0.5,29.5 -0.5,28.5 -0.5,27.5 Z"/></g>
<g><path style="opacity:1" fill="#fdfdfd" d="M -0.5,34.5 C 13.7138,35.5645 24.8805,41.8978 33,53.5C 38.2485,63.67 44.2485,73.3366 51,82.5C 56.2533,88.7015 62.7533,92.7015 70.5,94.5C 46.8333,94.5 23.1667,94.5 -0.5,94.5C -0.5,74.5 -0.5,54.5 -0.5,34.5 Z"/></g>
<g><path style="opacity:1" fill="#fcfcfc" d="M 529.5,33.5 C 529.5,53.8333 529.5,74.1667 529.5,94.5C 509.5,94.5 489.5,94.5 469.5,94.5C 471.827,92.8417 474.161,91.175 476.5,89.5C 485.403,85.0986 492.237,78.4319 497,69.5C 501.424,59.5389 506.591,49.8722 512.5,40.5C 515.132,39.036 517.632,37.3693 520,35.5C 523.137,34.6394 526.303,33.9728 529.5,33.5 Z"/></g>
<g><path style="opacity:1" fill="#de4f5c" d="M 90.5,29.5 C 87.7256,32.7133 85.7256,36.38 84.5,40.5C 82.5898,50.7739 83.9231,51.1072 88.5,41.5C 90.1856,40.1431 91.8523,38.8098 93.5,37.5C 96.0752,41.647 98.4085,45.9803 100.5,50.5C 95.4206,52.5381 90.4206,54.8714 85.5,57.5C 81.442,49.4826 81.6086,41.4826 86,33.5C 87.3073,31.8082 88.8073,30.4749 90.5,29.5 Z"/></g>
<g><path style="opacity:1" fill="#ededed" d="M 163.5,30.5 C 161.473,37.2737 159.14,43.9404 156.5,50.5C 154.169,43.8506 151.836,37.184 149.5,30.5C 145.167,29.1667 140.833,29.1667 136.5,30.5C 140.634,41.568 144.968,52.568 149.5,63.5C 153.833,64.8333 158.167,64.8333 162.5,63.5C 166.668,52.5093 171.334,41.8427 176.5,31.5C 177.196,35.4517 177.696,39.4517 178,43.5C 178.174,38.6486 178.674,33.9819 179.5,29.5C 179.5,41.1667 179.5,52.8333 179.5,64.5C 183.833,64.5 188.167,64.5 192.5,64.5C 192.5,52.8333 192.5,41.1667 192.5,29.5C 193.329,36.989 193.829,44.6557 194,52.5C 194.333,44.5 194.667,36.5 195,28.5C 196.889,27.9106 198.889,27.5773 201,27.5C 200.973,29.4174 200.139,31.084 198.5,32.5C 198.624,33.1067 198.957,33.44 199.5,33.5C 197.125,40.2211 199.125,45.0544 205.5,48C 209.905,49.1351 214.238,50.4685 218.5,52C 220.324,56.0216 218.991,58.1882 214.5,58.5C 211.046,58.1049 208.713,56.2716 207.5,53C 204.183,52.5017 200.85,52.335 197.5,52.5C 198.544,61.8626 203.878,66.196 213.5,65.5C 218.075,65.2531 222.408,64.0865 226.5,62C 232.091,55.6361 231.757,49.6361 225.5,44C 220.915,42.4155 216.248,41.0822 211.5,40C 207.368,37.2331 207.868,35.3998 213,34.5C 215.818,34.4914 217.652,35.8248 218.5,38.5C 222.167,39.8333 225.833,39.8333 229.5,38.5C 228.578,34.6403 226.578,31.6403 223.5,29.5C 224.75,29.4226 225.583,28.756 226,27.5C 232.657,28.0929 240.157,28.4263 248.5,28.5C 248.333,40.8378 248.5,53.1712 249,65.5C 249.333,52.8333 249.667,40.1667 250,27.5C 253.333,28.8333 256.667,28.8333 260,27.5C 260.816,28.8228 261.983,29.4894 263.5,29.5C 253.78,34.6181 250.28,42.6181 253,53.5C 256.519,62.1611 263.019,66.1611 272.5,65.5C 288.08,65.0809 294.913,57.0809 293,41.5C 291.102,37.0022 288.269,33.3355 284.5,30.5C 284.938,30.5654 285.272,30.3988 285.5,30C 284.044,29.5774 283.544,28.7441 284,27.5C 288,27.5 292,27.5 296,27.5C 296.169,40.34 296.669,53.0066 297.5,65.5C 302.167,65.5 306.833,65.5 311.5,65.5C 311.5,58.5 311.5,51.5 311.5,44.5C 312.385,40.2164 315.051,38.7164 319.5,40C 320,40.5 320.5,41 321,41.5C 321.5,49.1594 321.666,56.8261 321.5,64.5C 325.97,65.4861 330.637,65.8195 335.5,65.5C 335.827,55.985 335.494,46.6517 334.5,37.5C 333.615,33.9545 331.615,31.2878 328.5,29.5C 329.239,29.631 329.906,29.4643 330.5,29C 329.304,28.3457 329.304,27.8457 330.5,27.5C 336.167,27.5 341.833,27.5 347.5,27.5C 348.696,27.8457 348.696,28.3457 347.5,29C 348.094,29.4643 348.761,29.631 349.5,29.5C 340.894,34.7336 337.727,42.4003 340,52.5C 341.436,58.8704 345.269,63.037 351.5,65C 358.715,66.113 365.715,65.4463 372.5,63C 375.07,60.9327 377.07,58.4327 378.5,55.5C 374.205,54.3391 369.871,54.1725 365.5,55C 361.524,58.4329 357.691,58.2663 354,54.5C 353.51,53.2068 353.343,51.8734 353.5,50.5C 362.167,50.5 370.833,50.5 379.5,50.5C 380.751,39.6451 376.418,32.3118 366.5,28.5C 368.144,28.2865 369.644,28.6198 371,29.5C 371.667,28.8333 372.333,28.1667 373,27.5C 378.806,27.8875 384.473,27.8875 390,27.5C 390.816,28.8228 391.983,29.4894 393.5,29.5C 385.014,34.7559 381.847,42.4225 384,52.5C 385.436,58.8704 389.269,63.037 395.5,65C 407.416,68.356 416.75,65.0227 423.5,55C 417.508,53.8279 411.841,54.4946 406.5,57C 400.81,58.4701 397.81,56.3034 397.5,50.5C 406.167,50.5 414.833,50.5 423.5,50.5C 424.659,42.1698 421.992,35.5031 415.5,30.5C 416.239,30.631 416.906,30.4643 417.5,30C 416.044,29.5774 415.544,28.7441 416,27.5C 419,27.8333 422,28.1667 425,28.5C 425.707,34.8566 425.54,41.19 424.5,47.5C 425.029,53.3308 425.695,58.9975 426.5,64.5C 426.833,64.5 427.167,64.5 427.5,64.5C 431.833,64.5 436.167,64.5 440.5,64.5C 440.177,57.9779 440.51,51.6446 441.5,45.5C 441.334,52.175 441.5,58.8417 442,65.5C 442.498,62.5184 442.665,59.5184 442.5,56.5C 460.243,56.181 477.91,56.5143 495.5,57.5C 491.016,67.6261 484.682,76.4594 476.5,84C 473.382,85.893 470.049,87.2264 466.5,88C 335.167,88.5 203.834,88.6667 72.5,88.5C 71.791,87.596 70.791,87.2627 69.5,87.5C 64.7965,85.7281 60.6299,83.0615 57,79.5C 51.7363,72.64 47.2363,65.3067 43.5,57.5C 55.4197,56.5214 67.4197,56.1881 79.5,56.5C 79.5563,59.517 79.8897,59.8503 80.5,57.5C 84.357,65.684 90.6903,71.0174 99.5,73.5C 104.5,74.8333 109.5,74.8333 114.5,73.5C 131.166,67.1756 137.666,55.1756 134,37.5C 133.153,35.8068 132.32,34.1401 131.5,32.5C 131.79,30.978 131.79,29.478 131.5,28C 132.449,27.3828 133.282,27.5494 134,28.5C 134.818,33.7937 135.318,33.7937 135.5,28.5C 145.782,28.2707 154.615,27.9373 162,27.5C 162,28.8333 162,30.1667 162,31.5C 162.383,30.944 162.883,30.6107 163.5,30.5 Z"/></g>
<g><path style="opacity:1" fill="#040404" d="M 328.5,29.5 C 331.615,31.2878 333.615,33.9545 334.5,37.5C 334.5,46.5 334.5,55.5 334.5,64.5C 330.167,64.5 325.833,64.5 321.5,64.5C 321.666,56.8261 321.5,49.1594 321,41.5C 320.5,41 320,40.5 319.5,40C 315.051,38.7164 312.385,40.2164 311.5,44.5C 310.509,50.979 310.176,57.6457 310.5,64.5C 306.167,64.5 301.833,64.5 297.5,64.5C 297.5,52.8333 297.5,41.1667 297.5,29.5C 301.833,29.5 306.167,29.5 310.5,29.5C 310.34,31.1992 310.506,32.8659 311,34.5C 315.67,28.7701 321.503,27.1035 328.5,29.5 Z"/></g>
<g><path style="opacity:1" fill="#050505" d="M 284.5,30.5 C 288.269,33.3355 291.102,37.0022 293,41.5C 294.913,57.0809 288.08,65.0809 272.5,65.5C 263.019,66.1611 256.519,62.1611 253,53.5C 250.28,42.6181 253.78,34.6181 263.5,29.5C 270.563,28.1158 277.563,28.4491 284.5,30.5 Z"/></g>
<g><path style="opacity:1" fill="#020202" d="M 234.5,29.5 C 238.833,29.5 243.167,29.5 247.5,29.5C 247.5,41.1667 247.5,52.8333 247.5,64.5C 243.167,64.5 238.833,64.5 234.5,64.5C 234.5,52.8333 234.5,41.1667 234.5,29.5 Z"/></g>
<g><path style="opacity:1" fill="#020202" d="M 179.5,29.5 C 183.833,29.5 188.167,29.5 192.5,29.5C 192.5,41.1667 192.5,52.8333 192.5,64.5C 188.167,64.5 183.833,64.5 179.5,64.5C 179.5,52.8333 179.5,41.1667 179.5,29.5 Z"/></g>
<g><path style="opacity:1" fill="#060606" d="M 163.5,30.5 C 165.473,29.8373 167.639,29.5039 170,29.5C 172.61,29.5332 174.777,30.1999 176.5,31.5C 171.334,41.8427 166.668,52.5093 162.5,63.5C 158.167,64.8333 153.833,64.8333 149.5,63.5C 144.968,52.568 140.634,41.568 136.5,30.5C 140.833,29.1667 145.167,29.1667 149.5,30.5C 151.836,37.184 154.169,43.8506 156.5,50.5C 159.14,43.9404 161.473,37.2737 163.5,30.5 Z"/></g>
<g><path style="opacity:1" fill="#070707" d="M 415.5,30.5 C 421.992,35.5031 424.659,42.1698 423.5,50.5C 414.833,50.5 406.167,50.5 397.5,50.5C 397.81,56.3034 400.81,58.4701 406.5,57C 411.841,54.4946 417.508,53.8279 423.5,55C 416.75,65.0227 407.416,68.356 395.5,65C 389.269,63.037 385.436,58.8704 384,52.5C 381.847,42.4225 385.014,34.7559 393.5,29.5C 400.928,27.9731 408.261,28.3065 415.5,30.5 Z"/></g>
<g><path style="opacity:1" fill="#070707" d="M 366.5,28.5 C 376.418,32.3118 380.751,39.6451 379.5,50.5C 370.833,50.5 362.167,50.5 353.5,50.5C 353.343,51.8734 353.51,53.2068 354,54.5C 357.691,58.2663 361.524,58.4329 365.5,55C 369.871,54.1725 374.205,54.3391 378.5,55.5C 377.07,58.4327 375.07,60.9327 372.5,63C 365.715,65.4463 358.715,66.113 351.5,65C 345.269,63.037 341.436,58.8704 340,52.5C 337.727,42.4003 340.894,34.7336 349.5,29.5C 355.106,28.5931 360.773,28.2598 366.5,28.5 Z"/></g>
<g><path style="opacity:1" fill="#070707" d="M 223.5,29.5 C 226.578,31.6403 228.578,34.6403 229.5,38.5C 225.833,39.8333 222.167,39.8333 218.5,38.5C 217.652,35.8248 215.818,34.4914 213,34.5C 207.868,35.3998 207.368,37.2331 211.5,40C 216.248,41.0822 220.915,42.4155 225.5,44C 231.757,49.6361 232.091,55.6361 226.5,62C 222.408,64.0865 218.075,65.2531 213.5,65.5C 203.878,66.196 198.544,61.8626 197.5,52.5C 200.85,52.335 204.183,52.5017 207.5,53C 208.713,56.2716 211.046,58.1049 214.5,58.5C 218.991,58.1882 220.324,56.0216 218.5,52C 214.238,50.4685 209.905,49.1351 205.5,48C 199.125,45.0544 197.125,40.2211 199.5,33.5C 201.253,31.7775 203.253,30.2775 205.5,29C 211.537,28.3029 217.537,28.4696 223.5,29.5 Z"/></g>
<g><path style="opacity:1" fill="#d23838" d="M 103.5,18.5 C 115.605,17.8857 124.938,22.5523 131.5,32.5C 132.32,34.1401 133.153,35.8068 134,37.5C 137.666,55.1756 131.166,67.1756 114.5,73.5C 113.508,73.6716 112.842,73.3382 112.5,72.5C 121.994,70.2694 128.328,64.6027 131.5,55.5C 132.404,54.791 132.737,53.791 132.5,52.5C 134.746,34.3739 126.746,23.7072 108.5,20.5C 106.833,19.8333 105.167,19.1667 103.5,18.5 Z"/></g>
<g><path style="opacity:1" fill="#babab9" d="M 529.5,27.5 C 529.5,28.5 529.5,29.5 529.5,30.5C 518.112,30.7713 509.612,35.7713 504,45.5C 498.512,58.6397 491.346,70.8064 482.5,82C 476.249,87.531 468.916,90.531 460.5,91C 333.167,91.6667 205.833,91.6667 78.5,91C 75.7737,90.8184 73.1071,90.3184 70.5,89.5C 70.9569,88.7025 71.6236,88.3691 72.5,88.5C 203.834,88.6667 335.167,88.5 466.5,88C 470.049,87.2264 473.382,85.893 476.5,84C 484.682,76.4594 491.016,67.6261 495.5,57.5C 497.713,52.0724 500.213,46.739 503,41.5C 509.079,31.7094 517.913,27.0427 529.5,27.5 Z"/></g>
<g><path style="opacity:1" fill="#d3d3d3" d="M -0.5,30.5 C 12.8202,31.4108 23.9869,36.7441 33,46.5C 39.6667,57.1667 46.3333,67.8333 53,78.5C 55.5366,81.372 58.3699,83.872 61.5,86C 64.0806,88.1586 66.7473,88.6586 69.5,87.5C 70.791,87.2627 71.791,87.596 72.5,88.5C 71.6236,88.3691 70.9569,88.7025 70.5,89.5C 73.1071,90.3184 75.7737,90.8184 78.5,91C 205.833,91.6667 333.167,91.6667 460.5,91C 468.916,90.531 476.249,87.531 482.5,82C 491.346,70.8064 498.512,58.6397 504,45.5C 509.612,35.7713 518.112,30.7713 529.5,30.5C 529.5,31.5 529.5,32.5 529.5,33.5C 526.303,33.9728 523.137,34.6394 520,35.5C 517.632,37.3693 515.132,39.036 512.5,40.5C 506.591,49.8722 501.424,59.5389 497,69.5C 492.237,78.4319 485.403,85.0986 476.5,89.5C 471.741,90.453 467.074,91.6196 462.5,93C 333.5,93.6667 204.5,93.6667 75.5,93C 63.7417,91.2422 54.5751,85.4088 48,75.5C 42.6233,65.9323 36.9566,56.599 31,47.5C 26.9935,44.3242 23.1602,40.9908 19.5,37.5C 12.918,35.4156 6.25136,33.7489 -0.5,32.5C -0.5,31.8333 -0.5,31.1667 -0.5,30.5 Z"/></g>
<g><path style="opacity:1" fill="#d95f5c" d="M 101.5,72.5 C 105.167,72.5 108.833,72.5 112.5,72.5C 112.842,73.3382 113.508,73.6716 114.5,73.5C 109.5,74.8333 104.5,74.8333 99.5,73.5C 100.492,73.6716 101.158,73.3382 101.5,72.5 Z"/></g>
<g><path style="opacity:1" fill="#4d4d4d" d="M 448.5,59.5 C 454.523,58.1966 458.189,60.53 459.5,66.5C 457.848,72.6598 454.181,74.4931 448.5,72C 455.29,73.2099 458.124,70.3766 457,63.5C 453.751,59.6327 450.418,59.6327 447,63.5C 446.667,65.5 446.333,67.5 446,69.5C 444.861,65.5789 445.695,62.2456 448.5,59.5 Z"/></g>
<g><path style="opacity:1" fill="#ecbcc4" d="M 122.5,62.5 C 121.5,63.8333 120.5,65.1667 119.5,66.5C 114.107,68.8789 108.44,69.8789 102.5,69.5C 109.675,68.7743 116.341,66.441 122.5,62.5 Z"/></g>
<g><path style="opacity:1" fill="#525252" d="M 449.5,62.5 C 451.167,62.5 452.833,62.5 454.5,62.5C 453.545,65.326 453.545,67.6593 454.5,69.5C 453.5,68.8333 452.5,68.1667 451.5,67.5C 450.808,68.0253 450.308,68.6919 450,69.5C 449.503,67.1902 449.337,64.8568 449.5,62.5 Z"/></g>
<g><path style="opacity:1" fill="#d1464b" d="M 119.5,66.5 C 120.5,65.1667 121.5,63.8333 122.5,62.5C 123.423,61.6971 124.423,61.5304 125.5,62C 123.886,64.1267 121.886,65.6267 119.5,66.5 Z"/></g>
<g><path style="opacity:1" fill="#dc6b87" d="M 120.5,59.5 C 122.048,59.8212 122.715,60.8212 122.5,62.5C 116.341,66.441 109.675,68.7743 102.5,69.5C 100.141,68.824 97.8076,67.9907 95.5,67C 99.4847,67.0327 101.818,65.1994 102.5,61.5C 103.213,67.7195 106.213,69.0528 111.5,65.5C 115.025,64.2411 118.025,62.2411 120.5,59.5 Z"/></g>
<g><path style="opacity:1" fill="#eedfdf" d="M 111.5,65.5 C 106.213,69.0528 103.213,67.7195 102.5,61.5C 104.053,58.746 106.386,57.9126 109.5,59C 111.229,60.7889 111.896,62.9556 111.5,65.5 Z"/></g>
<g><path style="opacity:1" fill="#d2414a" d="M 120.5,59.5 C 118.025,62.2411 115.025,64.2411 111.5,65.5C 111.896,62.9556 111.229,60.7889 109.5,59C 106.386,57.9126 104.053,58.746 102.5,61.5C 101.818,65.1994 99.4847,67.0327 95.5,67C 97.8076,67.9907 100.141,68.824 102.5,69.5C 108.44,69.8789 114.107,68.8789 119.5,66.5C 118.251,68.1361 116.584,69.3028 114.5,70C 106.23,71.6131 98.5632,70.2798 91.5,66C 90.3128,64.9805 89.3128,63.8139 88.5,62.5C 95.5262,56.9561 103.526,55.1227 112.5,57C 115.379,57.546 118.046,58.3794 120.5,59.5 Z"/></g>
<g><path style="opacity:1" fill="#d1434a" d="M 105.5,60.5 C 109.161,60.3501 110.161,61.8501 108.5,65C 104.707,65.4866 103.707,63.9866 105.5,60.5 Z"/></g>
<g><path style="opacity:1" fill="#cd2a31" d="M 129.5,54.5 C 129.573,56.0269 128.906,57.0269 127.5,57.5C 127.626,55.3784 128.293,54.3784 129.5,54.5 Z"/></g>
<g><path style="opacity:1" fill="#e0708c" d="M 123.5,31.5 C 126.787,34.404 128.787,38.0707 129.5,42.5C 128.667,47.0808 127.667,51.7475 126.5,56.5C 124.847,56.3404 123.514,55.6737 122.5,54.5C 123.497,54.5299 124.164,54.0299 124.5,53C 127.164,46.2265 126.831,39.7265 123.5,33.5C 123.5,32.8333 123.5,32.1667 123.5,31.5 Z"/></g>
<g><path style="opacity:1" fill="#e4aaac" d="M 129.5,42.5 C 129.335,45.8499 129.502,49.1832 130,52.5C 130.498,49.5184 130.665,46.5184 130.5,43.5C 131.167,46.5 131.833,49.5 132.5,52.5C 132.737,53.791 132.404,54.791 131.5,55.5C 131.591,53.3023 130.925,52.9689 129.5,54.5C 128.293,54.3784 127.626,55.3784 127.5,57.5C 126.833,57.5 126.5,57.1667 126.5,56.5C 127.667,51.7475 128.667,47.0808 129.5,42.5 Z"/></g>
<g><path style="opacity:1" fill="#909090" d="M 311.5,44.5 C 311.5,51.5 311.5,58.5 311.5,65.5C 306.833,65.5 302.167,65.5 297.5,65.5C 297.5,65.1667 297.5,64.8333 297.5,64.5C 301.833,64.5 306.167,64.5 310.5,64.5C 310.176,57.6457 310.509,50.979 311.5,44.5 Z"/></g>
<g><path style="opacity:1" fill="#d1404a" d="M 123.5,33.5 C 126.831,39.7265 127.164,46.2265 124.5,53C 124.164,54.0299 123.497,54.5299 122.5,54.5C 119.157,53.7761 115.824,52.9428 112.5,52C 116.067,45.6874 119.734,39.5208 123.5,33.5 Z"/></g>
<g><path style="opacity:1" fill="#4d4d4d" d="M 409.5,40.5 C 410.434,41.5676 410.768,42.901 410.5,44.5C 405.833,44.5 401.167,44.5 396.5,44.5C 396.263,43.209 396.596,42.209 397.5,41.5C 401.029,43.4228 405.029,44.0894 409.5,43.5C 409.5,42.5 409.5,41.5 409.5,40.5 Z"/></g>
<g><path style="opacity:1" fill="#484848" d="M 353.5,40.5 C 353.5,41.5 353.5,42.5 353.5,43.5C 357.833,43.5 362.167,43.5 366.5,43.5C 362.03,44.4861 357.363,44.8195 352.5,44.5C 352.232,42.901 352.566,41.5676 353.5,40.5 Z"/></g>
<g><path style="opacity:1" fill="#999999" d="M 334.5,37.5 C 335.494,46.6517 335.827,55.985 335.5,65.5C 330.637,65.8195 325.97,65.4861 321.5,64.5C 325.833,64.5 330.167,64.5 334.5,64.5C 334.5,55.5 334.5,46.5 334.5,37.5 Z"/></g>
<g><path style="opacity:1" fill="#e8e8e8" d="M 269.5,39.5 C 277.201,39.3622 280.367,43.0289 279,50.5C 274.715,55.8208 270.381,55.8208 266,50.5C 264.662,45.9597 265.829,42.293 269.5,39.5 Z"/></g>
<g><path style="opacity:1" fill="#eb809f" d="M 93.5,37.5 C 91.8523,38.8098 90.1856,40.1431 88.5,41.5C 83.9231,51.1072 82.5898,50.7739 84.5,40.5C 86.448,38.2113 88.448,35.878 90.5,33.5C 91.984,34.4669 92.984,35.8002 93.5,37.5 Z"/></g>
<g><path style="opacity:1" fill="#f2f2f2" d="M 409.5,40.5 C 409.5,41.5 409.5,42.5 409.5,43.5C 405.029,44.0894 401.029,43.4228 397.5,41.5C 399.697,36.3381 403.364,35.1714 408.5,38C 409.252,38.6708 409.586,39.5041 409.5,40.5 Z"/></g>
<g><path style="opacity:1" fill="#f0f0ef" d="M 366.5,43.5 C 362.167,43.5 357.833,43.5 353.5,43.5C 353.5,42.5 353.5,41.5 353.5,40.5C 355.749,36.7478 359.082,35.5812 363.5,37C 364.914,38.9935 365.914,41.1602 366.5,43.5 Z"/></g>
<g><path style="opacity:1" fill="#dedede" d="M -0.5,32.5 C 6.25136,33.7489 12.918,35.4156 19.5,37.5C 23.1602,40.9908 26.9935,44.3242 31,47.5C 36.9566,56.599 42.6233,65.9323 48,75.5C 54.5751,85.4088 63.7417,91.2422 75.5,93C 204.5,93.6667 333.5,93.6667 462.5,93C 467.074,91.6196 471.741,90.453 476.5,89.5C 474.161,91.175 471.827,92.8417 469.5,94.5C 336.5,94.5 203.5,94.5 70.5,94.5C 62.7533,92.7015 56.2533,88.7015 51,82.5C 44.2485,73.3366 38.2485,63.67 33,53.5C 24.8805,41.8978 13.7138,35.5645 -0.5,34.5C -0.5,33.8333 -0.5,33.1667 -0.5,32.5 Z"/></g>
</svg>
