<?xml version="1.0" encoding="UTF-8"?>
<!DOCTYPE svg PUBLIC "-//W3C//DTD SVG 1.1//EN" "http://www.w3.org/Graphics/SVG/1.1/DTD/svg11.dtd">
<svg xmlns="http://www.w3.org/2000/svg" version="1.1" width="225px" height="225px" style="shape-rendering:geometricPrecision; text-rendering:geometricPrecision; image-rendering:optimizeQuality; fill-rule:evenodd; clip-rule:evenodd" xmlns:xlink="http://www.w3.org/1999/xlink">
<g><path style="opacity:1" fill="#fefefe" d="M -0.5,-0.5 C 74.5,-0.5 149.5,-0.5 224.5,-0.5C 224.5,74.5 224.5,149.5 224.5,224.5C 149.5,224.5 74.5,224.5 -0.5,224.5C -0.5,189.833 -0.5,155.167 -0.5,120.5C 4.75918,121.896 10.0925,123.063 15.5,124C 21.4688,129.448 28.1355,132.615 35.5,133.5C 35.0578,137.154 34.7244,140.821 34.5,144.5C 36.5273,144.662 38.5273,144.495 40.5,144C 39.2068,143.51 37.8734,143.343 36.5,143.5C 36.5,142.167 36.5,140.833 36.5,139.5C 37.675,139.719 38.675,139.386 39.5,138.5C 38.1468,137.476 37.4802,136.143 37.5,134.5C 39.288,134.785 40.9547,134.452 42.5,133.5C 40.604,132.534 38.604,132.201 36.5,132.5C 39.8819,131.313 43.2153,129.813 46.5,128C 52.8611,121.307 59.1944,114.64 65.5,108C 69.579,105.925 73.079,103.092 76,99.5C 76.3333,106.167 76.6667,112.833 77,119.5C 80.5141,132.852 88.0141,136.019 99.5,129C 99.1667,128.667 98.8333,128.333 98.5,128C 99.8613,126.416 100.528,124.582 100.5,122.5C 103.607,122.351 106.607,122.851 109.5,124C 114.554,127.61 119.221,130.777 123.5,133.5C 123.276,137.179 122.942,140.846 122.5,144.5C 123.873,144.657 125.207,144.49 126.5,144C 125.342,142.991 124.675,141.658 124.5,140C 124.696,138.122 125.029,136.288 125.5,134.5C 126.222,134.082 126.722,133.416 127,132.5C 127.333,132.833 127.667,133.167 128,133.5C 132.326,132.212 136.492,130.379 140.5,128C 141.464,126.275 142.131,124.441 142.5,122.5C 147.505,116.86 153.171,111.86 159.5,107.5C 160.367,110.935 161.534,114.268 163,117.5C 165.333,120.167 167.667,122.833 170,125.5C 175.143,129.195 180.309,132.529 185.5,135.5C 183.547,138.24 183.214,141.24 184.5,144.5C 185.081,141.594 186.081,138.927 187.5,136.5C 188.693,136.97 189.36,137.97 189.5,139.5C 188.888,141.338 188.888,143.005 189.5,144.5C 191.283,142.977 191.949,140.977 191.5,138.5C 192.117,138.389 192.617,138.056 193,137.5C 193.278,138.416 193.778,139.082 194.5,139.5C 198.785,141.928 198.452,143.428 193.5,144C 195.167,144.667 196.833,144.667 198.5,144C 199.022,143.439 199.355,142.772 199.5,142C 198.445,140.493 197.445,138.993 196.5,137.5C 198.741,137.046 200.741,137.046 202.5,137.5C 200.478,144.534 202.645,146.201 209,142.5C 210.128,140.655 210.628,138.655 210.5,136.5C 217.736,134.371 219.736,130.038 216.5,123.5C 215.713,121.896 214.38,121.229 212.5,121.5C 209.892,121.4 207.558,122.067 205.5,123.5C 197.625,121.227 190.291,117.893 183.5,113.5C 187.477,110.41 191.644,107.41 196,104.5C 199.936,98.8917 204.27,93.5584 209,88.5C 209.494,86.8659 209.66,85.1992 209.5,83.5C 210.833,81.5 210.833,79.5 209.5,77.5C 209.5,76.5 209.5,75.5 209.5,74.5C 207.217,74.3921 205.217,73.5588 203.5,72C 191.303,71.2862 181.136,75.4529 173,84.5C 171.182,82.4855 169.182,81.4855 167,81.5C 163.778,84.388 160.278,86.888 156.5,89C 149.832,95.7389 142.499,102.572 134.5,109.5C 132.929,110.309 131.262,110.643 129.5,110.5C 124.833,107.5 120.167,104.5 115.5,101.5C 115.038,100.12 114.038,99.4534 112.5,99.5C 111.136,100.043 109.803,100.21 108.5,100C 110.592,96.8897 110.925,93.723 109.5,90.5C 109.5,88.8333 109.5,87.1667 109.5,85.5C 110.082,84.0689 110.915,82.7356 112,81.5C 112.667,77.8333 112.667,74.1667 112,70.5C 110.927,66.9164 110.26,63.2498 110,59.5C 106.97,54.4381 102.47,52.6048 96.5,54C 92.1254,56.0329 88.2921,58.8662 85,62.5C 83.1745,59.1626 80.3412,57.1626 76.5,56.5C 68.0688,61.0518 66.4022,67.5518 71.5,76C 71.1667,76.3333 70.8333,76.6667 70.5,77C 72.0356,78.5994 72.5356,80.4328 72,82.5C 63.4104,87.4261 56.0771,93.7594 50,101.5C 49.6667,101.167 49.3333,100.833 49,100.5C 47.5,102.667 46,104.833 44.5,107C 41.9664,107.516 39.7998,108.683 38,110.5C 36.103,108.984 33.9363,108.317 31.5,108.5C 28.4873,105.664 25.154,103.331 21.5,101.5C 20.6261,100.475 19.4595,99.8082 18,99.5C 13.0627,100.294 8.22941,101.461 3.5,103C 1.5313,104.5 0.197963,106.333 -0.5,108.5C -0.5,72.1667 -0.5,35.8333 -0.5,-0.5 Z"/></g>
<g><path style="opacity:1" fill="#0a974a" d="M 105.5,57.5 C 106.458,57.9528 107.292,58.6195 108,59.5C 109.587,65.0908 110.254,70.7575 110,76.5C 109.464,78.8689 108.297,80.8689 106.5,82.5C 107.188,83.8549 108.188,84.8549 109.5,85.5C 109.5,87.1667 109.5,88.8333 109.5,90.5C 108.615,93.06 106.949,95.06 104.5,96.5C 101.351,96.7886 98.3508,96.2886 95.5,95C 85.6712,86.0299 80.3379,74.8632 79.5,61.5C 80.1667,61.5 80.8333,61.5 81.5,61.5C 83.5716,63.3495 84.9049,65.6829 85.5,68.5C 86.3201,70.1401 87.1534,71.8068 88,73.5C 90.3262,67.1794 94.1596,62.0128 99.5,58C 101.473,57.5045 103.473,57.3379 105.5,57.5 Z"/></g>
<g><path style="opacity:1" fill="#f1f9ee" d="M 109.5,85.5 C 108.188,84.8549 107.188,83.8549 106.5,82.5C 108.297,80.8689 109.464,78.8689 110,76.5C 110.254,70.7575 109.587,65.0908 108,59.5C 107.292,58.6195 106.458,57.9528 105.5,57.5C 101.895,56.1329 98.2287,56.2996 94.5,58C 92.3311,62.3266 89.3311,65.8266 85.5,68.5C 84.9049,65.6829 83.5716,63.3495 81.5,61.5C 79.7116,60.3775 77.7116,60.2109 75.5,61C 73.5223,64.9331 73.0223,69.0998 74,73.5C 74.9816,77.5896 76.1482,81.5896 77.5,85.5C 77.1667,85.5 76.8333,85.5 76.5,85.5C 74.712,85.2148 73.0453,85.5481 71.5,86.5C 66.8594,90.8052 62.1927,95.1386 57.5,99.5C 56.2638,100.246 54.9305,100.579 53.5,100.5C 52.9087,103.614 51.242,106.114 48.5,108C 45.2527,110.548 41.5861,112.048 37.5,112.5C 35.2228,111.551 33.2228,110.218 31.5,108.5C 33.9363,108.317 36.103,108.984 38,110.5C 39.7998,108.683 41.9664,107.516 44.5,107C 46,104.833 47.5,102.667 49,100.5C 49.3333,100.833 49.6667,101.167 50,101.5C 56.0771,93.7594 63.4104,87.4261 72,82.5C 72.5356,80.4328 72.0356,78.5994 70.5,77C 70.8333,76.6667 71.1667,76.3333 71.5,76C 66.4022,67.5518 68.0688,61.0518 76.5,56.5C 80.3412,57.1626 83.1745,59.1626 85,62.5C 88.2921,58.8662 92.1254,56.0329 96.5,54C 102.47,52.6048 106.97,54.4381 110,59.5C 110.26,63.2498 110.927,66.9164 112,70.5C 112.667,74.1667 112.667,77.8333 112,81.5C 110.915,82.7356 110.082,84.0689 109.5,85.5 Z"/></g>
<g><path style="opacity:1" fill="#cdeacb" d="M 105.5,57.5 C 103.473,57.3379 101.473,57.5045 99.5,58C 94.1596,62.0128 90.3262,67.1794 88,73.5C 87.1534,71.8068 86.3201,70.1401 85.5,68.5C 89.3311,65.8266 92.3311,62.3266 94.5,58C 98.2287,56.2996 101.895,56.1329 105.5,57.5 Z"/></g>
<g><path style="opacity:1" fill="#bae3b5" d="M 79.5,61.5 C 80.3379,74.8632 85.6712,86.0299 95.5,95C 98.3508,96.2886 101.351,96.7886 104.5,96.5C 104.084,98.7525 102.751,100.252 100.5,101C 97.6308,101.009 94.9641,101.176 92.5,101.5C 88.6127,92.1288 86.946,92.9621 87.5,104C 87.5114,108.889 88.0114,113.723 89,118.5C 91.1826,123.357 94.0159,123.691 97.5,119.5C 97.5,120.833 97.5,122.167 97.5,123.5C 90.6376,128.675 85.8043,127.342 83,119.5C 82.5003,111.841 82.3336,104.174 82.5,96.5C 83.8333,96.5 85.1667,96.5 86.5,96.5C 80.8017,87.252 77.135,77.0853 75.5,66C 76.6045,64.2847 77.9378,62.7847 79.5,61.5 Z"/></g>
<g><path style="opacity:1" fill="#11984b" d="M 199.5,74.5 C 203.195,74.3502 206.528,75.3502 209.5,77.5C 210.833,79.5 210.833,81.5 209.5,83.5C 205.998,89.1528 201.998,94.4861 197.5,99.5C 194,101.415 190.333,103.082 186.5,104.5C 182.872,103.564 182.539,101.898 185.5,99.5C 187.5,97.1667 189.5,94.8333 191.5,92.5C 195.182,90.4317 196.515,87.4317 195.5,83.5C 188.312,84.9208 182.645,88.5875 178.5,94.5C 174.768,102.141 176.435,108.474 183.5,113.5C 190.291,117.893 197.625,121.227 205.5,123.5C 206.806,124.467 207.473,125.801 207.5,127.5C 206.5,127.5 205.5,127.5 204.5,127.5C 191.684,127.181 180.85,122.514 172,113.5C 169.844,109.738 169.177,105.738 170,101.5C 171.588,97.3283 173.421,93.3283 175.5,89.5C 182.507,82.8095 190.507,77.8095 199.5,74.5 Z"/></g>
<g><path style="opacity:1" fill="#bbe4b7" d="M 191.5,92.5 C 191.5,91.1667 191.5,89.8333 191.5,88.5C 189.436,88.687 187.436,89.187 185.5,90C 183.266,91.7498 180.932,93.2498 178.5,94.5C 182.645,88.5875 188.312,84.9208 195.5,83.5C 196.515,87.4317 195.182,90.4317 191.5,92.5 Z"/></g>
<g><path style="opacity:1" fill="#d7efd2" d="M 199.5,74.5 C 190.507,77.8095 182.507,82.8095 175.5,89.5C 165.747,96.5491 162.747,105.882 166.5,117.5C 165.21,116.942 164.377,115.942 164,114.5C 163.833,112.667 163.667,110.833 163.5,109C 163.572,104.837 164.405,101.004 166,97.5C 162.964,100.704 159.797,103.704 156.5,106.5C 159.167,102.833 161.833,99.1667 164.5,95.5C 167.104,93.4 169.604,91.0666 172,88.5C 172.483,87.552 172.649,86.552 172.5,85.5C 173.222,85.9175 173.722,86.5842 174,87.5C 178.993,84.0597 183.826,80.2264 188.5,76C 192.114,75.0642 195.78,74.5642 199.5,74.5 Z"/></g>
<g><path style="opacity:1" fill="#d8efd2" d="M 209.5,83.5 C 209.66,85.1992 209.494,86.8659 209,88.5C 204.27,93.5584 199.936,98.8917 196,104.5C 191.644,107.41 187.477,110.41 183.5,113.5C 176.435,108.474 174.768,102.141 178.5,94.5C 180.932,93.2498 183.266,91.7498 185.5,90C 187.436,89.187 189.436,88.687 191.5,88.5C 191.5,89.8333 191.5,91.1667 191.5,92.5C 189.5,94.8333 187.5,97.1667 185.5,99.5C 183.876,99.3601 182.71,100.027 182,101.5C 180.282,104.278 180.282,106.944 182,109.5C 188.349,107.982 193.515,104.649 197.5,99.5C 201.998,94.4861 205.998,89.1528 209.5,83.5 Z"/></g>
<g><path style="opacity:1" fill="#e1f3dc" d="M 81.5,61.5 C 80.8333,61.5 80.1667,61.5 79.5,61.5C 77.9378,62.7847 76.6045,64.2847 75.5,66C 77.135,77.0853 80.8017,87.252 86.5,96.5C 85.1667,96.5 83.8333,96.5 82.5,96.5C 82.3336,104.174 82.5003,111.841 83,119.5C 85.8043,127.342 90.6376,128.675 97.5,123.5C 96.4292,128.22 93.4292,130.887 88.5,131.5C 86.9288,129.585 84.9288,128.585 82.5,128.5C 78.9035,117.805 77.7369,106.805 79,95.5C 81.6512,94.5683 81.9845,93.2349 80,91.5C 77.1937,94.3063 74.3604,97.1396 71.5,100C 66.3084,103.38 61.3084,106.88 56.5,110.5C 62.4959,103.671 68.9959,97.3377 76,91.5C 76.4643,90.9056 76.631,90.2389 76.5,89.5C 77.1408,88.5178 77.8075,87.5178 78.5,86.5C 78.3764,85.8933 78.0431,85.56 77.5,85.5C 76.1482,81.5896 74.9816,77.5896 74,73.5C 73.0223,69.0998 73.5223,64.9331 75.5,61C 77.7116,60.2109 79.7116,60.3775 81.5,61.5 Z"/></g>
<g><path style="opacity:1" fill="#099749" d="M 92.5,101.5 C 94.1117,105.058 95.445,108.725 96.5,112.5C 96.5569,113.609 96.8902,114.609 97.5,115.5C 97.5,116.833 97.5,118.167 97.5,119.5C 94.0159,123.691 91.1826,123.357 89,118.5C 88.0114,113.723 87.5114,108.889 87.5,104C 86.946,92.9621 88.6127,92.1288 92.5,101.5 Z"/></g>
<g><path style="opacity:1" fill="#bfe5b9" d="M 175.5,89.5 C 173.421,93.3283 171.588,97.3283 170,101.5C 169.177,105.738 169.844,109.738 172,113.5C 180.85,122.514 191.684,127.181 204.5,127.5C 205.301,129.042 205.634,130.708 205.5,132.5C 192.877,132.346 181.21,129.013 170.5,122.5C 170.269,119.937 168.935,118.27 166.5,117.5C 162.747,105.882 165.747,96.5491 175.5,89.5 Z"/></g>
<g><path style="opacity:1" fill="#13984b" d="M 76.5,85.5 C 76.8333,85.5 77.1667,85.5 77.5,85.5C 78.0431,85.56 78.3764,85.8933 78.5,86.5C 77.8075,87.5178 77.1408,88.5178 76.5,89.5C 65.7034,99.1274 55.0367,108.961 44.5,119C 40.405,121.22 36.0717,121.887 31.5,121C 24.9717,115.069 17.305,111.902 8.5,111.5C 8.39387,108.921 9.06054,106.588 10.5,104.5C 13.9606,102.973 17.6273,101.973 21.5,101.5C 25.154,103.331 28.4873,105.664 31.5,108.5C 33.2228,110.218 35.2228,111.551 37.5,112.5C 40.9329,113.876 44.2662,113.376 47.5,111C 56.8638,102.012 66.5304,93.5118 76.5,85.5 Z"/></g>
<g><path style="opacity:1" fill="#d4eed1" d="M 76.5,85.5 C 66.5304,93.5118 56.8638,102.012 47.5,111C 44.2662,113.376 40.9329,113.876 37.5,112.5C 41.5861,112.048 45.2527,110.548 48.5,108C 51.242,106.114 52.9087,103.614 53.5,100.5C 54.9305,100.579 56.2638,100.246 57.5,99.5C 62.1927,95.1386 66.8594,90.8052 71.5,86.5C 73.0453,85.5481 74.712,85.2148 76.5,85.5 Z"/></g>
<g><path style="opacity:1" fill="#11984b" d="M 170.5,85.5 C 171.167,85.5 171.833,85.5 172.5,85.5C 172.649,86.552 172.483,87.552 172,88.5C 169.604,91.0666 167.104,93.4 164.5,95.5C 156.338,103.495 148.005,111.328 139.5,119C 135.405,121.22 131.072,121.887 126.5,121C 119.715,114.793 111.715,111.627 102.5,111.5C 102.433,110.041 102.766,108.708 103.5,107.5C 106.413,103.445 110.413,101.445 115.5,101.5C 120.167,104.5 124.833,107.5 129.5,110.5C 129.833,111.5 130.5,112.167 131.5,112.5C 132.261,113.391 133.261,114.058 134.5,114.5C 137.779,113.527 140.779,112.027 143.5,110C 152.396,101.598 161.396,93.4315 170.5,85.5 Z"/></g>
<g><path style="opacity:1" fill="#f4fbf2" d="M 209.5,77.5 C 206.528,75.3502 203.195,74.3502 199.5,74.5C 195.78,74.5642 192.114,75.0642 188.5,76C 183.826,80.2264 178.993,84.0597 174,87.5C 173.722,86.5842 173.222,85.9175 172.5,85.5C 171.833,85.5 171.167,85.5 170.5,85.5C 170.157,83.7748 169.157,83.2748 167.5,84C 158.859,89.3109 151.526,95.9775 145.5,104C 143.208,105.29 141.208,106.957 139.5,109C 136.91,110.445 134.243,111.612 131.5,112.5C 130.5,112.167 129.833,111.5 129.5,110.5C 131.262,110.643 132.929,110.309 134.5,109.5C 142.499,102.572 149.832,95.7389 156.5,89C 160.278,86.888 163.778,84.388 167,81.5C 169.182,81.4855 171.182,82.4855 173,84.5C 181.136,75.4529 191.303,71.2862 203.5,72C 205.217,73.5588 207.217,74.3921 209.5,74.5C 209.5,75.5 209.5,76.5 209.5,77.5 Z"/></g>
<g><path style="opacity:1" fill="#bee5b8" d="M 185.5,99.5 C 182.539,101.898 182.872,103.564 186.5,104.5C 190.333,103.082 194,101.415 197.5,99.5C 193.515,104.649 188.349,107.982 182,109.5C 180.282,106.944 180.282,104.278 182,101.5C 182.71,100.027 183.876,99.3601 185.5,99.5 Z"/></g>
<g><path style="opacity:1" fill="#e2f3de" d="M 109.5,90.5 C 110.925,93.723 110.592,96.8897 108.5,100C 109.803,100.21 111.136,100.043 112.5,99.5C 114.038,99.4534 115.038,100.12 115.5,101.5C 110.413,101.445 106.413,103.445 103.5,107.5C 100.63,108.433 98.2964,110.1 96.5,112.5C 95.445,108.725 94.1117,105.058 92.5,101.5C 94.9641,101.176 97.6308,101.009 100.5,101C 102.751,100.252 104.084,98.7525 104.5,96.5C 106.949,95.06 108.615,93.06 109.5,90.5 Z"/></g>
<g><path style="opacity:1" fill="#def2da" d="M 170.5,85.5 C 161.396,93.4315 152.396,101.598 143.5,110C 140.779,112.027 137.779,113.527 134.5,114.5C 133.261,114.058 132.261,113.391 131.5,112.5C 134.243,111.612 136.91,110.445 139.5,109C 141.208,106.957 143.208,105.29 145.5,104C 151.526,95.9775 158.859,89.3109 167.5,84C 169.157,83.2748 170.157,83.7748 170.5,85.5 Z"/></g>
<g><path style="opacity:1" fill="#c1e6bb" d="M 164.5,95.5 C 161.833,99.1667 159.167,102.833 156.5,106.5C 149.157,111.655 142.157,117.488 135.5,124C 132.635,124.837 129.802,125.67 127,126.5C 120.413,124.58 114.247,121.746 108.5,118C 104.533,117.997 100.866,117.164 97.5,115.5C 96.8902,114.609 96.5569,113.609 96.5,112.5C 98.2964,110.1 100.63,108.433 103.5,107.5C 102.766,108.708 102.433,110.041 102.5,111.5C 111.715,111.627 119.715,114.793 126.5,121C 131.072,121.887 135.405,121.22 139.5,119C 148.005,111.328 156.338,103.495 164.5,95.5 Z"/></g>
<g><path style="opacity:1" fill="#c2e6bc" d="M 76.5,89.5 C 76.631,90.2389 76.4643,90.9056 76,91.5C 68.9959,97.3377 62.4959,103.671 56.5,110.5C 50.7383,114.757 45.405,119.59 40.5,125C 38.2001,125.658 35.8668,126.158 33.5,126.5C 29.0812,126.071 25.0812,124.737 21.5,122.5C 15.3435,119.733 8.84347,117.733 2,116.5C 1.33333,114.833 1.33333,113.167 2,111.5C 4.44359,108.507 7.27693,106.174 10.5,104.5C 9.06054,106.588 8.39387,108.921 8.5,111.5C 17.305,111.902 24.9717,115.069 31.5,121C 36.0717,121.887 40.405,121.22 44.5,119C 55.0367,108.961 65.7034,99.1274 76.5,89.5 Z"/></g>
<g><path style="opacity:1" fill="#f1f9ef" d="M 97.5,123.5 C 98.404,122.791 98.7373,121.791 98.5,120.5C 107.703,119.208 115.369,122.042 121.5,129C 127.023,131.18 132.357,130.847 137.5,128C 138.833,125.809 140.5,123.976 142.5,122.5C 142.131,124.441 141.464,126.275 140.5,128C 136.492,130.379 132.326,132.212 128,133.5C 127.667,133.167 127.333,132.833 127,132.5C 126.722,133.416 126.222,134.082 125.5,134.5C 125.591,132.302 124.925,131.969 123.5,133.5C 119.221,130.777 114.554,127.61 109.5,124C 106.607,122.851 103.607,122.351 100.5,122.5C 100.528,124.582 99.8613,126.416 98.5,128C 98.8333,128.333 99.1667,128.667 99.5,129C 88.0141,136.019 80.5141,132.852 77,119.5C 76.6667,112.833 76.3333,106.167 76,99.5C 73.079,103.092 69.579,105.925 65.5,108C 59.1944,114.64 52.8611,121.307 46.5,128C 43.2153,129.813 39.8819,131.313 36.5,132.5C 36.5,133.167 36.1667,133.5 35.5,133.5C 28.1355,132.615 21.4688,129.448 15.5,124C 10.0925,123.063 4.75918,121.896 -0.5,120.5C -0.5,116.5 -0.5,112.5 -0.5,108.5C 0.197963,106.333 1.5313,104.5 3.5,103C 8.22941,101.461 13.0627,100.294 18,99.5C 19.4595,99.8082 20.6261,100.475 21.5,101.5C 17.6273,101.973 13.9606,102.973 10.5,104.5C 7.27693,106.174 4.44359,108.507 2,111.5C 1.33333,113.167 1.33333,114.833 2,116.5C 8.84347,117.733 15.3435,119.733 21.5,122.5C 23.69,123.374 24.69,125.041 24.5,127.5C 30.7236,129.252 36.7236,128.752 42.5,126C 47.0545,120.618 51.7211,115.452 56.5,110.5C 61.3084,106.88 66.3084,103.38 71.5,100C 74.3604,97.1396 77.1937,94.3063 80,91.5C 81.9845,93.2349 81.6512,94.5683 79,95.5C 77.7369,106.805 78.9035,117.805 82.5,128.5C 84.9288,128.585 86.9288,129.585 88.5,131.5C 93.4292,130.887 96.4292,128.22 97.5,123.5 Z"/></g>
<g><path style="opacity:1" fill="#71be89" d="M 212.5,121.5 C 214.38,121.229 215.713,121.896 216.5,123.5C 216.592,127.071 214.926,128.238 211.5,127C 210.156,124.856 210.49,123.023 212.5,121.5 Z"/></g>
<g><path style="opacity:1" fill="#daf0d4" d="M 56.5,110.5 C 51.7211,115.452 47.0545,120.618 42.5,126C 36.7236,128.752 30.7236,129.252 24.5,127.5C 24.69,125.041 23.69,123.374 21.5,122.5C 25.0812,124.737 29.0812,126.071 33.5,126.5C 35.8668,126.158 38.2001,125.658 40.5,125C 45.405,119.59 50.7383,114.757 56.5,110.5 Z"/></g>
<g><path style="opacity:1" fill="#e6f5e2" d="M 166.5,117.5 C 168.935,118.27 170.269,119.937 170.5,122.5C 170.414,123.496 170.748,124.329 171.5,125C 179.677,130.392 188.677,133.392 198.5,134C 197.944,134.383 197.611,134.883 197.5,135.5C 195.088,135.694 194.088,137.027 194.5,139.5C 193.778,139.082 193.278,138.416 193,137.5C 192.617,138.056 192.117,138.389 191.5,138.5C 191.5,137.5 191.5,136.5 191.5,135.5C 189.901,135.232 188.568,135.566 187.5,136.5C 186.833,136.167 186.167,135.833 185.5,135.5C 180.309,132.529 175.143,129.195 170,125.5C 167.667,122.833 165.333,120.167 163,117.5C 161.534,114.268 160.367,110.935 159.5,107.5C 153.171,111.86 147.505,116.86 142.5,122.5C 140.5,123.976 138.833,125.809 137.5,128C 132.357,130.847 127.023,131.18 121.5,129C 115.369,122.042 107.703,119.208 98.5,120.5C 98.7373,121.791 98.404,122.791 97.5,123.5C 97.5,122.167 97.5,120.833 97.5,119.5C 97.5,118.167 97.5,116.833 97.5,115.5C 100.866,117.164 104.533,117.997 108.5,118C 114.247,121.746 120.413,124.58 127,126.5C 129.802,125.67 132.635,124.837 135.5,124C 142.157,117.488 149.157,111.655 156.5,106.5C 159.797,103.704 162.964,100.704 166,97.5C 164.405,101.004 163.572,104.837 163.5,109C 163.667,110.833 163.833,112.667 164,114.5C 164.377,115.942 165.21,116.942 166.5,117.5 Z"/></g>
<g><path style="opacity:1" fill="#d6efd1" d="M 212.5,121.5 C 210.49,123.023 210.156,124.856 211.5,127C 214.926,128.238 216.592,127.071 216.5,123.5C 219.736,130.038 217.736,134.371 210.5,136.5C 207.589,135.017 204.922,135.35 202.5,137.5C 200.741,137.046 198.741,137.046 196.5,137.5C 197.263,136.732 198.263,136.232 199.5,136C 198.906,135.536 198.239,135.369 197.5,135.5C 197.611,134.883 197.944,134.383 198.5,134C 188.677,133.392 179.677,130.392 171.5,125C 170.748,124.329 170.414,123.496 170.5,122.5C 181.21,129.013 192.877,132.346 205.5,132.5C 205.634,130.708 205.301,129.042 204.5,127.5C 205.5,127.5 206.5,127.5 207.5,127.5C 207.473,125.801 206.806,124.467 205.5,123.5C 207.558,122.067 209.892,121.4 212.5,121.5 Z"/></g>
<g><path style="opacity:1" fill="#1d9b50" d="M 81.5,132.5 C 83.337,132.639 83.6704,133.306 82.5,134.5C 81.7025,134.043 81.3691,133.376 81.5,132.5 Z"/></g>
<g><path style="opacity:1" fill="#319f55" d="M 106.5,143.5 C 105.432,144.434 104.099,144.768 102.5,144.5C 101.936,139.052 104.269,135.385 109.5,133.5C 110.769,137.289 110.436,140.955 108.5,144.5C 107.817,144.137 107.15,143.804 106.5,143.5 Z"/></g>
<g><path style="opacity:1" fill="#22994a" d="M 74.5,135.5 C 78.8926,135.457 79.2259,135.957 75.5,137C 72.4437,140.445 73.1104,142.778 77.5,144C 72.3333,145.5 70.5,143.667 72,138.5C 73.045,137.627 73.8783,136.627 74.5,135.5 Z"/></g>
<g><path style="opacity:1" fill="#e6f3eb" d="M 106.5,143.5 C 103.791,140.991 104.125,138.658 107.5,136.5C 108.632,138.99 108.299,141.324 106.5,143.5 Z"/></g>
<g><path style="opacity:1" fill="#3ca25c" d="M 141.5,143.5 C 139.735,144.461 137.735,144.795 135.5,144.5C 135.686,140.552 136.352,136.719 137.5,133C 144,131.5 146.5,134 145,140.5C 144.578,142.426 143.411,143.426 141.5,143.5 Z"/></g>
<g><path style="opacity:1" fill="#f0f8f3" d="M 141.5,143.5 C 140.167,143.5 138.833,143.5 137.5,143.5C 138.159,140.545 138.492,137.545 138.5,134.5C 140.144,134.286 141.644,134.62 143,135.5C 143.718,138.407 143.218,141.074 141.5,143.5 Z"/></g>
<g><path style="opacity:1" fill="#21984a" d="M 150.5,135.5 C 156.024,135.535 156.691,137.201 152.5,140.5C 152.167,140.333 151.833,140.167 151.5,140C 153.975,138.257 153.975,137.257 151.5,137C 148.349,140.54 149.015,142.874 153.5,144C 148.667,145.167 146.834,143.333 148,138.5C 149.045,137.627 149.878,136.627 150.5,135.5 Z"/></g>
<g><path style="opacity:1" fill="#299a4c" d="M 167.5,135.5 C 168.873,135.343 170.207,135.51 171.5,136C 167.574,136.58 166.074,138.747 167,142.5C 168.067,143.191 169.234,143.691 170.5,144C 167.402,145.067 165.402,144.067 164.5,141C 164.863,138.808 165.863,136.974 167.5,135.5 Z"/></g>
<g><path style="opacity:1" fill="#329d52" d="M 45.5,135.5 C 49.8383,135.622 50.1716,135.955 46.5,136.5C 46.703,138.638 47.703,140.305 49.5,141.5C 48.259,144.144 46.259,144.977 43.5,144C 45.0441,143.71 46.3774,143.044 47.5,142C 44.6272,140.439 43.9606,138.272 45.5,135.5 Z"/></g>
<g><path style="opacity:1" fill="#2f9c50" d="M 61.5,135.5 C 69.7203,134.268 71.7203,137.268 67.5,144.5C 67.1667,141.833 66.8333,139.167 66.5,136.5C 64.0598,138.109 62.8931,140.443 63,143.5C 62.1072,144.711 61.2739,144.711 60.5,143.5C 61.3928,140.916 61.7261,138.249 61.5,135.5 Z"/></g>
<g><path style="opacity:1" fill="#42a45f" d="M 80.5,135.5 C 81.7479,136.334 82.4146,137.667 82.5,139.5C 82.5637,141.389 82.0637,143.056 81,144.5C 80.502,141.518 80.3354,138.518 80.5,135.5 Z"/></g>
<g><path style="opacity:1" fill="#299a4d" d="M 158.5,135.5 C 162.838,135.622 163.172,135.955 159.5,136.5C 159.461,138.359 160.294,139.692 162,140.5C 162.667,141.5 162.667,142.5 162,143.5C 160.274,144.576 158.441,144.743 156.5,144C 157.938,143.781 159.271,143.281 160.5,142.5C 157.766,140.643 157.099,138.309 158.5,135.5 Z"/></g>
<g><path style="opacity:1" fill="#339d53" d="M 20.5,136.5 C 22.0348,135.212 23.7015,135.212 25.5,136.5C 24.9258,139.177 24.2592,141.843 23.5,144.5C 21.3984,144.521 19.2317,144.187 17,143.5C 16.5907,140.318 17.7573,137.985 20.5,136.5 Z"/></g>
<g><path style="opacity:1" fill="#e5f3eb" d="M 20.5,136.5 C 21.675,136.281 22.675,136.614 23.5,137.5C 22.9817,139.9 21.815,141.9 20,143.5C 18.2662,141.137 18.4329,138.804 20.5,136.5 Z"/></g>
<g><path style="opacity:1" fill="#2d9c4f" d="M 176.5,136.5 C 178.035,135.212 179.701,135.212 181.5,136.5C 180.926,139.177 180.259,141.843 179.5,144.5C 177.674,144.08 175.674,144.08 173.5,144.5C 173.338,142.473 173.505,140.473 174,138.5C 174.417,137.244 175.25,136.577 176.5,136.5 Z"/></g>
<g><path style="opacity:1" fill="#e1f1e7" d="M 176.5,136.5 C 177.5,136.5 178.5,136.5 179.5,136.5C 179.405,139.358 178.238,141.691 176,143.5C 174.266,141.137 174.433,138.804 176.5,136.5 Z"/></g>
<g><path style="opacity:1" fill="#279a4d" d="M 210.5,136.5 C 210.628,138.655 210.128,140.655 209,142.5C 202.645,146.201 200.478,144.534 202.5,137.5C 204.922,135.35 207.589,135.017 210.5,136.5 Z"/></g>
<g><path style="opacity:1" fill="#e8f4ed" d="M 205.5,136.5 C 208.244,137.072 209.077,138.738 208,141.5C 206.89,143.037 205.39,143.703 203.5,143.5C 203.394,140.921 204.061,138.588 205.5,136.5 Z"/></g>
<g><path style="opacity:1" fill="#1b9849" d="M 54.5,135.5 C 60.0241,135.535 60.6908,137.201 56.5,140.5C 56.1667,140.333 55.8333,140.167 55.5,140C 57.9746,138.257 57.9746,137.257 55.5,137C 53.771,138.789 53.1043,140.956 53.5,143.5C 54.8734,143.343 56.2068,143.51 57.5,144C 52.3333,145.5 50.5,143.667 52,138.5C 53.045,137.627 53.8783,136.627 54.5,135.5 Z"/></g>
<g><path style="opacity:1" fill="#2b9b4f" d="M 115.5,135.5 C 121.024,135.535 121.691,137.201 117.5,140.5C 117.835,139.336 117.835,138.003 117.5,136.5C 113.264,139.706 113.597,142.206 118.5,144C 113.9,145.583 112.066,144.083 113,139.5C 113.662,138.016 114.496,136.683 115.5,135.5 Z"/></g>
<g><path style="opacity:1" fill="#1a9645" d="M 125.5,134.5 C 125.029,136.288 124.696,138.122 124.5,140C 124.675,141.658 125.342,142.991 126.5,144C 125.207,144.49 123.873,144.657 122.5,144.5C 122.942,140.846 123.276,137.179 123.5,133.5C 124.925,131.969 125.591,132.302 125.5,134.5 Z"/></g>
<g><path style="opacity:1" fill="#28994b" d="M 197.5,135.5 C 198.239,135.369 198.906,135.536 199.5,136C 198.263,136.232 197.263,136.732 196.5,137.5C 197.445,138.993 198.445,140.493 199.5,142C 199.355,142.772 199.022,143.439 198.5,144C 196.833,144.667 195.167,144.667 193.5,144C 198.452,143.428 198.785,141.928 194.5,139.5C 194.088,137.027 195.088,135.694 197.5,135.5 Z"/></g>
<g><path style="opacity:1" fill="#359e54" d="M 9.5,133.5 C 10.6935,133.97 11.3601,134.97 11.5,136.5C 11.0029,138.818 10.6695,141.152 10.5,143.5C 11.8734,143.343 13.2068,143.51 14.5,144C 12.0982,144.814 9.76488,144.647 7.5,143.5C 8.5514,140.243 9.21807,136.91 9.5,133.5 Z"/></g>
<g><path style="opacity:1" fill="#319f55" d="M 89.5,143.5 C 88.4324,144.434 87.099,144.768 85.5,144.5C 84.6903,137.974 87.357,135.307 93.5,136.5C 92.9258,139.177 92.2592,141.843 91.5,144.5C 90.8165,144.137 90.1499,143.804 89.5,143.5 Z"/></g>
<g><path style="opacity:1" fill="#e9f5ee" d="M 89.5,143.5 C 86.7912,140.991 87.1245,138.658 90.5,136.5C 91.2792,138.885 90.9458,141.218 89.5,143.5 Z"/></g>
<g><path style="opacity:1" fill="#35a058" d="M 185.5,135.5 C 186.167,135.833 186.833,136.167 187.5,136.5C 186.081,138.927 185.081,141.594 184.5,144.5C 183.214,141.24 183.547,138.24 185.5,135.5 Z"/></g>
<g><path style="opacity:1" fill="#339d52" d="M 187.5,136.5 C 188.568,135.566 189.901,135.232 191.5,135.5C 191.5,136.5 191.5,137.5 191.5,138.5C 191.949,140.977 191.283,142.977 189.5,144.5C 188.888,143.005 188.888,141.338 189.5,139.5C 189.36,137.97 188.693,136.97 187.5,136.5 Z"/></g>
<g><path style="opacity:1" fill="#319c4f" d="M 36.5,132.5 C 38.604,132.201 40.604,132.534 42.5,133.5C 40.9547,134.452 39.288,134.785 37.5,134.5C 37.4802,136.143 38.1468,137.476 39.5,138.5C 38.675,139.386 37.675,139.719 36.5,139.5C 36.5,140.833 36.5,142.167 36.5,143.5C 37.8734,143.343 39.2068,143.51 40.5,144C 38.5273,144.495 36.5273,144.662 34.5,144.5C 34.7244,140.821 35.0578,137.154 35.5,133.5C 36.1667,133.5 36.5,133.167 36.5,132.5 Z"/></g>
<g><path style="opacity:1" fill="#fbbd51" d="M 93.5,156.5 C 95.1667,156.5 96.8333,156.5 98.5,156.5C 98.5,158.5 98.5,160.5 98.5,162.5C 96.8333,162.5 95.1667,162.5 93.5,162.5C 93.5,160.5 93.5,158.5 93.5,156.5 Z"/></g>
<g><path style="opacity:1" fill="#73bc8f" d="M 109.5,157.5 C 111.265,156.539 113.265,156.205 115.5,156.5C 115.5,158.5 115.5,160.5 115.5,162.5C 113.265,162.795 111.265,162.461 109.5,161.5C 111.167,161.5 112.833,161.5 114.5,161.5C 114.5,160.167 114.5,158.833 114.5,157.5C 112.833,157.5 111.167,157.5 109.5,157.5 Z"/></g>
<g><path style="opacity:1" fill="#71d1f5" d="M 117.5,156.5 C 119.5,156.5 121.5,156.5 123.5,156.5C 123.5,158.5 123.5,160.5 123.5,162.5C 121.5,162.5 119.5,162.5 117.5,162.5C 117.5,160.5 117.5,158.5 117.5,156.5 Z"/></g>
<g><path style="opacity:1" fill="#3a8fc5" d="M 125.5,156.5 C 127.5,156.5 129.5,156.5 131.5,156.5C 131.5,158.5 131.5,160.5 131.5,162.5C 129.5,162.5 127.5,162.5 125.5,162.5C 125.5,160.5 125.5,158.5 125.5,156.5 Z"/></g>
<g><path style="opacity:1" fill="#dd4c41" d="M 101.5,156.5 C 103.167,156.5 104.833,156.5 106.5,156.5C 106.5,158.5 106.5,160.5 106.5,162.5C 104.833,162.5 103.167,162.5 101.5,162.5C 101.5,160.5 101.5,158.5 101.5,156.5 Z"/></g>
<g><path style="opacity:1" fill="#009342" d="M 109.5,157.5 C 111.167,157.5 112.833,157.5 114.5,157.5C 114.5,158.833 114.5,160.167 114.5,161.5C 112.833,161.5 111.167,161.5 109.5,161.5C 109.5,160.167 109.5,158.833 109.5,157.5 Z"/></g>
</svg>
